<?xml version="1.0" standalone="no"?><!DOCTYPE svg PUBLIC "-//W3C//DTD SVG 1.1//EN" "http://www.w3.org/Graphics/SVG/1.1/DTD/svg11.dtd" ><svg version="1.1" xmlns="http://www.w3.org/2000/svg"><defs><font horiz-adv-x="0" id="font"><font-face ascent="746" bbox="-152.5 -295 3477 1127.25" cap-height="686" descent="-246" font-family="Indivisa Text Sans" font-stretch="normal" font-style="italic" font-weight="400" units-per-em="1000" x-height="496" /><missing-glyph d="M88 0H568L728 750H248ZM137 40 279 710H679L537 40ZM656 729 115 23H160L701 729ZM265 729 506 23H551L310 729Z" horiz-adv-x="680.5826" /><glyph d="M463 258.5H147L134 199H450ZM46.5 0 273.75 404C313.75 477.5 355 552.75 382 613.25H384C384.25 552.5 392.5 481.5 401.5 403.75L457 0H536.25L443.5 686L434.25 696L356.75 691.5C343.5 664 323.25 626.25 302.25 589L-28 0ZM385.5 688.75ZM529.5 10ZM264.5 0Z" glyph-name="A" horiz-adv-x="614.25" unicode="A" /><glyph d="M480.5 258.5H187L174.25 199H467.75ZM46.5 0 337.5 404C389.25 477 442.5 554 478.25 613.25H480.25C469.25 550.75 461.25 481.5 451.75 403.75L405.75 0H485L551 678.5L542.5 686.25H463C414 616.5 420.5 624.25 395.75 589L-28 0ZM818.75 686.25H525.5L512.5 627.5L812.25 622L825.5 677.5ZM750.5 371 500 368.25 488.5 313.25 735.75 310ZM773.75 64.25 469 58.75 456.75 0H760.25ZM531 688.75ZM374.75 0Z" glyph-name="AE" horiz-adv-x="859.5" unicode="&#198;" /><glyph d="M480.5 258.5H187L174.25 199H467.75ZM46.5 0 337.5 404C389.25 477 442.5 554 478.25 613.25H480.25C469.25 550.75 461.25 481.5 451.75 403.75L405.75 0H485L551 678.5L542.5 686.25H463C414 616.5 420.5 624.25 395.75 589L-28 0ZM818.75 686.25H525.5L512.5 627.5L812.25 622L825.5 677.5ZM750.5 371 500 368.25 488.5 313.25 735.75 310ZM773.75 64.25 469 58.75 456.75 0H760.25ZM531 688.75ZM374.75 0ZM660.75 842 620.25 880.5C570.75 839 511.75 801 454.5 769L462.75 747.5C529 765.5 593.75 791.75 658.75 829.5ZM531 688.75ZM572 880.5Z" glyph-name="AEacute" horiz-adv-x="859.5" unicode="&#508;" /><glyph d="M463 258.5H147L134 199H450ZM46.5 0 273.75 404C313.75 477.5 355 552.75 382 613.25H384C384.25 552.5 392.5 481.5 401.5 403.75L457 0H536.25L443.5 686L434.25 696L356.75 691.5C343.5 664 323.25 626.25 302.25 589L-28 0ZM385.5 688.75ZM529.5 10ZM264.5 0ZM515.25 842 474.75 880.5C425.25 839 366.25 801 309 769L317.25 747.5C383.5 765.5 448.25 791.75 513.25 829.5ZM385.5 688.75ZM426.5 880.5Z" glyph-name="Aacute" horiz-adv-x="614.25" unicode="&#193;" /><glyph d="M463 258.5H147L134 199H450ZM46.5 0 273.75 404C313.75 477.5 355 552.75 382 613.25H384C384.25 552.5 392.5 481.5 401.5 403.75L457 0H536.25L443.5 686L434.25 696L356.75 691.5C343.5 664 323.25 626.25 302.25 589L-28 0ZM385.5 688.75ZM529.5 10ZM264.5 0ZM385 748.75C450.5 748.75 514 806 534.75 877.75L504.25 872.5C479.25 831 441.75 800.5 397.5 800.5C353.75 800.5 328.25 827 319.75 871.25L290.5 865.75C282.25 802 322.25 748.75 385 748.75ZM385.5 688.75ZM425.5 877.75Z" glyph-name="Abreve" horiz-adv-x="614.25" unicode="&#258;" /><glyph d="M463 258.5H147L134 199H450ZM46.5 0 273.75 404C313.75 477.5 355 552.75 382 613.25H384C384.25 552.5 392.5 481.5 401.5 403.75L457 0H536.25L443.5 686L434.25 696L356.75 691.5C343.5 664 323.25 626.25 302.25 589L-28 0ZM385.5 688.75ZM529.5 10ZM264.5 0ZM525.25 877.5C473.75 851.25 425.25 821 378 786.25H414.25C382.75 821.5 344.5 851.75 304.75 877.5L278 861.75C308.75 822.75 332.75 786 355 749.75L425 756.75C474 801 496.5 821.25 545.5 861.75ZM385.5 688.75ZM425.25 877.5Z" glyph-name="Acaron" horiz-adv-x="614.25" unicode="&#461;" /><glyph d="M463 258.5H147L134 199H450ZM46.5 0 273.75 404C313.75 477.5 355 552.75 382 613.25H384C384.25 552.5 392.5 481.5 401.5 403.75L457 0H536.25L443.5 686L434.25 696L356.75 691.5C343.5 664 323.25 626.25 302.25 589L-28 0ZM385.5 688.75ZM529.5 10ZM264.5 0ZM298.25 749.75C349.75 776 398.25 806.25 445.5 841H409.25C440.75 805.75 478.25 774.75 518.75 749.75L545.5 765.5C514.75 804.5 490.75 841.25 468.5 877.5L398.5 870.5C349.5 826.25 327 806 278 765.5ZM385.5 688.75ZM425.25 877.5Z" glyph-name="Acircumflex" horiz-adv-x="614.25" unicode="&#194;" /><glyph d="M463 258.5H147L134 199H450ZM46.5 0 273.75 404C313.75 477.5 355 552.75 382 613.25H384C384.25 552.5 392.5 481.5 401.5 403.75L457 0H536.25L443.5 686L434.25 696L356.75 691.5C343.5 664 323.25 626.25 302.25 589L-28 0ZM385.5 688.75ZM529.5 10ZM264.5 0ZM355.5 830C355.5 851.5 340.75 867.5 317 867.5C282 867.5 246.75 833 246.75 798.5C246.75 775.75 263.75 759.75 287 759.75C321.25 759.75 355.5 794.25 355.5 830ZM576.75 830C576.75 851.5 562 867.5 538.25 867.5C503.25 867.5 468 833 468 798.5C468 775.75 485 759.75 508.25 759.75C542.5 759.75 576.75 794.25 576.75 830ZM385.5 688.75ZM423 867.5Z" glyph-name="Adieresis" horiz-adv-x="614.25" unicode="&#196;" /><glyph d="M463 258.5H147L134 199H450ZM46.5 0 273.75 404C313.75 477.5 355 552.75 382 613.25H384C384.25 552.5 392.5 481.5 401.5 403.75L457 0H536.25L443.5 686L434.25 696L356.75 691.5C343.5 664 323.25 626.25 302.25 589L-28 0ZM385.5 688.75ZM529.5 10ZM264.5 0ZM293.75 -169.75C293.75 -146 280.25 -131.25 256.5 -131.25C220.5 -131.25 184 -170.25 184 -208.5C184 -231.75 198.25 -248.75 223 -248.75C263.25 -248.75 293.75 -206.5 293.75 -169.75ZM206.75 -356.75ZM263 -94.5ZM264.5 0ZM229.5 -162.75Z" glyph-name="Adotbelow" horiz-adv-x="614.25" unicode="&#7840;" /><glyph d="M463 258.5H147L134 199H450ZM46.5 0 273.75 404C313.75 477.5 355 552.75 382 613.25H384C384.25 552.5 392.5 481.5 401.5 403.75L457 0H536.25L443.5 686L434.25 696L356.75 691.5C343.5 664 323.25 626.25 302.25 589L-28 0ZM385.5 688.75ZM529.5 10ZM264.5 0ZM484 747.5 501.75 769C458.25 800.75 417.75 835.5 382.75 880.5L326.25 842L322.5 829.5C371.5 791.5 425.75 766.5 484 747.5ZM385.5 688.75ZM426.5 880.5Z" glyph-name="Agrave" horiz-adv-x="614.25" unicode="&#192;" /><glyph d="M463 258.5H147L134 199H450ZM46.5 0 273.75 404C313.75 477.5 355 552.75 382 613.25H384C384.25 552.5 392.5 481.5 401.5 403.75L457 0H536.25L443.5 686L434.25 696L356.75 691.5C343.5 664 323.25 626.25 302.25 589L-28 0ZM385.5 688.75ZM529.5 10ZM264.5 0ZM276.5 787.25H536.75L547.75 839.5H287.5ZM385.5 688.75ZM418 839.5Z" glyph-name="Amacron" horiz-adv-x="614.25" unicode="&#256;" /><glyph d="M536.25 0 512.75 19.75C407 -25.25 279.25 -105 279.25 -192.25C279.25 -229.75 306.75 -253.75 352 -253.75C399.5 -253.75 446.5 -229.25 480 -197.75L476 -173.5C440.25 -195.75 411.75 -206.25 386.75 -206.25C360.75 -206.25 350.5 -192.75 350.5 -173.5C350.5 -114.25 435.25 -48 536.25 0ZM463 258.5H147L134 199H450ZM46.5 0 273.75 404C313.75 477.5 355 552.75 382 613.25H384C384.25 552.5 392.5 481.5 401.5 403.75L457 0H536.25L443.5 686L434.25 696L356.75 691.5C343.5 664 323.25 626.25 302.25 589L-28 0ZM385.5 688.75ZM529.5 10ZM264.5 0Z" glyph-name="Aogonek" horiz-adv-x="614.25" unicode="&#260;" /><glyph d="M463 258.5H147L134 199H450ZM46.5 0 273.75 404C313.75 477.5 355 552.75 382 613.25H384C384.25 552.5 392.5 481.5 401.5 403.75L457 0H536.25L443.5 686L434.25 696L356.75 691.5C343.5 664 323.25 626.25 302.25 589L-28 0ZM385.5 688.75ZM529.5 10ZM264.5 0ZM506 835C506 869.75 477.75 893.5 436 893.5C376.5 893.5 318.75 844.5 318.75 795C318.75 759.5 349.5 734.25 390.75 734.25C449.25 734.25 506 783 506 835ZM368.75 803.75C368.75 829.25 395.5 853 423.25 853C443.25 853 456 840.75 456 824C456 799.25 430.25 774.75 403.25 774.75C383.5 774.75 368.75 785.75 368.75 803.75ZM385.5 688.75ZM429.25 893.5Z" glyph-name="Aring" horiz-adv-x="614.25" unicode="&#197;" /><glyph d="M463 258.5H147L134 199H450ZM46.5 0 273.75 404C313.75 477.5 355 552.75 382 613.25H384C384.25 552.5 392.5 481.5 401.5 403.75L457 0H536.25L443.5 686L434.25 696L356.75 691.5C343.5 664 323.25 626.25 302.25 589L-28 0ZM385.5 688.75ZM529.5 10ZM264.5 0ZM506 835C506 869.75 477.75 893.5 436 893.5C376.5 893.5 318.75 844.5 318.75 795C318.75 759.5 349.5 734.25 390.75 734.25C449.25 734.25 506 783 506 835ZM368.75 803.75C368.75 829.25 395.5 853 423.25 853C443.25 853 456 840.75 456 824C456 799.25 430.25 774.75 403.25 774.75C383.5 774.75 368.75 785.75 368.75 803.75ZM385.5 688.75ZM429.25 893.5ZM559 1046.75 518.5 1085.25C469 1043.75 410 1005.75 352.75 973.75L361 952.25C427.25 970.25 492 996.5 557 1034.25ZM429.25 893.5ZM470.25 1085.25Z" glyph-name="Aringacute" horiz-adv-x="614.25" unicode="&#506;" /><glyph d="M463 258.5H147L134 199H450ZM46.5 0 273.75 404C313.75 477.5 355 552.75 382 613.25H384C384.25 552.5 392.5 481.5 401.5 403.75L457 0H536.25L443.5 686L434.25 696L356.75 691.5C343.5 664 323.25 626.25 302.25 589L-28 0ZM385.5 688.75ZM529.5 10ZM264.5 0ZM363 871C306.25 871 264.75 811.5 250 761L270.5 757C290.5 788.5 316.75 812.5 343.75 812.5C386.25 812.5 408.5 756 462.25 756C516.5 756 560.25 815.75 573.5 866L553 870C533.5 839.75 507.25 814.5 479 814.5C435.25 814.5 417.5 871 363 871ZM385.5 688.75ZM424.25 871.75Z" glyph-name="Atilde" horiz-adv-x="614.25" unicode="&#195;" /><glyph d="M142.75 0 289 686.25H204.5C200.5 641.25 191.75 589 179.5 531.25L66 0ZM232.5 0C400.25 0 534.25 85.25 534.25 222.25C534.25 290 501.75 336 422 357C506.75 384 572.75 457.5 572.75 544.25C572.75 633.5 503.25 686.25 382.25 686.25H273L260 628.75H360C448.25 628.75 492 593.25 492 527C492 439.25 415.5 379 304.25 379H207.5L196 324.75H299C413 324.75 454.75 285.25 454.75 217.75C454.75 121.25 368.25 57.5 245.25 57.5H136.75L124.25 0Z" glyph-name="B" horiz-adv-x="604" unicode="B" /><glyph d="M505 109C455.25 78.25 388.25 56 329.25 56C222.25 56 169.25 130.75 169.25 254.5C169.25 421.5 266.25 630.25 444.5 630.25C493.75 630.25 550.5 614 588.5 582.25L619 652.5C573 684.5 506.75 696.25 457.25 696.25C236.25 696.25 86.75 460.25 86.75 238C86.75 76 166.75 -10 305 -10C367.5 -10 444.5 8.25 500.75 43.5ZM431.5 688.75ZM265.75 0Z" glyph-name="C" horiz-adv-x="580.25" unicode="C" /><glyph d="M505 109C455.25 78.25 388.25 56 329.25 56C222.25 56 169.25 130.75 169.25 254.5C169.25 421.5 266.25 630.25 444.5 630.25C493.75 630.25 550.5 614 588.5 582.25L619 652.5C573 684.5 506.75 696.25 457.25 696.25C236.25 696.25 86.75 460.25 86.75 238C86.75 76 166.75 -10 305 -10C367.5 -10 444.5 8.25 500.75 43.5ZM431.5 688.75ZM265.75 0ZM561.25 842 520.75 880.5C471.25 839 412.25 801 355 769L363.25 747.5C429.5 765.5 494.25 791.75 559.25 829.5ZM431.5 688.75ZM472.5 880.5Z" glyph-name="Cacute" horiz-adv-x="580.25" unicode="&#262;" /><glyph d="M505 109C455.25 78.25 388.25 56 329.25 56C222.25 56 169.25 130.75 169.25 254.5C169.25 421.5 266.25 630.25 444.5 630.25C493.75 630.25 550.5 614 588.5 582.25L619 652.5C573 684.5 506.75 696.25 457.25 696.25C236.25 696.25 86.75 460.25 86.75 238C86.75 76 166.75 -10 305 -10C367.5 -10 444.5 8.25 500.75 43.5ZM431.5 688.75ZM265.75 0ZM571.25 877.5C519.75 851.25 471.25 821 424 786.25H460.25C428.75 821.5 390.5 851.75 350.75 877.5L324 861.75C354.75 822.75 378.75 786 401 749.75L471 756.75C520 801 542.5 821.25 591.5 861.75ZM431.5 688.75ZM471.25 877.5Z" glyph-name="Ccaron" horiz-adv-x="580.25" unicode="&#268;" /><glyph d="M505 109C455.25 78.25 388.25 56 329.25 56C222.25 56 169.25 130.75 169.25 254.5C169.25 421.5 266.25 630.25 444.5 630.25C493.75 630.25 550.5 614 588.5 582.25L619 652.5C573 684.5 506.75 696.25 457.25 696.25C236.25 696.25 86.75 460.25 86.75 238C86.75 76 166.75 -10 305 -10C367.5 -10 444.5 8.25 500.75 43.5ZM431.5 688.75ZM265.75 0ZM153 -222.25 143.25 -253.75C247.75 -241 338.5 -168.5 338.5 -95.5C338.5 -65 316 -50.75 287.5 -50.75C250.5 -50.75 216.25 -69 191 -85L197.25 -102.25C215 -97.25 232.75 -93.25 248 -93.25C269.5 -93.25 276.5 -104 276.5 -116.25C276.5 -156.25 220 -205 153 -222.25ZM246.5 18.25 191 -85 234 -77 294.5 18.25ZM265.75 0ZM212 -253.75Z" glyph-name="Ccedilla" horiz-adv-x="580.25" unicode="&#199;" /><glyph d="M505 109C455.25 78.25 388.25 56 329.25 56C222.25 56 169.25 130.75 169.25 254.5C169.25 421.5 266.25 630.25 444.5 630.25C493.75 630.25 550.5 614 588.5 582.25L619 652.5C573 684.5 506.75 696.25 457.25 696.25C236.25 696.25 86.75 460.25 86.75 238C86.75 76 166.75 -10 305 -10C367.5 -10 444.5 8.25 500.75 43.5ZM431.5 688.75ZM265.75 0ZM344.25 749.75C395.75 776 444.25 806.25 491.5 841H455.25C486.75 805.75 524.25 774.75 564.75 749.75L591.5 765.5C560.75 804.5 536.75 841.25 514.5 877.5L444.5 870.5C395.5 826.25 373 806 324 765.5ZM431.5 688.75ZM471.25 877.5Z" glyph-name="Ccircumflex" horiz-adv-x="580.25" unicode="&#264;" /><glyph d="M505 109C455.25 78.25 388.25 56 329.25 56C222.25 56 169.25 130.75 169.25 254.5C169.25 421.5 266.25 630.25 444.5 630.25C493.75 630.25 550.5 614 588.5 582.25L619 652.5C573 684.5 506.75 696.25 457.25 696.25C236.25 696.25 86.75 460.25 86.75 238C86.75 76 166.75 -10 305 -10C367.5 -10 444.5 8.25 500.75 43.5ZM431.5 688.75ZM265.75 0ZM513.75 832C513.75 854 499 867 474 867C437 867 402.75 833.25 402.75 797.75C402.75 776.25 417.25 760.5 443.5 760.5C481 760.5 513.75 795.25 513.75 832ZM431.5 688.75ZM470 867Z" glyph-name="Cdotaccent" horiz-adv-x="580.25" unicode="&#266;" /><glyph d="M144 0 290 686.25H204.5C200.75 641.5 192.5 592.5 179.5 531.25L66.25 0ZM653.75 431.5C653.75 605.5 552.5 686.25 385.75 686.25H242.5L229.75 626.75H366C511.25 626.75 571.75 556 571.75 424.5C571.75 246 461.25 59.5 248.5 59.5H115.25L102.5 0H233.25C494 0 653.75 213.75 653.75 431.5ZM437.75 688.75ZM242.5 343.5ZM299.25 0Z" glyph-name="D" horiz-adv-x="701.75" unicode="D" /><glyph d="M144 0 290 686.25H204.5C200.75 641.5 192.5 592.5 179.5 531.25L66.25 0ZM653.75 431.5C653.75 605.5 552.5 686.25 385.75 686.25H242.5L229.75 626.75H366C511.25 626.75 571.75 556 571.75 424.5C571.75 246 461.25 59.5 248.5 59.5H115.25L102.5 0H233.25C494 0 653.75 213.75 653.75 431.5ZM437.75 688.75ZM242.5 343.5ZM299.25 0ZM577.5 877.5C526 851.25 477.5 821 430.25 786.25H466.5C435 821.5 396.75 851.75 357 877.5L330.25 861.75C361 822.75 385 786 407.25 749.75L477.25 756.75C526.25 801 548.75 821.25 597.75 861.75ZM437.75 688.75ZM477.5 877.5Z" glyph-name="Dcaron" horiz-adv-x="701.75" unicode="&#270;" /><glyph d="M421 321 430.25 366H63.75L54.5 321ZM242.5 343.5ZM144 0 290 686.25H204.5C200.75 641.5 192.5 592.5 179.5 531.25L66.25 0ZM653.75 431.5C653.75 605.5 552.5 686.25 385.75 686.25H242.5L229.75 626.75H366C511.25 626.75 571.75 556 571.75 424.5C571.75 246 461.25 59.5 248.5 59.5H115.25L102.5 0H233.25C494 0 653.75 213.75 653.75 431.5ZM437.75 688.75ZM242.5 343.5ZM299.25 0Z" glyph-name="Dcroat" horiz-adv-x="701.75" unicode="&#272;" /><glyph d="M144 0 290 686.25H204.5C200.75 641.5 192.5 592.5 179.5 531.25L66.25 0ZM653.75 431.5C653.75 605.5 552.5 686.25 385.75 686.25H242.5L229.75 626.75H366C511.25 626.75 571.75 556 571.75 424.5C571.75 246 461.25 59.5 248.5 59.5H115.25L102.5 0H233.25C494 0 653.75 213.75 653.75 431.5ZM437.75 688.75ZM242.5 343.5ZM299.25 0ZM328.5 -169.75C328.5 -146 315 -131.25 291.25 -131.25C255.25 -131.25 218.75 -170.25 218.75 -208.5C218.75 -231.75 233 -248.75 257.75 -248.75C298 -248.75 328.5 -206.5 328.5 -169.75ZM241.5 -356.75ZM297.75 -94.5ZM299.25 0ZM264.25 -162.75Z" glyph-name="Ddotbelow" horiz-adv-x="701.75" unicode="&#7692;" /><glyph d="M355.5 690 -23.25 20 -25.25 0H520.75L526.75 20L434.25 690ZM445.5 16.5 464.5 58.25H43L45.25 17.5L383.5 618.75L362 619Z" glyph-name="Delta" horiz-adv-x="600" unicode="&#916;" /><glyph d="M143.75 0 290 686.25H204.5C200 635.25 191.75 589.75 179.5 531.25L66.25 0ZM573.25 686.25H284.5L273.5 627.5L567.75 622L580.25 677.5ZM470.25 371 221.25 368.25 209.75 313.25 455.5 310ZM458.25 64.25 153 58.75 141.75 0H445ZM141 686.25ZM393.5 688.75ZM438.25 10ZM257.5 0Z" glyph-name="E" horiz-adv-x="544.25" unicode="E" /><glyph d="M143.75 0 290 686.25H204.5C200 635.25 191.75 589.75 179.5 531.25L66.25 0ZM573.25 686.25H284.5L273.5 627.5L567.75 622L580.25 677.5ZM470.25 371 221.25 368.25 209.75 313.25 455.5 310ZM458.25 64.25 153 58.75 141.75 0H445ZM141 686.25ZM393.5 688.75ZM438.25 10ZM257.5 0ZM523.25 842 482.75 880.5C433.25 839 374.25 801 317 769L325.25 747.5C391.5 765.5 456.25 791.75 521.25 829.5ZM393.5 688.75ZM434.5 880.5Z" glyph-name="Eacute" horiz-adv-x="544.25" unicode="&#201;" /><glyph d="M393 748.75C458.5 748.75 522 806 542.75 877.75L512.25 872.5C487.25 831 449.75 800.5 405.5 800.5C361.75 800.5 336.25 827 327.75 871.25L298.5 865.75C290.25 802 330.25 748.75 393 748.75ZM393.5 688.75ZM433.5 877.75ZM143.75 0 290 686.25H204.5C200 635.25 191.75 589.75 179.5 531.25L66.25 0ZM573.25 686.25H284.5L273.5 627.5L567.75 622L580.25 677.5ZM470.25 371 221.25 368.25 209.75 313.25 455.5 310ZM458.25 64.25 153 58.75 141.75 0H445ZM141 686.25ZM393.5 688.75ZM438.25 10ZM257.5 0Z" glyph-name="Ebreve" horiz-adv-x="544.25" unicode="&#276;" /><glyph d="M143.75 0 290 686.25H204.5C200 635.25 191.75 589.75 179.5 531.25L66.25 0ZM573.25 686.25H284.5L273.5 627.5L567.75 622L580.25 677.5ZM470.25 371 221.25 368.25 209.75 313.25 455.5 310ZM458.25 64.25 153 58.75 141.75 0H445ZM141 686.25ZM393.5 688.75ZM438.25 10ZM257.5 0ZM533.25 877.5C481.75 851.25 433.25 821 386 786.25H422.25C390.75 821.5 352.5 851.75 312.75 877.5L286 861.75C316.75 822.75 340.75 786 363 749.75L433 756.75C482 801 504.5 821.25 553.5 861.75ZM393.5 688.75ZM433.25 877.5Z" glyph-name="Ecaron" horiz-adv-x="544.25" unicode="&#282;" /><glyph d="M143.75 0 290 686.25H204.5C200 635.25 191.75 589.75 179.5 531.25L66.25 0ZM573.25 686.25H284.5L273.5 627.5L567.75 622L580.25 677.5ZM470.25 371 221.25 368.25 209.75 313.25 455.5 310ZM458.25 64.25 153 58.75 141.75 0H445ZM141 686.25ZM393.5 688.75ZM438.25 10ZM257.5 0ZM306.25 749.75C357.75 776 406.25 806.25 453.5 841H417.25C448.75 805.75 486.25 774.75 526.75 749.75L553.5 765.5C522.75 804.5 498.75 841.25 476.5 877.5L406.5 870.5C357.5 826.25 335 806 286 765.5ZM393.5 688.75ZM433.25 877.5Z" glyph-name="Ecircumflex" horiz-adv-x="544.25" unicode="&#202;" /><glyph d="M143.75 0 290 686.25H204.5C200 635.25 191.75 589.75 179.5 531.25L66.25 0ZM573.25 686.25H284.5L273.5 627.5L567.75 622L580.25 677.5ZM470.25 371 221.25 368.25 209.75 313.25 455.5 310ZM458.25 64.25 153 58.75 141.75 0H445ZM141 686.25ZM393.5 688.75ZM438.25 10ZM257.5 0ZM363.5 830C363.5 851.5 348.75 867.5 325 867.5C290 867.5 254.75 833 254.75 798.5C254.75 775.75 271.75 759.75 295 759.75C329.25 759.75 363.5 794.25 363.5 830ZM584.75 830C584.75 851.5 570 867.5 546.25 867.5C511.25 867.5 476 833 476 798.5C476 775.75 493 759.75 516.25 759.75C550.5 759.75 584.75 794.25 584.75 830ZM393.5 688.75ZM431 867.5Z" glyph-name="Edieresis" horiz-adv-x="544.25" unicode="&#203;" /><glyph d="M143.75 0 290 686.25H204.5C200 635.25 191.75 589.75 179.5 531.25L66.25 0ZM573.25 686.25H284.5L273.5 627.5L567.75 622L580.25 677.5ZM470.25 371 221.25 368.25 209.75 313.25 455.5 310ZM458.25 64.25 153 58.75 141.75 0H445ZM141 686.25ZM393.5 688.75ZM438.25 10ZM257.5 0ZM475.75 832C475.75 854 461 867 436 867C399 867 364.75 833.25 364.75 797.75C364.75 776.25 379.25 760.5 405.5 760.5C443 760.5 475.75 795.25 475.75 832ZM393.5 688.75ZM432 867Z" glyph-name="Edotaccent" horiz-adv-x="544.25" unicode="&#278;" /><glyph d="M143.75 0 290 686.25H204.5C200 635.25 191.75 589.75 179.5 531.25L66.25 0ZM573.25 686.25H284.5L273.5 627.5L567.75 622L580.25 677.5ZM470.25 371 221.25 368.25 209.75 313.25 455.5 310ZM458.25 64.25 153 58.75 141.75 0H445ZM141 686.25ZM393.5 688.75ZM438.25 10ZM257.5 0ZM286.75 -169.75C286.75 -146 273.25 -131.25 249.5 -131.25C213.5 -131.25 177 -170.25 177 -208.5C177 -231.75 191.25 -248.75 216 -248.75C256.25 -248.75 286.75 -206.5 286.75 -169.75ZM199.75 -356.75ZM256 -94.5ZM257.5 0ZM222.5 -162.75Z" glyph-name="Edotbelow" horiz-adv-x="544.25" unicode="&#7864;" /><glyph d="M143.75 0 290 686.25H204.5C200 635.25 191.75 589.75 179.5 531.25L66.25 0ZM573.25 686.25H284.5L273.5 627.5L567.75 622L580.25 677.5ZM470.25 371 221.25 368.25 209.75 313.25 455.5 310ZM458.25 64.25 153 58.75 141.75 0H445ZM141 686.25ZM393.5 688.75ZM438.25 10ZM257.5 0ZM492 747.5 509.75 769C466.25 800.75 425.75 835.5 390.75 880.5L334.25 842L330.5 829.5C379.5 791.5 433.75 766.5 492 747.5ZM393.5 688.75ZM434.5 880.5Z" glyph-name="Egrave" horiz-adv-x="544.25" unicode="&#200;" /><glyph d="M284.5 787.25H544.75L555.75 839.5H295.5ZM393.5 688.75ZM426 839.5ZM143.75 0 290 686.25H204.5C200 635.25 191.75 589.75 179.5 531.25L66.25 0ZM573.25 686.25H284.5L273.5 627.5L567.75 622L580.25 677.5ZM470.25 371 221.25 368.25 209.75 313.25 455.5 310ZM458.25 64.25 153 58.75 141.75 0H445ZM141 686.25ZM393.5 688.75ZM438.25 10ZM257.5 0Z" glyph-name="Emacron" horiz-adv-x="544.25" unicode="&#274;" /><glyph d="M383.5 -187C491.25 -139.75 548.75 -68.25 578.5 67.25L492.5 29.25C472.75 -66 424.75 -115 367.25 -152ZM406.25 398.25C372 485 324.5 599.5 287 695.5L204.5 686.25C198.75 632.25 191 590.75 178.75 531.25L66 0H141.25L215 347.25C231.75 425.75 247 499 259.25 584.25H260.75C287 488.5 315.5 422.75 367.25 296.5C407 198.75 448.5 93.25 490.5 -9.75L578.5 67.25L710.5 687L703.5 695.75L627.5 686.25C620.75 631.25 613.75 586.5 598.25 514.5C534.75 214 528 176 516.5 99.75H515C490.75 195.75 455 276.75 406.25 398.25Z" glyph-name="Eng" horiz-adv-x="728.5" unicode="&#330;" /><glyph d="M445 0 433.75 20C314.25 -29.25 188 -107.25 188 -192.25C188 -229.75 215.5 -253.75 260.75 -253.75C308.25 -253.75 355.25 -229.25 388.75 -197.75L384.75 -173.5C347.75 -195.75 318.25 -206.25 292.5 -206.25C268.75 -206.25 259.25 -194.5 259.25 -177.5C259.25 -120.25 345 -56.5 445 0ZM143.75 0 290 686.25H204.5C200 635.25 191.75 589.75 179.5 531.25L66.25 0ZM573.25 686.25H284.5L273.5 627.5L567.75 622L580.25 677.5ZM470.25 371 221.25 368.25 209.75 313.25 455.5 310ZM458.25 64.25 153 58.75 141.75 0H445ZM141 686.25ZM393.5 688.75ZM438.25 10ZM257.5 0ZM438.25 10Z" glyph-name="Eogonek" horiz-adv-x="544.25" unicode="&#280;" /><glyph d="M421 321 430.25 366H63.75L54.5 321ZM242.5 343.5ZM144 0 290 686.25H204.5C200.75 641.5 192.5 592.5 179.5 531.25L66.25 0ZM653.75 431.5C653.75 605.5 552.5 686.25 385.75 686.25H242.5L229.75 626.75H366C511.25 626.75 571.75 556 571.75 424.5C571.75 246 461.25 59.5 248.5 59.5H115.25L102.5 0H233.25C494 0 653.75 213.75 653.75 431.5ZM437.75 688.75ZM242.5 343.5ZM299.25 0Z" glyph-name="Eth" horiz-adv-x="701.75" unicode="&#208;" /><glyph d="M371 871C314.25 871 272.75 811.5 258 761L278.5 757C298.5 788.5 324.75 812.5 351.75 812.5C394.25 812.5 416.5 756 470.25 756C524.5 756 568.25 815.75 581.5 866L561 870C541.5 839.75 515.25 814.5 487 814.5C443.25 814.5 425.5 871 371 871ZM393.5 688.75ZM432.25 871.75ZM143.75 0 290 686.25H204.5C200 635.25 191.75 589.75 179.5 531.25L66.25 0ZM573.25 686.25H284.5L273.5 627.5L567.75 622L580.25 677.5ZM470.25 371 221.25 368.25 209.75 313.25 455.5 310ZM458.25 64.25 153 58.75 141.75 0H445ZM141 686.25ZM393.5 688.75ZM438.25 10ZM257.5 0Z" glyph-name="Etilde" horiz-adv-x="544.25" unicode="&#7868;" /><glyph d="M144 0 290 686.25H204.5C200 635.25 191.75 589.75 179.5 531.25L66.25 0ZM568.25 686.25H287.5L274.75 627.5L562.75 622L575.25 677.5ZM462.5 358.5 218.25 355.75 205.75 300.75 447.75 297.5Z" glyph-name="F" horiz-adv-x="511.5" unicode="F" /><glyph d="M529.75 101.25C479.25 71 407.5 53.5 347.5 53.5C225.5 53.5 169.25 125.25 169.25 254.25C169.25 435.5 280.5 631.5 455.5 631.5C507.75 631.5 563.5 614.5 601.75 582.25L631 652.5C582.75 684.5 516.5 696.25 466.25 696.25C247.75 696.25 86.75 470.75 86.75 241C86.75 73 172.5 -10 324.5 -10C393.25 -10 471.75 7 526.25 38.25ZM574.75 299.25 496 289.25C490.5 230.5 483.75 189.75 469.75 122.5L451.5 35.75L526.25 38.25L581.75 290.5ZM431.75 688.75ZM343.75 0Z" glyph-name="G" horiz-adv-x="646.25" unicode="G" /><glyph d="M561.5 842 521 880.5C471.5 839 412.5 801 355.25 769L363.5 747.5C429.75 765.5 494.5 791.75 559.5 829.5ZM431.75 688.75ZM472.75 880.5ZM529.75 101.25C479.25 71 407.5 53.5 347.5 53.5C225.5 53.5 169.25 125.25 169.25 254.25C169.25 435.5 280.5 631.5 455.5 631.5C507.75 631.5 563.5 614.5 601.75 582.25L631 652.5C582.75 684.5 516.5 696.25 466.25 696.25C247.75 696.25 86.75 470.75 86.75 241C86.75 73 172.5 -10 324.5 -10C393.25 -10 471.75 7 526.25 38.25ZM574.75 299.25 496 289.25C490.5 230.5 483.75 189.75 469.75 122.5L451.5 35.75L526.25 38.25L581.75 290.5ZM431.75 688.75ZM343.75 0Z" glyph-name="Gacute" horiz-adv-x="646.25" unicode="&#500;" /><glyph d="M431.25 748.75C496.75 748.75 560.25 806 581 877.75L550.5 872.5C525.5 831 488 800.5 443.75 800.5C400 800.5 374.5 827 366 871.25L336.75 865.75C328.5 802 368.5 748.75 431.25 748.75ZM431.75 688.75ZM471.75 877.75ZM529.75 101.25C479.25 71 407.5 53.5 347.5 53.5C225.5 53.5 169.25 125.25 169.25 254.25C169.25 435.5 280.5 631.5 455.5 631.5C507.75 631.5 563.5 614.5 601.75 582.25L631 652.5C582.75 684.5 516.5 696.25 466.25 696.25C247.75 696.25 86.75 470.75 86.75 241C86.75 73 172.5 -10 324.5 -10C393.25 -10 471.75 7 526.25 38.25ZM574.75 299.25 496 289.25C490.5 230.5 483.75 189.75 469.75 122.5L451.5 35.75L526.25 38.25L581.75 290.5ZM431.75 688.75ZM343.75 0Z" glyph-name="Gbreve" horiz-adv-x="646.25" unicode="&#286;" /><glyph d="M529.75 101.25C479.25 71 407.5 53.5 347.5 53.5C225.5 53.5 169.25 125.25 169.25 254.25C169.25 435.5 280.5 631.5 455.5 631.5C507.75 631.5 563.5 614.5 601.75 582.25L631 652.5C582.75 684.5 516.5 696.25 466.25 696.25C247.75 696.25 86.75 470.75 86.75 241C86.75 73 172.5 -10 324.5 -10C393.25 -10 471.75 7 526.25 38.25ZM574.75 299.25 496 289.25C490.5 230.5 483.75 189.75 469.75 122.5L451.5 35.75L526.25 38.25L581.75 290.5ZM431.75 688.75ZM343.75 0ZM571.5 877.5C520 851.25 471.5 821 424.25 786.25H460.5C429 821.5 390.75 851.75 351 877.5L324.25 861.75C355 822.75 379 786 401.25 749.75L471.25 756.75C520.25 801 542.75 821.25 591.75 861.75ZM431.75 688.75ZM471.5 877.5Z" glyph-name="Gcaron" horiz-adv-x="646.25" unicode="&#486;" /><glyph d="M529.75 101.25C479.25 71 407.5 53.5 347.5 53.5C225.5 53.5 169.25 125.25 169.25 254.25C169.25 435.5 280.5 631.5 455.5 631.5C507.75 631.5 563.5 614.5 601.75 582.25L631 652.5C582.75 684.5 516.5 696.25 466.25 696.25C247.75 696.25 86.75 470.75 86.75 241C86.75 73 172.5 -10 324.5 -10C393.25 -10 471.75 7 526.25 38.25ZM574.75 299.25 496 289.25C490.5 230.5 483.75 189.75 469.75 122.5L451.5 35.75L526.25 38.25L581.75 290.5ZM431.75 688.75ZM343.75 0ZM344.5 749.75C396 776 444.5 806.25 491.75 841H455.5C487 805.75 524.5 774.75 565 749.75L591.75 765.5C561 804.5 537 841.25 514.75 877.5L444.75 870.5C395.75 826.25 373.25 806 324.25 765.5ZM431.75 688.75ZM471.5 877.5Z" glyph-name="Gcircumflex" horiz-adv-x="646.25" unicode="&#284;" /><glyph d="M529.75 101.25C479.25 71 407.5 53.5 347.5 53.5C225.5 53.5 169.25 125.25 169.25 254.25C169.25 435.5 280.5 631.5 455.5 631.5C507.75 631.5 563.5 614.5 601.75 582.25L631 652.5C582.75 684.5 516.5 696.25 466.25 696.25C247.75 696.25 86.75 470.75 86.75 241C86.75 73 172.5 -10 324.5 -10C393.25 -10 471.75 7 526.25 38.25ZM574.75 299.25 496 289.25C490.5 230.5 483.75 189.75 469.75 122.5L451.5 35.75L526.25 38.25L581.75 290.5ZM431.75 688.75ZM343.75 0ZM236.25 -285.5 245.5 -295C308.25 -258 373.5 -165 373.5 -112.75C373.5 -88.25 358 -73.75 332 -73.75C298.75 -73.75 266.5 -107.75 266.5 -141.5C266.5 -164.5 283.5 -179.25 309.75 -179.25L308.5 -146C299 -189 264.25 -252.25 236.25 -285.5ZM343.75 0ZM281 -295Z" glyph-name="Gcommaaccent" horiz-adv-x="646.25" unicode="&#290;" /><glyph d="M514 832C514 854 499.25 867 474.25 867C437.25 867 403 833.25 403 797.75C403 776.25 417.5 760.5 443.75 760.5C481.25 760.5 514 795.25 514 832ZM431.75 688.75ZM470.25 867ZM529.75 101.25C479.25 71 407.5 53.5 347.5 53.5C225.5 53.5 169.25 125.25 169.25 254.25C169.25 435.5 280.5 631.5 455.5 631.5C507.75 631.5 563.5 614.5 601.75 582.25L631 652.5C582.75 684.5 516.5 696.25 466.25 696.25C247.75 696.25 86.75 470.75 86.75 241C86.75 73 172.5 -10 324.5 -10C393.25 -10 471.75 7 526.25 38.25ZM574.75 299.25 496 289.25C490.5 230.5 483.75 189.75 469.75 122.5L451.5 35.75L526.25 38.25L581.75 290.5ZM431.75 688.75ZM343.75 0Z" glyph-name="Gdotaccent" horiz-adv-x="646.25" unicode="&#288;" /><glyph d="M67.25 104.5C59.5 68.5 46.25 32 30.75 0L101 -10C119 12 135.25 57.75 142 88L221 459.5C243.5 565.25 320 633 418.25 633C467 633 510.75 614.25 525.5 552.75L544.75 600.75L317.25 378.25L311.5 351.25C420.25 306.25 482.25 263.5 482.25 183.25C482.25 112 433.25 53.5 338.25 53.5C301.5 53.5 255.5 63.5 222.75 86L208 16C242.5 -1.75 290.75 -10 334.25 -10C475.25 -10 563.25 82 563.25 190C563.25 300.5 477.75 352.75 380.5 395.25L361.25 351.25L608.5 583.25C589.75 656.75 520 696.25 429.25 696.25C294.25 696.25 176.75 615.5 143.5 461.25Z" glyph-name="Germandbls" horiz-adv-x="635.25" unicode="&#7838;" /><glyph d="M144 0 290.25 687.5 283.25 696.25 204.5 686.25C199.75 637.5 191 590 178.5 529.25L66.25 0ZM577.25 371H204L191.75 311.5H565ZM554.5 0 700.75 687.5 693.75 696.25 615 686.25C610.25 637.5 602.25 590 589 529.25L476.75 0ZM135.75 686.25ZM449.25 688.75ZM418.75 527.5ZM306.75 0Z" glyph-name="H" horiz-adv-x="718.75" unicode="H" /><glyph d="M144 0 290.25 687.5 283.25 696.25 204.5 686.25C199.75 637.5 191 590 178.5 529.25L66.25 0ZM577.25 371H204L191.75 311.5H565ZM554.5 0 700.75 687.5 693.75 696.25 615 686.25C610.25 637.5 602.25 590 589 529.25L476.75 0ZM135.75 686.25ZM449.25 688.75ZM418.75 527.5ZM306.75 0ZM736.5 505 745.75 550H100.75L91.5 505ZM418.75 527.5Z" glyph-name="Hbar" horiz-adv-x="718.75" unicode="&#294;" /><glyph d="M144 0 290.25 687.5 283.25 696.25 204.5 686.25C199.75 637.5 191 590 178.5 529.25L66.25 0ZM577.25 371H204L191.75 311.5H565ZM554.5 0 700.75 687.5 693.75 696.25 615 686.25C610.25 637.5 602.25 590 589 529.25L476.75 0ZM135.75 686.25ZM449.25 688.75ZM418.75 527.5ZM306.75 0ZM362 749.75C413.5 776 462 806.25 509.25 841H473C504.5 805.75 542 774.75 582.5 749.75L609.25 765.5C578.5 804.5 554.5 841.25 532.25 877.5L462.25 870.5C413.25 826.25 390.75 806 341.75 765.5ZM449.25 688.75ZM489 877.5Z" glyph-name="Hcircumflex" horiz-adv-x="718.75" unicode="&#292;" /><glyph d="M144 0 290.25 687.5 283.25 696.25 204.5 686.25C199.75 637.5 191 590 178.5 529.25L66.25 0ZM577.25 371H204L191.75 311.5H565ZM554.5 0 700.75 687.5 693.75 696.25 615 686.25C610.25 637.5 602.25 590 589 529.25L476.75 0ZM135.75 686.25ZM449.25 688.75ZM418.75 527.5ZM306.75 0ZM336 -169.75C336 -146 322.5 -131.25 298.75 -131.25C262.75 -131.25 226.25 -170.25 226.25 -208.5C226.25 -231.75 240.5 -248.75 265.25 -248.75C305.5 -248.75 336 -206.5 336 -169.75ZM249 -356.75ZM305.25 -94.5ZM306.75 0ZM271.75 -162.75Z" glyph-name="Hdotbelow" horiz-adv-x="718.75" unicode="&#7716;" /><glyph d="M144 0 290.25 687.5 283.25 696.25 204.5 686.25C199.75 637.5 191.75 590 178.5 529.25L66.25 0ZM141 686.25ZM249.25 688.75ZM202.75 10ZM101 0Z" glyph-name="I" horiz-adv-x="308.25" unicode="I" /><glyph d="M144 0 290.25 687.5 283.25 696.25 204.5 686.25C199.75 637.5 191.75 590 178.5 529.25L66.25 0ZM141 686.25ZM249.25 688.75ZM202.75 10ZM101 0ZM249.5 -187C363.25 -136.75 417.25 -60.75 444.5 67.25L576 687.75L569.25 696.25L488.5 684C483.25 625.5 476.25 585 464.75 529.25L366.75 67.25C343.25 -44.5 292.25 -112 232.5 -152ZM533.5 686.25ZM387.25 0Z" glyph-name="IJ" horiz-adv-x="593.75" unicode="&#306;" /><glyph d="M144 0 290.25 687.5 283.25 696.25 204.5 686.25C199.75 637.5 191.75 590 178.5 529.25L66.25 0ZM141 686.25ZM249.25 688.75ZM202.75 10ZM101 0ZM379 842 338.5 880.5C289 839 230 801 172.75 769L181 747.5C247.25 765.5 312 791.75 377 829.5ZM249.25 688.75ZM290.25 880.5Z" glyph-name="Iacute" horiz-adv-x="308.25" unicode="&#205;" /><glyph d="M144 0 290.25 687.5 283.25 696.25 204.5 686.25C199.75 637.5 191.75 590 178.5 529.25L66.25 0ZM141 686.25ZM249.25 688.75ZM202.75 10ZM101 0ZM248.75 748.75C314.25 748.75 377.75 806 398.5 877.75L368 872.5C343 831 305.5 800.5 261.25 800.5C217.5 800.5 192 827 183.5 871.25L154.25 865.75C146 802 186 748.75 248.75 748.75ZM249.25 688.75ZM289.25 877.75Z" glyph-name="Ibreve" horiz-adv-x="308.25" unicode="&#300;" /><glyph d="M144 0 290.25 687.5 283.25 696.25 204.5 686.25C199.75 637.5 191.75 590 178.5 529.25L66.25 0ZM141 686.25ZM249.25 688.75ZM202.75 10ZM101 0ZM389 877.5C337.5 851.25 289 821 241.75 786.25H278C246.5 821.5 208.25 851.75 168.5 877.5L141.75 861.75C172.5 822.75 196.5 786 218.75 749.75L288.75 756.75C337.75 801 360.25 821.25 409.25 861.75ZM249.25 688.75ZM289 877.5Z" glyph-name="Icaron" horiz-adv-x="308.25" unicode="&#463;" /><glyph d="M144 0 290.25 687.5 283.25 696.25 204.5 686.25C199.75 637.5 191.75 590 178.5 529.25L66.25 0ZM141 686.25ZM249.25 688.75ZM202.75 10ZM101 0ZM162 749.75C213.5 776 262 806.25 309.25 841H273C304.5 805.75 342 774.75 382.5 749.75L409.25 765.5C378.5 804.5 354.5 841.25 332.25 877.5L262.25 870.5C213.25 826.25 190.75 806 141.75 765.5ZM249.25 688.75ZM289 877.5Z" glyph-name="Icircumflex" horiz-adv-x="308.25" unicode="&#206;" /><glyph d="M144 0 290.25 687.5 283.25 696.25 204.5 686.25C199.75 637.5 191.75 590 178.5 529.25L66.25 0ZM141 686.25ZM249.25 688.75ZM202.75 10ZM101 0ZM219.25 830C219.25 851.5 204.5 867.5 180.75 867.5C145.75 867.5 110.5 833 110.5 798.5C110.5 775.75 127.5 759.75 150.75 759.75C185 759.75 219.25 794.25 219.25 830ZM440.5 830C440.5 851.5 425.75 867.5 402 867.5C367 867.5 331.75 833 331.75 798.5C331.75 775.75 348.75 759.75 372 759.75C406.25 759.75 440.5 794.25 440.5 830ZM249.25 688.75ZM286.75 867.5Z" glyph-name="Idieresis" horiz-adv-x="308.25" unicode="&#207;" /><glyph d="M144 0 290.25 687.5 283.25 696.25 204.5 686.25C199.75 637.5 191.75 590 178.5 529.25L66.25 0ZM141 686.25ZM249.25 688.75ZM202.75 10ZM101 0ZM331.5 832C331.5 854 316.75 867 291.75 867C254.75 867 220.5 833.25 220.5 797.75C220.5 776.25 235 760.5 261.25 760.5C298.75 760.5 331.5 795.25 331.5 832ZM249.25 688.75ZM287.75 867Z" glyph-name="Idotaccent" horiz-adv-x="308.25" unicode="&#304;" /><glyph d="M144 0 290.25 687.5 283.25 696.25 204.5 686.25C199.75 637.5 191.75 590 178.5 529.25L66.25 0ZM141 686.25ZM249.25 688.75ZM202.75 10ZM101 0ZM130.25 -169.75C130.25 -146 116.75 -131.25 93 -131.25C57 -131.25 20.5 -170.25 20.5 -208.5C20.5 -231.75 34.75 -248.75 59.5 -248.75C99.75 -248.75 130.25 -206.5 130.25 -169.75ZM43.25 -356.75ZM99.5 -94.5ZM101 0ZM66 -162.75Z" glyph-name="Idotbelow" horiz-adv-x="308.25" unicode="&#7882;" /><glyph d="M144 0 290.25 687.5 283.25 696.25 204.5 686.25C199.75 637.5 191.75 590 178.5 529.25L66.25 0ZM141 686.25ZM249.25 688.75ZM202.75 10ZM101 0ZM347.75 747.5 365.5 769C322 800.75 281.5 835.5 246.5 880.5L190 842L186.25 829.5C235.25 791.5 289.5 766.5 347.75 747.5ZM249.25 688.75ZM290.25 880.5Z" glyph-name="Igrave" horiz-adv-x="308.25" unicode="&#204;" /><glyph d="M144 0 290.25 687.5 283.25 696.25 204.5 686.25C199.75 637.5 191.75 590 178.5 529.25L66.25 0ZM141 686.25ZM249.25 688.75ZM202.75 10ZM101 0ZM140.25 787.25H400.5L411.5 839.5H151.25ZM249.25 688.75ZM281.75 839.5Z" glyph-name="Imacron" horiz-adv-x="308.25" unicode="&#298;" /><glyph d="M144 0 136 17C43.5 -30 -47.5 -104.25 -47.5 -182.5C-47.5 -226.75 -17 -253.75 32.75 -253.75C77.25 -253.75 122 -229.25 153.25 -197.75L149.25 -173.5C115.25 -195.75 87.25 -206.25 63.75 -206.25C35.5 -206.25 23.75 -191.5 23.75 -169.25C23.75 -115 78.75 -54.25 144 0ZM144 0 290.25 687.5 283.25 696.25 204.5 686.25C199.75 637.5 191.75 590 178.5 529.25L66.25 0ZM141 686.25ZM249.25 688.75ZM202.75 10ZM101 0ZM202.75 10Z" glyph-name="Iogonek" horiz-adv-x="308.25" unicode="&#302;" /><glyph d="M144 0 290.25 687.5 283.25 696.25 204.5 686.25C199.75 637.5 191.75 590 178.5 529.25L66.25 0ZM141 686.25ZM249.25 688.75ZM202.75 10ZM101 0ZM226.75 871C170 871 128.5 811.5 113.75 761L134.25 757C154.25 788.5 180.5 812.5 207.5 812.5C250 812.5 272.25 756 326 756C380.25 756 424 815.75 437.25 866L416.75 870C397.25 839.75 371 814.5 342.75 814.5C299 814.5 281.25 871 226.75 871ZM249.25 688.75ZM288 871.75Z" glyph-name="Itilde" horiz-adv-x="308.25" unicode="&#296;" /><glyph d="M-58.75 -187C55 -136.75 109 -60.75 136.25 67.25L267.75 687.75L261 696.25L180.25 684C175 625.5 168 585 156.5 529.25L58.5 67.25C35 -44.5 -16 -112 -75.75 -152ZM225.25 686.25ZM79 0Z" glyph-name="J" horiz-adv-x="285.5" unicode="J" /><glyph d="M-58.75 -187C55 -136.75 109 -60.75 136.25 67.25L267.75 687.75L261 696.25L180.25 684C175 625.5 168 585 156.5 529.25L58.5 67.25C35 -44.5 -16 -112 -75.75 -152ZM225.25 686.25ZM79 0ZM138 747.25C189.5 773.5 238 803.75 285.25 838.5H249C280.5 803.25 318 772.25 358.5 747.25L385.25 763C354.5 802 330.5 838.75 308.25 875L238.25 868C189.25 823.75 166.75 803.5 117.75 763ZM225.25 686.25ZM265 875Z" glyph-name="Jcircumflex" horiz-adv-x="285.5" unicode="&#308;" /><glyph d="M179 529.25 66 0H142.25L207.5 305.5H306.5C356 200.5 407 94.25 458.25 -8.75L544.25 0L368 370L367 337.25L665.5 675.5L661 684L599 696.25C505.5 586 408.5 471.5 317.25 365H220.5L288.75 687.5L281.75 696.25L204.5 686.25C199.25 634.25 191.25 588.5 179 529.25ZM412.5 686.25ZM266.25 0Z" glyph-name="K" horiz-adv-x="616" unicode="K" /><glyph d="M179 529.25 66 0H142.25L207.5 305.5H306.5C356 200.5 407 94.25 458.25 -8.75L544.25 0L368 370L367 337.25L665.5 675.5L661 684L599 696.25C505.5 586 408.5 471.5 317.25 365H220.5L288.75 687.5L281.75 696.25L204.5 686.25C199.25 634.25 191.25 588.5 179 529.25ZM412.5 686.25ZM266.25 0ZM158.75 -285.5 168 -295C230.75 -258 296 -165 296 -112.75C296 -88.25 280.5 -73.75 254.5 -73.75C221.25 -73.75 189 -107.75 189 -141.5C189 -164.5 206 -179.25 232.25 -179.25L231 -146C221.5 -189 186.75 -252.25 158.75 -285.5ZM266.25 0ZM203.5 -295Z" glyph-name="Kcommaaccent" horiz-adv-x="616" unicode="&#310;" /><glyph d="M144 0 290.25 687.5 283.25 696.25 204.5 686.25C199.75 637.5 191.75 590.75 179.25 530L66.25 0ZM447.25 64.25 156.75 58.75 144 0H434ZM360 688.75ZM213.75 0ZM445.75 479ZM179.25 343.5Z" glyph-name="L" horiz-adv-x="510.75" unicode="L" /><glyph d="M144 0 290.25 687.5 283.25 696.25 204.5 686.25C199.75 637.5 191.75 590.75 179.25 530L66.25 0ZM447.25 64.25 156.75 58.75 144 0H434ZM360 688.75ZM213.75 0ZM445.75 479ZM179.25 343.5ZM489.75 842 449.25 880.5C399.75 839 340.75 801 283.5 769L291.75 747.5C358 765.5 422.75 791.75 487.75 829.5ZM360 688.75ZM401 880.5Z" glyph-name="Lacute" horiz-adv-x="510.75" unicode="&#313;" /><glyph d="M517.75 743.5H451.25C423.75 670.25 396.5 608.25 369.75 549.25H398C439 601 481.5 663 521.75 732.25ZM445.75 479ZM144 0 290.25 687.5 283.25 696.25 204.5 686.25C199.75 637.5 191.75 590.75 179.25 530L66.25 0ZM447.25 64.25 156.75 58.75 144 0H434ZM360 688.75ZM213.75 0ZM445.75 479ZM179.25 343.5Z" glyph-name="Lcaron" horiz-adv-x="510.75" unicode="&#317;" /><glyph d="M144 0 290.25 687.5 283.25 696.25 204.5 686.25C199.75 637.5 191.75 590.75 179.25 530L66.25 0ZM447.25 64.25 156.75 58.75 144 0H434ZM360 688.75ZM213.75 0ZM445.75 479ZM179.25 343.5ZM106.25 -285.5 115.5 -295C178.25 -258 243.5 -165 243.5 -112.75C243.5 -88.25 228 -73.75 202 -73.75C168.75 -73.75 136.5 -107.75 136.5 -141.5C136.5 -164.5 153.5 -179.25 179.75 -179.25L178.5 -146C169 -189 134.25 -252.25 106.25 -285.5ZM213.75 0ZM151 -295Z" glyph-name="Lcommaaccent" horiz-adv-x="510.75" unicode="&#315;" /><glyph d="M144 0 290.25 687.5 283.25 696.25 204.5 686.25C199.75 637.5 191.75 590.75 179.25 530L66.25 0ZM447.25 64.25 156.75 58.75 144 0H434ZM360 688.75ZM213.75 0ZM445.75 479ZM179.25 343.5ZM461 371.25C461 396 443.75 412.5 418.25 412.5C380 412.5 341 375 341 336.75C341 311.75 359.5 294.25 385.5 294.25C423.75 294.25 461 332.5 461 371.25Z" glyph-name="Ldot" horiz-adv-x="600" unicode="&#319;" /><glyph d="M144 0 290.25 687.5 283.25 696.25 204.5 686.25C199.75 637.5 191.75 590.75 179.25 530L66.25 0ZM447.25 64.25 156.75 58.75 144 0H434ZM360 688.75ZM213.75 0ZM445.75 479ZM179.25 343.5ZM367.75 413.5 353.25 453.75 -10.25 273.25 3.25 233ZM179.25 343.5Z" glyph-name="Lslash" horiz-adv-x="510.75" unicode="&#321;" /><glyph d="M795.5 696.25 713.25 690.75 516.25 330.75C479.75 261 441.25 187.25 389.25 68.75H387.75C388 158.5 379.75 261.75 372.75 330.75L327.25 695.75L236.75 690.75L4.5 0H72L161 263.75C196.5 370 234.25 480 266.75 593.75H268.25C272 494 281.25 408 298 263.75L326.5 0H412.5L554.25 263.75C612.75 373.75 671.25 483.5 722.5 593.75H724C710.25 490 699.25 391.75 688.75 263.75L665.25 0H742L803.75 687.5Z" glyph-name="M" horiz-adv-x="852.5" unicode="M" /><glyph d="M406.5 398.25C368.25 492.75 329.25 591 287.25 695.5L204.5 686.25C199.75 637.5 191.75 589.75 178.75 531.25L66.25 0H141.5L215 347.25C231.75 424 247.25 501 259.5 587.75H261C287.75 490.5 319.5 415.25 367.5 296.5C406.5 201 445 103 487 0H564.5L710.75 687L703.75 695.75L627.5 686.25C621.75 632.75 613 580.75 598.5 515C535 213.5 528.75 178.5 516.5 96.5H515C490 198.25 454.25 278.75 406.5 398.25ZM449 688.75ZM303 0Z" glyph-name="N" horiz-adv-x="728.75" unicode="N" /><glyph d="M578.75 842 538.25 880.5C488.75 839 429.75 801 372.5 769L380.75 747.5C447 765.5 511.75 791.75 576.75 829.5ZM449 688.75ZM490 880.5ZM406.5 398.25C368.25 492.75 329.25 591 287.25 695.5L204.5 686.25C199.75 637.5 191.75 589.75 178.75 531.25L66.25 0H141.5L215 347.25C231.75 424 247.25 501 259.5 587.75H261C287.75 490.5 319.5 415.25 367.5 296.5C406.5 201 445 103 487 0H564.5L710.75 687L703.75 695.75L627.5 686.25C621.75 632.75 613 580.75 598.5 515C535 213.5 528.75 178.5 516.5 96.5H515C490 198.25 454.25 278.75 406.5 398.25ZM449 688.75ZM303 0Z" glyph-name="Nacute" horiz-adv-x="728.75" unicode="&#323;" /><glyph d="M588.75 877.5C537.25 851.25 488.75 821 441.5 786.25H477.75C446.25 821.5 408 851.75 368.25 877.5L341.5 861.75C372.25 822.75 396.25 786 418.5 749.75L488.5 756.75C537.5 801 560 821.25 609 861.75ZM449 688.75ZM488.75 877.5ZM406.5 398.25C368.25 492.75 329.25 591 287.25 695.5L204.5 686.25C199.75 637.5 191.75 589.75 178.75 531.25L66.25 0H141.5L215 347.25C231.75 424 247.25 501 259.5 587.75H261C287.75 490.5 319.5 415.25 367.5 296.5C406.5 201 445 103 487 0H564.5L710.75 687L703.75 695.75L627.5 686.25C621.75 632.75 613 580.75 598.5 515C535 213.5 528.75 178.5 516.5 96.5H515C490 198.25 454.25 278.75 406.5 398.25ZM449 688.75ZM303 0Z" glyph-name="Ncaron" horiz-adv-x="728.75" unicode="&#327;" /><glyph d="M406.5 398.25C368.25 492.75 329.25 591 287.25 695.5L204.5 686.25C199.75 637.5 191.75 589.75 178.75 531.25L66.25 0H141.5L215 347.25C231.75 424 247.25 501 259.5 587.75H261C287.75 490.5 319.5 415.25 367.5 296.5C406.5 201 445 103 487 0H564.5L710.75 687L703.75 695.75L627.5 686.25C621.75 632.75 613 580.75 598.5 515C535 213.5 528.75 178.5 516.5 96.5H515C490 198.25 454.25 278.75 406.5 398.25ZM449 688.75ZM303 0ZM195.5 -285.5 204.75 -295C267.5 -258 332.75 -165 332.75 -112.75C332.75 -88.25 317.25 -73.75 291.25 -73.75C258 -73.75 225.75 -107.75 225.75 -141.5C225.75 -164.5 242.75 -179.25 269 -179.25L267.75 -146C258.25 -189 223.5 -252.25 195.5 -285.5ZM303 0ZM240.25 -295Z" glyph-name="Ncommaaccent" horiz-adv-x="728.75" unicode="&#325;" /><glyph d="M531.25 832C531.25 854 516.5 867 491.5 867C454.5 867 420.25 833.25 420.25 797.75C420.25 776.25 434.75 760.5 461 760.5C498.5 760.5 531.25 795.25 531.25 832ZM449 688.75ZM487.5 867ZM406.5 398.25C368.25 492.75 329.25 591 287.25 695.5L204.5 686.25C199.75 637.5 191.75 589.75 178.75 531.25L66.25 0H141.5L215 347.25C231.75 424 247.25 501 259.5 587.75H261C287.75 490.5 319.5 415.25 367.5 296.5C406.5 201 445 103 487 0H564.5L710.75 687L703.75 695.75L627.5 686.25C621.75 632.75 613 580.75 598.5 515C535 213.5 528.75 178.5 516.5 96.5H515C490 198.25 454.25 278.75 406.5 398.25ZM449 688.75ZM303 0Z" glyph-name="Ndotaccent" horiz-adv-x="728.75" unicode="&#7748;" /><glyph d="M-59.5 -187C46.25 -139.75 103.25 -69 133 67.25H57.75C34.25 -43.75 -16 -112 -75.75 -152ZM383.75 398C350.75 481.25 302.75 599.5 264.5 695.5L181.75 686.25C177 637.5 168.75 585 156.75 531.25L57.75 67.25H133L192.5 347.25C208.25 421.5 224.25 498.5 236.75 584.25H238.25C265 487.75 296.75 414 344.75 297C383 203.25 422.25 103 464.25 0H541.75L688 687L681 695.75L604.75 686.25C599 632.75 589.75 579.5 575.75 514C511.75 212 505.5 176.5 494 99.75H492.5C468.25 195.75 431 281.25 383.75 398Z" glyph-name="Nhookleft" horiz-adv-x="706" unicode="&#413;" /><glyph d="M426.5 871C369.75 871 328.25 811.5 313.5 761L334 757C354 788.5 380.25 812.5 407.25 812.5C449.75 812.5 472 756 525.75 756C580 756 623.75 815.75 637 866L616.5 870C597 839.75 570.75 814.5 542.5 814.5C498.75 814.5 481 871 426.5 871ZM449 688.75ZM487.75 871.75ZM406.5 398.25C368.25 492.75 329.25 591 287.25 695.5L204.5 686.25C199.75 637.5 191.75 589.75 178.75 531.25L66.25 0H141.5L215 347.25C231.75 424 247.25 501 259.5 587.75H261C287.75 490.5 319.5 415.25 367.5 296.5C406.5 201 445 103 487 0H564.5L710.75 687L703.75 695.75L627.5 686.25C621.75 632.75 613 580.75 598.5 515C535 213.5 528.75 178.5 516.5 96.5H515C490 198.25 454.25 278.75 406.5 398.25ZM449 688.75ZM303 0Z" glyph-name="Ntilde" horiz-adv-x="728.75" unicode="&#209;" /><glyph d="M167.25 242.5C167.25 418.25 270 634 428.75 634C521 634 565 561.5 565 443C565 265 467.5 52.25 307.25 52.25C214.25 52.25 167.25 124 167.25 242.5ZM646.25 445.25C646.25 606.75 567.75 696.25 441.25 696.25C236 696.25 86 458.25 86 236.5C86 75.5 165.75 -10 291.75 -10C500.25 -10 646.25 224.5 646.25 445.25ZM120.25 686.25ZM370 343.5ZM289.5 0ZM443.25 688.75ZM764.75 686.25ZM466.25 10Z" glyph-name="O" horiz-adv-x="693" unicode="O" /><glyph d="M661 458.25C661 607.75 582.5 696.25 456 696.25C259.5 696.25 83.75 472.25 83.75 224C83.75 73 167.25 -10 292.25 -10C491 -10 661 205.5 661 458.25ZM166.5 234.5C166.5 444.75 296.25 634 441.25 634C533.25 634 580 564 580 455C580 239 454.75 52.25 311 52.25C217.5 52.25 166.5 122 166.5 234.5ZM965.75 686.25H506L520.5 627.5L959.25 622L972.75 677.5ZM862.5 371 626.75 368.25 615.5 313.25 847.75 310ZM850.75 64.25 399.5 58.75 359.75 0H837.25Z" glyph-name="OE" horiz-adv-x="936.5" unicode="&#338;" /><glyph d="M573 842 532.5 880.5C483 839 424 801 366.75 769L375 747.5C441.25 765.5 506 791.75 571 829.5ZM443.25 688.75ZM484.25 880.5ZM167.25 242.5C167.25 418.25 270 634 428.75 634C521 634 565 561.5 565 443C565 265 467.5 52.25 307.25 52.25C214.25 52.25 167.25 124 167.25 242.5ZM646.25 445.25C646.25 606.75 567.75 696.25 441.25 696.25C236 696.25 86 458.25 86 236.5C86 75.5 165.75 -10 291.75 -10C500.25 -10 646.25 224.5 646.25 445.25ZM120.25 686.25ZM370 343.5ZM289.5 0ZM443.25 688.75ZM764.75 686.25ZM466.25 10Z" glyph-name="Oacute" horiz-adv-x="693" unicode="&#211;" /><glyph d="M442.75 748.75C508.25 748.75 571.75 806 592.5 877.75L562 872.5C537 831 499.5 800.5 455.25 800.5C411.5 800.5 386 827 377.5 871.25L348.25 865.75C340 802 380 748.75 442.75 748.75ZM443.25 688.75ZM483.25 877.75ZM167.25 242.5C167.25 418.25 270 634 428.75 634C521 634 565 561.5 565 443C565 265 467.5 52.25 307.25 52.25C214.25 52.25 167.25 124 167.25 242.5ZM646.25 445.25C646.25 606.75 567.75 696.25 441.25 696.25C236 696.25 86 458.25 86 236.5C86 75.5 165.75 -10 291.75 -10C500.25 -10 646.25 224.5 646.25 445.25ZM120.25 686.25ZM370 343.5ZM289.5 0ZM443.25 688.75ZM764.75 686.25ZM466.25 10Z" glyph-name="Obreve" horiz-adv-x="693" unicode="&#334;" /><glyph d="M167.25 242.5C167.25 418.25 270 634 428.75 634C521 634 565 561.5 565 443C565 265 467.5 52.25 307.25 52.25C214.25 52.25 167.25 124 167.25 242.5ZM646.25 445.25C646.25 606.75 567.75 696.25 441.25 696.25C236 696.25 86 458.25 86 236.5C86 75.5 165.75 -10 291.75 -10C500.25 -10 646.25 224.5 646.25 445.25ZM120.25 686.25ZM370 343.5ZM289.5 0ZM443.25 688.75ZM764.75 686.25ZM466.25 10ZM583 877.5C531.5 851.25 483 821 435.75 786.25H472C440.5 821.5 402.25 851.75 362.5 877.5L335.75 861.75C366.5 822.75 390.5 786 412.75 749.75L482.75 756.75C531.75 801 554.25 821.25 603.25 861.75ZM443.25 688.75ZM483 877.5Z" glyph-name="Ocaron" horiz-adv-x="693" unicode="&#465;" /><glyph d="M167.25 242.5C167.25 418.25 270 634 428.75 634C521 634 565 561.5 565 443C565 265 467.5 52.25 307.25 52.25C214.25 52.25 167.25 124 167.25 242.5ZM646.25 445.25C646.25 606.75 567.75 696.25 441.25 696.25C236 696.25 86 458.25 86 236.5C86 75.5 165.75 -10 291.75 -10C500.25 -10 646.25 224.5 646.25 445.25ZM120.25 686.25ZM370 343.5ZM289.5 0ZM443.25 688.75ZM764.75 686.25ZM466.25 10ZM356 749.75C407.5 776 456 806.25 503.25 841H467C498.5 805.75 536 774.75 576.5 749.75L603.25 765.5C572.5 804.5 548.5 841.25 526.25 877.5L456.25 870.5C407.25 826.25 384.75 806 335.75 765.5ZM443.25 688.75ZM483 877.5Z" glyph-name="Ocircumflex" horiz-adv-x="693" unicode="&#212;" /><glyph d="M167.25 242.5C167.25 418.25 270 634 428.75 634C521 634 565 561.5 565 443C565 265 467.5 52.25 307.25 52.25C214.25 52.25 167.25 124 167.25 242.5ZM646.25 445.25C646.25 606.75 567.75 696.25 441.25 696.25C236 696.25 86 458.25 86 236.5C86 75.5 165.75 -10 291.75 -10C500.25 -10 646.25 224.5 646.25 445.25ZM120.25 686.25ZM370 343.5ZM289.5 0ZM443.25 688.75ZM764.75 686.25ZM466.25 10ZM413.25 830C413.25 851.5 398.5 867.5 374.75 867.5C339.75 867.5 304.5 833 304.5 798.5C304.5 775.75 321.5 759.75 344.75 759.75C379 759.75 413.25 794.25 413.25 830ZM634.5 830C634.5 851.5 619.75 867.5 596 867.5C561 867.5 525.75 833 525.75 798.5C525.75 775.75 542.75 759.75 566 759.75C600.25 759.75 634.5 794.25 634.5 830ZM443.25 688.75ZM480.75 867.5Z" glyph-name="Odieresis" horiz-adv-x="693" unicode="&#214;" /><glyph d="M167.25 242.5C167.25 418.25 270 634 428.75 634C521 634 565 561.5 565 443C565 265 467.5 52.25 307.25 52.25C214.25 52.25 167.25 124 167.25 242.5ZM646.25 445.25C646.25 606.75 567.75 696.25 441.25 696.25C236 696.25 86 458.25 86 236.5C86 75.5 165.75 -10 291.75 -10C500.25 -10 646.25 224.5 646.25 445.25ZM120.25 686.25ZM370 343.5ZM289.5 0ZM443.25 688.75ZM764.75 686.25ZM466.25 10ZM318.75 -169.75C318.75 -146 305.25 -131.25 281.5 -131.25C245.5 -131.25 209 -170.25 209 -208.5C209 -231.75 223.25 -248.75 248 -248.75C288.25 -248.75 318.75 -206.5 318.75 -169.75ZM231.75 -356.75ZM288 -94.5ZM289.5 0ZM254.5 -162.75Z" glyph-name="Odotbelow" horiz-adv-x="693" unicode="&#7884;" /><glyph d="M541.75 747.5 559.5 769C516 800.75 475.5 835.5 440.5 880.5L384 842L380.25 829.5C429.25 791.5 483.5 766.5 541.75 747.5ZM443.25 688.75ZM484.25 880.5ZM167.25 242.5C167.25 418.25 270 634 428.75 634C521 634 565 561.5 565 443C565 265 467.5 52.25 307.25 52.25C214.25 52.25 167.25 124 167.25 242.5ZM646.25 445.25C646.25 606.75 567.75 696.25 441.25 696.25C236 696.25 86 458.25 86 236.5C86 75.5 165.75 -10 291.75 -10C500.25 -10 646.25 224.5 646.25 445.25ZM120.25 686.25ZM370 343.5ZM289.5 0ZM443.25 688.75ZM764.75 686.25ZM466.25 10Z" glyph-name="Ograve" horiz-adv-x="693" unicode="&#210;" /><glyph d="M467.75 837.5 436.75 873.25C391.75 834.75 334.75 799.5 284.5 772.25L291.75 752C349.75 766.5 409.75 790.5 466.25 825ZM653.25 837.5 622.25 873.25C577.25 834.75 526 802.5 470 772.25L477.25 752C534.5 765.75 592.25 789.75 651.75 825ZM443.25 688.75ZM482.25 873.25ZM167.25 242.5C167.25 418.25 270 634 428.75 634C521 634 565 561.5 565 443C565 265 467.5 52.25 307.25 52.25C214.25 52.25 167.25 124 167.25 242.5ZM646.25 445.25C646.25 606.75 567.75 696.25 441.25 696.25C236 696.25 86 458.25 86 236.5C86 75.5 165.75 -10 291.75 -10C500.25 -10 646.25 224.5 646.25 445.25ZM120.25 686.25ZM370 343.5ZM289.5 0ZM443.25 688.75ZM764.75 686.25ZM466.25 10Z" glyph-name="Ohungarumlaut" horiz-adv-x="693" unicode="&#336;" /><glyph d="M334.25 787.25H594.5L605.5 839.5H345.25ZM443.25 688.75ZM475.75 839.5ZM167.25 242.5C167.25 418.25 270 634 428.75 634C521 634 565 561.5 565 443C565 265 467.5 52.25 307.25 52.25C214.25 52.25 167.25 124 167.25 242.5ZM646.25 445.25C646.25 606.75 567.75 696.25 441.25 696.25C236 696.25 86 458.25 86 236.5C86 75.5 165.75 -10 291.75 -10C500.25 -10 646.25 224.5 646.25 445.25ZM120.25 686.25ZM370 343.5ZM289.5 0ZM443.25 688.75ZM764.75 686.25ZM466.25 10Z" glyph-name="Omacron" horiz-adv-x="693" unicode="&#332;" /><glyph d="M608.75 444.25C608.75 299.75 515.75 132.5 388.75 36.5L397.25 15C551.25 77.75 692.5 278 692.5 457.75C692.5 596.75 608 696.25 462.75 696.25C272.75 696.25 113.5 526.25 113.5 305.5C113.5 169.25 174.75 50.25 260.5 15L272.5 36.5C223 92.5 191 185 191 287.75C191 484 307 634 449.25 634C550.75 634 608.75 557.25 608.75 444.25ZM257.5 0 272.5 36.5H243.75L16.25 67L5.75 58.25L3 0ZM665.5 58.25 658.5 67 417.5 36.5H388.75L388.25 0H642.75Z" glyph-name="Omega" horiz-adv-x="752.25" unicode="&#937;" /><glyph d="M426 25 427.75 45C304 0.75 179.75 -91.5 179.75 -180.75C179.75 -226 211.25 -253.75 261.25 -253.75C306.25 -253.75 349.75 -229.25 380.5 -197.75L376.5 -173.5C343.75 -195.75 317.25 -206.25 293.75 -206.25C263.75 -206.25 251 -188.5 251 -163.75C251 -102.75 329 -24.5 426 25ZM167.25 242.5C167.25 418.25 270 634 428.75 634C521 634 565 561.5 565 443C565 265 467.5 52.25 307.25 52.25C214.25 52.25 167.25 124 167.25 242.5ZM646.25 445.25C646.25 606.75 567.75 696.25 441.25 696.25C236 696.25 86 458.25 86 236.5C86 75.5 165.75 -10 291.75 -10C500.25 -10 646.25 224.5 646.25 445.25ZM120.25 686.25ZM370 343.5ZM289.5 0ZM443.25 688.75ZM764.75 686.25ZM466.25 10ZM466.25 10Z" glyph-name="Oogonek" horiz-adv-x="693" unicode="&#490;" /><glyph d="M744 661.25 714 690.75 -4 26.75 24.25 -3.75ZM370 343.5ZM167.25 242.5C167.25 418.25 270 634 428.75 634C521 634 565 561.5 565 443C565 265 467.5 52.25 307.25 52.25C214.25 52.25 167.25 124 167.25 242.5ZM646.25 445.25C646.25 606.75 567.75 696.25 441.25 696.25C236 696.25 86 458.25 86 236.5C86 75.5 165.75 -10 291.75 -10C500.25 -10 646.25 224.5 646.25 445.25ZM120.25 686.25ZM370 343.5ZM289.5 0ZM443.25 688.75ZM764.75 686.25ZM466.25 10Z" glyph-name="Oslash" horiz-adv-x="693" unicode="&#216;" /><glyph d="M744 661.25 714 690.75 -4 26.75 24.25 -3.75ZM370 343.5ZM167.25 242.5C167.25 418.25 270 634 428.75 634C521 634 565 561.5 565 443C565 265 467.5 52.25 307.25 52.25C214.25 52.25 167.25 124 167.25 242.5ZM646.25 445.25C646.25 606.75 567.75 696.25 441.25 696.25C236 696.25 86 458.25 86 236.5C86 75.5 165.75 -10 291.75 -10C500.25 -10 646.25 224.5 646.25 445.25ZM120.25 686.25ZM370 343.5ZM289.5 0ZM443.25 688.75ZM764.75 686.25ZM466.25 10ZM573 842 532.5 880.5C483 839 424 801 366.75 769L375 747.5C441.25 765.5 506 791.75 571 829.5ZM443.25 688.75ZM484.25 880.5Z" glyph-name="Oslashacute" horiz-adv-x="693" unicode="&#510;" /><glyph d="M420.75 871C364 871 322.5 811.5 307.75 761L328.25 757C348.25 788.5 374.5 812.5 401.5 812.5C444 812.5 466.25 756 520 756C574.25 756 618 815.75 631.25 866L610.75 870C591.25 839.75 565 814.5 536.75 814.5C493 814.5 475.25 871 420.75 871ZM443.25 688.75ZM482 871.75ZM167.25 242.5C167.25 418.25 270 634 428.75 634C521 634 565 561.5 565 443C565 265 467.5 52.25 307.25 52.25C214.25 52.25 167.25 124 167.25 242.5ZM646.25 445.25C646.25 606.75 567.75 696.25 441.25 696.25C236 696.25 86 458.25 86 236.5C86 75.5 165.75 -10 291.75 -10C500.25 -10 646.25 224.5 646.25 445.25ZM120.25 686.25ZM370 343.5ZM289.5 0ZM443.25 688.75ZM764.75 686.25ZM466.25 10Z" glyph-name="Otilde" horiz-adv-x="693" unicode="&#213;" /><glyph d="M574.5 521C574.5 625.25 501 686.25 375 686.25H238L225.75 628.75H351C451.5 628.75 493 582.5 493 512C493 394.25 408.75 309.5 279 309.5H159.75L148.75 252H266.75C438 252 574.5 360.75 574.5 521ZM144 0 290 686.25H204.5C200 635.5 192.5 593.25 179.5 531.25L66.25 0Z" glyph-name="P" horiz-adv-x="557.75" unicode="P" /><glyph d="M238.75 79.25 277 102C237.25 151 217.75 211.25 217.75 292C217.75 476 316.75 634 438 634C522.5 634 559.5 558.25 559.5 447.75C559.5 219 401.75 0.75 139.5 -9C122 -9.75 115.25 -9.25 102.5 -9.5L89.5 -50C215.5 -142.5 387 -189.5 515.75 -189.5C593.75 -189.5 639.25 -170.5 639.25 -129.5C639.25 -117.75 635.75 -109 629.25 -102.75C598.75 -112.5 561.5 -122.25 509.75 -122.25C395.5 -122.25 266.25 -94.5 159 -41L149.75 -57.5C453.75 -40.5 640.75 195.5 640.75 443.5C640.75 602.5 563.75 696.5 445.5 696.5C283.25 696.5 139.75 518.5 139.75 308.5C139.75 192 184 121.75 238.75 79.25Z" glyph-name="Q" horiz-adv-x="672.5" unicode="Q" /><glyph d="M143.75 0 290 686.25H204.5C199.75 635.25 191.75 589.75 179.5 531.25L66 0ZM343.25 282.75C483 304.25 575.75 400.5 575.75 523.75C575.75 624.75 500.75 686.25 368 686.25H238L226.25 628.75H351.5C453.25 628.75 493.5 581.25 493.5 513.5C493.5 401.25 410.5 328.25 283.75 328.25H163L151 272H331.25ZM426 -10.25 510.25 0 379.75 310.25 307.5 290.5C345.75 190 385.25 88.25 426 -10.25ZM400.25 688.75ZM254 0Z" glyph-name="R" horiz-adv-x="590.75" unicode="R" /><glyph d="M143.75 0 290 686.25H204.5C199.75 635.25 191.75 589.75 179.5 531.25L66 0ZM343.25 282.75C483 304.25 575.75 400.5 575.75 523.75C575.75 624.75 500.75 686.25 368 686.25H238L226.25 628.75H351.5C453.25 628.75 493.5 581.25 493.5 513.5C493.5 401.25 410.5 328.25 283.75 328.25H163L151 272H331.25ZM426 -10.25 510.25 0 379.75 310.25 307.5 290.5C345.75 190 385.25 88.25 426 -10.25ZM400.25 688.75ZM254 0ZM530 842 489.5 880.5C440 839 381 801 323.75 769L332 747.5C398.25 765.5 463 791.75 528 829.5ZM400.25 688.75ZM441.25 880.5Z" glyph-name="Racute" horiz-adv-x="590.75" unicode="&#340;" /><glyph d="M143.75 0 290 686.25H204.5C199.75 635.25 191.75 589.75 179.5 531.25L66 0ZM343.25 282.75C483 304.25 575.75 400.5 575.75 523.75C575.75 624.75 500.75 686.25 368 686.25H238L226.25 628.75H351.5C453.25 628.75 493.5 581.25 493.5 513.5C493.5 401.25 410.5 328.25 283.75 328.25H163L151 272H331.25ZM426 -10.25 510.25 0 379.75 310.25 307.5 290.5C345.75 190 385.25 88.25 426 -10.25ZM400.25 688.75ZM254 0ZM540 877.5C488.5 851.25 440 821 392.75 786.25H429C397.5 821.5 359.25 851.75 319.5 877.5L292.75 861.75C323.5 822.75 347.5 786 369.75 749.75L439.75 756.75C488.75 801 511.25 821.25 560.25 861.75ZM400.25 688.75ZM440 877.5Z" glyph-name="Rcaron" horiz-adv-x="590.75" unicode="&#344;" /><glyph d="M143.75 0 290 686.25H204.5C199.75 635.25 191.75 589.75 179.5 531.25L66 0ZM343.25 282.75C483 304.25 575.75 400.5 575.75 523.75C575.75 624.75 500.75 686.25 368 686.25H238L226.25 628.75H351.5C453.25 628.75 493.5 581.25 493.5 513.5C493.5 401.25 410.5 328.25 283.75 328.25H163L151 272H331.25ZM426 -10.25 510.25 0 379.75 310.25 307.5 290.5C345.75 190 385.25 88.25 426 -10.25ZM400.25 688.75ZM254 0ZM146.5 -285.5 155.75 -295C218.5 -258 283.75 -165 283.75 -112.75C283.75 -88.25 268.25 -73.75 242.25 -73.75C209 -73.75 176.75 -107.75 176.75 -141.5C176.75 -164.5 193.75 -179.25 220 -179.25L218.75 -146C209.25 -189 174.5 -252.25 146.5 -285.5ZM254 0ZM191.25 -295Z" glyph-name="Rcommaaccent" horiz-adv-x="590.75" unicode="&#342;" /><glyph d="M143.75 0 290 686.25H204.5C199.75 635.25 191.75 589.75 179.5 531.25L66 0ZM343.25 282.75C483 304.25 575.75 400.5 575.75 523.75C575.75 624.75 500.75 686.25 368 686.25H238L226.25 628.75H351.5C453.25 628.75 493.5 581.25 493.5 513.5C493.5 401.25 410.5 328.25 283.75 328.25H163L151 272H331.25ZM426 -10.25 510.25 0 379.75 310.25 307.5 290.5C345.75 190 385.25 88.25 426 -10.25ZM400.25 688.75ZM254 0ZM283.25 -169.75C283.25 -146 269.75 -131.25 246 -131.25C210 -131.25 173.5 -170.25 173.5 -208.5C173.5 -231.75 187.75 -248.75 212.5 -248.75C252.75 -248.75 283.25 -206.5 283.25 -169.75ZM196.25 -356.75ZM252.5 -94.5ZM254 0ZM219 -162.75Z" glyph-name="Rdotbelow" horiz-adv-x="590.75" unicode="&#7770;" /><glyph d="M439.75 197.25C439.75 288.5 376.5 332.25 322.5 365.25C260 403 197 432.75 197 502.25C197 576.5 267.75 632.75 365.25 632.75C405.25 632.75 460.5 623 502 594.25L528 665.25C494.25 683.75 435.25 696.25 378.75 696.25C224 696.25 114.25 605.25 114.25 488.25C114.25 399.75 177.5 359.75 236.75 325.5C291.75 293.5 357.75 259.75 357.75 187C357.75 111.75 288.5 53.5 190 53.5C149 53.5 79.25 64.5 32.25 96L9 26C55 0 123.25 -10 176 -10C332 -10 439.75 78.25 439.75 197.25ZM348.5 688.75ZM206.75 0Z" glyph-name="S" horiz-adv-x="509.5" unicode="S" /><glyph d="M439.75 197.25C439.75 288.5 376.5 332.25 322.5 365.25C260 403 197 432.75 197 502.25C197 576.5 267.75 632.75 365.25 632.75C405.25 632.75 460.5 623 502 594.25L528 665.25C494.25 683.75 435.25 696.25 378.75 696.25C224 696.25 114.25 605.25 114.25 488.25C114.25 399.75 177.5 359.75 236.75 325.5C291.75 293.5 357.75 259.75 357.75 187C357.75 111.75 288.5 53.5 190 53.5C149 53.5 79.25 64.5 32.25 96L9 26C55 0 123.25 -10 176 -10C332 -10 439.75 78.25 439.75 197.25ZM348.5 688.75ZM206.75 0ZM478.25 842 437.75 880.5C388.25 839 329.25 801 272 769L280.25 747.5C346.5 765.5 411.25 791.75 476.25 829.5ZM348.5 688.75ZM389.5 880.5Z" glyph-name="Sacute" horiz-adv-x="509.5" unicode="&#346;" /><glyph d="M439.75 197.25C439.75 288.5 376.5 332.25 322.5 365.25C260 403 197 432.75 197 502.25C197 576.5 267.75 632.75 365.25 632.75C405.25 632.75 460.5 623 502 594.25L528 665.25C494.25 683.75 435.25 696.25 378.75 696.25C224 696.25 114.25 605.25 114.25 488.25C114.25 399.75 177.5 359.75 236.75 325.5C291.75 293.5 357.75 259.75 357.75 187C357.75 111.75 288.5 53.5 190 53.5C149 53.5 79.25 64.5 32.25 96L9 26C55 0 123.25 -10 176 -10C332 -10 439.75 78.25 439.75 197.25ZM348.5 688.75ZM206.75 0ZM488.25 877.5C436.75 851.25 388.25 821 341 786.25H377.25C345.75 821.5 307.5 851.75 267.75 877.5L241 861.75C271.75 822.75 295.75 786 318 749.75L388 756.75C437 801 459.5 821.25 508.5 861.75ZM348.5 688.75ZM388.25 877.5Z" glyph-name="Scaron" horiz-adv-x="509.5" unicode="&#352;" /><glyph d="M439.75 197.25C439.75 288.5 376.5 332.25 322.5 365.25C260 403 197 432.75 197 502.25C197 576.5 267.75 632.75 365.25 632.75C405.25 632.75 460.5 623 502 594.25L528 665.25C494.25 683.75 435.25 696.25 378.75 696.25C224 696.25 114.25 605.25 114.25 488.25C114.25 399.75 177.5 359.75 236.75 325.5C291.75 293.5 357.75 259.75 357.75 187C357.75 111.75 288.5 53.5 190 53.5C149 53.5 79.25 64.5 32.25 96L9 26C55 0 123.25 -10 176 -10C332 -10 439.75 78.25 439.75 197.25ZM348.5 688.75ZM206.75 0ZM94 -222.25 84.25 -253.75C188.75 -241 279.5 -168.5 279.5 -95.5C279.5 -65 257 -50.75 228.5 -50.75C191.5 -50.75 157.25 -69 132 -85L138.25 -102.25C156 -97.25 173.75 -93.25 189 -93.25C210.5 -93.25 217.5 -104 217.5 -116.25C217.5 -156.25 161 -205 94 -222.25ZM187.5 18.25 132 -85 175 -77 235.5 18.25ZM206.75 0ZM153 -253.75Z" glyph-name="Scedilla" horiz-adv-x="509.5" unicode="&#350;" /><glyph d="M551 343.5 561.75 390.25H134L111.75 370.5L156.5 331.75ZM111.75 370.5C101.25 344 73.5 270.5 73.5 191C73.5 62 148.75 -10 268.75 -10C471.75 -10 626.75 193.75 626.75 432.75C626.75 612 539.25 696.25 395.25 696.25C309.75 696.25 232.25 666.5 197.5 645L188 582.75C239.25 611 301.25 633.75 366 633.75C473 633.75 541.75 571 541.75 413.75C541.75 217.5 435 50 287.25 50C204 50 153.75 103.5 153.75 203C153.75 258 168.75 311.75 187.25 352.25Z" glyph-name="Schwa" horiz-adv-x="677.25" unicode="&#399;" /><glyph d="M439.75 197.25C439.75 288.5 376.5 332.25 322.5 365.25C260 403 197 432.75 197 502.25C197 576.5 267.75 632.75 365.25 632.75C405.25 632.75 460.5 623 502 594.25L528 665.25C494.25 683.75 435.25 696.25 378.75 696.25C224 696.25 114.25 605.25 114.25 488.25C114.25 399.75 177.5 359.75 236.75 325.5C291.75 293.5 357.75 259.75 357.75 187C357.75 111.75 288.5 53.5 190 53.5C149 53.5 79.25 64.5 32.25 96L9 26C55 0 123.25 -10 176 -10C332 -10 439.75 78.25 439.75 197.25ZM348.5 688.75ZM206.75 0ZM261.25 749.75C312.75 776 361.25 806.25 408.5 841H372.25C403.75 805.75 441.25 774.75 481.75 749.75L508.5 765.5C477.75 804.5 453.75 841.25 431.5 877.5L361.5 870.5C312.5 826.25 290 806 241 765.5ZM348.5 688.75ZM388.25 877.5Z" glyph-name="Scircumflex" horiz-adv-x="509.5" unicode="&#348;" /><glyph d="M439.75 197.25C439.75 288.5 376.5 332.25 322.5 365.25C260 403 197 432.75 197 502.25C197 576.5 267.75 632.75 365.25 632.75C405.25 632.75 460.5 623 502 594.25L528 665.25C494.25 683.75 435.25 696.25 378.75 696.25C224 696.25 114.25 605.25 114.25 488.25C114.25 399.75 177.5 359.75 236.75 325.5C291.75 293.5 357.75 259.75 357.75 187C357.75 111.75 288.5 53.5 190 53.5C149 53.5 79.25 64.5 32.25 96L9 26C55 0 123.25 -10 176 -10C332 -10 439.75 78.25 439.75 197.25ZM348.5 688.75ZM206.75 0ZM99.25 -285.5 108.5 -295C171.25 -258 236.5 -165 236.5 -112.75C236.5 -88.25 221 -73.75 195 -73.75C161.75 -73.75 129.5 -107.75 129.5 -141.5C129.5 -164.5 146.5 -179.25 172.75 -179.25L171.5 -146C162 -189 127.25 -252.25 99.25 -285.5ZM206.75 0ZM144 -295Z" glyph-name="Scommaaccent" horiz-adv-x="509.5" unicode="&#536;" /><glyph d="M439.75 197.25C439.75 288.5 376.5 332.25 322.5 365.25C260 403 197 432.75 197 502.25C197 576.5 267.75 632.75 365.25 632.75C405.25 632.75 460.5 623 502 594.25L528 665.25C494.25 683.75 435.25 696.25 378.75 696.25C224 696.25 114.25 605.25 114.25 488.25C114.25 399.75 177.5 359.75 236.75 325.5C291.75 293.5 357.75 259.75 357.75 187C357.75 111.75 288.5 53.5 190 53.5C149 53.5 79.25 64.5 32.25 96L9 26C55 0 123.25 -10 176 -10C332 -10 439.75 78.25 439.75 197.25ZM348.5 688.75ZM206.75 0ZM236 -169.75C236 -146 222.5 -131.25 198.75 -131.25C162.75 -131.25 126.25 -170.25 126.25 -208.5C126.25 -231.75 140.5 -248.75 165.25 -248.75C205.5 -248.75 236 -206.5 236 -169.75ZM149 -356.75ZM205.25 -94.5ZM206.75 0ZM171.75 -162.75Z" glyph-name="Sdotbelow" horiz-adv-x="509.5" unicode="&#7778;" /><glyph d="M242.25 0 388.25 686.25H310.5L164.5 0ZM335.5 626.25C417.25 626.25 500 623.75 582 620.25L591.5 686.25H106.5L87.5 620.25C171.5 623.75 254.75 626.25 335.5 626.25ZM349.75 688.75ZM276.5 343.5ZM203.5 0Z" glyph-name="T" horiz-adv-x="512" unicode="T" /><glyph d="M455 321 464.25 366H97.75L88.5 321ZM276.5 343.5ZM242.25 0 388.25 686.25H310.5L164.5 0ZM335.5 626.25C417.25 626.25 500 623.75 582 620.25L591.5 686.25H106.5L87.5 620.25C171.5 623.75 254.75 626.25 335.5 626.25ZM349.75 688.75ZM276.5 343.5ZM203.5 0Z" glyph-name="Tbar" horiz-adv-x="512" unicode="&#358;" /><glyph d="M242.25 0 388.25 686.25H310.5L164.5 0ZM335.5 626.25C417.25 626.25 500 623.75 582 620.25L591.5 686.25H106.5L87.5 620.25C171.5 623.75 254.75 626.25 335.5 626.25ZM349.75 688.75ZM276.5 343.5ZM203.5 0ZM489.5 877.5C438 851.25 389.5 821 342.25 786.25H378.5C347 821.5 308.75 851.75 269 877.5L242.25 861.75C273 822.75 297 786 319.25 749.75L389.25 756.75C438.25 801 460.75 821.25 509.75 861.75ZM349.75 688.75ZM389.5 877.5Z" glyph-name="Tcaron" horiz-adv-x="512" unicode="&#356;" /><glyph d="M242.25 0 388.25 686.25H310.5L164.5 0ZM335.5 626.25C417.25 626.25 500 623.75 582 620.25L591.5 686.25H106.5L87.5 620.25C171.5 623.75 254.75 626.25 335.5 626.25ZM349.75 688.75ZM276.5 343.5ZM203.5 0ZM90.75 -222.25 81 -253.75C185.5 -241 276.25 -168.5 276.25 -95.5C276.25 -65 253.75 -50.75 225.25 -50.75C188.25 -50.75 154 -69 128.75 -85L135 -102.25C152.75 -97.25 170.5 -93.25 185.75 -93.25C207.25 -93.25 214.25 -104 214.25 -116.25C214.25 -156.25 157.75 -205 90.75 -222.25ZM184.25 18.25 128.75 -85 171.75 -77 232.25 18.25ZM203.5 0ZM149.75 -253.75Z" glyph-name="Tcedilla" horiz-adv-x="512" unicode="&#354;" /><glyph d="M242.25 0 388.25 686.25H310.5L164.5 0ZM335.5 626.25C417.25 626.25 500 623.75 582 620.25L591.5 686.25H106.5L87.5 620.25C171.5 623.75 254.75 626.25 335.5 626.25ZM349.75 688.75ZM276.5 343.5ZM203.5 0ZM96 -285.5 105.25 -295C168 -258 233.25 -165 233.25 -112.75C233.25 -88.25 217.75 -73.75 191.75 -73.75C158.5 -73.75 126.25 -107.75 126.25 -141.5C126.25 -164.5 143.25 -179.25 169.5 -179.25L168.25 -146C158.75 -189 124 -252.25 96 -285.5ZM203.5 0ZM140.75 -295Z" glyph-name="Tcommaaccent" horiz-adv-x="512" unicode="&#538;" /><glyph d="M242.25 0 388.25 686.25H310.5L164.5 0ZM335.5 626.25C417.25 626.25 500 623.75 582 620.25L591.5 686.25H106.5L87.5 620.25C171.5 623.75 254.75 626.25 335.5 626.25ZM349.75 688.75ZM276.5 343.5ZM203.5 0ZM232.75 -169.75C232.75 -146 219.25 -131.25 195.5 -131.25C159.5 -131.25 123 -170.25 123 -208.5C123 -231.75 137.25 -248.75 162 -248.75C202.25 -248.75 232.75 -206.5 232.75 -169.75ZM145.75 -356.75ZM202 -94.5ZM203.5 0ZM168.5 -162.75Z" glyph-name="Tdotbelow" horiz-adv-x="512" unicode="&#7788;" /><glyph d="M561.25 401.25C561.25 512 486.5 570.75 361 570.75H212.75L200.5 512H337C426.75 512 479 476 479 390.75C479 280.5 392.25 195.25 266.75 195.25H134.75L122.5 136.5H253.25C430.5 136.5 561.25 255 561.25 401.25ZM143.75 0 290 686.25H204.5C198.25 623.25 190.25 587 178.75 531.25L66 0Z" glyph-name="Thorn" horiz-adv-x="569" unicode="&#222;" /><glyph d="M82 160.25C82 48.75 161 -10 272.5 -10C406.25 -10 531 69 564.5 225L664.5 695.75L577.25 687.75C572.75 610.5 565.75 585 489.25 226.75C465.25 113 383.75 54.75 292.25 54.75C214.75 54.75 161 96.75 161 178.75C161 212 166.75 229 265.75 690.5L261.75 696.25L177 687.75C165 524.25 82 251 82 160.25ZM424.75 688.75ZM380.5 10ZM735.75 686.25ZM278.75 0Z" glyph-name="U" horiz-adv-x="653.25" unicode="U" /><glyph d="M82 160.25C82 48.75 161 -10 272.5 -10C406.25 -10 531 69 564.5 225L664.5 695.75L577.25 687.75C572.75 610.5 565.75 585 489.25 226.75C465.25 113 383.75 54.75 292.25 54.75C214.75 54.75 161 96.75 161 178.75C161 212 166.75 229 265.75 690.5L261.75 696.25L177 687.75C165 524.25 82 251 82 160.25ZM424.75 688.75ZM380.5 10ZM735.75 686.25ZM278.75 0ZM554.5 842 514 880.5C464.5 839 405.5 801 348.25 769L356.5 747.5C422.75 765.5 487.5 791.75 552.5 829.5ZM424.75 688.75ZM465.75 880.5Z" glyph-name="Uacute" horiz-adv-x="653.25" unicode="&#218;" /><glyph d="M424.25 748.75C489.75 748.75 553.25 806 574 877.75L543.5 872.5C518.5 831 481 800.5 436.75 800.5C393 800.5 367.5 827 359 871.25L329.75 865.75C321.5 802 361.5 748.75 424.25 748.75ZM424.75 688.75ZM464.75 877.75ZM82 160.25C82 48.75 161 -10 272.5 -10C406.25 -10 531 69 564.5 225L664.5 695.75L577.25 687.75C572.75 610.5 565.75 585 489.25 226.75C465.25 113 383.75 54.75 292.25 54.75C214.75 54.75 161 96.75 161 178.75C161 212 166.75 229 265.75 690.5L261.75 696.25L177 687.75C165 524.25 82 251 82 160.25ZM424.75 688.75ZM380.5 10ZM735.75 686.25ZM278.75 0Z" glyph-name="Ubreve" horiz-adv-x="653.25" unicode="&#364;" /><glyph d="M82 160.25C82 48.75 161 -10 272.5 -10C406.25 -10 531 69 564.5 225L664.5 695.75L577.25 687.75C572.75 610.5 565.75 585 489.25 226.75C465.25 113 383.75 54.75 292.25 54.75C214.75 54.75 161 96.75 161 178.75C161 212 166.75 229 265.75 690.5L261.75 696.25L177 687.75C165 524.25 82 251 82 160.25ZM424.75 688.75ZM380.5 10ZM735.75 686.25ZM278.75 0ZM564.5 877.5C513 851.25 464.5 821 417.25 786.25H453.5C422 821.5 383.75 851.75 344 877.5L317.25 861.75C348 822.75 372 786 394.25 749.75L464.25 756.75C513.25 801 535.75 821.25 584.75 861.75ZM424.75 688.75ZM464.5 877.5Z" glyph-name="Ucaron" horiz-adv-x="653.25" unicode="&#467;" /><glyph d="M82 160.25C82 48.75 161 -10 272.5 -10C406.25 -10 531 69 564.5 225L664.5 695.75L577.25 687.75C572.75 610.5 565.75 585 489.25 226.75C465.25 113 383.75 54.75 292.25 54.75C214.75 54.75 161 96.75 161 178.75C161 212 166.75 229 265.75 690.5L261.75 696.25L177 687.75C165 524.25 82 251 82 160.25ZM424.75 688.75ZM380.5 10ZM735.75 686.25ZM278.75 0ZM337.5 749.75C389 776 437.5 806.25 484.75 841H448.5C480 805.75 517.5 774.75 558 749.75L584.75 765.5C554 804.5 530 841.25 507.75 877.5L437.75 870.5C388.75 826.25 366.25 806 317.25 765.5ZM424.75 688.75ZM464.5 877.5Z" glyph-name="Ucircumflex" horiz-adv-x="653.25" unicode="&#219;" /><glyph d="M82 160.25C82 48.75 161 -10 272.5 -10C406.25 -10 531 69 564.5 225L664.5 695.75L577.25 687.75C572.75 610.5 565.75 585 489.25 226.75C465.25 113 383.75 54.75 292.25 54.75C214.75 54.75 161 96.75 161 178.75C161 212 166.75 229 265.75 690.5L261.75 696.25L177 687.75C165 524.25 82 251 82 160.25ZM424.75 688.75ZM380.5 10ZM735.75 686.25ZM278.75 0ZM394.75 830C394.75 851.5 380 867.5 356.25 867.5C321.25 867.5 286 833 286 798.5C286 775.75 303 759.75 326.25 759.75C360.5 759.75 394.75 794.25 394.75 830ZM616 830C616 851.5 601.25 867.5 577.5 867.5C542.5 867.5 507.25 833 507.25 798.5C507.25 775.75 524.25 759.75 547.5 759.75C581.75 759.75 616 794.25 616 830ZM424.75 688.75ZM462.25 867.5Z" glyph-name="Udieresis" horiz-adv-x="653.25" unicode="&#220;" /><glyph d="M82 160.25C82 48.75 161 -10 272.5 -10C406.25 -10 531 69 564.5 225L664.5 695.75L577.25 687.75C572.75 610.5 565.75 585 489.25 226.75C465.25 113 383.75 54.75 292.25 54.75C214.75 54.75 161 96.75 161 178.75C161 212 166.75 229 265.75 690.5L261.75 696.25L177 687.75C165 524.25 82 251 82 160.25ZM424.75 688.75ZM380.5 10ZM735.75 686.25ZM278.75 0ZM592 1020.75 551.5 1059.25C502 1017.75 443 979.75 385.75 947.75L394 926.25C460.25 944.25 525 970.5 590 1008.25ZM462.25 867.5ZM503.25 1059.25ZM394.75 830C394.75 851.5 380 867.5 356.25 867.5C321.25 867.5 286 833 286 798.5C286 775.75 303 759.75 326.25 759.75C360.5 759.75 394.75 794.25 394.75 830ZM616 830C616 851.5 601.25 867.5 577.5 867.5C542.5 867.5 507.25 833 507.25 798.5C507.25 775.75 524.25 759.75 547.5 759.75C581.75 759.75 616 794.25 616 830ZM424.75 688.75ZM462.25 867.5Z" glyph-name="Udieresisacute" horiz-adv-x="653.25" unicode="&#471;" /><glyph d="M82 160.25C82 48.75 161 -10 272.5 -10C406.25 -10 531 69 564.5 225L664.5 695.75L577.25 687.75C572.75 610.5 565.75 585 489.25 226.75C465.25 113 383.75 54.75 292.25 54.75C214.75 54.75 161 96.75 161 178.75C161 212 166.75 229 265.75 690.5L261.75 696.25L177 687.75C165 524.25 82 251 82 160.25ZM424.75 688.75ZM380.5 10ZM735.75 686.25ZM278.75 0ZM394.75 830C394.75 851.5 380 867.5 356.25 867.5C321.25 867.5 286 833 286 798.5C286 775.75 303 759.75 326.25 759.75C360.5 759.75 394.75 794.25 394.75 830ZM616 830C616 851.5 601.25 867.5 577.5 867.5C542.5 867.5 507.25 833 507.25 798.5C507.25 775.75 524.25 759.75 547.5 759.75C581.75 759.75 616 794.25 616 830ZM424.75 688.75ZM462.25 867.5ZM612.25 1127.25C558.5 1092.75 510.5 1054.25 462.25 1004.5H501.5C475.5 1053.75 444.25 1091.5 403.75 1127.25L377.5 1113.75C405.25 1062.75 423.75 1015.75 439.25 963.5L510 970.5C547.75 1020.75 583 1062.5 633 1113.75ZM462.25 867.5ZM517 1127.25Z" glyph-name="Udieresiscaron" horiz-adv-x="653.25" unicode="&#473;" /><glyph d="M82 160.25C82 48.75 161 -10 272.5 -10C406.25 -10 531 69 564.5 225L664.5 695.75L577.25 687.75C572.75 610.5 565.75 585 489.25 226.75C465.25 113 383.75 54.75 292.25 54.75C214.75 54.75 161 96.75 161 178.75C161 212 166.75 229 265.75 690.5L261.75 696.25L177 687.75C165 524.25 82 251 82 160.25ZM424.75 688.75ZM380.5 10ZM735.75 686.25ZM278.75 0ZM560.75 926.25 578.5 947.75C535 979.5 494.5 1014.25 459.5 1059.25L403 1020.75L399.25 1008.25C448.25 970.25 502.5 945.25 560.75 926.25ZM462.25 867.5ZM503.25 1059.25ZM394.75 830C394.75 851.5 380 867.5 356.25 867.5C321.25 867.5 286 833 286 798.5C286 775.75 303 759.75 326.25 759.75C360.5 759.75 394.75 794.25 394.75 830ZM616 830C616 851.5 601.25 867.5 577.5 867.5C542.5 867.5 507.25 833 507.25 798.5C507.25 775.75 524.25 759.75 547.5 759.75C581.75 759.75 616 794.25 616 830ZM424.75 688.75ZM462.25 867.5Z" glyph-name="Udieresisgrave" horiz-adv-x="653.25" unicode="&#475;" /><glyph d="M353.25 966H613.5L624.5 1018.25H364.25ZM462.25 867.5ZM494.75 1018.25ZM82 160.25C82 48.75 161 -10 272.5 -10C406.25 -10 531 69 564.5 225L664.5 695.75L577.25 687.75C572.75 610.5 565.75 585 489.25 226.75C465.25 113 383.75 54.75 292.25 54.75C214.75 54.75 161 96.75 161 178.75C161 212 166.75 229 265.75 690.5L261.75 696.25L177 687.75C165 524.25 82 251 82 160.25ZM424.75 688.75ZM380.5 10ZM735.75 686.25ZM278.75 0ZM394.75 830C394.75 851.5 380 867.5 356.25 867.5C321.25 867.5 286 833 286 798.5C286 775.75 303 759.75 326.25 759.75C360.5 759.75 394.75 794.25 394.75 830ZM616 830C616 851.5 601.25 867.5 577.5 867.5C542.5 867.5 507.25 833 507.25 798.5C507.25 775.75 524.25 759.75 547.5 759.75C581.75 759.75 616 794.25 616 830ZM424.75 688.75ZM462.25 867.5Z" glyph-name="Udieresismacron" horiz-adv-x="653.25" unicode="&#469;" /><glyph d="M82 160.25C82 48.75 161 -10 272.5 -10C406.25 -10 531 69 564.5 225L664.5 695.75L577.25 687.75C572.75 610.5 565.75 585 489.25 226.75C465.25 113 383.75 54.75 292.25 54.75C214.75 54.75 161 96.75 161 178.75C161 212 166.75 229 265.75 690.5L261.75 696.25L177 687.75C165 524.25 82 251 82 160.25ZM424.75 688.75ZM380.5 10ZM735.75 686.25ZM278.75 0ZM308 -169.75C308 -146 294.5 -131.25 270.75 -131.25C234.75 -131.25 198.25 -170.25 198.25 -208.5C198.25 -231.75 212.5 -248.75 237.25 -248.75C277.5 -248.75 308 -206.5 308 -169.75ZM221 -356.75ZM277.25 -94.5ZM278.75 0ZM243.75 -162.75Z" glyph-name="Udotbelow" horiz-adv-x="653.25" unicode="&#7908;" /><glyph d="M82 160.25C82 48.75 161 -10 272.5 -10C406.25 -10 531 69 564.5 225L664.5 695.75L577.25 687.75C572.75 610.5 565.75 585 489.25 226.75C465.25 113 383.75 54.75 292.25 54.75C214.75 54.75 161 96.75 161 178.75C161 212 166.75 229 265.75 690.5L261.75 696.25L177 687.75C165 524.25 82 251 82 160.25ZM424.75 688.75ZM380.5 10ZM735.75 686.25ZM278.75 0ZM523.25 747.5 541 769C497.5 800.75 457 835.5 422 880.5L365.5 842L361.75 829.5C410.75 791.5 465 766.5 523.25 747.5ZM424.75 688.75ZM465.75 880.5Z" glyph-name="Ugrave" horiz-adv-x="653.25" unicode="&#217;" /><glyph d="M449.25 837.5 418.25 873.25C373.25 834.75 316.25 799.5 266 772.25L273.25 752C331.25 766.5 391.25 790.5 447.75 825ZM634.75 837.5 603.75 873.25C558.75 834.75 507.5 802.5 451.5 772.25L458.75 752C516 765.75 573.75 789.75 633.25 825ZM424.75 688.75ZM463.75 873.25ZM82 160.25C82 48.75 161 -10 272.5 -10C406.25 -10 531 69 564.5 225L664.5 695.75L577.25 687.75C572.75 610.5 565.75 585 489.25 226.75C465.25 113 383.75 54.75 292.25 54.75C214.75 54.75 161 96.75 161 178.75C161 212 166.75 229 265.75 690.5L261.75 696.25L177 687.75C165 524.25 82 251 82 160.25ZM424.75 688.75ZM380.5 10ZM735.75 686.25ZM278.75 0Z" glyph-name="Uhungarumlaut" horiz-adv-x="653.25" unicode="&#368;" /><glyph d="M315.75 787.25H576L587 839.5H326.75ZM424.75 688.75ZM457.25 839.5ZM82 160.25C82 48.75 161 -10 272.5 -10C406.25 -10 531 69 564.5 225L664.5 695.75L577.25 687.75C572.75 610.5 565.75 585 489.25 226.75C465.25 113 383.75 54.75 292.25 54.75C214.75 54.75 161 96.75 161 178.75C161 212 166.75 229 265.75 690.5L261.75 696.25L177 687.75C165 524.25 82 251 82 160.25ZM424.75 688.75ZM380.5 10ZM735.75 686.25ZM278.75 0Z" glyph-name="Umacron" horiz-adv-x="653.25" unicode="&#362;" /><glyph d="M386.5 10.75 385.75 30.75C264 -9.5 130.25 -101.25 130.25 -188.5C130.25 -230.5 161.5 -253.75 209 -253.75C258 -253.75 299.75 -229.25 331 -197.75L327 -173.5C294.5 -195.75 270 -206.25 244.5 -206.25C215.75 -206.25 201.5 -193.75 201.5 -170.5C201.5 -115.75 274 -40.5 386.5 10.75ZM82 160.25C82 48.75 161 -10 272.5 -10C406.25 -10 531 69 564.5 225L664.5 695.75L577.25 687.75C572.75 610.5 565.75 585 489.25 226.75C465.25 113 383.75 54.75 292.25 54.75C214.75 54.75 161 96.75 161 178.75C161 212 166.75 229 265.75 690.5L261.75 696.25L177 687.75C165 524.25 82 251 82 160.25ZM424.75 688.75ZM380.5 10ZM735.75 686.25ZM278.75 0ZM380.5 10Z" glyph-name="Uogonek" horiz-adv-x="653.25" unicode="&#370;" /><glyph d="M82 160.25C82 48.75 161 -10 272.5 -10C406.25 -10 531 69 564.5 225L664.5 695.75L577.25 687.75C572.75 610.5 565.75 585 489.25 226.75C465.25 113 383.75 54.75 292.25 54.75C214.75 54.75 161 96.75 161 178.75C161 212 166.75 229 265.75 690.5L261.75 696.25L177 687.75C165 524.25 82 251 82 160.25ZM424.75 688.75ZM380.5 10ZM735.75 686.25ZM278.75 0ZM545.25 835C545.25 869.75 517 893.5 475.25 893.5C415.75 893.5 358 844.5 358 795C358 759.5 388.75 734.25 430 734.25C488.5 734.25 545.25 783 545.25 835ZM408 803.75C408 829.25 434.75 853 462.5 853C482.5 853 495.25 840.75 495.25 824C495.25 799.25 469.5 774.75 442.5 774.75C422.75 774.75 408 785.75 408 803.75ZM424.75 688.75ZM468.5 893.5Z" glyph-name="Uring" horiz-adv-x="653.25" unicode="&#366;" /><glyph d="M402.25 871C345.5 871 304 811.5 289.25 761L309.75 757C329.75 788.5 356 812.5 383 812.5C425.5 812.5 447.75 756 501.5 756C555.75 756 599.5 815.75 612.75 866L592.25 870C572.75 839.75 546.5 814.5 518.25 814.5C474.5 814.5 456.75 871 402.25 871ZM424.75 688.75ZM463.5 871.75ZM82 160.25C82 48.75 161 -10 272.5 -10C406.25 -10 531 69 564.5 225L664.5 695.75L577.25 687.75C572.75 610.5 565.75 585 489.25 226.75C465.25 113 383.75 54.75 292.25 54.75C214.75 54.75 161 96.75 161 178.75C161 212 166.75 229 265.75 690.5L261.75 696.25L177 687.75C165 524.25 82 251 82 160.25ZM424.75 688.75ZM380.5 10ZM735.75 686.25ZM278.75 0Z" glyph-name="Utilde" horiz-adv-x="653.25" unicode="&#360;" /><glyph d="M213 -3.75H283L673 681.5L668.5 690L607.25 696.25L386 299.75C345.5 228.5 298.5 145 269.5 79.75C270.5 144.5 262.5 213.25 251.75 293L196.25 696.25L113.5 688.5Z" glyph-name="V" horiz-adv-x="601" unicode="V" /><glyph d="M178.75 -3.75H248.75L470 420.25C497.5 473.75 521.75 520.75 551.5 588.5H553C554.75 527.75 558.25 473.5 562.5 421L605.25 -3.75H675.25L1030.25 681.5L1025.75 690L966 696.25L765.75 302.25C728 228.75 688.5 153 662.25 83.25C664.5 144.75 659.5 212.5 652 289.25L616.25 696.25L542 690.75L343.5 303.5C307 231.25 262 144.25 238.5 83.25C241 144.75 237.25 212.25 229.75 289.25L194.75 696.25L113.5 687.75ZM572.5 688.75ZM426.25 0Z" glyph-name="W" horiz-adv-x="958.25" unicode="W" /><glyph d="M702.25 842 661.75 880.5C612.25 839 553.25 801 496 769L504.25 747.5C570.5 765.5 635.25 791.75 700.25 829.5ZM572.5 688.75ZM613.5 880.5ZM178.75 -3.75H248.75L470 420.25C497.5 473.75 521.75 520.75 551.5 588.5H553C554.75 527.75 558.25 473.5 562.5 421L605.25 -3.75H675.25L1030.25 681.5L1025.75 690L966 696.25L765.75 302.25C728 228.75 688.5 153 662.25 83.25C664.5 144.75 659.5 212.5 652 289.25L616.25 696.25L542 690.75L343.5 303.5C307 231.25 262 144.25 238.5 83.25C241 144.75 237.25 212.25 229.75 289.25L194.75 696.25L113.5 687.75ZM572.5 688.75ZM426.25 0Z" glyph-name="Wacute" horiz-adv-x="958.25" unicode="&#7810;" /><glyph d="M178.75 -3.75H248.75L470 420.25C497.5 473.75 521.75 520.75 551.5 588.5H553C554.75 527.75 558.25 473.5 562.5 421L605.25 -3.75H675.25L1030.25 681.5L1025.75 690L966 696.25L765.75 302.25C728 228.75 688.5 153 662.25 83.25C664.5 144.75 659.5 212.5 652 289.25L616.25 696.25L542 690.75L343.5 303.5C307 231.25 262 144.25 238.5 83.25C241 144.75 237.25 212.25 229.75 289.25L194.75 696.25L113.5 687.75ZM572.5 688.75ZM426.25 0ZM485.25 749.75C536.75 776 585.25 806.25 632.5 841H596.25C627.75 805.75 665.25 774.75 705.75 749.75L732.5 765.5C701.75 804.5 677.75 841.25 655.5 877.5L585.5 870.5C536.5 826.25 514 806 465 765.5ZM572.5 688.75ZM612.25 877.5Z" glyph-name="Wcircumflex" horiz-adv-x="958.25" unicode="&#372;" /><glyph d="M178.75 -3.75H248.75L470 420.25C497.5 473.75 521.75 520.75 551.5 588.5H553C554.75 527.75 558.25 473.5 562.5 421L605.25 -3.75H675.25L1030.25 681.5L1025.75 690L966 696.25L765.75 302.25C728 228.75 688.5 153 662.25 83.25C664.5 144.75 659.5 212.5 652 289.25L616.25 696.25L542 690.75L343.5 303.5C307 231.25 262 144.25 238.5 83.25C241 144.75 237.25 212.25 229.75 289.25L194.75 696.25L113.5 687.75ZM572.5 688.75ZM426.25 0ZM542.5 830C542.5 851.5 527.75 867.5 504 867.5C469 867.5 433.75 833 433.75 798.5C433.75 775.75 450.75 759.75 474 759.75C508.25 759.75 542.5 794.25 542.5 830ZM763.75 830C763.75 851.5 749 867.5 725.25 867.5C690.25 867.5 655 833 655 798.5C655 775.75 672 759.75 695.25 759.75C729.5 759.75 763.75 794.25 763.75 830ZM572.5 688.75ZM610 867.5Z" glyph-name="Wdieresis" horiz-adv-x="958.25" unicode="&#7812;" /><glyph d="M671 747.5 688.75 769C645.25 800.75 604.75 835.5 569.75 880.5L513.25 842L509.5 829.5C558.5 791.5 612.75 766.5 671 747.5ZM572.5 688.75ZM613.5 880.5ZM178.75 -3.75H248.75L470 420.25C497.5 473.75 521.75 520.75 551.5 588.5H553C554.75 527.75 558.25 473.5 562.5 421L605.25 -3.75H675.25L1030.25 681.5L1025.75 690L966 696.25L765.75 302.25C728 228.75 688.5 153 662.25 83.25C664.5 144.75 659.5 212.5 652 289.25L616.25 696.25L542 690.75L343.5 303.5C307 231.25 262 144.25 238.5 83.25C241 144.75 237.25 212.25 229.75 289.25L194.75 696.25L113.5 687.75ZM572.5 688.75ZM426.25 0Z" glyph-name="Wgrave" horiz-adv-x="958.25" unicode="&#7808;" /><glyph d="M-25.75 0H44.5L281.5 294H282.75L394.75 0H481.5L349 344.25L626.5 680.75L624.75 689.5L558 696.25L318 392.5H316.5L200 696.25L116.5 685L250.25 342.25L-27.5 8.75Z" glyph-name="X" horiz-adv-x="558.25" unicode="X" /><glyph d="M231 246 178.25 0H256L308 243L612.25 681.5L607.75 690L546.5 696.25L383.75 452C355.25 408 312.75 347.25 287.75 300.25H286.25C282.75 347.25 266.5 405.75 257 450.75L196.25 696.25L113.5 688.5ZM102.5 686.25ZM369 688.75ZM217.25 0Z" glyph-name="Y" horiz-adv-x="540.25" unicode="Y" /><glyph d="M231 246 178.25 0H256L308 243L612.25 681.5L607.75 690L546.5 696.25L383.75 452C355.25 408 312.75 347.25 287.75 300.25H286.25C282.75 347.25 266.5 405.75 257 450.75L196.25 696.25L113.5 688.5ZM102.5 686.25ZM369 688.75ZM217.25 0ZM498.75 842 458.25 880.5C408.75 839 349.75 801 292.5 769L300.75 747.5C367 765.5 431.75 791.75 496.75 829.5ZM369 688.75ZM410 880.5Z" glyph-name="Yacute" horiz-adv-x="540.25" unicode="&#221;" /><glyph d="M231 246 178.25 0H256L308 243L612.25 681.5L607.75 690L546.5 696.25L383.75 452C355.25 408 312.75 347.25 287.75 300.25H286.25C282.75 347.25 266.5 405.75 257 450.75L196.25 696.25L113.5 688.5ZM102.5 686.25ZM369 688.75ZM217.25 0ZM281.75 749.75C333.25 776 381.75 806.25 429 841H392.75C424.25 805.75 461.75 774.75 502.25 749.75L529 765.5C498.25 804.5 474.25 841.25 452 877.5L382 870.5C333 826.25 310.5 806 261.5 765.5ZM369 688.75ZM408.75 877.5Z" glyph-name="Ycircumflex" horiz-adv-x="540.25" unicode="&#374;" /><glyph d="M231 246 178.25 0H256L308 243L612.25 681.5L607.75 690L546.5 696.25L383.75 452C355.25 408 312.75 347.25 287.75 300.25H286.25C282.75 347.25 266.5 405.75 257 450.75L196.25 696.25L113.5 688.5ZM102.5 686.25ZM369 688.75ZM217.25 0ZM339 830C339 851.5 324.25 867.5 300.5 867.5C265.5 867.5 230.25 833 230.25 798.5C230.25 775.75 247.25 759.75 270.5 759.75C304.75 759.75 339 794.25 339 830ZM560.25 830C560.25 851.5 545.5 867.5 521.75 867.5C486.75 867.5 451.5 833 451.5 798.5C451.5 775.75 468.5 759.75 491.75 759.75C526 759.75 560.25 794.25 560.25 830ZM369 688.75ZM406.5 867.5Z" glyph-name="Ydieresis" horiz-adv-x="540.25" unicode="&#376;" /><glyph d="M231 246 178.25 0H256L308 243L612.25 681.5L607.75 690L546.5 696.25L383.75 452C355.25 408 312.75 347.25 287.75 300.25H286.25C282.75 347.25 266.5 405.75 257 450.75L196.25 696.25L113.5 688.5ZM102.5 686.25ZM369 688.75ZM217.25 0ZM467.5 747.5 485.25 769C441.75 800.75 401.25 835.5 366.25 880.5L309.75 842L306 829.5C355 791.5 409.25 766.5 467.5 747.5ZM369 688.75ZM410 880.5Z" glyph-name="Ygrave" horiz-adv-x="540.25" unicode="&#7922;" /><glyph d="M231 246 178.25 0H256L308 243L612.25 681.5L607.75 690L546.5 696.25L383.75 452C355.25 408 312.75 347.25 287.75 300.25H286.25C282.75 347.25 266.5 405.75 257 450.75L196.25 696.25L113.5 688.5ZM102.5 686.25ZM369 688.75ZM217.25 0ZM260 787.25H520.25L531.25 839.5H271ZM369 688.75ZM401.5 839.5Z" glyph-name="Ymacron" horiz-adv-x="540.25" unicode="&#562;" /><glyph d="M231 246 178.25 0H256L308 243L612.25 681.5L607.75 690L546.5 696.25L383.75 452C355.25 408 312.75 347.25 287.75 300.25H286.25C282.75 347.25 266.5 405.75 257 450.75L196.25 696.25L113.5 688.5ZM102.5 686.25ZM369 688.75ZM217.25 0ZM346.5 871C289.75 871 248.25 811.5 233.5 761L254 757C274 788.5 300.25 812.5 327.25 812.5C369.75 812.5 392 756 445.75 756C500 756 543.75 815.75 557 866L536.5 870C517 839.75 490.75 814.5 462.5 814.5C418.75 814.5 401 871 346.5 871ZM369 688.75ZM407.75 871.75Z" glyph-name="Ytilde" horiz-adv-x="540.25" unicode="&#7928;" /><glyph d="M-15.25 0H431.25L450.5 69.25L44.5 63.75L59.25 40.75L567.75 637.5L559.25 686.25H134.75L115.5 617.75L498.25 622.5L496.75 650.5L-17.25 48.75ZM351.25 688.75ZM205 0Z" glyph-name="Z" horiz-adv-x="515" unicode="Z" /><glyph d="M-15.25 0H431.25L450.5 69.25L44.5 63.75L59.25 40.75L567.75 637.5L559.25 686.25H134.75L115.5 617.75L498.25 622.5L496.75 650.5L-17.25 48.75ZM351.25 688.75ZM205 0ZM481 842 440.5 880.5C391 839 332 801 274.75 769L283 747.5C349.25 765.5 414 791.75 479 829.5ZM351.25 688.75ZM392.25 880.5Z" glyph-name="Zacute" horiz-adv-x="515" unicode="&#377;" /><glyph d="M-15.25 0H431.25L450.5 69.25L44.5 63.75L59.25 40.75L567.75 637.5L559.25 686.25H134.75L115.5 617.75L498.25 622.5L496.75 650.5L-17.25 48.75ZM351.25 688.75ZM205 0ZM491 877.5C439.5 851.25 391 821 343.75 786.25H380C348.5 821.5 310.25 851.75 270.5 877.5L243.75 861.75C274.5 822.75 298.5 786 320.75 749.75L390.75 756.75C439.75 801 462.25 821.25 511.25 861.75ZM351.25 688.75ZM391 877.5Z" glyph-name="Zcaron" horiz-adv-x="515" unicode="&#381;" /><glyph d="M-15.25 0H431.25L450.5 69.25L44.5 63.75L59.25 40.75L567.75 637.5L559.25 686.25H134.75L115.5 617.75L498.25 622.5L496.75 650.5L-17.25 48.75ZM351.25 688.75ZM205 0ZM433.5 832C433.5 854 418.75 867 393.75 867C356.75 867 322.5 833.25 322.5 797.75C322.5 776.25 337 760.5 363.25 760.5C400.75 760.5 433.5 795.25 433.5 832ZM351.25 688.75ZM389.75 867Z" glyph-name="Zdotaccent" horiz-adv-x="515" unicode="&#379;" /><glyph d="M-15.25 0H431.25L450.5 69.25L44.5 63.75L59.25 40.75L567.75 637.5L559.25 686.25H134.75L115.5 617.75L498.25 622.5L496.75 650.5L-17.25 48.75ZM351.25 688.75ZM205 0ZM234.25 -169.75C234.25 -146 220.75 -131.25 197 -131.25C161 -131.25 124.5 -170.25 124.5 -208.5C124.5 -231.75 138.75 -248.75 163.5 -248.75C203.75 -248.75 234.25 -206.5 234.25 -169.75ZM147.25 -356.75ZM203.5 -94.5ZM205 0ZM170 -162.75Z" glyph-name="Zdotbelow" horiz-adv-x="515" unicode="&#7826;" /><glyph d="M45.25 135.5C45.25 36 86.25 -10 142.75 -10C266.75 -10 370.75 237.5 387.5 306.5L391.75 389.25C366 285 262 54.5 177 54.5C142.5 54.5 123.75 91 123.75 151.5C123.75 291 224 454.25 336.5 454.25C360 454.25 397.75 446 428 430.75L489.5 484C447.25 500 395.25 506.25 362 506.25C173.75 506.25 45.25 312 45.25 135.5ZM401.5 0C401.5 97.75 419.25 184.5 448.25 309.75L489.5 484L416.25 495.5C342 179.75 326.5 108 326.5 0ZM325.5 496.25ZM439.5 10ZM235.5 0Z" glyph-name="a" horiz-adv-x="524.5" unicode="a" /><glyph d="M12.75 41.5C12.75 -39.25 49 -77.5 96.25 -77.5C197.5 -77.5 282 107.25 294.5 164L298 233.75C276.75 147.5 193.5 -24.25 124.25 -24.25C96 -24.25 79.75 4.5 79.75 52.75C79.75 160.5 160 282.75 253.75 282.75C278.5 282.75 303 276 327.75 263.25L379.5 307.25C344.25 320.5 300.25 325.5 272.25 325.5C117.25 325.5 12.75 178.5 12.75 41.5ZM311.5 -71.5C310.75 1 324.25 67.25 347.75 170.25L379.5 307.25L317.25 317.5C258.75 68.5 247 12 247.75 -71.5ZM239.25 318ZM343.25 -63.5ZM177.5 -71.5Z" glyph-name="a.inferior" horiz-adv-x="435.75" /><glyph d="M436 203H167L155.5 147.5H424.5ZM91.75 0 271 305C307.25 369.5 340.25 429.25 360.25 472.5H362.25C363.75 428.25 371.75 368 380 304.75L429.5 0H505.75L420.75 537.25L411.75 547L334 542.5C320.5 516.25 304.25 488.75 288.75 461.5L20 0ZM376 527.5ZM493.25 13.75ZM265.75 11.25Z" glyph-name="a.sc" horiz-adv-x="525.75" /><glyph d="M88.75 401.5C88.75 320.75 125 282.5 172.25 282.5C273.5 282.5 358 467.25 370.5 524L374 593.75C352.75 507.5 269.5 335.75 200.25 335.75C172 335.75 155.75 364.5 155.75 412.75C155.75 520.5 236 642.75 329.75 642.75C354.5 642.75 379 636 403.75 623.25L455.5 667.25C420.25 680.5 376.25 685.5 348.25 685.5C193.25 685.5 88.75 538.5 88.75 401.5ZM387.5 288.5C386.75 361 400.25 427.25 423.75 530.25L455.5 667.25L393.25 677.5C334.75 428.5 323 372 323.75 288.5ZM315.25 678ZM419.25 296.5ZM253.5 288.5Z" glyph-name="a.superior" horiz-adv-x="435.75" /><glyph d="M45.25 135.5C45.25 36 86.25 -10 142.75 -10C266.75 -10 370.75 237.5 387.5 306.5L391.75 389.25C366 285 262 54.5 177 54.5C142.5 54.5 123.75 91 123.75 151.5C123.75 291 224 454.25 336.5 454.25C360 454.25 397.75 446 428 430.75L489.5 484C447.25 500 395.25 506.25 362 506.25C173.75 506.25 45.25 312 45.25 135.5ZM401.5 0C401.5 97.75 419.25 184.5 448.25 309.75L489.5 484L416.25 495.5C342 179.75 326.5 108 326.5 0ZM325.5 496.25ZM439.5 10ZM235.5 0ZM446.75 749 375 752.5C348.75 699.25 312.5 645 273.25 593.5L298.5 585C355.5 628.5 406 678.5 450.75 737.75ZM325.5 496.25ZM379.5 752.5Z" glyph-name="aacute" horiz-adv-x="524.5" unicode="&#225;" /><glyph d="M497.25 780.25 425.5 783.75C399.25 730.5 363 676.25 323.75 624.75L349 616.25C406 659.75 456.5 709.75 501.25 769ZM376 527.5ZM430 783.75ZM436 203H167L155.5 147.5H424.5ZM91.75 0 271 305C307.25 369.5 340.25 429.25 360.25 472.5H362.25C363.75 428.25 371.75 368 380 304.75L429.5 0H505.75L420.75 537.25L411.75 547L334 542.5C320.5 516.25 304.25 488.75 288.75 461.5L20 0ZM376 527.5ZM493.25 13.75ZM265.75 11.25Z" glyph-name="aacute.sc" horiz-adv-x="525.75" /><glyph d="M45.25 135.5C45.25 36 86.25 -10 142.75 -10C266.75 -10 370.75 237.5 387.5 306.5L391.75 389.25C366 285 262 54.5 177 54.5C142.5 54.5 123.75 91 123.75 151.5C123.75 291 224 454.25 336.5 454.25C360 454.25 397.75 446 428 430.75L489.5 484C447.25 500 395.25 506.25 362 506.25C173.75 506.25 45.25 312 45.25 135.5ZM401.5 0C401.5 97.75 419.25 184.5 448.25 309.75L489.5 484L416.25 495.5C342 179.75 326.5 108 326.5 0ZM325.5 496.25ZM439.5 10ZM235.5 0ZM345 594C414.25 594 473.75 650.25 496 735.5L461.75 730.25C440.75 679.5 405.25 650.75 361.25 650.75C320 650.75 294.75 675.5 295.5 729L260.25 723.5C246 640.75 285.75 594 345 594ZM325.5 496.25ZM376.5 735.5Z" glyph-name="abreve" horiz-adv-x="524.5" unicode="&#259;" /><glyph d="M436 203H167L155.5 147.5H424.5ZM91.75 0 271 305C307.25 369.5 340.25 429.25 360.25 472.5H362.25C363.75 428.25 371.75 368 380 304.75L429.5 0H505.75L420.75 537.25L411.75 547L334 542.5C320.5 516.25 304.25 488.75 288.75 461.5L20 0ZM376 527.5ZM493.25 13.75ZM265.75 11.25ZM395.5 625.25C464.75 625.25 524.25 681.5 546.5 766.75L512.25 761.5C491.25 710.75 455.75 682 411.75 682C370.5 682 345.25 706.75 346 760.25L310.75 754.75C296.5 672 336.25 625.25 395.5 625.25ZM376 527.5ZM427 766.75Z" glyph-name="abreve.sc" horiz-adv-x="525.75" /><glyph d="M45.25 135.5C45.25 36 86.25 -10 142.75 -10C266.75 -10 370.75 237.5 387.5 306.5L391.75 389.25C366 285 262 54.5 177 54.5C142.5 54.5 123.75 91 123.75 151.5C123.75 291 224 454.25 336.5 454.25C360 454.25 397.75 446 428 430.75L489.5 484C447.25 500 395.25 506.25 362 506.25C173.75 506.25 45.25 312 45.25 135.5ZM401.5 0C401.5 97.75 419.25 184.5 448.25 309.75L489.5 484L416.25 495.5C342 179.75 326.5 108 326.5 0ZM325.5 496.25ZM439.5 10ZM235.5 0ZM475.5 756C421.75 721.5 373.75 683 325.5 633.25H364.75C338.75 682.5 307.5 720.25 267 756L240.75 742.5C268.5 691.5 287 644.5 302.5 592.25L373.25 599.25C411 649.5 446.25 691.25 496.25 742.5ZM325.5 496.25ZM380.25 756Z" glyph-name="acaron" horiz-adv-x="524.5" unicode="&#462;" /><glyph d="M405 756C351.25 721.5 303.25 683 255 633.25H294.25C268.25 682.5 237 720.25 196.5 756L170.25 742.5C198 691.5 216.5 644.5 232 592.25L302.75 599.25C340.5 649.5 375.75 691.25 425.75 742.5ZM436 203H167L155.5 147.5H424.5ZM91.75 0 271 305C307.25 369.5 340.25 429.25 360.25 472.5H362.25C363.75 428.25 371.75 368 380 304.75L429.5 0H505.75L420.75 537.25L411.75 547L334 542.5C320.5 516.25 304.25 488.75 288.75 461.5L20 0ZM376 527.5ZM493.25 13.75ZM265.75 11.25Z" glyph-name="acaron.sc" horiz-adv-x="600" /><glyph d="M45.25 135.5C45.25 36 86.25 -10 142.75 -10C266.75 -10 370.75 237.5 387.5 306.5L391.75 389.25C366 285 262 54.5 177 54.5C142.5 54.5 123.75 91 123.75 151.5C123.75 291 224 454.25 336.5 454.25C360 454.25 397.75 446 428 430.75L489.5 484C447.25 500 395.25 506.25 362 506.25C173.75 506.25 45.25 312 45.25 135.5ZM401.5 0C401.5 97.75 419.25 184.5 448.25 309.75L489.5 484L416.25 495.5C342 179.75 326.5 108 326.5 0ZM325.5 496.25ZM439.5 10ZM235.5 0ZM256.25 592.25C310 626.75 358.25 665 406.25 715H367C393 665.75 424.25 628 464.75 592.25L491 605.75C463.25 656.75 444.75 703.75 429.25 756L358.5 749C320.75 698.75 285.5 657 235.5 605.75ZM325.5 496.25ZM380.25 756Z" glyph-name="acircumflex" horiz-adv-x="524.5" unicode="&#226;" /><glyph d="M436 203H167L155.5 147.5H424.5ZM91.75 0 271 305C307.25 369.5 340.25 429.25 360.25 472.5H362.25C363.75 428.25 371.75 368 380 304.75L429.5 0H505.75L420.75 537.25L411.75 547L334 542.5C320.5 516.25 304.25 488.75 288.75 461.5L20 0ZM376 527.5ZM493.25 13.75ZM265.75 11.25ZM306.75 623.5C360.5 658 408.75 696.25 456.75 746.25H417.5C443.5 697 474.75 659.25 515.25 623.5L541.5 637C513.75 688 495.25 735 479.75 787.25L409 780.25C371.25 730 336 688.25 286 637ZM376 527.5ZM430.75 787.25Z" glyph-name="acircumflex.sc" horiz-adv-x="525.75" /><glyph d="M272.75 749 201 752.5C174.75 699.25 138.5 645 99.25 593.5L124.5 585C181.5 628.5 232 678.5 276.75 737.75ZM151.5 496.25ZM205.5 752.5Z" glyph-name="acute" horiz-adv-x="327.75" unicode="&#180;" /><glyph d="M381.5 839.5 341 878C291.5 836.5 232.5 798.5 175.25 766.5L183.5 745C249.75 763 314.5 789.25 379.5 827ZM251.75 686.25ZM292.75 878Z" glyph-name="acute.case" horiz-adv-x="322" /><glyph d="M311.75 749 240 752.5C213.75 699.25 177.5 645 138.25 593.5L163.5 585C220.5 628.5 271 678.5 315.75 737.75ZM190.5 496.25ZM244.5 752.5Z" glyph-name="acutecomb" horiz-adv-x="276.5" unicode="&#769;" /><glyph d="M381.5 839.5 341 878C291.5 836.5 232.5 798.5 175.25 766.5L183.5 745C249.75 763 314.5 789.25 379.5 827ZM251.75 686.25ZM292.75 878Z" glyph-name="acutecomb.case" horiz-adv-x="322" /><glyph d="M45.25 135.5C45.25 36 86.25 -10 142.75 -10C266.75 -10 370.75 237.5 387.5 306.5L391.75 389.25C366 285 262 54.5 177 54.5C142.5 54.5 123.75 91 123.75 151.5C123.75 291 224 454.25 336.5 454.25C360 454.25 397.75 446 428 430.75L489.5 484C447.25 500 395.25 506.25 362 506.25C173.75 506.25 45.25 312 45.25 135.5ZM401.5 0C401.5 97.75 419.25 184.5 448.25 309.75L489.5 484L416.25 495.5C342 179.75 326.5 108 326.5 0ZM325.5 496.25ZM439.5 10ZM235.5 0ZM313.25 670.75C316.25 696.75 302.25 715.5 276.25 715.5C244 715.5 210.5 686.75 206.75 653C203 626.75 219.75 607.75 245.5 607.75C276.5 607.75 309.5 635.75 313.25 670.75ZM515 670.75C518 696.75 504 715.5 478 715.5C445.75 715.5 412.25 686.75 408.5 653C404.75 626.75 421.5 607.75 447.25 607.75C478.25 607.75 511.25 635.75 515 670.75ZM325.5 496.25ZM372.5 715.5Z" glyph-name="adieresis" horiz-adv-x="524.5" unicode="&#228;" /><glyph d="M436 203H167L155.5 147.5H424.5ZM91.75 0 271 305C307.25 369.5 340.25 429.25 360.25 472.5H362.25C363.75 428.25 371.75 368 380 304.75L429.5 0H505.75L420.75 537.25L411.75 547L334 542.5C320.5 516.25 304.25 488.75 288.75 461.5L20 0ZM376 527.5ZM493.25 13.75ZM265.75 11.25ZM363.75 702C366.75 728 352.75 746.75 326.75 746.75C294.5 746.75 261 718 257.25 684.25C253.5 658 270.25 639 296 639C327 639 360 667 363.75 702ZM565.5 702C568.5 728 554.5 746.75 528.5 746.75C496.25 746.75 462.75 718 459 684.25C455.25 658 472 639 497.75 639C528.75 639 561.75 667 565.5 702ZM376 527.5ZM423 746.75Z" glyph-name="adieresis.sc" horiz-adv-x="525.75" /><glyph d="M45.25 135.5C45.25 36 86.25 -10 142.75 -10C266.75 -10 370.75 237.5 387.5 306.5L391.75 389.25C366 285 262 54.5 177 54.5C142.5 54.5 123.75 91 123.75 151.5C123.75 291 224 454.25 336.5 454.25C360 454.25 397.75 446 428 430.75L489.5 484C447.25 500 395.25 506.25 362 506.25C173.75 506.25 45.25 312 45.25 135.5ZM401.5 0C401.5 97.75 419.25 184.5 448.25 309.75L489.5 484L416.25 495.5C342 179.75 326.5 108 326.5 0ZM325.5 496.25ZM439.5 10ZM235.5 0ZM264.75 -169.75C264.75 -146 251.25 -131.25 227.5 -131.25C191.5 -131.25 155 -170.25 155 -208.5C155 -231.75 169.25 -248.75 194 -248.75C234.25 -248.75 264.75 -206.5 264.75 -169.75ZM177.75 -356.75ZM234 -94.5ZM235.5 0ZM200.5 -162.75Z" glyph-name="adotbelow" horiz-adv-x="524.5" unicode="&#7841;" /><glyph d="M436 203H167L155.5 147.5H424.5ZM91.75 0 271 305C307.25 369.5 340.25 429.25 360.25 472.5H362.25C363.75 428.25 371.75 368 380 304.75L429.5 0H505.75L420.75 537.25L411.75 547L334 542.5C320.5 516.25 304.25 488.75 288.75 461.5L20 0ZM376 527.5ZM493.25 13.75ZM265.75 11.25ZM295 -158.5C295 -134.75 281.5 -120 257.75 -120C221.75 -120 185.25 -159 185.25 -197.25C185.25 -220.5 199.5 -237.5 224.25 -237.5C264.5 -237.5 295 -195.25 295 -158.5ZM208 -345.5ZM264.25 -83.25ZM265.75 11.25ZM230.75 -151.5Z" glyph-name="adotbelow.sc" horiz-adv-x="525.75" /><glyph d="M45.75 139C45.75 38 87.25 -10 143.75 -10C267.25 -10 372 239.5 388 306.5L365.75 306.75C321.75 195.25 243.5 54.5 176.75 54.5C143 54.5 124.25 89.5 124.25 151.5C124.25 291 217.75 454.25 350.5 454.25C392.75 454.25 435 437.75 460 419.5L526.75 471.25C480 493.25 424.25 506.25 371.75 506.25C170.5 506.25 45.75 315.25 45.75 139ZM666.75 125C625.75 81 574.25 45.75 520.75 45.75C454 45.75 417.5 99.5 417.5 177.5C417.5 290 494.75 455.5 592.25 455.5C629.25 455.5 653.25 432.5 653.25 394.75C653.25 337 601.75 261.5 409.25 249.75L405.75 216.5C642.25 226.25 726.25 308.75 726.25 397C726.25 464.75 677.5 506.25 605.25 506.25C459.25 506.25 339 331.5 339 171.75C339 53.25 405 -10 495.75 -10C565.75 -10 639.5 28.75 685 97ZM437.75 496.25ZM440 10ZM241 0Z" glyph-name="ae" horiz-adv-x="751.5" unicode="&#230;" /><glyph d="M408.25 203H176.75L165.25 147.5H396.75ZM91.75 0C329.5 359 357.5 405 394.25 472.5H401.5C392.25 410 386.75 353.5 353.75 0H430L470.5 531.25L461.25 539.25H366C349 507.75 339 490.75 320.5 461.25L20 0ZM703.25 539.25H442.25L430.5 484.5L697.25 479.25L710.25 530.75ZM643.5 295.5 434.25 293 424 242.5 630 239.5ZM656.5 60 406.5 54.75 394.75 0H643.75ZM464.5 527.5ZM339.5 0Z" glyph-name="ae.sc" horiz-adv-x="681.75" /><glyph d="M559 749 487.25 752.5C461 699.25 424.75 645 385.5 593.5L410.75 585C467.75 628.5 518.25 678.5 563 737.75ZM437.75 496.25ZM491.75 752.5ZM45.75 139C45.75 38 87.25 -10 143.75 -10C267.25 -10 372 239.5 388 306.5L365.75 306.75C321.75 195.25 243.5 54.5 176.75 54.5C143 54.5 124.25 89.5 124.25 151.5C124.25 291 217.75 454.25 350.5 454.25C392.75 454.25 435 437.75 460 419.5L526.75 471.25C480 493.25 424.25 506.25 371.75 506.25C170.5 506.25 45.75 315.25 45.75 139ZM666.75 125C625.75 81 574.25 45.75 520.75 45.75C454 45.75 417.5 99.5 417.5 177.5C417.5 290 494.75 455.5 592.25 455.5C629.25 455.5 653.25 432.5 653.25 394.75C653.25 337 601.75 261.5 409.25 249.75L405.75 216.5C642.25 226.25 726.25 308.75 726.25 397C726.25 464.75 677.5 506.25 605.25 506.25C459.25 506.25 339 331.5 339 171.75C339 53.25 405 -10 495.75 -10C565.75 -10 639.5 28.75 685 97ZM437.75 496.25ZM440 10ZM241 0Z" glyph-name="aeacute" horiz-adv-x="751.5" unicode="&#509;" /><glyph d="M585.75 780.25 514 783.75C487.75 730.5 451.5 676.25 412.25 624.75L437.5 616.25C494.5 659.75 545 709.75 589.75 769ZM464.5 527.5ZM518.5 783.75ZM408.25 203H176.75L165.25 147.5H396.75ZM91.75 0C329.5 359 357.5 405 394.25 472.5H401.5C392.25 410 386.75 353.5 353.75 0H430L470.5 531.25L461.25 539.25H366C349 507.75 339 490.75 320.5 461.25L20 0ZM703.25 539.25H442.25L430.5 484.5L697.25 479.25L710.25 530.75ZM643.5 295.5 434.25 293 424 242.5 630 239.5ZM656.5 60 406.5 54.75 394.75 0H643.75ZM464.5 527.5ZM339.5 0Z" glyph-name="aeacute.sc" horiz-adv-x="681.75" /><glyph d="M45.25 135.5C45.25 36 86.25 -10 142.75 -10C266.75 -10 370.75 237.5 387.5 306.5L391.75 389.25C366 285 262 54.5 177 54.5C142.5 54.5 123.75 91 123.75 151.5C123.75 291 224 454.25 336.5 454.25C360 454.25 397.75 446 428 430.75L489.5 484C447.25 500 395.25 506.25 362 506.25C173.75 506.25 45.25 312 45.25 135.5ZM401.5 0C401.5 97.75 419.25 184.5 448.25 309.75L489.5 484L416.25 495.5C342 179.75 326.5 108 326.5 0ZM325.5 496.25ZM439.5 10ZM235.5 0ZM393.75 585 421 593.5C400.25 645 384 699.25 376.25 752.5L304 749L297 737.75C320.25 678.5 352.75 628.5 393.75 585ZM325.5 496.25ZM325.5 752.5Z" glyph-name="agrave" horiz-adv-x="524.5" unicode="&#224;" /><glyph d="M444.25 616.25 471.5 624.75C450.75 676.25 434.5 730.5 426.75 783.75L354.5 780.25L347.5 769C370.75 709.75 403.25 659.75 444.25 616.25ZM376 527.5ZM376 783.75ZM436 203H167L155.5 147.5H424.5ZM91.75 0 271 305C307.25 369.5 340.25 429.25 360.25 472.5H362.25C363.75 428.25 371.75 368 380 304.75L429.5 0H505.75L420.75 537.25L411.75 547L334 542.5C320.5 516.25 304.25 488.75 288.75 461.5L20 0ZM376 527.5ZM493.25 13.75ZM265.75 11.25Z" glyph-name="agrave.sc" horiz-adv-x="525.75" /><glyph d="M45.25 135.5C45.25 36 86.25 -10 142.75 -10C266.75 -10 370.75 237.5 387.5 306.5L391.75 389.25C366 285 262 54.5 177 54.5C142.5 54.5 123.75 91 123.75 151.5C123.75 291 224 454.25 336.5 454.25C360 454.25 397.75 446 428 430.75L489.5 484C447.25 500 395.25 506.25 362 506.25C173.75 506.25 45.25 312 45.25 135.5ZM401.5 0C401.5 97.75 419.25 184.5 448.25 309.75L489.5 484L416.25 495.5C342 179.75 326.5 108 326.5 0ZM325.5 496.25ZM439.5 10ZM235.5 0ZM243.5 638.5H467.25L479.25 694.5H255.5ZM325.5 496.25ZM367.75 694.5Z" glyph-name="amacron" horiz-adv-x="524.5" unicode="&#257;" /><glyph d="M436 203H167L155.5 147.5H424.5ZM91.75 0 271 305C307.25 369.5 340.25 429.25 360.25 472.5H362.25C363.75 428.25 371.75 368 380 304.75L429.5 0H505.75L420.75 537.25L411.75 547L334 542.5C320.5 516.25 304.25 488.75 288.75 461.5L20 0ZM376 527.5ZM493.25 13.75ZM265.75 11.25ZM294 669.75H517.75L529.75 725.75H306ZM376 527.5ZM418.25 725.75Z" glyph-name="amacron.sc" horiz-adv-x="525.75" /><glyph d="M698.25 73.5C698.25 238.5 299.5 258.5 299.5 496.25C299.5 588 358.25 641.5 425.75 641.5C479 641.5 496.75 608 496.75 572.5C496.75 539.75 479.5 506 456.5 475.75L460.25 462.25C538 451.75 688.5 439.75 770.5 436.25C775.25 452.5 780.5 483.25 780.5 501.25L774.25 506.25C693.25 500 534 493 484.5 493L481.5 487.5C530.25 505.5 567.25 552.25 567.25 601.5C567.25 657.25 520.25 696.25 437.75 696.25C323.5 696.25 221.25 620.25 221.25 487.5C221.25 221.25 634.5 175.75 634.5 44.75C634.5 27.75 627.25 6.75 619.75 -3L626.75 -10C673.75 1.25 698.25 32.25 698.25 73.5ZM631 462H586.75C580.5 255 463.5 47 293.5 47C210.5 47 151.5 96.5 151.5 176C151.5 241.75 192.25 323 290.75 366.25L282.25 400.5C158 360.5 73 260.75 73 159C73 65.5 140.75 -10 261.25 -10C484.5 -10 626 251 631 462Z" glyph-name="ampersand" horiz-adv-x="758.5" unicode="&amp;" /><glyph d="M698.25 73.5C698.25 238.5 299.5 258.5 299.5 496.25C299.5 588 358.25 641.5 425.75 641.5C479 641.5 496.75 608 496.75 572.5C496.75 539.75 479.5 506 456.5 475.75L460.25 462.25C538 451.75 688.5 439.75 770.5 436.25C775.25 452.5 780.5 483.25 780.5 501.25L774.25 506.25C693.25 500 534 493 484.5 493L481.5 487.5C530.25 505.5 567.25 552.25 567.25 601.5C567.25 657.25 520.25 696.25 437.75 696.25C323.5 696.25 221.25 620.25 221.25 487.5C221.25 221.25 634.5 175.75 634.5 44.75C634.5 27.75 627.25 6.75 619.75 -3L626.75 -10C673.75 1.25 698.25 32.25 698.25 73.5ZM631 462H586.75C580.5 255 463.5 47 293.5 47C210.5 47 151.5 96.5 151.5 176C151.5 241.75 192.25 323 290.75 366.25L282.25 400.5C158 360.5 73 260.75 73 159C73 65.5 140.75 -10 261.25 -10C484.5 -10 626 251 631 462Z" glyph-name="ampersand.caps" horiz-adv-x="758.5" /><glyph d="M601.25 60.25C601.25 194 254.5 207.75 254.5 391.5C254.5 457.5 302.75 495.5 358.25 495.5C402.75 495.5 418.75 469.5 418.75 442C418.75 416 403.75 390.25 386.75 368.5L390 357.5C466.5 347.5 580.5 338.75 657.5 334.75C661.75 349.25 665 377.5 665 391L659.75 395C589.25 390 453 385 410.5 385L408.25 380.25C447.75 392 481 426.5 481 467.5C481 512.75 439 543 367.25 543C270 543 184 485.75 184 384.5C184 172.5 545.25 135.75 545.25 31.75C545.25 18.25 539.5 5 533.5 -2L539.75 -8C580.75 1.75 601.25 27.5 601.25 60.25ZM536.5 357.25H497.5C495.25 198.5 398.5 42.5 254.75 42.5C182.75 42.5 132.75 81.5 132.75 142.5C132.75 190.25 165.5 251 246.25 283.75L237.75 313.5C136 283.5 62.25 207.25 62.25 126.5C62.25 51 124 -8 226.75 -8C417.5 -8 535.25 193 536.5 357.25Z" glyph-name="ampersand.sc" horiz-adv-x="670.25" /><glyph d="M401.5 0 391.25 19.75C281.25 -29.25 159.25 -107.25 159.25 -192.25C159.25 -229.75 186.75 -253.75 232 -253.75C279.5 -253.75 326.5 -229.25 360 -197.75L356 -173.5C319 -195.75 289.5 -206.25 265.25 -206.25C240 -206.25 230.5 -195.25 230.5 -176.75C230.5 -120.25 310.75 -56.5 401.5 0ZM45.25 135.5C45.25 36 86.25 -10 142.75 -10C266.75 -10 370.75 237.5 387.5 306.5L391.75 389.25C366 285 262 54.5 177 54.5C142.5 54.5 123.75 91 123.75 151.5C123.75 291 224 454.25 336.5 454.25C360 454.25 397.75 446 428 430.75L489.5 484C447.25 500 395.25 506.25 362 506.25C173.75 506.25 45.25 312 45.25 135.5ZM401.5 0C401.5 97.75 419.25 184.5 448.25 309.75L489.5 484L416.25 495.5C342 179.75 326.5 108 326.5 0ZM325.5 496.25ZM439.5 10ZM235.5 0ZM439.5 10Z" glyph-name="aogonek" horiz-adv-x="524.5" unicode="&#261;" /><glyph d="M505.75 0 486 18.75C366.5 -24.75 243 -100 243 -181.75C243 -223.75 273.5 -250 323.25 -250C367.75 -250 412.5 -225.5 443.75 -194L439.75 -169.75C405.75 -192 378.5 -202.5 356.5 -202.5C326 -202.5 314.25 -189.25 314.25 -166.25C314.25 -112 401.75 -50.5 505.75 0ZM436 203H167L155.5 147.5H424.5ZM91.75 0 271 305C307.25 369.5 340.25 429.25 360.25 472.5H362.25C363.75 428.25 371.75 368 380 304.75L429.5 0H505.75L420.75 537.25L411.75 547L334 542.5C320.5 516.25 304.25 488.75 288.75 461.5L20 0ZM376 527.5ZM493.25 13.75ZM265.75 11.25ZM493.25 13.75Z" glyph-name="aogonek.sc" horiz-adv-x="525.75" /><glyph d="M403.25 323.25C357 323.25 187.5 392.75 159.75 392.75C142 392.75 108.25 354.5 68.25 311.75L40.75 333.75C76.25 379.75 130 446.75 173.75 446.75C219.75 446.75 389.25 377.25 416.75 377.25C434.5 377.25 468 414.75 509.75 457.5L536.5 436.25C500.75 390.25 447.25 323.25 403.25 323.25ZM382.25 99.25C336 99.25 166.5 168.75 138.75 168.75C121 168.75 87.25 130.5 47.25 87.75L19.75 109.75C55.25 155.75 109 222.75 152.75 222.75C198.75 222.75 368.25 153.25 395.75 153.25C413.5 153.25 447 190.75 488.75 233.5L515.5 212.25C479.75 166.25 426.25 99.25 382.25 99.25Z" glyph-name="approxequal" horiz-adv-x="545" unicode="&#8776;" /><glyph d="M419.25 398.25C373 398.25 203.5 467.75 175.75 467.75C158 467.75 124.25 429.5 84.25 386.75L56.75 408.75C92.25 454.75 146 521.75 189.75 521.75C235.75 521.75 405.25 452.25 432.75 452.25C450.5 452.25 484 489.75 525.75 532.5L552.5 511.25C516.75 465.25 463.25 398.25 419.25 398.25ZM398.25 174.25C352 174.25 182.5 243.75 154.75 243.75C137 243.75 103.25 205.5 63.25 162.75L35.75 184.75C71.25 230.75 125 297.75 168.75 297.75C214.75 297.75 384.25 228.25 411.75 228.25C429.5 228.25 463 265.75 504.75 308.5L531.5 287.25C495.75 241.25 442.25 174.25 398.25 174.25Z" glyph-name="approxequal.lf" horiz-adv-x="545" /><glyph d="M428.25 398.25C382 398.25 212.5 467.75 184.75 467.75C167 467.75 133.25 429.5 93.25 386.75L65.75 408.75C101.25 454.75 155 521.75 198.75 521.75C244.75 521.75 414.25 452.25 441.75 452.25C459.5 452.25 493 489.75 534.75 532.5L561.5 511.25C525.75 465.25 472.25 398.25 428.25 398.25ZM407.25 174.25C361 174.25 191.5 243.75 163.75 243.75C146 243.75 112.25 205.5 72.25 162.75L44.75 184.75C80.25 230.75 134 297.75 177.75 297.75C223.75 297.75 393.25 228.25 420.75 228.25C438.5 228.25 472 265.75 513.75 308.5L540.5 287.25C504.75 241.25 451.25 174.25 407.25 174.25Z" glyph-name="approxequal.osf" horiz-adv-x="545" /><glyph d="M403.25 323.25C357 323.25 187.5 392.75 159.75 392.75C142 392.75 108.25 354.5 68.25 311.75L40.75 333.75C76.25 379.75 130 446.75 173.75 446.75C219.75 446.75 389.25 377.25 416.75 377.25C434.5 377.25 468 414.75 509.75 457.5L536.5 436.25C500.75 390.25 447.25 323.25 403.25 323.25ZM382.25 99.25C336 99.25 166.5 168.75 138.75 168.75C121 168.75 87.25 130.5 47.25 87.75L19.75 109.75C55.25 155.75 109 222.75 152.75 222.75C198.75 222.75 368.25 153.25 395.75 153.25C413.5 153.25 447 190.75 488.75 233.5L515.5 212.25C479.75 166.25 426.25 99.25 382.25 99.25Z" glyph-name="approxequal.sc" horiz-adv-x="545" /><glyph d="M45.25 135.5C45.25 36 86.25 -10 142.75 -10C266.75 -10 370.75 237.5 387.5 306.5L391.75 389.25C366 285 262 54.5 177 54.5C142.5 54.5 123.75 91 123.75 151.5C123.75 291 224 454.25 336.5 454.25C360 454.25 397.75 446 428 430.75L489.5 484C447.25 500 395.25 506.25 362 506.25C173.75 506.25 45.25 312 45.25 135.5ZM401.5 0C401.5 97.75 419.25 184.5 448.25 309.75L489.5 484L416.25 495.5C342 179.75 326.5 108 326.5 0ZM325.5 496.25ZM439.5 10ZM235.5 0ZM455.25 699.75C455.25 735.75 429 761 388.75 761C329.75 761 272.25 708 272.25 655.5C272.25 618.75 301.25 592.25 341.5 592.25C398.75 592.25 455.25 645 455.25 699.75ZM322.25 665C322.25 692.5 349 719.5 375.25 719.5C394.5 719.5 406 706 406 688.5C406 661.5 380.25 633.75 353.5 633.75C336 633.75 322.25 646.25 322.25 665ZM325.5 496.25ZM382 761Z" glyph-name="aring" horiz-adv-x="524.5" unicode="&#229;" /><glyph d="M505.75 731C505.75 767 479.5 792.25 439.25 792.25C380.25 792.25 322.75 739.25 322.75 686.75C322.75 650 351.75 623.5 392 623.5C449.25 623.5 505.75 676.25 505.75 731ZM372.75 696.25C372.75 723.75 399.5 750.75 425.75 750.75C445 750.75 456.5 737.25 456.5 719.75C456.5 692.75 430.75 665 404 665C386.5 665 372.75 677.5 372.75 696.25ZM376 527.5ZM432.5 792.25ZM436 203H167L155.5 147.5H424.5ZM91.75 0 271 305C307.25 369.5 340.25 429.25 360.25 472.5H362.25C363.75 428.25 371.75 368 380 304.75L429.5 0H505.75L420.75 537.25L411.75 547L334 542.5C320.5 516.25 304.25 488.75 288.75 461.5L20 0ZM376 527.5ZM493.25 13.75ZM265.75 11.25Z" glyph-name="aring.sc" horiz-adv-x="525.75" /><glyph d="M45.25 135.5C45.25 36 86.25 -10 142.75 -10C266.75 -10 370.75 237.5 387.5 306.5L391.75 389.25C366 285 262 54.5 177 54.5C142.5 54.5 123.75 91 123.75 151.5C123.75 291 224 454.25 336.5 454.25C360 454.25 397.75 446 428 430.75L489.5 484C447.25 500 395.25 506.25 362 506.25C173.75 506.25 45.25 312 45.25 135.5ZM401.5 0C401.5 97.75 419.25 184.5 448.25 309.75L489.5 484L416.25 495.5C342 179.75 326.5 108 326.5 0ZM325.5 496.25ZM439.5 10ZM235.5 0ZM455.25 699.75C455.25 735.75 429 761 388.75 761C329.75 761 272.25 708 272.25 655.5C272.25 618.75 301.25 592.25 341.5 592.25C398.75 592.25 455.25 645 455.25 699.75ZM322.25 665C322.25 692.5 349 719.5 375.25 719.5C394.5 719.5 406 706 406 688.5C406 661.5 380.25 633.75 353.5 633.75C336 633.75 322.25 646.25 322.25 665ZM325.5 496.25ZM382 761ZM503.25 1013.75 431.5 1017.25C405.25 964 369 909.75 329.75 858.25L355 849.75C412 893.25 462.5 943.25 507.25 1002.5ZM382 761ZM436 1017.25Z" glyph-name="aringacute" horiz-adv-x="524.5" unicode="&#507;" /><glyph d="M505.75 731C505.75 767 479.5 792.25 439.25 792.25C380.25 792.25 322.75 739.25 322.75 686.75C322.75 650 351.75 623.5 392 623.5C449.25 623.5 505.75 676.25 505.75 731ZM372.75 696.25C372.75 723.75 399.5 750.75 425.75 750.75C445 750.75 456.5 737.25 456.5 719.75C456.5 692.75 430.75 665 404 665C386.5 665 372.75 677.5 372.75 696.25ZM376 527.5ZM432.5 792.25ZM553.75 1045 482 1048.5C455.75 995.25 419.5 941 380.25 889.5L405.5 881C462.5 924.5 513 974.5 557.75 1033.75ZM432.5 792.25ZM486.5 1048.5ZM436 203H167L155.5 147.5H424.5ZM91.75 0 271 305C307.25 369.5 340.25 429.25 360.25 472.5H362.25C363.75 428.25 371.75 368 380 304.75L429.5 0H505.75L420.75 537.25L411.75 547L334 542.5C320.5 516.25 304.25 488.75 288.75 461.5L20 0ZM376 527.5ZM493.25 13.75ZM265.75 11.25Z" glyph-name="aringacute.sc" horiz-adv-x="525.75" /><glyph d="M129.25 210 304.75 489H302L365.25 210H422L345.5 546.25H287L71.75 210Z" glyph-name="asciicircum" horiz-adv-x="510.25" unicode="^" /><glyph d="M394.5 223.25C348.25 223.25 178.75 292.75 151 292.75C133.25 292.75 99.5 254.5 59.5 211.75L32 233.75C67.5 279.75 121.25 346.75 165 346.75C211 346.75 380.5 277.25 408 277.25C425.75 277.25 459.25 314.75 501 357.5L527.75 336.25C492 290.25 438.5 223.25 394.5 223.25Z" glyph-name="asciitilde" horiz-adv-x="545" unicode="~" /><glyph d="M157.5 469 174.5 423.75 363.75 540 357 557 164.5 478.75ZM562.75 629 545.75 674.25 357 557 363.75 540 555.25 619.25ZM496.75 428.25 532.5 473.5 367 557.75 353.5 540.75 485.25 428.25ZM223.5 669.75 187.75 624.5 353.5 540.75 367 557.75 234.5 669.75ZM426 749.75H373.5L349.25 549H369.25L429.5 740ZM293.5 348.25H346L369.25 549H349.25L290 358Z" glyph-name="asterisk" horiz-adv-x="487" unicode="*" /><glyph d="M135 469 152 423.75 341.25 540 334.5 557 142 478.75ZM540.25 629 523.25 674.25 334.5 557 341.25 540 532.75 619.25ZM474.25 428.25 510 473.5 344.5 557.75 331 540.75 462.75 428.25ZM201 669.75 165.25 624.5 331 540.75 344.5 557.75 212 669.75ZM403.5 749.75H351L326.75 549H346.75L407 740ZM271 348.25H323.5L346.75 549H326.75L267.5 358Z" glyph-name="asterisk.caps" horiz-adv-x="546.75" /><glyph d="M157.5 469 174.5 423.75 363.75 540 357 557 164.5 478.75ZM562.75 629 545.75 674.25 357 557 363.75 540 555.25 619.25ZM496.75 428.25 532.5 473.5 367 557.75 353.5 540.75 485.25 428.25ZM223.5 669.75 187.75 624.5 353.5 540.75 367 557.75 234.5 669.75ZM426 749.75H373.5L349.25 549H369.25L429.5 740ZM293.5 348.25H346L369.25 549H349.25L290 358Z" glyph-name="asterisk.sc" horiz-adv-x="487" /><glyph d="M469.75 54.5C435.25 54.5 416.5 91 416.5 151.5C416.5 291 517.5 454.25 632 454.25C656 454.25 693.25 446 720.75 430.75L782.25 484C740.75 498.75 691.25 506.25 655.75 506.25C467.75 506.25 338 311 338 136.75C338 38.25 379.75 -10 435.75 -10C527 -10 613.5 119.25 651.25 217.25H655.5C622.25 108.25 636 -10 779 -10C948.25 -10 1086.25 154.75 1086.25 356C1086.25 578.75 916.75 756.25 664 756.25C362.75 756.25 75.75 502.25 75.75 178C75.75 -78.75 257.25 -256.25 511 -256.25C639 -256.25 746.25 -210.5 815 -162.25L799.75 -136.25C729 -175.5 645.5 -216.75 523 -216.75C280 -216.75 121.75 -46.5 121.75 186.5C121.75 500.75 409 716.75 665 716.75C879.5 716.75 1040.25 564.75 1040.25 353.75C1040.25 164.25 910.5 36.75 798.75 36.75C675.75 36.75 712 190.5 730.5 268.5L782.25 484L709 495.5L679.25 368.25C654.5 262.75 554.75 54.5 469.75 54.5Z" glyph-name="at" horiz-adv-x="1119" unicode="@" /><glyph d="M45.25 135.5C45.25 36 86.25 -10 142.75 -10C266.75 -10 370.75 237.5 387.5 306.5L391.75 389.25C366 285 262 54.5 177 54.5C142.5 54.5 123.75 91 123.75 151.5C123.75 291 224 454.25 336.5 454.25C360 454.25 397.75 446 428 430.75L489.5 484C447.25 500 395.25 506.25 362 506.25C173.75 506.25 45.25 312 45.25 135.5ZM401.5 0C401.5 97.75 419.25 184.5 448.25 309.75L489.5 484L416.25 495.5C342 179.75 326.5 108 326.5 0ZM325.5 496.25ZM439.5 10ZM235.5 0ZM312.5 720.25C258.5 720.25 219.75 658.25 207.25 608.5L227.75 604.5C245 635.5 268.25 659.5 294 659.5C333.75 659.5 359.25 601.75 409.75 601.75C459.5 601.75 500.5 661 513.25 713.5L492.75 717.5C476 687.5 452.75 662.5 426.75 662.5C385.5 662.5 364.5 720.25 312.5 720.25ZM325.5 496.25ZM373.25 721Z" glyph-name="atilde" horiz-adv-x="524.5" unicode="&#227;" /><glyph d="M436 203H167L155.5 147.5H424.5ZM91.75 0 271 305C307.25 369.5 340.25 429.25 360.25 472.5H362.25C363.75 428.25 371.75 368 380 304.75L429.5 0H505.75L420.75 537.25L411.75 547L334 542.5C320.5 516.25 304.25 488.75 288.75 461.5L20 0ZM376 527.5ZM493.25 13.75ZM265.75 11.25ZM363 751.5C309 751.5 270.25 689.5 257.75 639.75L278.25 635.75C295.5 666.75 318.75 690.75 344.5 690.75C384.25 690.75 409.75 633 460.25 633C510 633 551 692.25 563.75 744.75L543.25 748.75C526.5 718.75 503.25 693.75 477.25 693.75C436 693.75 415 751.5 363 751.5ZM376 527.5ZM423.75 752.25Z" glyph-name="atilde.sc" horiz-adv-x="525.75" /><glyph d="M170.25 609 121.25 380C74 159.75 58.75 91.5 42.5 12L118.75 20.25C159.25 247 262.25 588 262.25 756.25L178.25 746.25ZM385.5 506.25C266 506.25 174.75 307.5 143 189.75L128.75 160L135.75 106.5C161 220.25 268.5 441.75 353.5 441.75C388 441.75 406.75 405.25 406.75 344.75C406.75 205.25 306.5 42 194 42C170.5 42 132.75 50.25 102.5 65.5L42.5 12C82.75 -4.25 134.5 -10 169.5 -10C356.75 -10 485.25 184.25 485.25 361C485.25 460.25 445 506.25 385.5 506.25Z" glyph-name="b" horiz-adv-x="529.5" unicode="b" /><glyph d="M106 405.5 68 226.5C32.75 60.25 18.5 0.5 6.25 -58.75L71 -50.75C102.25 125.25 184.5 389.75 182 520.5L110.25 512.5ZM290.5 325.5C202 325.5 127.25 210.25 87.25 84L87 66L82.25 -1.25C100.25 96.5 190.25 272.25 263.75 272.25C294 272.25 310.75 241.25 310.75 192C310.75 84.25 230.25 -34.75 128.25 -34.75C105.75 -34.75 75.75 -27.75 57 -15L6.25 -58.75C36.75 -71.75 83.75 -77.5 115 -77.5C275 -77.5 377.75 72.75 377.75 207C377.75 287 341.5 325.5 290.5 325.5Z" glyph-name="b.inferior" horiz-adv-x="442.25" /><glyph d="M150.5 0 265.5 539.25H183.75C179.5 494.75 173 457 164 415L75.5 0ZM237.75 0C386.75 0 492.5 72.5 492.5 177.25C492.5 230 458.75 265.5 396.75 280.5C471.75 304.25 521 359.5 521 426.75C521 494.75 460.75 539.25 356.25 539.25H250L238.25 484.5H334.25C407 484.5 442.5 455.75 442.5 412C442.5 344.75 384.5 301.5 292.75 301.5H198.75L187.5 249.25H286.5C377 249.25 415.25 219 415.25 172.75C415.25 101 350.25 54.75 248.75 54.75H146.75L135 0Z" glyph-name="b.sc" horiz-adv-x="509.5" /><glyph d="M182.75 765.5 144.75 586.5C109.5 420.25 95.25 360.5 83 301.25L147.75 309.25C179 485.25 261.25 749.75 258.75 880.5L187 872.5ZM367.25 685.5C278.75 685.5 204 570.25 164 444L163.75 426L159 358.75C177 456.5 267 632.25 340.5 632.25C370.75 632.25 387.5 601.25 387.5 552C387.5 444.25 307 325.25 205 325.25C182.5 325.25 152.5 332.25 133.75 345L83 301.25C113.5 288.25 160.5 282.5 191.75 282.5C351.75 282.5 454.5 432.75 454.5 567C454.5 647 418.25 685.5 367.25 685.5Z" glyph-name="b.superior" horiz-adv-x="443" /><glyph d="M237.75 -4 282.25 3.5 292.25 11.5 264.25 758.5 219.75 751 209.75 743Z" glyph-name="backslash" horiz-adv-x="353.25" unicode="\" /><glyph d="M212.5 -30 257 -22.5 267 -14.5 239 732.5 194.5 725 184.5 717Z" glyph-name="backslash.caps" horiz-adv-x="408" /><glyph d="M237.75 -4 282.25 3.5 292.25 11.5 264.25 758.5 219.75 751 209.75 743Z" glyph-name="backslash.sc" horiz-adv-x="353.25" /><glyph d="M31.5 -254 68.25 -251 280 746.75 274.75 754 237.25 751 25.5 -246.75Z" glyph-name="bar" horiz-adv-x="304.75" unicode="|" /><glyph d="M142.5 170.5C142.5 87.75 55.75 -11 55.75 -104.75C55.75 -173.75 104.75 -196.25 209.25 -196.25L222.75 -148.75C159 -148.75 132.75 -129 132.75 -84.5C132.75 -4.5 216.25 88 216.25 180C216.25 237.75 180.75 275.25 112.5 290L110 278.25C188.75 280.75 277.25 336.25 277.25 502.75C277.25 519 277 551.25 277 556.5C277 668.75 312.5 708.75 404.75 708.75L411.75 756.25C289 756.25 205.5 724.5 205.5 571.5C205.5 553.5 206.75 528.75 206.75 509.5C206.75 381.5 153.25 319.25 71.5 313.75L59.5 256.25C117 247.75 142.5 215 142.5 170.5Z" glyph-name="braceleft" horiz-adv-x="334.75" unicode="{" /><glyph d="M72.75 319C132.25 314.25 157.25 293.25 157.25 257.5C157.25 199 91 129.75 91 62.25C91 5.75 139 -10 248.5 -10L262 37.5C197.25 37.5 168 52.25 168 83.25C168 128 230.75 204.25 230.75 266C230.75 317.5 185 343.75 124.75 346.75L123.25 338.75C196 342 274.5 376.5 274.5 485.5C274.5 506.5 271.5 536.25 271.5 556.5C271.5 623 304.75 648.75 392 648.75L398.75 696.25C273.75 696.25 200.25 671.75 200.25 567.5C200.25 538.5 206 507.5 206 479.5C206 408 169.5 375 83.75 370.75Z" glyph-name="braceleft.caps" horiz-adv-x="334.25" /><glyph d="M56.5 242C116 237.25 141 216.25 141 180.5C141 122 74.75 52.75 74.75 -14.75C74.75 -71.25 122.75 -87 232.25 -87L245.75 -39.5C181 -39.5 151.75 -24.75 151.75 6.25C151.75 51 214.5 127.25 214.5 189C214.5 240.5 168.75 266.75 108.5 269.75L107 261.75C179.75 265 258.25 299.5 258.25 408.5C258.25 429.5 255.25 459.25 255.25 479.5C255.25 546 288.5 571.75 375.75 571.75L382.5 619.25C257.5 619.25 184 594.75 184 490.5C184 461.5 189.75 430.5 189.75 402.5C189.75 331 153.25 298 67.5 293.75Z" glyph-name="braceleft.sc" horiz-adv-x="334.75" /><glyph d="M205.25 389.5C205.25 472.25 292 571 292 664.75C292 733.75 243 756.25 138.5 756.25L125 708.75C188.75 708.75 215 689 215 644.5C215 564.5 131.5 472 131.5 380C131.5 322.25 167 284.75 235.25 270L237.75 281.75C159 279.25 70.5 223.75 70.5 57.25C70.5 41 70.75 8.75 70.75 3.5C70.75 -108.75 35.25 -148.75 -57 -148.75L-64 -196.25C58.75 -196.25 142.25 -164.5 142.25 -11.5C142.25 6.5 141 31.25 141 50.5C141 178.5 194.5 240.75 276.25 246.25L288.25 303.75C230.75 312.25 205.25 345 205.25 389.5Z" glyph-name="braceright" horiz-adv-x="334" unicode="}" /><glyph d="M302.25 366.5C242.75 371.25 217.75 392.25 217.75 428C217.75 486.5 284 555.75 284 623.25C284 679.75 236 695.5 126.5 695.5L113 648C177.75 648 207 633.25 207 602.25C207 557.5 144.25 481.25 144.25 419.5C144.25 368 190 341.75 250.25 338.75L251.75 346.75C179 343.5 100.5 309 100.5 200C100.5 179 103.5 149.25 103.5 129C103.5 62.5 70.25 36.75 -17 36.75L-23.75 -10.75C101.25 -10.75 174.75 13.75 174.75 118C174.75 147 169 178 169 206C169 277.5 205.5 310.5 291.25 314.75Z" glyph-name="braceright.caps" horiz-adv-x="334.75" /><glyph d="M285.5 289.5C226 294.25 201 315.25 201 351C201 409.5 267.25 478.75 267.25 546.25C267.25 602.75 219.25 618.5 109.75 618.5L96.25 571C161 571 190.25 556.25 190.25 525.25C190.25 480.5 127.5 404.25 127.5 342.5C127.5 291 173.25 264.75 233.5 261.75L235 269.75C162.25 266.5 83.75 232 83.75 123C83.75 102 86.75 72.25 86.75 52C86.75 -14.5 53.5 -40.25 -33.75 -40.25L-40.5 -87.75C84.5 -87.75 158 -63.25 158 41C158 70 152.25 101 152.25 129C152.25 200.5 188.75 233.5 274.5 237.75Z" glyph-name="braceright.sc" horiz-adv-x="334.25" /><glyph d="M-4.25 -195.75H69.75L272.25 756.25H198.25ZM198.25 756.25 185 695.75H398.25L411.5 756.25ZM8.75 -135.25 -4.25 -195.75H209L222 -135.25Z" glyph-name="bracketleft" horiz-adv-x="334.75" unicode="[" /><glyph d="M37 0H111L257.25 686.25H183.25ZM183.25 686.25 170 625.75H383.25L396.5 686.25ZM50 60.5 37 0H250.25L263.25 60.5Z" glyph-name="bracketleft.caps" horiz-adv-x="334.5" /><glyph d="M21 -77H95L241.25 609.25H167.25ZM167.25 609.25 154 548.75H367.25L380.5 609.25ZM34 -16.5 21 -77H234.25L247.25 -16.5Z" glyph-name="bracketleft.sc" horiz-adv-x="334.75" /><glyph d="M352.75 756.25H278.75L76.25 -195.75H150.25ZM150.25 -195.75 163.5 -135.25H-49.75L-63 -195.75ZM339.75 695.75 352.75 756.25H139.5L126.5 695.75Z" glyph-name="bracketright" horiz-adv-x="334.75" unicode="]" /><glyph d="M337.75 686.25H263.75L117.5 0H191.5ZM191.5 0 204.75 60.5H-8.5L-21.75 0ZM324.75 625.75 337.75 686.25H124.5L111.5 625.75Z" glyph-name="bracketright.caps" horiz-adv-x="334.75" /><glyph d="M321.5 609.25H247.5L101.25 -77H175.25ZM175.25 -77 188.5 -16.5H-24.75L-38 -77ZM308.5 548.75 321.5 609.25H108.25L95.25 548.75Z" glyph-name="bracketright.sc" horiz-adv-x="334.5" /><glyph d="M250.5 594C319.75 594 379.25 650.25 401.5 735.5L367.25 730.25C346.25 679.5 310.75 650.75 266.75 650.75C225.5 650.75 200.25 675.5 201 729L165.75 723.5C151.5 640.75 191.25 594 250.5 594Z" glyph-name="breve" horiz-adv-x="362.5" unicode="&#728;" /><glyph d="M290.25 746.25C355.75 746.25 419.25 803.5 440 875.25L409.5 870C384.5 828.5 347 798 302.75 798C259 798 233.5 824.5 225 868.75L195.75 863.25C187.5 799.5 227.5 746.25 290.25 746.25ZM290.75 686.25ZM330.75 875.25Z" glyph-name="breve.case" horiz-adv-x="372" /><glyph d="M266 594C335.25 594 394.75 650.25 417 735.5L382.75 730.25C361.75 679.5 326.25 650.75 282.25 650.75C241 650.75 215.75 675.5 216.5 729L181.25 723.5C167 640.75 206.75 594 266 594ZM246.5 496.25ZM297.5 735.5Z" glyph-name="brevecomb" horiz-adv-x="362.5" unicode="&#774;" /><glyph d="M290.25 746.25C355.75 746.25 419.25 803.5 440 875.25L409.5 870C384.5 828.5 347 798 302.75 798C259 798 233.5 824.5 225 868.75L195.75 863.25C187.5 799.5 227.5 746.25 290.25 746.25ZM290.75 686.25ZM330.75 875.25Z" glyph-name="brevecomb.case" horiz-adv-x="372" /><glyph d="M200.25 369.75 280 746.75 274.75 754 237.25 751 157.5 374 163.5 366.75ZM68.25 -251 148 125 142.75 132.25 105.25 129.25 25.5 -246.75 31.5 -254Z" glyph-name="brokenbar" horiz-adv-x="304.75" unicode="&#166;" /><glyph d="M239.5 142C316 142 386.75 217 386.75 298C386.75 347.25 356 380.75 303.5 380.75C226.25 380.75 150.5 305.25 150.5 227.25C150.5 178.75 183.5 142 239.5 142Z" glyph-name="bullet" horiz-adv-x="426.5" unicode="&#8226;" /><glyph d="M256.25 222C332.75 222 403.5 297 403.5 378C403.5 427.25 372.75 460.75 320.25 460.75C243 460.75 167.25 385.25 167.25 307.25C167.25 258.75 200.25 222 256.25 222Z" glyph-name="bullet.caps" horiz-adv-x="426.5" /><glyph d="M238.75 139C315.25 139 386 214 386 295C386 344.25 355.25 377.75 302.75 377.75C225.5 377.75 149.75 302.25 149.75 224.25C149.75 175.75 182.75 139 238.75 139Z" glyph-name="bullet.sc" horiz-adv-x="426.75" /><glyph d="M382 125C338.75 78 290.25 45.75 236 45.75C163.75 45.75 130.5 101.25 130.5 181.75C130.5 312.75 221 450.5 322 450.5C361 450.5 395.5 430.5 423.25 399.75L447.25 466.5C419.25 489.5 382.75 506.25 335.75 506.25C181 506.25 52 341.75 52 171.25C52 53.25 114.75 -10 208.25 -10C276.5 -10 345.75 22 400.25 97ZM289.25 496.25ZM221.75 0Z" glyph-name="c" horiz-adv-x="454.75" unicode="c" /><glyph d="M284 29.25C250.5 -3.75 205.25 -30.5 160.25 -30.5C106.75 -30.5 79.75 9.75 79.75 70.25C79.75 171.25 152.75 279.25 241.75 279.25C270 279.25 296.75 267.5 319 252L337.25 305.75C312.5 317.75 279.25 325.5 248.25 325.5C120.25 325.5 12.75 199.75 12.75 65.75C12.75 -23.75 62 -77.5 138.25 -77.5C197.75 -77.5 261.25 -44.75 299.25 5ZM213.5 317.5ZM130.5 -69.5Z" glyph-name="c.inferior" horiz-adv-x="381.25" /><glyph d="M479.5 94C438.5 71 384 54.5 331 54.5C235.25 54.5 187 112.5 187 201.75C187 356 294 484.75 421.25 484.75C471 484.75 514 470.5 543.75 447.5L572.75 513.25C538.75 535.25 484.75 547.25 431.75 547.25C255.75 547.25 106.75 380.5 106.75 183.25C106.75 61 181.75 -8 306.25 -8C365 -8 427.75 5.5 475.75 32.75ZM400.75 527.5ZM296.5 11.25Z" glyph-name="c.sc" horiz-adv-x="507.5" /><glyph d="M361 389.25C327.5 356.25 282.25 329.5 237.25 329.5C183.75 329.5 156.75 369.75 156.75 430.25C156.75 531.25 229.75 639.25 318.75 639.25C347 639.25 373.75 627.5 396 612L414.25 665.75C389.5 677.75 356.25 685.5 325.25 685.5C197.25 685.5 89.75 559.75 89.75 425.75C89.75 336.25 139 282.5 215.25 282.5C274.75 282.5 338.25 315.25 376.25 365ZM290.5 677.5ZM207.5 290.5Z" glyph-name="c.superior" horiz-adv-x="382" /><glyph d="M382 125C338.75 78 290.25 45.75 235.75 45.75C163.75 45.75 130.5 100.5 130.5 177.5C130.5 299 216 450.5 321.75 450.5C360.5 450.5 394.5 430.5 421.75 399.75L447.25 464C419.25 488.75 383 506.25 334 506.25C182 506.25 52 342.5 52 171C52 53.25 114.75 -10 209.25 -10C276.5 -10 345.75 22 400.25 97ZM625.25 756.25C467.75 756.25 351.25 676.5 351.25 569.25C351.25 526.75 369.75 477.25 425.75 438.75L447 464.25C419.5 498.5 410.25 533.25 410.25 563C410.25 651.25 502.75 693 586.75 693C609.75 693 633.75 688.75 656 682.75L710.5 747.5C680.75 753 655.25 756.25 625.25 756.25ZM583.5 0C588.75 228.5 679.5 441.75 801.25 441.75C840 441.75 856 420.25 856 381.25C856 354.5 849.5 319 833 242.75C818.5 176.75 798.5 94.5 798.5 0H873.5C873.5 58.5 875.25 96.5 897 201.25C925.25 335.5 934.5 368.25 934.5 404.25C934.5 470.5 901 506.25 841.25 506.25C772.25 506.25 693 458.25 643 355.25H640.75C675 503.75 710.5 657.75 710.5 747.5L627.5 746.25C627.5 687.25 619 610.5 606 549.75L569.5 380C526 178.25 508.5 78 508.5 0Z" glyph-name="c_h" horiz-adv-x="998.75" /><glyph d="M404.75 459 447.25 466.5C432.75 493.25 426.25 521.25 426.25 551.75C426.25 631.5 487.25 692.5 561 692.5C610.25 692.5 643.5 666.5 643.5 619C643.5 564 601.25 506 530.25 483.75L522.5 451.5L593.25 451C530 153 522.5 126 522.5 92.25C522.5 21 558.75 -10 625.5 -10C670.25 -10 712.25 4 742.75 21.25L744.5 73C717.75 58 688 48.25 659.5 48.25C621.75 48.25 600.5 65.5 600.5 112.25C600.5 140.5 607.75 168.75 668 450L806.5 449L818.25 487.5L813.25 496.25H611.25L595.5 474.75C669.25 499.75 718.5 566.75 718.5 632.25C718.5 698.5 667.5 746.25 582 746.25C470.75 746.25 375.5 664.5 375.5 557.5C375.5 526.5 381 487.5 404.75 459ZM382 125C338.75 78 290.25 45.75 236 45.75C163.75 45.75 130.5 101.25 130.5 181.75C130.5 312.75 221 450.5 322 450.5C361 450.5 395.5 430.5 423.25 399.75L447.25 466.5C419.25 489.5 382.75 506.25 335.75 506.25C181 506.25 52 341.75 52 171.25C52 53.25 114.75 -10 208.25 -10C276.5 -10 345.75 22 400.25 97Z" glyph-name="c_t" horiz-adv-x="808.75" /><glyph d="M382 125C338.75 78 290.25 45.75 236 45.75C163.75 45.75 130.5 101.25 130.5 181.75C130.5 312.75 221 450.5 322 450.5C361 450.5 395.5 430.5 423.25 399.75L447.25 466.5C419.25 489.5 382.75 506.25 335.75 506.25C181 506.25 52 341.75 52 171.25C52 53.25 114.75 -10 208.25 -10C276.5 -10 345.75 22 400.25 97ZM289.25 496.25ZM221.75 0ZM410.5 749 338.75 752.5C312.5 699.25 276.25 645 237 593.5L262.25 585C319.25 628.5 369.75 678.5 414.5 737.75ZM289.25 496.25ZM343.25 752.5Z" glyph-name="cacute" horiz-adv-x="454.75" unicode="&#263;" /><glyph d="M522 780.25 450.25 783.75C424 730.5 387.75 676.25 348.5 624.75L373.75 616.25C430.75 659.75 481.25 709.75 526 769ZM400.75 527.5ZM454.75 783.75ZM479.5 94C438.5 71 384 54.5 331 54.5C235.25 54.5 187 112.5 187 201.75C187 356 294 484.75 421.25 484.75C471 484.75 514 470.5 543.75 447.5L572.75 513.25C538.75 535.25 484.75 547.25 431.75 547.25C255.75 547.25 106.75 380.5 106.75 183.25C106.75 61 181.75 -8 306.25 -8C365 -8 427.75 5.5 475.75 32.75ZM400.75 527.5ZM296.5 11.25Z" glyph-name="cacute.sc" horiz-adv-x="507.5" /><glyph d="M405 756C351.25 721.5 303.25 683 255 633.25H294.25C268.25 682.5 237 720.25 196.5 756L170.25 742.5C198 691.5 216.5 644.5 232 592.25L302.75 599.25C340.5 649.5 375.75 691.25 425.75 742.5Z" glyph-name="caron" horiz-adv-x="385.5" unicode="&#711;" /><glyph d="M442 875C390.5 848.75 342 818.5 294.75 783.75H331C299.5 819 261.25 849.25 221.5 875L194.75 859.25C225.5 820.25 249.5 783.5 271.75 747.25L341.75 754.25C390.75 798.5 413.25 818.75 462.25 859.25ZM302.25 686.25ZM342 875Z" glyph-name="caron.case" horiz-adv-x="397.5" /><glyph d="M410.25 756C356.5 721.5 308.5 683 260.25 633.25H299.5C273.5 682.5 242.25 720.25 201.75 756L175.5 742.5C203.25 691.5 221.75 644.5 237.25 592.25L308 599.25C345.75 649.5 381 691.25 431 742.5ZM260.25 496.25ZM315 756Z" glyph-name="caroncomb" horiz-adv-x="385.5" unicode="&#780;" /><glyph d="M280.25 760.75H213.75C186.25 687.5 159 625.5 132.25 566.5H160.5C201.5 618.25 244 680.25 284.25 749.5ZM208.25 496.25Z" glyph-name="caroncomb.alt" horiz-adv-x="243" /><glyph d="M442 875C390.5 848.75 342 818.5 294.75 783.75H331C299.5 819 261.25 849.25 221.5 875L194.75 859.25C225.5 820.25 249.5 783.5 271.75 747.25L341.75 754.25C390.75 798.5 413.25 818.75 462.25 859.25ZM302.25 686.25ZM342 875Z" glyph-name="caroncomb.case" horiz-adv-x="397.5" /><glyph d="M382 125C338.75 78 290.25 45.75 236 45.75C163.75 45.75 130.5 101.25 130.5 181.75C130.5 312.75 221 450.5 322 450.5C361 450.5 395.5 430.5 423.25 399.75L447.25 466.5C419.25 489.5 382.75 506.25 335.75 506.25C181 506.25 52 341.75 52 171.25C52 53.25 114.75 -10 208.25 -10C276.5 -10 345.75 22 400.25 97ZM289.25 496.25ZM221.75 0ZM439.25 756C385.5 721.5 337.5 683 289.25 633.25H328.5C302.5 682.5 271.25 720.25 230.75 756L204.5 742.5C232.25 691.5 250.75 644.5 266.25 592.25L337 599.25C374.75 649.5 410 691.25 460 742.5ZM289.25 496.25ZM344 756Z" glyph-name="ccaron" horiz-adv-x="454.75" unicode="&#269;" /><glyph d="M479.5 94C438.5 71 384 54.5 331 54.5C235.25 54.5 187 112.5 187 201.75C187 356 294 484.75 421.25 484.75C471 484.75 514 470.5 543.75 447.5L572.75 513.25C538.75 535.25 484.75 547.25 431.75 547.25C255.75 547.25 106.75 380.5 106.75 183.25C106.75 61 181.75 -8 306.25 -8C365 -8 427.75 5.5 475.75 32.75ZM400.75 527.5ZM296.5 11.25ZM550.75 787.25C497 752.75 449 714.25 400.75 664.5H440C414 713.75 382.75 751.5 342.25 787.25L316 773.75C343.75 722.75 362.25 675.75 377.75 623.5L448.5 630.5C486.25 680.75 521.5 722.5 571.5 773.75ZM400.75 527.5ZM455.5 787.25Z" glyph-name="ccaron.sc" horiz-adv-x="507.5" /><glyph d="M382 125C338.75 78 290.25 45.75 236 45.75C163.75 45.75 130.5 101.25 130.5 181.75C130.5 312.75 221 450.5 322 450.5C361 450.5 395.5 430.5 423.25 399.75L447.25 466.5C419.25 489.5 382.75 506.25 335.75 506.25C181 506.25 52 341.75 52 171.25C52 53.25 114.75 -10 208.25 -10C276.5 -10 345.75 22 400.25 97ZM289.25 496.25ZM221.75 0ZM109 -222.25 99.25 -253.75C203.75 -241 294.5 -168.5 294.5 -95.5C294.5 -65 272 -50.75 243.5 -50.75C206.5 -50.75 172.25 -69 147 -85L153.25 -102.25C171 -97.25 188.75 -93.25 204 -93.25C225.5 -93.25 232.5 -104 232.5 -116.25C232.5 -156.25 176 -205 109 -222.25ZM202.5 18.25 147 -85 190 -77 250.5 18.25ZM221.75 0ZM168 -253.75Z" glyph-name="ccedilla" horiz-adv-x="454.75" unicode="&#231;" /><glyph d="M479.5 94C438.5 71 384 54.5 331 54.5C235.25 54.5 187 112.5 187 201.75C187 356 294 484.75 421.25 484.75C471 484.75 514 470.5 543.75 447.5L572.75 513.25C538.75 535.25 484.75 547.25 431.75 547.25C255.75 547.25 106.75 380.5 106.75 183.25C106.75 61 181.75 -8 306.25 -8C365 -8 427.75 5.5 475.75 32.75ZM400.75 527.5ZM296.5 11.25ZM183.75 -211 174 -242.5C278.5 -229.75 369.25 -157.25 369.25 -84.25C369.25 -53.75 346.75 -39.5 318.25 -39.5C281.25 -39.5 247 -57.75 221.75 -73.75L228 -91C245.75 -86 263.5 -82 278.75 -82C300.25 -82 307.25 -92.75 307.25 -105C307.25 -145 250.75 -193.75 183.75 -211ZM277.25 29.5 221.75 -73.75 264.75 -65.75 325.25 29.5ZM296.5 11.25ZM242.75 -242.5Z" glyph-name="ccedilla.sc" horiz-adv-x="507.5" /><glyph d="M382 125C338.75 78 290.25 45.75 236 45.75C163.75 45.75 130.5 101.25 130.5 181.75C130.5 312.75 221 450.5 322 450.5C361 450.5 395.5 430.5 423.25 399.75L447.25 466.5C419.25 489.5 382.75 506.25 335.75 506.25C181 506.25 52 341.75 52 171.25C52 53.25 114.75 -10 208.25 -10C276.5 -10 345.75 22 400.25 97ZM289.25 496.25ZM221.75 0ZM220 592.25C273.75 626.75 322 665 370 715H330.75C356.75 665.75 388 628 428.5 592.25L454.75 605.75C427 656.75 408.5 703.75 393 756L322.25 749C284.5 698.75 249.25 657 199.25 605.75ZM289.25 496.25ZM344 756Z" glyph-name="ccircumflex" horiz-adv-x="454.75" unicode="&#265;" /><glyph d="M331.5 623.5C385.25 658 433.5 696.25 481.5 746.25H442.25C468.25 697 499.5 659.25 540 623.5L566.25 637C538.5 688 520 735 504.5 787.25L433.75 780.25C396 730 360.75 688.25 310.75 637ZM400.75 527.5ZM455.5 787.25ZM479.5 94C438.5 71 384 54.5 331 54.5C235.25 54.5 187 112.5 187 201.75C187 356 294 484.75 421.25 484.75C471 484.75 514 470.5 543.75 447.5L572.75 513.25C538.75 535.25 484.75 547.25 431.75 547.25C255.75 547.25 106.75 380.5 106.75 183.25C106.75 61 181.75 -8 306.25 -8C365 -8 427.75 5.5 475.75 32.75ZM400.75 527.5ZM296.5 11.25Z" glyph-name="ccircumflex.sc" horiz-adv-x="507.5" /><glyph d="M376.25 683.25C376.25 707 362.75 721.75 339 721.75C303 721.75 266.5 682.75 266.5 644.5C266.5 621.25 280.75 604.25 305.5 604.25C345.75 604.25 376.25 646.5 376.25 683.25ZM289.25 496.25ZM345.5 758.5ZM382 125C338.75 78 290.25 45.75 236 45.75C163.75 45.75 130.5 101.25 130.5 181.75C130.5 312.75 221 450.5 322 450.5C361 450.5 395.5 430.5 423.25 399.75L447.25 466.5C419.25 489.5 382.75 506.25 335.75 506.25C181 506.25 52 341.75 52 171.25C52 53.25 114.75 -10 208.25 -10C276.5 -10 345.75 22 400.25 97ZM289.25 496.25ZM221.75 0Z" glyph-name="cdotaccent" horiz-adv-x="454.75" unicode="&#267;" /><glyph d="M487.75 714.5C487.75 738.25 474.25 753 450.5 753C414.5 753 378 714 378 675.75C378 652.5 392.25 635.5 417 635.5C457.25 635.5 487.75 677.75 487.75 714.5ZM400.75 527.5ZM457 789.75ZM479.5 94C438.5 71 384 54.5 331 54.5C235.25 54.5 187 112.5 187 201.75C187 356 294 484.75 421.25 484.75C471 484.75 514 470.5 543.75 447.5L572.75 513.25C538.75 535.25 484.75 547.25 431.75 547.25C255.75 547.25 106.75 380.5 106.75 183.25C106.75 61 181.75 -8 306.25 -8C365 -8 427.75 5.5 475.75 32.75ZM400.75 527.5ZM296.5 11.25Z" glyph-name="cdotaccent.sc" horiz-adv-x="507.5" /><glyph d="M-32 -222.25 -41.75 -253.75C62.75 -241 153.5 -168.5 153.5 -95.5C153.5 -65 131 -50.75 102.5 -50.75C65.5 -50.75 31.25 -69 6 -85L12.25 -102.25C30 -97.25 47.75 -93.25 63 -93.25C84.5 -93.25 91.5 -104 91.5 -116.25C91.5 -156.25 35 -205 -32 -222.25ZM61.5 18.25 6 -85 49 -77 109.5 18.25Z" glyph-name="cedilla" horiz-adv-x="293.75" unicode="&#184;" /><glyph d="M-32 -222.25 -41.75 -253.75C62.75 -241 153.5 -168.5 153.5 -95.5C153.5 -65 131 -50.75 102.5 -50.75C65.5 -50.75 31.25 -69 6 -85L12.25 -102.25C30 -97.25 47.75 -93.25 63 -93.25C84.5 -93.25 91.5 -104 91.5 -116.25C91.5 -156.25 35 -205 -32 -222.25ZM61.5 18.25 6 -85 49 -77 109.5 18.25ZM80.75 0ZM27 -253.75Z" glyph-name="cedillacomb" horiz-adv-x="293.75" unicode="&#807;" /><glyph d="M364.75 524.25 396.5 671.25 389.5 679.25 357.5 676.25 324.75 524.25ZM171.5 -140 204.5 -137 233.5 0H193.5L165.5 -132ZM458.5 501C434.75 524.75 399 541.5 350 541.5C191.5 541.5 55.75 372.5 55.75 181.25C55.75 49.75 119.5 -10 211 -10C285.75 -10 354.5 30.5 404 97L384.5 125.25C351.5 90.25 298.5 47 238 47C171.25 47 135.75 98 135.75 194.5C135.75 347.25 227.5 483 336.75 483C379.25 483 410.5 461.75 433.5 431.5Z" glyph-name="cent" horiz-adv-x="458.5" unicode="&#162;" /><glyph d="M335.25 500 363.25 632 357.25 640 324.25 637 295.25 500ZM167.25 -140 200.25 -137 229.25 0H189.25L161.25 -132ZM382 125C338.75 78 290.25 45.75 236 45.75C163.75 45.75 130.5 101.25 130.5 181.75C130.5 312.75 221 450.5 322 450.5C361 450.5 395.5 430.5 423.25 399.75L447.25 466.5C419.25 489.5 382.75 506.25 335.75 506.25C181 506.25 52 341.75 52 171.25C52 53.25 114.75 -10 208.25 -10C276.5 -10 345.75 22 400.25 97ZM289.25 496.25ZM221.75 0Z" glyph-name="cent.lf" horiz-adv-x="454.75" /><glyph d="M373.75 524.25 405.5 671.25 398.5 679.25 366.5 676.25 333.75 524.25ZM180.5 -140 213.5 -137 242.5 0H202.5L174.5 -132ZM467.5 501C443.75 524.75 408 541.5 359 541.5C200.5 541.5 64.75 372.5 64.75 181.25C64.75 49.75 128.5 -10 220 -10C294.75 -10 363.5 30.5 413 97L393.5 125.25C360.5 90.25 307.5 47 247 47C180.25 47 144.75 98 144.75 194.5C144.75 347.25 236.5 483 345.75 483C388.25 483 419.5 461.75 442.5 431.5Z" glyph-name="cent.osf" horiz-adv-x="491.5" /><glyph d="M434.25 541.5 462.25 673.5 456.25 681.5 423.25 678.5 394.25 541.5ZM237.25 -140 270.25 -137 299.25 0H259.25L231.25 -132ZM479.5 94C438.5 71 384 54.5 331 54.5C235.25 54.5 187 112.5 187 201.75C187 356 294 484.75 421.25 484.75C471 484.75 514 470.5 543.75 447.5L572.75 513.25C538.75 535.25 484.75 547.25 431.75 547.25C255.75 547.25 106.75 380.5 106.75 183.25C106.75 61 181.75 -8 306.25 -8C365 -8 427.75 5.5 475.75 32.75ZM400.75 527.5ZM296.5 11.25Z" glyph-name="cent.sc" horiz-adv-x="507.5" /><glyph d="M361.5 500 389.5 632 383.5 640 350.5 637 321.5 500ZM193.5 -140 226.5 -137 255.5 0H215.5L187.5 -132ZM408.25 125C365 78 316.5 45.75 262.25 45.75C190 45.75 156.75 101.25 156.75 181.75C156.75 312.75 247.25 450.5 348.25 450.5C387.25 450.5 421.75 430.5 449.5 399.75L473.5 466.5C445.5 489.5 409 506.25 362 506.25C207.25 506.25 78.25 341.75 78.25 171.25C78.25 53.25 141 -10 234.5 -10C302.75 -10 372 22 426.5 97ZM315.5 496.25ZM248 0Z" glyph-name="cent.tf" horiz-adv-x="545" /><glyph d="M423.5 541.5 451.5 673.5 445.5 681.5 412.5 678.5 383.5 541.5ZM226.5 -140 259.5 -137 288.5 0H248.5L220.5 -132ZM468.75 94C427.75 71 373.25 54.5 320.25 54.5C224.5 54.5 176.25 112.5 176.25 201.75C176.25 356 283.25 484.75 410.5 484.75C460.25 484.75 503.25 470.5 533 447.5L562 513.25C528 535.25 474 547.25 421 547.25C245 547.25 96 380.5 96 183.25C96 61 171 -8 295.5 -8C354.25 -8 417 5.5 465 32.75ZM390 527.5ZM285.75 11.25Z" glyph-name="cent.tf.sc" horiz-adv-x="545" /><glyph d="M394.5 524.25 426.25 671.25 419.25 679.25 387.25 676.25 354.5 524.25ZM201.25 -140 234.25 -137 263.25 0H223.25L195.25 -132ZM488.25 501C464.5 524.75 428.75 541.5 379.75 541.5C221.25 541.5 85.5 372.5 85.5 181.25C85.5 49.75 149.25 -10 240.75 -10C315.5 -10 384.25 30.5 433.75 97L414.25 125.25C381.25 90.25 328.25 47 267.75 47C201 47 165.5 98 165.5 194.5C165.5 347.25 257.25 483 366.5 483C409 483 440.25 461.75 463.25 431.5Z" glyph-name="cent.tosf" horiz-adv-x="545" /><glyph d="M166.5 592.25C220.25 626.75 268.5 665 316.5 715H277.25C303.25 665.75 334.5 628 375 592.25L401.25 605.75C373.5 656.75 355 703.75 339.5 756L268.75 749C231 698.75 195.75 657 145.75 605.75Z" glyph-name="circumflex" horiz-adv-x="395.5" unicode="&#710;" /><glyph d="M194.5 747.25C246 773.5 294.5 803.75 341.75 838.5H305.5C337 803.25 374.5 772.25 415 747.25L441.75 763C411 802 387 838.75 364.75 875L294.75 868C245.75 823.75 223.25 803.5 174.25 763ZM281.75 686.25ZM321.5 875Z" glyph-name="circumflex.case" horiz-adv-x="397.5" /><glyph d="M166.5 592.25C220.25 626.75 268.5 665 316.5 715H277.25C303.25 665.75 334.5 628 375 592.25L401.25 605.75C373.5 656.75 355 703.75 339.5 756L268.75 749C231 698.75 195.75 657 145.75 605.75ZM235.75 496.25ZM290.5 756Z" glyph-name="circumflexcomb" horiz-adv-x="395.5" unicode="&#770;" /><glyph d="M194.5 747.25C246 773.5 294.5 803.75 341.75 838.5H305.5C337 803.25 374.5 772.25 415 747.25L441.75 763C411 802 387 838.75 364.75 875L294.75 868C245.75 823.75 223.25 803.5 174.25 763ZM281.75 686.25ZM321.5 875Z" glyph-name="circumflexcomb.case" horiz-adv-x="397.5" /><glyph d="M257 462.5C257 486.5 240.75 503.75 214.25 503.75C176.25 503.75 137 466.25 137 428C137 403 155.5 385.5 181.5 385.5C219.75 385.5 257 423.75 257 462.5ZM173.25 67C173.25 91.75 156 108.25 130.5 108.25C92.25 108.25 53.25 70.75 53.25 32.5C53.25 7.5 71.75 -10 97.75 -10C136 -10 173.25 28.25 173.25 67Z" glyph-name="colon" horiz-adv-x="205.5" unicode=":" /><glyph d="M1.5 -176 12 -186C94.75 -119.75 171.5 -0.5 171.5 61.25C171.5 89 155.25 106.75 126.75 106.75C86.75 106.75 49 70.75 49 32.75C49 7.5 67.5 -10 97 -10C113.25 -10 131.5 -1.25 140.25 8.75L107.5 24.5C86.25 -54.25 41.25 -130 1.5 -176Z" glyph-name="comma" horiz-adv-x="208.75" unicode="," /><glyph d="M283 794.75 273.75 804.25C211 767.25 145.75 674.25 145.75 622C145.75 597.5 161.25 583 187.25 583C220.5 583 252.75 617 252.75 650.75C252.75 673.75 235.75 688.5 209.5 688.5L210.75 655.25C220.25 698.25 255 761.5 283 794.75ZM175.5 509.25ZM238.25 804.25ZM172.25 496.25ZM238.25 804.25Z" glyph-name="commaabovecomb" horiz-adv-x="236" unicode="&#787;" /><glyph d="M-44.5 -285.5 -35.25 -295C27.5 -258 92.75 -165 92.75 -112.75C92.75 -88.25 77.25 -73.75 51.25 -73.75C18 -73.75 -14.25 -107.75 -14.25 -141.5C-14.25 -164.5 2.75 -179.25 29 -179.25L27.75 -146C18.25 -189 -16.5 -252.25 -44.5 -285.5ZM63 0ZM0.25 -295Z" glyph-name="commaaccent" horiz-adv-x="236.25" /><glyph d="M-44.5 -285.5 -35.25 -295C27.5 -258 92.75 -165 92.75 -112.75C92.75 -88.25 77.25 -73.75 51.25 -73.75C18 -73.75 -14.25 -107.75 -14.25 -141.5C-14.25 -164.5 2.75 -179.25 29 -179.25L27.75 -146C18.25 -189 -16.5 -252.25 -44.5 -285.5ZM63 0ZM0.25 -295Z" glyph-name="commaaccentcomb" horiz-adv-x="236.25" unicode="&#806;" /><glyph d="M334.25 -39.5C523 -39.5 694 134.75 694 311.75C694 443.5 599.75 539.5 460 539.5C272.75 539.5 101 365.25 101 186.25C101 54.5 194.25 -39.5 334.25 -39.5ZM342.25 0C222.5 0 141.5 80.25 141.5 194.75C141.5 350.25 290 500 450.5 500C570.5 500 653.5 415 653.5 301.25C653.5 148 503.25 0 342.25 0ZM519.5 384.25C500.75 401.5 472 411.25 439.5 411.25C342.5 411.25 258.75 324.75 258.75 216.25C258.75 139.25 300.5 96.75 364.5 96.75C413.25 96.75 464 122.5 495.5 164.5L479.75 188C460.5 168 426.5 140.75 388.5 140.75C344.25 140.75 319.5 175 319.5 229.5C319.5 305.5 368.25 366.5 429.75 366.5C458.25 366.5 481.25 353.25 498.25 335ZM414.5 447ZM332.25 60Z" glyph-name="copyright" horiz-adv-x="689" unicode="&#169;" /><glyph d="M540.75 461.75 513.75 495 404.75 404 430.75 370.75ZM418 43.5 459 70.5 459.75 76.25C455 84.5 401 153.25 387.5 171.25L346.75 137.5ZM120 170 9.75 79 35.75 45.75 146.75 136ZM205.25 403.5C185.5 428.5 152.25 470.25 131.75 495L95 464.25L166.5 370.75ZM312.5 452C188.75 452 80.75 344.5 80.75 227.75C80.75 148.25 131.5 88 224.75 88C348.75 88 456 194.5 456 311.25C456 391 405.5 452 312.5 452ZM298.5 405.5C363 405.5 401.5 364 401.5 299C401.5 210.75 330.75 134.5 240.75 134.5C168.5 134.5 135.5 183.5 135.5 240.5C135.5 328 210.75 405.5 298.5 405.5Z" glyph-name="currency" horiz-adv-x="541.5" unicode="&#164;" /><glyph d="M540.75 461.75 513.75 495 404.75 404 430.75 370.75ZM418 43.5 459 70.5 459.75 76.25C455 84.5 401 153.25 387.5 171.25L346.75 137.5ZM120 170 9.75 79 35.75 45.75 146.75 136ZM205.25 403.5C185.5 428.5 152.25 470.25 131.75 495L95 464.25L166.5 370.75ZM312.5 452C188.75 452 80.75 344.5 80.75 227.75C80.75 148.25 131.5 88 224.75 88C348.75 88 456 194.5 456 311.25C456 391 405.5 452 312.5 452ZM298.5 405.5C363 405.5 401.5 364 401.5 299C401.5 210.75 330.75 134.5 240.75 134.5C168.5 134.5 135.5 183.5 135.5 240.5C135.5 328 210.75 405.5 298.5 405.5Z" glyph-name="currency.lf" horiz-adv-x="541.5" /><glyph d="M549.75 461.75 522.75 495 413.75 404 439.75 370.75ZM427 43.5 468 70.5 468.75 76.25C464 84.5 410 153.25 396.5 171.25L355.75 137.5ZM129 170 18.75 79 44.75 45.75 155.75 136ZM214.25 403.5C194.5 428.5 161.25 470.25 140.75 495L104 464.25L175.5 370.75ZM321.5 452C197.75 452 89.75 344.5 89.75 227.75C89.75 148.25 140.5 88 233.75 88C357.75 88 465 194.5 465 311.25C465 391 414.5 452 321.5 452ZM307.5 405.5C372 405.5 410.5 364 410.5 299C410.5 210.75 339.75 134.5 249.75 134.5C177.5 134.5 144.5 183.5 144.5 240.5C144.5 328 219.75 405.5 307.5 405.5Z" glyph-name="currency.osf" horiz-adv-x="558.5" /><glyph d="M540.75 461.75 513.75 495 404.75 404 430.75 370.75ZM418 43.5 459 70.5 459.75 76.25C455 84.5 401 153.25 387.5 171.25L346.75 137.5ZM120 170 9.75 79 35.75 45.75 146.75 136ZM205.25 403.5C185.5 428.5 152.25 470.25 131.75 495L95 464.25L166.5 370.75ZM312.5 452C188.75 452 80.75 344.5 80.75 227.75C80.75 148.25 131.5 88 224.75 88C348.75 88 456 194.5 456 311.25C456 391 405.5 452 312.5 452ZM298.5 405.5C363 405.5 401.5 364 401.5 299C401.5 210.75 330.75 134.5 240.75 134.5C168.5 134.5 135.5 183.5 135.5 240.5C135.5 328 210.75 405.5 298.5 405.5Z" glyph-name="currency.sc" horiz-adv-x="541.5" /><glyph d="M557.75 530.75 530.75 564 421.75 473 447.75 439.75ZM435 112.5 476 139.5 476.75 145.25C472 153.5 418 222.25 404.5 240.25L363.75 206.5ZM137 239 26.75 148 52.75 114.75 163.75 205ZM222.25 472.5C202.5 497.5 169.25 539.25 148.75 564L112 533.25L183.5 439.75ZM329.5 521C205.75 521 97.75 413.5 97.75 296.75C97.75 217.25 148.5 157 241.75 157C365.75 157 473 263.5 473 380.25C473 460 422.5 521 329.5 521ZM315.5 474.5C380 474.5 418.5 433 418.5 368C418.5 279.75 347.75 203.5 257.75 203.5C185.5 203.5 152.5 252.5 152.5 309.5C152.5 397 227.75 474.5 315.5 474.5Z" glyph-name="currency.tf" horiz-adv-x="545" /><glyph d="M533.75 461.75 506.75 495 397.75 404 423.75 370.75ZM411 43.5 452 70.5 452.75 76.25C448 84.5 394 153.25 380.5 171.25L339.75 137.5ZM113 170 2.75 79 28.75 45.75 139.75 136ZM198.25 403.5C178.5 428.5 145.25 470.25 124.75 495L88 464.25L159.5 370.75ZM305.5 452C181.75 452 73.75 344.5 73.75 227.75C73.75 148.25 124.5 88 217.75 88C341.75 88 449 194.5 449 311.25C449 391 398.5 452 305.5 452ZM291.5 405.5C356 405.5 394.5 364 394.5 299C394.5 210.75 323.75 134.5 233.75 134.5C161.5 134.5 128.5 183.5 128.5 240.5C128.5 328 203.75 405.5 291.5 405.5Z" glyph-name="currency.tf.sc" horiz-adv-x="545" /><glyph d="M542.75 461.75 515.75 495 406.75 404 432.75 370.75ZM420 43.5 461 70.5 461.75 76.25C457 84.5 403 153.25 389.5 171.25L348.75 137.5ZM122 170 11.75 79 37.75 45.75 148.75 136ZM207.25 403.5C187.5 428.5 154.25 470.25 133.75 495L97 464.25L168.5 370.75ZM314.5 452C190.75 452 82.75 344.5 82.75 227.75C82.75 148.25 133.5 88 226.75 88C350.75 88 458 194.5 458 311.25C458 391 407.5 452 314.5 452ZM300.5 405.5C365 405.5 403.5 364 403.5 299C403.5 210.75 332.75 134.5 242.75 134.5C170.5 134.5 137.5 183.5 137.5 240.5C137.5 328 212.75 405.5 300.5 405.5Z" glyph-name="currency.tosf" horiz-adv-x="545" /><glyph d="M403.75 0C403.75 205 530.75 565.5 530.75 756.25L446.75 746.25L438.75 609L389.75 380C342.75 161 328.75 72 328.75 0ZM360.25 506.25C174.5 506.25 45.25 312 45.25 135.25C45.25 36 86.25 -10 142.75 -10C266.75 -10 355.75 190.25 387.5 306.5L391.75 388.5C369.75 285 262 54.5 177 54.5C142.5 54.5 123.75 91 123.75 151.5C123.75 291 224 454.25 336.5 454.25C360 454.25 397.75 446 428 430.75L477.5 484C437.75 500.5 391.75 506.25 360.25 506.25ZM319 496.25ZM218 0ZM636 496.25ZM427.25 615Z" glyph-name="d" horiz-adv-x="526.75" unicode="d" /><glyph d="M316 -69.5C312.5 90 415 371.75 412.25 520.5L340.75 512.5L336.5 405.5L298.25 226.5C263.5 64.75 250 -11.5 252.25 -69.5ZM280 325.5C119 325.5 8.75 180.25 8.75 43.5C8.75 -38.75 46.5 -77.5 93.25 -77.5C193.5 -77.5 272 75 297 164L299 232.25C281.5 149 194.5 -24.25 122.25 -24.25C92.5 -24.25 75.75 5.25 75.75 55.5C75.75 164.25 157.75 282.75 262.25 282.75C281 282.75 304.25 277 329.5 263L381.25 306.75C348.25 320.25 308.75 325.5 280 325.5ZM236 317.5ZM153.75 -69.5ZM506 317.5ZM326.5 410.5Z" glyph-name="d.inferior" horiz-adv-x="441" /><glyph d="M150.5 0 265.5 539.25H183.75C179.5 494.75 173 457 164 415L75.5 0ZM584.5 337.25C584.5 465.25 490 539.25 352.75 539.25H219.25L206.75 483.75H333.5C443 483.75 504.75 424.25 504.75 328.75C504.75 173.25 392.5 55.5 245.5 55.5H121.25L109.5 0H230.5C426 0 584.5 151 584.5 337.25ZM402.25 527.5ZM215.25 265ZM284.5 11.25Z" glyph-name="d.sc" horiz-adv-x="579.5" /><glyph d="M392 290.5C388.5 450 491 731.75 488.25 880.5L416.75 872.5L412.5 765.5L374.25 586.5C339.5 424.75 326 348.5 328.25 290.5ZM356 685.5C195 685.5 84.75 540.25 84.75 403.5C84.75 321.25 122.5 282.5 169.25 282.5C269.5 282.5 348 435 373 524L375 592.25C357.5 509 270.5 335.75 198.25 335.75C168.5 335.75 151.75 365.25 151.75 415.5C151.75 524.25 233.75 642.75 338.25 642.75C357 642.75 380.25 637 405.5 623L457.25 666.75C424.25 680.25 384.75 685.5 356 685.5ZM312 677.5ZM229.75 290.5ZM582 677.5ZM402.5 770.5Z" glyph-name="d.superior" horiz-adv-x="440.75" /><glyph d="M304.75 485 192 6.5 197.75 -2.25 252.25 0 258 5.75 348.25 485ZM348.25 485 403.5 689 397.5 696.25C376.25 696.25 360.5 694.75 340.5 692.25L337.5 689L304.75 485ZM331.25 506.75 145.25 515 135.25 507.75C131.75 492 129 470.5 128.5 457.5L130.75 454.5L321.75 462.75ZM321.75 462.75 507.75 454.5 518.5 461.75C522 478.5 524.25 498.75 525.25 512L522.25 515L331.25 506.75Z" glyph-name="dagger" horiz-adv-x="553" unicode="&#8224;" /><glyph d="M348.25 481.25 402.75 686 397.5 693.25C375.5 693.25 360.5 691.75 340.5 689.25L336.75 686L304.75 481.25ZM321.75 459 331.25 503 145.25 511.25 134.5 504C131.75 490.25 129.25 472.75 127.75 453.75L130.75 450.75ZM517.75 458C522.75 479.75 522.75 488.5 524.5 508.25L522.25 511.25L331.25 503L321.75 459L507.75 450.75ZM249.75 205H285.25C308.25 260 326 315.25 331.25 354C335.75 383.5 342 435 344.25 481.25H308.75C285.25 427.75 267.25 365.25 262.75 331C258.25 300.75 252 246.5 249.75 205ZM262.75 183.25 272.25 227.25 86.25 235.5 76.25 228.25C71 204 71.5 197.75 69.5 178L71.75 175ZM459.5 182.25C463 199.75 464.75 213.5 466.25 232.5L463.25 235.5L272.25 227.25L262.75 183.25L448.75 175ZM253.5 -3 257.25 0.25 289.25 205H245.75L191.25 0.25L197.25 -7C218 -7 234.25 -5.5 253.5 -3Z" glyph-name="daggerdbl" horiz-adv-x="553.75" unicode="&#8225;" /><glyph d="M708 760.75H641.5C614 687.5 586.75 625.5 560 566.5H588.25C629.25 618.25 671.75 680.25 712 749.5ZM636 496.25ZM403.75 0C403.75 205 530.75 565.5 530.75 756.25L446.75 746.25L438.75 609L389.75 380C342.75 161 328.75 72 328.75 0ZM360.25 506.25C174.5 506.25 45.25 312 45.25 135.25C45.25 36 86.25 -10 142.75 -10C266.75 -10 355.75 190.25 387.5 306.5L391.75 388.5C369.75 285 262 54.5 177 54.5C142.5 54.5 123.75 91 123.75 151.5C123.75 291 224 454.25 336.5 454.25C360 454.25 397.75 446 428 430.75L477.5 484C437.75 500.5 391.75 506.25 360.25 506.25ZM319 496.25ZM218 0ZM636 496.25ZM427.25 615Z" glyph-name="dcaron" horiz-adv-x="526.75" unicode="&#271;" /><glyph d="M150.5 0 265.5 539.25H183.75C179.5 494.75 173 457 164 415L75.5 0ZM584.5 337.25C584.5 465.25 490 539.25 352.75 539.25H219.25L206.75 483.75H333.5C443 483.75 504.75 424.25 504.75 328.75C504.75 173.25 392.5 55.5 245.5 55.5H121.25L109.5 0H230.5C426 0 584.5 151 584.5 337.25ZM402.25 527.5ZM215.25 265ZM284.5 11.25ZM552.25 787.25C498.5 752.75 450.5 714.25 402.25 664.5H441.5C415.5 713.75 384.25 751.5 343.75 787.25L317.5 773.75C345.25 722.75 363.75 675.75 379.25 623.5L450 630.5C487.75 680.75 523 722.5 573 773.75ZM402.25 527.5ZM457 787.25Z" glyph-name="dcaron.sc" horiz-adv-x="579.5" /><glyph d="M605.75 592.5 615 637.5H248.5L239.25 592.5ZM427.25 615ZM403.75 0C403.75 205 530.75 565.5 530.75 756.25L446.75 746.25L438.75 609L389.75 380C342.75 161 328.75 72 328.75 0ZM360.25 506.25C174.5 506.25 45.25 312 45.25 135.25C45.25 36 86.25 -10 142.75 -10C266.75 -10 355.75 190.25 387.5 306.5L391.75 388.5C369.75 285 262 54.5 177 54.5C142.5 54.5 123.75 91 123.75 151.5C123.75 291 224 454.25 336.5 454.25C360 454.25 397.75 446 428 430.75L477.5 484C437.75 500.5 391.75 506.25 360.25 506.25ZM319 496.25ZM218 0ZM636 496.25ZM427.25 615Z" glyph-name="dcroat" horiz-adv-x="526.75" unicode="&#273;" /><glyph d="M150.5 0 265.5 539.25H183.75C179.5 494.75 173 457 164 415L75.5 0ZM584.5 337.25C584.5 465.25 490 539.25 352.75 539.25H219.25L206.75 483.75H333.5C443 483.75 504.75 424.25 504.75 328.75C504.75 173.25 392.5 55.5 245.5 55.5H121.25L109.5 0H230.5C426 0 584.5 151 584.5 337.25ZM402.25 527.5ZM215.25 265ZM284.5 11.25ZM366.875 242.5 374.7375 287.5H63.2125L55.35 242.5ZM215.15 265Z" glyph-name="dcroat.sc" horiz-adv-x="579.5" /><glyph d="M403.75 0C403.75 205 530.75 565.5 530.75 756.25L446.75 746.25L438.75 609L389.75 380C342.75 161 328.75 72 328.75 0ZM360.25 506.25C174.5 506.25 45.25 312 45.25 135.25C45.25 36 86.25 -10 142.75 -10C266.75 -10 355.75 190.25 387.5 306.5L391.75 388.5C369.75 285 262 54.5 177 54.5C142.5 54.5 123.75 91 123.75 151.5C123.75 291 224 454.25 336.5 454.25C360 454.25 397.75 446 428 430.75L477.5 484C437.75 500.5 391.75 506.25 360.25 506.25ZM319 496.25ZM218 0ZM636 496.25ZM427.25 615ZM247.25 -169.75C247.25 -146 233.75 -131.25 210 -131.25C174 -131.25 137.5 -170.25 137.5 -208.5C137.5 -231.75 151.75 -248.75 176.5 -248.75C216.75 -248.75 247.25 -206.5 247.25 -169.75ZM160.25 -356.75ZM216.5 -94.5ZM218 0ZM183 -162.75Z" glyph-name="ddotbelow" horiz-adv-x="526.75" unicode="&#7693;" /><glyph d="M150.5 0 265.5 539.25H183.75C179.5 494.75 173 457 164 415L75.5 0ZM584.5 337.25C584.5 465.25 490 539.25 352.75 539.25H219.25L206.75 483.75H333.5C443 483.75 504.75 424.25 504.75 328.75C504.75 173.25 392.5 55.5 245.5 55.5H121.25L109.5 0H230.5C426 0 584.5 151 584.5 337.25ZM402.25 527.5ZM215.25 265ZM284.5 11.25ZM313.75 -158.5C313.75 -134.75 300.25 -120 276.5 -120C240.5 -120 204 -159 204 -197.25C204 -220.5 218.25 -237.5 243 -237.5C283.25 -237.5 313.75 -195.25 313.75 -158.5ZM226.75 -345.5ZM283 -83.25ZM284.5 11.25ZM249.5 -151.5Z" glyph-name="ddotbelow.sc" horiz-adv-x="579.5" /><glyph d="M186.5 306.25C266.5 306.25 340.25 380.75 340.25 457.75C340.25 512.5 303.5 546.25 248.5 546.25C167.75 546.25 95 472.75 95 395.5C95 340 133 306.25 186.5 306.25ZM236.75 507.5C271.25 507.5 296.75 486 296.75 446.5C296.75 394.25 250.5 345 198.5 345C162.25 345 138.5 369.5 138.5 407C138.5 458.5 184.5 507.5 236.75 507.5Z" glyph-name="degree" horiz-adv-x="367.5" unicode="&#176;" /><glyph d="M258.5 456.5C338.5 456.5 412.25 531 412.25 608C412.25 662.75 375.5 696.5 320.5 696.5C239.75 696.5 167 623 167 545.75C167 490.25 205 456.5 258.5 456.5ZM308.75 657.75C343.25 657.75 368.75 636.25 368.75 596.75C368.75 544.5 322.5 495.25 270.5 495.25C234.25 495.25 210.5 519.75 210.5 557.25C210.5 608.75 256.5 657.75 308.75 657.75Z" glyph-name="degree.lf" horiz-adv-x="447.5" /><glyph d="M186.5 306.25C266.5 306.25 340.25 380.75 340.25 457.75C340.25 512.5 303.5 546.25 248.5 546.25C167.75 546.25 95 472.75 95 395.5C95 340 133 306.25 186.5 306.25ZM236.75 507.5C271.25 507.5 296.75 486 296.75 446.5C296.75 394.25 250.5 345 198.5 345C162.25 345 138.5 369.5 138.5 407C138.5 458.5 184.5 507.5 236.75 507.5Z" glyph-name="degree.osf" horiz-adv-x="367.5" /><glyph d="M226.5 306.25C306.5 306.25 380.25 380.75 380.25 457.75C380.25 512.5 343.5 546.25 288.5 546.25C207.75 546.25 135 472.75 135 395.5C135 340 173 306.25 226.5 306.25ZM276.75 507.5C311.25 507.5 336.75 486 336.75 446.5C336.75 394.25 290.5 345 238.5 345C202.25 345 178.5 369.5 178.5 407C178.5 458.5 224.5 507.5 276.75 507.5Z" glyph-name="degree.sc" horiz-adv-x="447.5" /><glyph d="M258.25 670.75C261.25 696.75 247.25 715.5 221.25 715.5C189 715.5 155.5 686.75 151.75 653C148 626.75 164.75 607.75 190.5 607.75C221.5 607.75 254.5 635.75 258.25 670.75ZM460 670.75C463 696.75 449 715.5 423 715.5C390.75 715.5 357.25 686.75 353.5 653C349.75 626.75 366.5 607.75 392.25 607.75C423.25 607.75 456.25 635.75 460 670.75ZM270.5 496.25ZM317.5 715.5Z" glyph-name="dieresis" horiz-adv-x="408.75" unicode="&#168;" /><glyph d="M291 827.5C291 849 276.25 865 252.5 865C217.5 865 182.25 830.5 182.25 796C182.25 773.25 199.25 757.25 222.5 757.25C256.75 757.25 291 791.75 291 827.5ZM512.25 827.5C512.25 849 497.5 865 473.75 865C438.75 865 403.5 830.5 403.5 796C403.5 773.25 420.5 757.25 443.75 757.25C478 757.25 512.25 791.75 512.25 827.5ZM321 686.25ZM358.5 865Z" glyph-name="dieresis.case" horiz-adv-x="455.75" /><glyph d="M258.25 670.75C261.25 696.75 247.25 715.5 221.25 715.5C189 715.5 155.5 686.75 151.75 653C148 626.75 164.75 607.75 190.5 607.75C221.5 607.75 254.5 635.75 258.25 670.75ZM460 670.75C463 696.75 449 715.5 423 715.5C390.75 715.5 357.25 686.75 353.5 653C349.75 626.75 366.5 607.75 392.25 607.75C423.25 607.75 456.25 635.75 460 670.75ZM270.5 496.25ZM317.5 715.5Z" glyph-name="dieresiscomb" horiz-adv-x="435.5" unicode="&#776;" /><glyph d="M291 827.5C291 849 276.25 865 252.5 865C217.5 865 182.25 830.5 182.25 796C182.25 773.25 199.25 757.25 222.5 757.25C256.75 757.25 291 791.75 291 827.5ZM512.25 827.5C512.25 849 497.5 865 473.75 865C438.75 865 403.5 830.5 403.5 796C403.5 773.25 420.5 757.25 443.75 757.25C478 757.25 512.25 791.75 512.25 827.5ZM321 686.25ZM358.5 865Z" glyph-name="dieresiscomb.case" horiz-adv-x="455.75" /><glyph d="M495 246.75 510 293.5 506.25 299.25C400.25 299.25 157.75 297.25 54.75 294.25L45 246.75ZM373 474.75C373 497.5 358.25 511.5 337 511.5C302 511.5 266.75 477 266.75 442.75C266.75 422.25 280.25 406.5 303.75 406.5C339.25 406.5 373 441 373 474.75ZM295 102.75C295 125.5 280.25 139.5 259.25 139.5C224.25 139.5 188.5 105 188.5 70.75C188.5 50.25 202 34.5 225.5 34.5C260.75 34.5 295 68.75 295 102.75Z" glyph-name="divide" horiz-adv-x="545" unicode="&#247;" /><glyph d="M511 321.75 526 368.5 522.25 374.25C416.25 374.25 173.75 372.25 70.75 369.25L61 321.75ZM389 549.75C389 572.5 374.25 586.5 353 586.5C318 586.5 282.75 552 282.75 517.75C282.75 497.25 296.25 481.5 319.75 481.5C355.25 481.5 389 516 389 549.75ZM311 177.75C311 200.5 296.25 214.5 275.25 214.5C240.25 214.5 204.5 180 204.5 145.75C204.5 125.25 218 109.5 241.5 109.5C276.75 109.5 311 143.75 311 177.75Z" glyph-name="divide.lf" horiz-adv-x="545" /><glyph d="M507 321.75 522 368.5 518.25 374.25C412.25 374.25 169.75 372.25 66.75 369.25L57 321.75ZM385 549.75C385 572.5 370.25 586.5 349 586.5C314 586.5 278.75 552 278.75 517.75C278.75 497.25 292.25 481.5 315.75 481.5C351.25 481.5 385 516 385 549.75ZM307 177.75C307 200.5 292.25 214.5 271.25 214.5C236.25 214.5 200.5 180 200.5 145.75C200.5 125.25 214 109.5 237.5 109.5C272.75 109.5 307 143.75 307 177.75Z" glyph-name="divide.osf" horiz-adv-x="545" /><glyph d="M495 246.75 510 293.5 506.25 299.25C400.25 299.25 157.75 297.25 54.75 294.25L45 246.75ZM373 474.75C373 497.5 358.25 511.5 337 511.5C302 511.5 266.75 477 266.75 442.75C266.75 422.25 280.25 406.5 303.75 406.5C339.25 406.5 373 441 373 474.75ZM295 102.75C295 125.5 280.25 139.5 259.25 139.5C224.25 139.5 188.5 105 188.5 70.75C188.5 50.25 202 34.5 225.5 34.5C260.75 34.5 295 68.75 295 102.75Z" glyph-name="divide.sc" horiz-adv-x="600" /><glyph d="M355.5 686.25 383.75 818.25 377.5 826.25 344.75 823.25 315.5 686.25ZM135.75 -140 168.75 -137 197.75 0H157.75L129.75 -132ZM404 190.5C404 353.75 202.5 372.75 202.5 504.75C202.5 576 260.25 632.75 351.25 632.75C386.75 632.75 434.75 623 472 594.25L498 665.25C466.5 684.25 414.25 696.25 364.5 696.25C227.75 696.25 119 609.5 119 493.5C119 335 321.75 313 321.75 176.75C321.75 99.75 258.75 53.5 174.25 53.5C136 53.5 75 63.5 31.25 96L8 26C49.75 0 112.25 -10 159.75 -10C292 -10 404 68.25 404 190.5Z" glyph-name="dollar" horiz-adv-x="476" unicode="$" /><glyph d="M355.5 686.25 383.75 818.25 377.5 826.25 344.75 823.25 315.5 686.25ZM135.75 -140 168.75 -137 197.75 0H157.75L129.75 -132ZM404 190.5C404 353.75 202.5 372.75 202.5 504.75C202.5 576 260.25 632.75 351.25 632.75C386.75 632.75 434.75 623 472 594.25L498 665.25C466.5 684.25 414.25 696.25 364.5 696.25C227.75 696.25 119 609.5 119 493.5C119 335 321.75 313 321.75 176.75C321.75 99.75 258.75 53.5 174.25 53.5C136 53.5 75 63.5 31.25 96L8 26C49.75 0 112.25 -10 159.75 -10C292 -10 404 68.25 404 190.5Z" glyph-name="dollar.lf" horiz-adv-x="476" /><glyph d="M365.75 539 393.75 671 386.75 679 354.75 676 325.75 539ZM168.75 -140 201.75 -137 230.75 0H190.75L162.75 -132ZM422.5 163.75C422.5 290.75 213.5 292.25 213.5 388.75C213.5 447 270.5 487.75 347.75 487.75C384.25 487.75 429.5 479.75 466 457.5L490.5 523.25C459.25 538 410.25 547.25 361 547.25C233 547.25 134.75 471 134.75 372.5C134.75 244.25 344 244.25 344 149C344 91.5 289.75 51.5 213.25 51.5C175.25 51.5 115.5 60.5 74 85.75L52.25 20.75C91 0.75 150 -8 194.75 -8C325.25 -8 422.5 65.75 422.5 163.75ZM333.75 527.5ZM222.25 11.25Z" glyph-name="dollar.osf" horiz-adv-x="439" /><glyph d="M325 541.5 353 673.5 347 681.5 314 678.5 285 541.5ZM128 -140 161 -137 190 0H150L122 -132ZM377.25 163.75C377.25 290.75 168.25 292.25 168.25 388.75C168.25 447 225.25 487.75 302.5 487.75C339 487.75 384.25 479.75 420.75 457.5L445.25 523.25C414 538 365 547.25 315.75 547.25C187.75 547.25 89.5 471 89.5 372.5C89.5 244.25 298.75 244.25 298.75 149C298.75 91.5 244.5 51.5 168 51.5C130 51.5 70.25 60.5 28.75 85.75L7 20.75C45.75 0.75 104.75 -8 149.5 -8C280 -8 377.25 65.75 377.25 163.75ZM288.5 527.5ZM177 11.25Z" glyph-name="dollar.sc" horiz-adv-x="453" /><glyph d="M390 686.25 418.25 818.25 412 826.25 379.25 823.25 350 686.25ZM170.25 -140 203.25 -137 232.25 0H192.25L164.25 -132ZM438.5 190.5C438.5 353.75 237 372.75 237 504.75C237 576 294.75 632.75 385.75 632.75C421.25 632.75 469.25 623 506.5 594.25L532.5 665.25C501 684.25 448.75 696.25 399 696.25C262.25 696.25 153.5 609.5 153.5 493.5C153.5 335 356.25 313 356.25 176.75C356.25 99.75 293.25 53.5 208.75 53.5C170.5 53.5 109.5 63.5 65.75 96L42.5 26C84.25 0 146.75 -10 194.25 -10C326.5 -10 438.5 68.25 438.5 190.5Z" glyph-name="dollar.tf" horiz-adv-x="545" /><glyph d="M358.75 541.5 386.75 673.5 380.75 681.5 347.75 678.5 318.75 541.5ZM161.75 -140 194.75 -137 223.75 0H183.75L155.75 -132ZM411 163.75C411 290.75 202 292.25 202 388.75C202 447 259 487.75 336.25 487.75C372.75 487.75 418 479.75 454.5 457.5L479 523.25C447.75 538 398.75 547.25 349.5 547.25C221.5 547.25 123.25 471 123.25 372.5C123.25 244.25 332.5 244.25 332.5 149C332.5 91.5 278.25 51.5 201.75 51.5C163.75 51.5 104 60.5 62.5 85.75L40.75 20.75C79.5 0.75 138.5 -8 183.25 -8C313.75 -8 411 65.75 411 163.75ZM322.25 527.5ZM210.75 11.25Z" glyph-name="dollar.tf.sc" horiz-adv-x="545" /><glyph d="M366.25 539 394.25 671 387.25 679 355.25 676 326.25 539ZM169.25 -140 202.25 -137 231.25 0H191.25L163.25 -132ZM423 163.75C423 290.75 214 292.25 214 388.75C214 447 271 487.75 348.25 487.75C384.75 487.75 430 479.75 466.5 457.5L491 523.25C459.75 538 410.75 547.25 361.5 547.25C233.5 547.25 135.25 471 135.25 372.5C135.25 244.25 344.5 244.25 344.5 149C344.5 91.5 290.25 51.5 213.75 51.5C175.75 51.5 116 60.5 74.5 85.75L52.75 20.75C91.5 0.75 150.5 -8 195.25 -8C325.75 -8 423 65.75 423 163.75ZM334.25 527.5ZM222.75 11.25Z" glyph-name="dollar.tosf" horiz-adv-x="545" /><glyph d="M256.75 683.25C256.75 707 243.25 721.75 219.5 721.75C183.5 721.75 147 682.75 147 644.5C147 621.25 161.25 604.25 186 604.25C226.25 604.25 256.75 646.5 256.75 683.25Z" glyph-name="dotaccent" horiz-adv-x="234.75" unicode="&#729;" /><glyph d="M292 821.25C292 843.25 277.25 856.25 252.25 856.25C215.25 856.25 181 822.5 181 787C181 765.5 195.5 749.75 221.75 749.75C259.25 749.75 292 784.5 292 821.25Z" glyph-name="dotaccent.case" horiz-adv-x="236.75" /><glyph d="M256.75 683.25C256.75 707 243.25 721.75 219.5 721.75C183.5 721.75 147 682.75 147 644.5C147 621.25 161.25 604.25 186 604.25C226.25 604.25 256.75 646.5 256.75 683.25ZM169.75 496.25ZM226 758.5Z" glyph-name="dotaccentcomb" horiz-adv-x="234.75" unicode="&#775;" /><glyph d="M293.5 829.5C293.5 851.5 278.75 864.5 253.75 864.5C216.75 864.5 182.5 830.75 182.5 795.25C182.5 773.75 197 758 223.25 758C260.75 758 293.5 792.75 293.5 829.5ZM211.25 686.25ZM249.75 864.5Z" glyph-name="dotaccentcomb.case" horiz-adv-x="236" /><glyph d="M93.75 -169.75C93.75 -146 80.25 -131.25 56.5 -131.25C20.5 -131.25 -16 -170.25 -16 -208.5C-16 -231.75 -1.75 -248.75 23 -248.75C63.25 -248.75 93.75 -206.5 93.75 -169.75ZM6.75 -356.75ZM63 -94.5ZM64.5 0ZM29.5 -162.75Z" glyph-name="dotbelowcomb" horiz-adv-x="234.75" unicode="&#803;" /><glyph d="M135.25 0C135.25 161 209.25 361 209.25 506.25L125.25 496.25L117.25 359L97.25 267C74.25 161 60.25 72 60.25 0ZM156.75 496.25ZM206 10ZM143.5 0Z" glyph-name="dotlessi" horiz-adv-x="256" unicode="&#305;" /><glyph d="M150.5 0 264.75 538.75 257.75 547.25 183.75 539.25C178.75 492.5 171.25 453.25 162.75 412.25L75.5 0ZM223.25 527.5ZM182.25 13.75ZM113 11.25Z" glyph-name="dotlessi.sc" horiz-adv-x="225.75" /><glyph d="M-29.75 -214.75C47.25 -157 91.5 -83.5 115.25 29.5C175.25 314.25 202.75 420.5 202.75 506.25L118.75 496.25L110.75 359L37.25 15C18 -75.25 -19.25 -137.75 -55.25 -184ZM139.75 496.25ZM78.75 0Z" glyph-name="dotlessj" horiz-adv-x="235.5" unicode="&#567;" /><glyph d="M-5.5 -148.5C94 -106.5 140.5 -49 164.5 62L266 539L259.5 547.25L181.5 537C180 497.5 174 458.5 164 412.25L89.5 62C70.25 -27.5 30 -82 -21.5 -118ZM222.5 527.5ZM113.75 0Z" glyph-name="dotlessj.sc" horiz-adv-x="227.25" /><glyph d="M379.75 125C338.75 81 287.25 45.75 233.75 45.75C167 45.75 130.5 99.5 130.5 177.5C130.5 290 207.75 455.5 305.25 455.5C342.25 455.5 366.25 432.5 366.25 394.75C366.25 337 314.75 261.5 122.25 249.75L118.75 216.5C354.75 224 439.25 311 439.25 399.25C439.25 466.5 390.5 506.25 319.25 506.25C171.75 506.25 52 331.5 52 171.75C52 53.25 118 -10 208.75 -10C278.75 -10 352.5 28.75 398 97ZM282.5 496.25ZM321 10ZM202.75 0Z" glyph-name="e" horiz-adv-x="464" unicode="e" /><glyph d="M293 29.25C256.75 -5.5 211.5 -30.5 167 -30.5C112 -30.5 80.25 10.5 80.25 72.5C80.25 166.25 153 283.5 231.5 283.5C260 283.5 277.25 268 277.25 241.25C277.25 196 232.25 133.75 71.75 122.5L69.5 96C260.5 103 339.75 174.75 339.75 245C339.75 294.5 302 325.5 241.75 325.5C123.75 325.5 13.25 200.75 13.25 69C13.25 -22.75 67.25 -77.5 147.5 -77.5C207 -77.5 271.75 -47.75 309 5ZM198.25 317.5ZM321.5 -61.5ZM148.75 -69.5Z" glyph-name="e.inferior" horiz-adv-x="392.25" /><glyph d="M150.5 0 265.5 539.25H183.75C179.5 494.75 173 457 164 415L75.5 0ZM503.75 539.25H264.25L252.5 484.5L497.75 479.25L510.75 530.75ZM420.75 295.5 211.25 293 201 242.5 407.25 239.5ZM417.25 60 161.25 54.75 149.5 0H404.5ZM129 522.5ZM345.75 527.5ZM399.75 13.75ZM246.5 11.25Z" glyph-name="e.sc" horiz-adv-x="442.5" /><glyph d="M370 389.25C333.75 354.5 288.5 329.5 244 329.5C189 329.5 157.25 370.5 157.25 432.5C157.25 526.25 230 643.5 308.5 643.5C337 643.5 354.25 628 354.25 601.25C354.25 556 309.25 493.75 148.75 482.5L146.5 456C337.5 463 416.75 534.75 416.75 605C416.75 654.5 379 685.5 318.75 685.5C200.75 685.5 90.25 560.75 90.25 429C90.25 337.25 144.25 282.5 224.5 282.5C284 282.5 348.75 312.25 386 365ZM275.25 677.5ZM398.5 298.5ZM225.75 290.5Z" glyph-name="e.superior" horiz-adv-x="393.25" /><glyph d="M403.75 749 332 752.5C305.75 699.25 269.5 645 230.25 593.5L255.5 585C312.5 628.5 363 678.5 407.75 737.75ZM282.5 496.25ZM336.5 752.5ZM379.75 125C338.75 81 287.25 45.75 233.75 45.75C167 45.75 130.5 99.5 130.5 177.5C130.5 290 207.75 455.5 305.25 455.5C342.25 455.5 366.25 432.5 366.25 394.75C366.25 337 314.75 261.5 122.25 249.75L118.75 216.5C354.75 224 439.25 311 439.25 399.25C439.25 466.5 390.5 506.25 319.25 506.25C171.75 506.25 52 331.5 52 171.75C52 53.25 118 -10 208.75 -10C278.75 -10 352.5 28.75 398 97ZM282.5 496.25ZM321 10ZM202.75 0Z" glyph-name="eacute" horiz-adv-x="464" unicode="&#233;" /><glyph d="M467 780.25 395.25 783.75C369 730.5 332.75 676.25 293.5 624.75L318.75 616.25C375.75 659.75 426.25 709.75 471 769ZM345.75 527.5ZM399.75 783.75ZM150.5 0 265.5 539.25H183.75C179.5 494.75 173 457 164 415L75.5 0ZM503.75 539.25H264.25L252.5 484.5L497.75 479.25L510.75 530.75ZM420.75 295.5 211.25 293 201 242.5 407.25 239.5ZM417.25 60 161.25 54.75 149.5 0H404.5ZM129 522.5ZM345.75 527.5ZM399.75 13.75ZM246.5 11.25Z" glyph-name="eacute.sc" horiz-adv-x="442.5" /><glyph d="M379.75 125C338.75 81 287.25 45.75 233.75 45.75C167 45.75 130.5 99.5 130.5 177.5C130.5 290 207.75 455.5 305.25 455.5C342.25 455.5 366.25 432.5 366.25 394.75C366.25 337 314.75 261.5 122.25 249.75L118.75 216.5C354.75 224 439.25 311 439.25 399.25C439.25 466.5 390.5 506.25 319.25 506.25C171.75 506.25 52 331.5 52 171.75C52 53.25 118 -10 208.75 -10C278.75 -10 352.5 28.75 398 97ZM282.5 496.25ZM321 10ZM202.75 0ZM302 594C371.25 594 430.75 650.25 453 735.5L418.75 730.25C397.75 679.5 362.25 650.75 318.25 650.75C277 650.75 251.75 675.5 252.5 729L217.25 723.5C203 640.75 242.75 594 302 594ZM282.5 496.25ZM333.5 735.5Z" glyph-name="ebreve" horiz-adv-x="464" unicode="&#277;" /><glyph d="M365.25 625.25C434.5 625.25 494 681.5 516.25 766.75L482 761.5C461 710.75 425.5 682 381.5 682C340.25 682 315 706.75 315.75 760.25L280.5 754.75C266.25 672 306 625.25 365.25 625.25ZM345.75 527.5ZM396.75 766.75ZM150.5 0 265.5 539.25H183.75C179.5 494.75 173 457 164 415L75.5 0ZM503.75 539.25H264.25L252.5 484.5L497.75 479.25L510.75 530.75ZM420.75 295.5 211.25 293 201 242.5 407.25 239.5ZM417.25 60 161.25 54.75 149.5 0H404.5ZM129 522.5ZM345.75 527.5ZM399.75 13.75ZM246.5 11.25Z" glyph-name="ebreve.sc" horiz-adv-x="442.5" /><glyph d="M379.75 125C338.75 81 287.25 45.75 233.75 45.75C167 45.75 130.5 99.5 130.5 177.5C130.5 290 207.75 455.5 305.25 455.5C342.25 455.5 366.25 432.5 366.25 394.75C366.25 337 314.75 261.5 122.25 249.75L118.75 216.5C354.75 224 439.25 311 439.25 399.25C439.25 466.5 390.5 506.25 319.25 506.25C171.75 506.25 52 331.5 52 171.75C52 53.25 118 -10 208.75 -10C278.75 -10 352.5 28.75 398 97ZM282.5 496.25ZM321 10ZM202.75 0ZM432.5 756C378.75 721.5 330.75 683 282.5 633.25H321.75C295.75 682.5 264.5 720.25 224 756L197.75 742.5C225.5 691.5 244 644.5 259.5 592.25L330.25 599.25C368 649.5 403.25 691.25 453.25 742.5ZM282.5 496.25ZM337.25 756Z" glyph-name="ecaron" horiz-adv-x="464" unicode="&#283;" /><glyph d="M150.5 0 265.5 539.25H183.75C179.5 494.75 173 457 164 415L75.5 0ZM503.75 539.25H264.25L252.5 484.5L497.75 479.25L510.75 530.75ZM420.75 295.5 211.25 293 201 242.5 407.25 239.5ZM417.25 60 161.25 54.75 149.5 0H404.5ZM129 522.5ZM345.75 527.5ZM399.75 13.75ZM246.5 11.25ZM495.75 787.25C442 752.75 394 714.25 345.75 664.5H385C359 713.75 327.75 751.5 287.25 787.25L261 773.75C288.75 722.75 307.25 675.75 322.75 623.5L393.5 630.5C431.25 680.75 466.5 722.5 516.5 773.75ZM345.75 527.5ZM400.5 787.25Z" glyph-name="ecaron.sc" horiz-adv-x="442.5" /><glyph d="M213.25 592.25C267 626.75 315.25 665 363.25 715H324C350 665.75 381.25 628 421.75 592.25L448 605.75C420.25 656.75 401.75 703.75 386.25 756L315.5 749C277.75 698.75 242.5 657 192.5 605.75ZM282.5 496.25ZM337.25 756ZM379.75 125C338.75 81 287.25 45.75 233.75 45.75C167 45.75 130.5 99.5 130.5 177.5C130.5 290 207.75 455.5 305.25 455.5C342.25 455.5 366.25 432.5 366.25 394.75C366.25 337 314.75 261.5 122.25 249.75L118.75 216.5C354.75 224 439.25 311 439.25 399.25C439.25 466.5 390.5 506.25 319.25 506.25C171.75 506.25 52 331.5 52 171.75C52 53.25 118 -10 208.75 -10C278.75 -10 352.5 28.75 398 97ZM282.5 496.25ZM321 10ZM202.75 0Z" glyph-name="ecircumflex" horiz-adv-x="464" unicode="&#234;" /><glyph d="M276.5 623.5C330.25 658 378.5 696.25 426.5 746.25H387.25C413.25 697 444.5 659.25 485 623.5L511.25 637C483.5 688 465 735 449.5 787.25L378.75 780.25C341 730 305.75 688.25 255.75 637ZM345.75 527.5ZM400.5 787.25ZM150.5 0 265.5 539.25H183.75C179.5 494.75 173 457 164 415L75.5 0ZM503.75 539.25H264.25L252.5 484.5L497.75 479.25L510.75 530.75ZM420.75 295.5 211.25 293 201 242.5 407.25 239.5ZM417.25 60 161.25 54.75 149.5 0H404.5ZM129 522.5ZM345.75 527.5ZM399.75 13.75ZM246.5 11.25Z" glyph-name="ecircumflex.sc" horiz-adv-x="442.5" /><glyph d="M270.25 670.75C273.25 696.75 259.25 715.5 233.25 715.5C201 715.5 167.5 686.75 163.75 653C160 626.75 176.75 607.75 202.5 607.75C233.5 607.75 266.5 635.75 270.25 670.75ZM472 670.75C475 696.75 461 715.5 435 715.5C402.75 715.5 369.25 686.75 365.5 653C361.75 626.75 378.5 607.75 404.25 607.75C435.25 607.75 468.25 635.75 472 670.75ZM282.5 496.25ZM329.5 715.5ZM379.75 125C338.75 81 287.25 45.75 233.75 45.75C167 45.75 130.5 99.5 130.5 177.5C130.5 290 207.75 455.5 305.25 455.5C342.25 455.5 366.25 432.5 366.25 394.75C366.25 337 314.75 261.5 122.25 249.75L118.75 216.5C354.75 224 439.25 311 439.25 399.25C439.25 466.5 390.5 506.25 319.25 506.25C171.75 506.25 52 331.5 52 171.75C52 53.25 118 -10 208.75 -10C278.75 -10 352.5 28.75 398 97ZM282.5 496.25ZM321 10ZM202.75 0Z" glyph-name="edieresis" horiz-adv-x="464" unicode="&#235;" /><glyph d="M333.5 702C336.5 728 322.5 746.75 296.5 746.75C264.25 746.75 230.75 718 227 684.25C223.25 658 240 639 265.75 639C296.75 639 329.75 667 333.5 702ZM535.25 702C538.25 728 524.25 746.75 498.25 746.75C466 746.75 432.5 718 428.75 684.25C425 658 441.75 639 467.5 639C498.5 639 531.5 667 535.25 702ZM345.75 527.5ZM392.75 746.75ZM150.5 0 265.5 539.25H183.75C179.5 494.75 173 457 164 415L75.5 0ZM503.75 539.25H264.25L252.5 484.5L497.75 479.25L510.75 530.75ZM420.75 295.5 211.25 293 201 242.5 407.25 239.5ZM417.25 60 161.25 54.75 149.5 0H404.5ZM129 522.5ZM345.75 527.5ZM399.75 13.75ZM246.5 11.25Z" glyph-name="edieresis.sc" horiz-adv-x="442.5" /><glyph d="M369.5 683.25C369.5 707 356 721.75 332.25 721.75C296.25 721.75 259.75 682.75 259.75 644.5C259.75 621.25 274 604.25 298.75 604.25C339 604.25 369.5 646.5 369.5 683.25ZM282.5 496.25ZM338.75 758.5ZM379.75 125C338.75 81 287.25 45.75 233.75 45.75C167 45.75 130.5 99.5 130.5 177.5C130.5 290 207.75 455.5 305.25 455.5C342.25 455.5 366.25 432.5 366.25 394.75C366.25 337 314.75 261.5 122.25 249.75L118.75 216.5C354.75 224 439.25 311 439.25 399.25C439.25 466.5 390.5 506.25 319.25 506.25C171.75 506.25 52 331.5 52 171.75C52 53.25 118 -10 208.75 -10C278.75 -10 352.5 28.75 398 97ZM282.5 496.25ZM321 10ZM202.75 0Z" glyph-name="edotaccent" horiz-adv-x="464" unicode="&#279;" /><glyph d="M432.75 714.5C432.75 738.25 419.25 753 395.5 753C359.5 753 323 714 323 675.75C323 652.5 337.25 635.5 362 635.5C402.25 635.5 432.75 677.75 432.75 714.5ZM345.75 527.5ZM402 789.75ZM150.5 0 265.5 539.25H183.75C179.5 494.75 173 457 164 415L75.5 0ZM503.75 539.25H264.25L252.5 484.5L497.75 479.25L510.75 530.75ZM420.75 295.5 211.25 293 201 242.5 407.25 239.5ZM417.25 60 161.25 54.75 149.5 0H404.5ZM129 522.5ZM345.75 527.5ZM399.75 13.75ZM246.5 11.25Z" glyph-name="edotaccent.sc" horiz-adv-x="442.5" /><glyph d="M379.75 125C338.75 81 287.25 45.75 233.75 45.75C167 45.75 130.5 99.5 130.5 177.5C130.5 290 207.75 455.5 305.25 455.5C342.25 455.5 366.25 432.5 366.25 394.75C366.25 337 314.75 261.5 122.25 249.75L118.75 216.5C354.75 224 439.25 311 439.25 399.25C439.25 466.5 390.5 506.25 319.25 506.25C171.75 506.25 52 331.5 52 171.75C52 53.25 118 -10 208.75 -10C278.75 -10 352.5 28.75 398 97ZM282.5 496.25ZM321 10ZM202.75 0ZM232 -169.75C232 -146 218.5 -131.25 194.75 -131.25C158.75 -131.25 122.25 -170.25 122.25 -208.5C122.25 -231.75 136.5 -248.75 161.25 -248.75C201.5 -248.75 232 -206.5 232 -169.75ZM145 -356.75ZM201.25 -94.5ZM202.75 0ZM167.75 -162.75Z" glyph-name="edotbelow" horiz-adv-x="464" unicode="&#7865;" /><glyph d="M150.5 0 265.5 539.25H183.75C179.5 494.75 173 457 164 415L75.5 0ZM503.75 539.25H264.25L252.5 484.5L497.75 479.25L510.75 530.75ZM420.75 295.5 211.25 293 201 242.5 407.25 239.5ZM417.25 60 161.25 54.75 149.5 0H404.5ZM129 522.5ZM345.75 527.5ZM399.75 13.75ZM246.5 11.25ZM275.75 -158.5C275.75 -134.75 262.25 -120 238.5 -120C202.5 -120 166 -159 166 -197.25C166 -220.5 180.25 -237.5 205 -237.5C245.25 -237.5 275.75 -195.25 275.75 -158.5ZM188.75 -345.5ZM245 -83.25ZM246.5 11.25ZM211.5 -151.5Z" glyph-name="edotbelow.sc" horiz-adv-x="442.5" /><glyph d="M350.75 585 378 593.5C357.25 645 341 699.25 333.25 752.5L261 749L254 737.75C277.25 678.5 309.75 628.5 350.75 585ZM282.5 496.25ZM282.5 752.5ZM379.75 125C338.75 81 287.25 45.75 233.75 45.75C167 45.75 130.5 99.5 130.5 177.5C130.5 290 207.75 455.5 305.25 455.5C342.25 455.5 366.25 432.5 366.25 394.75C366.25 337 314.75 261.5 122.25 249.75L118.75 216.5C354.75 224 439.25 311 439.25 399.25C439.25 466.5 390.5 506.25 319.25 506.25C171.75 506.25 52 331.5 52 171.75C52 53.25 118 -10 208.75 -10C278.75 -10 352.5 28.75 398 97ZM282.5 496.25ZM321 10ZM202.75 0Z" glyph-name="egrave" horiz-adv-x="464" unicode="&#232;" /><glyph d="M414 616.25 441.25 624.75C420.5 676.25 404.25 730.5 396.5 783.75L324.25 780.25L317.25 769C340.5 709.75 373 659.75 414 616.25ZM345.75 527.5ZM345.75 783.75ZM150.5 0 265.5 539.25H183.75C179.5 494.75 173 457 164 415L75.5 0ZM503.75 539.25H264.25L252.5 484.5L497.75 479.25L510.75 530.75ZM420.75 295.5 211.25 293 201 242.5 407.25 239.5ZM417.25 60 161.25 54.75 149.5 0H404.5ZM129 522.5ZM345.75 527.5ZM399.75 13.75ZM246.5 11.25Z" glyph-name="egrave.sc" horiz-adv-x="442.5" /><glyph d="M266.75 320C344.25 275.5 395.75 240 395.75 176.25C395.75 94.75 312.25 41.25 215.5 41.25C135.75 41.25 90.5 77.5 90.5 136.25C90.5 220.75 184.5 279 266.75 320ZM348.25 642.75C417.25 642.75 456 608.75 456 556.5C456 480 372.75 423 299.25 386.5C237 425 191.5 459.5 191.5 517.25C191.5 588.5 260.75 642.75 348.25 642.75ZM15 128.25C15 38.75 93.25 -10.75 204.25 -10.75C350.25 -10.75 472.75 74.5 472.75 195C472.75 279.5 412.5 319 347.75 358.25L348 359.75C433.5 400.25 529 468.25 529 563.5C529 641.75 463.5 694.75 356.25 694.75C226 694.75 117 615.5 117 504.25C117 434 161.75 394.25 223.75 352.75L223.5 351.25C125.5 309.5 15 235.25 15 128.25Z" glyph-name="eight" horiz-adv-x="557" unicode="8" /><glyph d="M228 171.5C274.5 149.75 311 123.25 311 88.75C311 51.5 270 18.75 207.5 18.75C153.75 18.75 124.25 42.75 124.25 75C124.25 118.5 179.5 154.75 228 171.5ZM272 366.25C313.25 366.25 343.5 345.75 343.5 313.25C343.5 278 306.5 241.5 251.25 218.75C212.75 236.75 185.5 265 185.5 297.25C185.5 339 225.75 366.25 272 366.25ZM198.25 -18C299 -18 372.5 32.25 372.5 94.75C372.5 142.5 331.25 176 289.25 196.75V198C357.5 224.5 402.5 271.5 402.5 318C402.5 366.25 357.25 404 282.75 404C198.75 404 125.25 355.75 125.25 291C125.25 248.25 158 218.25 194.75 196V194.75C113.5 167.5 63.25 120 63.25 69C63.25 17.5 115.25 -18 198.25 -18Z" glyph-name="eight.denominator" horiz-adv-x="399" /><glyph d="M265.75 314.75C340.75 280.25 398.5 239.25 398.5 177.5C398.5 106.25 323.25 42 220.5 42C142 42 89.75 79.5 89.75 135.75C89.75 201.25 159 272.25 265.75 314.75ZM343.75 644.25C412.25 644.25 457.25 607 457.25 551C457.25 482.25 393 420.5 300.75 379.75C236.75 410.5 190 455.5 190 514.25C190 586.75 258.75 644.25 343.75 644.25ZM207.75 -10C359.75 -10 474.75 83.75 474.75 187.75C474.75 263.75 412.75 318 344.25 350.5L345.25 352C454.25 395 531 472.25 531 557.75C531 637.25 463.5 696.25 357 696.25C227.25 696.25 115.75 608.5 115.75 501.75C115.75 431 165.5 381.5 222.75 347.5L222.5 346C99.75 299.5 14.5 215.25 14.5 128.25C14.5 45.75 91.25 -10 207.75 -10Z" glyph-name="eight.lf" horiz-adv-x="559.75" /><glyph d="M292 473.5C338.5 451.75 375 425.25 375 390.75C375 353.5 334 320.75 271.5 320.75C217.75 320.75 188.25 344.75 188.25 377C188.25 420.5 243.5 456.75 292 473.5ZM336 668.25C377.25 668.25 407.5 647.75 407.5 615.25C407.5 580 370.5 543.5 315.25 520.75C276.75 538.75 249.5 567 249.5 599.25C249.5 641 289.75 668.25 336 668.25ZM262.25 284C363 284 436.5 334.25 436.5 396.75C436.5 444.5 395.25 478 353.25 498.75V500C421.5 526.5 466.5 573.5 466.5 620C466.5 668.25 421.25 706 346.75 706C262.75 706 189.25 657.75 189.25 593C189.25 550.25 222 520.25 258.75 498V496.75C177.5 469.5 127.25 422 127.25 371C127.25 319.5 179.25 284 262.25 284Z" glyph-name="eight.numerator" horiz-adv-x="399" /><glyph d="M266.75 320C344.25 275.5 395.75 240 395.75 176.25C395.75 94.75 312.25 41.25 215.5 41.25C135.75 41.25 90.5 77.5 90.5 136.25C90.5 220.75 184.5 279 266.75 320ZM348.25 642.75C417.25 642.75 456 608.75 456 556.5C456 480 372.75 423 299.25 386.5C237 425 191.5 459.5 191.5 517.25C191.5 588.5 260.75 642.75 348.25 642.75ZM15 128.25C15 38.75 93.25 -10.75 204.25 -10.75C350.25 -10.75 472.75 74.5 472.75 195C472.75 279.5 412.5 319 347.75 358.25L348 359.75C433.5 400.25 529 468.25 529 563.5C529 641.75 463.5 694.75 356.25 694.75C226 694.75 117 615.5 117 504.25C117 434 161.75 394.25 223.75 352.75L223.5 351.25C125.5 309.5 15 235.25 15 128.25Z" glyph-name="eight.osf" horiz-adv-x="557" /><glyph d="M224.5 244C290.25 213.75 333.75 181.75 333.75 136.5C333.75 81.5 272.25 38.75 188.25 38.75C116.25 38.75 81.5 70.5 81.5 111.5C81.5 162 132 210.5 224.5 244ZM282.75 500.5C343.5 500.5 377.5 470.5 377.5 430C377.5 383.25 332 335.75 253.5 304C202.5 327.5 160.75 367.75 160.75 412.5C160.75 465.5 218.25 500.5 282.75 500.5ZM178 -8C312.75 -8 406.5 61.5 406.5 143.25C406.5 204.5 353.25 249.5 296.25 276.75L296.5 278.25C384 311 447.75 370.75 447.75 435.5C447.75 496 392.75 547.25 292.5 547.25C183.75 547.25 90 486.75 90 405.75C90 348.75 135.5 302.25 182.75 274.5V273.25C77.75 236 9 173.5 9 103.5C9 38.75 67.75 -8 178 -8Z" glyph-name="eight.sc" horiz-adv-x="499.75" /><glyph d="M274.25 314.75C349.25 280.25 407 239.25 407 177.5C407 106.25 331.75 42 229 42C150.5 42 98.25 79.5 98.25 135.75C98.25 201.25 167.5 272.25 274.25 314.75ZM352.25 644.25C420.75 644.25 465.75 607 465.75 551C465.75 482.25 401.5 420.5 309.25 379.75C245.25 410.5 198.5 455.5 198.5 514.25C198.5 586.75 267.25 644.25 352.25 644.25ZM216.25 -10C368.25 -10 483.25 83.75 483.25 187.75C483.25 263.75 421.25 318 352.75 350.5L353.75 352C462.75 395 539.5 472.25 539.5 557.75C539.5 637.25 472 696.25 365.5 696.25C235.75 696.25 124.25 608.5 124.25 501.75C124.25 431 174 381.5 231.25 347.5L231 346C108.25 299.5 23 215.25 23 128.25C23 45.75 99.75 -10 216.25 -10Z" glyph-name="eight.tf" horiz-adv-x="545" /><glyph d="M262.5 244C328.25 213.75 371.75 181.75 371.75 136.5C371.75 81.5 310.25 38.75 226.25 38.75C154.25 38.75 119.5 70.5 119.5 111.5C119.5 162 170 210.5 262.5 244ZM320.75 500.5C381.5 500.5 415.5 470.5 415.5 430C415.5 383.25 370 335.75 291.5 304C240.5 327.5 198.75 367.75 198.75 412.5C198.75 465.5 256.25 500.5 320.75 500.5ZM216 -8C350.75 -8 444.5 61.5 444.5 143.25C444.5 204.5 391.25 249.5 334.25 276.75L334.5 278.25C422 311 485.75 370.75 485.75 435.5C485.75 496 430.75 547.25 330.5 547.25C221.75 547.25 128 486.75 128 405.75C128 348.75 173.5 302.25 220.75 274.5V273.25C115.75 236 47 173.5 47 103.5C47 38.75 105.75 -8 216 -8Z" glyph-name="eight.tf.sc" horiz-adv-x="545" /><glyph d="M276 320C353.5 275.5 405 240 405 176.25C405 94.75 321.5 41.25 224.75 41.25C145 41.25 99.75 77.5 99.75 136.25C99.75 220.75 193.75 279 276 320ZM357.5 642.75C426.5 642.75 465.25 608.75 465.25 556.5C465.25 480 382 423 308.5 386.5C246.25 425 200.75 459.5 200.75 517.25C200.75 588.5 270 642.75 357.5 642.75ZM24.25 128.25C24.25 38.75 102.5 -10.75 213.5 -10.75C359.5 -10.75 482 74.5 482 195C482 279.5 421.75 319 357 358.25L357.25 359.75C442.75 400.25 538.25 468.25 538.25 563.5C538.25 641.75 472.75 694.75 365.5 694.75C235.25 694.75 126.25 615.5 126.25 504.25C126.25 434 171 394.25 233 352.75L232.75 351.25C134.75 309.5 24.25 235.25 24.25 128.25Z" glyph-name="eight.tosf" horiz-adv-x="545" /><glyph d="M215 109.5C261.5 87.75 298 61.25 298 26.75C298 -10.5 257 -43.25 194.5 -43.25C140.75 -43.25 111.25 -19.25 111.25 13C111.25 56.5 166.5 92.75 215 109.5ZM259 304.25C300.25 304.25 330.5 283.75 330.5 251.25C330.5 216 293.5 179.5 238.25 156.75C199.75 174.75 172.5 203 172.5 235.25C172.5 277 212.75 304.25 259 304.25ZM185.25 -80C286 -80 359.5 -29.75 359.5 32.75C359.5 80.5 318.25 114 276.25 134.75V136C344.5 162.5 389.5 209.5 389.5 256C389.5 304.25 344.25 342 269.75 342C185.75 342 112.25 293.75 112.25 229C112.25 186.25 145 156.25 181.75 134V132.75C100.5 105.5 50.25 58 50.25 7C50.25 -44.5 102.25 -80 185.25 -80Z" glyph-name="eightinferior" horiz-adv-x="399" unicode="&#8328;" /><glyph d="M305 533.5C351.5 511.75 388 485.25 388 450.75C388 413.5 347 380.75 284.5 380.75C230.75 380.75 201.25 404.75 201.25 437C201.25 480.5 256.5 516.75 305 533.5ZM349 728.25C390.25 728.25 420.5 707.75 420.5 675.25C420.5 640 383.5 603.5 328.25 580.75C289.75 598.75 262.5 627 262.5 659.25C262.5 701 302.75 728.25 349 728.25ZM275.25 344C376 344 449.5 394.25 449.5 456.75C449.5 504.5 408.25 538 366.25 558.75V560C434.5 586.5 479.5 633.5 479.5 680C479.5 728.25 434.25 766 359.75 766C275.75 766 202.25 717.75 202.25 653C202.25 610.25 235 580.25 271.75 558V556.75C190.5 529.5 140.25 482 140.25 431C140.25 379.5 192.25 344 275.25 344Z" glyph-name="eightsuperior" horiz-adv-x="399" unicode="&#8312;" /><glyph d="M173.25 67C173.25 91.75 156 108.25 130.5 108.25C92.25 108.25 53.25 70.75 53.25 32.5C53.25 7.5 71.75 -10 97.75 -10C136 -10 173.25 28.25 173.25 67ZM333.75 67C333.75 91.75 316.5 108.25 291 108.25C252.75 108.25 213.75 70.75 213.75 32.5C213.75 7.5 232.25 -10 258.25 -10C296.5 -10 333.75 28.25 333.75 67ZM494.25 67C494.25 91.75 477 108.25 451.5 108.25C413.25 108.25 374.25 70.75 374.25 32.5C374.25 7.5 392.75 -10 418.75 -10C457 -10 494.25 28.25 494.25 67Z" glyph-name="ellipsis" horiz-adv-x="526.5" unicode="&#8230;" /><glyph d="M379.75 125C338.75 81 287.25 45.75 233.75 45.75C167 45.75 130.5 99.5 130.5 177.5C130.5 290 207.75 455.5 305.25 455.5C342.25 455.5 366.25 432.5 366.25 394.75C366.25 337 314.75 261.5 122.25 249.75L118.75 216.5C354.75 224 439.25 311 439.25 399.25C439.25 466.5 390.5 506.25 319.25 506.25C171.75 506.25 52 331.5 52 171.75C52 53.25 118 -10 208.75 -10C278.75 -10 352.5 28.75 398 97ZM282.5 496.25ZM321 10ZM202.75 0ZM200.5 638.5H424.25L436.25 694.5H212.5ZM282.5 496.25ZM324.75 694.5Z" glyph-name="emacron" horiz-adv-x="464" unicode="&#275;" /><glyph d="M150.5 0 265.5 539.25H183.75C179.5 494.75 173 457 164 415L75.5 0ZM503.75 539.25H264.25L252.5 484.5L497.75 479.25L510.75 530.75ZM420.75 295.5 211.25 293 201 242.5 407.25 239.5ZM417.25 60 161.25 54.75 149.5 0H404.5ZM129 522.5ZM345.75 527.5ZM399.75 13.75ZM246.5 11.25ZM263.75 669.75H487.5L499.5 725.75H275.75ZM345.75 527.5ZM388 725.75Z" glyph-name="emacron.sc" horiz-adv-x="442.5" /><glyph d="M87.5 272H824L832 310.75H95.5Z" glyph-name="emdash" horiz-adv-x="796.5" unicode="&#8212;" /><glyph d="M102.5 344H839L847 382.75H110.5Z" glyph-name="emdash.caps" horiz-adv-x="796.5" /><glyph d="M87.5 270H824L832 308.75H95.5Z" glyph-name="emdash.sc" horiz-adv-x="797.5" /><glyph d="M65.25 272H521.88L526.84 310.75H70.21Z" glyph-name="endash" horiz-adv-x="516.25" unicode="&#8211;" /><glyph d="M80.25 344H536.88L541.84 382.75H85.21Z" glyph-name="endash.caps" horiz-adv-x="517.5" /><glyph d="M64.25 269H520.88L525.84 307.75H69.21Z" glyph-name="endash.sc" horiz-adv-x="515.5" /><glyph d="M135.25 0C140.5 224.75 231.25 441.75 351.5 441.75C409.25 441.75 413.75 392.75 392.25 287C363.25 144 350.25 76 350.25 0L438.25 151L480.25 350C500.5 445.75 468 506.25 391 506.25C322.75 506.25 243.25 458.75 192.5 355.25H190.25C201.25 408 209.25 460.5 209.25 506.25L125.25 496.25L117.25 359C73.5 163.25 61 80.5 60.25 0ZM267 -214.75C371.5 -130.25 390 -77 438.25 151L407.5 359L334 15C314.75 -75.25 277.5 -137.75 241.5 -184ZM324.75 496.25ZM251.75 0Z" glyph-name="eng" horiz-adv-x="532.75" unicode="&#331;" /><glyph d="M349 -148.5C447 -107.25 496 -49.5 519.5 62L440.25 42C423 -38 379.5 -87.5 332.75 -118ZM365.75 317C328.75 397 293.5 476.25 261.75 546.5L183.75 539.25C179.75 500.5 172.75 456.75 164 415L75.5 0H148L203.25 259.75C215.75 319 227.5 374.25 235.75 440.5H237.25C262.25 362 293.75 299 327.5 228C361.75 155.25 395.75 78.5 431.5 0L519.5 62L620.25 538.25L613.5 546.75L541.75 539.25C537.5 502.75 528 443 517.75 396C462.25 135.75 469.25 160.25 460.25 96.5H458.75C436.75 170.25 414.5 211.5 365.75 317ZM403.5 529.25ZM283.25 0Z" glyph-name="eng.sc" horiz-adv-x="581.5" /><glyph d="M331 27.5 329.25 44.5C193.5 -22.5 78.25 -103.25 78.25 -186.25C78.25 -228.25 109.5 -253.75 158.5 -253.75C205.25 -253.75 247.75 -229.25 279 -197.75L275 -173.5C242.5 -195.75 216.5 -206.25 193.25 -206.25C162.5 -206.25 149.5 -191.25 149.5 -167C149.5 -113.25 216.75 -45.25 331 27.5ZM379.75 125C338.75 81 287.25 45.75 233.75 45.75C167 45.75 130.5 99.5 130.5 177.5C130.5 290 207.75 455.5 305.25 455.5C342.25 455.5 366.25 432.5 366.25 394.75C366.25 337 314.75 261.5 122.25 249.75L118.75 216.5C354.75 224 439.25 311 439.25 399.25C439.25 466.5 390.5 506.25 319.25 506.25C171.75 506.25 52 331.5 52 171.75C52 53.25 118 -10 208.75 -10C278.75 -10 352.5 28.75 398 97ZM282.5 496.25ZM321 10ZM202.75 0ZM321 10Z" glyph-name="eogonek" horiz-adv-x="464" unicode="&#281;" /><glyph d="M404.5 0 394 15.5C277.75 -29.25 155.75 -104.25 155.75 -185.5C155.75 -224.5 184.75 -250 231.5 -250C278.25 -250 323.75 -225.5 356.5 -194L352.5 -169.75C317 -192 288.25 -202.5 263.25 -202.5C237.25 -202.5 227 -189.25 227 -170.75C227 -116 310 -54.25 404.5 0ZM150.5 0 265.5 539.25H183.75C179.5 494.75 173 457 164 415L75.5 0ZM503.75 539.25H264.25L252.5 484.5L497.75 479.25L510.75 530.75ZM420.75 295.5 211.25 293 201 242.5 407.25 239.5ZM417.25 60 161.25 54.75 149.5 0H404.5ZM129 522.5ZM345.75 527.5ZM399.75 13.75ZM246.5 11.25ZM399.75 13.75Z" glyph-name="eogonek.sc" horiz-adv-x="442.5" /><glyph d="M514.75 340.75 530.5 387.5 526 393.25C420 393.25 177.25 391.25 75.25 388.25L64.75 340.75ZM474.75 152.75 489.75 199.5 486 205.25C380 205.25 137.5 203.25 34.5 200.25L24.75 152.75Z" glyph-name="equal" horiz-adv-x="545" unicode="=" /><glyph d="M530.75 416.75 546.5 463.5 542 469.25C436 469.25 193.25 467.25 91.25 464.25L80.75 416.75ZM490.75 228.75 505.75 275.5 502 281.25C396 281.25 153.5 279.25 50.5 276.25L40.75 228.75Z" glyph-name="equal.lf" horiz-adv-x="545" /><glyph d="M526.75 416.75 542.5 463.5 538 469.25C432 469.25 189.25 467.25 87.25 464.25L76.75 416.75ZM486.75 228.75 501.75 275.5 498 281.25C392 281.25 149.5 279.25 46.5 276.25L36.75 228.75Z" glyph-name="equal.osf" horiz-adv-x="545" /><glyph d="M514.75 340.75 530.5 387.5 526 393.25C420 393.25 177.25 391.25 75.25 388.25L64.75 340.75ZM474.75 152.75 489.75 199.5 486 205.25C380 205.25 137.5 203.25 34.5 200.25L24.75 152.75Z" glyph-name="equal.sc" horiz-adv-x="600" /><glyph d="M223.5 -10C388.25 -10 513 153.5 513 367.5C513 526.75 430 655.5 285.5 704L258 653.5C381.25 598.75 455.25 467.25 435.25 318L455.75 283.75C447.75 388.75 380 431.5 303 431.5C170.75 431.5 53 301 53 152C53 50.75 120.75 -10 223.5 -10ZM306.5 377.25C373.25 377.25 417.25 328.25 417.25 255.75C417.25 146.25 332.5 47 239.75 47C176.75 47 132.75 88.25 132.75 161.25C132.75 276.25 213.5 377.25 306.5 377.25ZM482.3055 700.3796 471.01 744.3628 187.8435 547.1214 198.36 503.1382ZM335.464 623.8871Z" glyph-name="eth" horiz-adv-x="570.5" unicode="&#240;" /><glyph d="M150.5 0 265.5 539.25H183.75C179.5 494.75 173 457 164 415L75.5 0ZM584.5 337.25C584.5 465.25 490 539.25 352.75 539.25H219.25L206.75 483.75H333.5C443 483.75 504.75 424.25 504.75 328.75C504.75 173.25 392.5 55.5 245.5 55.5H121.25L109.5 0H230.5C426 0 584.5 151 584.5 337.25ZM402.25 527.5ZM215.25 265ZM284.5 11.25ZM366.875 242.5 374.7375 287.5H63.2125L55.35 242.5ZM215.15 265Z" glyph-name="eth.sc" horiz-adv-x="579.5" /><glyph d="M379.75 125C338.75 81 287.25 45.75 233.75 45.75C167 45.75 130.5 99.5 130.5 177.5C130.5 290 207.75 455.5 305.25 455.5C342.25 455.5 366.25 432.5 366.25 394.75C366.25 337 314.75 261.5 122.25 249.75L118.75 216.5C354.75 224 439.25 311 439.25 399.25C439.25 466.5 390.5 506.25 319.25 506.25C171.75 506.25 52 331.5 52 171.75C52 53.25 118 -10 208.75 -10C278.75 -10 352.5 28.75 398 97ZM282.5 496.25ZM321 10ZM202.75 0ZM269.5 720.25C215.5 720.25 176.75 658.25 164.25 608.5L184.75 604.5C202 635.5 225.25 659.5 251 659.5C290.75 659.5 316.25 601.75 366.75 601.75C416.5 601.75 457.5 661 470.25 713.5L449.75 717.5C433 687.5 409.75 662.5 383.75 662.5C342.5 662.5 321.5 720.25 269.5 720.25ZM282.5 496.25ZM330.25 721Z" glyph-name="etilde" horiz-adv-x="464" unicode="&#7869;" /><glyph d="M332.75 751.5C278.75 751.5 240 689.5 227.5 639.75L248 635.75C265.25 666.75 288.5 690.75 314.25 690.75C354 690.75 379.5 633 430 633C479.75 633 520.75 692.25 533.5 744.75L513 748.75C496.25 718.75 473 693.75 447 693.75C405.75 693.75 384.75 751.5 332.75 751.5ZM345.75 527.5ZM393.5 752.25ZM150.5 0 265.5 539.25H183.75C179.5 494.75 173 457 164 415L75.5 0ZM503.75 539.25H264.25L252.5 484.5L497.75 479.25L510.75 530.75ZM420.75 295.5 211.25 293 201 242.5 407.25 239.5ZM417.25 60 161.25 54.75 149.5 0H404.5ZM129 522.5ZM345.75 527.5ZM399.75 13.75ZM246.5 11.25Z" glyph-name="etilde.sc" horiz-adv-x="442.5" /><glyph d="M512.25 109C467.5 78.25 406.25 56 352.75 56C261 56 211 121 211 244.5C211 440.5 337.25 630.25 480.75 630.25C527 630.25 574.25 611.25 605 582.25L634.5 652.5C600.75 681 544.5 696.25 494 696.25C297 696.25 127 466.75 127 227C127 67.75 202.25 -10 327.5 -10C387.25 -10 455.75 8.25 508 43.5ZM100 383.25H465.5L479.25 428.25H114.75ZM56.5 243H422L435 288H70.5Z" glyph-name="euro" horiz-adv-x="589.75" unicode="&#8364;" /><glyph d="M512.25 109C467.5 78.25 406.25 56 352.75 56C261 56 211 121 211 244.5C211 440.5 337.25 630.25 480.75 630.25C527 630.25 574.25 611.25 605 582.25L634.5 652.5C600.75 681 544.5 696.25 494 696.25C297 696.25 127 466.75 127 227C127 67.75 202.25 -10 327.5 -10C387.25 -10 455.75 8.25 508 43.5ZM100 383.25H465.5L479.25 428.25H114.75ZM56.5 243H422L435 288H70.5Z" glyph-name="euro.lf" horiz-adv-x="569.75" /><glyph d="M120.75 308.75H490.5L502.25 346.25H133.25ZM80 191.25H449.75L461.5 228.75H92.5ZM555.75 94C514.75 71 460.25 54.5 407.25 54.5C311.5 54.5 263.25 112.5 263.25 201.75C263.25 356 370.25 484.75 497.5 484.75C547.25 484.75 590.25 470.5 620 447.5L649 513.25C615 535.25 561 547.25 508 547.25C332 547.25 183 380.5 183 183.25C183 61 258 -8 382.5 -8C441.25 -8 504 5.5 552 32.75ZM477 527.5ZM372.75 11.25Z" glyph-name="euro.osf" horiz-adv-x="583.75" /><glyph d="M86.25 308.75H456L467.75 346.25H98.75ZM45.5 191.25H415.25L427 228.75H58ZM521.25 94C480.25 71 425.75 54.5 372.75 54.5C277 54.5 228.75 112.5 228.75 201.75C228.75 356 335.75 484.75 463 484.75C512.75 484.75 555.75 470.5 585.5 447.5L614.5 513.25C580.5 535.25 526.5 547.25 473.5 547.25C297.5 547.25 148.5 380.5 148.5 183.25C148.5 61 223.5 -8 348 -8C406.75 -8 469.5 5.5 517.5 32.75ZM442.5 527.5ZM338.25 11.25Z" glyph-name="euro.sc" horiz-adv-x="599.75" /><glyph d="M477.5 109C432.75 78.25 371.5 56 318 56C226.25 56 176.25 121 176.25 244.5C176.25 440.5 302.5 630.25 446 630.25C492.25 630.25 539.5 611.25 570.25 582.25L599.75 652.5C566 681 509.75 696.25 459.25 696.25C262.25 696.25 92.25 466.75 92.25 227C92.25 67.75 167.5 -10 292.75 -10C352.5 -10 421 8.25 473.25 43.5ZM65.25 383.25H430.75L444.5 428.25H80ZM21.75 243H387.25L400.25 288H35.75Z" glyph-name="euro.tf" horiz-adv-x="545" /><glyph d="M35.25 308.75H405L416.75 346.25H47.75ZM-5.5 191.25H364.25L376 228.75H7ZM470.25 94C429.25 71 374.75 54.5 321.75 54.5C226 54.5 177.75 112.5 177.75 201.75C177.75 356 284.75 484.75 412 484.75C461.75 484.75 504.75 470.5 534.5 447.5L563.5 513.25C529.5 535.25 475.5 547.25 422.5 547.25C246.5 547.25 97.5 380.5 97.5 183.25C97.5 61 172.5 -8 297 -8C355.75 -8 418.5 5.5 466.5 32.75ZM391.5 527.5ZM287.25 11.25Z" glyph-name="euro.tf.sc" horiz-adv-x="545" /><glyph d="M39.25 308.75H409L420.75 346.25H51.75ZM-1.5 191.25H368.25L380 228.75H11ZM474.25 94C433.25 71 378.75 54.5 325.75 54.5C230 54.5 181.75 112.5 181.75 201.75C181.75 356 288.75 484.75 416 484.75C465.75 484.75 508.75 470.5 538.5 447.5L567.5 513.25C533.5 535.25 479.5 547.25 426.5 547.25C250.5 547.25 101.5 380.5 101.5 183.25C101.5 61 176.5 -8 301 -8C359.75 -8 422.5 5.5 470.5 32.75ZM395.5 527.5ZM291.25 11.25Z" glyph-name="euro.tosf" horiz-adv-x="545" /><glyph d="M142.75 176.5C193.75 350.25 231.5 505.75 273.5 687.5L266.5 696.25L176.5 686.25C174.75 620 163.75 575.75 96.25 176.5ZM148.4062 16.4937C148.4062 39.65 135.2438 54.0312 112.0875 54.0312C76.9875 54.0312 41.4 16.0063 41.4 -21.2875C41.4 -43.9562 55.2938 -60.5312 79.425 -60.5312C118.6688 -60.5312 148.4062 -19.3375 148.4062 16.4937ZM63.5813 -165.8312ZM118.425 89.8625ZM119.8875 182ZM85.7625 23.3187Z" glyph-name="exclam" horiz-adv-x="268" unicode="!" /><glyph d="M142.75 176.5C193.75 350.25 231.5 505.75 273.5 687.5L266.5 696.25L176.5 686.25C174.75 620 163.75 575.75 96.25 176.5ZM148.4062 16.4937C148.4062 39.65 135.2438 54.0312 112.0875 54.0312C76.9875 54.0312 41.4 16.0063 41.4 -21.2875C41.4 -43.9562 55.2938 -60.5312 79.425 -60.5312C118.6688 -60.5312 148.4062 -19.3375 148.4062 16.4937ZM63.5813 -165.8312ZM118.425 89.8625ZM119.8875 182ZM85.7625 23.3187Z" glyph-name="exclam.caps" horiz-adv-x="268" /><glyph d="M142.75 176.5C182 295.75 214.5 423.5 240.75 533L234 541.75L143.75 531.75C143.25 486.5 140.25 459.25 96.25 176.5ZM147.6562 16.4937C147.6562 39.65 134.4938 54.0312 111.3375 54.0312C76.2375 54.0312 40.65 16.0063 40.65 -21.2875C40.65 -43.9562 54.5438 -60.5312 78.675 -60.5312C117.9188 -60.5312 147.6562 -19.3375 147.6562 16.4937ZM62.8313 -165.8312ZM117.675 89.8625ZM119.1375 182ZM85.0125 23.3187Z" glyph-name="exclam.sc" horiz-adv-x="267.25" /><glyph d="M125.25 319.75C74.25 146 36.5 -9.5 -5.5 -191.25L1.5 -200L91.5 -190C93.25 -123.75 104.25 -79.5 171.75 319.75ZM119.5937 479.7563C119.5937 456.6 132.7562 442.2188 155.9125 442.2188C191.0125 442.2188 226.6 480.2437 226.6 517.5375C226.6 540.2062 212.7062 556.7812 188.575 556.7812C149.3312 556.7812 119.5937 515.5875 119.5937 479.7563ZM204.4187 662.0812ZM149.575 406.3875ZM148.1125 314.25ZM182.2375 472.9312Z" glyph-name="exclamdown" horiz-adv-x="268" unicode="&#161;" /><glyph d="M178.25 509.75C127.25 336 89.5 180.5 47.5 -1.25L54.5 -10L144.5 0C146.25 66.25 157.25 110.5 224.75 509.75ZM172.5937 669.7563C172.5937 646.6 185.7562 632.2188 208.9125 632.2188C244.0125 632.2188 279.6 670.2437 279.6 707.5375C279.6 730.2062 265.7062 746.7812 241.575 746.7812C202.3312 746.7812 172.5937 705.5875 172.5937 669.7563ZM257.4187 852.0812ZM202.575 596.3875ZM201.1125 504.25ZM235.2375 662.9312Z" glyph-name="exclamdown.caps" horiz-adv-x="268.5" /><glyph d="M132.5 355.25C93.25 236 60.75 108.25 34.5 -1.25L41.25 -10L131.5 0C132 45.25 135 72.5 179 355.25ZM127.5937 515.2563C127.5937 492.1 140.7562 477.7188 163.9125 477.7188C199.0125 477.7188 234.6 515.7437 234.6 553.0375C234.6 575.7062 220.7062 592.2812 196.575 592.2812C157.3312 592.2812 127.5937 551.0875 127.5937 515.2563ZM212.4187 697.5812ZM157.575 441.8875ZM156.1125 349.75ZM190.2375 508.4312Z" glyph-name="exclamdown.sc" horiz-adv-x="267.75" /><glyph d="M133.5 29.5 231.5 491.25H230C234.75 518 243 563.25 247 583.5C263 655.25 295.75 696.75 360.25 696.75C399.5 696.75 430.5 682.25 452 665.5L483.5 728.25C455.5 745.75 416 756.25 374.25 756.25C267 756.25 196 691 172.75 582.25C168.75 563.75 162.75 526 156.5 491.25L55.5 15ZM146.75 445.25H213.5L356 441.75L367.75 483L362.75 491.25H156.5L79.5 481L72.5 448ZM-11.5 -214.75C65.5 -157 109.75 -83.5 133.5 29.5L55.5 15C36.25 -75.25 -1 -137.75 -37 -184Z" glyph-name="f" horiz-adv-x="339.25" unicode="f" /><glyph d="M85.75 -41.5 161.25 313.25H160.75C166 344 170.25 367.25 174 386C185.5 438 213 470.25 268.25 470.25C300.75 470.25 327.75 459 346.5 446.25L372 498.75C348.25 512.25 313.25 520.5 278.5 520.5C187.75 520.5 128 469 110.25 383.25C106.5 365 102.75 339.75 97.5 313.25L18.75 -55.25ZM90.25 274.75H147L268.25 272.25L277.5 305.75L272.75 313.25H97.5L32.25 304.75L26.5 277.5ZM-34.25 -239C30.25 -192.75 66 -132.75 85.75 -41.5L18.75 -55.25C3.5 -127.5 -27.5 -175.75 -56.75 -213.25Z" glyph-name="f.inferior" horiz-adv-x="277.75" /><glyph d="M150.5 0 265.5 539.25H183.75C179.5 494.75 173 457 164 415L75.5 0ZM498 539.25H265.5L253.75 484.5L492.75 479.25L505 530.75ZM413.25 284.5 210.75 282.5 200 231.5 399.75 228.25Z" glyph-name="f.sc" horiz-adv-x="420.5" /><glyph d="M162.5 318.5 238 673.25H237.5C242.75 704 247 727.25 250.75 746C262.25 798 289.75 830.25 345 830.25C377.5 830.25 404.5 819 423.25 806.25L448.75 858.75C425 872.25 390 880.5 355.25 880.5C264.5 880.5 204.75 829 187 743.25C183.25 725 179.5 699.75 174.25 673.25L95.5 304.75ZM167 634.75H223.75L345 632.25L354.25 665.75L349.5 673.25H174.25L109 664.75L103.25 637.5ZM42.5 121C107 167.25 142.75 227.25 162.5 318.5L95.5 304.75C80.25 232.5 49.25 184.25 20 146.75Z" glyph-name="f.superior" horiz-adv-x="277.75" /><glyph d="M132.75 29.5 230.75 491.25H229.25C234.5 518.75 237.25 542.5 242 563.75C259.5 648.5 303.75 680.5 367.75 680.5C418 680.5 451.5 660.5 478 635.75L520.5 693.75C491.75 714.25 445.5 736.25 380 736.25C282.75 736.25 194.75 687.75 168.5 565.25C164 545 160.25 518 155.75 491.25L54.75 15ZM146 445.25H212.75H443.75L454.5 483L449.5 491.25H155.75L79.5 481L72.5 448ZM-12.25 -214.75C64.75 -157 109 -83.5 132.75 29.5L54.75 15C35.5 -75.25 -1.75 -137.75 -37.75 -184ZM401.25 29.5 499.25 491.25H497.75C502.5 518 510.75 563.25 514.75 583.5C530.75 655.25 563.5 696.75 628 696.75C667.25 696.75 698.25 682.25 719.75 665.5L751.25 728.25C723.25 745.75 683.75 756.25 642 756.25C534.75 756.25 463.75 691 440.5 582.25C436.5 563.75 430.5 526 424.25 491.25L323.25 15ZM414.5 445.25H481.25L623.75 441.75L635.5 483L630.5 491.25H424.25L347.25 481L340.25 448ZM256.25 -214.75C333.25 -157 377.5 -83.5 401.25 29.5L323.25 15C304 -75.25 266.75 -137.75 230.75 -184Z" glyph-name="f_f" horiz-adv-x="607" /></font>
</defs>
</svg>
