<?xml version="1.0" standalone="no"?><!DOCTYPE svg PUBLIC "-//W3C//DTD SVG 1.1//EN" "http://www.w3.org/Graphics/SVG/1.1/DTD/svg11.dtd" ><svg version="1.1" xmlns="http://www.w3.org/2000/svg"><defs><font horiz-adv-x="0" id="font"><font-face ascent="746" bbox="-102 -330 3477 1144.5" cap-height="686" descent="-246" font-family="Indivisa Text Serif" font-stretch="normal" font-style="normal" font-weight="400" units-per-em="1000" x-height="496" /><missing-glyph d="M100 0H580V746.25H100ZM140 40V706.25H540V40ZM513 725.25 122 23H167L558 725.25ZM122 725.25 513 23H558L167 725.25Z" horiz-adv-x="680" /><glyph d="M332.75 686.25 116.5 75C109.5 54 100 43.5 80.25 37.25C77 35 31 23.5 26 21.25L28 0H229L231 21.25L129.25 48.75L142.25 25.5L344 614H326.25L522.25 42.5L439 21.25L441 0H684.25L686.25 21.25L635.25 35C614.25 41.25 604.5 50 595.75 75.25L379.5 686.25ZM203.75 275V237L465.75 240.75V274.5ZM354.25 686.25ZM684.25 0ZM336.5 0Z" glyph-name="A" horiz-adv-x="712.25" unicode="A" /><glyph d="M239.25 360.5V322.5L471.25 326.25V360ZM530.25 0H830.75C835 26.25 837.5 59.5 837.5 94C837.5 127.5 835.5 157.25 831.5 183.75H812.75L789.75 112.5C785.5 103.5 768 46.25 764 41C738.75 38 699 36.25 663.5 36.25H530.25ZM530.25 686.25V650H653.5C689 650 728.75 647.5 754 645.25C758 640 775.5 582.75 779.75 573.75L802.75 502.5H821.5C825.5 531.25 827.5 558.75 827.5 592.25C827.5 626.75 825 660 820.75 686.25ZM530.25 361.25V326.25L739.5 320.75L741.75 367.5ZM28 0H229L231 21.25L129.25 48.75L142.25 25.5L359.75 661L340 650H452.5V114.25H530.25V686.25H236.25L234.25 665L316.75 641.5L116.5 75C109.5 54 100 43.5 80.25 37.25C77 35 31 23.5 26 21.25ZM530.25 0V114.25H452.5V71.5C452.5 49.75 445.25 42.25 421 34.75L370 21.25L372 0ZM531.5 686.25Z" glyph-name="AE" horiz-adv-x="895.5" unicode="&#198;" /><glyph d="M239.25 360.5V322.5L471.25 326.25V360ZM530.25 0H830.75C835 26.25 837.5 59.5 837.5 94C837.5 127.5 835.5 157.25 831.5 183.75H812.75L789.75 112.5C785.5 103.5 768 46.25 764 41C738.75 38 699 36.25 663.5 36.25H530.25ZM530.25 686.25V650H653.5C689 650 728.75 647.5 754 645.25C758 640 775.5 582.75 779.75 573.75L802.75 502.5H821.5C825.5 531.25 827.5 558.75 827.5 592.25C827.5 626.75 825 660 820.75 686.25ZM530.25 361.25V326.25L739.5 320.75L741.75 367.5ZM28 0H229L231 21.25L129.25 48.75L142.25 25.5L359.75 661L340 650H452.5V114.25H530.25V686.25H236.25L234.25 665L316.75 641.5L116.5 75C109.5 54 100 43.5 80.25 37.25C77 35 31 23.5 26 21.25ZM530.25 0V114.25H452.5V71.5C452.5 49.75 445.25 42.25 421 34.75L370 21.25L372 0ZM531.5 686.25ZM618.25 907C574.75 873.5 502.75 825.25 407.5 792.75L414 776C502 781.25 662 817.75 662 869.75C662 887.25 646.75 901.25 626.75 908.25ZM531.5 686.25ZM523.25 868Z" glyph-name="AEacute" horiz-adv-x="895.5" unicode="&#508;" /><glyph d="M332.75 686.25 116.5 75C109.5 54 100 43.5 80.25 37.25C77 35 31 23.5 26 21.25L28 0H229L231 21.25L129.25 48.75L142.25 25.5L344 614H326.25L522.25 42.5L439 21.25L441 0H684.25L686.25 21.25L635.25 35C614.25 41.25 604.5 50 595.75 75.25L379.5 686.25ZM203.75 275V237L465.75 240.75V274.5ZM354.25 686.25ZM684.25 0ZM336.5 0ZM441 907C397.5 873.5 325.5 825.25 230.25 792.75L236.75 776C324.75 781.25 484.75 817.75 484.75 869.75C484.75 887.25 469.5 901.25 449.5 908.25ZM354.25 686.25ZM346 868Z" glyph-name="Aacute" horiz-adv-x="712.25" unicode="&#193;" /><glyph d="M332.75 686.25 116.5 75C109.5 54 100 43.5 80.25 37.25C77 35 31 23.5 26 21.25L28 0H229L231 21.25L129.25 48.75L142.25 25.5L344 614H326.25L522.25 42.5L439 21.25L441 0H684.25L686.25 21.25L635.25 35C614.25 41.25 604.5 50 595.75 75.25L379.5 686.25ZM203.75 275V237L465.75 240.75V274.5ZM354.25 686.25ZM684.25 0ZM336.5 0ZM460.25 900.5C444.75 864 405.25 841.5 355.25 841.5C300.75 841.5 261 864.5 247.25 902.75L228.75 899.25C238.25 826.75 285.25 783.5 350 783.5C416.5 783.5 465.5 826.25 479.75 898.75L464.5 902.5ZM354.25 686.25Z" glyph-name="Abreve" horiz-adv-x="712.25" unicode="&#258;" /><glyph d="M332.75 686.25 116.5 75C109.5 54 100 43.5 80.25 37.25C77 35 31 23.5 26 21.25L28 0H229L231 21.25L129.25 48.75L142.25 25.5L344 614H326.25L522.25 42.5L439 21.25L441 0H684.25L686.25 21.25L635.25 35C614.25 41.25 604.5 50 595.75 75.25L379.5 686.25ZM203.75 275V237L465.75 240.75V274.5ZM354.25 686.25ZM684.25 0ZM336.5 0ZM335.5 815.75 377 817.25C322.5 846 266 884 221 914.5L206.5 904.25C245.5 857 291 807 325.5 771.25H377L384.25 776.25C404.5 803.75 458.75 861 501.25 902L488.75 914.5C437.25 885.75 367 838 335.5 815.75ZM354.25 686.25Z" glyph-name="Acaron" horiz-adv-x="712.25" unicode="&#461;" /><glyph d="M332.75 686.25 116.5 75C109.5 54 100 43.5 80.25 37.25C77 35 31 23.5 26 21.25L28 0H229L231 21.25L129.25 48.75L142.25 25.5L344 614H326.25L522.25 42.5L439 21.25L441 0H684.25L686.25 21.25L635.25 35C614.25 41.25 604.5 50 595.75 75.25L379.5 686.25ZM203.75 275V237L465.75 240.75V274.5ZM354.25 686.25ZM684.25 0ZM336.5 0ZM372.5 870 331 868.5C385.5 839.75 442 801.75 487 771.25L501.5 781.5C462.5 828.75 417 878.75 382.5 914.5H331L323.75 909.5C303.5 882 249.25 824.75 206.75 783.75L219.25 771.25C270.75 800 341 847.75 372.5 870ZM354.25 686.25Z" glyph-name="Acircumflex" horiz-adv-x="712.25" unicode="&#194;" /><glyph d="M332.75 686.25 116.5 75C109.5 54 100 43.5 80.25 37.25C77 35 31 23.5 26 21.25L28 0H229L231 21.25L129.25 48.75L142.25 25.5L344 614H326.25L522.25 42.5L439 21.25L441 0H684.25L686.25 21.25L635.25 35C614.25 41.25 604.5 50 595.75 75.25L379.5 686.25ZM203.75 275V237L465.75 240.75V274.5ZM354.25 686.25ZM684.25 0ZM336.5 0ZM506.75 846.5C506.75 873.5 488.25 892.75 460 892.75C428 892.75 404.5 866 404.5 836.25C404.5 810 423.25 788.5 452.5 788.5C487 788.5 506.75 816.25 506.75 846.5ZM304 846.5C304 873.5 285.5 892.75 257.25 892.75C225.25 892.75 201.75 866 201.75 836.25C201.75 810 220.5 788.5 249.75 788.5C284.25 788.5 304 816.25 304 846.5ZM354.25 686.25ZM353.25 916.25Z" glyph-name="Adieresis" horiz-adv-x="712.25" unicode="&#196;" /><glyph d="M332.75 686.25 116.5 75C109.5 54 100 43.5 80.25 37.25C77 35 31 23.5 26 21.25L28 0H229L231 21.25L129.25 48.75L142.25 25.5L344 614H326.25L522.25 42.5L439 21.25L441 0H684.25L686.25 21.25L635.25 35C614.25 41.25 604.5 50 595.75 75.25L379.5 686.25ZM203.75 275V237L465.75 240.75V274.5ZM354.25 686.25ZM684.25 0ZM336.5 0ZM388.25 -161.75C388.25 -130.5 369.75 -108.75 341.5 -108.75C309 -108.75 284.75 -138 284.75 -170.25C284.75 -200.25 304 -224 333.5 -224C368.25 -224 388.25 -194.5 388.25 -161.75ZM336.5 0Z" glyph-name="Adotbelow" horiz-adv-x="712.25" unicode="&#7840;" /><glyph d="M332.75 686.25 116.5 75C109.5 54 100 43.5 80.25 37.25C77 35 31 23.5 26 21.25L28 0H229L231 21.25L129.25 48.75L142.25 25.5L344 614H326.25L522.25 42.5L439 21.25L441 0H684.25L686.25 21.25L635.25 35C614.25 41.25 604.5 50 595.75 75.25L379.5 686.25ZM203.75 275V237L465.75 240.75V274.5ZM354.25 686.25ZM684.25 0ZM336.5 0ZM478.25 793.5C383 826 311 874.25 267.5 907.75L259 909C239 902 223.75 888 223.75 870.5C223.75 818.5 383.75 782 471.75 776.75ZM354.25 686.25Z" glyph-name="Agrave" horiz-adv-x="712.25" unicode="&#192;" /><glyph d="M332.75 686.25 116.5 75C109.5 54 100 43.5 80.25 37.25C77 35 31 23.5 26 21.25L28 0H229L231 21.25L129.25 48.75L142.25 25.5L344 614H326.25L522.25 42.5L439 21.25L441 0H684.25L686.25 21.25L635.25 35C614.25 41.25 604.5 50 595.75 75.25L379.5 686.25ZM203.75 275V237L465.75 240.75V274.5ZM354.25 686.25ZM684.25 0ZM336.5 0ZM215 816.5H493.5V867.25H215ZM354.25 686.25Z" glyph-name="Amacron" horiz-adv-x="712.25" unicode="&#256;" /><glyph d="M332.75 686.25 116.5 75C109.5 54 100 43.5 80.25 37.25C77 35 31 23.5 26 21.25L28 0H229L231 21.25L129.25 48.75L142.25 25.5L344 614H326.25L522.25 42.5L439 21.25L441 0H684.25L686.25 21.25L635.25 35C614.25 41.25 604.5 50 595.75 75.25L379.5 686.25ZM203.75 275V237L465.75 240.75V274.5ZM354.25 686.25ZM684.25 0ZM336.5 0ZM681.25 -181.25 677.25 -171C657.5 -175.5 644.75 -177.25 627.25 -177.25C592 -177.25 571.25 -158.5 571.25 -126.5C571.25 -82.75 609.25 -38.25 684.25 0L675.75 15.5C563.5 -24.5 504.75 -79.25 504.75 -143.25C504.75 -193.5 536.75 -224 587.5 -224C623.25 -224 659 -208 681.25 -181.25ZM684.25 0Z" glyph-name="Aogonek" horiz-adv-x="713.75" unicode="&#260;" /><glyph d="M332.75 686.25 116.5 75C109.5 54 100 43.5 80.25 37.25C77 35 31 23.5 26 21.25L28 0H229L231 21.25L129.25 48.75L142.25 25.5L344 614H326.25L522.25 42.5L439 21.25L441 0H684.25L686.25 21.25L635.25 35C614.25 41.25 604.5 50 595.75 75.25L379.5 686.25ZM203.75 275V237L465.75 240.75V274.5ZM354.25 686.25ZM684.25 0ZM336.5 0ZM350.5 766C402 766 440 800.25 441.5 847.25C443 890.75 407.25 922 357.75 922C305.25 922 267.25 889 267.25 841C267.25 796.25 301.25 766 350.5 766ZM354.5 895C380.75 895 399.5 874.75 399.5 847.5C399.5 816.25 380.75 793 353.5 793C327.25 793 308.5 813.25 308.5 841.5C308.5 871.75 327.25 895 354.5 895ZM354.25 686.25ZM354.75 916.25Z" glyph-name="Aring" horiz-adv-x="712.25" unicode="&#197;" /><glyph d="M332.75 686.25 116.5 75C109.5 54 100 43.5 80.25 37.25C77 35 31 23.5 26 21.25L28 0H229L231 21.25L129.25 48.75L142.25 25.5L344 614H326.25L522.25 42.5L439 21.25L441 0H684.25L686.25 21.25L635.25 35C614.25 41.25 604.5 50 595.75 75.25L379.5 686.25ZM203.75 275V237L465.75 240.75V274.5ZM354.25 686.25ZM684.25 0ZM336.5 0ZM350.5 766C402 766 440 800.25 441.5 847.25C443 890.75 407.25 922 357.75 922C305.25 922 267.25 889 267.25 841C267.25 796.25 301.25 766 350.5 766ZM354.5 895C380.75 895 399.5 874.75 399.5 847.5C399.5 816.25 380.75 793 353.5 793C327.25 793 308.5 813.25 308.5 841.5C308.5 871.75 327.25 895 354.5 895ZM354.25 686.25ZM354.75 916.25ZM441.5 1137C398 1103.5 326 1055.25 230.75 1022.75L237.25 1006C325.25 1011.25 485.25 1047.75 485.25 1099.75C485.25 1117.25 470 1131.25 450 1138.25ZM354.75 916.25ZM346.5 1098Z" glyph-name="Aringacute" horiz-adv-x="712.25" unicode="&#506;" /><glyph d="M332.75 686.25 116.5 75C109.5 54 100 43.5 80.25 37.25C77 35 31 23.5 26 21.25L28 0H229L231 21.25L129.25 48.75L142.25 25.5L344 614H326.25L522.25 42.5L439 21.25L441 0H684.25L686.25 21.25L635.25 35C614.25 41.25 604.5 50 595.75 75.25L379.5 686.25ZM203.75 275V237L465.75 240.75V274.5ZM354.25 686.25ZM684.25 0ZM336.5 0ZM234 845.25C276 839 399 778.5 456.75 778.5C507 778.5 529.75 822 538.75 887C538.75 891 538.5 893.75 538.25 896.75L522.75 902.75C507 875.75 484.25 846.5 474.5 831.5C430.25 837 311.75 898.25 251.75 898.25C202.25 898.25 177.25 854 168.25 787C168.25 784.5 168.5 781.75 168.75 779.25L184.25 774C199.25 800.25 225.75 836.25 234 845.25ZM354.25 686.25ZM352 928.25Z" glyph-name="Atilde" horiz-adv-x="712.25" unicode="&#195;" /><glyph d="M137.5 572V114.25H215.25V572ZM215.25 0V36.25H310C415.25 36.25 484.25 91.25 484.25 184.25C484.25 276 410 331.75 295 331.75H215.25V366.75H297.5C390.25 366.75 442.5 426.5 442.5 513C442.5 600.5 386 650 290 650H215.25V686.25H302.25C435 686.25 517.5 623.25 517.5 516.25C517.5 427.5 463.75 376.75 400.75 355.5C502.5 332.25 562.5 272.5 562.5 185.25C562.5 64 464.5 0 321.25 0ZM215.25 0V114.25H137.5V71.5C137.5 49.75 130.25 42.25 106 34.75L55 21.25L57 0ZM215.25 686.25H57L55 665L117.25 646C133.75 642.25 137.5 637.75 137.5 623.5V572H215.25Z" glyph-name="B" horiz-adv-x="612.5" unicode="B" /><glyph d="M404.25 -10C472.75 -10 530.75 2.5 572.75 18C577 41.75 578 68.25 578 96.75C578 123.25 575.75 156.5 571.25 183.75H552.5C534.25 135.5 515.25 86.25 495.25 41.75C473 36 454.25 31.25 407 31.25C245.5 31.25 139.75 151.5 139.25 341C138.75 533 254.5 654.75 402.5 654.75C441 654.75 460 650.75 484 644.25C502 599.5 519.5 550.25 537.5 500L556.25 500.5C562.75 536.5 565 579.25 565 608.5C565 631 563.5 650 560.25 665.75C520 683.75 466 696.25 396 696.25C207.25 696.25 58 560.75 58 341C58 119.75 190 -10 404.25 -10ZM360.75 686.25ZM377.5 0Z" glyph-name="C" horiz-adv-x="644" unicode="C" /><glyph d="M404.25 -10C472.75 -10 530.75 2.5 572.75 18C577 41.75 578 68.25 578 96.75C578 123.25 575.75 156.5 571.25 183.75H552.5C534.25 135.5 515.25 86.25 495.25 41.75C473 36 454.25 31.25 407 31.25C245.5 31.25 139.75 151.5 139.25 341C138.75 533 254.5 654.75 402.5 654.75C441 654.75 460 650.75 484 644.25C502 599.5 519.5 550.25 537.5 500L556.25 500.5C562.75 536.5 565 579.25 565 608.5C565 631 563.5 650 560.25 665.75C520 683.75 466 696.25 396 696.25C207.25 696.25 58 560.75 58 341C58 119.75 190 -10 404.25 -10ZM360.75 686.25ZM377.5 0ZM447.5 907C404 873.5 332 825.25 236.75 792.75L243.25 776C331.25 781.25 491.25 817.75 491.25 869.75C491.25 887.25 476 901.25 456 908.25ZM360.75 686.25ZM352.5 868Z" glyph-name="Cacute" horiz-adv-x="644" unicode="&#262;" /><glyph d="M404.25 -10C472.75 -10 530.75 2.5 572.75 18C577 41.75 578 68.25 578 96.75C578 123.25 575.75 156.5 571.25 183.75H552.5C534.25 135.5 515.25 86.25 495.25 41.75C473 36 454.25 31.25 407 31.25C245.5 31.25 139.75 151.5 139.25 341C138.75 533 254.5 654.75 402.5 654.75C441 654.75 460 650.75 484 644.25C502 599.5 519.5 550.25 537.5 500L556.25 500.5C562.75 536.5 565 579.25 565 608.5C565 631 563.5 650 560.25 665.75C520 683.75 466 696.25 396 696.25C207.25 696.25 58 560.75 58 341C58 119.75 190 -10 404.25 -10ZM360.75 686.25ZM377.5 0ZM342 815.75 383.5 817.25C329 846 272.5 884 227.5 914.5L213 904.25C252 857 297.5 807 332 771.25H383.5L390.75 776.25C411 803.75 465.25 861 507.75 902L495.25 914.5C443.75 885.75 373.5 838 342 815.75ZM360.75 686.25Z" glyph-name="Ccaron" horiz-adv-x="644" unicode="&#268;" /><glyph d="M404.25 -10C472.75 -10 530.75 2.5 572.75 18C577 41.75 578 68.25 578 96.75C578 123.25 575.75 156.5 571.25 183.75H552.5C534.25 135.5 515.25 86.25 495.25 41.75C473 36 454.25 31.25 407 31.25C245.5 31.25 139.75 151.5 139.25 341C138.75 533 254.5 654.75 402.5 654.75C441 654.75 460 650.75 484 644.25C502 599.5 519.5 550.25 537.5 500L556.25 500.5C562.75 536.5 565 579.25 565 608.5C565 631 563.5 650 560.25 665.75C520 683.75 466 696.25 396 696.25C207.25 696.25 58 560.75 58 341C58 119.75 190 -10 404.25 -10ZM360.75 686.25ZM377.5 0ZM346.5 -99C387.25 -108.5 403 -125.25 403 -144.5C403 -174.25 368.25 -195.25 320.5 -209.25L324.75 -224.25C407.5 -219 473.5 -189.25 473.5 -136.25C473.5 -100.5 439.5 -72.5 379 -62L381.75 -87.5L397.5 0H359L342.75 -92.75ZM377.5 0Z" glyph-name="Ccedilla" horiz-adv-x="644" unicode="&#199;" /><glyph d="M404.25 -10C472.75 -10 530.75 2.5 572.75 18C577 41.75 578 68.25 578 96.75C578 123.25 575.75 156.5 571.25 183.75H552.5C534.25 135.5 515.25 86.25 495.25 41.75C473 36 454.25 31.25 407 31.25C245.5 31.25 139.75 151.5 139.25 341C138.75 533 254.5 654.75 402.5 654.75C441 654.75 460 650.75 484 644.25C502 599.5 519.5 550.25 537.5 500L556.25 500.5C562.75 536.5 565 579.25 565 608.5C565 631 563.5 650 560.25 665.75C520 683.75 466 696.25 396 696.25C207.25 696.25 58 560.75 58 341C58 119.75 190 -10 404.25 -10ZM360.75 686.25ZM377.5 0ZM379 870 337.5 868.5C392 839.75 448.5 801.75 493.5 771.25L508 781.5C469 828.75 423.5 878.75 389 914.5H337.5L330.25 909.5C310 882 255.75 824.75 213.25 783.75L225.75 771.25C277.25 800 347.5 847.75 379 870ZM360.75 686.25Z" glyph-name="Ccircumflex" horiz-adv-x="644" unicode="&#264;" /><glyph d="M404.25 -10C472.75 -10 530.75 2.5 572.75 18C577 41.75 578 68.25 578 96.75C578 123.25 575.75 156.5 571.25 183.75H552.5C534.25 135.5 515.25 86.25 495.25 41.75C473 36 454.25 31.25 407 31.25C245.5 31.25 139.75 151.5 139.25 341C138.75 533 254.5 654.75 402.5 654.75C441 654.75 460 650.75 484 644.25C502 599.5 519.5 550.25 537.5 500L556.25 500.5C562.75 536.5 565 579.25 565 608.5C565 631 563.5 650 560.25 665.75C520 683.75 466 696.25 396 696.25C207.25 696.25 58 560.75 58 341C58 119.75 190 -10 404.25 -10ZM360.75 686.25ZM377.5 0ZM416.75 843.75C416.75 873 397 892.75 366 892.75C331.5 892.75 305.25 865.5 305.25 835.25C305.25 807.25 325.75 785.5 358 785.5C395.5 785.5 416.75 813 416.75 843.75ZM360.75 686.25Z" glyph-name="Cdotaccent" horiz-adv-x="644" unicode="&#266;" /><glyph d="M137.5 572V114.25H215.25V572ZM215.25 0H293C502 0 631.25 130 631.25 342.75C631.25 555.5 502.75 686.25 293 686.25H215.25V648.5H288.75C458.25 648.5 550.25 532.5 550 342.75C549.75 153 458.25 37.75 288.75 37.75H215.25ZM215.25 0V114.25H137.5V71.5C137.5 49.75 130.25 42.25 106 34.75L55 21.25L57 0ZM215.25 686.25H57L55 665L117.25 646C133.75 642.25 137.5 637.75 137.5 623.5V572H215.25ZM325 686.25ZM234.25 320.75ZM357.5 0Z" glyph-name="D" horiz-adv-x="689.25" unicode="D" /><glyph d="M137.5 572V114.25H215.25V572ZM215.25 0H293C502 0 631.25 130 631.25 342.75C631.25 555.5 502.75 686.25 293 686.25H215.25V648.5H288.75C458.25 648.5 550.25 532.5 550 342.75C549.75 153 458.25 37.75 288.75 37.75H215.25ZM215.25 0V114.25H137.5V71.5C137.5 49.75 130.25 42.25 106 34.75L55 21.25L57 0ZM215.25 686.25H57L55 665L117.25 646C133.75 642.25 137.5 637.75 137.5 623.5V572H215.25ZM325 686.25ZM234.25 320.75ZM357.5 0ZM306.25 815.75 347.75 817.25C293.25 846 236.75 884 191.75 914.5L177.25 904.25C216.25 857 261.75 807 296.25 771.25H347.75L355 776.25C375.25 803.75 429.5 861 472 902L459.5 914.5C408 885.75 337.75 838 306.25 815.75ZM325 686.25Z" glyph-name="Dcaron" horiz-adv-x="689.25" unicode="&#270;" /><glyph d="M413.7912 333.5V368.5H56.3825V333.5ZM234.7287 320.75ZM150.25 572V114.25H228V572ZM228 0H305.75C514.75 0 644 130 644 342.75C644 555.5 515.5 686.25 305.75 686.25H228V648.5H301.5C471 648.5 563 532.5 562.75 342.75C562.5 153 471 37.75 301.5 37.75H228ZM228 0V114.25H150.25V71.5C150.25 49.75 143 42.25 118.75 34.75L67.75 21.25L69.75 0ZM228 686.25H69.75L67.75 665L130 646C146.5 642.25 150.25 637.75 150.25 623.5V572H228ZM337.75 686.25ZM247 320.75ZM370.25 0Z" glyph-name="Dcroat" horiz-adv-x="702" unicode="&#272;" /><glyph d="M137.5 572V114.25H215.25V572ZM215.25 0H293C502 0 631.25 130 631.25 342.75C631.25 555.5 502.75 686.25 293 686.25H215.25V648.5H288.75C458.25 648.5 550.25 532.5 550 342.75C549.75 153 458.25 37.75 288.75 37.75H215.25ZM215.25 0V114.25H137.5V71.5C137.5 49.75 130.25 42.25 106 34.75L55 21.25L57 0ZM215.25 686.25H57L55 665L117.25 646C133.75 642.25 137.5 637.75 137.5 623.5V572H215.25ZM325 686.25ZM234.25 320.75ZM357.5 0ZM409.25 -161.75C409.25 -130.5 390.75 -108.75 362.5 -108.75C330 -108.75 305.75 -138 305.75 -170.25C305.75 -200.25 325 -224 354.5 -224C389.25 -224 409.25 -194.5 409.25 -161.75ZM357.5 0Z" glyph-name="Ddotbelow" horiz-adv-x="689.25" unicode="&#7692;" /><glyph d="M483.5 38.75H76L280 587.75ZM277.25 686.25 26 17 28 0H573.25L575.25 17L324 686.25Z" glyph-name="Delta" horiz-adv-x="601.25" unicode="&#916;" /><glyph d="M137.5 572V114.25H215.25V572ZM215.25 0H515.75C520 26.25 522.5 59.5 522.5 94C522.5 127.5 520.5 157.25 516.5 183.75H497.75L474.75 112.5C470.5 103.5 453 46.25 449 41C423.75 38 384 36.25 348.5 36.25H215.25ZM215.25 686.25V650H338.5C374 650 413.75 647.5 439 645.25C443 640 460.5 582.75 464.75 573.75L487.75 502.5H506.5C510.5 531.25 512.5 558.75 512.5 592.25C512.5 626.75 510 660 505.75 686.25ZM215.25 361.25V326.25L424.5 320.75L426.75 367.5ZM215.25 0V114.25H137.5V71.5C137.5 49.75 130.25 42.25 106 34.75L55 21.25L57 0ZM215.25 686.25H57L55 665L117.25 646C133.75 642.25 137.5 637.75 137.5 623.5V572H215.25ZM307.25 685.5ZM515.75 0ZM312 0Z" glyph-name="E" horiz-adv-x="580.5" unicode="E" /><glyph d="M137.5 572.429V114.3357H215.25V572.429ZM215.25 0H515.75C520 26.2697 522.5 59.5446 522.5 94.0705C522.5 127.5956 520.5 157.3679 516.5 183.8878H497.75L474.75 112.5844C470.5 103.5776 453 46.2847 449 41.0307C423.75 38.0285 384 36.2772 348.5 36.2772H215.25ZM215.25 686.7647V650.4875H338.5C374 650.4875 413.75 647.9856 439 645.7339C443 640.48 460.5 583.1871 464.75 574.1803L487.75 502.8769H506.5C510.5 531.6484 512.5 559.1691 512.5 592.6942C512.5 627.2201 510 660.495 505.75 686.7647ZM215.25 361.5209V326.4947L424.5 320.9906L426.75 367.7756ZM215.25 0V114.3357H137.5V71.5536C137.5 49.7873 130.25 42.2817 106 34.7761L55 21.2659L57 0ZM215.25 686.7647H57L55 665.4987L117.25 646.4845C133.75 642.7317 137.5 638.2283 137.5 623.9676V572.429H215.25ZM307.25 686.0141ZM515.75 0ZM312 0ZM394 906.25C350.5 872.75 278.5 824.5 183.25 792L189.75 775.25C277.75 780.5 437.75 817 437.75 869C437.75 886.5 422.5 900.5 402.5 907.5ZM307.25 685.5ZM299 867.25Z" glyph-name="Eacute" horiz-adv-x="580.5" unicode="&#201;" /><glyph d="M413.25 899.75C397.75 863.25 358.25 840.75 308.25 840.75C253.75 840.75 214 863.75 200.25 902L181.75 898.5C191.25 826 238.25 782.75 303 782.75C369.5 782.75 418.5 825.5 432.75 898L417.5 901.75ZM307.25 685.5ZM137.5 572V114.25H215.25V572ZM215.25 0H515.75C520 26.25 522.5 59.5 522.5 94C522.5 127.5 520.5 157.25 516.5 183.75H497.75L474.75 112.5C470.5 103.5 453 46.25 449 41C423.75 38 384 36.25 348.5 36.25H215.25ZM215.25 686.25V650H338.5C374 650 413.75 647.5 439 645.25C443 640 460.5 582.75 464.75 573.75L487.75 502.5H506.5C510.5 531.25 512.5 558.75 512.5 592.25C512.5 626.75 510 660 505.75 686.25ZM215.25 361.25V326.25L424.5 320.75L426.75 367.5ZM215.25 0V114.25H137.5V71.5C137.5 49.75 130.25 42.25 106 34.75L55 21.25L57 0ZM215.25 686.25H57L55 665L117.25 646C133.75 642.25 137.5 637.75 137.5 623.5V572H215.25ZM307.25 685.5ZM515.75 0ZM312 0Z" glyph-name="Ebreve" horiz-adv-x="580.5" unicode="&#276;" /><glyph d="M137.5 572V114.25H215.25V572ZM215.25 0H515.75C520 26.25 522.5 59.5 522.5 94C522.5 127.5 520.5 157.25 516.5 183.75H497.75L474.75 112.5C470.5 103.5 453 46.25 449 41C423.75 38 384 36.25 348.5 36.25H215.25ZM215.25 686.25V650H338.5C374 650 413.75 647.5 439 645.25C443 640 460.5 582.75 464.75 573.75L487.75 502.5H506.5C510.5 531.25 512.5 558.75 512.5 592.25C512.5 626.75 510 660 505.75 686.25ZM215.25 361.25V326.25L424.5 320.75L426.75 367.5ZM215.25 0V114.25H137.5V71.5C137.5 49.75 130.25 42.25 106 34.75L55 21.25L57 0ZM215.25 686.25H57L55 665L117.25 646C133.75 642.25 137.5 637.75 137.5 623.5V572H215.25ZM307.25 685.5ZM515.75 0ZM312 0ZM288.5 815 330 816.5C275.5 845.25 219 883.25 174 913.75L159.5 903.5C198.5 856.25 244 806.25 278.5 770.5H330L337.25 775.5C357.5 803 411.75 860.25 454.25 901.25L441.75 913.75C390.25 885 320 837.25 288.5 815ZM307.25 685.5Z" glyph-name="Ecaron" horiz-adv-x="580.5" unicode="&#282;" /><glyph d="M137.5 572V114.25H215.25V572ZM215.25 0H515.75C520 26.25 522.5 59.5 522.5 94C522.5 127.5 520.5 157.25 516.5 183.75H497.75L474.75 112.5C470.5 103.5 453 46.25 449 41C423.75 38 384 36.25 348.5 36.25H215.25ZM215.25 686.25V650H338.5C374 650 413.75 647.5 439 645.25C443 640 460.5 582.75 464.75 573.75L487.75 502.5H506.5C510.5 531.25 512.5 558.75 512.5 592.25C512.5 626.75 510 660 505.75 686.25ZM215.25 361.25V326.25L424.5 320.75L426.75 367.5ZM215.25 0V114.25H137.5V71.5C137.5 49.75 130.25 42.25 106 34.75L55 21.25L57 0ZM215.25 686.25H57L55 665L117.25 646C133.75 642.25 137.5 637.75 137.5 623.5V572H215.25ZM307.25 685.5ZM515.75 0ZM312 0ZM325.5 869.25 284 867.75C338.5 839 395 801 440 770.5L454.5 780.75C415.5 828 370 878 335.5 913.75H284L276.75 908.75C256.5 881.25 202.25 824 159.75 783L172.25 770.5C223.75 799.25 294 847 325.5 869.25ZM307.25 685.5Z" glyph-name="Ecircumflex" horiz-adv-x="580.5" unicode="&#202;" /><glyph d="M137.5 572V114.25H215.25V572ZM215.25 0H515.75C520 26.25 522.5 59.5 522.5 94C522.5 127.5 520.5 157.25 516.5 183.75H497.75L474.75 112.5C470.5 103.5 453 46.25 449 41C423.75 38 384 36.25 348.5 36.25H215.25ZM215.25 686.25V650H338.5C374 650 413.75 647.5 439 645.25C443 640 460.5 582.75 464.75 573.75L487.75 502.5H506.5C510.5 531.25 512.5 558.75 512.5 592.25C512.5 626.75 510 660 505.75 686.25ZM215.25 361.25V326.25L424.5 320.75L426.75 367.5ZM215.25 0V114.25H137.5V71.5C137.5 49.75 130.25 42.25 106 34.75L55 21.25L57 0ZM215.25 686.25H57L55 665L117.25 646C133.75 642.25 137.5 637.75 137.5 623.5V572H215.25ZM307.25 685.5ZM515.75 0ZM312 0ZM459.75 845.75C459.75 872.75 441.25 892 413 892C381 892 357.5 865.25 357.5 835.5C357.5 809.25 376.25 787.75 405.5 787.75C440 787.75 459.75 815.5 459.75 845.75ZM257 845.75C257 872.75 238.5 892 210.25 892C178.25 892 154.75 865.25 154.75 835.5C154.75 809.25 173.5 787.75 202.75 787.75C237.25 787.75 257 815.5 257 845.75ZM307.25 685.5ZM306.25 915.5Z" glyph-name="Edieresis" horiz-adv-x="580.5" unicode="&#203;" /><glyph d="M137.5 572V114.25H215.25V572ZM215.25 0H515.75C520 26.25 522.5 59.5 522.5 94C522.5 127.5 520.5 157.25 516.5 183.75H497.75L474.75 112.5C470.5 103.5 453 46.25 449 41C423.75 38 384 36.25 348.5 36.25H215.25ZM215.25 686.25V650H338.5C374 650 413.75 647.5 439 645.25C443 640 460.5 582.75 464.75 573.75L487.75 502.5H506.5C510.5 531.25 512.5 558.75 512.5 592.25C512.5 626.75 510 660 505.75 686.25ZM215.25 361.25V326.25L424.5 320.75L426.75 367.5ZM215.25 0V114.25H137.5V71.5C137.5 49.75 130.25 42.25 106 34.75L55 21.25L57 0ZM215.25 686.25H57L55 665L117.25 646C133.75 642.25 137.5 637.75 137.5 623.5V572H215.25ZM307.25 685.5ZM515.75 0ZM312 0ZM363.25 843C363.25 872.25 343.5 892 312.5 892C278 892 251.75 864.75 251.75 834.5C251.75 806.5 272.25 784.75 304.5 784.75C342 784.75 363.25 812.25 363.25 843ZM307.25 685.5Z" glyph-name="Edotaccent" horiz-adv-x="580.5" unicode="&#278;" /><glyph d="M137.5 572V114.25H215.25V572ZM215.25 0H515.75C520 26.25 522.5 59.5 522.5 94C522.5 127.5 520.5 157.25 516.5 183.75H497.75L474.75 112.5C470.5 103.5 453 46.25 449 41C423.75 38 384 36.25 348.5 36.25H215.25ZM215.25 686.25V650H338.5C374 650 413.75 647.5 439 645.25C443 640 460.5 582.75 464.75 573.75L487.75 502.5H506.5C510.5 531.25 512.5 558.75 512.5 592.25C512.5 626.75 510 660 505.75 686.25ZM215.25 361.25V326.25L424.5 320.75L426.75 367.5ZM215.25 0V114.25H137.5V71.5C137.5 49.75 130.25 42.25 106 34.75L55 21.25L57 0ZM215.25 686.25H57L55 665L117.25 646C133.75 642.25 137.5 637.75 137.5 623.5V572H215.25ZM307.25 685.5ZM515.75 0ZM312 0ZM363.75 -161.75C363.75 -130.5 345.25 -108.75 317 -108.75C284.5 -108.75 260.25 -138 260.25 -170.25C260.25 -200.25 279.5 -224 309 -224C343.75 -224 363.75 -194.5 363.75 -161.75ZM312 0Z" glyph-name="Edotbelow" horiz-adv-x="580.5" unicode="&#7864;" /><glyph d="M137.5 572V114.25H215.25V572ZM215.25 0H515.75C520 26.25 522.5 59.5 522.5 94C522.5 127.5 520.5 157.25 516.5 183.75H497.75L474.75 112.5C470.5 103.5 453 46.25 449 41C423.75 38 384 36.25 348.5 36.25H215.25ZM215.25 686.25V650H338.5C374 650 413.75 647.5 439 645.25C443 640 460.5 582.75 464.75 573.75L487.75 502.5H506.5C510.5 531.25 512.5 558.75 512.5 592.25C512.5 626.75 510 660 505.75 686.25ZM215.25 361.25V326.25L424.5 320.75L426.75 367.5ZM215.25 0V114.25H137.5V71.5C137.5 49.75 130.25 42.25 106 34.75L55 21.25L57 0ZM215.25 686.25H57L55 665L117.25 646C133.75 642.25 137.5 637.75 137.5 623.5V572H215.25ZM307.25 685.5ZM515.75 0ZM312 0ZM431.25 792.75C336 825.25 264 873.5 220.5 907L212 908.25C192 901.25 176.75 887.25 176.75 869.75C176.75 817.75 336.75 781.25 424.75 776ZM307.25 685.5Z" glyph-name="Egrave" horiz-adv-x="580.5" unicode="&#200;" /><glyph d="M168 815.75H446.5V866.5H168ZM307.25 685.5ZM137.5 572V114.25H215.25V572ZM215.25 0H515.75C520 26.25 522.5 59.5 522.5 94C522.5 127.5 520.5 157.25 516.5 183.75H497.75L474.75 112.5C470.5 103.5 453 46.25 449 41C423.75 38 384 36.25 348.5 36.25H215.25ZM215.25 686.25V650H338.5C374 650 413.75 647.5 439 645.25C443 640 460.5 582.75 464.75 573.75L487.75 502.5H506.5C510.5 531.25 512.5 558.75 512.5 592.25C512.5 626.75 510 660 505.75 686.25ZM215.25 361.25V326.25L424.5 320.75L426.75 367.5ZM215.25 0V114.25H137.5V71.5C137.5 49.75 130.25 42.25 106 34.75L55 21.25L57 0ZM215.25 686.25H57L55 665L117.25 646C133.75 642.25 137.5 637.75 137.5 623.5V572H215.25ZM307.25 685.5ZM515.75 0ZM312 0Z" glyph-name="Emacron" horiz-adv-x="580.5" unicode="&#274;" /><glyph d="M592.25 86.25 203.75 686.25H57L55 665L108 650.75C124.5 647 137.5 637.75 137.5 623.5V114.25H178.75V615.75L160.25 610.75L561.25 0H592.25ZM576.25 572V104C576.25 -35.75 539.75 -78.75 481 -154.5L496.5 -170C579.25 -98 617.5 -52 617.5 75V572ZM576.25 641.5V572H617.5V614.75C617.5 636.5 624.75 644 649 651.5L700 665L698 686.25H495.75L493.75 665ZM178.75 44.75V114.25H137.5V71.5C137.5 49.75 130.25 42.25 106 34.75L55 21.25L57 0H279.25L281.25 21.25Z" glyph-name="Eng" horiz-adv-x="739" unicode="&#330;" /><glyph d="M137.5 572V114.25H215.25V572ZM215.25 0H515.75C520 26.25 522.5 59.5 522.5 94C522.5 127.5 520.5 157.25 516.5 183.75H497.75L474.75 112.5C470.5 103.5 453 46.25 449 41C423.75 38 384 36.25 348.5 36.25H215.25ZM215.25 686.25V650H338.5C374 650 413.75 647.5 439 645.25C443 640 460.5 582.75 464.75 573.75L487.75 502.5H506.5C510.5 531.25 512.5 558.75 512.5 592.25C512.5 626.75 510 660 505.75 686.25ZM215.25 361.25V326.25L424.5 320.75L426.75 367.5ZM215.25 0V114.25H137.5V71.5C137.5 49.75 130.25 42.25 106 34.75L55 21.25L57 0ZM215.25 686.25H57L55 665L117.25 646C133.75 642.25 137.5 637.75 137.5 623.5V572H215.25ZM307.25 685.5ZM515.75 0ZM312 0ZM512.75 -181.25 508.75 -171C489 -175.5 476.25 -177.25 458.75 -177.25C423.5 -177.25 402.75 -158.5 402.75 -126.5C402.75 -82.75 440.75 -38.25 515.75 0L507.25 15.5C395 -24.5 336.25 -79.25 336.25 -143.25C336.25 -193.5 368.25 -224 419 -224C454.75 -224 490.5 -208 512.75 -181.25ZM515.75 0Z" glyph-name="Eogonek" horiz-adv-x="580.5" unicode="&#280;" /><glyph d="M413.7912 333.5V368.5H56.3825V333.5ZM234.7287 320.75ZM150.25 572V114.25H228V572ZM228 0H305.75C514.75 0 644 130 644 342.75C644 555.5 515.5 686.25 305.75 686.25H228V648.5H301.5C471 648.5 563 532.5 562.75 342.75C562.5 153 471 37.75 301.5 37.75H228ZM228 0V114.25H150.25V71.5C150.25 49.75 143 42.25 118.75 34.75L67.75 21.25L69.75 0ZM228 686.25H69.75L67.75 665L130 646C146.5 642.25 150.25 637.75 150.25 623.5V572H228ZM337.75 686.25ZM247 320.75ZM370.25 0Z" glyph-name="Eth" horiz-adv-x="702" unicode="&#208;" /><glyph d="M187 844.5C229 838.25 352 777.75 409.75 777.75C460 777.75 482.75 821.25 491.75 886.25C491.75 890.25 491.5 893 491.25 896L475.75 902C460 875 437.25 845.75 427.5 830.75C383.25 836.25 264.75 897.5 204.75 897.5C155.25 897.5 130.25 853.25 121.25 786.25C121.25 783.75 121.5 781 121.75 778.5L137.25 773.25C152.25 799.5 178.75 835.5 187 844.5ZM307.25 685.5ZM305 927.5ZM137.5 572V114.25H215.25V572ZM215.25 0H515.75C520 26.25 522.5 59.5 522.5 94C522.5 127.5 520.5 157.25 516.5 183.75H497.75L474.75 112.5C470.5 103.5 453 46.25 449 41C423.75 38 384 36.25 348.5 36.25H215.25ZM215.25 686.25V650H338.5C374 650 413.75 647.5 439 645.25C443 640 460.5 582.75 464.75 573.75L487.75 502.5H506.5C510.5 531.25 512.5 558.75 512.5 592.25C512.5 626.75 510 660 505.75 686.25ZM215.25 361.25V326.25L424.5 320.75L426.75 367.5ZM215.25 0V114.25H137.5V71.5C137.5 49.75 130.25 42.25 106 34.75L55 21.25L57 0ZM215.25 686.25H57L55 665L117.25 646C133.75 642.25 137.5 637.75 137.5 623.5V572H215.25ZM307.25 685.5ZM515.75 0ZM312 0Z" glyph-name="Etilde" horiz-adv-x="580.5" unicode="&#7868;" /><glyph d="M137.5 572V114.25H215.25V572ZM215.25 345V310L424.5 304.5L426.75 351.25ZM215.25 686.25V650H336C371.5 650 411.25 647.5 436.5 645.25C440.5 640 458 582.75 462.25 573.75L485.25 502.5H504C508 531.25 510 558.75 510 592.25C510 626.75 507.5 660 503.25 686.25ZM215.25 44.75V114.25H137.5V71.5C137.5 49.75 130.25 42.25 106 34.75L55 21.25L57 0H315.75L317.75 21.25ZM215.25 686.25H57L55 665L117.25 646C133.75 642.25 137.5 637.75 137.5 623.5V572H215.25Z" glyph-name="F" horiz-adv-x="544" unicode="F" /><glyph d="M395.5 -10C475.25 -10 531 2.25 578 20.5V200H502.75V28.75L517.75 48.75C473.75 35 447.75 31.25 400.75 31.25C245.75 31.25 139.25 152 139.25 342.25C139.25 532.5 258 655 404 655C446.75 655 470.25 652 496.5 644.25C506 631 540 519 550 500L568.75 500.5C574.5 536.5 577.5 579.25 577.5 608.5C577.5 631 576 650 572.75 665.75C531.25 684.25 473.75 696.25 400.5 696.25C210.25 696.25 58 559.5 58 341C58 122.5 188 -10 395.5 -10ZM502.75 275.25V200H578V248.5C578 270.75 583 279 604.5 285.25L655.5 298.75L653.5 320H422.25L420.25 298.75ZM365.25 686.25ZM376.25 0Z" glyph-name="G" horiz-adv-x="698.5" unicode="G" /><glyph d="M452 907C408.5 873.5 336.5 825.25 241.25 792.75L247.75 776C335.75 781.25 495.75 817.75 495.75 869.75C495.75 887.25 480.5 901.25 460.5 908.25ZM365.25 686.25ZM357 868ZM395.5 -10C475.25 -10 531 2.25 578 20.5V200H502.75V28.75L517.75 48.75C473.75 35 447.75 31.25 400.75 31.25C245.75 31.25 139.25 152 139.25 342.25C139.25 532.5 258 655 404 655C446.75 655 470.25 652 496.5 644.25C506 631 540 519 550 500L568.75 500.5C574.5 536.5 577.5 579.25 577.5 608.5C577.5 631 576 650 572.75 665.75C531.25 684.25 473.75 696.25 400.5 696.25C210.25 696.25 58 559.5 58 341C58 122.5 188 -10 395.5 -10ZM502.75 275.25V200H578V248.5C578 270.75 583 279 604.5 285.25L655.5 298.75L653.5 320H422.25L420.25 298.75ZM365.25 686.25ZM376.25 0Z" glyph-name="Gacute" horiz-adv-x="698.5" unicode="&#500;" /><glyph d="M471.25 900.5C455.75 864 416.25 841.5 366.25 841.5C311.75 841.5 272 864.5 258.25 902.75L239.75 899.25C249.25 826.75 296.25 783.5 361 783.5C427.5 783.5 476.5 826.25 490.75 898.75L475.5 902.5ZM365.25 686.25ZM395.5 -10C475.25 -10 531 2.25 578 20.5V200H502.75V28.75L517.75 48.75C473.75 35 447.75 31.25 400.75 31.25C245.75 31.25 139.25 152 139.25 342.25C139.25 532.5 258 655 404 655C446.75 655 470.25 652 496.5 644.25C506 631 540 519 550 500L568.75 500.5C574.5 536.5 577.5 579.25 577.5 608.5C577.5 631 576 650 572.75 665.75C531.25 684.25 473.75 696.25 400.5 696.25C210.25 696.25 58 559.5 58 341C58 122.5 188 -10 395.5 -10ZM502.75 275.25V200H578V248.5C578 270.75 583 279 604.5 285.25L655.5 298.75L653.5 320H422.25L420.25 298.75ZM365.25 686.25ZM376.25 0Z" glyph-name="Gbreve" horiz-adv-x="698.5" unicode="&#286;" /><glyph d="M395.5 -10C475.25 -10 531 2.25 578 20.5V200H502.75V28.75L517.75 48.75C473.75 35 447.75 31.25 400.75 31.25C245.75 31.25 139.25 152 139.25 342.25C139.25 532.5 258 655 404 655C446.75 655 470.25 652 496.5 644.25C506 631 540 519 550 500L568.75 500.5C574.5 536.5 577.5 579.25 577.5 608.5C577.5 631 576 650 572.75 665.75C531.25 684.25 473.75 696.25 400.5 696.25C210.25 696.25 58 559.5 58 341C58 122.5 188 -10 395.5 -10ZM502.75 275.25V200H578V248.5C578 270.75 583 279 604.5 285.25L655.5 298.75L653.5 320H422.25L420.25 298.75ZM365.25 686.25ZM376.25 0ZM346.5 815.75 388 817.25C333.5 846 277 884 232 914.5L217.5 904.25C256.5 857 302 807 336.5 771.25H388L395.25 776.25C415.5 803.75 469.75 861 512.25 902L499.75 914.5C448.25 885.75 378 838 346.5 815.75ZM365.25 686.25Z" glyph-name="Gcaron" horiz-adv-x="698.5" unicode="&#486;" /><glyph d="M395.5 -10C475.25 -10 531 2.25 578 20.5V200H502.75V28.75L517.75 48.75C473.75 35 447.75 31.25 400.75 31.25C245.75 31.25 139.25 152 139.25 342.25C139.25 532.5 258 655 404 655C446.75 655 470.25 652 496.5 644.25C506 631 540 519 550 500L568.75 500.5C574.5 536.5 577.5 579.25 577.5 608.5C577.5 631 576 650 572.75 665.75C531.25 684.25 473.75 696.25 400.5 696.25C210.25 696.25 58 559.5 58 341C58 122.5 188 -10 395.5 -10ZM502.75 275.25V200H578V248.5C578 270.75 583 279 604.5 285.25L655.5 298.75L653.5 320H422.25L420.25 298.75ZM365.25 686.25ZM376.25 0ZM383.5 870 342 868.5C396.5 839.75 453 801.75 498 771.25L512.5 781.5C473.5 828.75 428 878.75 393.5 914.5H342L334.75 909.5C314.5 882 260.25 824.75 217.75 783.75L230.25 771.25C281.75 800 352 847.75 383.5 870ZM365.25 686.25Z" glyph-name="Gcircumflex" horiz-adv-x="698.5" unicode="&#284;" /><glyph d="M427.25 -163.75C427.25 -129.5 407.5 -108.75 376.25 -108.75C347 -108.75 323.5 -133.75 323.5 -165C323.5 -194.5 345.5 -214.25 376.5 -214.25L368 -181C367.25 -224 346.5 -288.25 325.25 -320.5L336.5 -330C382 -298.75 427.25 -224.25 427.25 -163.75ZM376.25 0ZM395.5 -10C475.25 -10 531 2.25 578 20.5V200H502.75V28.75L517.75 48.75C473.75 35 447.75 31.25 400.75 31.25C245.75 31.25 139.25 152 139.25 342.25C139.25 532.5 258 655 404 655C446.75 655 470.25 652 496.5 644.25C506 631 540 519 550 500L568.75 500.5C574.5 536.5 577.5 579.25 577.5 608.5C577.5 631 576 650 572.75 665.75C531.25 684.25 473.75 696.25 400.5 696.25C210.25 696.25 58 559.5 58 341C58 122.5 188 -10 395.5 -10ZM502.75 275.25V200H578V248.5C578 270.75 583 279 604.5 285.25L655.5 298.75L653.5 320H422.25L420.25 298.75ZM365.25 686.25ZM376.25 0Z" glyph-name="Gcommaaccent" horiz-adv-x="698.5" unicode="&#290;" /><glyph d="M421.25 843.75C421.25 873 401.5 892.75 370.5 892.75C336 892.75 309.75 865.5 309.75 835.25C309.75 807.25 330.25 785.5 362.5 785.5C400 785.5 421.25 813 421.25 843.75ZM365.25 686.25ZM395.5 -10C475.25 -10 531 2.25 578 20.5V200H502.75V28.75L517.75 48.75C473.75 35 447.75 31.25 400.75 31.25C245.75 31.25 139.25 152 139.25 342.25C139.25 532.5 258 655 404 655C446.75 655 470.25 652 496.5 644.25C506 631 540 519 550 500L568.75 500.5C574.5 536.5 577.5 579.25 577.5 608.5C577.5 631 576 650 572.75 665.75C531.25 684.25 473.75 696.25 400.5 696.25C210.25 696.25 58 559.5 58 341C58 122.5 188 -10 395.5 -10ZM502.75 275.25V200H578V248.5C578 270.75 583 279 604.5 285.25L655.5 298.75L653.5 320H422.25L420.25 298.75ZM365.25 686.25ZM376.25 0Z" glyph-name="Gdotaccent" horiz-adv-x="698.5" unicode="&#288;" /><glyph d="M668.25 155C668.25 281.5 538.5 349.25 408 411.5L406.75 377.25L591.5 606.5L587.5 631.25C542.25 673.75 473.25 696.25 387.5 696.25C245.5 696.25 137.5 601.5 137.5 476V71.5C137.5 49.75 130.25 42.25 106 34.75L55 21.25L57 0H196.5L215.25 21.75V492.5C215.25 587.25 283.75 659 376 659C441.25 659 493 631 530 585.5L545.75 625.25L354.75 385L357.5 358.75C484.75 303.25 589.5 246.5 589.5 137.5C589.5 77.75 546.25 28.75 475.75 28.75C436.75 28.75 410.5 39.25 393 60.75C372.5 84.25 364 123 355.25 176.75L336.5 177.5C326.25 151.5 321.25 111.25 321.25 85.75C321.25 56.25 323.5 39.25 332.75 26.25C346 8.75 404.5 -10 468.5 -10C593 -10 668.25 55.75 668.25 155Z" glyph-name="Germandbls" horiz-adv-x="718.1601" unicode="&#7838;" /><glyph d="M137.5 572V114.25H215.25V572ZM549.75 572V114.25H627.5V572ZM215.25 368V327.5H549.75V368ZM215.25 44.75V114.25H137.5V71.5C137.5 49.75 130.25 42.25 106 34.75L55 21.25L57 0H295.75L297.75 21.25ZM137.5 641.5V572H215.25V614.75C215.25 636.5 222.5 644 246.75 651.5L297.75 665L295.75 686.25H57L55 665ZM627.5 44.75V114.25H549.75V71.5C549.75 49.75 542.5 42.25 518.25 34.75L467.25 21.25L469.25 0H708L710 21.25ZM549.75 641.5V572H627.5V614.75C627.5 636.5 634.75 644 659 651.5L710 665L708 686.25H469.25L467.25 665ZM382.5 686.25ZM382.5 496.25ZM382.25 0Z" glyph-name="H" horiz-adv-x="765" unicode="H" /><glyph d="M137.5 572V114.25H215.25V572ZM549.75 572V114.25H627.5V572ZM215.25 368V327.5H549.75V368ZM215.25 44.75V114.25H137.5V71.5C137.5 49.75 130.25 42.25 106 34.75L55 21.25L57 0H295.75L297.75 21.25ZM137.5 641.5V572H215.25V614.75C215.25 636.5 222.5 644 246.75 651.5L297.75 665L295.75 686.25H57L55 665ZM627.5 44.75V114.25H549.75V71.5C549.75 49.75 542.5 42.25 518.25 34.75L467.25 21.25L469.25 0H708L710 21.25ZM549.75 641.5V572H627.5V614.75C627.5 636.5 634.75 644 659 651.5L710 665L708 686.25H469.25L467.25 665ZM382.5 686.25ZM382.5 496.25ZM382.25 0ZM700.5 492.75V527.75H63V492.75ZM382.5 496.25Z" glyph-name="Hbar" horiz-adv-x="765" unicode="&#294;" /><glyph d="M137.5 572V114.25H215.25V572ZM549.75 572V114.25H627.5V572ZM215.25 368V327.5H549.75V368ZM215.25 44.75V114.25H137.5V71.5C137.5 49.75 130.25 42.25 106 34.75L55 21.25L57 0H295.75L297.75 21.25ZM137.5 641.5V572H215.25V614.75C215.25 636.5 222.5 644 246.75 651.5L297.75 665L295.75 686.25H57L55 665ZM627.5 44.75V114.25H549.75V71.5C549.75 49.75 542.5 42.25 518.25 34.75L467.25 21.25L469.25 0H708L710 21.25ZM549.75 641.5V572H627.5V614.75C627.5 636.5 634.75 644 659 651.5L710 665L708 686.25H469.25L467.25 665ZM382.5 686.25ZM382.5 496.25ZM382.25 0ZM400.75 870 359.25 868.5C413.75 839.75 470.25 801.75 515.25 771.25L529.75 781.5C490.75 828.75 445.25 878.75 410.75 914.5H359.25L352 909.5C331.75 882 277.5 824.75 235 783.75L247.5 771.25C299 800 369.25 847.75 400.75 870ZM382.5 686.25Z" glyph-name="Hcircumflex" horiz-adv-x="765" unicode="&#292;" /><glyph d="M137.5 572V114.25H215.25V572ZM549.75 572V114.25H627.5V572ZM215.25 368V327.5H549.75V368ZM215.25 44.75V114.25H137.5V71.5C137.5 49.75 130.25 42.25 106 34.75L55 21.25L57 0H295.75L297.75 21.25ZM137.5 641.5V572H215.25V614.75C215.25 636.5 222.5 644 246.75 651.5L297.75 665L295.75 686.25H57L55 665ZM627.5 44.75V114.25H549.75V71.5C549.75 49.75 542.5 42.25 518.25 34.75L467.25 21.25L469.25 0H708L710 21.25ZM549.75 641.5V572H627.5V614.75C627.5 636.5 634.75 644 659 651.5L710 665L708 686.25H469.25L467.25 665ZM382.5 686.25ZM382.5 496.25ZM382.25 0ZM434 -161.75C434 -130.5 415.5 -108.75 387.25 -108.75C354.75 -108.75 330.5 -138 330.5 -170.25C330.5 -200.25 349.75 -224 379.25 -224C414 -224 434 -194.5 434 -161.75ZM382.25 0Z" glyph-name="Hdotbelow" horiz-adv-x="765" unicode="&#7716;" /><glyph d="M137.5 572V114.25H215.25V572ZM215.25 44.75V114.25H137.5V71.5C137.5 49.75 130.25 42.25 106 34.75L55 21.25L57 0H295.75L297.75 21.25ZM137.5 641.5V572H215.25V614.75C215.25 636.5 222.5 644 246.75 651.5L297.75 665L295.75 686.25H57L55 665ZM177.25 686.25ZM295.75 0ZM176.5 0Z" glyph-name="I" horiz-adv-x="352.75" unicode="I" /><glyph d="M137.5 572V114.25H215.25V572ZM215.25 44.75V114.25H137.5V71.5C137.5 49.75 130.25 42.25 106 34.75L55 21.25L57 0H295.75L297.75 21.25ZM137.5 641.5V572H215.25V614.75C215.25 636.5 222.5 644 246.75 651.5L297.75 665L295.75 686.25H57L55 665ZM177.25 686.25ZM295.75 0ZM176.5 0ZM429.5 572V108C429.5 -24.75 398.5 -80 346.25 -152.25L362.75 -170C447.75 -113.5 507.25 -52.5 507.25 76.25V572ZM429.5 641.5V572H507.25V614.75C507.25 636.5 514.5 644 538.75 651.5L589.75 665L587.75 686.25H349L347 665ZM467.5 685Z" glyph-name="IJ" horiz-adv-x="628.75" unicode="&#306;" /><glyph d="M137.5 572V114.25H215.25V572ZM215.25 44.75V114.25H137.5V71.5C137.5 49.75 130.25 42.25 106 34.75L55 21.25L57 0H295.75L297.75 21.25ZM137.5 641.5V572H215.25V614.75C215.25 636.5 222.5 644 246.75 651.5L297.75 665L295.75 686.25H57L55 665ZM177.25 686.25ZM295.75 0ZM176.5 0ZM264 907C220.5 873.5 148.5 825.25 53.25 792.75L59.75 776C147.75 781.25 307.75 817.75 307.75 869.75C307.75 887.25 292.5 901.25 272.5 908.25ZM177.25 686.25ZM169 868Z" glyph-name="Iacute" horiz-adv-x="352.75" unicode="&#205;" /><glyph d="M137.5 572V114.25H215.25V572ZM215.25 44.75V114.25H137.5V71.5C137.5 49.75 130.25 42.25 106 34.75L55 21.25L57 0H295.75L297.75 21.25ZM137.5 641.5V572H215.25V614.75C215.25 636.5 222.5 644 246.75 651.5L297.75 665L295.75 686.25H57L55 665ZM177.25 686.25ZM295.75 0ZM176.5 0ZM283.25 900.5C267.75 864 228.25 841.5 178.25 841.5C123.75 841.5 84 864.5 70.25 902.75L51.75 899.25C61.25 826.75 108.25 783.5 173 783.5C239.5 783.5 288.5 826.25 302.75 898.75L287.5 902.5ZM177.25 686.25Z" glyph-name="Ibreve" horiz-adv-x="352.75" unicode="&#300;" /><glyph d="M137.5 572V114.25H215.25V572ZM215.25 44.75V114.25H137.5V71.5C137.5 49.75 130.25 42.25 106 34.75L55 21.25L57 0H295.75L297.75 21.25ZM137.5 641.5V572H215.25V614.75C215.25 636.5 222.5 644 246.75 651.5L297.75 665L295.75 686.25H57L55 665ZM177.25 686.25ZM295.75 0ZM176.5 0ZM158.5 815.75 200 817.25C145.5 846 89 884 44 914.5L29.5 904.25C68.5 857 114 807 148.5 771.25H200L207.25 776.25C227.5 803.75 281.75 861 324.25 902L311.75 914.5C260.25 885.75 190 838 158.5 815.75ZM177.25 686.25Z" glyph-name="Icaron" horiz-adv-x="352.75" unicode="&#463;" /><glyph d="M137.5 572V114.25H215.25V572ZM215.25 44.75V114.25H137.5V71.5C137.5 49.75 130.25 42.25 106 34.75L55 21.25L57 0H295.75L297.75 21.25ZM137.5 641.5V572H215.25V614.75C215.25 636.5 222.5 644 246.75 651.5L297.75 665L295.75 686.25H57L55 665ZM177.25 686.25ZM295.75 0ZM176.5 0ZM195.5 870 154 868.5C208.5 839.75 265 801.75 310 771.25L324.5 781.5C285.5 828.75 240 878.75 205.5 914.5H154L146.75 909.5C126.5 882 72.25 824.75 29.75 783.75L42.25 771.25C93.75 800 164 847.75 195.5 870ZM177.25 686.25Z" glyph-name="Icircumflex" horiz-adv-x="352.75" unicode="&#206;" /><glyph d="M137.5 572V114.25H215.25V572ZM215.25 44.75V114.25H137.5V71.5C137.5 49.75 130.25 42.25 106 34.75L55 21.25L57 0H295.75L297.75 21.25ZM137.5 641.5V572H215.25V614.75C215.25 636.5 222.5 644 246.75 651.5L297.75 665L295.75 686.25H57L55 665ZM177.25 686.25ZM295.75 0ZM176.5 0ZM329.75 846.5C329.75 873.5 311.25 892.75 283 892.75C251 892.75 227.5 866 227.5 836.25C227.5 810 246.25 788.5 275.5 788.5C310 788.5 329.75 816.25 329.75 846.5ZM127 846.5C127 873.5 108.5 892.75 80.25 892.75C48.25 892.75 24.75 866 24.75 836.25C24.75 810 43.5 788.5 72.75 788.5C107.25 788.5 127 816.25 127 846.5ZM177.25 686.25ZM176.25 916.25Z" glyph-name="Idieresis" horiz-adv-x="352.75" unicode="&#207;" /><glyph d="M137.5 572V114.25H215.25V572ZM215.25 44.75V114.25H137.5V71.5C137.5 49.75 130.25 42.25 106 34.75L55 21.25L57 0H295.75L297.75 21.25ZM137.5 641.5V572H215.25V614.75C215.25 636.5 222.5 644 246.75 651.5L297.75 665L295.75 686.25H57L55 665ZM177.25 686.25ZM295.75 0ZM176.5 0ZM233.25 843.75C233.25 873 213.5 892.75 182.5 892.75C148 892.75 121.75 865.5 121.75 835.25C121.75 807.25 142.25 785.5 174.5 785.5C212 785.5 233.25 813 233.25 843.75ZM177.25 686.25Z" glyph-name="Idotaccent" horiz-adv-x="352.75" unicode="&#304;" /><glyph d="M137.5 572V114.25H215.25V572ZM215.25 44.75V114.25H137.5V71.5C137.5 49.75 130.25 42.25 106 34.75L55 21.25L57 0H295.75L297.75 21.25ZM137.5 641.5V572H215.25V614.75C215.25 636.5 222.5 644 246.75 651.5L297.75 665L295.75 686.25H57L55 665ZM177.25 686.25ZM295.75 0ZM176.5 0ZM228.25 -161.75C228.25 -130.5 209.75 -108.75 181.5 -108.75C149 -108.75 124.75 -138 124.75 -170.25C124.75 -200.25 144 -224 173.5 -224C208.25 -224 228.25 -194.5 228.25 -161.75ZM176.5 0Z" glyph-name="Idotbelow" horiz-adv-x="352.75" unicode="&#7882;" /><glyph d="M137.5 572V114.25H215.25V572ZM215.25 44.75V114.25H137.5V71.5C137.5 49.75 130.25 42.25 106 34.75L55 21.25L57 0H295.75L297.75 21.25ZM137.5 641.5V572H215.25V614.75C215.25 636.5 222.5 644 246.75 651.5L297.75 665L295.75 686.25H57L55 665ZM177.25 686.25ZM295.75 0ZM176.5 0ZM301.25 793.5C206 826 134 874.25 90.5 907.75L82 909C62 902 46.75 888 46.75 870.5C46.75 818.5 206.75 782 294.75 776.75ZM177.25 686.25Z" glyph-name="Igrave" horiz-adv-x="352.75" unicode="&#204;" /><glyph d="M137.5 572V114.25H215.25V572ZM215.25 44.75V114.25H137.5V71.5C137.5 49.75 130.25 42.25 106 34.75L55 21.25L57 0H295.75L297.75 21.25ZM137.5 641.5V572H215.25V614.75C215.25 636.5 222.5 644 246.75 651.5L297.75 665L295.75 686.25H57L55 665ZM177.25 686.25ZM295.75 0ZM176.5 0ZM38 816.5H316.5V867.25H38ZM177.25 686.25Z" glyph-name="Imacron" horiz-adv-x="352.75" unicode="&#298;" /><glyph d="M137.5 572V114.25H215.25V572ZM215.25 44.75V114.25H137.5V71.5C137.5 49.75 130.25 42.25 106 34.75L55 21.25L57 0H295.75L297.75 21.25ZM137.5 641.5V572H215.25V614.75C215.25 636.5 222.5 644 246.75 651.5L297.75 665L295.75 686.25H57L55 665ZM177.25 686.25ZM295.75 0ZM176.5 0ZM292.75 -181.25 288.75 -171C269 -175.5 256.25 -177.25 238.75 -177.25C203.5 -177.25 182.75 -158.5 182.75 -126.5C182.75 -82.75 220.75 -38.25 295.75 0L287.25 15.5C175 -24.5 116.25 -79.25 116.25 -143.25C116.25 -193.5 148.25 -224 199 -224C234.75 -224 270.5 -208 292.75 -181.25ZM295.75 0Z" glyph-name="Iogonek" horiz-adv-x="352.75" unicode="&#302;" /><glyph d="M137.5 572V114.25H215.25V572ZM215.25 44.75V114.25H137.5V71.5C137.5 49.75 130.25 42.25 106 34.75L55 21.25L57 0H295.75L297.75 21.25ZM137.5 641.5V572H215.25V614.75C215.25 636.5 222.5 644 246.75 651.5L297.75 665L295.75 686.25H57L55 665ZM177.25 686.25ZM295.75 0ZM176.5 0ZM57 845.25C99 839 222 778.5 279.75 778.5C330 778.5 352.75 822 361.75 887C361.75 891 361.5 893.75 361.25 896.75L345.75 902.75C330 875.75 307.25 846.5 297.5 831.5C253.25 837 134.75 898.25 74.75 898.25C25.25 898.25 0.25 854 -8.75 787C-8.75 784.5 -8.5 781.75 -8.25 779.25L7.25 774C22.25 800.25 48.75 836.25 57 845.25ZM177.25 686.25ZM175 928.25Z" glyph-name="Itilde" horiz-adv-x="352.75" unicode="&#296;" /><glyph d="M138.25 572V108C138.25 -24.75 107.25 -80 55 -152.25L71.5 -170C156.5 -113.5 216 -52.5 216 76.25V572ZM138.25 641.5V572H216V614.75C216 636.5 223.25 644 247.5 651.5L298.5 665L296.5 686.25H57.75L55.75 665ZM176.25 685Z" glyph-name="J" horiz-adv-x="337.5" unicode="J" /><glyph d="M138.25 572V108C138.25 -24.75 107.25 -80 55 -152.25L71.5 -170C156.5 -113.5 216 -52.5 216 76.25V572ZM138.25 641.5V572H216V614.75C216 636.5 223.25 644 247.5 651.5L298.5 665L296.5 686.25H57.75L55.75 665ZM176.25 685ZM194.5 868.75 153 867.25C207.5 838.5 264 800.5 309 770L323.5 780.25C284.5 827.5 239 877.5 204.5 913.25H153L145.75 908.25C125.5 880.75 71.25 823.5 28.75 782.5L41.25 770C92.75 798.75 163 846.5 194.5 868.75ZM176.25 685Z" glyph-name="Jcircumflex" horiz-adv-x="337.5" unicode="&#308;" /><glyph d="M387.75 373.75 336 352.5 215.25 351V312.5H335.25L475.75 66.75C501.5 22.5 523.75 -1.5 579 -1.25L656.75 0L658.75 20L630.5 30.25C583.5 49.25 562.75 77.25 527 137.5ZM331.5 345.75 354 321.5 550.25 608.25C565.75 630.25 577.5 641.75 596.5 647.75C601.25 650.75 650.5 662.75 657.25 665L655.25 686.25H438.75L436.75 665L521.75 643.25ZM137.5 572V114.25H215.25V572ZM215.25 44.75V114.25H137.5V71.5C137.5 49.75 130.25 42.25 106 34.75L55 21.25L57 0H295.75L297.75 21.25ZM137.5 641.5V572H215.25V614.75C215.25 636.5 222.5 644 246.75 651.5L297.75 665L295.75 686.25H57L55 665ZM350.75 686.25ZM369.75 0Z" glyph-name="K" horiz-adv-x="691.5" unicode="K" /><glyph d="M420.75 -163.75C420.75 -129.5 401 -108.75 369.75 -108.75C340.5 -108.75 317 -133.75 317 -165C317 -194.5 339 -214.25 370 -214.25L361.5 -181C360.75 -224 340 -288.25 318.75 -320.5L330 -330C375.5 -298.75 420.75 -224.25 420.75 -163.75ZM369.75 0ZM387.75 373.75 336 352.5 215.25 351V312.5H335.25L475.75 66.75C501.5 22.5 523.75 -1.5 579 -1.25L656.75 0L658.75 20L630.5 30.25C583.5 49.25 562.75 77.25 527 137.5ZM331.5 345.75 354 321.5 550.25 608.25C565.75 630.25 577.5 641.75 596.5 647.75C601.25 650.75 650.5 662.75 657.25 665L655.25 686.25H438.75L436.75 665L521.75 643.25ZM137.5 572V114.25H215.25V572ZM215.25 44.75V114.25H137.5V71.5C137.5 49.75 130.25 42.25 106 34.75L55 21.25L57 0H295.75L297.75 21.25ZM137.5 641.5V572H215.25V614.75C215.25 636.5 222.5 644 246.75 651.5L297.75 665L295.75 686.25H57L55 665ZM350.75 686.25ZM369.75 0Z" glyph-name="Kcommaaccent" horiz-adv-x="691.5" unicode="&#310;" /><glyph d="M137.5 572V114.25H215.25V572ZM215.25 0H509C513.25 24 515.75 54.25 515.75 86.5C515.75 120 513.75 149.75 509.75 176.25H491L475.5 127.5C465.5 89.25 456.75 66.5 447.5 45.5C420.75 39.5 379.5 36.25 341.75 36.25H215.25ZM215.25 0V114.25H137.5V71.5C137.5 49.75 130.25 42.25 106 34.75L55 21.25L57 0ZM137.5 641.5V572H215.25V614.75C215.25 636.5 222.5 644 246.75 651.5L297.75 665L295.75 686.25H57L55 665ZM468.5 462.5ZM184.5 686.25ZM179.5 345ZM327.5 0Z" glyph-name="L" horiz-adv-x="565.75" unicode="L" /><glyph d="M137.5 572V114.25H215.25V572ZM215.25 0H509C513.25 24 515.75 54.25 515.75 86.5C515.75 120 513.75 149.75 509.75 176.25H491L475.5 127.5C465.5 89.25 456.75 66.5 447.5 45.5C420.75 39.5 379.5 36.25 341.75 36.25H215.25ZM215.25 0V114.25H137.5V71.5C137.5 49.75 130.25 42.25 106 34.75L55 21.25L57 0ZM137.5 641.5V572H215.25V614.75C215.25 636.5 222.5 644 246.75 651.5L297.75 665L295.75 686.25H57L55 665ZM468.5 462.5ZM184.5 686.25ZM179.5 345ZM327.5 0ZM271.25 907C227.75 873.5 155.75 825.25 60.5 792.75L67 776C155 781.25 315 817.75 315 869.75C315 887.25 299.75 901.25 279.75 908.25ZM184.5 686.25ZM176.25 868Z" glyph-name="Lacute" horiz-adv-x="565.75" unicode="&#313;" /><glyph d="M520 664.75C520 696 501.75 715 472.75 715C445.5 715 423.75 692 423.75 663.25C423.75 636 444.25 618 473.25 618L465.25 649.5C464.5 609.25 445 548.25 424.75 517.5L435.5 508.5C478 538.5 520 608.5 520 664.75ZM468.5 462.5ZM137.5 572V114.25H215.25V572ZM215.25 0H509C513.25 24 515.75 54.25 515.75 86.5C515.75 120 513.75 149.75 509.75 176.25H491L475.5 127.5C465.5 89.25 456.75 66.5 447.5 45.5C420.75 39.5 379.5 36.25 341.75 36.25H215.25ZM215.25 0V114.25H137.5V71.5C137.5 49.75 130.25 42.25 106 34.75L55 21.25L57 0ZM137.5 641.5V572H215.25V614.75C215.25 636.5 222.5 644 246.75 651.5L297.75 665L295.75 686.25H57L55 665ZM468.5 462.5ZM184.5 686.25ZM179.5 345ZM327.5 0Z" glyph-name="Lcaron" horiz-adv-x="570.25" unicode="&#317;" /><glyph d="M378.5 -163.75C378.5 -129.5 358.75 -108.75 327.5 -108.75C298.25 -108.75 274.75 -133.75 274.75 -165C274.75 -194.5 296.75 -214.25 327.75 -214.25L319.25 -181C318.5 -224 297.75 -288.25 276.5 -320.5L287.75 -330C333.25 -298.75 378.5 -224.25 378.5 -163.75ZM327.5 0ZM137.5 572V114.25H215.25V572ZM215.25 0H509C513.25 24 515.75 54.25 515.75 86.5C515.75 120 513.75 149.75 509.75 176.25H491L475.5 127.5C465.5 89.25 456.75 66.5 447.5 45.5C420.75 39.5 379.5 36.25 341.75 36.25H215.25ZM215.25 0V114.25H137.5V71.5C137.5 49.75 130.25 42.25 106 34.75L55 21.25L57 0ZM137.5 641.5V572H215.25V614.75C215.25 636.5 222.5 644 246.75 651.5L297.75 665L295.75 686.25H57L55 665ZM468.5 462.5ZM184.5 686.25ZM179.5 345ZM327.5 0Z" glyph-name="Lcommaaccent" horiz-adv-x="565.75" unicode="&#315;" /><glyph d="M137.5 572V114.25H215.25V572ZM215.25 0H509C513.25 24 515.75 54.25 515.75 86.5C515.75 120 513.75 149.75 509.75 176.25H491L475.5 127.5C465.5 89.25 456.75 66.5 447.5 45.5C420.75 39.5 379.5 36.25 341.75 36.25H215.25ZM215.25 0V114.25H137.5V71.5C137.5 49.75 130.25 42.25 106 34.75L55 21.25L57 0ZM137.5 641.5V572H215.25V614.75C215.25 636.5 222.5 644 246.75 651.5L297.75 665L295.75 686.25H57L55 665ZM468.5 462.5ZM184.5 686.25ZM179.5 345ZM327.5 0ZM461.25 386C461.25 417.25 442.75 439 414.5 439C382 439 357.75 409.75 357.75 377.5C357.75 347.5 377 323.75 406.5 323.75C441.25 323.75 461.25 353.25 461.25 386Z" glyph-name="Ldot" horiz-adv-x="565.75" unicode="&#319;" /><glyph d="M137.5 572V114.25H215.25V572ZM215.25 0H509C513.25 24 515.75 54.25 515.75 86.5C515.75 120 513.75 149.75 509.75 176.25H491L475.5 127.5C465.5 89.25 456.75 66.5 447.5 45.5C420.75 39.5 379.5 36.25 341.75 36.25H215.25ZM215.25 0V114.25H137.5V71.5C137.5 49.75 130.25 42.25 106 34.75L55 21.25L57 0ZM137.5 641.5V572H215.25V614.75C215.25 636.5 222.5 644 246.75 651.5L297.75 665L295.75 686.25H57L55 665ZM468.5 462.5ZM184.5 686.25ZM179.5 345ZM327.5 0ZM354 419.25 334.5 454.5 3.5 270.75 22 235.5ZM179.5 345Z" glyph-name="Lslash" horiz-adv-x="565.75" unicode="&#321;" /><glyph d="M172.25 44.75 242 623 227.5 621 403 165 462.25 0H509L569.5 165L738.75 609.75L724.25 611.75L794.5 53.5C795.25 46 759.5 36.25 751.75 32.5L712 21.25L714 0H951.5L953.5 21.25L900.75 35.75C884.25 39.5 873.25 48.5 871 62.75L799.75 640.75L883.75 665L881.75 686.25H721.5L496.25 79.5H516.25L285.5 686.25H120.75L118.75 665L202 640.75L132.5 71.5C129.5 49.75 125.25 42.25 101 34.75L50 21.25L52 0H253.5L255.5 21.25Z" glyph-name="M" horiz-adv-x="1000.5" unicode="M" /><glyph d="M617.5 572H576.25V81.25L592.25 86.25L203.75 686.25H57L55 665L108 650.75C124.5 647 137.5 637.75 137.5 623.5V114.25H178.75V615.75L160.25 610.75L561.25 0H617.5ZM576.25 641.5V572H617.5V614.75C617.5 636.5 624.75 644 649 651.5L700 665L698 686.25H495.75L493.75 665ZM178.75 44.75V114.25H137.5V71.5C137.5 49.75 130.25 42.25 106 34.75L55 21.25L57 0H279.25L281.25 21.25ZM377 685ZM378 0Z" glyph-name="N" horiz-adv-x="739" unicode="N" /><glyph d="M463.75 905.75C420.25 872.25 348.25 824 253 791.5L259.5 774.75C347.5 780 507.5 816.5 507.5 868.5C507.5 886 492.25 900 472.25 907ZM377 685ZM368.75 866.75ZM617.5 572H576.25V81.25L592.25 86.25L203.75 686.25H57L55 665L108 650.75C124.5 647 137.5 637.75 137.5 623.5V114.25H178.75V615.75L160.25 610.75L561.25 0H617.5ZM576.25 641.5V572H617.5V614.75C617.5 636.5 624.75 644 649 651.5L700 665L698 686.25H495.75L493.75 665ZM178.75 44.75V114.25H137.5V71.5C137.5 49.75 130.25 42.25 106 34.75L55 21.25L57 0H279.25L281.25 21.25ZM377 685ZM378 0Z" glyph-name="Nacute" horiz-adv-x="739" unicode="&#323;" /><glyph d="M358.25 814.5 399.75 816C345.25 844.75 288.75 882.75 243.75 913.25L229.25 903C268.25 855.75 313.75 805.75 348.25 770H399.75L407 775C427.25 802.5 481.5 859.75 524 900.75L511.5 913.25C460 884.5 389.75 836.75 358.25 814.5ZM377 685ZM617.5 572H576.25V81.25L592.25 86.25L203.75 686.25H57L55 665L108 650.75C124.5 647 137.5 637.75 137.5 623.5V114.25H178.75V615.75L160.25 610.75L561.25 0H617.5ZM576.25 641.5V572H617.5V614.75C617.5 636.5 624.75 644 649 651.5L700 665L698 686.25H495.75L493.75 665ZM178.75 44.75V114.25H137.5V71.5C137.5 49.75 130.25 42.25 106 34.75L55 21.25L57 0H279.25L281.25 21.25ZM377 685ZM378 0Z" glyph-name="Ncaron" horiz-adv-x="739" unicode="&#327;" /><glyph d="M429 -163.75C429 -129.5 409.25 -108.75 378 -108.75C348.75 -108.75 325.25 -133.75 325.25 -165C325.25 -194.5 347.25 -214.25 378.25 -214.25L369.75 -181C369 -224 348.25 -288.25 327 -320.5L338.25 -330C383.75 -298.75 429 -224.25 429 -163.75ZM378 0ZM617.5 572H576.25V81.25L592.25 86.25L203.75 686.25H57L55 665L108 650.75C124.5 647 137.5 637.75 137.5 623.5V114.25H178.75V615.75L160.25 610.75L561.25 0H617.5ZM576.25 641.5V572H617.5V614.75C617.5 636.5 624.75 644 649 651.5L700 665L698 686.25H495.75L493.75 665ZM178.75 44.75V114.25H137.5V71.5C137.5 49.75 130.25 42.25 106 34.75L55 21.25L57 0H279.25L281.25 21.25ZM377 685ZM378 0Z" glyph-name="Ncommaaccent" horiz-adv-x="739" unicode="&#325;" /><glyph d="M433 842.5C433 871.75 413.25 891.5 382.25 891.5C347.75 891.5 321.5 864.25 321.5 834C321.5 806 342 784.25 374.25 784.25C411.75 784.25 433 811.75 433 842.5ZM377 685ZM617.5 572H576.25V81.25L592.25 86.25L203.75 686.25H57L55 665L108 650.75C124.5 647 137.5 637.75 137.5 623.5V114.25H178.75V615.75L160.25 610.75L561.25 0H617.5ZM576.25 641.5V572H617.5V614.75C617.5 636.5 624.75 644 649 651.5L700 665L698 686.25H495.75L493.75 665ZM178.75 44.75V114.25H137.5V71.5C137.5 49.75 130.25 42.25 106 34.75L55 21.25L57 0H279.25L281.25 21.25ZM377 685ZM378 0Z" glyph-name="Ndotaccent" horiz-adv-x="739" unicode="&#7748;" /><glyph d="M57.75 -170C140.5 -98 178.75 -52 178.75 75V615.75L160.25 610.75L561.25 0H617.5V572H576.25V81.25L592.25 86.25L203.75 686.25H57L55 665L108 650.75C124.5 647 137.5 637.75 137.5 623.5V104C137.5 -35.75 101 -78.75 42.25 -154.5ZM576.25 641.5V572H617.5V614.75C617.5 636.5 624.75 644 649 651.5L700 665L698 686.25H495.75L493.75 665Z" glyph-name="Nhookleft" horiz-adv-x="739" unicode="&#413;" /><glyph d="M256.75 844C298.75 837.75 421.75 777.25 479.5 777.25C529.75 777.25 552.5 820.75 561.5 885.75C561.5 889.75 561.25 892.5 561 895.5L545.5 901.5C529.75 874.5 507 845.25 497.25 830.25C453 835.75 334.5 897 274.5 897C225 897 200 852.75 191 785.75C191 783.25 191.25 780.5 191.5 778L207 772.75C222 799 248.5 835 256.75 844ZM377 685ZM374.75 927ZM617.5 572H576.25V81.25L592.25 86.25L203.75 686.25H57L55 665L108 650.75C124.5 647 137.5 637.75 137.5 623.5V114.25H178.75V615.75L160.25 610.75L561.25 0H617.5ZM576.25 641.5V572H617.5V614.75C617.5 636.5 624.75 644 649 651.5L700 665L698 686.25H495.75L493.75 665ZM178.75 44.75V114.25H137.5V71.5C137.5 49.75 130.25 42.25 106 34.75L55 21.25L57 0H279.25L281.25 21.25ZM377 685ZM378 0Z" glyph-name="Ntilde" horiz-adv-x="739" unicode="&#209;" /><glyph d="M58 343.5C58 123 168.5 -10 337 -10C504.25 -10 618 130.5 618 348.5C618 565.5 504.25 696.25 344.25 696.25C180.75 696.25 58 564 58 343.5ZM139.25 343.5C139.5 535.5 221.25 656.25 344.25 656.25C462.25 656.25 537 536 536.75 348.5C536.5 158.75 462 30 340 30C218 30 139 150.75 139.25 343.5ZM338.75 686.25ZM411 0ZM338 343.5ZM337.25 0Z" glyph-name="O" horiz-adv-x="676" unicode="O" /><glyph d="M447.5 686.25V0H525.25V686.25ZM525.25 0H825.75C830 26.25 832.5 59.5 832.5 94C832.5 127.5 830.5 157.25 826.5 183.75H807.75L784.75 112.5C780.5 103.5 763 46.25 759 41C733.75 38 694 36.25 658.5 36.25H525.25ZM525.25 686.25V650H648.5C684 650 723.75 647.5 749 645.25C753 640 770.5 582.75 774.75 573.75L797.75 502.5H816.5C820.5 531.25 822.5 558.75 822.5 592.25C822.5 626.75 820 660 815.75 686.25ZM525.25 361.25V326.25L734.5 320.75L736.75 367.5ZM487 666C455.75 686 418.75 696.25 380.5 696.25C203.25 696.25 57.25 559.5 57.25 339.75C57.25 120.75 191.5 -10 373.25 -10C419.75 -10 458.5 1 491.5 21.5L482 64.75C456.25 41 425.5 28.5 378.5 28.5C241 28.5 138.25 149.25 138.5 339.75C138.75 534.75 240.75 657.75 385 657.75C420.75 657.75 449 647 473.25 627.5Z" glyph-name="OE" horiz-adv-x="890.5" unicode="&#338;" /><glyph d="M425.5 907C382 873.5 310 825.25 214.75 792.75L221.25 776C309.25 781.25 469.25 817.75 469.25 869.75C469.25 887.25 454 901.25 434 908.25ZM338.75 686.25ZM330.5 868ZM58 343.5C58 123 168.5 -10 337 -10C504.25 -10 618 130.5 618 348.5C618 565.5 504.25 696.25 344.25 696.25C180.75 696.25 58 564 58 343.5ZM139.25 343.5C139.5 535.5 221.25 656.25 344.25 656.25C462.25 656.25 537 536 536.75 348.5C536.5 158.75 462 30 340 30C218 30 139 150.75 139.25 343.5ZM338.75 686.25ZM411 0ZM338 343.5ZM337.25 0Z" glyph-name="Oacute" horiz-adv-x="676" unicode="&#211;" /><glyph d="M444.75 900.5C429.25 864 389.75 841.5 339.75 841.5C285.25 841.5 245.5 864.5 231.75 902.75L213.25 899.25C222.75 826.75 269.75 783.5 334.5 783.5C401 783.5 450 826.25 464.25 898.75L449 902.5ZM338.75 686.25ZM58 343.5C58 123 168.5 -10 337 -10C504.25 -10 618 130.5 618 348.5C618 565.5 504.25 696.25 344.25 696.25C180.75 696.25 58 564 58 343.5ZM139.25 343.5C139.5 535.5 221.25 656.25 344.25 656.25C462.25 656.25 537 536 536.75 348.5C536.5 158.75 462 30 340 30C218 30 139 150.75 139.25 343.5ZM338.75 686.25ZM411 0ZM338 343.5ZM337.25 0Z" glyph-name="Obreve" horiz-adv-x="676" unicode="&#334;" /><glyph d="M58 343.5C58 123 168.5 -10 337 -10C504.25 -10 618 130.5 618 348.5C618 565.5 504.25 696.25 344.25 696.25C180.75 696.25 58 564 58 343.5ZM139.25 343.5C139.5 535.5 221.25 656.25 344.25 656.25C462.25 656.25 537 536 536.75 348.5C536.5 158.75 462 30 340 30C218 30 139 150.75 139.25 343.5ZM338.75 686.25ZM411 0ZM338 343.5ZM337.25 0ZM320 815.75 361.5 817.25C307 846 250.5 884 205.5 914.5L191 904.25C230 857 275.5 807 310 771.25H361.5L368.75 776.25C389 803.75 443.25 861 485.75 902L473.25 914.5C421.75 885.75 351.5 838 320 815.75ZM338.75 686.25Z" glyph-name="Ocaron" horiz-adv-x="676" unicode="&#465;" /><glyph d="M58 343.5C58 123 168.5 -10 337 -10C504.25 -10 618 130.5 618 348.5C618 565.5 504.25 696.25 344.25 696.25C180.75 696.25 58 564 58 343.5ZM139.25 343.5C139.5 535.5 221.25 656.25 344.25 656.25C462.25 656.25 537 536 536.75 348.5C536.5 158.75 462 30 340 30C218 30 139 150.75 139.25 343.5ZM338.75 686.25ZM411 0ZM338 343.5ZM337.25 0ZM357 870 315.5 868.5C370 839.75 426.5 801.75 471.5 771.25L486 781.5C447 828.75 401.5 878.75 367 914.5H315.5L308.25 909.5C288 882 233.75 824.75 191.25 783.75L203.75 771.25C255.25 800 325.5 847.75 357 870ZM338.75 686.25Z" glyph-name="Ocircumflex" horiz-adv-x="676" unicode="&#212;" /><glyph d="M58 343.5C58 123 168.5 -10 337 -10C504.25 -10 618 130.5 618 348.5C618 565.5 504.25 696.25 344.25 696.25C180.75 696.25 58 564 58 343.5ZM139.25 343.5C139.5 535.5 221.25 656.25 344.25 656.25C462.25 656.25 537 536 536.75 348.5C536.5 158.75 462 30 340 30C218 30 139 150.75 139.25 343.5ZM338.75 686.25ZM411 0ZM338 343.5ZM337.25 0ZM491.25 846.5C491.25 873.5 472.75 892.75 444.5 892.75C412.5 892.75 389 866 389 836.25C389 810 407.75 788.5 437 788.5C471.5 788.5 491.25 816.25 491.25 846.5ZM288.5 846.5C288.5 873.5 270 892.75 241.75 892.75C209.75 892.75 186.25 866 186.25 836.25C186.25 810 205 788.5 234.25 788.5C268.75 788.5 288.5 816.25 288.5 846.5ZM338.75 686.25ZM337.75 916.25Z" glyph-name="Odieresis" horiz-adv-x="676" unicode="&#214;" /><glyph d="M58 343.5C58 123 168.5 -10 337 -10C504.25 -10 618 130.5 618 348.5C618 565.5 504.25 696.25 344.25 696.25C180.75 696.25 58 564 58 343.5ZM139.25 343.5C139.5 535.5 221.25 656.25 344.25 656.25C462.25 656.25 537 536 536.75 348.5C536.5 158.75 462 30 340 30C218 30 139 150.75 139.25 343.5ZM338.75 686.25ZM411 0ZM338 343.5ZM337.25 0ZM389 -161.75C389 -130.5 370.5 -108.75 342.25 -108.75C309.75 -108.75 285.5 -138 285.5 -170.25C285.5 -200.25 304.75 -224 334.25 -224C369 -224 389 -194.5 389 -161.75ZM337.25 0Z" glyph-name="Odotbelow" horiz-adv-x="676" unicode="&#7884;" /><glyph d="M462.75 793.5C367.5 826 295.5 874.25 252 907.75L243.5 909C223.5 902 208.25 888 208.25 870.5C208.25 818.5 368.25 782 456.25 776.75ZM338.75 686.25ZM58 343.5C58 123 168.5 -10 337 -10C504.25 -10 618 130.5 618 348.5C618 565.5 504.25 696.25 344.25 696.25C180.75 696.25 58 564 58 343.5ZM139.25 343.5C139.5 535.5 221.25 656.25 344.25 656.25C462.25 656.25 537 536 536.75 348.5C536.5 158.75 462 30 340 30C218 30 139 150.75 139.25 343.5ZM338.75 686.25ZM411 0ZM338 343.5ZM337.25 0Z" glyph-name="Ograve" horiz-adv-x="676" unicode="&#210;" /><glyph d="M386.75 908.75C353.25 875.25 298.5 827 226 794.5L232.5 777.75C302.5 783 428 822.5 428 871.5C428 889 414 903 395.25 910ZM461.75 908.75C428.25 875.25 373.5 827 301 794.5L307.5 777.75C377.5 783 503 822.5 503 871.5C503 889 489 903 470.25 910ZM338.75 686.25ZM58 343.5C58 123 168.5 -10 337 -10C504.25 -10 618 130.5 618 348.5C618 565.5 504.25 696.25 344.25 696.25C180.75 696.25 58 564 58 343.5ZM139.25 343.5C139.5 535.5 221.25 656.25 344.25 656.25C462.25 656.25 537 536 536.75 348.5C536.5 158.75 462 30 340 30C218 30 139 150.75 139.25 343.5ZM338.75 686.25ZM411 0ZM338 343.5ZM337.25 0Z" glyph-name="Ohungarumlaut" horiz-adv-x="676" unicode="&#336;" /><glyph d="M199.5 816.5H478V867.25H199.5ZM338.75 686.25ZM58 343.5C58 123 168.5 -10 337 -10C504.25 -10 618 130.5 618 348.5C618 565.5 504.25 696.25 344.25 696.25C180.75 696.25 58 564 58 343.5ZM139.25 343.5C139.5 535.5 221.25 656.25 344.25 656.25C462.25 656.25 537 536 536.75 348.5C536.5 158.75 462 30 340 30C218 30 139 150.75 139.25 343.5ZM338.75 686.25ZM411 0ZM338 343.5ZM337.25 0Z" glyph-name="Omacron" horiz-adv-x="676" unicode="&#332;" /><glyph d="M327.5 0 341.75 37C263.5 103.5 198.25 208 198.75 359C198.25 532.75 276.25 656.25 401.75 656.25C519.5 656.25 592.75 532.75 592.75 359C592.75 208 527.5 103.5 449.75 37L464 0H750.75C755 23.5 757.5 55.25 757.5 85.5C757.5 117 755 146 751.5 168.75H732.75L715.75 122.5C705.75 86.5 697.75 65.5 689.25 45.5C662.5 39.5 621.25 36.25 583.5 36.25H509.75C593.75 99.5 674 205.25 674 363.5C674 557.5 563 696.25 401.25 696.25C231 696.25 117 557.5 117.5 363.5C117 205.25 197.25 99.5 281.75 36.25H208C169.75 36.25 128.5 39.5 102.25 45.5C93.25 65.75 85.5 86.75 75.75 122.5L58.75 168.75H40C36 145.25 34 117.5 34 85.5C34 55.5 36.5 23.75 40.75 0Z" glyph-name="Omega" horiz-adv-x="791.5" unicode="&#42934;" /><glyph d="M408 -181.25 404 -171C384.25 -175.5 371.5 -177.25 354 -177.25C318.75 -177.25 298 -158.5 298 -126.5C298 -82.75 336 -38.25 411 0L402.5 15.5C290.25 -24.5 231.5 -79.25 231.5 -143.25C231.5 -193.5 263.5 -224 314.25 -224C350 -224 385.75 -208 408 -181.25ZM411 0ZM58 343.5C58 123 168.5 -10 337 -10C504.25 -10 618 130.5 618 348.5C618 565.5 504.25 696.25 344.25 696.25C180.75 696.25 58 564 58 343.5ZM139.25 343.5C139.5 535.5 221.25 656.25 344.25 656.25C462.25 656.25 537 536 536.75 348.5C536.5 158.75 462 30 340 30C218 30 139 150.75 139.25 343.5ZM338.75 686.25ZM411 0ZM338 343.5ZM337.25 0Z" glyph-name="Oogonek" horiz-adv-x="676" unicode="&#490;" /><glyph d="M616.5 649.5 585.5 674.75 59.5 37.75 89.5 12.25ZM338 343.5ZM58 343.5C58 123 168.5 -10 337 -10C504.25 -10 618 130.5 618 348.5C618 565.5 504.25 696.25 344.25 696.25C180.75 696.25 58 564 58 343.5ZM139.25 343.5C139.5 535.5 221.25 656.25 344.25 656.25C462.25 656.25 537 536 536.75 348.5C536.5 158.75 462 30 340 30C218 30 139 150.75 139.25 343.5ZM338.75 686.25ZM411 0ZM338 343.5ZM337.25 0Z" glyph-name="Oslash" horiz-adv-x="676" unicode="&#216;" /><glyph d="M616.5 649.5 585.5 674.75 59.5 37.75 89.5 12.25ZM338 343.5ZM425.5 907C382 873.5 310 825.25 214.75 792.75L221.25 776C309.25 781.25 469.25 817.75 469.25 869.75C469.25 887.25 454 901.25 434 908.25ZM338.75 686.25ZM330.5 868ZM58 343.5C58 123 168.5 -10 337 -10C504.25 -10 618 130.5 618 348.5C618 565.5 504.25 696.25 344.25 696.25C180.75 696.25 58 564 58 343.5ZM139.25 343.5C139.5 535.5 221.25 656.25 344.25 656.25C462.25 656.25 537 536 536.75 348.5C536.5 158.75 462 30 340 30C218 30 139 150.75 139.25 343.5ZM338.75 686.25ZM411 0ZM338 343.5ZM337.25 0Z" glyph-name="Oslashacute" horiz-adv-x="676" unicode="&#510;" /><glyph d="M218.5 845.25C260.5 839 383.5 778.5 441.25 778.5C491.5 778.5 514.25 822 523.25 887C523.25 891 523 893.75 522.75 896.75L507.25 902.75C491.5 875.75 468.75 846.5 459 831.5C414.75 837 296.25 898.25 236.25 898.25C186.75 898.25 161.75 854 152.75 787C152.75 784.5 153 781.75 153.25 779.25L168.75 774C183.75 800.25 210.25 836.25 218.5 845.25ZM338.75 686.25ZM336.5 928.25ZM58 343.5C58 123 168.5 -10 337 -10C504.25 -10 618 130.5 618 348.5C618 565.5 504.25 696.25 344.25 696.25C180.75 696.25 58 564 58 343.5ZM139.25 343.5C139.5 535.5 221.25 656.25 344.25 656.25C462.25 656.25 537 536 536.75 348.5C536.5 158.75 462 30 340 30C218 30 139 150.75 139.25 343.5ZM338.75 686.25ZM411 0ZM338 343.5ZM337.25 0Z" glyph-name="Otilde" horiz-adv-x="676" unicode="&#213;" /><glyph d="M215.25 267.5H307.75C443 267.5 552.75 339.25 552.75 472.75C552.75 610.75 444.5 686.25 311.5 686.25H215.25V646.25H300.25C407 646.25 471.5 581.75 471.5 472.75C471.5 364.5 405.5 307.5 296.5 307.5H215.25ZM137.5 572V114.25H215.25V572ZM215.25 44.75V114.25H137.5V71.5C137.5 49.75 130.25 42.25 106 34.75L55 21.25L57 0H315.75L317.75 21.25ZM215.25 686.25H57L55 665L117.25 646C133.75 642.25 137.5 637.75 137.5 623.5V572H215.25Z" glyph-name="P" horiz-adv-x="586.75" unicode="P" /><glyph d="M284 11.5C396.5 -86.5 568 -171 659.25 -171C693.75 -171 718 -154 718 -121.25C718 -110.75 714.75 -102.5 710.75 -96.75L707.5 -94.75C698.5 -96.25 690.75 -96.75 680 -96.75C559.5 -96.75 431.5 -43.5 339.75 11.5ZM58 343.5C58 123 168.5 -10 337 -10C504.25 -10 618 130.5 618 348.5C618 565.5 504.25 696.25 344.25 696.25C180.75 696.25 58 564 58 343.5ZM139.25 343.5C139.5 535.5 221.25 656.25 344.25 656.25C462.25 656.25 537 536 536.75 348.5C536.5 158.75 462 30 340 30C218 30 139 150.75 139.25 343.5ZM338.75 686.25ZM411 0ZM338 343.5ZM337.25 0Z" glyph-name="Q" horiz-adv-x="676" unicode="Q" /><glyph d="M137.5 572V114.25H215.25V572ZM215.25 295H300.25C316 295 364.5 302.75 379.5 305.75C465.75 326 541.5 389.5 541.5 495.5C541.5 616.5 439 686.25 302.75 686.25H215.25V646.25H289C395.75 646.25 460.25 589.5 460.25 492.75C460.25 388.5 395.75 333.5 289 333.5H215.25ZM394.5 342.5 327 311 455.5 66.75C479.75 21 503.5 -1.5 558.75 -1.25L632.75 0L634.75 20L610.25 30.25C563 51 540.25 74.75 505.5 137.5ZM215.25 686.25H57L55 665L117.25 646C133.75 642.25 137.5 637.75 137.5 623.5V572H215.25ZM215.25 44.75V114.25H137.5V71.5C137.5 49.75 130.25 42.25 106 34.75L55 21.25L57 0H295.75L297.75 21.25ZM314 686.25ZM364.5 0Z" glyph-name="R" horiz-adv-x="660.75" unicode="R" /><glyph d="M137.5 572V114.25H215.25V572ZM215.25 295H300.25C316 295 364.5 302.75 379.5 305.75C465.75 326 541.5 389.5 541.5 495.5C541.5 616.5 439 686.25 302.75 686.25H215.25V646.25H289C395.75 646.25 460.25 589.5 460.25 492.75C460.25 388.5 395.75 333.5 289 333.5H215.25ZM394.5 342.5 327 311 455.5 66.75C479.75 21 503.5 -1.5 558.75 -1.25L632.75 0L634.75 20L610.25 30.25C563 51 540.25 74.75 505.5 137.5ZM215.25 686.25H57L55 665L117.25 646C133.75 642.25 137.5 637.75 137.5 623.5V572H215.25ZM215.25 44.75V114.25H137.5V71.5C137.5 49.75 130.25 42.25 106 34.75L55 21.25L57 0H295.75L297.75 21.25ZM314 686.25ZM364.5 0ZM400.75 907C357.25 873.5 285.25 825.25 190 792.75L196.5 776C284.5 781.25 444.5 817.75 444.5 869.75C444.5 887.25 429.25 901.25 409.25 908.25ZM314 686.25ZM305.75 868Z" glyph-name="Racute" horiz-adv-x="660.75" unicode="&#340;" /><glyph d="M137.5 572V114.25H215.25V572ZM215.25 295H300.25C316 295 364.5 302.75 379.5 305.75C465.75 326 541.5 389.5 541.5 495.5C541.5 616.5 439 686.25 302.75 686.25H215.25V646.25H289C395.75 646.25 460.25 589.5 460.25 492.75C460.25 388.5 395.75 333.5 289 333.5H215.25ZM394.5 342.5 327 311 455.5 66.75C479.75 21 503.5 -1.5 558.75 -1.25L632.75 0L634.75 20L610.25 30.25C563 51 540.25 74.75 505.5 137.5ZM215.25 686.25H57L55 665L117.25 646C133.75 642.25 137.5 637.75 137.5 623.5V572H215.25ZM215.25 44.75V114.25H137.5V71.5C137.5 49.75 130.25 42.25 106 34.75L55 21.25L57 0H295.75L297.75 21.25ZM314 686.25ZM364.5 0ZM295.25 815.75 336.75 817.25C282.25 846 225.75 884 180.75 914.5L166.25 904.25C205.25 857 250.75 807 285.25 771.25H336.75L344 776.25C364.25 803.75 418.5 861 461 902L448.5 914.5C397 885.75 326.75 838 295.25 815.75ZM314 686.25Z" glyph-name="Rcaron" horiz-adv-x="660.75" unicode="&#344;" /><glyph d="M415.5 -163.75C415.5 -129.5 395.75 -108.75 364.5 -108.75C335.25 -108.75 311.75 -133.75 311.75 -165C311.75 -194.5 333.75 -214.25 364.75 -214.25L356.25 -181C355.5 -224 334.75 -288.25 313.5 -320.5L324.75 -330C370.25 -298.75 415.5 -224.25 415.5 -163.75ZM364.5 0ZM137.5 572V114.25H215.25V572ZM215.25 295H300.25C316 295 364.5 302.75 379.5 305.75C465.75 326 541.5 389.5 541.5 495.5C541.5 616.5 439 686.25 302.75 686.25H215.25V646.25H289C395.75 646.25 460.25 589.5 460.25 492.75C460.25 388.5 395.75 333.5 289 333.5H215.25ZM394.5 342.5 327 311 455.5 66.75C479.75 21 503.5 -1.5 558.75 -1.25L632.75 0L634.75 20L610.25 30.25C563 51 540.25 74.75 505.5 137.5ZM215.25 686.25H57L55 665L117.25 646C133.75 642.25 137.5 637.75 137.5 623.5V572H215.25ZM215.25 44.75V114.25H137.5V71.5C137.5 49.75 130.25 42.25 106 34.75L55 21.25L57 0H295.75L297.75 21.25ZM314 686.25ZM364.5 0Z" glyph-name="Rcommaaccent" horiz-adv-x="660.75" unicode="&#342;" /><glyph d="M137.5 572V114.25H215.25V572ZM215.25 295H300.25C316 295 364.5 302.75 379.5 305.75C465.75 326 541.5 389.5 541.5 495.5C541.5 616.5 439 686.25 302.75 686.25H215.25V646.25H289C395.75 646.25 460.25 589.5 460.25 492.75C460.25 388.5 395.75 333.5 289 333.5H215.25ZM394.5 342.5 327 311 455.5 66.75C479.75 21 503.5 -1.5 558.75 -1.25L632.75 0L634.75 20L610.25 30.25C563 51 540.25 74.75 505.5 137.5ZM215.25 686.25H57L55 665L117.25 646C133.75 642.25 137.5 637.75 137.5 623.5V572H215.25ZM215.25 44.75V114.25H137.5V71.5C137.5 49.75 130.25 42.25 106 34.75L55 21.25L57 0H295.75L297.75 21.25ZM314 686.25ZM364.5 0ZM416.25 -161.75C416.25 -130.5 397.75 -108.75 369.5 -108.75C337 -108.75 312.75 -138 312.75 -170.25C312.75 -200.25 332 -224 361.5 -224C396.25 -224 416.25 -194.5 416.25 -161.75ZM364.5 0Z" glyph-name="Rdotbelow" horiz-adv-x="660.75" unicode="&#7770;" /><glyph d="M229.25 -10C365.75 -10 452 54.75 452 162.25C452 368.25 138 364.25 138 538C138 610.25 192 657.5 267.75 657.5C308.5 657.5 344.75 645.25 363.75 624C379.25 606 391.5 573 401.5 504.25L421 503.75C431 538.5 435.5 582.75 435.5 612C435.5 631 435 651.25 427.5 659.25C412.25 675.75 353 696.25 276.5 696.25C157.5 696.25 59.25 635 59.25 523.75C59.25 321.5 373.25 324.5 373.25 147.25C373.25 82.25 322.5 28.75 239 28.75C195.25 28.75 151 34.5 126.75 59.75C106 81.5 96.25 112 84 181.75L65.25 182.5C55 155.25 50 113 50 85.75C50 56.25 52.25 39.25 61.5 26.25C74.5 8 150.25 -10 229.25 -10ZM254.75 686.25ZM248.75 0Z" glyph-name="S" horiz-adv-x="502" unicode="S" /><glyph d="M229.25 -10C365.75 -10 452 54.75 452 162.25C452 368.25 138 364.25 138 538C138 610.25 192 657.5 267.75 657.5C308.5 657.5 344.75 645.25 363.75 624C379.25 606 391.5 573 401.5 504.25L421 503.75C431 538.5 435.5 582.75 435.5 612C435.5 631 435 651.25 427.5 659.25C412.25 675.75 353 696.25 276.5 696.25C157.5 696.25 59.25 635 59.25 523.75C59.25 321.5 373.25 324.5 373.25 147.25C373.25 82.25 322.5 28.75 239 28.75C195.25 28.75 151 34.5 126.75 59.75C106 81.5 96.25 112 84 181.75L65.25 182.5C55 155.25 50 113 50 85.75C50 56.25 52.25 39.25 61.5 26.25C74.5 8 150.25 -10 229.25 -10ZM254.75 686.25ZM248.75 0ZM341.5 907C298 873.5 226 825.25 130.75 792.75L137.25 776C225.25 781.25 385.25 817.75 385.25 869.75C385.25 887.25 370 901.25 350 908.25ZM254.75 686.25ZM246.5 868Z" glyph-name="Sacute" horiz-adv-x="502" unicode="&#346;" /><glyph d="M229.25 -10C365.75 -10 452 54.75 452 162.25C452 368.25 138 364.25 138 538C138 610.25 192 657.5 267.75 657.5C308.5 657.5 344.75 645.25 363.75 624C379.25 606 391.5 573 401.5 504.25L421 503.75C431 538.5 435.5 582.75 435.5 612C435.5 631 435 651.25 427.5 659.25C412.25 675.75 353 696.25 276.5 696.25C157.5 696.25 59.25 635 59.25 523.75C59.25 321.5 373.25 324.5 373.25 147.25C373.25 82.25 322.5 28.75 239 28.75C195.25 28.75 151 34.5 126.75 59.75C106 81.5 96.25 112 84 181.75L65.25 182.5C55 155.25 50 113 50 85.75C50 56.25 52.25 39.25 61.5 26.25C74.5 8 150.25 -10 229.25 -10ZM254.75 686.25ZM248.75 0ZM236 815.75 277.5 817.25C223 846 166.5 884 121.5 914.5L107 904.25C146 857 191.5 807 226 771.25H277.5L284.75 776.25C305 803.75 359.25 861 401.75 902L389.25 914.5C337.75 885.75 267.5 838 236 815.75ZM254.75 686.25Z" glyph-name="Scaron" horiz-adv-x="502" unicode="&#352;" /><glyph d="M229.25 -10C365.75 -10 452 54.75 452 162.25C452 368.25 138 364.25 138 538C138 610.25 192 657.5 267.75 657.5C308.5 657.5 344.75 645.25 363.75 624C379.25 606 391.5 573 401.5 504.25L421 503.75C431 538.5 435.5 582.75 435.5 612C435.5 631 435 651.25 427.5 659.25C412.25 675.75 353 696.25 276.5 696.25C157.5 696.25 59.25 635 59.25 523.75C59.25 321.5 373.25 324.5 373.25 147.25C373.25 82.25 322.5 28.75 239 28.75C195.25 28.75 151 34.5 126.75 59.75C106 81.5 96.25 112 84 181.75L65.25 182.5C55 155.25 50 113 50 85.75C50 56.25 52.25 39.25 61.5 26.25C74.5 8 150.25 -10 229.25 -10ZM254.75 686.25ZM248.75 0ZM217.75 -99C258.5 -108.5 274.25 -125.25 274.25 -144.5C274.25 -174.25 239.5 -195.25 191.75 -209.25L196 -224.25C278.75 -219 344.75 -189.25 344.75 -136.25C344.75 -100.5 310.75 -72.5 250.25 -62L253 -87.5L268.75 0H230.25L214 -92.75ZM248.75 0Z" glyph-name="Scedilla" horiz-adv-x="502" unicode="&#350;" /><glyph d="M504.5 301.75 508.5 337H87.5L75.5 324.25L144.75 294ZM311.25 -10C473 -10 585.75 133.5 585.75 352.5C585.75 562.25 481.75 696.25 320 696.25C192.75 696.25 79.75 601.75 79.75 493.75C79.75 464.75 98.75 447.5 122.25 447.5C136.5 447.5 150 450.5 163.5 458.75C158 473.5 156.25 486.25 156.25 499.75C156.25 590.75 226.25 657.25 314.75 657.25C436.25 657.25 504 541.75 504 339C504 156.25 433.25 30.5 317 30.5C212.75 30.5 154.5 108.5 154.5 251.5C154.5 265 154.75 282.75 155.75 300.75L75.5 324.25C73.75 303 73 282 73 259.5C73 92.5 171 -10 311.25 -10Z" glyph-name="Schwa" horiz-adv-x="635.75" unicode="&#399;" /><glyph d="M229.25 -10C365.75 -10 452 54.75 452 162.25C452 368.25 138 364.25 138 538C138 610.25 192 657.5 267.75 657.5C308.5 657.5 344.75 645.25 363.75 624C379.25 606 391.5 573 401.5 504.25L421 503.75C431 538.5 435.5 582.75 435.5 612C435.5 631 435 651.25 427.5 659.25C412.25 675.75 353 696.25 276.5 696.25C157.5 696.25 59.25 635 59.25 523.75C59.25 321.5 373.25 324.5 373.25 147.25C373.25 82.25 322.5 28.75 239 28.75C195.25 28.75 151 34.5 126.75 59.75C106 81.5 96.25 112 84 181.75L65.25 182.5C55 155.25 50 113 50 85.75C50 56.25 52.25 39.25 61.5 26.25C74.5 8 150.25 -10 229.25 -10ZM254.75 686.25ZM248.75 0ZM273 870 231.5 868.5C286 839.75 342.5 801.75 387.5 771.25L402 781.5C363 828.75 317.5 878.75 283 914.5H231.5L224.25 909.5C204 882 149.75 824.75 107.25 783.75L119.75 771.25C171.25 800 241.5 847.75 273 870ZM254.75 686.25Z" glyph-name="Scircumflex" horiz-adv-x="502" unicode="&#348;" /><glyph d="M299.75 -163.75C299.75 -129.5 280 -108.75 248.75 -108.75C219.5 -108.75 196 -133.75 196 -165C196 -194.5 218 -214.25 249 -214.25L240.5 -181C239.75 -224 219 -288.25 197.75 -320.5L209 -330C254.5 -298.75 299.75 -224.25 299.75 -163.75ZM248.75 0ZM229.25 -10C365.75 -10 452 54.75 452 162.25C452 368.25 138 364.25 138 538C138 610.25 192 657.5 267.75 657.5C308.5 657.5 344.75 645.25 363.75 624C379.25 606 391.5 573 401.5 504.25L421 503.75C431 538.5 435.5 582.75 435.5 612C435.5 631 435 651.25 427.5 659.25C412.25 675.75 353 696.25 276.5 696.25C157.5 696.25 59.25 635 59.25 523.75C59.25 321.5 373.25 324.5 373.25 147.25C373.25 82.25 322.5 28.75 239 28.75C195.25 28.75 151 34.5 126.75 59.75C106 81.5 96.25 112 84 181.75L65.25 182.5C55 155.25 50 113 50 85.75C50 56.25 52.25 39.25 61.5 26.25C74.5 8 150.25 -10 229.25 -10ZM254.75 686.25ZM248.75 0Z" glyph-name="Scommaaccent" horiz-adv-x="502" unicode="&#536;" /><glyph d="M229.25 -10C365.75 -10 452 54.75 452 162.25C452 368.25 138 364.25 138 538C138 610.25 192 657.5 267.75 657.5C308.5 657.5 344.75 645.25 363.75 624C379.25 606 391.5 573 401.5 504.25L421 503.75C431 538.5 435.5 582.75 435.5 612C435.5 631 435 651.25 427.5 659.25C412.25 675.75 353 696.25 276.5 696.25C157.5 696.25 59.25 635 59.25 523.75C59.25 321.5 373.25 324.5 373.25 147.25C373.25 82.25 322.5 28.75 239 28.75C195.25 28.75 151 34.5 126.75 59.75C106 81.5 96.25 112 84 181.75L65.25 182.5C55 155.25 50 113 50 85.75C50 56.25 52.25 39.25 61.5 26.25C74.5 8 150.25 -10 229.25 -10ZM254.75 686.25ZM248.75 0ZM300.5 -161.75C300.5 -130.5 282 -108.75 253.75 -108.75C221.25 -108.75 197 -138 197 -170.25C197 -200.25 216.25 -224 245.75 -224C280.5 -224 300.5 -194.5 300.5 -161.75ZM248.75 0Z" glyph-name="Sdotbelow" horiz-adv-x="502" unicode="&#7778;" /><glyph d="M177.75 44.75V114.25H100V71.5C100 49.75 92.75 42.25 68.5 34.75L17.5 21.25L19.5 0H278.25L280.25 21.25Z" glyph-name="Serif-long.base" horiz-adv-x="297.75" /><glyph d="M177.75 0V114.25H100V71.5C100 49.75 92.75 42.25 68.5 34.75L17.5 21.25L19.5 0Z" glyph-name="Serif-side.base" horiz-adv-x="197.75" /><glyph d="M177.75 686.25H19.5L17.5 665L79.75 646C96.25 642.25 100 637.75 100 623.5V572H177.75Z" glyph-name="Serif-side.up" horiz-adv-x="197.75" /><glyph d="M148.75 44.75V114.25H107.5V71.5C107.5 49.75 100.25 42.25 76 34.75L25 21.25L27 0H249.25L251.25 21.25Z" glyph-name="Serif-thin-long.base" horiz-adv-x="276.25" /><glyph d="M148.75 44.75V114.25H107.5V71.5C107.5 49.75 100.25 42.25 76 34.75L25 21.25L27 0H229.25L231.25 21.25Z" glyph-name="Serif-thin.base" horiz-adv-x="256.25" /><glyph d="M177.75 44.75V114.25H100V71.5C100 49.75 92.75 42.25 68.5 34.75L17.5 21.25L19.5 0H258.25L260.25 21.25Z" glyph-name="Serif.base" horiz-adv-x="277.75" /><glyph d="M259.75 648.5V114.25H337.5V648.5ZM502.75 640C511.25 618.25 519.75 594 530 554.25L546.25 502.5H565C569 532 571 558.75 571 592.25C571 626.75 568.5 660 564.25 686.25H32.75C28.5 660 26 626.75 26 592.25C26 558.75 28 532 32 502.5H50.75L67 554.25C77.25 594 85.75 618.25 94.25 640C121 645.25 162.25 648.5 200 648.5H397C434.75 648.5 476 645.25 502.75 640ZM337.5 44.75V114.25H259.75V71.5C259.75 49.75 252.5 42.25 228.25 34.75L177.25 21.25L179.25 0H418L420 21.25ZM298.5 687ZM298.5 334ZM298.5 0Z" glyph-name="T" horiz-adv-x="597" unicode="T" /><glyph d="M259.75 648.5V114.25H337.5V648.5ZM502.75 640C511.25 618.25 519.75 594 530 554.25L546.25 502.5H565C569 532 571 558.75 571 592.25C571 626.75 568.5 660 564.25 686.25H32.75C28.5 660 26 626.75 26 592.25C26 558.75 28 532 32 502.5H50.75L67 554.25C77.25 594 85.75 618.25 94.25 640C121 645.25 162.25 648.5 200 648.5H397C434.75 648.5 476 645.25 502.75 640ZM337.5 44.75V114.25H259.75V71.5C259.75 49.75 252.5 42.25 228.25 34.75L177.25 21.25L179.25 0H418L420 21.25ZM298.5 687ZM298.5 334ZM298.5 0ZM499.77 330.5V365.5H98.145V330.5ZM299.43 334Z" glyph-name="Tbar" horiz-adv-x="597" unicode="&#358;" /><glyph d="M259.75 648.5V114.25H337.5V648.5ZM502.75 640C511.25 618.25 519.75 594 530 554.25L546.25 502.5H565C569 532 571 558.75 571 592.25C571 626.75 568.5 660 564.25 686.25H32.75C28.5 660 26 626.75 26 592.25C26 558.75 28 532 32 502.5H50.75L67 554.25C77.25 594 85.75 618.25 94.25 640C121 645.25 162.25 648.5 200 648.5H397C434.75 648.5 476 645.25 502.75 640ZM337.5 44.75V114.25H259.75V71.5C259.75 49.75 252.5 42.25 228.25 34.75L177.25 21.25L179.25 0H418L420 21.25ZM298.5 687ZM298.5 334ZM298.5 0ZM279.75 816.5 321.25 818C266.75 846.75 210.25 884.75 165.25 915.25L150.75 905C189.75 857.75 235.25 807.75 269.75 772H321.25L328.5 777C348.75 804.5 403 861.75 445.5 902.75L433 915.25C381.5 886.5 311.25 838.75 279.75 816.5ZM298.5 687Z" glyph-name="Tcaron" horiz-adv-x="597" unicode="&#356;" /><glyph d="M259.75 648.5V114.25H337.5V648.5ZM502.75 640C511.25 618.25 519.75 594 530 554.25L546.25 502.5H565C569 532 571 558.75 571 592.25C571 626.75 568.5 660 564.25 686.25H32.75C28.5 660 26 626.75 26 592.25C26 558.75 28 532 32 502.5H50.75L67 554.25C77.25 594 85.75 618.25 94.25 640C121 645.25 162.25 648.5 200 648.5H397C434.75 648.5 476 645.25 502.75 640ZM337.5 44.75V114.25H259.75V71.5C259.75 49.75 252.5 42.25 228.25 34.75L177.25 21.25L179.25 0H418L420 21.25ZM298.5 687ZM298.5 334ZM298.5 0ZM267.5 -99C308.25 -108.5 324 -125.25 324 -144.5C324 -174.25 289.25 -195.25 241.5 -209.25L245.75 -224.25C328.5 -219 394.5 -189.25 394.5 -136.25C394.5 -100.5 360.5 -72.5 300 -62L302.75 -87.5L318.5 0H280L263.75 -92.75ZM298.5 0Z" glyph-name="Tcedilla" horiz-adv-x="597" unicode="&#354;" /><glyph d="M349.5 -163.75C349.5 -129.5 329.75 -108.75 298.5 -108.75C269.25 -108.75 245.75 -133.75 245.75 -165C245.75 -194.5 267.75 -214.25 298.75 -214.25L290.25 -181C289.5 -224 268.75 -288.25 247.5 -320.5L258.75 -330C304.25 -298.75 349.5 -224.25 349.5 -163.75ZM298.5 0ZM259.75 648.5V114.25H337.5V648.5ZM502.75 640C511.25 618.25 519.75 594 530 554.25L546.25 502.5H565C569 532 571 558.75 571 592.25C571 626.75 568.5 660 564.25 686.25H32.75C28.5 660 26 626.75 26 592.25C26 558.75 28 532 32 502.5H50.75L67 554.25C77.25 594 85.75 618.25 94.25 640C121 645.25 162.25 648.5 200 648.5H397C434.75 648.5 476 645.25 502.75 640ZM337.5 44.75V114.25H259.75V71.5C259.75 49.75 252.5 42.25 228.25 34.75L177.25 21.25L179.25 0H418L420 21.25ZM298.5 687ZM298.5 334ZM298.5 0Z" glyph-name="Tcommaaccent" horiz-adv-x="597" unicode="&#538;" /><glyph d="M259.75 648.5V114.25H337.5V648.5ZM502.75 640C511.25 618.25 519.75 594 530 554.25L546.25 502.5H565C569 532 571 558.75 571 592.25C571 626.75 568.5 660 564.25 686.25H32.75C28.5 660 26 626.75 26 592.25C26 558.75 28 532 32 502.5H50.75L67 554.25C77.25 594 85.75 618.25 94.25 640C121 645.25 162.25 648.5 200 648.5H397C434.75 648.5 476 645.25 502.75 640ZM337.5 44.75V114.25H259.75V71.5C259.75 49.75 252.5 42.25 228.25 34.75L177.25 21.25L179.25 0H418L420 21.25ZM298.5 687ZM298.5 334ZM298.5 0ZM350.25 -161.75C350.25 -130.5 331.75 -108.75 303.5 -108.75C271 -108.75 246.75 -138 246.75 -170.25C246.75 -200.25 266 -224 295.5 -224C330.25 -224 350.25 -194.5 350.25 -161.75ZM298.5 0Z" glyph-name="Tdotbelow" horiz-adv-x="597" unicode="&#7788;" /><glyph d="M215.25 137.5H307.75C443 137.5 552.75 209.25 552.75 342.75C552.75 480.75 444.5 556.25 311.5 556.25H215.25V516.25H300.25C407 516.25 471.5 451.75 471.5 342.75C471.5 234.5 405.5 177.5 296.5 177.5H215.25ZM137.5 572V114.25H215.25V572ZM215.25 44.75V114.25H137.5V71.5C137.5 49.75 130.25 42.25 106 34.75L55 21.25L57 0H315.75L317.75 21.25ZM137.5 641.5V572H215.25V614.75C215.25 636.5 222.5 644 246.75 651.5L297.75 665L295.75 686.25H57L55 665Z" glyph-name="Thorn" horiz-adv-x="586.75" unicode="&#222;" /><glyph d="M100.5 226.25C100.5 70 199.25 -10 332 -10C467 -10 560.75 69 560.75 226.25V572H519.5V223.25C519.5 95.25 445 31.25 348.5 31.25C252.75 31.25 178.25 97.75 178.25 223V572H100.5ZM519.5 641.5V572H560.75V641.5L643.25 665L641.25 686.25H439L437 665ZM100.5 641.5V572H178.25V614.75C178.25 636.5 185.5 644 209.75 651.5L260.75 665L258.75 686.25H20L18 665ZM343.25 686.25ZM408.75 0ZM334.25 0Z" glyph-name="U" horiz-adv-x="663.25" unicode="U" /><glyph d="M100.5 226.25C100.5 70 199.25 -10 332 -10C467 -10 560.75 69 560.75 226.25V572H519.5V223.25C519.5 95.25 445 31.25 348.5 31.25C252.75 31.25 178.25 97.75 178.25 223V572H100.5ZM519.5 641.5V572H560.75V641.5L643.25 665L641.25 686.25H439L437 665ZM100.5 641.5V572H178.25V614.75C178.25 636.5 185.5 644 209.75 651.5L260.75 665L258.75 686.25H20L18 665ZM343.25 686.25ZM408.75 0ZM334.25 0ZM430 907C386.5 873.5 314.5 825.25 219.25 792.75L225.75 776C313.75 781.25 473.75 817.75 473.75 869.75C473.75 887.25 458.5 901.25 438.5 908.25ZM343.25 686.25ZM335 868Z" glyph-name="Uacute" horiz-adv-x="663.25" unicode="&#218;" /><glyph d="M449.25 900.5C433.75 864 394.25 841.5 344.25 841.5C289.75 841.5 250 864.5 236.25 902.75L217.75 899.25C227.25 826.75 274.25 783.5 339 783.5C405.5 783.5 454.5 826.25 468.75 898.75L453.5 902.5ZM343.25 686.25ZM100.5 226.25C100.5 70 199.25 -10 332 -10C467 -10 560.75 69 560.75 226.25V572H519.5V223.25C519.5 95.25 445 31.25 348.5 31.25C252.75 31.25 178.25 97.75 178.25 223V572H100.5ZM519.5 641.5V572H560.75V641.5L643.25 665L641.25 686.25H439L437 665ZM100.5 641.5V572H178.25V614.75C178.25 636.5 185.5 644 209.75 651.5L260.75 665L258.75 686.25H20L18 665ZM343.25 686.25ZM408.75 0ZM334.25 0Z" glyph-name="Ubreve" horiz-adv-x="663.25" unicode="&#364;" /><glyph d="M100.5 226.25C100.5 70 199.25 -10 332 -10C467 -10 560.75 69 560.75 226.25V572H519.5V223.25C519.5 95.25 445 31.25 348.5 31.25C252.75 31.25 178.25 97.75 178.25 223V572H100.5ZM519.5 641.5V572H560.75V641.5L643.25 665L641.25 686.25H439L437 665ZM100.5 641.5V572H178.25V614.75C178.25 636.5 185.5 644 209.75 651.5L260.75 665L258.75 686.25H20L18 665ZM343.25 686.25ZM408.75 0ZM334.25 0ZM324.5 815.75 366 817.25C311.5 846 255 884 210 914.5L195.5 904.25C234.5 857 280 807 314.5 771.25H366L373.25 776.25C393.5 803.75 447.75 861 490.25 902L477.75 914.5C426.25 885.75 356 838 324.5 815.75ZM343.25 686.25Z" glyph-name="Ucaron" horiz-adv-x="663.25" unicode="&#467;" /><glyph d="M100.5 226.25C100.5 70 199.25 -10 332 -10C467 -10 560.75 69 560.75 226.25V572H519.5V223.25C519.5 95.25 445 31.25 348.5 31.25C252.75 31.25 178.25 97.75 178.25 223V572H100.5ZM519.5 641.5V572H560.75V641.5L643.25 665L641.25 686.25H439L437 665ZM100.5 641.5V572H178.25V614.75C178.25 636.5 185.5 644 209.75 651.5L260.75 665L258.75 686.25H20L18 665ZM343.25 686.25ZM408.75 0ZM334.25 0ZM361.5 870 320 868.5C374.5 839.75 431 801.75 476 771.25L490.5 781.5C451.5 828.75 406 878.75 371.5 914.5H320L312.75 909.5C292.5 882 238.25 824.75 195.75 783.75L208.25 771.25C259.75 800 330 847.75 361.5 870ZM343.25 686.25Z" glyph-name="Ucircumflex" horiz-adv-x="663.25" unicode="&#219;" /><glyph d="M100.5 226.25C100.5 70 199.25 -10 332 -10C467 -10 560.75 69 560.75 226.25V572H519.5V223.25C519.5 95.25 445 31.25 348.5 31.25C252.75 31.25 178.25 97.75 178.25 223V572H100.5ZM519.5 641.5V572H560.75V641.5L643.25 665L641.25 686.25H439L437 665ZM100.5 641.5V572H178.25V614.75C178.25 636.5 185.5 644 209.75 651.5L260.75 665L258.75 686.25H20L18 665ZM343.25 686.25ZM408.75 0ZM334.25 0ZM495.75 846.5C495.75 873.5 477.25 892.75 449 892.75C417 892.75 393.5 866 393.5 836.25C393.5 810 412.25 788.5 441.5 788.5C476 788.5 495.75 816.25 495.75 846.5ZM293 846.5C293 873.5 274.5 892.75 246.25 892.75C214.25 892.75 190.75 866 190.75 836.25C190.75 810 209.5 788.5 238.75 788.5C273.25 788.5 293 816.25 293 846.5ZM343.25 686.25ZM342.25 916.25Z" glyph-name="Udieresis" horiz-adv-x="663.25" unicode="&#220;" /><glyph d="M100.5 226.25C100.5 70 199.25 -10 332 -10C467 -10 560.75 69 560.75 226.25V572H519.5V223.25C519.5 95.25 445 31.25 348.5 31.25C252.75 31.25 178.25 97.75 178.25 223V572H100.5ZM519.5 641.5V572H560.75V641.5L643.25 665L641.25 686.25H439L437 665ZM100.5 641.5V572H178.25V614.75C178.25 636.5 185.5 644 209.75 651.5L260.75 665L258.75 686.25H20L18 665ZM343.25 686.25ZM408.75 0ZM334.25 0ZM429 1137C385.5 1103.5 313.5 1055.25 218.25 1022.75L224.75 1006C312.75 1011.25 472.75 1047.75 472.75 1099.75C472.75 1117.25 457.5 1131.25 437.5 1138.25ZM342.25 916.25ZM334 1098ZM495.75 846.5C495.75 873.5 477.25 892.75 449 892.75C417 892.75 393.5 866 393.5 836.25C393.5 810 412.25 788.5 441.5 788.5C476 788.5 495.75 816.25 495.75 846.5ZM293 846.5C293 873.5 274.5 892.75 246.25 892.75C214.25 892.75 190.75 866 190.75 836.25C190.75 810 209.5 788.5 238.75 788.5C273.25 788.5 293 816.25 293 846.5ZM343.25 686.25ZM342.25 916.25Z" glyph-name="Udieresisacute" horiz-adv-x="663.25" unicode="&#471;" /><glyph d="M100.5 226.25C100.5 70 199.25 -10 332 -10C467 -10 560.75 69 560.75 226.25V572H519.5V223.25C519.5 95.25 445 31.25 348.5 31.25C252.75 31.25 178.25 97.75 178.25 223V572H100.5ZM519.5 641.5V572H560.75V641.5L643.25 665L641.25 686.25H439L437 665ZM100.5 641.5V572H178.25V614.75C178.25 636.5 185.5 644 209.75 651.5L260.75 665L258.75 686.25H20L18 665ZM343.25 686.25ZM408.75 0ZM334.25 0ZM495.75 846.5C495.75 873.5 477.25 892.75 449 892.75C417 892.75 393.5 866 393.5 836.25C393.5 810 412.25 788.5 441.5 788.5C476 788.5 495.75 816.25 495.75 846.5ZM293 846.5C293 873.5 274.5 892.75 246.25 892.75C214.25 892.75 190.75 866 190.75 836.25C190.75 810 209.5 788.5 238.75 788.5C273.25 788.5 293 816.25 293 846.5ZM343.25 686.25ZM342.25 916.25ZM324.5 1045.75 366 1047.25C311.5 1076 255 1114 210 1144.5L195.5 1134.25C234.5 1087 280 1037 314.5 1001.25H366L373.25 1006.25C393.5 1033.75 447.75 1091 490.25 1132L477.75 1144.5C426.25 1115.75 356 1068 324.5 1045.75ZM343.25 916.25Z" glyph-name="Udieresiscaron" horiz-adv-x="663.25" unicode="&#473;" /><glyph d="M100.5 226.25C100.5 70 199.25 -10 332 -10C467 -10 560.75 69 560.75 226.25V572H519.5V223.25C519.5 95.25 445 31.25 348.5 31.25C252.75 31.25 178.25 97.75 178.25 223V572H100.5ZM519.5 641.5V572H560.75V641.5L643.25 665L641.25 686.25H439L437 665ZM100.5 641.5V572H178.25V614.75C178.25 636.5 185.5 644 209.75 651.5L260.75 665L258.75 686.25H20L18 665ZM343.25 686.25ZM408.75 0ZM334.25 0ZM466.25 1023.5C371 1056 299 1104.25 255.5 1137.75L247 1139C227 1132 211.75 1118 211.75 1100.5C211.75 1048.5 371.75 1012 459.75 1006.75ZM342.25 916.25ZM495.75 846.5C495.75 873.5 477.25 892.75 449 892.75C417 892.75 393.5 866 393.5 836.25C393.5 810 412.25 788.5 441.5 788.5C476 788.5 495.75 816.25 495.75 846.5ZM293 846.5C293 873.5 274.5 892.75 246.25 892.75C214.25 892.75 190.75 866 190.75 836.25C190.75 810 209.5 788.5 238.75 788.5C273.25 788.5 293 816.25 293 846.5ZM343.25 686.25ZM342.25 916.25Z" glyph-name="Udieresisgrave" horiz-adv-x="663.25" unicode="&#475;" /><glyph d="M203 1046.5H481.5V1097.25H203ZM342.25 916.25ZM100.5 226.25C100.5 70 199.25 -10 332 -10C467 -10 560.75 69 560.75 226.25V572H519.5V223.25C519.5 95.25 445 31.25 348.5 31.25C252.75 31.25 178.25 97.75 178.25 223V572H100.5ZM519.5 641.5V572H560.75V641.5L643.25 665L641.25 686.25H439L437 665ZM100.5 641.5V572H178.25V614.75C178.25 636.5 185.5 644 209.75 651.5L260.75 665L258.75 686.25H20L18 665ZM343.25 686.25ZM408.75 0ZM334.25 0ZM495.75 846.5C495.75 873.5 477.25 892.75 449 892.75C417 892.75 393.5 866 393.5 836.25C393.5 810 412.25 788.5 441.5 788.5C476 788.5 495.75 816.25 495.75 846.5ZM293 846.5C293 873.5 274.5 892.75 246.25 892.75C214.25 892.75 190.75 866 190.75 836.25C190.75 810 209.5 788.5 238.75 788.5C273.25 788.5 293 816.25 293 846.5ZM343.25 686.25ZM342.25 916.25Z" glyph-name="Udieresismacron" horiz-adv-x="663.25" unicode="&#469;" /><glyph d="M100.5 226.25C100.5 70 199.25 -10 332 -10C467 -10 560.75 69 560.75 226.25V572H519.5V223.25C519.5 95.25 445 31.25 348.5 31.25C252.75 31.25 178.25 97.75 178.25 223V572H100.5ZM519.5 641.5V572H560.75V641.5L643.25 665L641.25 686.25H439L437 665ZM100.5 641.5V572H178.25V614.75C178.25 636.5 185.5 644 209.75 651.5L260.75 665L258.75 686.25H20L18 665ZM343.25 686.25ZM408.75 0ZM334.25 0ZM386 -161.75C386 -130.5 367.5 -108.75 339.25 -108.75C306.75 -108.75 282.5 -138 282.5 -170.25C282.5 -200.25 301.75 -224 331.25 -224C366 -224 386 -194.5 386 -161.75ZM334.25 0Z" glyph-name="Udotbelow" horiz-adv-x="663.25" unicode="&#7908;" /><glyph d="M100.5 226.25C100.5 70 199.25 -10 332 -10C467 -10 560.75 69 560.75 226.25V572H519.5V223.25C519.5 95.25 445 31.25 348.5 31.25C252.75 31.25 178.25 97.75 178.25 223V572H100.5ZM519.5 641.5V572H560.75V641.5L643.25 665L641.25 686.25H439L437 665ZM100.5 641.5V572H178.25V614.75C178.25 636.5 185.5 644 209.75 651.5L260.75 665L258.75 686.25H20L18 665ZM343.25 686.25ZM408.75 0ZM334.25 0ZM467.25 793.5C372 826 300 874.25 256.5 907.75L248 909C228 902 212.75 888 212.75 870.5C212.75 818.5 372.75 782 460.75 776.75ZM343.25 686.25Z" glyph-name="Ugrave" horiz-adv-x="663.25" unicode="&#217;" /><glyph d="M391.25 908.75C357.75 875.25 303 827 230.5 794.5L237 777.75C307 783 432.5 822.5 432.5 871.5C432.5 889 418.5 903 399.75 910ZM466.25 908.75C432.75 875.25 378 827 305.5 794.5L312 777.75C382 783 507.5 822.5 507.5 871.5C507.5 889 493.5 903 474.75 910ZM343.25 686.25ZM100.5 226.25C100.5 70 199.25 -10 332 -10C467 -10 560.75 69 560.75 226.25V572H519.5V223.25C519.5 95.25 445 31.25 348.5 31.25C252.75 31.25 178.25 97.75 178.25 223V572H100.5ZM519.5 641.5V572H560.75V641.5L643.25 665L641.25 686.25H439L437 665ZM100.5 641.5V572H178.25V614.75C178.25 636.5 185.5 644 209.75 651.5L260.75 665L258.75 686.25H20L18 665ZM343.25 686.25ZM408.75 0ZM334.25 0Z" glyph-name="Uhungarumlaut" horiz-adv-x="663.25" unicode="&#368;" /><glyph d="M204 816.5H482.5V867.25H204ZM343.25 686.25ZM100.5 226.25C100.5 70 199.25 -10 332 -10C467 -10 560.75 69 560.75 226.25V572H519.5V223.25C519.5 95.25 445 31.25 348.5 31.25C252.75 31.25 178.25 97.75 178.25 223V572H100.5ZM519.5 641.5V572H560.75V641.5L643.25 665L641.25 686.25H439L437 665ZM100.5 641.5V572H178.25V614.75C178.25 636.5 185.5 644 209.75 651.5L260.75 665L258.75 686.25H20L18 665ZM343.25 686.25ZM408.75 0ZM334.25 0Z" glyph-name="Umacron" horiz-adv-x="663.25" unicode="&#362;" /><glyph d="M100.5 226.25C100.5 70 199.25 -10 332 -10C467 -10 560.75 69 560.75 226.25V572H519.5V223.25C519.5 95.25 445 31.25 348.5 31.25C252.75 31.25 178.25 97.75 178.25 223V572H100.5ZM519.5 641.5V572H560.75V641.5L643.25 665L641.25 686.25H439L437 665ZM100.5 641.5V572H178.25V614.75C178.25 636.5 185.5 644 209.75 651.5L260.75 665L258.75 686.25H20L18 665ZM343.25 686.25ZM408.75 0ZM334.25 0ZM405.75 -181.25 401.75 -171C382 -175.5 369.25 -177.25 351.75 -177.25C316.5 -177.25 295.75 -158.5 295.75 -126.5C295.75 -82.75 333.75 -38.25 408.75 0L400.25 15.5C288 -24.5 229.25 -79.25 229.25 -143.25C229.25 -193.5 261.25 -224 312 -224C347.75 -224 383.5 -208 405.75 -181.25ZM408.75 0Z" glyph-name="Uogonek" horiz-adv-x="663.25" unicode="&#370;" /><glyph d="M100.5 226.25C100.5 70 199.25 -10 332 -10C467 -10 560.75 69 560.75 226.25V572H519.5V223.25C519.5 95.25 445 31.25 348.5 31.25C252.75 31.25 178.25 97.75 178.25 223V572H100.5ZM519.5 641.5V572H560.75V641.5L643.25 665L641.25 686.25H439L437 665ZM100.5 641.5V572H178.25V614.75C178.25 636.5 185.5 644 209.75 651.5L260.75 665L258.75 686.25H20L18 665ZM343.25 686.25ZM408.75 0ZM334.25 0ZM339.5 766C391 766 429 800.25 430.5 847.25C432 890.75 396.25 922 346.75 922C294.25 922 256.25 889 256.25 841C256.25 796.25 290.25 766 339.5 766ZM343.5 895C369.75 895 388.5 874.75 388.5 847.5C388.5 816.25 369.75 793 342.5 793C316.25 793 297.5 813.25 297.5 841.5C297.5 871.75 316.25 895 343.5 895ZM343.25 686.25ZM343.75 916.25Z" glyph-name="Uring" horiz-adv-x="663.25" unicode="&#366;" /><glyph d="M223 845.25C265 839 388 778.5 445.75 778.5C496 778.5 518.75 822 527.75 887C527.75 891 527.5 893.75 527.25 896.75L511.75 902.75C496 875.75 473.25 846.5 463.5 831.5C419.25 837 300.75 898.25 240.75 898.25C191.25 898.25 166.25 854 157.25 787C157.25 784.5 157.5 781.75 157.75 779.25L173.25 774C188.25 800.25 214.75 836.25 223 845.25ZM343.25 686.25ZM341 928.25ZM100.5 226.25C100.5 70 199.25 -10 332 -10C467 -10 560.75 69 560.75 226.25V572H519.5V223.25C519.5 95.25 445 31.25 348.5 31.25C252.75 31.25 178.25 97.75 178.25 223V572H100.5ZM519.5 641.5V572H560.75V641.5L643.25 665L641.25 686.25H439L437 665ZM100.5 641.5V572H178.25V614.75C178.25 636.5 185.5 644 209.75 651.5L260.75 665L258.75 686.25H20L18 665ZM343.25 686.25ZM408.75 0ZM334.25 0Z" glyph-name="Utilde" horiz-adv-x="663.25" unicode="&#360;" /><glyph d="M379.5 0 595.75 611.25C603.25 633 612.5 643.5 632.25 649.5C635.5 651.5 681.5 662.5 686.25 665L684.25 686.25H483.25L481.25 665L593.5 635.25L573.75 672L368.25 72.25H386L190 643.75L272.5 665L270.5 686.25H28L26 665L77 651.25C98.25 645 107.75 636.25 116.5 611L332.75 0Z" glyph-name="V" horiz-adv-x="712.25" unicode="V" /><glyph d="M734.75 0 942.25 611.25C949.5 633 958.75 643.5 978.5 649.5C982 651.5 1028 662.5 1032.75 665L1030.75 686.25H829.75L827.75 665L910.5 643.5L726.75 83.25H738L554.75 643.75L638 665L636 686.25H394.5L392.5 665L444.25 651.25C465.5 645 472.75 636.25 481.25 611L688 0ZM370.75 0 548.5 522.5 526.25 580 359.5 72.25H377.25L190 643.75L272.5 665L270.5 686.25H28L26 665L77 651.25C98.25 645 108 636.25 116.5 611L324 0ZM511.75 686.25Z" glyph-name="W" horiz-adv-x="1058.75" unicode="W" /><glyph d="M598.5 907C555 873.5 483 825.25 387.75 792.75L394.25 776C482.25 781.25 642.25 817.75 642.25 869.75C642.25 887.25 627 901.25 607 908.25ZM511.75 686.25ZM503.5 868ZM734.75 0 942.25 611.25C949.5 633 958.75 643.5 978.5 649.5C982 651.5 1028 662.5 1032.75 665L1030.75 686.25H829.75L827.75 665L910.5 643.5L726.75 83.25H738L554.75 643.75L638 665L636 686.25H394.5L392.5 665L444.25 651.25C465.5 645 472.75 636.25 481.25 611L688 0ZM370.75 0 548.5 522.5 526.25 580 359.5 72.25H377.25L190 643.75L272.5 665L270.5 686.25H28L26 665L77 651.25C98.25 645 108 636.25 116.5 611L324 0ZM511.75 686.25Z" glyph-name="Wacute" horiz-adv-x="1058.75" unicode="&#7810;" /><glyph d="M734.75 0 942.25 611.25C949.5 633 958.75 643.5 978.5 649.5C982 651.5 1028 662.5 1032.75 665L1030.75 686.25H829.75L827.75 665L910.5 643.5L726.75 83.25H738L554.75 643.75L638 665L636 686.25H394.5L392.5 665L444.25 651.25C465.5 645 472.75 636.25 481.25 611L688 0ZM370.75 0 548.5 522.5 526.25 580 359.5 72.25H377.25L190 643.75L272.5 665L270.5 686.25H28L26 665L77 651.25C98.25 645 108 636.25 116.5 611L324 0ZM511.75 686.25ZM530 870 488.5 868.5C543 839.75 599.5 801.75 644.5 771.25L659 781.5C620 828.75 574.5 878.75 540 914.5H488.5L481.25 909.5C461 882 406.75 824.75 364.25 783.75L376.75 771.25C428.25 800 498.5 847.75 530 870ZM511.75 686.25Z" glyph-name="Wcircumflex" horiz-adv-x="1058.75" unicode="&#372;" /><glyph d="M734.75 0 942.25 611.25C949.5 633 958.75 643.5 978.5 649.5C982 651.5 1028 662.5 1032.75 665L1030.75 686.25H829.75L827.75 665L910.5 643.5L726.75 83.25H738L554.75 643.75L638 665L636 686.25H394.5L392.5 665L444.25 651.25C465.5 645 472.75 636.25 481.25 611L688 0ZM370.75 0 548.5 522.5 526.25 580 359.5 72.25H377.25L190 643.75L272.5 665L270.5 686.25H28L26 665L77 651.25C98.25 645 108 636.25 116.5 611L324 0ZM511.75 686.25ZM664.25 846.5C664.25 873.5 645.75 892.75 617.5 892.75C585.5 892.75 562 866 562 836.25C562 810 580.75 788.5 610 788.5C644.5 788.5 664.25 816.25 664.25 846.5ZM461.5 846.5C461.5 873.5 443 892.75 414.75 892.75C382.75 892.75 359.25 866 359.25 836.25C359.25 810 378 788.5 407.25 788.5C441.75 788.5 461.5 816.25 461.5 846.5ZM511.75 686.25ZM510.75 916.25Z" glyph-name="Wdieresis" horiz-adv-x="1058.75" unicode="&#7812;" /><glyph d="M635.75 793.5C540.5 826 468.5 874.25 425 907.75L416.5 909C396.5 902 381.25 888 381.25 870.5C381.25 818.5 541.25 782 629.25 776.75ZM511.75 686.25ZM734.75 0 942.25 611.25C949.5 633 958.75 643.5 978.5 649.5C982 651.5 1028 662.5 1032.75 665L1030.75 686.25H829.75L827.75 665L910.5 643.5L726.75 83.25H738L554.75 643.75L638 665L636 686.25H394.5L392.5 665L444.25 651.25C465.5 645 472.75 636.25 481.25 611L688 0ZM370.75 0 548.5 522.5 526.25 580 359.5 72.25H377.25L190 643.75L272.5 665L270.5 686.25H28L26 665L77 651.25C98.25 645 108 636.25 116.5 611L324 0ZM511.75 686.25Z" glyph-name="Wgrave" horiz-adv-x="1058.75" unicode="&#7808;" /><glyph d="M563.75 608.25C580 631.25 588.75 641 607 647.75C612 650.75 650.5 662.75 657.25 665L655.25 686.25H455.5L453.5 665L536 643.25L349.75 363L367.75 327.5ZM509.25 42.5 426.75 21.25 428.75 0H659L661 21.25C657 23.25 620.5 34.5 617.5 37C597.75 44 592.75 52.75 578 75.25L192 643.75L274.5 665L272.5 686.25H41L39 665C44.75 662.75 80.25 651.25 83 648.75C100.75 641.75 106.75 633.5 122 611ZM127.5 78C112.25 55.75 102.75 45.25 84.25 38.5C79.25 35.5 40.75 23.75 34 21.25L36 0H235.75L237.75 21.25L155.25 43L345.25 327.75L327.25 363.25Z" glyph-name="X" horiz-adv-x="695" unicode="X" /><glyph d="M28 686.25 26 665 74.5 652.75C95 646.5 103.75 637.75 118 611L316 245.25H362.75L558.5 611.25C569.5 632 578 642.5 598.5 648.5C601.5 651 647.25 662.5 652.5 665L650.5 686.25H448.75L446.75 665L558 636L543 670.75L351.25 294.75H369.25L177.25 670.5L162.5 636L273.75 665L271.75 686.25ZM300 302V114.25H377.75V302ZM377.75 44.75V114.25H300V71.5C300 49.75 292.75 42.25 268.5 34.75L217.5 21.25L219.5 0H458.25L460.25 21.25ZM342.75 686.25Z" glyph-name="Y" horiz-adv-x="678.5" unicode="Y" /><glyph d="M28 686.25 26 665 74.5 652.75C95 646.5 103.75 637.75 118 611L316 245.25H362.75L558.5 611.25C569.5 632 578 642.5 598.5 648.5C601.5 651 647.25 662.5 652.5 665L650.5 686.25H448.75L446.75 665L558 636L543 670.75L351.25 294.75H369.25L177.25 670.5L162.5 636L273.75 665L271.75 686.25ZM300 302V114.25H377.75V302ZM377.75 44.75V114.25H300V71.5C300 49.75 292.75 42.25 268.5 34.75L217.5 21.25L219.5 0H458.25L460.25 21.25ZM342.75 686.25ZM429.5 907C386 873.5 314 825.25 218.75 792.75L225.25 776C313.25 781.25 473.25 817.75 473.25 869.75C473.25 887.25 458 901.25 438 908.25ZM342.75 686.25ZM334.5 868Z" glyph-name="Yacute" horiz-adv-x="678.5" unicode="&#221;" /><glyph d="M28 686.25 26 665 74.5 652.75C95 646.5 103.75 637.75 118 611L316 245.25H362.75L558.5 611.25C569.5 632 578 642.5 598.5 648.5C601.5 651 647.25 662.5 652.5 665L650.5 686.25H448.75L446.75 665L558 636L543 670.75L351.25 294.75H369.25L177.25 670.5L162.5 636L273.75 665L271.75 686.25ZM300 302V114.25H377.75V302ZM377.75 44.75V114.25H300V71.5C300 49.75 292.75 42.25 268.5 34.75L217.5 21.25L219.5 0H458.25L460.25 21.25ZM342.75 686.25ZM361 870 319.5 868.5C374 839.75 430.5 801.75 475.5 771.25L490 781.5C451 828.75 405.5 878.75 371 914.5H319.5L312.25 909.5C292 882 237.75 824.75 195.25 783.75L207.75 771.25C259.25 800 329.5 847.75 361 870ZM342.75 686.25Z" glyph-name="Ycircumflex" horiz-adv-x="678.5" unicode="&#374;" /><glyph d="M28 686.25 26 665 74.5 652.75C95 646.5 103.75 637.75 118 611L316 245.25H362.75L558.5 611.25C569.5 632 578 642.5 598.5 648.5C601.5 651 647.25 662.5 652.5 665L650.5 686.25H448.75L446.75 665L558 636L543 670.75L351.25 294.75H369.25L177.25 670.5L162.5 636L273.75 665L271.75 686.25ZM300 302V114.25H377.75V302ZM377.75 44.75V114.25H300V71.5C300 49.75 292.75 42.25 268.5 34.75L217.5 21.25L219.5 0H458.25L460.25 21.25ZM342.75 686.25ZM495.25 846.5C495.25 873.5 476.75 892.75 448.5 892.75C416.5 892.75 393 866 393 836.25C393 810 411.75 788.5 441 788.5C475.5 788.5 495.25 816.25 495.25 846.5ZM292.5 846.5C292.5 873.5 274 892.75 245.75 892.75C213.75 892.75 190.25 866 190.25 836.25C190.25 810 209 788.5 238.25 788.5C272.75 788.5 292.5 816.25 292.5 846.5ZM342.75 686.25ZM341.75 916.25Z" glyph-name="Ydieresis" horiz-adv-x="678.5" unicode="&#376;" /><glyph d="M28 686.25 26 665 74.5 652.75C95 646.5 103.75 637.75 118 611L316 245.25H362.75L558.5 611.25C569.5 632 578 642.5 598.5 648.5C601.5 651 647.25 662.5 652.5 665L650.5 686.25H448.75L446.75 665L558 636L543 670.75L351.25 294.75H369.25L177.25 670.5L162.5 636L273.75 665L271.75 686.25ZM300 302V114.25H377.75V302ZM377.75 44.75V114.25H300V71.5C300 49.75 292.75 42.25 268.5 34.75L217.5 21.25L219.5 0H458.25L460.25 21.25ZM342.75 686.25ZM466.75 793.5C371.5 826 299.5 874.25 256 907.75L247.5 909C227.5 902 212.25 888 212.25 870.5C212.25 818.5 372.25 782 460.25 776.75ZM342.75 686.25Z" glyph-name="Ygrave" horiz-adv-x="678.5" unicode="&#7922;" /><glyph d="M28 686.25 26 665 74.5 652.75C95 646.5 103.75 637.75 118 611L316 245.25H362.75L558.5 611.25C569.5 632 578 642.5 598.5 648.5C601.5 651 647.25 662.5 652.5 665L650.5 686.25H448.75L446.75 665L558 636L543 670.75L351.25 294.75H369.25L177.25 670.5L162.5 636L273.75 665L271.75 686.25ZM300 302V114.25H377.75V302ZM377.75 44.75V114.25H300V71.5C300 49.75 292.75 42.25 268.5 34.75L217.5 21.25L219.5 0H458.25L460.25 21.25ZM342.75 686.25ZM203.5 816.5H482V867.25H203.5ZM342.75 686.25Z" glyph-name="Ymacron" horiz-adv-x="678.5" unicode="&#562;" /><glyph d="M28 686.25 26 665 74.5 652.75C95 646.5 103.75 637.75 118 611L316 245.25H362.75L558.5 611.25C569.5 632 578 642.5 598.5 648.5C601.5 651 647.25 662.5 652.5 665L650.5 686.25H448.75L446.75 665L558 636L543 670.75L351.25 294.75H369.25L177.25 670.5L162.5 636L273.75 665L271.75 686.25ZM300 302V114.25H377.75V302ZM377.75 44.75V114.25H300V71.5C300 49.75 292.75 42.25 268.5 34.75L217.5 21.25L219.5 0H458.25L460.25 21.25ZM342.75 686.25ZM222.5 845.25C264.5 839 387.5 778.5 445.25 778.5C495.5 778.5 518.25 822 527.25 887C527.25 891 527 893.75 526.75 896.75L511.25 902.75C495.5 875.75 472.75 846.5 463 831.5C418.75 837 300.25 898.25 240.25 898.25C190.75 898.25 165.75 854 156.75 787C156.75 784.5 157 781.75 157.25 779.25L172.75 774C187.75 800.25 214.25 836.25 222.5 845.25ZM342.75 686.25ZM340.5 928.25Z" glyph-name="Ytilde" horiz-adv-x="678.5" unicode="&#7928;" /><glyph d="M535.5 0C539.75 28.75 542.25 67.75 542.25 102.5C542.25 132.25 540.25 157.75 536.25 183.75H517.5L466.25 41C440.25 38 401.25 36.25 365.75 36.25H123.75L139.25 11.75L533.5 651.25L527.25 686.25H79.75C75.5 657.75 73 620.25 73 584.75C73 556.75 75 529 79 502.5H97.75L149 645.25C175 648.25 214 650 249.5 650H476L460.5 674.5L66 35L72.25 0ZM310.75 686.25ZM312.25 0Z" glyph-name="Z" horiz-adv-x="610.75" unicode="Z" /><glyph d="M535.5 0C539.75 28.75 542.25 67.75 542.25 102.5C542.25 132.25 540.25 157.75 536.25 183.75H517.5L466.25 41C440.25 38 401.25 36.25 365.75 36.25H123.75L139.25 11.75L533.5 651.25L527.25 686.25H79.75C75.5 657.75 73 620.25 73 584.75C73 556.75 75 529 79 502.5H97.75L149 645.25C175 648.25 214 650 249.5 650H476L460.5 674.5L66 35L72.25 0ZM310.75 686.25ZM312.25 0ZM397.5 907C354 873.5 282 825.25 186.75 792.75L193.25 776C281.25 781.25 441.25 817.75 441.25 869.75C441.25 887.25 426 901.25 406 908.25ZM310.75 686.25ZM302.5 868Z" glyph-name="Zacute" horiz-adv-x="610.75" unicode="&#377;" /><glyph d="M535.5 0C539.75 28.75 542.25 67.75 542.25 102.5C542.25 132.25 540.25 157.75 536.25 183.75H517.5L466.25 41C440.25 38 401.25 36.25 365.75 36.25H123.75L139.25 11.75L533.5 651.25L527.25 686.25H79.75C75.5 657.75 73 620.25 73 584.75C73 556.75 75 529 79 502.5H97.75L149 645.25C175 648.25 214 650 249.5 650H476L460.5 674.5L66 35L72.25 0ZM310.75 686.25ZM312.25 0ZM292 815.75 333.5 817.25C279 846 222.5 884 177.5 914.5L163 904.25C202 857 247.5 807 282 771.25H333.5L340.75 776.25C361 803.75 415.25 861 457.75 902L445.25 914.5C393.75 885.75 323.5 838 292 815.75ZM310.75 686.25Z" glyph-name="Zcaron" horiz-adv-x="610.75" unicode="&#381;" /><glyph d="M535.5 0C539.75 28.75 542.25 67.75 542.25 102.5C542.25 132.25 540.25 157.75 536.25 183.75H517.5L466.25 41C440.25 38 401.25 36.25 365.75 36.25H123.75L139.25 11.75L533.5 651.25L527.25 686.25H79.75C75.5 657.75 73 620.25 73 584.75C73 556.75 75 529 79 502.5H97.75L149 645.25C175 648.25 214 650 249.5 650H476L460.5 674.5L66 35L72.25 0ZM310.75 686.25ZM312.25 0ZM366.75 843.75C366.75 873 347 892.75 316 892.75C281.5 892.75 255.25 865.5 255.25 835.25C255.25 807.25 275.75 785.5 308 785.5C345.5 785.5 366.75 813 366.75 843.75ZM310.75 686.25Z" glyph-name="Zdotaccent" horiz-adv-x="610.75" unicode="&#379;" /><glyph d="M535.5 0C539.75 28.75 542.25 67.75 542.25 102.5C542.25 132.25 540.25 157.75 536.25 183.75H517.5L466.25 41C440.25 38 401.25 36.25 365.75 36.25H123.75L139.25 11.75L533.5 651.25L527.25 686.25H79.75C75.5 657.75 73 620.25 73 584.75C73 556.75 75 529 79 502.5H97.75L149 645.25C175 648.25 214 650 249.5 650H476L460.5 674.5L66 35L72.25 0ZM310.75 686.25ZM312.25 0ZM364 -161.75C364 -130.5 345.5 -108.75 317.25 -108.75C284.75 -108.75 260.5 -138 260.5 -170.25C260.5 -200.25 279.75 -224 309.25 -224C344 -224 364 -194.5 364 -161.75ZM312.25 0Z" glyph-name="Zdotbelow" horiz-adv-x="610.75" unicode="&#7826;" /><glyph d="M355.25 269.75C181.5 271 58 202.5 58 101.75C58 32.25 107.75 -10 184.75 -10C254.25 -10 312.25 28.25 347.5 73.25L337 100.5C305.75 64.25 260.75 38.75 214.25 38.75C165.25 38.75 135.25 61.75 135.25 112C135.25 189.5 223 239.25 355.25 239.25ZM265.25 506.25C167.25 506.25 71.25 432.5 71.25 371C71.25 346.5 89.25 331.5 115.5 331.5C127.5 331.5 139.5 334.25 151.5 341C147 353.75 145.25 365.5 145.25 377.5C145.25 424.5 187.5 469 248.25 469C303.5 469 336.5 436.75 336.5 377.5C336.5 349.75 333.5 161.75 333.5 71.75C333.5 22 364.25 -10 411.75 -10C448 -10 482 7 502.75 33.25L498.75 43.5C483 39 470.25 37.25 457 37.25C419.75 37.25 408.75 56.5 408.75 103C408.75 175.5 413 311.5 413 363.75C413 456 359 506.25 265.25 506.25ZM247 496.25ZM458.25 0ZM251.5 0Z" glyph-name="a" horiz-adv-x="515.75" unicode="a" /><glyph d="M290.75 140.75C148 141.75 47.5 88.5 47.5 9.5C47.5 -44.75 87.75 -78 150.75 -78C208.25 -78 256 -48.25 284.75 -12.75L276.25 8C250 -19 213.5 -38 175.5 -38C135.75 -38 111.25 -19.75 111.25 19C111.25 78.5 183 116.5 290.75 116.5ZM218 325C137 325 58.25 267.5 58.25 219.25C58.25 199.5 73.25 187.75 94.5 187.75C104.75 187.75 114.25 190.25 124.25 195.5C120.5 205.75 119.75 215 119.75 225C119.75 261.75 154 295.5 203.5 295.5C248.75 295.5 275.75 270.75 275.75 225.25C275.75 204.75 272.75 52.75 272.75 -13.25C272.75 -52.5 298.5 -78 337.75 -78C367.25 -78 395.75 -64.5 413 -42.25L409 -34.25C396.25 -37.75 386.25 -38.75 375 -38.75C346.25 -38.75 335.5 -26.5 335.5 12.75C335.5 67.25 338.75 172.25 338.75 212C338.75 285.5 294.5 325 218 325Z" glyph-name="a.inferior" horiz-adv-x="432.5" unicode="&#8336;" /><glyph d="M275.25 536.25 92 65.75C86 49.75 77.75 40.25 61.75 34C58.25 31.25 20.5 21 15.5 18.25L17.5 0H187.5L189.5 18.25L102.75 45.25L114.75 19.5L283.75 457H269.5L432.25 37.25L362 18.25L364 0H575.75L577.75 18.25L535.75 29.75C516.5 36.75 510 43.75 501.25 66L318 536.25ZM164.5 202.5V167.75L386.5 170.5V201.25ZM299 536.25ZM575.75 0ZM282.5 0Z" glyph-name="a.sc" horiz-adv-x="593.25" /><glyph d="M290.75 580C148 581 47.5 527.75 47.5 448.75C47.5 394.5 87.75 361.25 150.75 361.25C208.25 361.25 256 391 284.75 426.5L276.25 447.25C250 420.25 213.5 401.25 175.5 401.25C135.75 401.25 111.25 419.5 111.25 458.25C111.25 517.75 183 555.75 290.75 555.75ZM218 764.25C137 764.25 58.25 706.75 58.25 658.5C58.25 638.75 73.25 627 94.5 627C104.75 627 114.25 629.5 124.25 634.75C120.5 645 119.75 654.25 119.75 664.25C119.75 701 154 734.75 203.5 734.75C248.75 734.75 275.75 710 275.75 664.5C275.75 644 272.75 492 272.75 426C272.75 386.75 298.5 361.25 337.75 361.25C367.25 361.25 395.75 374.75 413 397L409 405C396.25 401.5 386.25 400.5 375 400.5C346.25 400.5 335.5 412.75 335.5 452C335.5 506.5 338.75 611.5 338.75 651.25C338.75 724.75 294.5 764.25 218 764.25Z" glyph-name="a.superior" horiz-adv-x="433.5" /><glyph d="M355.25 269.75C181.5 271 58 202.5 58 101.75C58 32.25 107.75 -10 184.75 -10C254.25 -10 312.25 28.25 347.5 73.25L337 100.5C305.75 64.25 260.75 38.75 214.25 38.75C165.25 38.75 135.25 61.75 135.25 112C135.25 189.5 223 239.25 355.25 239.25ZM265.25 506.25C167.25 506.25 71.25 432.5 71.25 371C71.25 346.5 89.25 331.5 115.5 331.5C127.5 331.5 139.5 334.25 151.5 341C147 353.75 145.25 365.5 145.25 377.5C145.25 424.5 187.5 469 248.25 469C303.5 469 336.5 436.75 336.5 377.5C336.5 349.75 333.5 161.75 333.5 71.75C333.5 22 364.25 -10 411.75 -10C448 -10 482 7 502.75 33.25L498.75 43.5C483 39 470.25 37.25 457 37.25C419.75 37.25 408.75 56.5 408.75 103C408.75 175.5 413 311.5 413 363.75C413 456 359 506.25 265.25 506.25ZM247 496.25ZM458.25 0ZM251.5 0ZM359.25 726.75C359.25 747.25 340.25 758.25 311.5 758.25C308 758.25 303.5 758.25 300 758L293.5 754.5C271.5 712.5 222.25 647.25 171.75 589.25L183.5 576.25C267.75 622.5 359.25 687.75 359.25 726.75ZM247 496.25ZM261 746.25Z" glyph-name="aacute" horiz-adv-x="515.75" unicode="&#225;" /><glyph d="M411.25 766.75C411.25 787.25 392.25 798.25 363.5 798.25C360 798.25 355.5 798.25 352 798L345.5 794.5C323.5 752.5 274.25 687.25 223.75 629.25L235.5 616.25C319.75 662.5 411.25 727.75 411.25 766.75ZM299 536.25ZM313 786.25ZM275.25 536.25 92 65.75C86 49.75 77.75 40.25 61.75 34C58.25 31.25 20.5 21 15.5 18.25L17.5 0H187.5L189.5 18.25L102.75 45.25L114.75 19.5L283.75 457H269.5L432.25 37.25L362 18.25L364 0H575.75L577.75 18.25L535.75 29.75C516.5 36.75 510 43.75 501.25 66L318 536.25ZM164.5 202.5V167.75L386.5 170.5V201.25ZM299 536.25ZM575.75 0ZM282.5 0Z" glyph-name="aacute.sc" horiz-adv-x="593.25" /><glyph d="M355.25 269.75C181.5 271 58 202.5 58 101.75C58 32.25 107.75 -10 184.75 -10C254.25 -10 312.25 28.25 347.5 73.25L337 100.5C305.75 64.25 260.75 38.75 214.25 38.75C165.25 38.75 135.25 61.75 135.25 112C135.25 189.5 223 239.25 355.25 239.25ZM265.25 506.25C167.25 506.25 71.25 432.5 71.25 371C71.25 346.5 89.25 331.5 115.5 331.5C127.5 331.5 139.5 334.25 151.5 341C147 353.75 145.25 365.5 145.25 377.5C145.25 424.5 187.5 469 248.25 469C303.5 469 336.5 436.75 336.5 377.5C336.5 349.75 333.5 161.75 333.5 71.75C333.5 22 364.25 -10 411.75 -10C448 -10 482 7 502.75 33.25L498.75 43.5C483 39 470.25 37.25 457 37.25C419.75 37.25 408.75 56.5 408.75 103C408.75 175.5 413 311.5 413 363.75C413 456 359 506.25 265.25 506.25ZM247 496.25ZM458.25 0ZM251.5 0ZM354.5 734.5C339 686.25 299.5 657.25 249.5 657.25C194 657.25 153.75 687.5 140 736.75L121.5 733.5C130 649.25 178 598 244.25 598C311.25 598 361 649 374 733.25L358.75 736.5ZM247 496.25ZM247.5 746.25Z" glyph-name="abreve" horiz-adv-x="515.75" unicode="&#259;" /><glyph d="M275.25 536.25 92 65.75C86 49.75 77.75 40.25 61.75 34C58.25 31.25 20.5 21 15.5 18.25L17.5 0H187.5L189.5 18.25L102.75 45.25L114.75 19.5L283.75 457H269.5L432.25 37.25L362 18.25L364 0H575.75L577.75 18.25L535.75 29.75C516.5 36.75 510 43.75 501.25 66L318 536.25ZM164.5 202.5V167.75L386.5 170.5V201.25ZM299 536.25ZM575.75 0ZM282.5 0ZM406.5 774.5C391 726.25 351.5 697.25 301.5 697.25C246 697.25 205.75 727.5 192 776.75L173.5 773.5C182 689.25 230 638 296.25 638C363.25 638 413 689 426 773.25L410.75 776.5ZM299 536.25ZM299.5 786.25Z" glyph-name="abreve.sc" horiz-adv-x="593.25" /><glyph d="M355.25 269.75C181.5 271 58 202.5 58 101.75C58 32.25 107.75 -10 184.75 -10C254.25 -10 312.25 28.25 347.5 73.25L337 100.5C305.75 64.25 260.75 38.75 214.25 38.75C165.25 38.75 135.25 61.75 135.25 112C135.25 189.5 223 239.25 355.25 239.25ZM265.25 506.25C167.25 506.25 71.25 432.5 71.25 371C71.25 346.5 89.25 331.5 115.5 331.5C127.5 331.5 139.5 334.25 151.5 341C147 353.75 145.25 365.5 145.25 377.5C145.25 424.5 187.5 469 248.25 469C303.5 469 336.5 436.75 336.5 377.5C336.5 349.75 333.5 161.75 333.5 71.75C333.5 22 364.25 -10 411.75 -10C448 -10 482 7 502.75 33.25L498.75 43.5C483 39 470.25 37.25 457 37.25C419.75 37.25 408.75 56.5 408.75 103C408.75 175.5 413 311.5 413 363.75C413 456 359 506.25 265.25 506.25ZM247 496.25ZM458.25 0ZM251.5 0ZM228.75 626 270.25 627.5C219.5 665.5 166.25 715 124.25 755L109.75 744.75C145.25 686.75 186 626 217.25 582.75H271.75L279 587.75C297.25 621.5 346 692.5 384.5 742.5L372 755C323.75 717 258 655.5 228.75 626ZM247 496.25ZM246.25 748.75Z" glyph-name="acaron" horiz-adv-x="515.75" unicode="&#462;" /><glyph d="M275.25 536.25 92 65.75C86 49.75 77.75 40.25 61.75 34C58.25 31.25 20.5 21 15.5 18.25L17.5 0H187.5L189.5 18.25L102.75 45.25L114.75 19.5L283.75 457H269.5L432.25 37.25L362 18.25L364 0H575.75L577.75 18.25L535.75 29.75C516.5 36.75 510 43.75 501.25 66L318 536.25ZM164.5 202.5V167.75L386.5 170.5V201.25ZM299 536.25ZM575.75 0ZM282.5 0ZM280.75 666 322.25 667.5C271.5 705.5 218.25 755 176.25 795L161.75 784.75C197.25 726.75 238 666 269.25 622.75H323.75L331 627.75C349.25 661.5 398 732.5 436.5 782.5L424 795C375.75 757 310 695.5 280.75 666ZM299 536.25ZM298.25 788.75Z" glyph-name="acaron.sc" horiz-adv-x="593.25" /><glyph d="M355.25 269.75C181.5 271 58 202.5 58 101.75C58 32.25 107.75 -10 184.75 -10C254.25 -10 312.25 28.25 347.5 73.25L337 100.5C305.75 64.25 260.75 38.75 214.25 38.75C165.25 38.75 135.25 61.75 135.25 112C135.25 189.5 223 239.25 355.25 239.25ZM265.25 506.25C167.25 506.25 71.25 432.5 71.25 371C71.25 346.5 89.25 331.5 115.5 331.5C127.5 331.5 139.5 334.25 151.5 341C147 353.75 145.25 365.5 145.25 377.5C145.25 424.5 187.5 469 248.25 469C303.5 469 336.5 436.75 336.5 377.5C336.5 349.75 333.5 161.75 333.5 71.75C333.5 22 364.25 -10 411.75 -10C448 -10 482 7 502.75 33.25L498.75 43.5C483 39 470.25 37.25 457 37.25C419.75 37.25 408.75 56.5 408.75 103C408.75 175.5 413 311.5 413 363.75C413 456 359 506.25 265.25 506.25ZM247 496.25ZM458.25 0ZM251.5 0ZM265.25 710 223.75 708.5C274.5 670.5 327.75 621 369.75 581L384.25 591.25C348.75 649.25 308 710 276.75 753.25H222.25L215 748.25C196.75 714.5 148 643.5 109.5 593.5L122 581C170.25 619 236 680.5 265.25 710ZM247 496.25ZM246.75 746.25Z" glyph-name="acircumflex" horiz-adv-x="515.75" unicode="&#226;" /><glyph d="M275.25 536.25 92 65.75C86 49.75 77.75 40.25 61.75 34C58.25 31.25 20.5 21 15.5 18.25L17.5 0H187.5L189.5 18.25L102.75 45.25L114.75 19.5L283.75 457H269.5L432.25 37.25L362 18.25L364 0H575.75L577.75 18.25L535.75 29.75C516.5 36.75 510 43.75 501.25 66L318 536.25ZM164.5 202.5V167.75L386.5 170.5V201.25ZM299 536.25ZM575.75 0ZM282.5 0ZM317.25 750 275.75 748.5C326.5 710.5 379.75 661 421.75 621L436.25 631.25C400.75 689.25 360 750 328.75 793.25H274.25L267 788.25C248.75 754.5 200 683.5 161.5 633.5L174 621C222.25 659 288 720.5 317.25 750ZM299 536.25ZM298.75 786.25Z" glyph-name="acircumflex.sc" horiz-adv-x="593.25" /><glyph d="M279 726.75C279 747.25 260 758.25 231.25 758.25C227.75 758.25 223.25 758.25 219.75 758L213.25 754.5C191.25 712.5 142 647.25 91.5 589.25L103.25 576.25C187.5 622.5 279 687.75 279 726.75Z" glyph-name="acute" horiz-adv-x="370.5" unicode="&#180;" /><glyph d="M302.25 907C258.75 873.5 186.75 825.25 91.5 792.75L98 776C186 781.25 346 817.75 346 869.75C346 887.25 330.75 901.25 310.75 908.25Z" glyph-name="acute.case" horiz-adv-x="437.5" /><glyph d="M279 726.75C279 747.25 260 758.25 231.25 758.25C227.75 758.25 223.25 758.25 219.75 758L213.25 754.5C191.25 712.5 142 647.25 91.5 589.25L103.25 576.25C187.5 622.5 279 687.75 279 726.75ZM166.75 496.25ZM180.75 746.25Z" glyph-name="acutecomb" horiz-adv-x="370.5" unicode="&#769;" /><glyph d="M302.25 907C258.75 873.5 186.75 825.25 91.5 792.75L98 776C186 781.25 346 817.75 346 869.75C346 887.25 330.75 901.25 310.75 908.25ZM215.5 686.25ZM207.25 868Z" glyph-name="acutecomb.case" horiz-adv-x="437.5" /><glyph d="M355.25 269.75C181.5 271 58 202.5 58 101.75C58 32.25 107.75 -10 184.75 -10C254.25 -10 312.25 28.25 347.5 73.25L337 100.5C305.75 64.25 260.75 38.75 214.25 38.75C165.25 38.75 135.25 61.75 135.25 112C135.25 189.5 223 239.25 355.25 239.25ZM265.25 506.25C167.25 506.25 71.25 432.5 71.25 371C71.25 346.5 89.25 331.5 115.5 331.5C127.5 331.5 139.5 334.25 151.5 341C147 353.75 145.25 365.5 145.25 377.5C145.25 424.5 187.5 469 248.25 469C303.5 469 336.5 436.75 336.5 377.5C336.5 349.75 333.5 161.75 333.5 71.75C333.5 22 364.25 -10 411.75 -10C448 -10 482 7 502.75 33.25L498.75 43.5C483 39 470.25 37.25 457 37.25C419.75 37.25 408.75 56.5 408.75 103C408.75 175.5 413 311.5 413 363.75C413 456 359 506.25 265.25 506.25ZM247 496.25ZM458.25 0ZM251.5 0ZM396.75 671.75C396.75 701.25 379.25 721.75 353 721.75C323 721.75 300.5 693.5 300.5 661.5C300.5 633.75 318.25 610.75 345.5 610.75C378 610.75 396.75 640 396.75 671.75ZM194 671.75C194 701.25 176.5 721.75 150.25 721.75C120.25 721.75 97.75 693.5 97.75 661.5C97.75 633.75 115.5 610.75 142.75 610.75C175.25 610.75 194 640 194 671.75ZM247 496.25ZM247.75 746.25Z" glyph-name="adieresis" horiz-adv-x="515.75" unicode="&#228;" /><glyph d="M275.25 536.25 92 65.75C86 49.75 77.75 40.25 61.75 34C58.25 31.25 20.5 21 15.5 18.25L17.5 0H187.5L189.5 18.25L102.75 45.25L114.75 19.5L283.75 457H269.5L432.25 37.25L362 18.25L364 0H575.75L577.75 18.25L535.75 29.75C516.5 36.75 510 43.75 501.25 66L318 536.25ZM164.5 202.5V167.75L386.5 170.5V201.25ZM299 536.25ZM575.75 0ZM282.5 0ZM448.75 711.75C448.75 741.25 431.25 761.75 405 761.75C375 761.75 352.5 733.5 352.5 701.5C352.5 673.75 370.25 650.75 397.5 650.75C430 650.75 448.75 680 448.75 711.75ZM246 711.75C246 741.25 228.5 761.75 202.25 761.75C172.25 761.75 149.75 733.5 149.75 701.5C149.75 673.75 167.5 650.75 194.75 650.75C227.25 650.75 246 680 246 711.75ZM299 536.25ZM299.75 786.25Z" glyph-name="adieresis.sc" horiz-adv-x="593.25" /><glyph d="M355.25 269.75C181.5 271 58 202.5 58 101.75C58 32.25 107.75 -10 184.75 -10C254.25 -10 312.25 28.25 347.5 73.25L337 100.5C305.75 64.25 260.75 38.75 214.25 38.75C165.25 38.75 135.25 61.75 135.25 112C135.25 189.5 223 239.25 355.25 239.25ZM265.25 506.25C167.25 506.25 71.25 432.5 71.25 371C71.25 346.5 89.25 331.5 115.5 331.5C127.5 331.5 139.5 334.25 151.5 341C147 353.75 145.25 365.5 145.25 377.5C145.25 424.5 187.5 469 248.25 469C303.5 469 336.5 436.75 336.5 377.5C336.5 349.75 333.5 161.75 333.5 71.75C333.5 22 364.25 -10 411.75 -10C448 -10 482 7 502.75 33.25L498.75 43.5C483 39 470.25 37.25 457 37.25C419.75 37.25 408.75 56.5 408.75 103C408.75 175.5 413 311.5 413 363.75C413 456 359 506.25 265.25 506.25ZM247 496.25ZM458.25 0ZM251.5 0ZM303.25 -161.75C303.25 -130.5 284.75 -108.75 256.5 -108.75C224 -108.75 199.75 -138 199.75 -170.25C199.75 -200.25 219 -224 248.5 -224C283.25 -224 303.25 -194.5 303.25 -161.75ZM251.5 0Z" glyph-name="adotbelow" horiz-adv-x="515.75" unicode="&#7841;" /><glyph d="M275.25 536.25 92 65.75C86 49.75 77.75 40.25 61.75 34C58.25 31.25 20.5 21 15.5 18.25L17.5 0H187.5L189.5 18.25L102.75 45.25L114.75 19.5L283.75 457H269.5L432.25 37.25L362 18.25L364 0H575.75L577.75 18.25L535.75 29.75C516.5 36.75 510 43.75 501.25 66L318 536.25ZM164.5 202.5V167.75L386.5 170.5V201.25ZM299 536.25ZM575.75 0ZM282.5 0ZM334.25 -161.75C334.25 -130.5 315.75 -108.75 287.5 -108.75C255 -108.75 230.75 -138 230.75 -170.25C230.75 -200.25 250 -224 279.5 -224C314.25 -224 334.25 -194.5 334.25 -161.75ZM282.5 0Z" glyph-name="adotbelow.sc" horiz-adv-x="593.25" /><glyph d="M374.5 95.25 357.5 124.25C320.75 74 268.75 38.75 215.25 38.75C165.75 38.75 135.25 61.75 135.25 112C135.25 189.5 223 239.25 355.25 239.25V269.75C181.5 271 58 202.5 58 101.75C58 31.75 107.75 -10 186.25 -10C266.25 -10 332.5 38.5 374.5 95.25ZM336.5 377.5C336.5 352.75 335.75 304.5 335 250.5L403.5 250C404.5 294 405.5 340 405.5 363.75C405.5 456 353 506.25 261.5 506.25C165.5 506.25 71.25 432.5 71.25 371C71.25 346.5 89.25 331.5 115.5 331.5C127.5 331.5 139.5 334.25 151.5 341C147 353.75 145.25 365.5 145.25 377.5C145.25 424.5 187.5 469 248.25 469C303.5 469 336.5 436.75 336.5 377.5ZM388.75 286.75 385.75 256.25H700.5L711 267.5L651.75 293.25ZM540.25 469C601.5 469 635.5 422.5 635.5 329.25C635.5 317.5 635.25 302.25 634.25 287.25L711 267.5C712 284.5 712.75 302.5 712.75 320.75C712.75 436 645 506.25 547.5 506.25C424 506.25 334 395.5 334 236.25C334 85.75 416 -10 543.75 -10C620.25 -10 680.5 28 713.25 83.75L700.5 94.25C664.25 62 619.75 45 569.75 45C468.5 45 409 125.5 409 266C409 384 459.5 469 540.25 469ZM398.25 496.25Z" glyph-name="ae" horiz-adv-x="756.25" unicode="&#230;" /><glyph d="M194.25 279.25V244.5L416.25 247.25V278ZM477.25 0H732.75C736.75 23.5 738.5 47.75 738.5 79.25C738.5 110.75 736 141 732.5 164.25H715.75L695 101.75C688.25 84.25 679.75 59.5 672 38.5C650.5 36 617.5 35 588.5 35H477.25ZM477.25 536.25V501.25H579.75C609.5 501.25 641.75 499.5 663.25 498.5C670.25 483 678 461 686.75 434.5L707.75 372.25H724.5C728.25 398.5 730.25 428.25 730.25 458.75C730.25 487.25 728.25 513.75 724.5 536.25ZM477.25 281V245.75L654.5 240.75L655.75 287ZM17.5 0H187.5L189.5 18.25L122 38.75L306.25 515.5L277.75 501.25H402.25V114.25H477.25V536.25H188.75L186.75 517.25L259.5 494.75L92 65.75C86 49.75 77.75 40.25 61.75 34C58.25 31.25 20.5 21 15.5 18.25ZM477.25 0V114.25H402.25V68.5C402.25 48 396 38.25 375.5 32L329.75 19L331.75 0ZM462.25 536.25Z" glyph-name="ae.sc" horiz-adv-x="786" /><glyph d="M510.5 726.75C510.5 747.25 491.5 758.25 462.75 758.25C459.25 758.25 454.75 758.25 451.25 758L444.75 754.5C422.75 712.5 373.5 647.25 323 589.25L334.75 576.25C419 622.5 510.5 687.75 510.5 726.75ZM398.25 496.25ZM412.25 746.25ZM374.5 95.25 357.5 124.25C320.75 74 268.75 38.75 215.25 38.75C165.75 38.75 135.25 61.75 135.25 112C135.25 189.5 223 239.25 355.25 239.25V269.75C181.5 271 58 202.5 58 101.75C58 31.75 107.75 -10 186.25 -10C266.25 -10 332.5 38.5 374.5 95.25ZM336.5 377.5C336.5 352.75 335.75 304.5 335 250.5L403.5 250C404.5 294 405.5 340 405.5 363.75C405.5 456 353 506.25 261.5 506.25C165.5 506.25 71.25 432.5 71.25 371C71.25 346.5 89.25 331.5 115.5 331.5C127.5 331.5 139.5 334.25 151.5 341C147 353.75 145.25 365.5 145.25 377.5C145.25 424.5 187.5 469 248.25 469C303.5 469 336.5 436.75 336.5 377.5ZM388.75 286.75 385.75 256.25H700.5L711 267.5L651.75 293.25ZM540.25 469C601.5 469 635.5 422.5 635.5 329.25C635.5 317.5 635.25 302.25 634.25 287.25L711 267.5C712 284.5 712.75 302.5 712.75 320.75C712.75 436 645 506.25 547.5 506.25C424 506.25 334 395.5 334 236.25C334 85.75 416 -10 543.75 -10C620.25 -10 680.5 28 713.25 83.75L700.5 94.25C664.25 62 619.75 45 569.75 45C468.5 45 409 125.5 409 266C409 384 459.5 469 540.25 469ZM398.25 496.25Z" glyph-name="aeacute" horiz-adv-x="756.25" unicode="&#509;" /><glyph d="M574.5 766.75C574.5 787.25 555.5 798.25 526.75 798.25C523.25 798.25 518.75 798.25 515.25 798L508.75 794.5C486.75 752.5 437.5 687.25 387 629.25L398.75 616.25C483 662.5 574.5 727.75 574.5 766.75ZM462.25 536.25ZM476.25 786.25ZM194.25 279.25V244.5L416.25 247.25V278ZM477.25 0H732.75C736.75 23.5 738.5 47.75 738.5 79.25C738.5 110.75 736 141 732.5 164.25H715.75L695 101.75C688.25 84.25 679.75 59.5 672 38.5C650.5 36 617.5 35 588.5 35H477.25ZM477.25 536.25V501.25H579.75C609.5 501.25 641.75 499.5 663.25 498.5C670.25 483 678 461 686.75 434.5L707.75 372.25H724.5C728.25 398.5 730.25 428.25 730.25 458.75C730.25 487.25 728.25 513.75 724.5 536.25ZM477.25 281V245.75L654.5 240.75L655.75 287ZM17.5 0H187.5L189.5 18.25L122 38.75L306.25 515.5L277.75 501.25H402.25V114.25H477.25V536.25H188.75L186.75 517.25L259.5 494.75L92 65.75C86 49.75 77.75 40.25 61.75 34C58.25 31.25 20.5 21 15.5 18.25ZM477.25 0V114.25H402.25V68.5C402.25 48 396 38.25 375.5 32L329.75 19L331.75 0ZM462.25 536.25Z" glyph-name="aeacute.sc" horiz-adv-x="786" /><glyph d="M355.25 269.75C181.5 271 58 202.5 58 101.75C58 32.25 107.75 -10 184.75 -10C254.25 -10 312.25 28.25 347.5 73.25L337 100.5C305.75 64.25 260.75 38.75 214.25 38.75C165.25 38.75 135.25 61.75 135.25 112C135.25 189.5 223 239.25 355.25 239.25ZM265.25 506.25C167.25 506.25 71.25 432.5 71.25 371C71.25 346.5 89.25 331.5 115.5 331.5C127.5 331.5 139.5 334.25 151.5 341C147 353.75 145.25 365.5 145.25 377.5C145.25 424.5 187.5 469 248.25 469C303.5 469 336.5 436.75 336.5 377.5C336.5 349.75 333.5 161.75 333.5 71.75C333.5 22 364.25 -10 411.75 -10C448 -10 482 7 502.75 33.25L498.75 43.5C483 39 470.25 37.25 457 37.25C419.75 37.25 408.75 56.5 408.75 103C408.75 175.5 413 311.5 413 363.75C413 456 359 506.25 265.25 506.25ZM247 496.25ZM458.25 0ZM251.5 0ZM323.5 589.25C273 647.25 223.75 712.5 201.75 754.5L195.25 758C191.75 758.25 187.25 758.25 183.75 758.25C155 758.25 136 747.25 136 726.75C136 687.75 227.5 622.5 311.75 576.25ZM247 496.25ZM232 746.25Z" glyph-name="agrave" horiz-adv-x="515.75" unicode="&#224;" /><glyph d="M375.5 629.25C325 687.25 275.75 752.5 253.75 794.5L247.25 798C243.75 798.25 239.25 798.25 235.75 798.25C207 798.25 188 787.25 188 766.75C188 727.75 279.5 662.5 363.75 616.25ZM299 536.25ZM284 786.25ZM275.25 536.25 92 65.75C86 49.75 77.75 40.25 61.75 34C58.25 31.25 20.5 21 15.5 18.25L17.5 0H187.5L189.5 18.25L102.75 45.25L114.75 19.5L283.75 457H269.5L432.25 37.25L362 18.25L364 0H575.75L577.75 18.25L535.75 29.75C516.5 36.75 510 43.75 501.25 66L318 536.25ZM164.5 202.5V167.75L386.5 170.5V201.25ZM299 536.25ZM575.75 0ZM282.5 0Z" glyph-name="agrave.sc" horiz-adv-x="593.25" /><glyph d="M355.25 269.75C181.5 271 58 202.5 58 101.75C58 32.25 107.75 -10 184.75 -10C254.25 -10 312.25 28.25 347.5 73.25L337 100.5C305.75 64.25 260.75 38.75 214.25 38.75C165.25 38.75 135.25 61.75 135.25 112C135.25 189.5 223 239.25 355.25 239.25ZM265.25 506.25C167.25 506.25 71.25 432.5 71.25 371C71.25 346.5 89.25 331.5 115.5 331.5C127.5 331.5 139.5 334.25 151.5 341C147 353.75 145.25 365.5 145.25 377.5C145.25 424.5 187.5 469 248.25 469C303.5 469 336.5 436.75 336.5 377.5C336.5 349.75 333.5 161.75 333.5 71.75C333.5 22 364.25 -10 411.75 -10C448 -10 482 7 502.75 33.25L498.75 43.5C483 39 470.25 37.25 457 37.25C419.75 37.25 408.75 56.5 408.75 103C408.75 175.5 413 311.5 413 363.75C413 456 359 506.25 265.25 506.25ZM247 496.25ZM458.25 0ZM251.5 0ZM107.75 642.75H386.25V688.75H107.75ZM247 496.25Z" glyph-name="amacron" horiz-adv-x="515.75" unicode="&#257;" /><glyph d="M275.25 536.25 92 65.75C86 49.75 77.75 40.25 61.75 34C58.25 31.25 20.5 21 15.5 18.25L17.5 0H187.5L189.5 18.25L102.75 45.25L114.75 19.5L283.75 457H269.5L432.25 37.25L362 18.25L364 0H575.75L577.75 18.25L535.75 29.75C516.5 36.75 510 43.75 501.25 66L318 536.25ZM164.5 202.5V167.75L386.5 170.5V201.25ZM299 536.25ZM575.75 0ZM282.5 0ZM159.75 682.75H438.25V728.75H159.75ZM299 536.25Z" glyph-name="amacron.sc" horiz-adv-x="593.25" /><glyph d="M318.25 -10C498.75 -10 610.25 126.5 610.25 280.25C610.25 339 589 384 548.75 384C533.5 384 519.5 377.75 511.25 368.75C532.25 343 544 305.25 544 255.75C544 124.75 463.25 28.75 330.5 28.75C228.5 28.75 156.75 95.75 156.75 193.75C156.75 260.75 199.25 324.5 256.75 346.25L237.5 371.25C146.5 350.75 78 273 78 181.5C78 68.75 176.5 -10 318.25 -10ZM736 33.25 732 43.5C657.75 27.75 601 47 530 124.5L297.5 377.25C243.75 435.75 215.5 483.75 215.5 542.75C215.5 608.75 266.5 658.25 328.5 658.25C390.25 658.25 426.5 613.5 428.25 551.5C428.25 541 427 529.75 424.75 516C432.5 512.5 441 511.25 451.25 511.25C479.25 511.25 496.75 531 496.75 562.5C496.75 638.5 433.75 696.25 332.75 696.25C225.75 696.25 138 622.5 138 525.25C138 459 166.75 406.25 226.5 342.25L417 133.25C507.25 35 559.25 -10.25 637 -10.25C685.25 -10.25 716.5 10.75 736 33.25Z" glyph-name="ampersand" horiz-adv-x="774" unicode="&amp;" /><glyph d="M318.25 -10C498.7865 -10 610.25 126.5 610.25 280.25C610.25 339 589 384 548.75 384C533.5 384 519.5 377.75 511.25 368.75C532.25 343 544 305.25 544 255.75C544 124.75 463.25 28.75 330.5 28.75C228.5 28.75 156.75 95.6991 156.75 193.75C156.75 260.7403 199.3029 324.5299 256.75 346.25L237.5 371.25C146.5 350.75 78 273 78 181.5C78 68.75 176.5052 -10 318.25 -10ZM736 33.25 732 43.5C657.75 27.75 601 47 530 124.5L297.5 377.25C243.75 435.75 215.5 483.75 215.5 542.75C215.5 608.75 266.4825 658.25 328.5 658.25C390.25 658.25 426.5 613.5 428.25 551.5C428.25 541 427 529.75 424.75 516C432.5 512.5 441 511.25 451.25 511.25C479.25 511.25 496.75 531 496.75 562.5C496.75 638.5 433.75 696.25 332.75 696.25C225.75 696.25 138 622.5 138 525.25C138 459 166.644 406.2658 226.5 342.25L417 133.25C507.25 35 559.25 -10.25 637 -10.25C685.25 -10.25 716.5 10.75 736 33.25Z" glyph-name="ampersand.caps" horiz-adv-x="774" /><glyph d="M305.75 -10C479.5 -10 587.75 107.75 587.75 221.75C587.75 267 564.75 306.5 530 306.5C515 306.5 503 300 494.75 291.25C512.75 268.75 523.75 243.75 523.75 205C523.75 97.25 439 28.75 320.75 28.75C219 28.75 144 81.25 144 164.5C144 215.5 188 260.25 244.5 278.5L225.25 303.5C136.5 284.5 67.5 224.5 67.5 152C67.5 53.25 166.25 -10 305.75 -10ZM219.25 266 387.25 120.75C481.5 40.75 536 -10.25 596.75 -10.25C635.75 -10.25 665.25 12 680.75 33.25L676.75 43.5C665.5 41.25 655.75 39.75 646 39.75C598 39.75 561.25 62.75 504.75 112L291.75 296.25C244 336.5 214.25 368.25 214.25 418.5C214.25 469.5 258 508.25 317.5 508.25C375 508.25 410.5 471 410.5 422.75C410.5 411.25 409.5 402 407.5 391C414.5 387.5 422.25 386.25 431.75 386.25C456.25 386.25 475.75 405 475.75 433.75C475.75 496.75 407.5 546.25 321.25 546.25C221 546.25 139 485.5 139 404.75C139 354.75 166 310.5 219.25 266Z" glyph-name="ampersand.sc" horiz-adv-x="708.25" /><glyph d="M355.25 269.75C181.5 271 58 202.5 58 101.75C58 32.25 107.75 -10 184.75 -10C254.25 -10 312.25 28.25 347.5 73.25L337 100.5C305.75 64.25 260.75 38.75 214.25 38.75C165.25 38.75 135.25 61.75 135.25 112C135.25 189.5 223 239.25 355.25 239.25ZM265.25 506.25C167.25 506.25 71.25 432.5 71.25 371C71.25 346.5 89.25 331.5 115.5 331.5C127.5 331.5 139.5 334.25 151.5 341C147 353.75 145.25 365.5 145.25 377.5C145.25 424.5 187.5 469 248.25 469C303.5 469 336.5 436.75 336.5 377.5C336.5 349.75 333.5 161.75 333.5 71.75C333.5 22 364.25 -10 411.75 -10C448 -10 482 7 502.75 33.25L498.75 43.5C483 39 470.25 37.25 457 37.25C419.75 37.25 408.75 56.5 408.75 103C408.75 175.5 413 311.5 413 363.75C413 456 359 506.25 265.25 506.25ZM247 496.25ZM458.25 0ZM251.5 0ZM455.25 -181.25 451.25 -171C431.5 -175.5 418.75 -177.25 401.25 -177.25C366 -177.25 345.25 -158.5 345.25 -126.5C345.25 -82.75 383.25 -38.25 458.25 0L449.75 15.5C337.5 -24.5 278.75 -79.25 278.75 -143.25C278.75 -193.5 310.75 -224 361.5 -224C397.25 -224 433 -208 455.25 -181.25ZM458.25 0Z" glyph-name="aogonek" horiz-adv-x="515.75" unicode="&#261;" /><glyph d="M275.25 536.25 92 65.75C86 49.75 77.75 40.25 61.75 34C58.25 31.25 20.5 21 15.5 18.25L17.5 0H187.5L189.5 18.25L102.75 45.25L114.75 19.5L283.75 457H269.5L432.25 37.25L362 18.25L364 0H575.75L577.75 18.25L535.75 29.75C516.5 36.75 510 43.75 501.25 66L318 536.25ZM164.5 202.5V167.75L386.5 170.5V201.25ZM299 536.25ZM575.75 0ZM282.5 0ZM572.75 -181.25 568.75 -171C549 -175.5 536.25 -177.25 518.75 -177.25C483.5 -177.25 462.75 -158.5 462.75 -126.5C462.75 -82.75 500.75 -38.25 575.75 0L567.25 15.5C455 -24.5 396.25 -79.25 396.25 -143.25C396.25 -193.5 428.25 -224 479 -224C514.75 -224 550.5 -208 572.75 -181.25ZM575.75 0Z" glyph-name="aogonek.sc" horiz-adv-x="594.75" /><glyph d="M413.25 314.25C374.5 314.25 192.4087 368 159.5 368C147.75 368 123.75 338.75 98 307.25L66.5 327C89.7194 366.8966 123 422.75 161.75 422.75C201 422.75 376.8386 369 415.5 369C427.25 369 450.5 397.5 477 429.75L508.5 410C486.0306 370.1034 452.75 314.25 413.25 314.25ZM413.25 112.75C374.5 112.75 192.4087 166.5 159.5 166.5C147.75 166.5 123.75 137.25 98 105.75L66.5 125.5C89.7194 165.3966 123 221.25 161.75 221.25C201 221.25 376.8386 167.5 415.5 167.5C427.25 167.5 450.5 196 477 228.25L508.5 208.5C486.0306 168.6034 452.75 112.75 413.25 112.75Z" glyph-name="approxequal" horiz-adv-x="575" unicode="&#8776;" /><glyph d="M413.25 390C374.5 390 192.4087 443.75 159.5 443.75C147.75 443.75 123.75 414.5 98 383L66.5 402.75C89.7194 442.6466 123 498.5 161.75 498.5C201 498.5 376.8386 444.75 415.5 444.75C427.25 444.75 450.5 473.25 477 505.5L508.5 485.75C486.0306 445.8534 452.75 390 413.25 390ZM413.25 188.5C374.5 188.5 192.4087 242.25 159.5 242.25C147.75 242.25 123.75 213 98 181.5L66.5 201.25C89.7194 241.1466 123 297 161.75 297C201 297 376.8386 243.25 415.5 243.25C427.25 243.25 450.5 271.75 477 304L508.5 284.25C486.0306 244.3534 452.75 188.5 413.25 188.5Z" glyph-name="approxequal.lf" horiz-adv-x="575" /><glyph d="M413.25 314.25C374.5 314.25 192.4087 368 159.5 368C147.75 368 123.75 338.75 98 307.25L66.5 327C89.7194 366.8966 123 422.75 161.75 422.75C201 422.75 376.8386 369 415.5 369C427.25 369 450.5 397.5 477 429.75L508.5 410C486.0306 370.1034 452.75 314.25 413.25 314.25ZM413.25 112.75C374.5 112.75 192.4087 166.5 159.5 166.5C147.75 166.5 123.75 137.25 98 105.75L66.5 125.5C89.7194 165.3966 123 221.25 161.75 221.25C201 221.25 376.8386 167.5 415.5 167.5C427.25 167.5 450.5 196 477 228.25L508.5 208.5C486.0306 168.6034 452.75 112.75 413.25 112.75Z" glyph-name="approxequal.osf" horiz-adv-x="575" /><glyph d="M413.25 314.25C374.5 314.25 192.4087 368 159.5 368C147.75 368 123.75 338.75 98 307.25L66.5 327C89.7194 366.8966 123 422.75 161.75 422.75C201 422.75 376.8386 369 415.5 369C427.25 369 450.5 397.5 477 429.75L508.5 410C486.0306 370.1034 452.75 314.25 413.25 314.25ZM413.25 112.75C374.5 112.75 192.4087 166.5 159.5 166.5C147.75 166.5 123.75 137.25 98 105.75L66.5 125.5C89.7194 165.3966 123 221.25 161.75 221.25C201 221.25 376.8386 167.5 415.5 167.5C427.25 167.5 450.5 196 477 228.25L508.5 208.5C486.0306 168.6034 452.75 112.75 413.25 112.75Z" glyph-name="approxequal.sc" horiz-adv-x="575" /><glyph d="M355.25 269.75C181.5 271 58 202.5 58 101.75C58 32.25 107.75 -10 184.75 -10C254.25 -10 312.25 28.25 347.5 73.25L337 100.5C305.75 64.25 260.75 38.75 214.25 38.75C165.25 38.75 135.25 61.75 135.25 112C135.25 189.5 223 239.25 355.25 239.25ZM265.25 506.25C167.25 506.25 71.25 432.5 71.25 371C71.25 346.5 89.25 331.5 115.5 331.5C127.5 331.5 139.5 334.25 151.5 341C147 353.75 145.25 365.5 145.25 377.5C145.25 424.5 187.5 469 248.25 469C303.5 469 336.5 436.75 336.5 377.5C336.5 349.75 333.5 161.75 333.5 71.75C333.5 22 364.25 -10 411.75 -10C448 -10 482 7 502.75 33.25L498.75 43.5C483 39 470.25 37.25 457 37.25C419.75 37.25 408.75 56.5 408.75 103C408.75 175.5 413 311.5 413 363.75C413 456 359 506.25 265.25 506.25ZM247 496.25ZM458.25 0ZM251.5 0ZM243 589C294.5 589 332.5 623.25 334 670.25C335.5 713.75 299.75 745 250.25 745C197.75 745 159.75 712 159.75 664C159.75 619.25 193.75 589 243 589ZM247 718C273.25 718 292 697.75 292 670.5C292 639.25 273.25 616 246 616C219.75 616 201 636.25 201 664.5C201 694.75 219.75 718 247 718ZM247 496.25ZM246.75 746.25Z" glyph-name="aring" horiz-adv-x="515.75" unicode="&#229;" /><glyph d="M295 629C346.5 629 384.5 663.25 386 710.25C387.5 753.75 351.75 785 302.25 785C249.75 785 211.75 752 211.75 704C211.75 659.25 245.75 629 295 629ZM299 758C325.25 758 344 737.75 344 710.5C344 679.25 325.25 656 298 656C271.75 656 253 676.25 253 704.5C253 734.75 271.75 758 299 758ZM299 536.25ZM298.75 786.25ZM275.25 536.25 92 65.75C86 49.75 77.75 40.25 61.75 34C58.25 31.25 20.5 21 15.5 18.25L17.5 0H187.5L189.5 18.25L102.75 45.25L114.75 19.5L283.75 457H269.5L432.25 37.25L362 18.25L364 0H575.75L577.75 18.25L535.75 29.75C516.5 36.75 510 43.75 501.25 66L318 536.25ZM164.5 202.5V167.75L386.5 170.5V201.25ZM299 536.25ZM575.75 0ZM282.5 0Z" glyph-name="aring.sc" horiz-adv-x="593.25" /><glyph d="M355.25 269.75C181.5 271 58 202.5 58 101.75C58 32.25 107.75 -10 184.75 -10C254.25 -10 312.25 28.25 347.5 73.25L337 100.5C305.75 64.25 260.75 38.75 214.25 38.75C165.25 38.75 135.25 61.75 135.25 112C135.25 189.5 223 239.25 355.25 239.25ZM265.25 506.25C167.25 506.25 71.25 432.5 71.25 371C71.25 346.5 89.25 331.5 115.5 331.5C127.5 331.5 139.5 334.25 151.5 341C147 353.75 145.25 365.5 145.25 377.5C145.25 424.5 187.5 469 248.25 469C303.5 469 336.5 436.75 336.5 377.5C336.5 349.75 333.5 161.75 333.5 71.75C333.5 22 364.25 -10 411.75 -10C448 -10 482 7 502.75 33.25L498.75 43.5C483 39 470.25 37.25 457 37.25C419.75 37.25 408.75 56.5 408.75 103C408.75 175.5 413 311.5 413 363.75C413 456 359 506.25 265.25 506.25ZM247 496.25ZM458.25 0ZM251.5 0ZM243 589C294.5 589 332.5 623.25 334 670.25C335.5 713.75 299.75 745 250.25 745C197.75 745 159.75 712 159.75 664C159.75 619.25 193.75 589 243 589ZM247 718C273.25 718 292 697.75 292 670.5C292 639.25 273.25 616 246 616C219.75 616 201 636.25 201 664.5C201 694.75 219.75 718 247 718ZM247 496.25ZM246.75 746.25ZM359 976.75C359 997.25 340 1008.25 311.25 1008.25C307.75 1008.25 303.25 1008.25 299.75 1008L293.25 1004.5C271.25 962.5 222 897.25 171.5 839.25L183.25 826.25C267.5 872.5 359 937.75 359 976.75ZM246.75 746.25ZM260.75 996.25Z" glyph-name="aringacute" horiz-adv-x="515.75" unicode="&#507;" /><glyph d="M295 629C346.5 629 384.5 663.25 386 710.25C387.5 753.75 351.75 785 302.25 785C249.75 785 211.75 752 211.75 704C211.75 659.25 245.75 629 295 629ZM299 758C325.25 758 344 737.75 344 710.5C344 679.25 325.25 656 298 656C271.75 656 253 676.25 253 704.5C253 734.75 271.75 758 299 758ZM299 536.25ZM298.75 786.25ZM411 1016.75C411 1037.25 392 1048.25 363.25 1048.25C359.75 1048.25 355.25 1048.25 351.75 1048L345.25 1044.5C323.25 1002.5 274 937.25 223.5 879.25L235.25 866.25C319.5 912.5 411 977.75 411 1016.75ZM298.75 786.25ZM312.75 1036.25ZM275.25 536.25 92 65.75C86 49.75 77.75 40.25 61.75 34C58.25 31.25 20.5 21 15.5 18.25L17.5 0H187.5L189.5 18.25L102.75 45.25L114.75 19.5L283.75 457H269.5L432.25 37.25L362 18.25L364 0H575.75L577.75 18.25L535.75 29.75C516.5 36.75 510 43.75 501.25 66L318 536.25ZM164.5 202.5V167.75L386.5 170.5V201.25ZM299 536.25ZM575.75 0ZM282.5 0Z" glyph-name="aringacute.sc" horiz-adv-x="593.25" /><glyph d="M145 210 261 488.5H258.75L381 210H437.75L290 546.25H231.5L87.5 210Z" glyph-name="asciicircum" horiz-adv-x="526" unicode="^" /><glyph d="M396.75 216.5C358 216.5 175.9087 270.25 143 270.25C131.25 270.25 107.25 241 81.5 209.5L50 229.25C73.2194 269.1466 106.5 325 145.25 325C184.5 325 360.3386 271.25 399 271.25C410.75 271.25 434 299.75 460.5 332L492 312.25C469.5306 272.3534 436.25 216.5 396.75 216.5Z" glyph-name="asciitilde" horiz-adv-x="545" unicode="~" /><glyph d="M243 506.75C243 531.75 232 565.25 228.25 604.75C261.25 581.75 285 555.5 306.25 543C319.25 535.5 331.5 539.25 338.5 551.5C345.25 563 342.25 575.5 329.25 583.25C308 595.75 272.5 603 237.25 619.5C272.5 636 308 643.25 329.25 655.75C342.25 663.5 345.25 676 338.5 688.25C331.5 699.75 319.25 703.5 306.25 696C285 683.5 261.25 657.25 228.25 634.25C232 673.75 243 707.25 243 732.25C243 747.5 233.75 756.25 220 756.25C206.25 756.25 197 747.5 197 732.25C197 707.25 208 673.75 211.75 634.25C178.75 657.25 155 683.5 133.75 696C120.75 703.5 108.5 699.75 101.5 688.25C94.75 676 97.75 663.5 110.75 655.75C132 643.25 167.5 636 202.75 619.5C167.5 603 132 595.75 110.75 583.25C97.75 575.5 94.75 563 101.5 551.5C108.5 539.25 120.75 535.5 133.75 543C155 555.5 178.75 581.75 211.75 604.75C208 565.25 197 531.75 197 506.75C197 491.5 206.25 482.75 220 482.75C233.75 482.75 243 491.5 243 506.75Z" glyph-name="asterisk" horiz-adv-x="440.0027" unicode="*" /><glyph d="M243 506.75C243 531.75 232 565.25 228.25 604.75C261.25 581.75 285 555.5 306.25 543C319.25 535.5 331.5 539.25 338.5 551.5C345.25 563 342.25 575.5 329.25 583.25C308 595.75 272.5 603 237.25 619.5C272.5 636 308 643.25 329.25 655.75C342.25 663.5 345.25 676 338.5 688.25C331.5 699.75 319.25 703.5 306.25 696C285 683.5 261.25 657.25 228.25 634.25C232 673.75 243 707.25 243 732.25C243 747.5 233.75 756.25 220 756.25C206.25 756.25 197 747.5 197 732.25C197 707.25 208 673.75 211.75 634.25C178.75 657.25 155 683.5 133.75 696C120.75 703.5 108.5 699.75 101.5 688.25C94.75 676 97.75 663.5 110.75 655.75C132 643.25 167.5 636 202.75 619.5C167.5 603 132 595.75 110.75 583.25C97.75 575.5 94.75 563 101.5 551.5C108.5 539.25 120.75 535.5 133.75 543C155 555.5 178.75 581.75 211.75 604.75C208 565.25 197 531.75 197 506.75C197 491.5 206.25 482.75 220 482.75C233.75 482.75 243 491.5 243 506.75Z" glyph-name="asterisk.caps" horiz-adv-x="440.0027" /><glyph d="M232.5 343C232.5 368 221.5 401.5 217.75 441C250.75 418 274.5 391.75 295.75 379.25C308.75 371.75 321 375.5 328 387.75C334.75 399.25 331.75 411.75 318.75 419.5C297.5 432 262 439.25 226.75 455.75C262 472.25 297.5 479.5 318.75 492C331.75 499.75 334.75 512.25 328 524.5C321 536 308.75 539.75 295.75 532.25C274.5 519.75 250.75 493.5 217.75 470.5C221.5 510 232.5 543.5 232.5 568.5C232.5 583.75 223.25 592.5 209.5 592.5C195.75 592.5 186.5 583.75 186.5 568.5C186.5 543.5 197.5 510 201.25 470.5C168.25 493.5 144.5 519.75 123.25 532.25C110.25 539.75 98 536 91 524.5C84.25 512.25 87.25 499.75 100.25 492C121.5 479.5 157 472.25 192.25 455.75C157 439.25 121.5 432 100.25 419.5C87.25 411.75 84.25 399.25 91 387.75C98 375.5 110.25 371.75 123.25 379.25C144.5 391.75 168.25 418 201.25 441C197.5 401.5 186.5 368 186.5 343C186.5 327.75 195.75 319 209.5 319C223.25 319 232.5 327.75 232.5 343Z" glyph-name="asterisk.sc" horiz-adv-x="419.0027" /><glyph d="M406.25 133.25C406.25 298.75 517 467.5 620 467.5C643.5 467.5 659.75 462.25 674.5 454.5L661.5 403C635.5 303 512 53 446.75 53C420.25 53 406.25 87.5 406.25 133.25ZM774.25 39.75C699.75 39.75 679 122 706.75 245L748.5 430L762 479.25C731.25 494.25 684.25 506.25 635 506.25C461 506.25 326.25 319.5 326.25 124.5C326.25 38.75 362.5 -10 413.5 -10C496.5 -10 579.75 128.75 626.75 239.75H628.25C628 238.25 618 172.5 617.75 171C603 70.25 645.25 -10 748.5 -10C906.75 -10 1034.75 157 1034.75 352C1034.75 582.75 871.75 756.25 630.5 756.25C356.25 756.25 58 522.75 58 171C58 -69.5 232.75 -256.25 484.75 -256.25C611.5 -256.25 711.5 -216.5 782.25 -160L766.25 -133.25C696.25 -173.25 616.75 -213.75 481.25 -213.75C263 -213.75 105.5 -44.25 105.5 179C105.5 500.25 384.5 713.75 625.25 713.75C837.25 713.75 987.25 563.25 987.25 355C987.25 166.5 872 39.75 774.25 39.75Z" glyph-name="at" horiz-adv-x="1092.75" unicode="@" /><glyph d="M355.25 269.75C181.5 271 58 202.5 58 101.75C58 32.25 107.75 -10 184.75 -10C254.25 -10 312.25 28.25 347.5 73.25L337 100.5C305.75 64.25 260.75 38.75 214.25 38.75C165.25 38.75 135.25 61.75 135.25 112C135.25 189.5 223 239.25 355.25 239.25ZM265.25 506.25C167.25 506.25 71.25 432.5 71.25 371C71.25 346.5 89.25 331.5 115.5 331.5C127.5 331.5 139.5 334.25 151.5 341C147 353.75 145.25 365.5 145.25 377.5C145.25 424.5 187.5 469 248.25 469C303.5 469 336.5 436.75 336.5 377.5C336.5 349.75 333.5 161.75 333.5 71.75C333.5 22 364.25 -10 411.75 -10C448 -10 482 7 502.75 33.25L498.75 43.5C483 39 470.25 37.25 457 37.25C419.75 37.25 408.75 56.5 408.75 103C408.75 175.5 413 311.5 413 363.75C413 456 359 506.25 265.25 506.25ZM247 496.25ZM458.25 0ZM251.5 0ZM143.25 673C179.25 666.75 284 616 334 616C384.25 616 407 657.5 415.25 719C415.25 722.5 415 725 414.75 727.75L399.25 733.75C384.25 709 362.25 683.25 352.5 669.75C314.25 675.25 213.25 726.75 161.75 726.75C113 726.75 88 684.5 79.75 621C79.75 618.75 80 616.5 80.25 614.25L95.75 609C110 633 135.75 664.75 143.25 673ZM247 496.25ZM247.25 746.25Z" glyph-name="atilde" horiz-adv-x="515.75" unicode="&#227;" /><glyph d="M275.25 536.25 92 65.75C86 49.75 77.75 40.25 61.75 34C58.25 31.25 20.5 21 15.5 18.25L17.5 0H187.5L189.5 18.25L102.75 45.25L114.75 19.5L283.75 457H269.5L432.25 37.25L362 18.25L364 0H575.75L577.75 18.25L535.75 29.75C516.5 36.75 510 43.75 501.25 66L318 536.25ZM164.5 202.5V167.75L386.5 170.5V201.25ZM299 536.25ZM575.75 0ZM282.5 0ZM195.25 713C231.25 706.75 336 656 386 656C436.25 656 459 697.5 467.25 759C467.25 762.5 467 765 466.75 767.75L451.25 773.75C436.25 749 414.25 723.25 404.5 709.75C366.25 715.25 265.25 766.75 213.75 766.75C165 766.75 140 724.5 131.75 661C131.75 658.75 132 656.5 132.25 654.25L147.75 649C162 673 187.75 704.75 195.25 713ZM299 536.25ZM299.25 786.25Z" glyph-name="atilde.sc" horiz-adv-x="593.25" /><glyph d="M176.25 632H101.25V-4.25L110.75 -10L176.25 17.5ZM274.75 27.25C225 27.25 179.75 44.25 152.75 74L128.75 36.5C161.25 9.75 221.75 -10 281.75 -10C420 -10 507.25 94.25 507.25 253.25C507.25 407.25 436.75 506.25 316.25 506.25C249 506.25 190.25 467.75 159.75 424.25L167.25 391C201.75 431.5 241.5 456.5 292.5 456.5C379 456.5 428.75 374.75 428.75 245.75C428.75 111.75 374.25 27.25 274.75 27.25ZM176.25 632V746.75L166.75 756.25C125.25 751.25 67.5 737.75 30 723L32 709L101.25 696V632Z" glyph-name="b" horiz-adv-x="557.25" unicode="b" /><glyph d="M151.5 422.5H88.5V-73.25L96.75 -78L151.5 -56ZM231.5 -48.5C190.75 -48.5 153.75 -35.25 131.5 -10.25L111.5 -39.75C138.75 -62.25 187.75 -78 237 -78C351.25 -78 422.75 3.5 422.75 127.75C422.75 248 364.75 325 265.75 325C211.25 325 162.5 295.25 137.75 261L143.75 234.5C172 265.25 204.75 283.75 246.25 283.75C316.5 283.75 357.25 220.75 357.25 120.75C357.25 17 312.5 -48.5 231.5 -48.5ZM151.5 422.5V512.5L143 520C109.25 516 61.75 505.25 30.5 493.25L32.5 482.25L88.5 470.75V422.5Z" glyph-name="b.inferior" horiz-adv-x="462.25" /><glyph d="M127 422V114.25H202V422ZM202 0V35H276C364.5 35 421.75 75 421.75 147.5C421.75 215.25 360.25 257 265 257H202V290.25H266.5C335.25 290.25 386.75 331 386.75 399.25C386.75 464.5 341 501.25 260.75 501.25H202V536.25H272C386.25 536.25 460.5 490.75 460.5 404.25C460.5 337.5 412.75 294.75 358.5 281C444.25 263.25 499.5 217.75 499.5 147.5C499.5 51.5 416.5 0 292 0ZM202 536.25H56.5L54.5 517.25L100.25 504.25C120.75 498 127 488.25 127 467.75V422H202ZM202 0V114.25H127V68.5C127 48 120.75 38.25 100.25 32L54.5 19L56.5 0Z" glyph-name="b.sc" horiz-adv-x="539" /><glyph d="M151.5 861.75H88.5V366L96.75 361.25L151.5 383.25ZM231.5 390.75C190.75 390.75 153.75 404 131.5 429L111.5 399.5C138.75 377 187.75 361.25 237 361.25C351.25 361.25 422.75 442.75 422.75 567C422.75 687.25 364.75 764.25 265.75 764.25C211.25 764.25 162.5 734.5 137.75 700.25L143.75 673.75C172 704.5 204.75 723 246.25 723C316.5 723 357.25 660 357.25 560C357.25 456.25 312.5 390.75 231.5 390.75ZM151.5 861.75V951.75L143 959.25C109.25 955.25 61.75 944.5 30.5 932.5L32.5 921.5L88.5 910V861.75Z" glyph-name="b.superior" horiz-adv-x="462.25" /><glyph d="M265 -10 308.75 -1.25 316.75 6.75 129 756.25 86 747.5 78 739.5Z" glyph-name="backslash" horiz-adv-x="394.75" unicode="\" /><glyph d="M265 -39 308.75 -30.25 316.75 -22.25 129 727.25 86 718.5 78 710.5Z" glyph-name="backslash.caps" horiz-adv-x="394.75" /><glyph d="M261.25 -25.75 219 -37.5 208 -34.5 67.5 531.25 110.5 544 120.75 540Z" glyph-name="backslash.sc" horiz-adv-x="328.75" /><glyph d="M145.25 -256.25 189.25 -253.25V749L182 756.25L138 753.25V-249Z" glyph-name="bar" horiz-adv-x="327.25" unicode="|" /><glyph d="M98 294.75V268.25C169.25 265.75 202.25 231.25 202.25 169.25C202.25 92 166.75 21.5 166.75 -60.5C166.75 -148.75 231 -194.75 356 -194.75L359 -173.25C277.25 -168.75 243.5 -134.5 243.5 -67C243.5 14.25 276.75 83.75 276.75 165C276.75 225.5 236.5 274.25 159.25 287L159 276C236.5 288.75 276.75 337.5 276.75 398C276.75 481.25 243.5 548.75 243.5 630C243.5 697.5 277.25 731.75 359 736.25L356 757.75C231 757.75 166.75 711.75 166.75 623.5C166.75 541.5 202.25 474.25 202.25 393.75C202.25 331.5 169.25 297.25 98 294.75Z" glyph-name="braceleft" horiz-adv-x="417" unicode="{" /><glyph d="M193.5 248C193.5 198.75 166.75 152.75 166.75 100.75C166.75 28 231 -10 356 -10L359 11.5C277.25 16 243.5 42.75 243.5 96.75C243.5 147.25 268 190.75 268 241.25C268 303 220.75 352.75 117.25 353.5L117 332C220.75 332.75 268 382.5 268 444.25C268 496 243.5 538.25 243.5 588.75C243.5 643.5 277.25 670.25 359 674.75L356 696.25C231 696.25 166.75 658.25 166.75 584.75C166.75 532.75 193.5 489 193.5 437.5C193.5 385.75 163.75 358.5 98 356V329.5C163.75 326.75 193.5 299.5 193.5 248Z" glyph-name="braceleft.caps" horiz-adv-x="417" /><glyph d="M175.5 171.5C175.5 122.25 148.75 76.25 148.75 24.25C148.75 -48.5 213 -86.5 338 -86.5L341 -65C259.25 -60.5 225.5 -33.75 225.5 20.25C225.5 70.75 250 114.25 250 164.75C250 226.5 202.75 276.25 99.25 277L99 255.5C202.75 256.25 250 306 250 367.75C250 419.5 225.5 461.75 225.5 512.25C225.5 567 259.25 593.75 341 598.25L338 619.75C213 619.75 148.75 581.75 148.75 508.25C148.75 456.25 175.5 412.5 175.5 361C175.5 309.25 145.75 282 80 279.5V253C145.75 250.25 175.5 223 175.5 171.5Z" glyph-name="braceleft.sc" horiz-adv-x="396" /><glyph d="M319 294.75V268.25C247.75 265.75 214.75 231.25 214.75 169.25C214.75 92 250.25 21.5 250.25 -60.5C250.25 -148.75 186 -194.75 61 -194.75L58 -173.25C139.75 -168.75 173.5 -134.5 173.5 -67C173.5 14.25 140.25 83.75 140.25 165C140.25 225.5 180.5 274.25 257.75 287L258 276C180.5 288.75 140.25 337.5 140.25 398C140.25 481.25 173.5 548.75 173.5 630C173.5 697.5 139.75 731.75 58 736.25L61 757.75C186 757.75 250.25 711.75 250.25 623.5C250.25 541.5 214.75 474.25 214.75 393.75C214.75 331.5 247.75 297.25 319 294.75Z" glyph-name="braceright" horiz-adv-x="417" unicode="}" /><glyph d="M223.5 248C223.5 198.75 250.25 152.75 250.25 100.75C250.25 28 186 -10 61 -10L58 11.5C139.75 16 173.5 42.75 173.5 96.75C173.5 147.25 149 190.75 149 241.25C149 303 196.25 352.75 299.75 353.5L300 332C196.25 332.75 149 382.5 149 444.25C149 496 173.5 538.25 173.5 588.75C173.5 643.5 139.75 670.25 58 674.75L61 696.25C186 696.25 250.25 658.25 250.25 584.75C250.25 532.75 223.5 489 223.5 437.5C223.5 385.75 253.25 358.5 319 356V329.5C253.25 326.75 223.5 299.5 223.5 248Z" glyph-name="braceright.caps" horiz-adv-x="417" /><glyph d="M220.5 171.5C220.5 122.25 247.25 76.25 247.25 24.25C247.25 -48.5 183 -86.5 58 -86.5L55 -65C136.75 -60.5 170.5 -33.75 170.5 20.25C170.5 70.75 146 114.25 146 164.75C146 226.5 193.25 276.25 296.75 277L297 255.5C193.25 256.25 146 306 146 367.75C146 419.5 170.5 461.75 170.5 512.25C170.5 567 136.75 593.75 55 598.25L58 619.75C183 619.75 247.25 581.75 247.25 508.25C247.25 456.25 220.5 412.5 220.5 361C220.5 309.25 250.25 282 316 279.5V253C250.25 250.25 220.5 223 220.5 171.5Z" glyph-name="braceright.sc" horiz-adv-x="396" /><glyph d="M333.25 -194.25V-168H212V733.75H333.25V760H138V-194.25Z" glyph-name="bracketleft" horiz-adv-x="391.25" unicode="[" /><glyph d="M333.25 -10V16.25H212V670H333.25V696.25H138V-10Z" glyph-name="bracketleft.caps" horiz-adv-x="391.25" /><glyph d="M322.75 -86.5V-60.25H201.5V593.5H322.75V619.75H127.5V-86.5Z" glyph-name="bracketleft.sc" horiz-adv-x="370.25" /><glyph d="M58 756.25V730H179.25V-171.75H58V-198H253.25V756.25Z" glyph-name="bracketright" horiz-adv-x="391.25" unicode="]" /><glyph d="M58 -10V16.25H179.25V670H58V696.25H253.25V-10Z" glyph-name="bracketright.caps" horiz-adv-x="391.25" /><glyph d="M47.5 -86.5V-60.25H168.75V593.5H47.5V619.75H242.75V-86.5Z" glyph-name="bracketright.sc" horiz-adv-x="370.25" /><glyph d="M324.5 734.5C309 686.25 269.5 657.25 219.5 657.25C164 657.25 123.75 687.5 110 736.75L91.5 733.5C100 649.25 148 598 214.25 598C281.25 598 331 649 344 733.25L328.75 736.5Z" glyph-name="breve" horiz-adv-x="435.5" unicode="&#728;" /><glyph d="M323 900.5C307.5 864 268 841.5 218 841.5C163.5 841.5 123.75 864.5 110 902.75L91.5 899.25C101 826.75 148 783.5 212.75 783.5C279.25 783.5 328.25 826.25 342.5 898.75L327.25 902.5Z" glyph-name="breve.case" horiz-adv-x="434" /><glyph d="M324.5 734.5C309 686.25 269.5 657.25 219.5 657.25C164 657.25 123.75 687.5 110 736.75L91.5 733.5C100 649.25 148 598 214.25 598C281.25 598 331 649 344 733.25L328.75 736.5ZM217 496.25ZM217.5 746.25Z" glyph-name="brevecomb" horiz-adv-x="435.5" unicode="&#774;" /><glyph d="M323 900.5C307.5 864 268 841.5 218 841.5C163.5 841.5 123.75 864.5 110 902.75L91.5 899.25C101 826.75 148 783.5 212.75 783.5C279.25 783.5 328.25 826.25 342.5 898.75L327.25 902.5ZM217 686.25Z" glyph-name="brevecomb.case" horiz-adv-x="434" /><glyph d="M313 726.5C305 644.25 260 592.75 198 592.75C137.75 592.75 96.5 644.75 91.5 727L110 730.5C119 683.75 155.5 652.5 203.25 652.5C249.75 652.5 285.25 682.5 293.5 728.25L297.75 730.25ZM201.5 496.25Z" glyph-name="brevecomb.i" horiz-adv-x="404.5" /><glyph d="M189.25 369.75V749L182 756.25L138 753.25V374L152.75 366.75ZM189.25 -253.25V125L182 132.25L138 129.25V-249L152.75 -256.25Z" glyph-name="brokenbar" horiz-adv-x="327.25" unicode="&#166;" /><glyph d="M207.5 142C283 142 325.5 205.5 324.5 273C323.75 335.75 282 380.75 218.5 380.75C148.75 380.75 97.25 319 98 251.25C98.75 192.25 141.5 142 207.5 142Z" glyph-name="bullet" horiz-adv-x="422.5387" unicode="&#8226;" /><glyph d="M207.5 222C283 222 325.5 285.5 324.5 353C323.75 415.75 282 460.75 218.5 460.75C148.75 460.75 97.25 399 98 331.25C98.75 272.25 141.5 222 207.5 222Z" glyph-name="bullet.caps" horiz-adv-x="422.5387" /><glyph d="M197 146.25C272.5 146.25 315 209.75 314 277.25C313.25 340 271.5 385 208 385C138.25 385 86.75 323.25 87.5 255.5C88.25 196.5 131 146.25 197 146.25Z" glyph-name="bullet.sc" horiz-adv-x="401.5387" /><glyph d="M431.5 83.75 418.75 94.25C383 62 341 45 290.75 45C186.25 45 128.5 126.25 128.5 265C128.5 385.25 183.25 469 261.25 469C317.25 469 350.25 427.25 350.25 358.75C350.25 351.75 349.5 344.75 348 335.5C358 331 366.5 329 378 329C405 329 422 349 422 380.5C422 451 356.5 506.25 267.5 506.25C139.75 506.25 50 394 50 235.25C50 85.5 132.25 -10 261.5 -10C339.25 -10 398.75 29 431.5 83.75ZM264.75 496.25ZM248.5 0Z" glyph-name="c" horiz-adv-x="457.5" unicode="c" /><glyph d="M345 226.5C345 282 291 325 218.25 325C113 325 39.5 237.75 39.5 113.25C39.5 -3.5 107 -78 213.25 -78C276.75 -78 325.75 -45.75 352.5 -3L342 5.5C312.75 -18.75 278.5 -32 237 -32C151.5 -32 104.25 30.5 104.25 138C104.25 230.75 149.25 295.5 212.5 295.5C258.5 295.5 285 262.75 285 207.5C285 202.25 287.75 196 286.25 189.25C292 187.25 299.25 185.5 308.5 185.5C331 185.5 345 201.25 345 226.5Z" glyph-name="c.inferior" horiz-adv-x="368" /><glyph d="M480.25 9.75C483.5 34.5 484.25 61 484.25 87.75C484.25 112.25 482 142.25 477.75 162H461C445.25 119.5 429 75.75 410.25 34.5C392.25 30.5 377 28.25 340.25 28.25C209.5 28.25 125 119.75 125 260C125 409 215.5 508.5 331.25 508.5C359.5 508.5 378 505.25 397.25 501.25C413.75 467.25 433 413.75 448 369.5L464.75 370C470.5 402.25 473.25 437.25 473.25 468.5C473.25 489.5 471.75 507.75 469.75 521.5C434.75 535.75 392.25 546.25 329.5 546.25C173.75 546.25 47.5 437.5 47.5 259.5C47.5 85.5 162 -10 335.5 -10C391.75 -10 446.75 -0.5 480.25 9.75ZM298.25 536.25ZM317.5 0Z" glyph-name="c.sc" horiz-adv-x="539.75" /><glyph d="M345 665.75C345 721.25 291 764.25 218.25 764.25C113 764.25 39.5 677 39.5 552.5C39.5 435.75 107 361.25 213.25 361.25C276.75 361.25 325.75 393.5 352.5 436.25L342 444.75C312.75 420.5 278.5 407.25 237 407.25C151.5 407.25 104.25 469.75 104.25 577.25C104.25 670 149.25 734.75 212.5 734.75C258.5 734.75 285 702 285 646.75C285 641.5 287.75 635.25 286.25 628.5C292 626.5 299.25 624.75 308.5 624.75C331 624.75 345 640.5 345 665.75Z" glyph-name="c.superior" horiz-adv-x="368" /><glyph d="M595.75 756.25C424.75 714.25 311.5 616.75 311.5 456.75C311.5 401.5 344 363.75 377.75 363.75C401.25 363.75 418.25 379.5 418.25 406.25C418.25 460.5 351.25 506.25 274.25 506.25C143.5 506.25 50 394.5 50 236.25C50 85.5 132.25 -10 261.5 -10C339.25 -10 398.75 29 431.5 83.75L418.75 94.25C383 62 340.5 45 290.75 45C188.5 45 128.5 126 128.5 263C128.5 370.75 185.5 469 272.75 469C302.75 469 327.75 457.25 346 451.75C346 584.75 444.25 670 549.75 696.25ZM605.25 632V746.75L595.75 756.25L530.25 702.25V632ZM605.25 632H530.25V114.25H605.25ZM831.5 114.25H906.5V354.75C906.5 452.5 856.75 506.25 765.75 506.25C704.75 506.25 642.25 478.25 588.75 426L597 397.25C641 436 688.75 456.5 735.5 456.5C799.75 456.5 831.5 418.75 831.5 349ZM605.25 40V114.25H530.25V69.25C530.25 46.25 523.75 38.5 501.25 30.75L457.75 17L459.75 0H675.75L677.75 17ZM906.5 40V114.25H831.5V69.25C831.5 46.25 825 38.5 802.5 30.75L759 17L761 0H977L979 17Z" glyph-name="c_h" horiz-adv-x="1012" /><glyph d="M465.25 472.5 467.25 452.5H779V487.5H534V137.5C534 40.75 577 -10 655 -10C720.75 -10 775 32.25 806.75 83.75L794 94.25C760.25 63.25 723.25 45 685.75 45C632.25 45 609 81.25 609 155V487.5H590.25C605 507.5 629 543.5 629 591C629 670 570.25 730 483.75 730C367 730 289 633.5 289 519.5C289 430.25 335 363.75 376.25 363.75C399.75 363.75 418.25 379.5 418.25 406.25C418.25 460.5 351.25 506.25 274.25 506.25C143.5 506.25 50 394.5 50 236.25C50 85.5 132.25 -10 261.5 -10C339.5 -10 398.75 29 431.5 83.75L418.75 94.25C383 62 340.5 45 290.75 45C188.5 45 128.5 126 128.5 263C128.5 370.75 185.5 469 272.75 469C302.75 469 327.75 457.25 346 451.75C333.25 475 327.25 490 327.25 522.25C327.25 607.5 380.75 686 464.75 686C520 686 559.5 646.25 559.5 590.5C559.5 537.25 529.25 491 465.25 472.5Z" glyph-name="c_t" horiz-adv-x="832.75" /><glyph d="M431.5 83.75 418.75 94.25C383 62 341 45 290.75 45C186.25 45 128.5 126.25 128.5 265C128.5 385.25 183.25 469 261.25 469C317.25 469 350.25 427.25 350.25 358.75C350.25 351.75 349.5 344.75 348 335.5C358 331 366.5 329 378 329C405 329 422 349 422 380.5C422 451 356.5 506.25 267.5 506.25C139.75 506.25 50 394 50 235.25C50 85.5 132.25 -10 261.5 -10C339.25 -10 398.75 29 431.5 83.75ZM264.75 496.25ZM248.5 0ZM377 726.75C377 747.25 358 758.25 329.25 758.25C325.75 758.25 321.25 758.25 317.75 758L311.25 754.5C289.25 712.5 240 647.25 189.5 589.25L201.25 576.25C285.5 622.5 377 687.75 377 726.75ZM264.75 496.25ZM278.75 746.25Z" glyph-name="cacute" horiz-adv-x="457.5" unicode="&#263;" /><glyph d="M410.5 766.75C410.5 787.25 391.5 798.25 362.75 798.25C359.25 798.25 354.75 798.25 351.25 798L344.75 794.5C322.75 752.5 273.5 687.25 223 629.25L234.75 616.25C319 662.5 410.5 727.75 410.5 766.75ZM298.25 536.25ZM312.25 786.25ZM480.25 9.75C483.5 34.5 484.25 61 484.25 87.75C484.25 112.25 482 142.25 477.75 162H461C445.25 119.5 429 75.75 410.25 34.5C392.25 30.5 377 28.25 340.25 28.25C209.5 28.25 125 119.75 125 260C125 409 215.5 508.5 331.25 508.5C359.5 508.5 378 505.25 397.25 501.25C413.75 467.25 433 413.75 448 369.5L464.75 370C470.5 402.25 473.25 437.25 473.25 468.5C473.25 489.5 471.75 507.75 469.75 521.5C434.75 535.75 392.25 546.25 329.5 546.25C173.75 546.25 47.5 437.5 47.5 259.5C47.5 85.5 162 -10 335.5 -10C391.75 -10 446.75 -0.5 480.25 9.75ZM298.25 536.25ZM317.5 0Z" glyph-name="cacute.sc" horiz-adv-x="539.75" /><glyph d="M210.5 626 252 627.5C201.25 665.5 148 715 106 755L91.5 744.75C127 686.75 167.75 626 199 582.75H253.5L260.75 587.75C279 621.5 327.75 692.5 366.25 742.5L353.75 755C305.5 717 239.75 655.5 210.5 626Z" glyph-name="caron" horiz-adv-x="457.75" unicode="&#711;" /><glyph d="M220.5 815.75 262 817.25C207.5 846 151 884 106 914.5L91.5 904.25C130.5 857 176 807 210.5 771.25H262L269.25 776.25C289.5 803.75 343.75 861 386.25 902L373.75 914.5C322.25 885.75 252 838 220.5 815.75Z" glyph-name="caron.case" horiz-adv-x="477.75" /><glyph d="M210.5 626 252 627.5C201.25 665.5 148 715 106 755L91.5 744.75C127 686.75 167.75 626 199 582.75H253.5L260.75 587.75C279 621.5 327.75 692.5 366.25 742.5L353.75 755C305.5 717 239.75 655.5 210.5 626ZM228.75 496.25ZM228 748.75Z" glyph-name="caroncomb" horiz-adv-x="457.75" unicode="&#780;" /><glyph d="M190 698.5C190 729.75 171.75 748.75 142.75 748.75C115.5 748.75 93.75 725.75 93.75 697C93.75 669.75 114.25 651.75 143.25 651.75L135.25 683.25C134.5 643 115 582 94.75 551.25L105.5 542.25C148 572.25 190 642.25 190 698.5ZM138.5 496.25Z" glyph-name="caroncomb.alt" horiz-adv-x="281.5" /><glyph d="M220.5 815.75 262 817.25C207.5 846 151 884 106 914.5L91.5 904.25C130.5 857 176 807 210.5 771.25H262L269.25 776.25C289.5 803.75 343.75 861 386.25 902L373.75 914.5C322.25 885.75 252 838 220.5 815.75ZM239.25 686.25Z" glyph-name="caroncomb.case" horiz-adv-x="477.75" /><glyph d="M178 617 219.5 618.5C180.25 657.25 139 707.5 106 748.25L91.5 738C116.5 679.5 144.5 618.25 165.75 574.5H221.75L229 579.5C241.75 613.75 274.75 685.25 301.25 735.75L288.75 748.25C251.75 710.25 200.75 647.25 178 617ZM195.5 826.25ZM191.25 500Z" glyph-name="caroncomb.i" horiz-adv-x="392.75" /><glyph d="M431.5 83.75 418.75 94.25C383 62 341 45 290.75 45C186.25 45 128.5 126.25 128.5 265C128.5 385.25 183.25 469 261.25 469C317.25 469 350.25 427.25 350.25 358.75C350.25 351.75 349.5 344.75 348 335.5C358 331 366.5 329 378 329C405 329 422 349 422 380.5C422 451 356.5 506.25 267.5 506.25C139.75 506.25 50 394 50 235.25C50 85.5 132.25 -10 261.5 -10C339.25 -10 398.75 29 431.5 83.75ZM264.75 496.25ZM248.5 0ZM246.5 626 288 627.5C237.25 665.5 184 715 142 755L127.5 744.75C163 686.75 203.75 626 235 582.75H289.5L296.75 587.75C315 621.5 363.75 692.5 402.25 742.5L389.75 755C341.5 717 275.75 655.5 246.5 626ZM264.75 496.25ZM264 748.75Z" glyph-name="ccaron" horiz-adv-x="457.5" unicode="&#269;" /><glyph d="M480.25 9.75C483.5 34.5 484.25 61 484.25 87.75C484.25 112.25 482 142.25 477.75 162H461C445.25 119.5 429 75.75 410.25 34.5C392.25 30.5 377 28.25 340.25 28.25C209.5 28.25 125 119.75 125 260C125 409 215.5 508.5 331.25 508.5C359.5 508.5 378 505.25 397.25 501.25C413.75 467.25 433 413.75 448 369.5L464.75 370C470.5 402.25 473.25 437.25 473.25 468.5C473.25 489.5 471.75 507.75 469.75 521.5C434.75 535.75 392.25 546.25 329.5 546.25C173.75 546.25 47.5 437.5 47.5 259.5C47.5 85.5 162 -10 335.5 -10C391.75 -10 446.75 -0.5 480.25 9.75ZM298.25 536.25ZM317.5 0ZM280 666 321.5 667.5C270.75 705.5 217.5 755 175.5 795L161 784.75C196.5 726.75 237.25 666 268.5 622.75H323L330.25 627.75C348.5 661.5 397.25 732.5 435.75 782.5L423.25 795C375 757 309.25 695.5 280 666ZM298.25 536.25ZM297.5 788.75Z" glyph-name="ccaron.sc" horiz-adv-x="539.75" /><glyph d="M431.5 83.75 418.75 94.25C383 62 341 45 290.75 45C186.25 45 128.5 126.25 128.5 265C128.5 385.25 183.25 469 261.25 469C317.25 469 350.25 427.25 350.25 358.75C350.25 351.75 349.5 344.75 348 335.5C358 331 366.5 329 378 329C405 329 422 349 422 380.5C422 451 356.5 506.25 267.5 506.25C139.75 506.25 50 394 50 235.25C50 85.5 132.25 -10 261.5 -10C339.25 -10 398.75 29 431.5 83.75ZM264.75 496.25ZM248.5 0ZM217.5 -99C258.25 -108.5 274 -125.25 274 -144.5C274 -174.25 239.25 -195.25 191.5 -209.25L195.75 -224.25C278.5 -219 344.5 -189.25 344.5 -136.25C344.5 -100.5 310.5 -72.5 250 -62L252.75 -87.5L268.5 0H230L213.75 -92.75ZM248.5 0Z" glyph-name="ccedilla" horiz-adv-x="457.5" unicode="&#231;" /><glyph d="M480.25 9.75C483.5 34.5 484.25 61 484.25 87.75C484.25 112.25 482 142.25 477.75 162H461C445.25 119.5 429 75.75 410.25 34.5C392.25 30.5 377 28.25 340.25 28.25C209.5 28.25 125 119.75 125 260C125 409 215.5 508.5 331.25 508.5C359.5 508.5 378 505.25 397.25 501.25C413.75 467.25 433 413.75 448 369.5L464.75 370C470.5 402.25 473.25 437.25 473.25 468.5C473.25 489.5 471.75 507.75 469.75 521.5C434.75 535.75 392.25 546.25 329.5 546.25C173.75 546.25 47.5 437.5 47.5 259.5C47.5 85.5 162 -10 335.5 -10C391.75 -10 446.75 -0.5 480.25 9.75ZM298.25 536.25ZM317.5 0ZM286.5 -99C327.25 -108.5 343 -125.25 343 -144.5C343 -174.25 308.25 -195.25 260.5 -209.25L264.75 -224.25C347.5 -219 413.5 -189.25 413.5 -136.25C413.5 -100.5 379.5 -72.5 319 -62L321.75 -87.5L337.5 0H299L282.75 -92.75ZM317.5 0Z" glyph-name="ccedilla.sc" horiz-adv-x="539.75" /><glyph d="M431.5 83.75 418.75 94.25C383 62 341 45 290.75 45C186.25 45 128.5 126.25 128.5 265C128.5 385.25 183.25 469 261.25 469C317.25 469 350.25 427.25 350.25 358.75C350.25 351.75 349.5 344.75 348 335.5C358 331 366.5 329 378 329C405 329 422 349 422 380.5C422 451 356.5 506.25 267.5 506.25C139.75 506.25 50 394 50 235.25C50 85.5 132.25 -10 261.5 -10C339.25 -10 398.75 29 431.5 83.75ZM264.75 496.25ZM248.5 0ZM283 710 241.5 708.5C292.25 670.5 345.5 621 387.5 581L402 591.25C366.5 649.25 325.75 710 294.5 753.25H240L232.75 748.25C214.5 714.5 165.75 643.5 127.25 593.5L139.75 581C188 619 253.75 680.5 283 710ZM264.75 496.25ZM264.5 746.25Z" glyph-name="ccircumflex" horiz-adv-x="457.5" unicode="&#265;" /><glyph d="M316.5 750 275 748.5C325.75 710.5 379 661 421 621L435.5 631.25C400 689.25 359.25 750 328 793.25H273.5L266.25 788.25C248 754.5 199.25 683.5 160.75 633.5L173.25 621C221.5 659 287.25 720.5 316.5 750ZM298.25 536.25ZM298 786.25ZM480.25 9.75C483.5 34.5 484.25 61 484.25 87.75C484.25 112.25 482 142.25 477.75 162H461C445.25 119.5 429 75.75 410.25 34.5C392.25 30.5 377 28.25 340.25 28.25C209.5 28.25 125 119.75 125 260C125 409 215.5 508.5 331.25 508.5C359.5 508.5 378 505.25 397.25 501.25C413.75 467.25 433 413.75 448 369.5L464.75 370C470.5 402.25 473.25 437.25 473.25 468.5C473.25 489.5 471.75 507.75 469.75 521.5C434.75 535.75 392.25 546.25 329.5 546.25C173.75 546.25 47.5 437.5 47.5 259.5C47.5 85.5 162 -10 335.5 -10C391.75 -10 446.75 -0.5 480.25 9.75ZM298.25 536.25ZM317.5 0Z" glyph-name="ccircumflex.sc" horiz-adv-x="539.75" /><glyph d="M316.75 668.25C316.75 699.5 298.25 721.25 270 721.25C237.5 721.25 213.25 692 213.25 659.75C213.25 629.75 232.5 606 262 606C296.75 606 316.75 635.5 316.75 668.25ZM264.75 496.25ZM264.75 746.25ZM431.5 83.75 418.75 94.25C383 62 341 45 290.75 45C186.25 45 128.5 126.25 128.5 265C128.5 385.25 183.25 469 261.25 469C317.25 469 350.25 427.25 350.25 358.75C350.25 351.75 349.5 344.75 348 335.5C358 331 366.5 329 378 329C405 329 422 349 422 380.5C422 451 356.5 506.25 267.5 506.25C139.75 506.25 50 394 50 235.25C50 85.5 132.25 -10 261.5 -10C339.25 -10 398.75 29 431.5 83.75ZM264.75 496.25ZM248.5 0Z" glyph-name="cdotaccent" horiz-adv-x="457.5" unicode="&#267;" /><glyph d="M350.25 708.25C350.25 739.5 331.75 761.25 303.5 761.25C271 761.25 246.75 732 246.75 699.75C246.75 669.75 266 646 295.5 646C330.25 646 350.25 675.5 350.25 708.25ZM298.25 536.25ZM298.25 786.25ZM480.25 9.75C483.5 34.5 484.25 61 484.25 87.75C484.25 112.25 482 142.25 477.75 162H461C445.25 119.5 429 75.75 410.25 34.5C392.25 30.5 377 28.25 340.25 28.25C209.5 28.25 125 119.75 125 260C125 409 215.5 508.5 331.25 508.5C359.5 508.5 378 505.25 397.25 501.25C413.75 467.25 433 413.75 448 369.5L464.75 370C470.5 402.25 473.25 437.25 473.25 468.5C473.25 489.5 471.75 507.75 469.75 521.5C434.75 535.75 392.25 546.25 329.5 546.25C173.75 546.25 47.5 437.5 47.5 259.5C47.5 85.5 162 -10 335.5 -10C391.75 -10 446.75 -0.5 480.25 9.75ZM298.25 536.25ZM317.5 0Z" glyph-name="cdotaccent.sc" horiz-adv-x="539.75" /><glyph d="M117.5 -99C158.25 -108.5 174 -125.25 174 -144.5C174 -174.25 139.25 -195.25 91.5 -209.25L95.75 -224.25C178.5 -219 244.5 -189.25 244.5 -136.25C244.5 -100.5 210.5 -72.5 150 -62L152.75 -87.5L168.5 0H130L113.75 -92.75Z" glyph-name="cedilla" horiz-adv-x="336" unicode="&#184;" /><glyph d="M117.5 -99C158.25 -108.5 174 -125.25 174 -144.5C174 -174.25 139.25 -195.25 91.5 -209.25L95.75 -224.25C178.5 -219 244.5 -189.25 244.5 -136.25C244.5 -100.5 210.5 -72.5 150 -62L152.75 -87.5L168.5 0H130L113.75 -92.75ZM148.5 0Z" glyph-name="cedillacomb" horiz-adv-x="336" unicode="&#807;" /><glyph d="M246 677V528.75H289.75V672.75L282.5 680ZM289.75 -137V9H246V-132.75L253.25 -140ZM439 83.75 426.25 94.25C389 62.75 346.25 45 294.5 45C187.75 45 128.5 134.75 128.5 283.5C128.5 418 184.75 509 268.75 509C323.25 509 357.75 468 357.75 398.75C357.75 391.75 357 384.75 355.5 375.5C365.5 371 374 369 385.5 369C412.5 369 429.5 389 429.5 420.5C429.5 491 361.75 546.25 274.25 546.25C140.5 546.25 50 424.5 50 265C50 92 133 -10 265.25 -10C344.5 -10 406.25 29 439 83.75Z" glyph-name="cent" horiz-adv-x="481" unicode="&#162;" /><glyph d="M246 677V528.75H289.75V672.75L282.5 680ZM289.75 -137V9H246V-132.75L253.25 -140ZM439 83.75 426.25 94.25C389 62.75 346.25 45 294.5 45C187.75 45 128.5 134.75 128.5 283.5C128.5 418 184.75 509 268.75 509C323.25 509 357.75 468 357.75 398.75C357.75 391.75 357 384.75 355.5 375.5C365.5 371 374 369 385.5 369C412.5 369 429.5 389 429.5 420.5C429.5 491 361.75 546.25 274.25 546.25C140.5 546.25 50 424.5 50 265C50 92 133 -10 265.25 -10C344.5 -10 406.25 29 439 83.75Z" glyph-name="cent.lf" horiz-adv-x="481" /><glyph d="M256.5 677V528.75H300.25V672.75L293 680ZM300.25 -137V9H256.5V-132.75L263.75 -140ZM449.5 83.75 436.75 94.25C399.5 62.75 356.75 45 305 45C198.25 45 139 134.75 139 283.5C139 418 195.25 509 279.25 509C333.75 509 368.25 468 368.25 398.75C368.25 391.75 367.5 384.75 366 375.5C376 371 384.5 369 396 369C423 369 440 389 440 420.5C440 491 372.25 546.25 284.75 546.25C151 546.25 60.5 424.5 60.5 265C60.5 92 143.5 -10 275.75 -10C355 -10 416.75 29 449.5 83.75Z" glyph-name="cent.osf" horiz-adv-x="502" /><glyph d="M256.5 677V528.75H300.25V672.75L293 680ZM300.25 -137V9H256.5V-132.75L263.75 -140ZM449.5 83.75 436.75 94.25C399.5 62.75 356.75 45 305 45C198.25 45 139 134.75 139 283.5C139 418 195.25 509 279.25 509C333.75 509 368.25 468 368.25 398.75C368.25 391.75 367.5 384.75 366 375.5C376 371 384.5 369 396 369C423 369 440 389 440 420.5C440 491 372.25 546.25 284.75 546.25C151 546.25 60.5 424.5 60.5 265C60.5 92 143.5 -10 275.75 -10C355 -10 416.75 29 449.5 83.75Z" glyph-name="cent.sc" horiz-adv-x="502" /><glyph d="M291 677V528.75H334.75V672.75L327.5 680ZM334.75 -137V9H291V-132.75L298.25 -140ZM484 83.75 471.25 94.25C434 62.75 391.25 45 339.5 45C232.75 45 173.5 134.75 173.5 283.5C173.5 418 229.75 509 313.75 509C368.25 509 402.75 468 402.75 398.75C402.75 391.75 402 384.75 400.5 375.5C410.5 371 419 369 430.5 369C457.5 369 474.5 389 474.5 420.5C474.5 491 406.75 546.25 319.25 546.25C185.5 546.25 95 424.5 95 265C95 92 178 -10 310.25 -10C389.5 -10 451.25 29 484 83.75Z" glyph-name="cent.tf" horiz-adv-x="575" /><glyph d="M298.5 677V528.75H342.25V672.75L335 680ZM342.25 -137V9H298.5V-132.75L305.75 -140ZM491.5 83.75 478.75 94.25C441.5 62.75 398.75 45 347 45C240.25 45 181 134.75 181 283.5C181 418 237.25 509 321.25 509C375.75 509 410.25 468 410.25 398.75C410.25 391.75 409.5 384.75 408 375.5C418 371 426.5 369 438 369C465 369 482 389 482 420.5C482 491 414.25 546.25 326.75 546.25C193 546.25 102.5 424.5 102.5 265C102.5 92 185.5 -10 317.75 -10C397 -10 458.75 29 491.5 83.75Z" glyph-name="cent.tf.sc" horiz-adv-x="584" /><glyph d="M291 677V528.75H334.75V672.75L327.5 680ZM334.75 -137V9H291V-132.75L298.25 -140ZM484 83.75 471.25 94.25C434 62.75 391.25 45 339.5 45C232.75 45 173.5 134.75 173.5 283.5C173.5 418 229.75 509 313.75 509C368.25 509 402.75 468 402.75 398.75C402.75 391.75 402 384.75 400.5 375.5C410.5 371 419 369 430.5 369C457.5 369 474.5 389 474.5 420.5C474.5 491 406.75 546.25 319.25 546.25C185.5 546.25 95 424.5 95 265C95 92 178 -10 310.25 -10C389.5 -10 451.25 29 484 83.75Z" glyph-name="cent.tosf" horiz-adv-x="575" /><glyph d="M247.25 710 205.75 708.5C256.5 670.5 309.75 621 351.75 581L366.25 591.25C330.75 649.25 290 710 258.75 753.25H204.25L197 748.25C178.75 714.5 130 643.5 91.5 593.5L104 581C152.25 619 218 680.5 247.25 710Z" glyph-name="circumflex" horiz-adv-x="457.75" unicode="&#710;" /><glyph d="M257.25 870 215.75 868.5C270.25 839.75 326.75 801.75 371.75 771.25L386.25 781.5C347.25 828.75 301.75 878.75 267.25 914.5H215.75L208.5 909.5C188.25 882 134 824.75 91.5 783.75L104 771.25C155.5 800 225.75 847.75 257.25 870Z" glyph-name="circumflex.case" horiz-adv-x="477.75" /><glyph d="M247.25 710 205.75 708.5C256.5 670.5 309.75 621 351.75 581L366.25 591.25C330.75 649.25 290 710 258.75 753.25H204.25L197 748.25C178.75 714.5 130 643.5 91.5 593.5L104 581C152.25 619 218 680.5 247.25 710ZM229 496.25ZM228.75 746.25Z" glyph-name="circumflexcomb" horiz-adv-x="457.75" unicode="&#770;" /><glyph d="M257.25 870 215.75 868.5C270.25 839.75 326.75 801.75 371.75 771.25L386.25 781.5C347.25 828.75 301.75 878.75 267.25 914.5H215.75L208.5 909.5C188.25 882 134 824.75 91.5 783.75L104 771.25C155.5 800 225.75 847.75 257.25 870ZM239 686.25Z" glyph-name="circumflexcomb.case" horiz-adv-x="477.75" /><glyph d="M214.75 705.5 173.25 704C212.5 665.25 253.75 615 286.75 574.25L301.25 584.5C276.25 643 248.25 704.25 227 748H171L163.75 743C151 708.75 118 637.25 91.5 586.75L104 574.25C141 612.25 192 675.25 214.75 705.5ZM197.25 496.25Z" glyph-name="circumflexcomb.i" horiz-adv-x="392.75" /><glyph d="M112.5 314.5C149.25 314.5 171 345 170.5 378.5C170 409.75 149 431.25 118 431.25C83.75 431.25 57.5 401.25 58 368C58.5 339 80 314.5 112.5 314.5ZM112.5 -10C149.25 -10 171 20.5 170.5 54C170 85.25 149 106.75 118 106.75C83.75 106.75 57.5 76.75 58 43.5C58.5 14.5 80 -10 112.5 -10Z" glyph-name="colon" horiz-adv-x="228.5151" unicode=":" /><glyph d="M60.5 -176 73.25 -186C130.75 -129 181.75 -32 181.75 42C181.75 80.25 160.75 106.75 125.5 106.75C89.5 106.75 62.5 78 62.5 45.75C62.5 13.5 85.75 -10 120.75 -10C137.25 -10 153.5 -1.25 160.25 8.75L123.75 24.5C119.25 -54.25 91.25 -129.75 60.5 -176Z" glyph-name="comma" horiz-adv-x="239.75" unicode="," /><glyph d="M197.5 -163.75C197.5 -129.5 177.75 -108.75 146.5 -108.75C117.25 -108.75 93.75 -133.75 93.75 -165C93.75 -194.5 115.75 -214.25 146.75 -214.25L138.25 -181C137.5 -224 116.75 -288.25 95.5 -320.5L106.75 -330C152.25 -298.75 197.5 -224.25 197.5 -163.75ZM146.5 0Z" glyph-name="commaaccent" horiz-adv-x="289" unicode="&#806;" /><glyph d="M358 -47.75C523 -47.75 658 86.5 658 250C658 412.75 529 546.25 358 546.25C193 546.25 58 412.75 58 250C58 81.5 188 -47.75 358 -47.75ZM358 -5.25C211.5 -5.25 100.5 105 100.5 250C100.5 390.25 216.5 503.75 358 503.75C500.5 503.75 615.5 390.25 615.5 250C615.5 110 500.5 -5.25 358 -5.25ZM481.5 143.5 465.25 159.75C443.75 142.25 415 128.75 383.25 128.75C327 128.75 284 179.5 284 256.75C284 330.25 316.5 382.75 364.75 382.75C395.25 382.75 414 359 414 321.5C414 317.5 414 313.5 413.25 307.5C420.5 303.75 431.25 301.75 440.5 301.75C458.5 301.75 472 314.25 472 335.25C472 383 427.25 420 367.75 420C283.25 420 221.75 346.25 221.75 246C221.75 144.25 285.25 80 368 80C419 80 459 107.25 481.5 143.5Z" glyph-name="copyright" horiz-adv-x="716" unicode="&#169;" /><glyph d="M487.75 455.75 452.25 491.25 369.5 408.5 405 373ZM453.25 52.5 488.5 79.5V90.5C466.25 112.75 435.25 142.25 402 176.5L366 140.5ZM173.25 411.75C166 419.25 97.75 486.5 92.75 491.25L59 457.5L138.5 376ZM270.5 455C154 455 81.5 360.75 81.5 263.75C81.5 169.25 149.25 85 264.5 85C381.5 85 451.5 180.5 451.5 274C451.5 366.75 381.5 455 270.5 455ZM266.5 406.25C347.5 406.25 397.75 339.5 397.75 271C397.75 200.5 353.5 133.75 267.5 133.75C182.75 133.75 135.25 203.25 135.25 269C135.25 339.5 185.5 406.25 266.5 406.25ZM177.75 136.75 142.25 172.25 58 88 93.5 52.5Z" glyph-name="currency" horiz-adv-x="546.5" unicode="&#164;" /><glyph d="M487.75 529.25 452.25 564.75 369.5 482 405 446.5ZM453.25 126 488.5 153V164C466.25 186.25 435.25 215.75 402 250L366 214ZM173.25 485.25C166 492.75 97.75 560 92.75 564.75L59 531L138.5 449.5ZM270.5 528.5C154 528.5 81.5 434.25 81.5 337.25C81.5 242.75 149.25 158.5 264.5 158.5C381.5 158.5 451.5 254 451.5 347.5C451.5 440.25 381.5 528.5 270.5 528.5ZM266.5 479.75C347.5 479.75 397.75 413 397.75 344.5C397.75 274 353.5 207.25 267.5 207.25C182.75 207.25 135.25 276.75 135.25 342.5C135.25 413 185.5 479.75 266.5 479.75ZM177.75 210.25 142.25 245.75 58 161.5 93.5 126Z" glyph-name="currency.lf" horiz-adv-x="546.5" /><glyph d="M498.25 455.75 462.75 491.25 380 408.5 415.5 373ZM463.75 52.5 499 79.5V90.5C476.75 112.75 445.75 142.25 412.5 176.5L376.5 140.5ZM183.75 411.75C176.5 419.25 108.25 486.5 103.25 491.25L69.5 457.5L149 376ZM281 455C164.5 455 92 360.75 92 263.75C92 169.25 159.75 85 275 85C392 85 462 180.5 462 274C462 366.75 392 455 281 455ZM277 406.25C358 406.25 408.25 339.5 408.25 271C408.25 200.5 364 133.75 278 133.75C193.25 133.75 145.75 203.25 145.75 269C145.75 339.5 196 406.25 277 406.25ZM188.25 136.75 152.75 172.25 68.5 88 104 52.5Z" glyph-name="currency.osf" horiz-adv-x="567.5" /><glyph d="M498.25 455.75 462.75 491.25 380 408.5 415.5 373ZM463.75 52.5 499 79.5V90.5C476.75 112.75 445.75 142.25 412.5 176.5L376.5 140.5ZM183.75 411.75C176.5 419.25 108.25 486.5 103.25 491.25L69.5 457.5L149 376ZM281 455C164.5 455 92 360.75 92 263.75C92 169.25 159.75 85 275 85C392 85 462 180.5 462 274C462 366.75 392 455 281 455ZM277 406.25C358 406.25 408.25 339.5 408.25 271C408.25 200.5 364 133.75 278 133.75C193.25 133.75 145.75 203.25 145.75 269C145.75 339.5 196 406.25 277 406.25ZM188.25 136.75 152.75 172.25 68.5 88 104 52.5Z" glyph-name="currency.sc" horiz-adv-x="567.5" /><glyph d="M502 528.25 466.5 563.75 383.75 481 419.25 445.5ZM467.5 125 502.75 152V163C480.5 185.25 449.5 214.75 416.25 249L380.25 213ZM187.5 484.25C180.25 491.75 112 559 107 563.75L73.25 530L152.75 448.5ZM284.75 527.5C168.25 527.5 95.75 433.25 95.75 336.25C95.75 241.75 163.5 157.5 278.75 157.5C395.75 157.5 465.75 253 465.75 346.5C465.75 439.25 395.75 527.5 284.75 527.5ZM280.75 478.75C361.75 478.75 412 412 412 343.5C412 273 367.75 206.25 281.75 206.25C197 206.25 149.5 275.75 149.5 341.5C149.5 412 199.75 478.75 280.75 478.75ZM192 209.25 156.5 244.75 72.25 160.5 107.75 125Z" glyph-name="currency.tf" horiz-adv-x="575" /><glyph d="M517.75 455.75 482.25 491.25 399.5 408.5 435 373ZM483.25 52.5 518.5 79.5V90.5C496.25 112.75 465.25 142.25 432 176.5L396 140.5ZM203.25 411.75C196 419.25 127.75 486.5 122.75 491.25L89 457.5L168.5 376ZM300.5 455C184 455 111.5 360.75 111.5 263.75C111.5 169.25 179.25 85 294.5 85C411.5 85 481.5 180.5 481.5 274C481.5 366.75 411.5 455 300.5 455ZM296.5 406.25C377.5 406.25 427.75 339.5 427.75 271C427.75 200.5 383.5 133.75 297.5 133.75C212.75 133.75 165.25 203.25 165.25 269C165.25 339.5 215.5 406.25 296.5 406.25ZM207.75 136.75 172.25 172.25 88 88 123.5 52.5Z" glyph-name="currency.tf.sc" horiz-adv-x="606.5" /><glyph d="M502 455.75 466.5 491.25 383.75 408.5 419.25 373ZM467.5 52.5 502.75 79.5V90.5C480.5 112.75 449.5 142.25 416.25 176.5L380.25 140.5ZM187.5 411.75C180.25 419.25 112 486.5 107 491.25L73.25 457.5L152.75 376ZM284.75 455C168.25 455 95.75 360.75 95.75 263.75C95.75 169.25 163.5 85 278.75 85C395.75 85 465.75 180.5 465.75 274C465.75 366.75 395.75 455 284.75 455ZM280.75 406.25C361.75 406.25 412 339.5 412 271C412 200.5 367.75 133.75 281.75 133.75C197 133.75 149.5 203.25 149.5 269C149.5 339.5 199.75 406.25 280.75 406.25ZM192 136.75 156.5 172.25 72.25 88 107.75 52.5Z" glyph-name="currency.tosf" horiz-adv-x="575" /><glyph d="M393 73.25 382.5 100.25C357.75 69.25 313.5 38 261.5 38C185 38 128.5 110.25 128.5 243.5C128.5 393 197 469 289 469C330.25 469 370.5 454 399 425.25L406.5 482.75C369 497.75 330 506.25 287 506.25C159.25 506.25 50 407 50 235.75C50 76 129.25 -10 237.25 -10C311.75 -10 369.5 35.75 393 73.25ZM549.25 33.25 545.25 43.5C532.75 40 520.75 37.25 503.75 37.25C465.25 37.25 453.75 62.25 453.75 114.25V632.25H378.75V73.5C382 21.75 409.25 -10 458 -10C497.5 -10 530.5 9.5 549.25 33.25ZM453.75 632.25V746.75L444.25 756.25C396.25 750.5 330.5 739.5 287.5 723L289.5 709L378.75 696V632.25ZM619 496.25ZM361.75 560.75ZM267.5 0Z" glyph-name="d" horiz-adv-x="562.25" unicode="d" /><glyph d="M235.75 295.5C160.25 295.5 104.25 236.25 104.25 121C104.25 18.25 150.75 -38.75 213 -38.75C255.25 -38.75 291.75 -15 311.25 7.75L320.5 -12.75C301.25 -42.5 253.5 -78 192.5 -78C104 -78 39.5 -10 39.5 113.75C39.5 247 128.75 325 233.5 325C269.25 325 300.75 318.5 332 306.5L325.25 259.75C302 283.25 269 295.5 235.75 295.5ZM308.5 -12.25V422.75H370.75V20.25C370.75 -19.5 380.25 -38.75 412 -38.75C424.5 -38.75 434.75 -37 445.75 -34.25L449.75 -42.25C433.75 -62.25 406.5 -78 374.25 -78C333.75 -78 311.25 -52.75 308.5 -12.25ZM370.75 422.75V512.5L363.25 520C323.75 515.25 269.25 506 233.75 493.25L235.5 482.25L308.5 470.75V422.75Z" glyph-name="d.inferior" horiz-adv-x="469.25" /><glyph d="M127 422V114.25H202V422ZM202 0H267.25C444 0 555.75 96.75 555.75 267.75C555.75 439.75 445.75 536.25 267.25 536.25H202V501.25H263.75C402 501.25 478.25 419 478 267.75C477.75 117.25 402 35 263.75 35H202ZM202 0V114.25H127V68.5C127 48 120.75 38.25 100.25 32L54.5 19L56.5 0ZM202 536.25V422H127V467.75C127 488.25 120.75 498 100.25 504.25L54.5 517.25L56.5 536.25ZM303.5 536.25ZM208.25 238ZM293.25 0Z" glyph-name="d.sc" horiz-adv-x="603.25" /><glyph d="M235.75 734.75C160.25 734.75 104.25 675.5 104.25 560.25C104.25 457.5 150.75 400.5 213 400.5C255.25 400.5 291.75 424.25 311.25 447L320.5 426.5C301.25 396.75 253.5 361.25 192.5 361.25C104 361.25 39.5 429.25 39.5 553C39.5 686.25 128.75 764.25 233.5 764.25C269.25 764.25 300.75 757.75 332 745.75L325.25 699C302 722.5 269 734.75 235.75 734.75ZM308.5 427V862H370.75V459.5C370.75 419.75 380.25 400.5 412 400.5C424.5 400.5 434.75 402.25 445.75 405L449.75 397C433.75 377 406.5 361.25 374.25 361.25C333.75 361.25 311.25 386.5 308.5 427ZM370.75 862V951.75L363.25 959.25C323.75 954.5 269.25 945.25 233.75 932.5L235.5 921.5L308.5 910V862Z" glyph-name="d.superior" horiz-adv-x="467.25" /><glyph d="M252.25 498.75 72 523 58 515C59.5 494.25 62.5 469 65 451.75L69 448.75L252.25 469.25ZM234.75 492.5 207.25 143.5 238.5 0H266L297.25 143.5L269.75 492.5ZM269.75 492.5 297.25 688.25 289.25 696.25C263.5 695.5 231 692.5 210.25 690L207.25 686L234.75 492.5ZM252.25 469.25 432.5 448.75 446.5 456.75C445 478.25 441.75 502.75 439.5 520L435.5 523L252.25 498.75Z" glyph-name="dagger" horiz-adv-x="504.5" unicode="&#8224;" /><glyph d="M269.75 201.25H234.75L207.25 7L211.5 2C235.75 0.5 268.25 -1 290.5 -0.75L297.25 6.25ZM252.25 224.5V195L434.75 170.75L441.25 175C442.75 195 444.25 219.5 444.75 238.25L433.25 245ZM252.25 224.5 69.75 245 63.25 240.75C61.75 220.75 60.5 195.5 59.75 177.5L71.25 170.75L252.25 195ZM234.75 201.25H269.75C273.5 212 286 335.25 286 346.25C286 357.25 273.5 481.25 269.75 492.5H234.75C231 481.5 218.5 357 218.5 346.25C218.5 335.5 231 211.25 234.75 201.25ZM252.25 498.75V469.25L432.5 448.75L446.5 456.75C445 478.25 441.75 502.75 439.5 520L435.5 523ZM252.25 498.75 72 523 58 515C59.5 494.25 62.5 469 65 451.75L69 448.75L252.25 469.25ZM210.25 690 207.25 686 234.75 492.5H269.75L297.25 688.25L289.25 696.25C263.5 695.5 231 692.5 210.25 690Z" glyph-name="daggerdbl" horiz-adv-x="504.5" unicode="&#8225;" /><glyph d="M670.5 698.5C670.5 729.75 652.25 748.75 623.25 748.75C596 748.75 574.25 725.75 574.25 697C574.25 669.75 594.75 651.75 623.75 651.75L615.75 683.25C615 643 595.5 582 575.25 551.25L586 542.25C628.5 572.25 670.5 642.25 670.5 698.5ZM619 496.25ZM393 73.25 382.5 100.25C357.75 69.25 313.5 38 261.5 38C185 38 128.5 110.25 128.5 243.5C128.5 393 197 469 289 469C330.25 469 370.5 454 399 425.25L406.5 482.75C369 497.75 330 506.25 287 506.25C159.25 506.25 50 407 50 235.75C50 76 129.25 -10 237.25 -10C311.75 -10 369.5 35.75 393 73.25ZM549.25 33.25 545.25 43.5C532.75 40 520.75 37.25 503.75 37.25C465.25 37.25 453.75 62.25 453.75 114.25V632.25H378.75V73.5C382 21.75 409.25 -10 458 -10C497.5 -10 530.5 9.5 549.25 33.25ZM453.75 632.25V746.75L444.25 756.25C396.25 750.5 330.5 739.5 287.5 723L289.5 709L378.75 696V632.25ZM619 496.25ZM361.75 560.75ZM267.5 0Z" glyph-name="dcaron" horiz-adv-x="720.5" unicode="&#271;" /><glyph d="M127 422V114.25H202V422ZM202 0H267.25C444 0 555.75 96.75 555.75 267.75C555.75 439.75 445.75 536.25 267.25 536.25H202V501.25H263.75C402 501.25 478.25 419 478 267.75C477.75 117.25 402 35 263.75 35H202ZM202 0V114.25H127V68.5C127 48 120.75 38.25 100.25 32L54.5 19L56.5 0ZM202 536.25V422H127V467.75C127 488.25 120.75 498 100.25 504.25L54.5 517.25L56.5 536.25ZM303.5 536.25ZM208.25 238ZM293.25 0ZM285.25 666 326.75 667.5C276 705.5 222.75 755 180.75 795L166.25 784.75C201.75 726.75 242.5 666 273.75 622.75H328.25L335.5 627.75C353.75 661.5 402.5 732.5 441 782.5L428.5 795C380.25 757 314.5 695.5 285.25 666ZM303.5 536.25ZM302.75 788.75Z" glyph-name="dcaron.sc" horiz-adv-x="603.25" /><glyph d="M549.25 573.5V608.5H175V573.5ZM361.75 560.75ZM393 73.25 382.5 100.25C357.75 69.25 313.5 38 261.5 38C185 38 128.5 110.25 128.5 243.5C128.5 393 197 469 289 469C330.25 469 370.5 454 399 425.25L406.5 482.75C369 497.75 330 506.25 287 506.25C159.25 506.25 50 407 50 235.75C50 76 129.25 -10 237.25 -10C311.75 -10 369.5 35.75 393 73.25ZM549.25 33.25 545.25 43.5C532.75 40 520.75 37.25 503.75 37.25C465.25 37.25 453.75 62.25 453.75 114.25V632.25H378.75V73.5C382 21.75 409.25 -10 458 -10C497.5 -10 530.5 9.5 549.25 33.25ZM453.75 632.25V746.75L444.25 756.25C396.25 750.5 330.5 739.5 287.5 723L289.5 709L378.75 696V632.25ZM619 496.25ZM361.75 560.75ZM267.5 0Z" glyph-name="dcroat" horiz-adv-x="562.25" unicode="&#273;" /><glyph d="M127 422V114.25H202V422ZM202 0H267.25C444 0 555.75 96.75 555.75 267.75C555.75 439.75 445.75 536.25 267.25 536.25H202V501.25H263.75C402 501.25 478.25 419 478 267.75C477.75 117.25 402 35 263.75 35H202ZM202 0V114.25H127V68.5C127 48 120.75 38.25 100.25 32L54.5 19L56.5 0ZM202 536.25V422H127V467.75C127 488.25 120.75 498 100.25 504.25L54.5 517.25L56.5 536.25ZM303.5 536.25ZM208.25 238ZM293.25 0ZM344.795 250.75V285.75H22.94V250.75ZM183.545 238Z" glyph-name="dcroat.sc" horiz-adv-x="603.25" /><glyph d="M393 73.25 382.5 100.25C357.75 69.25 313.5 38 261.5 38C185 38 128.5 110.25 128.5 243.5C128.5 393 197 469 289 469C330.25 469 370.5 454 399 425.25L406.5 482.75C369 497.75 330 506.25 287 506.25C159.25 506.25 50 407 50 235.75C50 76 129.25 -10 237.25 -10C311.75 -10 369.5 35.75 393 73.25ZM549.25 33.25 545.25 43.5C532.75 40 520.75 37.25 503.75 37.25C465.25 37.25 453.75 62.25 453.75 114.25V632.25H378.75V73.5C382 21.75 409.25 -10 458 -10C497.5 -10 530.5 9.5 549.25 33.25ZM453.75 632.25V746.75L444.25 756.25C396.25 750.5 330.5 739.5 287.5 723L289.5 709L378.75 696V632.25ZM619 496.25ZM361.75 560.75ZM267.5 0ZM319.25 -161.75C319.25 -130.5 300.75 -108.75 272.5 -108.75C240 -108.75 215.75 -138 215.75 -170.25C215.75 -200.25 235 -224 264.5 -224C299.25 -224 319.25 -194.5 319.25 -161.75ZM267.5 0Z" glyph-name="ddotbelow" horiz-adv-x="562.25" unicode="&#7693;" /><glyph d="M127 422V114.25H202V422ZM202 0H267.25C444 0 555.75 96.75 555.75 267.75C555.75 439.75 445.75 536.25 267.25 536.25H202V501.25H263.75C402 501.25 478.25 419 478 267.75C477.75 117.25 402 35 263.75 35H202ZM202 0V114.25H127V68.5C127 48 120.75 38.25 100.25 32L54.5 19L56.5 0ZM202 536.25V422H127V467.75C127 488.25 120.75 498 100.25 504.25L54.5 517.25L56.5 536.25ZM303.5 536.25ZM208.25 238ZM293.25 0ZM345 -161.75C345 -130.5 326.5 -108.75 298.25 -108.75C265.75 -108.75 241.5 -138 241.5 -170.25C241.5 -200.25 260.75 -224 290.25 -224C325 -224 345 -194.5 345 -161.75ZM293.25 0Z" glyph-name="ddotbelow.sc" horiz-adv-x="603.25" /><glyph d="M173 306.25C240.25 306.25 295 361.5 295 431.75C295 500.75 246.25 546.25 181 546.25C112.75 546.25 58 493 58 421.75C58 351.5 108 306.25 173 306.25ZM177 507.5C223.25 507.5 252.75 474 252.75 429.75C252.75 381.5 222.25 345 176 345C131.75 345 100.25 378.5 100.25 423.75C100.25 469.5 129.75 507.5 177 507.5Z" glyph-name="degree" horiz-adv-x="353" unicode="&#176;" /><glyph d="M183.5 456.5C250.75 456.5 305.5 511.75 305.5 582C305.5 651 256.75 696.5 191.5 696.5C123.25 696.5 68.5 643.25 68.5 572C68.5 501.75 118.5 456.5 183.5 456.5ZM187.5 657.75C233.75 657.75 263.25 624.25 263.25 580C263.25 531.75 232.75 495.25 186.5 495.25C142.25 495.25 110.75 528.75 110.75 574C110.75 619.75 140.25 657.75 187.5 657.75Z" glyph-name="degree.lf" horiz-adv-x="353" /><glyph d="M183.5 306.25C250.75 306.25 305.5 361.5 305.5 431.75C305.5 500.75 256.75 546.25 191.5 546.25C123.25 546.25 68.5 493 68.5 421.75C68.5 351.5 118.5 306.25 183.5 306.25ZM187.5 507.5C233.75 507.5 263.25 474 263.25 429.75C263.25 381.5 232.75 345 186.5 345C142.25 345 110.75 378.5 110.75 423.75C110.75 469.5 140.25 507.5 187.5 507.5Z" glyph-name="degree.osf" horiz-adv-x="353" /><glyph d="M183.5 306.25C250.75 306.25 305.5 361.5 305.5 431.75C305.5 500.75 256.75 546.25 191.5 546.25C123.25 546.25 68.5 493 68.5 421.75C68.5 351.5 118.5 306.25 183.5 306.25ZM187.5 507.5C233.75 507.5 263.25 474 263.25 429.75C263.25 381.5 232.75 345 186.5 345C142.25 345 110.75 378.5 110.75 423.75C110.75 469.5 140.25 507.5 187.5 507.5Z" glyph-name="degree.sc" horiz-adv-x="353" /><glyph d="M390.5 671.75C390.5 701.25 373 721.75 346.75 721.75C316.75 721.75 294.25 693.5 294.25 661.5C294.25 633.75 312 610.75 339.25 610.75C371.75 610.75 390.5 640 390.5 671.75ZM187.75 671.75C187.75 701.25 170.25 721.75 144 721.75C114 721.75 91.5 693.5 91.5 661.5C91.5 633.75 109.25 610.75 136.5 610.75C169 610.75 187.75 640 187.75 671.75Z" glyph-name="dieresis" horiz-adv-x="482" unicode="&#168;" /><glyph d="M396.5 846.5C396.5 873.5 378 892.75 349.75 892.75C317.75 892.75 294.25 866 294.25 836.25C294.25 810 313 788.5 342.25 788.5C376.75 788.5 396.5 816.25 396.5 846.5ZM193.75 846.5C193.75 873.5 175.25 892.75 147 892.75C115 892.75 91.5 866 91.5 836.25C91.5 810 110.25 788.5 139.5 788.5C174 788.5 193.75 816.25 193.75 846.5Z" glyph-name="dieresis.case" horiz-adv-x="488" /><glyph d="M390.5 671.75C390.5 701.25 373 721.75 346.75 721.75C316.75 721.75 294.25 693.5 294.25 661.5C294.25 633.75 312 610.75 339.25 610.75C371.75 610.75 390.5 640 390.5 671.75ZM187.75 671.75C187.75 701.25 170.25 721.75 144 721.75C114 721.75 91.5 693.5 91.5 661.5C91.5 633.75 109.25 610.75 136.5 610.75C169 610.75 187.75 640 187.75 671.75ZM240.75 496.25ZM241.5 746.25Z" glyph-name="dieresiscomb" horiz-adv-x="482" unicode="&#776;" /><glyph d="M396.5 846.5C396.5 873.5 378 892.75 349.75 892.75C317.75 892.75 294.25 866 294.25 836.25C294.25 810 313 788.5 342.25 788.5C376.75 788.5 396.5 816.25 396.5 846.5ZM193.75 846.5C193.75 873.5 175.25 892.75 147 892.75C115 892.75 91.5 866 91.5 836.25C91.5 810 110.25 788.5 139.5 788.5C174 788.5 193.75 816.25 193.75 846.5ZM244 686.25ZM243 916.25Z" glyph-name="dieresiscomb.case" horiz-adv-x="488" /><glyph d="M336 680.25C336 709.75 320.25 730.25 295.5 730.25C266.75 730.25 246.25 702 246.25 670C246.25 642.25 262.25 619.25 288 619.25C319 619.25 336 648.5 336 680.25ZM181.25 680.25C181.25 709.75 165.5 730.25 140.75 730.25C112 730.25 91.5 702 91.5 670C91.5 642.25 107.5 619.25 133.25 619.25C164.25 619.25 181.25 648.5 181.25 680.25ZM213.75 496.25ZM214.5 746.25Z" glyph-name="dieresiscomb.i" horiz-adv-x="427.5" /><glyph d="M492.5 241.5 498.75 286 490.75 294C393.75 294 169.25 292 76.25 289V241.5ZM334 457.5C334 486.5 317.5 507 291.5 507C262 507 240.75 480 240.75 450C240.75 422.5 257.75 400.5 284.5 400.5C316.5 400.5 334 428 334 457.5ZM334.25 85.5C334.25 114.5 317.75 135 291.75 135C262.25 135 241 108 241 78C241 50.5 258 28.5 284.75 28.5C316.75 28.5 334.25 56 334.25 85.5Z" glyph-name="divide" horiz-adv-x="575" unicode="&#247;" /><glyph d="M492.5 317.25 498.75 361.75 490.75 369.75C393.75 369.75 169.25 367.75 76.25 364.75V317.25ZM334 533.25C334 562.25 317.5 582.75 291.5 582.75C262 582.75 240.75 555.75 240.75 525.75C240.75 498.25 257.75 476.25 284.5 476.25C316.5 476.25 334 503.75 334 533.25ZM334.25 161.25C334.25 190.25 317.75 210.75 291.75 210.75C262.25 210.75 241 183.75 241 153.75C241 126.25 258 104.25 284.75 104.25C316.75 104.25 334.25 131.75 334.25 161.25Z" glyph-name="divide.lf" horiz-adv-x="575" /><glyph d="M492.5 241.5 498.75 286 490.75 294C393.75 294 169.25 292 76.25 289V241.5ZM334 457.5C334 486.5 317.5 507 291.5 507C262 507 240.75 480 240.75 450C240.75 422.5 257.75 400.5 284.5 400.5C316.5 400.5 334 428 334 457.5ZM334.25 85.5C334.25 114.5 317.75 135 291.75 135C262.25 135 241 108 241 78C241 50.5 258 28.5 284.75 28.5C316.75 28.5 334.25 56 334.25 85.5Z" glyph-name="divide.osf" horiz-adv-x="575" /><glyph d="M492.5 241.5 498.75 286 490.75 294C393.75 294 169.25 292 76.25 289V241.5ZM334 457.5C334 486.5 317.5 507 291.5 507C262 507 240.75 480 240.75 450C240.75 422.5 257.75 400.5 284.5 400.5C316.5 400.5 334 428 334 457.5ZM334.25 85.5C334.25 114.5 317.75 135 291.75 135C262.25 135 241 108 241 78C241 50.5 258 28.5 284.75 28.5C316.75 28.5 334.25 56 334.25 85.5Z" glyph-name="divide.sc" horiz-adv-x="575" /><glyph d="M258.5 -137V9H214.75V-132.75L222 -140ZM231 677V528.75H274.75V672.75L267.5 680ZM222.5 -9.5C341.75 -9.5 417.75 36.25 417.75 130.5C417.75 291 151.75 289 151 422.5C151 477.75 196 510.75 258.25 510.75C298.5 510.75 325 497 341 478.25C353 462 363.75 432.5 372.5 379L389.75 378.25C399.25 408.25 404.25 453 404.25 479C404.25 492.25 403.75 509.5 396.5 517.25C383.25 530.75 330.75 546.25 265 546.25C161.5 546.25 75.75 495.25 75.75 400.25C75.75 242.5 341.75 251.25 341.75 108.25C341.75 56.25 300.75 25.25 231.25 25.25C192.25 25.25 157.25 31.75 137 54.75C118.75 75.75 109.5 105.25 99.25 156.75L82.5 158.5C73.75 134 67.5 97.5 67.5 69C67.5 44.75 69.75 28 78 17.75C90 2.5 154.75 -9.5 222.5 -9.5ZM248.75 536.25ZM244 0Z" glyph-name="dollar" horiz-adv-x="485.25" unicode="$" /><glyph d="M242.75 827V678.75H286.5V822.75L279.25 830ZM270.25 -137V9H226.5V-132.75L233.75 -140ZM238 -10C368.25 -10 448.25 56.75 448.25 164C448.25 367.75 146.75 362 146.75 540.5C146.75 611.25 191.5 657.5 264 657.5C304.25 657.5 339.75 645 358.75 624C374.25 606 386.5 573 396.5 504.25L416 503.75C426 538.5 430.5 582.75 430.5 612C430.5 631 430 651.25 422.5 659.25C407.25 675.75 348.5 696.25 272 696.25C157.75 696.25 68 635 68 523.75C68 320.25 369.5 325.5 369.5 144.75C369.5 81.25 327.25 28.75 246.5 28.75C203.5 28.75 160.75 34.75 136.75 59.75C116 81.5 106.25 112 94 181.75L75.25 182.5C65 155.25 60 113 60 85.75C60 56.25 62.25 39.25 71.5 26.25C84.25 8.25 159.75 -10 238 -10Z" glyph-name="dollar.lf" horiz-adv-x="508.25" /><glyph d="M258.5 -137V9H214.75V-132.75L222 -140ZM231 677V528.75H274.75V672.75L267.5 680ZM222.5 -9.5C341.75 -9.5 417.75 36.25 417.75 130.5C417.75 291 151.75 289 151 422.5C151 477.75 196 510.75 258.25 510.75C298.5 510.75 325 497 341 478.25C353 462 363.75 432.5 372.5 379L389.75 378.25C399.25 408.25 404.25 453 404.25 479C404.25 492.25 403.75 509.5 396.5 517.25C383.25 530.75 330.75 546.25 265 546.25C161.5 546.25 75.75 495.25 75.75 400.25C75.75 242.5 341.75 251.25 341.75 108.25C341.75 56.25 300.75 25.25 231.25 25.25C192.25 25.25 157.25 31.75 137 54.75C118.75 75.75 109.5 105.25 99.25 156.75L82.5 158.5C73.75 134 67.5 97.5 67.5 69C67.5 44.75 69.75 28 78 17.75C90 2.5 154.75 -9.5 222.5 -9.5ZM248.75 536.25ZM244 0Z" glyph-name="dollar.osf" horiz-adv-x="485.25" /><glyph d="M258.5 -137V9H214.75V-132.75L222 -140ZM231 677V528.75H274.75V672.75L267.5 680ZM222.5 -9.5C341.75 -9.5 417.75 36.25 417.75 130.5C417.75 291 151.75 289 151 422.5C151 477.75 196 510.75 258.25 510.75C298.5 510.75 325 497 341 478.25C353 462 363.75 432.5 372.5 379L389.75 378.25C399.25 408.25 404.25 453 404.25 479C404.25 492.25 403.75 509.5 396.5 517.25C383.25 530.75 330.75 546.25 265 546.25C161.5 546.25 75.75 495.25 75.75 400.25C75.75 242.5 341.75 251.25 341.75 108.25C341.75 56.25 300.75 25.25 231.25 25.25C192.25 25.25 157.25 31.75 137 54.75C118.75 75.75 109.5 105.25 99.25 156.75L82.5 158.5C73.75 134 67.5 97.5 67.5 69C67.5 44.75 69.75 28 78 17.75C90 2.5 154.75 -9.5 222.5 -9.5ZM248.75 536.25ZM244 0Z" glyph-name="dollar.sc" horiz-adv-x="485.25" /><glyph d="M323.75 678.75V822.75L316.5 830L280 827V678.75ZM271 -140 307.5 -137V9H263.75V-132.75ZM267.75 -10C398 -10 485.5 56.75 485.5 164C485.5 367.75 176.5 362 176.5 540.5C176.5 611.25 228.75 657.5 301.25 657.5C341.5 657.5 377 645 396 624C411.5 606 423.75 573 433.75 504.25L453.25 503.75C463.25 538.5 467.75 582.75 467.75 612C467.75 631 467.25 651.25 459.75 659.25C444.5 675.75 385.75 696.25 309.25 696.25C195 696.25 97.75 635 97.75 523.75C97.75 320.25 406.75 325.5 406.75 144.75C406.75 81.25 357 28.75 276.25 28.75C233.25 28.75 190.5 34.75 166.5 59.75C145.75 81.5 136 112 123.75 181.75L105 182.5C94.75 155.25 89.75 113 89.75 85.75C89.75 56.25 92 39.25 101.25 26.25C114 8.25 189.5 -10 267.75 -10Z" glyph-name="dollar.tf" horiz-adv-x="575" /><glyph d="M258 -137V9H214.25V-132.75L221.5 -140ZM230.5 677V528.75H274.25V672.75L267 680ZM222 -9.5C341.25 -9.5 417.25 36.25 417.25 130.5C417.25 291 151.25 289 150.5 422.5C150.5 477.75 195.5 510.75 257.75 510.75C298 510.75 324.5 497 340.5 478.25C352.5 462 363.25 432.5 372 379L389.25 378.25C398.75 408.25 403.75 453 403.75 479C403.75 492.25 403.25 509.5 396 517.25C382.75 530.75 330.25 546.25 264.5 546.25C161 546.25 75.25 495.25 75.25 400.25C75.25 242.5 341.25 251.25 341.25 108.25C341.25 56.25 300.25 25.25 230.75 25.25C191.75 25.25 156.75 31.75 136.5 54.75C118.25 75.75 109 105.25 98.75 156.75L82 158.5C73.25 134 67 97.5 67 69C67 44.75 69.25 28 77.5 17.75C89.5 2.5 154.25 -9.5 222 -9.5ZM248.25 536.25ZM243.5 0Z" glyph-name="dollar.tf.sc" horiz-adv-x="484.25" /><glyph d="M306 -137V9H262.25V-132.75L269.5 -140ZM278.5 677V528.75H322.25V672.75L315 680ZM271.5 -9.5C390.75 -9.5 466.75 36.25 466.75 130.5C466.75 291 200.75 289 200 422.5C200 477.75 245 510.75 307.25 510.75C347.5 510.75 374 497 390 478.25C402 462 412.75 432.5 421.5 379L438.75 378.25C448.25 408.25 453.25 453 453.25 479C453.25 492.25 452.75 509.5 445.5 517.25C432.25 530.75 379.75 546.25 314 546.25C210.5 546.25 124.75 495.25 124.75 400.25C124.75 242.5 390.75 251.25 390.75 108.25C390.75 56.25 349.75 25.25 280.25 25.25C241.25 25.25 206.25 31.75 186 54.75C167.75 75.75 158.5 105.25 148.25 156.75L131.5 158.5C122.75 134 116.5 97.5 116.5 69C116.5 44.75 118.75 28 127 17.75C139 2.5 203.75 -9.5 271.5 -9.5ZM297.75 536.25ZM293 0Z" glyph-name="dollar.tosf" horiz-adv-x="575" /><glyph d="M195 668C195 699.25 176.5 721 148.25 721C115.75 721 91.5 691.75 91.5 659.5C91.5 629.5 110.75 605.75 140.25 605.75C175 605.75 195 635.25 195 668Z" glyph-name="dotaccent" horiz-adv-x="286.5" unicode="&#729;" /><glyph d="M203 843.75C203 873 183.25 892.75 152.25 892.75C117.75 892.75 91.5 865.5 91.5 835.25C91.5 807.25 112 785.5 144.25 785.5C181.75 785.5 203 813 203 843.75Z" glyph-name="dotaccent.case" horiz-adv-x="294.5" /><glyph d="M195 668.25C195 699.5 176.5 721.25 148.25 721.25C115.75 721.25 91.5 692 91.5 659.75C91.5 629.75 110.75 606 140.25 606C175 606 195 635.5 195 668.25ZM143 496.25ZM143 746.25Z" glyph-name="dotaccentcomb" horiz-adv-x="286.5" unicode="&#775;" /><glyph d="M203 843.75C203 873 183.25 892.75 152.25 892.75C117.75 892.75 91.5 865.5 91.5 835.25C91.5 807.25 112 785.5 144.25 785.5C181.75 785.5 203 813 203 843.75ZM147 686.25Z" glyph-name="dotaccentcomb.case" horiz-adv-x="294.5" /><glyph d="M195 -161.75C195 -130.5 176.5 -108.75 148.25 -108.75C115.75 -108.75 91.5 -138 91.5 -170.25C91.5 -200.25 110.75 -224 140.25 -224C175 -224 195 -194.5 195 -161.75ZM143.25 0Z" glyph-name="dotbelowcomb" horiz-adv-x="286.5" unicode="&#803;" /><glyph d="M188.5 382H113.5V114.25H188.5ZM188.5 382V496.75L179 506.25C137.5 501.25 79.75 487.75 42.25 473L44.25 459L113.5 446V382ZM188.5 40V114.25H113.5V69.25C113.5 46.25 107 38.5 84.5 30.75L41 17L43 0H259L261 17ZM140.5 496.25ZM151 0Z" glyph-name="dotlessi" horiz-adv-x="294" unicode="&#305;" /><glyph d="M127 422V114.25H202V422ZM202 41.5V114.25H127V68.5C127 48 120.5 38.25 100.25 32L54.5 19L56.5 0H272.5L274.5 19ZM127 494.75V422H202V467.75C202 488.25 208.5 498 228.75 504.25L274.5 517.25L272.5 536.25H56.5L54.5 517.25ZM164.5 535ZM272.5 0ZM164.5 0Z" glyph-name="dotlessi.sc" horiz-adv-x="329" /></font>
</defs>
</svg>
