<?xml version="1.0" standalone="no"?><!DOCTYPE svg PUBLIC "-//W3C//DTD SVG 1.1//EN" "http://www.w3.org/Graphics/SVG/1.1/DTD/svg11.dtd" ><svg version="1.1" xmlns="http://www.w3.org/2000/svg"><defs><font horiz-adv-x="0" id="font"><font-face ascent="745" bbox="-96 -321 3477 1125" cap-height="685" descent="-245" font-family="Indivisa Text Serif" font-stretch="normal" font-style="normal" font-weight="300" units-per-em="1000" x-height="495" /><missing-glyph d="M100 0H580V745H100ZM140 40V705H540V40ZM513 724 122 23H167L558 724ZM122 724 513 23H558L167 724Z" horiz-adv-x="680" /><glyph d="M344 685 126 69C119 48 110 38 88 33L32 20L34 0H237L239 20L139 43L149 26L358 632H343L549 39L463 20L465 0H677L679 20L621 33C601 37 593 46 585 69L367 685ZM218 285V251L485 255V285ZM677 0ZM351 0ZM353 685Z" glyph-name="A" horiz-adv-x="711" unicode="A" /><glyph d="M248 359V325L475 329V359ZM508 0H815C819 24 821 60 821 90C821 117 820 143 818 165H803L786 100L769 35C742 32 697 30 656 30H508ZM508 685V655H646C687 655 732 652 759 650L776 585L793 520H808C810 545 811 568 811 595C811 625 809 661 805 685ZM508 360V330L728 326L730 365ZM34 0H237L239 20L139 43L149 26L369 664L353 655H466V120H508V685H247L245 665L330 646L126 69C119 48 110 38 88 33L32 20ZM508 0V120H466V63C466 44 461 38 439 33L381 20L383 0ZM532 685Z" glyph-name="AE" horiz-adv-x="885" unicode="&#198;" /><glyph d="M248 359V325L475 329V359ZM508 0H815C819 24 821 60 821 90C821 117 820 143 818 165H803L786 100L769 35C742 32 697 30 656 30H508ZM508 685V655H646C687 655 732 652 759 650L776 585L793 520H808C810 545 811 568 811 595C811 625 809 661 805 685ZM508 360V330L728 326L730 365ZM34 0H237L239 20L139 43L149 26L369 664L353 655H466V120H508V685H247L245 665L330 646L126 69C119 48 110 38 88 33L32 20ZM508 0V120H466V63C466 44 461 38 439 33L381 20L383 0ZM532 685ZM622 896C579 865 513 822 414 794L421 778C487 785 650 829 650 871C650 884 643 892 629 897ZM532 859ZM532 685Z" glyph-name="AEacute" horiz-adv-x="885" unicode="&#508;" /><glyph d="M344 685 126 69C119 48 110 38 88 33L32 20L34 0H237L239 20L139 43L149 26L358 632H343L549 39L463 20L465 0H677L679 20L621 33C601 37 593 46 585 69L367 685ZM218 285V251L485 255V285ZM677 0ZM351 0ZM353 685ZM443 896C400 865 334 822 235 794L242 778C308 785 471 829 471 871C471 884 464 892 450 897ZM353 859ZM353 685Z" glyph-name="Aacute" horiz-adv-x="711" unicode="&#193;" /><glyph d="M344 685 126 69C119 48 110 38 88 33L32 20L34 0H237L239 20L139 43L149 26L358 632H343L549 39L463 20L465 0H677L679 20L621 33C601 37 593 46 585 69L367 685ZM218 285V251L485 255V285ZM677 0ZM351 0ZM353 685ZM454 888C438 851 401 828 355 828C304 828 266 851 251 890L234 887C245 823 290 785 350 785C411 785 457 823 472 887L458 890ZM353 685Z" glyph-name="Abreve" horiz-adv-x="711" unicode="&#258;" /><glyph d="M344 685 126 69C119 48 110 38 88 33L32 20L34 0H237L239 20L139 43L149 26L358 632H343L549 39L463 20L465 0H677L679 20L621 33C601 37 593 46 585 69L367 685ZM218 285V251L485 255V285ZM677 0ZM351 0ZM353 685ZM342 801 368 803C317 834 267 874 228 905L214 895C257 847 303 800 333 771H370L376 775C393 798 450 856 491 893L479 905C435 876 366 823 342 801ZM353 685Z" glyph-name="Acaron" horiz-adv-x="711" unicode="&#461;" /><glyph d="M344 685 126 69C119 48 110 38 88 33L32 20L34 0H237L239 20L139 43L149 26L358 632H343L549 39L463 20L465 0H677L679 20L621 33C601 37 593 46 585 69L367 685ZM218 285V251L485 255V285ZM677 0ZM351 0ZM353 685ZM363 875 337 873C388 842 438 802 477 771L491 781C448 829 402 876 372 905H335L329 901C312 878 255 820 214 783L226 771C270 800 339 853 363 875ZM353 685Z" glyph-name="Acircumflex" horiz-adv-x="711" unicode="&#194;" /><glyph d="M344 685 126 69C119 48 110 38 88 33L32 20L34 0H237L239 20L139 43L149 26L358 632H343L549 39L463 20L465 0H677L679 20L621 33C601 37 593 46 585 69L367 685ZM218 285V251L485 255V285ZM677 0ZM351 0ZM353 685ZM486 839C486 861 473 877 450 877C426 877 410 855 410 832C410 810 424 792 447 792C474 792 486 816 486 839ZM296 839C296 861 283 877 260 877C236 877 220 855 220 832C220 810 234 792 257 792C284 792 296 816 296 839ZM353 905ZM353 685Z" glyph-name="Adieresis" horiz-adv-x="711" unicode="&#196;" /><glyph d="M344 685 126 69C119 48 110 38 88 33L32 20L34 0H237L239 20L139 43L149 26L358 632H343L549 39L463 20L465 0H677L679 20L621 33C601 37 593 46 585 69L367 685ZM218 285V251L485 255V285ZM677 0ZM351 0ZM353 685ZM387 -165C387 -140 375 -122 353 -122C330 -122 315 -145 315 -169C315 -193 328 -212 350 -212C376 -212 387 -188 387 -165ZM351 0Z" glyph-name="Adotbelow" horiz-adv-x="711" unicode="&#7840;" /><glyph d="M344 685 126 69C119 48 110 38 88 33L32 20L34 0H237L239 20L139 43L149 26L358 632H343L549 39L463 20L465 0H677L679 20L621 33C601 37 593 46 585 69L367 685ZM218 285V251L485 255V285ZM677 0ZM351 0ZM353 685ZM471 795C372 823 306 866 263 897L256 898C242 893 235 885 235 872C235 830 398 786 464 779ZM353 685Z" glyph-name="Agrave" horiz-adv-x="711" unicode="&#192;" /><glyph d="M344 685 126 69C119 48 110 38 88 33L32 20L34 0H237L239 20L139 43L149 26L358 632H343L549 39L463 20L465 0H677L679 20L621 33C601 37 593 46 585 69L367 685ZM218 285V251L485 255V285ZM677 0ZM351 0ZM353 685ZM226 817H480V856H226ZM353 685Z" glyph-name="Amacron" horiz-adv-x="711" unicode="&#256;" /><glyph d="M344 685 126 69C119 48 110 38 88 33L32 20L34 0H237L239 20L139 43L149 26L358 632H343L549 39L463 20L465 0H677L679 20L621 33C601 37 593 46 585 69L367 685ZM218 285V251L485 255V285ZM677 0ZM351 0ZM353 685ZM681 -181 677 -172C656 -177 643 -179 625 -179C588 -179 566 -160 566 -127C566 -85 602 -43 677 0L667 17C571 -30 524 -83 524 -138C524 -185 552 -212 599 -212C628 -212 660 -200 681 -181ZM677 0Z" glyph-name="Aogonek" horiz-adv-x="713" unicode="&#260;" /><glyph d="M344 685 126 69C119 48 110 38 88 33L32 20L34 0H237L239 20L139 43L149 26L358 632H343L549 39L463 20L465 0H677L679 20L621 33C601 37 593 46 585 69L367 685ZM218 285V251L485 255V285ZM677 0ZM351 0ZM353 685ZM349 766C394 766 428 797 430 840C432 880 400 909 356 909C310 909 276 879 276 835C276 794 306 766 349 766ZM353 886C378 886 396 867 396 841C396 811 378 789 352 789C327 789 309 808 309 835C309 864 327 886 353 886ZM352 905ZM353 685Z" glyph-name="Aring" horiz-adv-x="711" unicode="&#197;" /><glyph d="M344 685 126 69C119 48 110 38 88 33L32 20L34 0H237L239 20L139 43L149 26L358 632H343L549 39L463 20L465 0H677L679 20L621 33C601 37 593 46 585 69L367 685ZM218 285V251L485 255V285ZM677 0ZM351 0ZM353 685ZM349 766C394 766 428 797 430 840C432 880 400 909 356 909C310 909 276 879 276 835C276 794 306 766 349 766ZM353 886C378 886 396 867 396 841C396 811 378 789 352 789C327 789 309 808 309 835C309 864 327 886 353 886ZM352 905ZM353 685ZM442 1116C399 1085 333 1042 234 1014L241 998C307 1005 470 1049 470 1091C470 1104 463 1112 449 1117ZM352 1079ZM352 905Z" glyph-name="Aringacute" horiz-adv-x="711" unicode="&#506;" /><glyph d="M344 685 126 69C119 48 110 38 88 33L32 20L34 0H237L239 20L139 43L149 26L358 632H343L549 39L463 20L465 0H677L679 20L621 33C601 37 593 46 585 69L367 685ZM218 285V251L485 255V285ZM677 0ZM351 0ZM353 685ZM236 850C270 848 408 780 459 780C501 780 520 817 532 882C532 882 532 882 532 882L518 888C497 852 483 834 470 814C433 815 301 884 247 884C206 884 184 847 172 781C172 781 172 781 172 781L186 776C206 811 225 838 236 850ZM351 927ZM353 685Z" glyph-name="Atilde" horiz-adv-x="711" unicode="&#195;" /><glyph d="M146 565V120H188V565ZM188 0V30H296C407 30 480 85 480 181C480 277 400 333 276 333H188V363H281C381 363 436 427 436 514C436 604 375 655 271 655H188V685H279C399 685 476 622 476 515C476 422 420 373 367 352C462 330 521 270 521 182C521 62 429 0 296 0ZM188 685H63L61 665L119 652C141 647 146 641 146 622V565H188ZM188 0V120H146V63C146 44 141 38 119 33L61 20L63 0Z" glyph-name="B" horiz-adv-x="577" unicode="B" /><glyph d="M399 -10C464 -10 518 4 551 20C554 38 554 57 554 80C554 103 552 136 548 165H533C522 123 511 80 500 38C475 31 453 25 396 25C220 25 109 147 109 343C109 540 232 660 390 660C435 660 460 655 487 647C498 605 509 562 520 520H535C540 554 541 592 541 619C541 637 540 652 538 665C506 681 457 695 389 695C207 695 64 561 64 343C64 124 183 -10 399 -10ZM352 685ZM370 0Z" glyph-name="C" horiz-adv-x="626" unicode="C" /><glyph d="M399 -10C464 -10 518 4 551 20C554 38 554 57 554 80C554 103 552 136 548 165H533C522 123 511 80 500 38C475 31 453 25 396 25C220 25 109 147 109 343C109 540 232 660 390 660C435 660 460 655 487 647C498 605 509 562 520 520H535C540 554 541 592 541 619C541 637 540 652 538 665C506 681 457 695 389 695C207 695 64 561 64 343C64 124 183 -10 399 -10ZM352 685ZM370 0ZM442 896C399 865 333 822 234 794L241 778C307 785 470 829 470 871C470 884 463 892 449 897ZM352 859ZM352 685Z" glyph-name="Cacute" horiz-adv-x="626" unicode="&#262;" /><glyph d="M399 -10C464 -10 518 4 551 20C554 38 554 57 554 80C554 103 552 136 548 165H533C522 123 511 80 500 38C475 31 453 25 396 25C220 25 109 147 109 343C109 540 232 660 390 660C435 660 460 655 487 647C498 605 509 562 520 520H535C540 554 541 592 541 619C541 637 540 652 538 665C506 681 457 695 389 695C207 695 64 561 64 343C64 124 183 -10 399 -10ZM352 685ZM370 0ZM341 801 367 803C316 834 266 874 227 905L213 895C256 847 302 800 332 771H369L375 775C392 798 449 856 490 893L478 905C434 876 365 823 341 801ZM352 685Z" glyph-name="Ccaron" horiz-adv-x="626" unicode="&#268;" /><glyph d="M399 -10C464 -10 518 4 551 20C554 38 554 57 554 80C554 103 552 136 548 165H533C522 123 511 80 500 38C475 31 453 25 396 25C220 25 109 147 109 343C109 540 232 660 390 660C435 660 460 655 487 647C498 605 509 562 520 520H535C540 554 541 592 541 619C541 637 540 652 538 665C506 681 457 695 389 695C207 695 64 561 64 343C64 124 183 -10 399 -10ZM352 685ZM370 0ZM344 -91C390 -102 405 -119 405 -138C405 -166 374 -184 322 -197L326 -212C385 -205 448 -180 448 -133C448 -103 422 -77 374 -64L372 -84L387 0H356L341 -86ZM370 0Z" glyph-name="Ccedilla" horiz-adv-x="626" unicode="&#199;" /><glyph d="M399 -10C464 -10 518 4 551 20C554 38 554 57 554 80C554 103 552 136 548 165H533C522 123 511 80 500 38C475 31 453 25 396 25C220 25 109 147 109 343C109 540 232 660 390 660C435 660 460 655 487 647C498 605 509 562 520 520H535C540 554 541 592 541 619C541 637 540 652 538 665C506 681 457 695 389 695C207 695 64 561 64 343C64 124 183 -10 399 -10ZM352 685ZM370 0ZM362 875 336 873C387 842 437 802 476 771L490 781C447 829 401 876 371 905H334L328 901C311 878 254 820 213 783L225 771C269 800 338 853 362 875ZM352 685Z" glyph-name="Ccircumflex" horiz-adv-x="626" unicode="&#264;" /><glyph d="M399 -10C464 -10 518 4 551 20C554 38 554 57 554 80C554 103 552 136 548 165H533C522 123 511 80 500 38C475 31 453 25 396 25C220 25 109 147 109 343C109 540 232 660 390 660C435 660 460 655 487 647C498 605 509 562 520 520H535C540 554 541 592 541 619C541 637 540 652 538 665C506 681 457 695 389 695C207 695 64 561 64 343C64 124 183 -10 399 -10ZM352 685ZM370 0ZM392 835C392 858 379 874 354 874C329 874 312 853 312 831C312 809 326 792 351 792C380 792 392 814 392 835ZM352 685Z" glyph-name="Cdotaccent" horiz-adv-x="626" unicode="&#266;" /><glyph d="M146 565V120H188V565ZM188 0H270C479 0 601 134 601 342C601 550 479 685 270 685H188V653H266C455 653 556 530 556 342C556 154 455 32 266 32H188ZM188 685H63L61 665L119 652C141 647 146 641 146 622V565H188ZM188 0V120H146V63C146 44 141 38 119 33L61 20L63 0ZM229 338ZM350 0ZM303 685Z" glyph-name="D" horiz-adv-x="665" unicode="D" /><glyph d="M146 565V120H188V565ZM188 0H270C479 0 601 134 601 342C601 550 479 685 270 685H188V653H266C455 653 556 530 556 342C556 154 455 32 266 32H188ZM188 685H63L61 665L119 652C141 647 146 641 146 622V565H188ZM188 0V120H146V63C146 44 141 38 119 33L61 20L63 0ZM229 338ZM350 0ZM303 685ZM292 801 318 803C267 834 217 874 178 905L164 895C207 847 253 800 283 771H320L326 775C343 798 400 856 441 893L429 905C385 876 316 823 292 801ZM303 685Z" glyph-name="Dcaron" horiz-adv-x="665" unicode="&#270;" /><glyph d="M163 565V120H205V565ZM205 0H287C496 0 618 134 618 342C618 550 496 685 287 685H205V653H283C472 653 573 530 573 342C573 154 472 32 283 32H205ZM205 685H80L78 665L136 652C158 647 163 641 163 622V565H205ZM205 0V120H163V63C163 44 158 38 136 33L78 20L80 0ZM246 338ZM367 0ZM320 685ZM398.46 337V367H61V337ZM229.26 338Z" glyph-name="Dcroat" horiz-adv-x="682" unicode="&#272;" /><glyph d="M146 565V120H188V565ZM188 0H270C479 0 601 134 601 342C601 550 479 685 270 685H188V653H266C455 653 556 530 556 342C556 154 455 32 266 32H188ZM188 685H63L61 665L119 652C141 647 146 641 146 622V565H188ZM188 0V120H146V63C146 44 141 38 119 33L61 20L63 0ZM229 338ZM350 0ZM303 685ZM386 -165C386 -140 374 -122 352 -122C329 -122 314 -145 314 -169C314 -193 327 -212 349 -212C375 -212 386 -188 386 -165ZM350 0Z" glyph-name="Ddotbelow" horiz-adv-x="665" unicode="&#7692;" /><glyph d="M515 35H76L295 610ZM288 685 32 16 34 0H565L567 16L311 685Z" glyph-name="Delta" horiz-adv-x="599" unicode="&#916;" /><glyph d="M146 565V120H188V565ZM188 0H495C499 24 501 60 501 90C501 117 500 143 498 165H483L466 100L449 35C422 32 377 30 336 30H188ZM188 685V655H326C367 655 412 652 439 650L456 585L473 520H488C490 545 491 568 491 595C491 625 489 661 485 685ZM188 360V330L408 326L410 365ZM188 685H63L61 665L119 652C141 647 146 641 146 622V565H188ZM188 0V120H146V63C146 44 141 38 119 33L61 20L63 0ZM495 0ZM312 0ZM299 684Z" glyph-name="E" horiz-adv-x="565" unicode="E" /><glyph d="M146 565.565V120.12H188V565.565ZM188 0H495C499 24.024 501 60.06 501 90.09C501 117.117 500 143.143 498 165.165H483L466 100.1L449 35.035C422 32.032 377 30.03 336 30.03H188ZM188 685.685V655.655H326C367 655.655 412 652.652 439 650.65L456 585.585L473 520.52H488C490 545.545 491 568.568 491 595.595C491 625.625 489 661.661 485 685.685ZM188 360.36V330.33L408 326.326L410 365.365ZM188 685.685H63L61 665.665L119 652.652C141 647.647 146 641.641 146 622.622V565.565H188ZM188 0V120.12H146V63.063C146 44.044 141 38.038 119 33.033L61 20.02L63 0ZM495 0ZM312 0ZM299 684.684ZM389 895C346 864 280 821 181 793L188 777C254 784 417 828 417 870C417 883 410 891 396 896ZM299 858ZM299 684Z" glyph-name="Eacute" horiz-adv-x="565" unicode="&#201;" /><glyph d="M146 565V120H188V565ZM188 0H495C499 24 501 60 501 90C501 117 500 143 498 165H483L466 100L449 35C422 32 377 30 336 30H188ZM188 685V655H326C367 655 412 652 439 650L456 585L473 520H488C490 545 491 568 491 595C491 625 489 661 485 685ZM188 360V330L408 326L410 365ZM188 685H63L61 665L119 652C141 647 146 641 146 622V565H188ZM188 0V120H146V63C146 44 141 38 119 33L61 20L63 0ZM495 0ZM312 0ZM299 684ZM400 887C384 850 347 827 301 827C250 827 212 850 197 889L180 886C191 822 236 784 296 784C357 784 403 822 418 886L404 889ZM299 684Z" glyph-name="Ebreve" horiz-adv-x="565" unicode="&#276;" /><glyph d="M146 565V120H188V565ZM188 0H495C499 24 501 60 501 90C501 117 500 143 498 165H483L466 100L449 35C422 32 377 30 336 30H188ZM188 685V655H326C367 655 412 652 439 650L456 585L473 520H488C490 545 491 568 491 595C491 625 489 661 485 685ZM188 360V330L408 326L410 365ZM188 685H63L61 665L119 652C141 647 146 641 146 622V565H188ZM188 0V120H146V63C146 44 141 38 119 33L61 20L63 0ZM495 0ZM312 0ZM299 684ZM288 800 314 802C263 833 213 873 174 904L160 894C203 846 249 799 279 770H316L322 774C339 797 396 855 437 892L425 904C381 875 312 822 288 800ZM299 684Z" glyph-name="Ecaron" horiz-adv-x="565" unicode="&#282;" /><glyph d="M146 565V120H188V565ZM188 0H495C499 24 501 60 501 90C501 117 500 143 498 165H483L466 100L449 35C422 32 377 30 336 30H188ZM188 685V655H326C367 655 412 652 439 650L456 585L473 520H488C490 545 491 568 491 595C491 625 489 661 485 685ZM188 360V330L408 326L410 365ZM188 685H63L61 665L119 652C141 647 146 641 146 622V565H188ZM188 0V120H146V63C146 44 141 38 119 33L61 20L63 0ZM495 0ZM312 0ZM299 684ZM309 874 283 872C334 841 384 801 423 770L437 780C394 828 348 875 318 904H281L275 900C258 877 201 819 160 782L172 770C216 799 285 852 309 874ZM299 684Z" glyph-name="Ecircumflex" horiz-adv-x="565" unicode="&#202;" /><glyph d="M146 565V120H188V565ZM188 0H495C499 24 501 60 501 90C501 117 500 143 498 165H483L466 100L449 35C422 32 377 30 336 30H188ZM188 685V655H326C367 655 412 652 439 650L456 585L473 520H488C490 545 491 568 491 595C491 625 489 661 485 685ZM188 360V330L408 326L410 365ZM188 685H63L61 665L119 652C141 647 146 641 146 622V565H188ZM188 0V120H146V63C146 44 141 38 119 33L61 20L63 0ZM495 0ZM312 0ZM299 684ZM432 838C432 860 419 876 396 876C372 876 356 854 356 831C356 809 370 791 393 791C420 791 432 815 432 838ZM242 838C242 860 229 876 206 876C182 876 166 854 166 831C166 809 180 791 203 791C230 791 242 815 242 838ZM299 904ZM299 684Z" glyph-name="Edieresis" horiz-adv-x="565" unicode="&#203;" /><glyph d="M146 565V120H188V565ZM188 0H495C499 24 501 60 501 90C501 117 500 143 498 165H483L466 100L449 35C422 32 377 30 336 30H188ZM188 685V655H326C367 655 412 652 439 650L456 585L473 520H488C490 545 491 568 491 595C491 625 489 661 485 685ZM188 360V330L408 326L410 365ZM188 685H63L61 665L119 652C141 647 146 641 146 622V565H188ZM188 0V120H146V63C146 44 141 38 119 33L61 20L63 0ZM495 0ZM312 0ZM299 684ZM339 834C339 857 326 873 301 873C276 873 259 852 259 830C259 808 273 791 298 791C327 791 339 813 339 834ZM299 684Z" glyph-name="Edotaccent" horiz-adv-x="565" unicode="&#278;" /><glyph d="M146 565V120H188V565ZM188 0H495C499 24 501 60 501 90C501 117 500 143 498 165H483L466 100L449 35C422 32 377 30 336 30H188ZM188 685V655H326C367 655 412 652 439 650L456 585L473 520H488C490 545 491 568 491 595C491 625 489 661 485 685ZM188 360V330L408 326L410 365ZM188 685H63L61 665L119 652C141 647 146 641 146 622V565H188ZM188 0V120H146V63C146 44 141 38 119 33L61 20L63 0ZM495 0ZM312 0ZM299 684ZM348 -165C348 -140 336 -122 314 -122C291 -122 276 -145 276 -169C276 -193 289 -212 311 -212C337 -212 348 -188 348 -165ZM312 0Z" glyph-name="Edotbelow" horiz-adv-x="565" unicode="&#7864;" /><glyph d="M146 565V120H188V565ZM188 0H495C499 24 501 60 501 90C501 117 500 143 498 165H483L466 100L449 35C422 32 377 30 336 30H188ZM188 685V655H326C367 655 412 652 439 650L456 585L473 520H488C490 545 491 568 491 595C491 625 489 661 485 685ZM188 360V330L408 326L410 365ZM188 685H63L61 665L119 652C141 647 146 641 146 622V565H188ZM188 0V120H146V63C146 44 141 38 119 33L61 20L63 0ZM495 0ZM312 0ZM299 684ZM417 794C318 822 252 865 209 896L202 897C188 892 181 884 181 871C181 829 344 785 410 778ZM299 684Z" glyph-name="Egrave" horiz-adv-x="565" unicode="&#200;" /><glyph d="M146 565V120H188V565ZM188 0H495C499 24 501 60 501 90C501 117 500 143 498 165H483L466 100L449 35C422 32 377 30 336 30H188ZM188 685V655H326C367 655 412 652 439 650L456 585L473 520H488C490 545 491 568 491 595C491 625 489 661 485 685ZM188 360V330L408 326L410 365ZM188 685H63L61 665L119 652C141 647 146 641 146 622V565H188ZM188 0V120H146V63C146 44 141 38 119 33L61 20L63 0ZM495 0ZM312 0ZM299 684ZM172 816H426V855H172ZM299 684Z" glyph-name="Emacron" horiz-adv-x="565" unicode="&#274;" /><glyph d="M587 50 181 685H63L61 665L119 652C141 647 146 641 146 622V120H181V636L165 631L571 0H587ZM571 565V104C571 -36 536 -79 480 -155L495 -170C571 -98 606 -52 606 75V565ZM181 39V120H146V63C146 44 141 38 119 33L61 20L63 0H284L286 20ZM571 646V565H606V622C606 641 611 647 633 652L691 665L689 685H488L486 665Z" glyph-name="Eng" horiz-adv-x="736" unicode="&#330;" /><glyph d="M146 565V120H188V565ZM188 0H495C499 24 501 60 501 90C501 117 500 143 498 165H483L466 100L449 35C422 32 377 30 336 30H188ZM188 685V655H326C367 655 412 652 439 650L456 585L473 520H488C490 545 491 568 491 595C491 625 489 661 485 685ZM188 360V330L408 326L410 365ZM188 685H63L61 665L119 652C141 647 146 641 146 622V565H188ZM188 0V120H146V63C146 44 141 38 119 33L61 20L63 0ZM495 0ZM312 0ZM299 684ZM499 -181 495 -172C474 -177 461 -179 443 -179C406 -179 384 -160 384 -127C384 -85 420 -43 495 0L485 17C389 -30 342 -83 342 -138C342 -185 370 -212 417 -212C446 -212 478 -200 499 -181ZM495 0Z" glyph-name="Eogonek" horiz-adv-x="565" unicode="&#280;" /><glyph d="M163 565V120H205V565ZM205 0H287C496 0 618 134 618 342C618 550 496 685 287 685H205V653H283C472 653 573 530 573 342C573 154 472 32 283 32H205ZM205 685H80L78 665L136 652C158 647 163 641 163 622V565H205ZM205 0V120H163V63C163 44 158 38 136 33L78 20L80 0ZM246 338ZM367 0ZM320 685ZM398.46 337V367H61V337ZM229.26 338Z" glyph-name="Eth" horiz-adv-x="682" unicode="&#208;" /><glyph d="M146 565V120H188V565ZM188 0H495C499 24 501 60 501 90C501 117 500 143 498 165H483L466 100L449 35C422 32 377 30 336 30H188ZM188 685V655H326C367 655 412 652 439 650L456 585L473 520H488C490 545 491 568 491 595C491 625 489 661 485 685ZM188 360V330L408 326L410 365ZM188 685H63L61 665L119 652C141 647 146 641 146 622V565H188ZM188 0V120H146V63C146 44 141 38 119 33L61 20L63 0ZM495 0ZM312 0ZM299 684ZM182 849C216 847 354 779 405 779C447 779 466 816 478 881C478 881 478 881 478 881L464 887C443 851 429 833 416 813C379 814 247 883 193 883C152 883 130 846 118 780C118 780 118 780 118 780L132 775C152 810 171 837 182 849ZM297 926ZM299 684Z" glyph-name="Etilde" horiz-adv-x="565" unicode="&#7868;" /><glyph d="M146 565V120H188V565ZM188 345V315L408 311L410 350ZM188 685V655H326C367 655 412 652 439 650L456 585L473 520H488C490 545 491 568 491 595C491 625 489 661 485 685ZM188 685H63L61 665L119 652C141 647 146 641 146 622V565H188ZM188 39V120H146V63C146 44 141 38 119 33L61 20L63 0H291L293 20Z" glyph-name="F" horiz-adv-x="531" unicode="F" /><glyph d="M389 -10C457 -10 514 3 549 20V200H507V26L522 45C470 29 441 25 386 25C216 25 109 151 109 343C109 535 232 660 390 660C440 660 467 656 497 647L530 520H545C549 554 551 592 551 619C551 637 550 652 548 665C514 682 462 695 389 695C207 695 64 556 64 343C64 130 179 -10 389 -10ZM507 281V200H549V257C549 276 554 282 576 287L634 300L632 320H424L422 300ZM352 685ZM370 0Z" glyph-name="G" horiz-adv-x="683" unicode="G" /><glyph d="M389 -10C457 -10 514 3 549 20V200H507V26L522 45C470 29 441 25 386 25C216 25 109 151 109 343C109 535 232 660 390 660C440 660 467 656 497 647L530 520H545C549 554 551 592 551 619C551 637 550 652 548 665C514 682 462 695 389 695C207 695 64 556 64 343C64 130 179 -10 389 -10ZM507 281V200H549V257C549 276 554 282 576 287L634 300L632 320H424L422 300ZM352 685ZM370 0ZM442 896C399 865 333 822 234 794L241 778C307 785 470 829 470 871C470 884 463 892 449 897ZM352 859ZM352 685Z" glyph-name="Gacute" horiz-adv-x="683" unicode="&#500;" /><glyph d="M389 -10C457 -10 514 3 549 20V200H507V26L522 45C470 29 441 25 386 25C216 25 109 151 109 343C109 535 232 660 390 660C440 660 467 656 497 647L530 520H545C549 554 551 592 551 619C551 637 550 652 548 665C514 682 462 695 389 695C207 695 64 556 64 343C64 130 179 -10 389 -10ZM507 281V200H549V257C549 276 554 282 576 287L634 300L632 320H424L422 300ZM352 685ZM370 0ZM453 888C437 851 400 828 354 828C303 828 265 851 250 890L233 887C244 823 289 785 349 785C410 785 456 823 471 887L457 890ZM352 685Z" glyph-name="Gbreve" horiz-adv-x="683" unicode="&#286;" /><glyph d="M389 -10C457 -10 514 3 549 20V200H507V26L522 45C470 29 441 25 386 25C216 25 109 151 109 343C109 535 232 660 390 660C440 660 467 656 497 647L530 520H545C549 554 551 592 551 619C551 637 550 652 548 665C514 682 462 695 389 695C207 695 64 556 64 343C64 130 179 -10 389 -10ZM507 281V200H549V257C549 276 554 282 576 287L634 300L632 320H424L422 300ZM352 685ZM370 0ZM341 801 367 803C316 834 266 874 227 905L213 895C256 847 302 800 332 771H369L375 775C392 798 449 856 490 893L478 905C434 876 365 823 341 801ZM352 685Z" glyph-name="Gcaron" horiz-adv-x="683" unicode="&#486;" /><glyph d="M389 -10C457 -10 514 3 549 20V200H507V26L522 45C470 29 441 25 386 25C216 25 109 151 109 343C109 535 232 660 390 660C440 660 467 656 497 647L530 520H545C549 554 551 592 551 619C551 637 550 652 548 665C514 682 462 695 389 695C207 695 64 556 64 343C64 130 179 -10 389 -10ZM507 281V200H549V257C549 276 554 282 576 287L634 300L632 320H424L422 300ZM352 685ZM370 0ZM362 875 336 873C387 842 437 802 476 771L490 781C447 829 401 876 371 905H334L328 901C311 878 254 820 213 783L225 771C269 800 338 853 362 875ZM352 685Z" glyph-name="Gcircumflex" horiz-adv-x="683" unicode="&#284;" /><glyph d="M389 -10C457 -10 514 3 549 20V200H507V26L522 45C470 29 441 25 386 25C216 25 109 151 109 343C109 535 232 660 390 660C440 660 467 656 497 647L530 520H545C549 554 551 592 551 619C551 637 550 652 548 665C514 682 462 695 389 695C207 695 64 556 64 343C64 130 179 -10 389 -10ZM507 281V200H549V257C549 276 554 282 576 287L634 300L632 320H424L422 300ZM352 685ZM370 0ZM409 -165C409 -138 394 -122 370 -122C347 -122 328 -143 328 -167C328 -192 346 -207 371 -207L365 -175C364 -214 346 -279 325 -312L336 -321C374 -288 409 -217 409 -165ZM370 0Z" glyph-name="Gcommaaccent" horiz-adv-x="683" unicode="&#290;" /><glyph d="M389 -10C457 -10 514 3 549 20V200H507V26L522 45C470 29 441 25 386 25C216 25 109 151 109 343C109 535 232 660 390 660C440 660 467 656 497 647L530 520H545C549 554 551 592 551 619C551 637 550 652 548 665C514 682 462 695 389 695C207 695 64 556 64 343C64 130 179 -10 389 -10ZM507 281V200H549V257C549 276 554 282 576 287L634 300L632 320H424L422 300ZM352 685ZM370 0ZM392 835C392 858 379 874 354 874C329 874 312 853 312 831C312 809 326 792 351 792C380 792 392 814 392 835ZM352 685Z" glyph-name="Gdotaccent" horiz-adv-x="683" unicode="&#288;" /><glyph d="M631 150C631 277 489 336 378 396V376L567 611L563 633C518 674 455 695 375 695C245 695 146 606 146 488V63C146 44 141 38 119 33L61 20L63 0H174L188 17V500C188 592 264 662 364 662C431 662 486 641 530 599L533 620L346 387L349 365C465 307 586 258 586 146C586 80 536 25 457 25C415 25 388 34 371 52C349 74 342 112 333 165H318C313 141 311 103 311 83C311 54 312 40 320 27C332 11 388 -10 451 -10C562 -10 631 56 631 150Z" glyph-name="Germandbls" horiz-adv-x="687" unicode="&#7838;" /><glyph d="M146 565V120H188V565ZM554 565V120H596V565ZM188 365V330H554V365ZM188 39V120H146V63C146 44 141 38 119 33L61 20L63 0H271L273 20ZM146 646V565H188V622C188 641 193 647 215 652L273 665L271 685H63L61 665ZM596 39V120H554V63C554 44 549 38 527 33L469 20L471 0H679L681 20ZM554 646V565H596V622C596 641 601 647 623 652L681 665L679 685H471L469 665ZM371 495ZM371 0ZM371 685Z" glyph-name="H" horiz-adv-x="742" unicode="H" /><glyph d="M146 565V120H188V565ZM554 565V120H596V565ZM188 365V330H554V365ZM188 39V120H146V63C146 44 141 38 119 33L61 20L63 0H271L273 20ZM146 646V565H188V622C188 641 193 647 215 652L273 665L271 685H63L61 665ZM596 39V120H554V63C554 44 549 38 527 33L469 20L471 0H679L681 20ZM554 646V565H596V622C596 641 601 647 623 652L681 665L679 685H471L469 665ZM371 495ZM371 0ZM371 685ZM670 496V526H70V496ZM371 495Z" glyph-name="Hbar" horiz-adv-x="742" unicode="&#294;" /><glyph d="M146 565V120H188V565ZM554 565V120H596V565ZM188 365V330H554V365ZM188 39V120H146V63C146 44 141 38 119 33L61 20L63 0H271L273 20ZM146 646V565H188V622C188 641 193 647 215 652L273 665L271 685H63L61 665ZM596 39V120H554V63C554 44 549 38 527 33L469 20L471 0H679L681 20ZM554 646V565H596V622C596 641 601 647 623 652L681 665L679 685H471L469 665ZM371 495ZM371 0ZM371 685ZM381 875 355 873C406 842 456 802 495 771L509 781C466 829 420 876 390 905H353L347 901C330 878 273 820 232 783L244 771C288 800 357 853 381 875ZM371 685Z" glyph-name="Hcircumflex" horiz-adv-x="742" unicode="&#292;" /><glyph d="M146 565V120H188V565ZM554 565V120H596V565ZM188 365V330H554V365ZM188 39V120H146V63C146 44 141 38 119 33L61 20L63 0H271L273 20ZM146 646V565H188V622C188 641 193 647 215 652L273 665L271 685H63L61 665ZM596 39V120H554V63C554 44 549 38 527 33L469 20L471 0H679L681 20ZM554 646V565H596V622C596 641 601 647 623 652L681 665L679 685H471L469 665ZM371 495ZM371 0ZM371 685ZM407 -165C407 -140 395 -122 373 -122C350 -122 335 -145 335 -169C335 -193 348 -212 370 -212C396 -212 407 -188 407 -165ZM371 0Z" glyph-name="Hdotbelow" horiz-adv-x="742" unicode="&#7716;" /><glyph d="M146 565V120H188V565ZM188 39V120H146V63C146 44 141 38 119 33L61 20L63 0H271L273 20ZM146 646V565H188V622C188 641 193 647 215 652L273 665L271 685H63L61 665ZM271 0ZM167 0ZM168 685Z" glyph-name="I" horiz-adv-x="334" unicode="I" /><glyph d="M146 565V120H188V565ZM188 39V120H146V63C146 44 141 38 119 33L61 20L63 0H271L273 20ZM146 646V565H188V622C188 641 193 647 215 652L273 665L271 685H63L61 665ZM271 0ZM167 0ZM168 685ZM399 565V104C399 -35 366 -78 313 -153L330 -170C406 -98 441 -52 441 75V565ZM399 646V565H441V622C441 641 446 647 468 652L526 665L524 685H316L314 665ZM420 685Z" glyph-name="IJ" horiz-adv-x="571" unicode="&#306;" /><glyph d="M146 565V120H188V565ZM188 39V120H146V63C146 44 141 38 119 33L61 20L63 0H271L273 20ZM146 646V565H188V622C188 641 193 647 215 652L273 665L271 685H63L61 665ZM271 0ZM167 0ZM168 685ZM258 896C215 865 149 822 50 794L57 778C123 785 286 829 286 871C286 884 279 892 265 897ZM168 859ZM168 685Z" glyph-name="Iacute" horiz-adv-x="334" unicode="&#205;" /><glyph d="M146 565V120H188V565ZM188 39V120H146V63C146 44 141 38 119 33L61 20L63 0H271L273 20ZM146 646V565H188V622C188 641 193 647 215 652L273 665L271 685H63L61 665ZM271 0ZM167 0ZM168 685ZM269 888C253 851 216 828 170 828C119 828 81 851 66 890L49 887C60 823 105 785 165 785C226 785 272 823 287 887L273 890ZM168 685Z" glyph-name="Ibreve" horiz-adv-x="334" unicode="&#300;" /><glyph d="M146 565V120H188V565ZM188 39V120H146V63C146 44 141 38 119 33L61 20L63 0H271L273 20ZM146 646V565H188V622C188 641 193 647 215 652L273 665L271 685H63L61 665ZM271 0ZM167 0ZM168 685ZM157 801 183 803C132 834 82 874 43 905L29 895C72 847 118 800 148 771H185L191 775C208 798 265 856 306 893L294 905C250 876 181 823 157 801ZM168 685Z" glyph-name="Icaron" horiz-adv-x="334" unicode="&#463;" /><glyph d="M146 565V120H188V565ZM188 39V120H146V63C146 44 141 38 119 33L61 20L63 0H271L273 20ZM146 646V565H188V622C188 641 193 647 215 652L273 665L271 685H63L61 665ZM271 0ZM167 0ZM168 685ZM178 875 152 873C203 842 253 802 292 771L306 781C263 829 217 876 187 905H150L144 901C127 878 70 820 29 783L41 771C85 800 154 853 178 875ZM168 685Z" glyph-name="Icircumflex" horiz-adv-x="334" unicode="&#206;" /><glyph d="M146 565V120H188V565ZM188 39V120H146V63C146 44 141 38 119 33L61 20L63 0H271L273 20ZM146 646V565H188V622C188 641 193 647 215 652L273 665L271 685H63L61 665ZM271 0ZM167 0ZM168 685ZM301 839C301 861 288 877 265 877C241 877 225 855 225 832C225 810 239 792 262 792C289 792 301 816 301 839ZM111 839C111 861 98 877 75 877C51 877 35 855 35 832C35 810 49 792 72 792C99 792 111 816 111 839ZM168 905ZM168 685Z" glyph-name="Idieresis" horiz-adv-x="334" unicode="&#207;" /><glyph d="M146 565V120H188V565ZM188 39V120H146V63C146 44 141 38 119 33L61 20L63 0H271L273 20ZM146 646V565H188V622C188 641 193 647 215 652L273 665L271 685H63L61 665ZM271 0ZM167 0ZM168 685ZM208 835C208 858 195 874 170 874C145 874 128 853 128 831C128 809 142 792 167 792C196 792 208 814 208 835ZM168 685Z" glyph-name="Idotaccent" horiz-adv-x="334" unicode="&#304;" /><glyph d="M146 565V120H188V565ZM188 39V120H146V63C146 44 141 38 119 33L61 20L63 0H271L273 20ZM146 646V565H188V622C188 641 193 647 215 652L273 665L271 685H63L61 665ZM271 0ZM167 0ZM168 685ZM203 -165C203 -140 191 -122 169 -122C146 -122 131 -145 131 -169C131 -193 144 -212 166 -212C192 -212 203 -188 203 -165ZM167 0Z" glyph-name="Idotbelow" horiz-adv-x="334" unicode="&#7882;" /><glyph d="M146 565V120H188V565ZM188 39V120H146V63C146 44 141 38 119 33L61 20L63 0H271L273 20ZM146 646V565H188V622C188 641 193 647 215 652L273 665L271 685H63L61 665ZM271 0ZM167 0ZM168 685ZM286 795C187 823 121 866 78 897L71 898C57 893 50 885 50 872C50 830 213 786 279 779ZM168 685Z" glyph-name="Igrave" horiz-adv-x="334" unicode="&#204;" /><glyph d="M146 565V120H188V565ZM188 39V120H146V63C146 44 141 38 119 33L61 20L63 0H271L273 20ZM146 646V565H188V622C188 641 193 647 215 652L273 665L271 685H63L61 665ZM271 0ZM167 0ZM168 685ZM41 817H295V856H41ZM168 685Z" glyph-name="Imacron" horiz-adv-x="334" unicode="&#298;" /><glyph d="M146 565V120H188V565ZM188 39V120H146V63C146 44 141 38 119 33L61 20L63 0H271L273 20ZM146 646V565H188V622C188 641 193 647 215 652L273 665L271 685H63L61 665ZM271 0ZM167 0ZM168 685ZM275 -181 271 -172C250 -177 237 -179 219 -179C182 -179 160 -160 160 -127C160 -85 196 -43 271 0L261 17C165 -30 118 -83 118 -138C118 -185 146 -212 193 -212C222 -212 254 -200 275 -181ZM271 0Z" glyph-name="Iogonek" horiz-adv-x="334" unicode="&#302;" /><glyph d="M146 565V120H188V565ZM188 39V120H146V63C146 44 141 38 119 33L61 20L63 0H271L273 20ZM146 646V565H188V622C188 641 193 647 215 652L273 665L271 685H63L61 665ZM271 0ZM167 0ZM168 685ZM51 850C85 848 223 780 274 780C316 780 335 817 347 882C347 882 347 882 347 882L333 888C312 852 298 834 285 814C248 815 116 884 62 884C21 884 -1 847 -13 781C-13 781 -13 781 -13 781L1 776C21 811 40 838 51 850ZM166 927ZM168 685Z" glyph-name="Itilde" horiz-adv-x="334" unicode="&#296;" /><glyph d="M147 565V104C147 -35 114 -78 61 -153L78 -170C154 -98 189 -52 189 75V565ZM147 646V565H189V622C189 641 194 647 216 652L274 665L272 685H64L62 665ZM168 685Z" glyph-name="J" horiz-adv-x="319" unicode="J" /><glyph d="M147 565V104C147 -35 114 -78 61 -153L78 -170C154 -98 189 -52 189 75V565ZM147 646V565H189V622C189 641 194 647 216 652L274 665L272 685H64L62 665ZM168 685ZM178 875 152 873C203 842 253 802 292 771L306 781C263 829 217 876 187 905H150L144 901C127 878 70 820 29 783L41 771C85 800 154 853 178 875ZM168 685Z" glyph-name="Jcircumflex" horiz-adv-x="319" unicode="&#308;" /><glyph d="M361 350H334L188 348V315H333L477 70C504 25 527 0 584 0H626L628 20L600 27C558 38 539 50 509 100ZM328 341 358 327 535 616C549 638 559 648 578 652L637 665L635 685H430L428 665L513 646ZM146 565V120H188V565ZM188 39V120H146V63C146 44 141 38 119 33L61 20L63 0H271L273 20ZM146 646V565H188V622C188 641 193 647 215 652L273 665L271 685H63L61 665ZM341 685ZM362 0Z" glyph-name="K" horiz-adv-x="669" unicode="K" /><glyph d="M361 350H334L188 348V315H333L477 70C504 25 527 0 584 0H626L628 20L600 27C558 38 539 50 509 100ZM328 341 358 327 535 616C549 638 559 648 578 652L637 665L635 685H430L428 665L513 646ZM146 565V120H188V565ZM188 39V120H146V63C146 44 141 38 119 33L61 20L63 0H271L273 20ZM146 646V565H188V622C188 641 193 647 215 652L273 665L271 685H63L61 665ZM341 685ZM362 0ZM401 -165C401 -138 386 -122 362 -122C339 -122 320 -143 320 -167C320 -192 338 -207 363 -207L357 -175C356 -214 338 -279 317 -312L328 -321C366 -288 401 -217 401 -165ZM362 0Z" glyph-name="Kcommaaccent" horiz-adv-x="669" unicode="&#310;" /><glyph d="M146 565V120H188V565ZM188 0H486C490 21 492 53 492 80C492 107 491 133 489 155H474L467 120C459 81 454 62 447 41C418 34 371 30 327 30H188ZM146 646V565H188V622C188 641 193 647 215 652L273 665L271 685H63L61 665ZM188 0V120H146V63C146 44 141 38 119 33L61 20L63 0ZM171 345ZM453 450ZM174 685ZM327 0Z" glyph-name="L" horiz-adv-x="548" unicode="L" /><glyph d="M146 565V120H188V565ZM188 0H486C490 21 492 53 492 80C492 107 491 133 489 155H474L467 120C459 81 454 62 447 41C418 34 371 30 327 30H188ZM146 646V565H188V622C188 641 193 647 215 652L273 665L271 685H63L61 665ZM188 0V120H146V63C146 44 141 38 119 33L61 20L63 0ZM171 345ZM453 450ZM174 685ZM327 0ZM264 896C221 865 155 822 56 794L63 778C129 785 292 829 292 871C292 884 285 892 271 897ZM174 859ZM174 685Z" glyph-name="Lacute" horiz-adv-x="548" unicode="&#313;" /><glyph d="M146 565V120H188V565ZM188 0H486C490 21 492 53 492 80C492 107 491 133 489 155H474L467 120C459 81 454 62 447 41C418 34 371 30 327 30H188ZM146 646V565H188V622C188 641 193 647 215 652L273 665L271 685H63L61 665ZM188 0V120H146V63C146 44 141 38 119 33L61 20L63 0ZM171 345ZM453 450ZM174 685ZM327 0ZM498 657C498 684 483 700 459 700C436 700 417 679 417 655C417 630 435 615 460 615L454 647C453 608 435 543 414 510L425 501C463 534 498 605 498 657ZM453 450Z" glyph-name="Lcaron" horiz-adv-x="554" unicode="&#317;" /><glyph d="M146 565V120H188V565ZM188 0H486C490 21 492 53 492 80C492 107 491 133 489 155H474L467 120C459 81 454 62 447 41C418 34 371 30 327 30H188ZM146 646V565H188V622C188 641 193 647 215 652L273 665L271 685H63L61 665ZM188 0V120H146V63C146 44 141 38 119 33L61 20L63 0ZM171 345ZM453 450ZM174 685ZM327 0ZM366 -165C366 -138 351 -122 327 -122C304 -122 285 -143 285 -167C285 -192 303 -207 328 -207L322 -175C321 -214 303 -279 282 -312L293 -321C331 -288 366 -217 366 -165ZM327 0Z" glyph-name="Lcommaaccent" horiz-adv-x="548" unicode="&#315;" /><glyph d="M146 565V120H188V565ZM188 0H486C490 21 492 53 492 80C492 107 491 133 489 155H474L467 120C459 81 454 62 447 41C418 34 371 30 327 30H188ZM146 646V565H188V622C188 641 193 647 215 652L273 665L271 685H63L61 665ZM188 0V120H146V63C146 44 141 38 119 33L61 20L63 0ZM171 345ZM453 450ZM174 685ZM327 0ZM417 371C417 396 405 414 383 414C360 414 345 391 345 367C345 343 358 324 380 324C406 324 417 348 417 371Z" glyph-name="Ldot" horiz-adv-x="548" unicode="&#319;" /><glyph d="M146 565V120H188V565ZM188 0H486C490 21 492 53 492 80C492 107 491 133 489 155H474L467 120C459 81 454 62 447 41C418 34 371 30 327 30H188ZM146 646V565H188V622C188 641 193 647 215 652L273 665L271 685H63L61 665ZM188 0V120H146V63C146 44 141 38 119 33L61 20L63 0ZM171 345ZM453 450ZM174 685ZM327 0ZM336 417 319 448 4 273 20 242ZM171 345Z" glyph-name="Lslash" horiz-adv-x="548" unicode="&#321;" /><glyph d="M175 39 252 644 237 642 415 185 484 0H518L587 185L758 628L743 630L822 39L780 30L737 20L739 0H944L946 20L888 33C866 38 864 44 861 63L784 645L871 665L869 685H739L496 32H516L265 685H133L131 665L217 645L141 63C138 44 136 38 114 33L56 20L58 0H258L260 20Z" glyph-name="M" horiz-adv-x="999" unicode="M" /><glyph d="M606 565H571V45L587 50L181 685H63L61 665L119 652C141 647 146 641 146 622V120H181V636L165 631L571 0H606ZM181 39V120H146V63C146 44 141 38 119 33L61 20L63 0H284L286 20ZM571 646V565H606V622C606 641 611 647 633 652L691 665L689 685H488L486 665ZM366 685ZM379 0Z" glyph-name="N" horiz-adv-x="736" unicode="N" /><glyph d="M606 565H571V45L587 50L181 685H63L61 665L119 652C141 647 146 641 146 622V120H181V636L165 631L571 0H606ZM181 39V120H146V63C146 44 141 38 119 33L61 20L63 0H284L286 20ZM571 646V565H606V622C606 641 611 647 633 652L691 665L689 685H488L486 665ZM366 685ZM379 0ZM456 896C413 865 347 822 248 794L255 778C321 785 484 829 484 871C484 884 477 892 463 897ZM366 859ZM366 685Z" glyph-name="Nacute" horiz-adv-x="736" unicode="&#323;" /><glyph d="M606 565H571V45L587 50L181 685H63L61 665L119 652C141 647 146 641 146 622V120H181V636L165 631L571 0H606ZM181 39V120H146V63C146 44 141 38 119 33L61 20L63 0H284L286 20ZM571 646V565H606V622C606 641 611 647 633 652L691 665L689 685H488L486 665ZM366 685ZM379 0ZM355 801 381 803C330 834 280 874 241 905L227 895C270 847 316 800 346 771H383L389 775C406 798 463 856 504 893L492 905C448 876 379 823 355 801ZM366 685Z" glyph-name="Ncaron" horiz-adv-x="736" unicode="&#327;" /><glyph d="M606 565H571V45L587 50L181 685H63L61 665L119 652C141 647 146 641 146 622V120H181V636L165 631L571 0H606ZM181 39V120H146V63C146 44 141 38 119 33L61 20L63 0H284L286 20ZM571 646V565H606V622C606 641 611 647 633 652L691 665L689 685H488L486 665ZM366 685ZM379 0ZM418 -165C418 -138 403 -122 379 -122C356 -122 337 -143 337 -167C337 -192 355 -207 380 -207L374 -175C373 -214 355 -279 334 -312L345 -321C383 -288 418 -217 418 -165ZM379 0Z" glyph-name="Ncommaaccent" horiz-adv-x="736" unicode="&#325;" /><glyph d="M606 565H571V45L587 50L181 685H63L61 665L119 652C141 647 146 641 146 622V120H181V636L165 631L571 0H606ZM181 39V120H146V63C146 44 141 38 119 33L61 20L63 0H284L286 20ZM571 646V565H606V622C606 641 611 647 633 652L691 665L689 685H488L486 665ZM366 685ZM379 0ZM406 835C406 858 393 874 368 874C343 874 326 853 326 831C326 809 340 792 365 792C394 792 406 814 406 835ZM366 685Z" glyph-name="Ndotaccent" horiz-adv-x="736" unicode="&#7748;" /><glyph d="M70 -170C146 -98 181 -52 181 75V636L165 631L571 0H606V565H571V45L587 50L181 685H63L61 665L119 652C141 647 146 641 146 622V104C146 -36 111 -79 55 -155ZM571 646V565H606V622C606 641 611 647 633 652L691 665L689 685H488L486 665Z" glyph-name="Nhookleft" horiz-adv-x="736" unicode="&#413;" /><glyph d="M606 565H571V45L587 50L181 685H63L61 665L119 652C141 647 146 641 146 622V120H181V636L165 631L571 0H606ZM181 39V120H146V63C146 44 141 38 119 33L61 20L63 0H284L286 20ZM571 646V565H606V622C606 641 611 647 633 652L691 665L689 685H488L486 665ZM366 685ZM379 0ZM249 850C283 848 421 780 472 780C514 780 533 817 545 882C545 882 545 882 545 882L531 888C510 852 496 834 483 814C446 815 314 884 260 884C219 884 197 847 185 781C185 781 185 781 185 781L199 776C219 811 238 838 249 850ZM364 927ZM366 685Z" glyph-name="Ntilde" horiz-adv-x="736" unicode="&#209;" /><glyph d="M64 343C64 124 164 -10 323 -10C482 -10 584 134 584 348C584 561 481 695 332 695C175 695 64 561 64 343ZM109 343C109 538 200 660 332 660C456 660 539 538 539 348C539 155 456 25 326 25C196 25 109 147 109 343ZM323 0ZM392 0ZM325 685ZM324 343Z" glyph-name="O" horiz-adv-x="648" unicode="O" /><glyph d="M438 685V0H480V685ZM480 0H787C791 24 793 60 793 90C793 117 792 143 790 165H775L758 100L741 35C714 32 669 30 628 30H480ZM480 685V655H618C659 655 704 652 731 650L748 585L765 520H780C782 545 783 568 783 595C783 625 781 661 777 685ZM480 360V330L700 326L702 365ZM455 680C429 690 400 695 372 695C201 695 63 555 63 338C63 121 191 -10 363 -10C404 -10 437 -3 466 10V45C440 30 411 23 364 23C222 23 108 145 108 338C108 537 221 662 373 662C405 662 431 656 455 645Z" glyph-name="OE" horiz-adv-x="857" unicode="&#338;" /><glyph d="M64 343C64 124 164 -10 323 -10C482 -10 584 134 584 348C584 561 481 695 332 695C175 695 64 561 64 343ZM109 343C109 538 200 660 332 660C456 660 539 538 539 348C539 155 456 25 326 25C196 25 109 147 109 343ZM323 0ZM392 0ZM325 685ZM324 343ZM415 896C372 865 306 822 207 794L214 778C280 785 443 829 443 871C443 884 436 892 422 897ZM325 859ZM325 685Z" glyph-name="Oacute" horiz-adv-x="648" unicode="&#211;" /><glyph d="M64 343C64 124 164 -10 323 -10C482 -10 584 134 584 348C584 561 481 695 332 695C175 695 64 561 64 343ZM109 343C109 538 200 660 332 660C456 660 539 538 539 348C539 155 456 25 326 25C196 25 109 147 109 343ZM323 0ZM392 0ZM325 685ZM324 343ZM426 888C410 851 373 828 327 828C276 828 238 851 223 890L206 887C217 823 262 785 322 785C383 785 429 823 444 887L430 890ZM325 685Z" glyph-name="Obreve" horiz-adv-x="648" unicode="&#334;" /><glyph d="M64 343C64 124 164 -10 323 -10C482 -10 584 134 584 348C584 561 481 695 332 695C175 695 64 561 64 343ZM109 343C109 538 200 660 332 660C456 660 539 538 539 348C539 155 456 25 326 25C196 25 109 147 109 343ZM323 0ZM392 0ZM325 685ZM324 343ZM314 801 340 803C289 834 239 874 200 905L186 895C229 847 275 800 305 771H342L348 775C365 798 422 856 463 893L451 905C407 876 338 823 314 801ZM325 685Z" glyph-name="Ocaron" horiz-adv-x="648" unicode="&#465;" /><glyph d="M64 343C64 124 164 -10 323 -10C482 -10 584 134 584 348C584 561 481 695 332 695C175 695 64 561 64 343ZM109 343C109 538 200 660 332 660C456 660 539 538 539 348C539 155 456 25 326 25C196 25 109 147 109 343ZM323 0ZM392 0ZM325 685ZM324 343ZM335 875 309 873C360 842 410 802 449 771L463 781C420 829 374 876 344 905H307L301 901C284 878 227 820 186 783L198 771C242 800 311 853 335 875ZM325 685Z" glyph-name="Ocircumflex" horiz-adv-x="648" unicode="&#212;" /><glyph d="M64 343C64 124 164 -10 323 -10C482 -10 584 134 584 348C584 561 481 695 332 695C175 695 64 561 64 343ZM109 343C109 538 200 660 332 660C456 660 539 538 539 348C539 155 456 25 326 25C196 25 109 147 109 343ZM323 0ZM392 0ZM325 685ZM324 343ZM458 839C458 861 445 877 422 877C398 877 382 855 382 832C382 810 396 792 419 792C446 792 458 816 458 839ZM268 839C268 861 255 877 232 877C208 877 192 855 192 832C192 810 206 792 229 792C256 792 268 816 268 839ZM325 905ZM325 685Z" glyph-name="Odieresis" horiz-adv-x="648" unicode="&#214;" /><glyph d="M64 343C64 124 164 -10 323 -10C482 -10 584 134 584 348C584 561 481 695 332 695C175 695 64 561 64 343ZM109 343C109 538 200 660 332 660C456 660 539 538 539 348C539 155 456 25 326 25C196 25 109 147 109 343ZM323 0ZM392 0ZM325 685ZM324 343ZM359 -165C359 -140 347 -122 325 -122C302 -122 287 -145 287 -169C287 -193 300 -212 322 -212C348 -212 359 -188 359 -165ZM323 0Z" glyph-name="Odotbelow" horiz-adv-x="648" unicode="&#7884;" /><glyph d="M64 343C64 124 164 -10 323 -10C482 -10 584 134 584 348C584 561 481 695 332 695C175 695 64 561 64 343ZM109 343C109 538 200 660 332 660C456 660 539 538 539 348C539 155 456 25 326 25C196 25 109 147 109 343ZM323 0ZM392 0ZM325 685ZM324 343ZM443 795C344 823 278 866 235 897L228 898C214 893 207 885 207 872C207 830 370 786 436 779ZM325 685Z" glyph-name="Ograve" horiz-adv-x="648" unicode="&#210;" /><glyph d="M64 343C64 124 164 -10 323 -10C482 -10 584 134 584 348C584 561 481 695 332 695C175 695 64 561 64 343ZM109 343C109 538 200 660 332 660C456 660 539 538 539 348C539 155 456 25 326 25C196 25 109 147 109 343ZM323 0ZM392 0ZM325 685ZM324 343ZM331 897C298 866 248 823 173 795L180 779C232 786 359 834 359 872C359 885 352 893 338 898ZM511 897C478 866 428 823 353 795L360 779C412 786 539 834 539 872C539 885 532 893 518 898ZM325 685Z" glyph-name="Ohungarumlaut" horiz-adv-x="648" unicode="&#336;" /><glyph d="M64 343C64 124 164 -10 323 -10C482 -10 584 134 584 348C584 561 481 695 332 695C175 695 64 561 64 343ZM109 343C109 538 200 660 332 660C456 660 539 538 539 348C539 155 456 25 326 25C196 25 109 147 109 343ZM323 0ZM392 0ZM325 685ZM324 343ZM198 817H452V856H198ZM325 685Z" glyph-name="Omacron" horiz-adv-x="648" unicode="&#332;" /><glyph d="M314 0 324 30C239 96 166 204 166 358C166 532 254 660 387 660C511 660 594 532 594 358C594 204 521 96 436 30L446 0H714C718 21 720 53 720 80C720 107 719 133 717 155H702L695 120C687 81 682 62 675 41C646 34 599 30 555 30H487C559 90 639 196 639 358C639 555 535 695 387 695C229 695 121 555 121 358C121 196 201 90 273 30H205C161 30 114 34 85 41C78 62 73 81 65 120L58 155H43C41 133 40 107 40 80C40 53 42 21 46 0Z" glyph-name="Omega" horiz-adv-x="760" unicode="&#42934;" /><glyph d="M64 343C64 124 164 -10 323 -10C482 -10 584 134 584 348C584 561 481 695 332 695C175 695 64 561 64 343ZM109 343C109 538 200 660 332 660C456 660 539 538 539 348C539 155 456 25 326 25C196 25 109 147 109 343ZM323 0ZM392 0ZM325 685ZM324 343ZM396 -181 392 -172C371 -177 358 -179 340 -179C303 -179 281 -160 281 -127C281 -85 317 -43 392 0L382 17C286 -30 239 -83 239 -138C239 -185 267 -212 314 -212C343 -212 375 -200 396 -181ZM392 0Z" glyph-name="Oogonek" horiz-adv-x="648" unicode="&#490;" /><glyph d="M64 343C64 124 164 -10 323 -10C482 -10 584 134 584 348C584 561 481 695 332 695C175 695 64 561 64 343ZM109 343C109 538 200 660 332 660C456 660 539 538 539 348C539 155 456 25 326 25C196 25 109 147 109 343ZM323 0ZM392 0ZM325 685ZM324 343ZM592 646 565 668 56 40 82 18ZM324 343Z" glyph-name="Oslash" horiz-adv-x="648" unicode="&#216;" /><glyph d="M64 343C64 124 164 -10 323 -10C482 -10 584 134 584 348C584 561 481 695 332 695C175 695 64 561 64 343ZM109 343C109 538 200 660 332 660C456 660 539 538 539 348C539 155 456 25 326 25C196 25 109 147 109 343ZM323 0ZM392 0ZM325 685ZM324 343ZM592 646 565 668 56 40 82 18ZM324 343ZM415 896C372 865 306 822 207 794L214 778C280 785 443 829 443 871C443 884 436 892 422 897ZM325 859ZM325 685Z" glyph-name="Oslashacute" horiz-adv-x="648" unicode="&#510;" /><glyph d="M64 343C64 124 164 -10 323 -10C482 -10 584 134 584 348C584 561 481 695 332 695C175 695 64 561 64 343ZM109 343C109 538 200 660 332 660C456 660 539 538 539 348C539 155 456 25 326 25C196 25 109 147 109 343ZM323 0ZM392 0ZM325 685ZM324 343ZM208 850C242 848 380 780 431 780C473 780 492 817 504 882C504 882 504 882 504 882L490 888C469 852 455 834 442 814C405 815 273 884 219 884C178 884 156 847 144 781C144 781 144 781 144 781L158 776C178 811 197 838 208 850ZM323 927ZM325 685Z" glyph-name="Otilde" horiz-adv-x="648" unicode="&#213;" /><glyph d="M188 270H288C414 270 518 340 518 472C518 610 416 685 293 685H188V650H283C401 650 473 585 473 472C473 360 399 305 278 305H188ZM146 565V120H188V565ZM188 39V120H146V63C146 44 141 38 119 33L61 20L63 0H291L293 20ZM188 685H63L61 665L119 652C141 647 146 641 146 622V565H188Z" glyph-name="P" horiz-adv-x="558" unicode="P" /><glyph d="M274 11C392 -87 563 -163 649 -163C675 -163 693 -151 693 -128C693 -121 691 -116 689 -113L688 -112C682 -113 677 -113 669 -113C541 -113 424 -52 327 11ZM64 343C64 124 164 -10 323 -10C482 -10 584 134 584 348C584 561 481 695 332 695C175 695 64 561 64 343ZM109 343C109 538 200 660 332 660C456 660 539 538 539 348C539 155 456 25 326 25C196 25 109 147 109 343ZM323 0ZM392 0ZM325 685ZM324 343Z" glyph-name="Q" horiz-adv-x="648" unicode="Q" /><glyph d="M146 565V120H188V565ZM188 300H278C299 300 319 302 339 306C431 325 503 389 503 495C503 618 401 685 278 685H188V650H268C386 650 458 594 458 495C458 386 386 333 268 333H188ZM354 340 318 319 450 70C475 23 500 0 557 0H594L596 20L573 27C531 40 510 47 482 100ZM188 685H63L61 665L119 652C141 647 146 641 146 622V565H188ZM188 39V120H146V63C146 44 141 38 119 33L61 20L63 0H271L273 20ZM293 685ZM354 0Z" glyph-name="R" horiz-adv-x="628" unicode="R" /><glyph d="M146 565V120H188V565ZM188 300H278C299 300 319 302 339 306C431 325 503 389 503 495C503 618 401 685 278 685H188V650H268C386 650 458 594 458 495C458 386 386 333 268 333H188ZM354 340 318 319 450 70C475 23 500 0 557 0H594L596 20L573 27C531 40 510 47 482 100ZM188 685H63L61 665L119 652C141 647 146 641 146 622V565H188ZM188 39V120H146V63C146 44 141 38 119 33L61 20L63 0H271L273 20ZM293 685ZM354 0ZM383 896C340 865 274 822 175 794L182 778C248 785 411 829 411 871C411 884 404 892 390 897ZM293 859ZM293 685Z" glyph-name="Racute" horiz-adv-x="628" unicode="&#340;" /><glyph d="M146 565V120H188V565ZM188 300H278C299 300 319 302 339 306C431 325 503 389 503 495C503 618 401 685 278 685H188V650H268C386 650 458 594 458 495C458 386 386 333 268 333H188ZM354 340 318 319 450 70C475 23 500 0 557 0H594L596 20L573 27C531 40 510 47 482 100ZM188 685H63L61 665L119 652C141 647 146 641 146 622V565H188ZM188 39V120H146V63C146 44 141 38 119 33L61 20L63 0H271L273 20ZM293 685ZM354 0ZM282 801 308 803C257 834 207 874 168 905L154 895C197 847 243 800 273 771H310L316 775C333 798 390 856 431 893L419 905C375 876 306 823 282 801ZM293 685Z" glyph-name="Rcaron" horiz-adv-x="628" unicode="&#344;" /><glyph d="M146 565V120H188V565ZM188 300H278C299 300 319 302 339 306C431 325 503 389 503 495C503 618 401 685 278 685H188V650H268C386 650 458 594 458 495C458 386 386 333 268 333H188ZM354 340 318 319 450 70C475 23 500 0 557 0H594L596 20L573 27C531 40 510 47 482 100ZM188 685H63L61 665L119 652C141 647 146 641 146 622V565H188ZM188 39V120H146V63C146 44 141 38 119 33L61 20L63 0H271L273 20ZM293 685ZM354 0ZM393 -165C393 -138 378 -122 354 -122C331 -122 312 -143 312 -167C312 -192 330 -207 355 -207L349 -175C348 -214 330 -279 309 -312L320 -321C358 -288 393 -217 393 -165ZM354 0Z" glyph-name="Rcommaaccent" horiz-adv-x="628" unicode="&#342;" /><glyph d="M146 565V120H188V565ZM188 300H278C299 300 319 302 339 306C431 325 503 389 503 495C503 618 401 685 278 685H188V650H268C386 650 458 594 458 495C458 386 386 333 268 333H188ZM354 340 318 319 450 70C475 23 500 0 557 0H594L596 20L573 27C531 40 510 47 482 100ZM188 685H63L61 665L119 652C141 647 146 641 146 622V565H188ZM188 39V120H146V63C146 44 141 38 119 33L61 20L63 0H271L273 20ZM293 685ZM354 0ZM390 -165C390 -140 378 -122 356 -122C333 -122 318 -145 318 -169C318 -193 331 -212 353 -212C379 -212 390 -188 390 -165ZM354 0Z" glyph-name="Rdotbelow" horiz-adv-x="628" unicode="&#7770;" /><glyph d="M226 -10C349 -10 426 59 426 158C426 362 110 354 110 533C110 611 170 660 251 660C290 660 330 652 350 633C366 617 376 588 385 520H401C405 552 407 586 407 612C407 632 407 651 401 658C387 674 336 695 261 695C153 695 65 636 65 532C65 329 381 337 381 154C381 84 323 25 232 25C185 25 139 29 116 52C98 70 90 94 78 165H63C58 141 56 103 56 83C56 54 57 40 65 27C75 10 149 -10 226 -10ZM246 685ZM238 0Z" glyph-name="S" horiz-adv-x="482" unicode="S" /><glyph d="M226 -10C349 -10 426 59 426 158C426 362 110 354 110 533C110 611 170 660 251 660C290 660 330 652 350 633C366 617 376 588 385 520H401C405 552 407 586 407 612C407 632 407 651 401 658C387 674 336 695 261 695C153 695 65 636 65 532C65 329 381 337 381 154C381 84 323 25 232 25C185 25 139 29 116 52C98 70 90 94 78 165H63C58 141 56 103 56 83C56 54 57 40 65 27C75 10 149 -10 226 -10ZM246 685ZM238 0ZM336 896C293 865 227 822 128 794L135 778C201 785 364 829 364 871C364 884 357 892 343 897ZM246 859ZM246 685Z" glyph-name="Sacute" horiz-adv-x="482" unicode="&#346;" /><glyph d="M226 -10C349 -10 426 59 426 158C426 362 110 354 110 533C110 611 170 660 251 660C290 660 330 652 350 633C366 617 376 588 385 520H401C405 552 407 586 407 612C407 632 407 651 401 658C387 674 336 695 261 695C153 695 65 636 65 532C65 329 381 337 381 154C381 84 323 25 232 25C185 25 139 29 116 52C98 70 90 94 78 165H63C58 141 56 103 56 83C56 54 57 40 65 27C75 10 149 -10 226 -10ZM246 685ZM238 0ZM235 801 261 803C210 834 160 874 121 905L107 895C150 847 196 800 226 771H263L269 775C286 798 343 856 384 893L372 905C328 876 259 823 235 801ZM246 685Z" glyph-name="Scaron" horiz-adv-x="482" unicode="&#352;" /><glyph d="M226 -10C349 -10 426 59 426 158C426 362 110 354 110 533C110 611 170 660 251 660C290 660 330 652 350 633C366 617 376 588 385 520H401C405 552 407 586 407 612C407 632 407 651 401 658C387 674 336 695 261 695C153 695 65 636 65 532C65 329 381 337 381 154C381 84 323 25 232 25C185 25 139 29 116 52C98 70 90 94 78 165H63C58 141 56 103 56 83C56 54 57 40 65 27C75 10 149 -10 226 -10ZM246 685ZM238 0ZM212 -91C258 -102 273 -119 273 -138C273 -166 242 -184 190 -197L194 -212C253 -205 316 -180 316 -133C316 -103 290 -77 242 -64L240 -84L255 0H224L209 -86ZM238 0Z" glyph-name="Scedilla" horiz-adv-x="482" unicode="&#350;" /><glyph d="M503 301 507 333H92L82 322L117 295ZM295 -10C447 -10 547 133 547 351C547 561 453 695 305 695C186 695 86 604 86 495C86 470 99 454 114 454C124 454 132 456 139 461C133 474 131 484 131 498C131 587 207 662 299 662C427 662 502 541 502 343C502 151 422 25 300 25C187 25 124 104 124 251C124 260 124 277 125 297L82 322C80 298 79 275 79 254C79 90 165 -10 295 -10Z" glyph-name="Schwa" horiz-adv-x="603" unicode="&#399;" /><glyph d="M226 -10C349 -10 426 59 426 158C426 362 110 354 110 533C110 611 170 660 251 660C290 660 330 652 350 633C366 617 376 588 385 520H401C405 552 407 586 407 612C407 632 407 651 401 658C387 674 336 695 261 695C153 695 65 636 65 532C65 329 381 337 381 154C381 84 323 25 232 25C185 25 139 29 116 52C98 70 90 94 78 165H63C58 141 56 103 56 83C56 54 57 40 65 27C75 10 149 -10 226 -10ZM246 685ZM238 0ZM256 875 230 873C281 842 331 802 370 771L384 781C341 829 295 876 265 905H228L222 901C205 878 148 820 107 783L119 771C163 800 232 853 256 875ZM246 685Z" glyph-name="Scircumflex" horiz-adv-x="482" unicode="&#348;" /><glyph d="M226 -10C349 -10 426 59 426 158C426 362 110 354 110 533C110 611 170 660 251 660C290 660 330 652 350 633C366 617 376 588 385 520H401C405 552 407 586 407 612C407 632 407 651 401 658C387 674 336 695 261 695C153 695 65 636 65 532C65 329 381 337 381 154C381 84 323 25 232 25C185 25 139 29 116 52C98 70 90 94 78 165H63C58 141 56 103 56 83C56 54 57 40 65 27C75 10 149 -10 226 -10ZM246 685ZM238 0ZM277 -165C277 -138 262 -122 238 -122C215 -122 196 -143 196 -167C196 -192 214 -207 239 -207L233 -175C232 -214 214 -279 193 -312L204 -321C242 -288 277 -217 277 -165ZM238 0Z" glyph-name="Scommaaccent" horiz-adv-x="482" unicode="&#536;" /><glyph d="M226 -10C349 -10 426 59 426 158C426 362 110 354 110 533C110 611 170 660 251 660C290 660 330 652 350 633C366 617 376 588 385 520H401C405 552 407 586 407 612C407 632 407 651 401 658C387 674 336 695 261 695C153 695 65 636 65 532C65 329 381 337 381 154C381 84 323 25 232 25C185 25 139 29 116 52C98 70 90 94 78 165H63C58 141 56 103 56 83C56 54 57 40 65 27C75 10 149 -10 226 -10ZM246 685ZM238 0ZM274 -165C274 -140 262 -122 240 -122C217 -122 202 -145 202 -169C202 -193 215 -212 237 -212C263 -212 274 -188 274 -165ZM238 0Z" glyph-name="Sdotbelow" horiz-adv-x="482" unicode="&#7778;" /><glyph d="M147 39V120H105V63C105 44 100 38 78 33L20 20L22 0H250L252 20Z" glyph-name="Serif-long.base" horiz-adv-x="272" /><glyph d="M147 0V120H105V63C105 44 100 38 78 33L20 20L22 0Z" glyph-name="Serif-side.base" horiz-adv-x="167" /><glyph d="M147 685H22L20 665L78 652C100 647 105 641 105 622V565H147Z" glyph-name="Serif-side.up" horiz-adv-x="167" /><glyph d="M140 39V120H105V63C105 44 100 38 78 33L20 20L22 0H243L245 20Z" glyph-name="Serif-thin-long.base" horiz-adv-x="265" /><glyph d="M140 39V120H105V63C105 44 100 38 78 33L20 20L22 0H223L225 20Z" glyph-name="Serif-thin.base" horiz-adv-x="245" /><glyph d="M147 39V120H105V63C105 44 100 38 78 33L20 20L22 0H230L232 20Z" glyph-name="Serif.base" horiz-adv-x="252" /><glyph d="M271 653V120H313V653ZM507 643C513 621 518 600 526 559L534 520H549C551 546 552 568 552 595C552 625 550 661 546 685H38C34 661 32 625 32 595C32 568 33 546 35 520H50L58 559C66 600 71 621 77 643C106 649 153 653 197 653H387C431 653 478 649 507 643ZM313 39V120H271V63C271 44 266 38 244 33L186 20L188 0H396L398 20ZM292 333ZM292 0ZM292 686Z" glyph-name="T" horiz-adv-x="584" unicode="T" /><glyph d="M271 653V120H313V653ZM507 643C513 621 518 600 526 559L534 520H549C551 546 552 568 552 595C552 625 550 661 546 685H38C34 661 32 625 32 595C32 568 33 546 35 520H50L58 559C66 600 71 621 77 643C106 649 153 653 197 653H387C431 653 478 649 507 643ZM313 39V120H271V63C271 44 266 38 244 33L186 20L188 0H396L398 20ZM292 333ZM292 0ZM292 686ZM483 334V364H99V334ZM291.64 333Z" glyph-name="Tbar" horiz-adv-x="584" unicode="&#358;" /><glyph d="M271 653V120H313V653ZM507 643C513 621 518 600 526 559L534 520H549C551 546 552 568 552 595C552 625 550 661 546 685H38C34 661 32 625 32 595C32 568 33 546 35 520H50L58 559C66 600 71 621 77 643C106 649 153 653 197 653H387C431 653 478 649 507 643ZM313 39V120H271V63C271 44 266 38 244 33L186 20L188 0H396L398 20ZM292 333ZM292 0ZM292 686ZM281 802 307 804C256 835 206 875 167 906L153 896C196 848 242 801 272 772H309L315 776C332 799 389 857 430 894L418 906C374 877 305 824 281 802ZM292 686Z" glyph-name="Tcaron" horiz-adv-x="584" unicode="&#356;" /><glyph d="M271 653V120H313V653ZM507 643C513 621 518 600 526 559L534 520H549C551 546 552 568 552 595C552 625 550 661 546 685H38C34 661 32 625 32 595C32 568 33 546 35 520H50L58 559C66 600 71 621 77 643C106 649 153 653 197 653H387C431 653 478 649 507 643ZM313 39V120H271V63C271 44 266 38 244 33L186 20L188 0H396L398 20ZM292 333ZM292 0ZM292 686ZM266 -91C312 -102 327 -119 327 -138C327 -166 296 -184 244 -197L248 -212C307 -205 370 -180 370 -133C370 -103 344 -77 296 -64L294 -84L309 0H278L263 -86ZM292 0Z" glyph-name="Tcedilla" horiz-adv-x="584" unicode="&#354;" /><glyph d="M271 653V120H313V653ZM507 643C513 621 518 600 526 559L534 520H549C551 546 552 568 552 595C552 625 550 661 546 685H38C34 661 32 625 32 595C32 568 33 546 35 520H50L58 559C66 600 71 621 77 643C106 649 153 653 197 653H387C431 653 478 649 507 643ZM313 39V120H271V63C271 44 266 38 244 33L186 20L188 0H396L398 20ZM292 333ZM292 0ZM292 686ZM331 -165C331 -138 316 -122 292 -122C269 -122 250 -143 250 -167C250 -192 268 -207 293 -207L287 -175C286 -214 268 -279 247 -312L258 -321C296 -288 331 -217 331 -165ZM292 0Z" glyph-name="Tcommaaccent" horiz-adv-x="584" unicode="&#538;" /><glyph d="M271 653V120H313V653ZM507 643C513 621 518 600 526 559L534 520H549C551 546 552 568 552 595C552 625 550 661 546 685H38C34 661 32 625 32 595C32 568 33 546 35 520H50L58 559C66 600 71 621 77 643C106 649 153 653 197 653H387C431 653 478 649 507 643ZM313 39V120H271V63C271 44 266 38 244 33L186 20L188 0H396L398 20ZM292 333ZM292 0ZM292 686ZM328 -165C328 -140 316 -122 294 -122C271 -122 256 -145 256 -169C256 -193 269 -212 291 -212C317 -212 328 -188 328 -165ZM292 0Z" glyph-name="Tdotbelow" horiz-adv-x="584" unicode="&#7788;" /><glyph d="M188 139H288C414 139 518 209 518 341C518 479 416 554 293 554H188V519H283C401 519 473 454 473 341C473 229 399 174 278 174H188ZM146 565V120H188V565ZM188 39V120H146V63C146 44 141 38 119 33L61 20L63 0H291L293 20ZM146 646V565H188V622C188 641 193 647 215 652L273 665L271 685H63L61 665Z" glyph-name="Thorn" horiz-adv-x="558" unicode="&#222;" /><glyph d="M109 220C109 68 206 -10 326 -10C449 -10 546 67 546 220V565H511V217C511 90 430 25 331 25C232 25 151 92 151 217V565H109ZM511 646V565H546V646L631 665L629 685H428L426 665ZM109 646V565H151V622C151 641 156 647 178 652L236 665L234 685H26L24 665ZM398 0ZM327 0ZM331 685Z" glyph-name="U" horiz-adv-x="657" unicode="U" /><glyph d="M109 220C109 68 206 -10 326 -10C449 -10 546 67 546 220V565H511V217C511 90 430 25 331 25C232 25 151 92 151 217V565H109ZM511 646V565H546V646L631 665L629 685H428L426 665ZM109 646V565H151V622C151 641 156 647 178 652L236 665L234 685H26L24 665ZM398 0ZM327 0ZM331 685ZM421 896C378 865 312 822 213 794L220 778C286 785 449 829 449 871C449 884 442 892 428 897ZM331 859ZM331 685Z" glyph-name="Uacute" horiz-adv-x="657" unicode="&#218;" /><glyph d="M109 220C109 68 206 -10 326 -10C449 -10 546 67 546 220V565H511V217C511 90 430 25 331 25C232 25 151 92 151 217V565H109ZM511 646V565H546V646L631 665L629 685H428L426 665ZM109 646V565H151V622C151 641 156 647 178 652L236 665L234 685H26L24 665ZM398 0ZM327 0ZM331 685ZM432 888C416 851 379 828 333 828C282 828 244 851 229 890L212 887C223 823 268 785 328 785C389 785 435 823 450 887L436 890ZM331 685Z" glyph-name="Ubreve" horiz-adv-x="657" unicode="&#364;" /><glyph d="M109 220C109 68 206 -10 326 -10C449 -10 546 67 546 220V565H511V217C511 90 430 25 331 25C232 25 151 92 151 217V565H109ZM511 646V565H546V646L631 665L629 685H428L426 665ZM109 646V565H151V622C151 641 156 647 178 652L236 665L234 685H26L24 665ZM398 0ZM327 0ZM331 685ZM320 801 346 803C295 834 245 874 206 905L192 895C235 847 281 800 311 771H348L354 775C371 798 428 856 469 893L457 905C413 876 344 823 320 801ZM331 685Z" glyph-name="Ucaron" horiz-adv-x="657" unicode="&#467;" /><glyph d="M109 220C109 68 206 -10 326 -10C449 -10 546 67 546 220V565H511V217C511 90 430 25 331 25C232 25 151 92 151 217V565H109ZM511 646V565H546V646L631 665L629 685H428L426 665ZM109 646V565H151V622C151 641 156 647 178 652L236 665L234 685H26L24 665ZM398 0ZM327 0ZM331 685ZM341 875 315 873C366 842 416 802 455 771L469 781C426 829 380 876 350 905H313L307 901C290 878 233 820 192 783L204 771C248 800 317 853 341 875ZM331 685Z" glyph-name="Ucircumflex" horiz-adv-x="657" unicode="&#219;" /><glyph d="M109 220C109 68 206 -10 326 -10C449 -10 546 67 546 220V565H511V217C511 90 430 25 331 25C232 25 151 92 151 217V565H109ZM511 646V565H546V646L631 665L629 685H428L426 665ZM109 646V565H151V622C151 641 156 647 178 652L236 665L234 685H26L24 665ZM398 0ZM327 0ZM331 685ZM464 839C464 861 451 877 428 877C404 877 388 855 388 832C388 810 402 792 425 792C452 792 464 816 464 839ZM274 839C274 861 261 877 238 877C214 877 198 855 198 832C198 810 212 792 235 792C262 792 274 816 274 839ZM331 905ZM331 685Z" glyph-name="Udieresis" horiz-adv-x="657" unicode="&#220;" /><glyph d="M109 220C109 68 206 -10 326 -10C449 -10 546 67 546 220V565H511V217C511 90 430 25 331 25C232 25 151 92 151 217V565H109ZM511 646V565H546V646L631 665L629 685H428L426 665ZM109 646V565H151V622C151 641 156 647 178 652L236 665L234 685H26L24 665ZM398 0ZM327 0ZM331 685ZM464 839C464 861 451 877 428 877C404 877 388 855 388 832C388 810 402 792 425 792C452 792 464 816 464 839ZM274 839C274 861 261 877 238 877C214 877 198 855 198 832C198 810 212 792 235 792C262 792 274 816 274 839ZM331 905ZM331 685ZM421 1116C378 1085 312 1042 213 1014L220 998C286 1005 449 1049 449 1091C449 1104 442 1112 428 1117ZM331 1079ZM331 905Z" glyph-name="Udieresisacute" horiz-adv-x="657" unicode="&#471;" /><glyph d="M109 220C109 68 206 -10 326 -10C449 -10 546 67 546 220V565H511V217C511 90 430 25 331 25C232 25 151 92 151 217V565H109ZM511 646V565H546V646L631 665L629 685H428L426 665ZM109 646V565H151V622C151 641 156 647 178 652L236 665L234 685H26L24 665ZM398 0ZM327 0ZM331 685ZM464 839C464 861 451 877 428 877C404 877 388 855 388 832C388 810 402 792 425 792C452 792 464 816 464 839ZM274 839C274 861 261 877 238 877C214 877 198 855 198 832C198 810 212 792 235 792C262 792 274 816 274 839ZM331 905ZM331 685ZM320 1021 346 1023C295 1054 245 1094 206 1125L192 1115C235 1067 281 1020 311 991H348L354 995C371 1018 428 1076 469 1113L457 1125C413 1096 344 1043 320 1021ZM331 905Z" glyph-name="Udieresiscaron" horiz-adv-x="657" unicode="&#473;" /><glyph d="M109 220C109 68 206 -10 326 -10C449 -10 546 67 546 220V565H511V217C511 90 430 25 331 25C232 25 151 92 151 217V565H109ZM511 646V565H546V646L631 665L629 685H428L426 665ZM109 646V565H151V622C151 641 156 647 178 652L236 665L234 685H26L24 665ZM398 0ZM327 0ZM331 685ZM464 839C464 861 451 877 428 877C404 877 388 855 388 832C388 810 402 792 425 792C452 792 464 816 464 839ZM274 839C274 861 261 877 238 877C214 877 198 855 198 832C198 810 212 792 235 792C262 792 274 816 274 839ZM331 905ZM331 685ZM449 1015C350 1043 284 1086 241 1117L234 1118C220 1113 213 1105 213 1092C213 1050 376 1006 442 999ZM331 905Z" glyph-name="Udieresisgrave" horiz-adv-x="657" unicode="&#475;" /><glyph d="M109 220C109 68 206 -10 326 -10C449 -10 546 67 546 220V565H511V217C511 90 430 25 331 25C232 25 151 92 151 217V565H109ZM511 646V565H546V646L631 665L629 685H428L426 665ZM109 646V565H151V622C151 641 156 647 178 652L236 665L234 685H26L24 665ZM398 0ZM327 0ZM331 685ZM464 839C464 861 451 877 428 877C404 877 388 855 388 832C388 810 402 792 425 792C452 792 464 816 464 839ZM274 839C274 861 261 877 238 877C214 877 198 855 198 832C198 810 212 792 235 792C262 792 274 816 274 839ZM331 905ZM331 685ZM204 1037H458V1076H204ZM331 905Z" glyph-name="Udieresismacron" horiz-adv-x="657" unicode="&#469;" /><glyph d="M109 220C109 68 206 -10 326 -10C449 -10 546 67 546 220V565H511V217C511 90 430 25 331 25C232 25 151 92 151 217V565H109ZM511 646V565H546V646L631 665L629 685H428L426 665ZM109 646V565H151V622C151 641 156 647 178 652L236 665L234 685H26L24 665ZM398 0ZM327 0ZM331 685ZM363 -165C363 -140 351 -122 329 -122C306 -122 291 -145 291 -169C291 -193 304 -212 326 -212C352 -212 363 -188 363 -165ZM327 0Z" glyph-name="Udotbelow" horiz-adv-x="657" unicode="&#7908;" /><glyph d="M109 220C109 68 206 -10 326 -10C449 -10 546 67 546 220V565H511V217C511 90 430 25 331 25C232 25 151 92 151 217V565H109ZM511 646V565H546V646L631 665L629 685H428L426 665ZM109 646V565H151V622C151 641 156 647 178 652L236 665L234 685H26L24 665ZM398 0ZM327 0ZM331 685ZM449 795C350 823 284 866 241 897L234 898C220 893 213 885 213 872C213 830 376 786 442 779ZM331 685Z" glyph-name="Ugrave" horiz-adv-x="657" unicode="&#217;" /><glyph d="M109 220C109 68 206 -10 326 -10C449 -10 546 67 546 220V565H511V217C511 90 430 25 331 25C232 25 151 92 151 217V565H109ZM511 646V565H546V646L631 665L629 685H428L426 665ZM109 646V565H151V622C151 641 156 647 178 652L236 665L234 685H26L24 665ZM398 0ZM327 0ZM331 685ZM337 897C304 866 254 823 179 795L186 779C238 786 365 834 365 872C365 885 358 893 344 898ZM517 897C484 866 434 823 359 795L366 779C418 786 545 834 545 872C545 885 538 893 524 898ZM331 685Z" glyph-name="Uhungarumlaut" horiz-adv-x="657" unicode="&#368;" /><glyph d="M109 220C109 68 206 -10 326 -10C449 -10 546 67 546 220V565H511V217C511 90 430 25 331 25C232 25 151 92 151 217V565H109ZM511 646V565H546V646L631 665L629 685H428L426 665ZM109 646V565H151V622C151 641 156 647 178 652L236 665L234 685H26L24 665ZM398 0ZM327 0ZM331 685ZM204 817H458V856H204ZM331 685Z" glyph-name="Umacron" horiz-adv-x="657" unicode="&#362;" /><glyph d="M109 220C109 68 206 -10 326 -10C449 -10 546 67 546 220V565H511V217C511 90 430 25 331 25C232 25 151 92 151 217V565H109ZM511 646V565H546V646L631 665L629 685H428L426 665ZM109 646V565H151V622C151 641 156 647 178 652L236 665L234 685H26L24 665ZM398 0ZM327 0ZM331 685ZM402 -181 398 -172C377 -177 364 -179 346 -179C309 -179 287 -160 287 -127C287 -85 323 -43 398 0L388 17C292 -30 245 -83 245 -138C245 -185 273 -212 320 -212C349 -212 381 -200 402 -181ZM398 0Z" glyph-name="Uogonek" horiz-adv-x="657" unicode="&#370;" /><glyph d="M109 220C109 68 206 -10 326 -10C449 -10 546 67 546 220V565H511V217C511 90 430 25 331 25C232 25 151 92 151 217V565H109ZM511 646V565H546V646L631 665L629 685H428L426 665ZM109 646V565H151V622C151 641 156 647 178 652L236 665L234 685H26L24 665ZM398 0ZM327 0ZM331 685ZM327 766C372 766 406 797 408 840C410 880 378 909 334 909C288 909 254 879 254 835C254 794 284 766 327 766ZM331 886C356 886 374 867 374 841C374 811 356 789 330 789C305 789 287 808 287 835C287 864 305 886 331 886ZM330 905ZM331 685Z" glyph-name="Uring" horiz-adv-x="657" unicode="&#366;" /><glyph d="M109 220C109 68 206 -10 326 -10C449 -10 546 67 546 220V565H511V217C511 90 430 25 331 25C232 25 151 92 151 217V565H109ZM511 646V565H546V646L631 665L629 685H428L426 665ZM109 646V565H151V622C151 641 156 647 178 652L236 665L234 685H26L24 665ZM398 0ZM327 0ZM331 685ZM214 850C248 848 386 780 437 780C479 780 498 817 510 882C510 882 510 882 510 882L496 888C475 852 461 834 448 814C411 815 279 884 225 884C184 884 162 847 150 781C150 781 150 781 150 781L164 776C184 811 203 838 214 850ZM329 927ZM331 685Z" glyph-name="Utilde" horiz-adv-x="657" unicode="&#360;" /><glyph d="M367 0 585 616C592 637 601 647 623 652L679 665L677 685H474L472 665L586 639L567 674L353 53H368L162 646L247 665L245 685H34L32 665L90 652C110 648 118 639 126 616L344 0Z" glyph-name="V" horiz-adv-x="711" unicode="V" /><glyph d="M717 0 930 616C937 637 946 647 968 652L1024 665L1022 685H819L817 665L902 646L703 53H718L518 646L604 665L602 685H389L387 665L446 652C466 648 474 639 482 616L694 0ZM362 0 546 531 526 582 348 53H363L162 646L247 665L245 685H34L32 665L90 652C110 648 118 639 126 616L339 0ZM498 685Z" glyph-name="W" horiz-adv-x="1056" unicode="W" /><glyph d="M717 0 930 616C937 637 946 647 968 652L1024 665L1022 685H819L817 665L902 646L703 53H718L518 646L604 665L602 685H389L387 665L446 652C466 648 474 639 482 616L694 0ZM362 0 546 531 526 582 348 53H363L162 646L247 665L245 685H34L32 665L90 652C110 648 118 639 126 616L339 0ZM498 685ZM588 896C545 865 479 822 380 794L387 778C453 785 616 829 616 871C616 884 609 892 595 897ZM498 859ZM498 685Z" glyph-name="Wacute" horiz-adv-x="1056" unicode="&#7810;" /><glyph d="M717 0 930 616C937 637 946 647 968 652L1024 665L1022 685H819L817 665L902 646L703 53H718L518 646L604 665L602 685H389L387 665L446 652C466 648 474 639 482 616L694 0ZM362 0 546 531 526 582 348 53H363L162 646L247 665L245 685H34L32 665L90 652C110 648 118 639 126 616L339 0ZM498 685ZM508 875 482 873C533 842 583 802 622 771L636 781C593 829 547 876 517 905H480L474 901C457 878 400 820 359 783L371 771C415 800 484 853 508 875ZM498 685Z" glyph-name="Wcircumflex" horiz-adv-x="1056" unicode="&#372;" /><glyph d="M717 0 930 616C937 637 946 647 968 652L1024 665L1022 685H819L817 665L902 646L703 53H718L518 646L604 665L602 685H389L387 665L446 652C466 648 474 639 482 616L694 0ZM362 0 546 531 526 582 348 53H363L162 646L247 665L245 685H34L32 665L90 652C110 648 118 639 126 616L339 0ZM498 685ZM631 839C631 861 618 877 595 877C571 877 555 855 555 832C555 810 569 792 592 792C619 792 631 816 631 839ZM441 839C441 861 428 877 405 877C381 877 365 855 365 832C365 810 379 792 402 792C429 792 441 816 441 839ZM498 905ZM498 685Z" glyph-name="Wdieresis" horiz-adv-x="1056" unicode="&#7812;" /><glyph d="M717 0 930 616C937 637 946 647 968 652L1024 665L1022 685H819L817 665L902 646L703 53H718L518 646L604 665L602 685H389L387 665L446 652C466 648 474 639 482 616L694 0ZM362 0 546 531 526 582 348 53H363L162 646L247 665L245 685H34L32 665L90 652C110 648 118 639 126 616L339 0ZM498 685ZM616 795C517 823 451 866 408 897L401 898C387 893 380 885 380 872C380 830 543 786 609 779ZM498 685Z" glyph-name="Wgrave" horiz-adv-x="1056" unicode="&#7808;" /><glyph d="M554 616C570 639 576 647 594 652L638 665L636 685H450L448 665L533 646L340 364L359 335ZM529 39 444 20 446 0H641L643 20L599 33C577 39 574 46 559 69L159 646L244 665L242 685H47L45 665L88 652C108 646 113 639 129 616ZM124 69C109 47 102 38 84 33L40 20L42 0H228L230 20L145 39L343 327L324 356Z" glyph-name="X" horiz-adv-x="683" unicode="X" /><glyph d="M34 685 32 665 90 652C109 648 115 639 127 616L324 247H347L541 616C552 637 560 647 583 652L639 665L637 685H434L432 665L546 639L531 673L333 285H348L148 673L133 639L247 665L245 685ZM314 300V120H356V300ZM356 39V120H314V63C314 44 309 38 287 33L229 20L231 0H439L441 20ZM331 685Z" glyph-name="Y" horiz-adv-x="671" unicode="Y" /><glyph d="M34 685 32 665 90 652C109 648 115 639 127 616L324 247H347L541 616C552 637 560 647 583 652L639 665L637 685H434L432 665L546 639L531 673L333 285H348L148 673L133 639L247 665L245 685ZM314 300V120H356V300ZM356 39V120H314V63C314 44 309 38 287 33L229 20L231 0H439L441 20ZM331 685ZM421 896C378 865 312 822 213 794L220 778C286 785 449 829 449 871C449 884 442 892 428 897ZM331 859ZM331 685Z" glyph-name="Yacute" horiz-adv-x="671" unicode="&#221;" /><glyph d="M34 685 32 665 90 652C109 648 115 639 127 616L324 247H347L541 616C552 637 560 647 583 652L639 665L637 685H434L432 665L546 639L531 673L333 285H348L148 673L133 639L247 665L245 685ZM314 300V120H356V300ZM356 39V120H314V63C314 44 309 38 287 33L229 20L231 0H439L441 20ZM331 685ZM341 875 315 873C366 842 416 802 455 771L469 781C426 829 380 876 350 905H313L307 901C290 878 233 820 192 783L204 771C248 800 317 853 341 875ZM331 685Z" glyph-name="Ycircumflex" horiz-adv-x="671" unicode="&#374;" /><glyph d="M34 685 32 665 90 652C109 648 115 639 127 616L324 247H347L541 616C552 637 560 647 583 652L639 665L637 685H434L432 665L546 639L531 673L333 285H348L148 673L133 639L247 665L245 685ZM314 300V120H356V300ZM356 39V120H314V63C314 44 309 38 287 33L229 20L231 0H439L441 20ZM331 685ZM464 839C464 861 451 877 428 877C404 877 388 855 388 832C388 810 402 792 425 792C452 792 464 816 464 839ZM274 839C274 861 261 877 238 877C214 877 198 855 198 832C198 810 212 792 235 792C262 792 274 816 274 839ZM331 905ZM331 685Z" glyph-name="Ydieresis" horiz-adv-x="671" unicode="&#376;" /><glyph d="M34 685 32 665 90 652C109 648 115 639 127 616L324 247H347L541 616C552 637 560 647 583 652L639 665L637 685H434L432 665L546 639L531 673L333 285H348L148 673L133 639L247 665L245 685ZM314 300V120H356V300ZM356 39V120H314V63C314 44 309 38 287 33L229 20L231 0H439L441 20ZM331 685ZM449 795C350 823 284 866 241 897L234 898C220 893 213 885 213 872C213 830 376 786 442 779ZM331 685Z" glyph-name="Ygrave" horiz-adv-x="671" unicode="&#7922;" /><glyph d="M34 685 32 665 90 652C109 648 115 639 127 616L324 247H347L541 616C552 637 560 647 583 652L639 665L637 685H434L432 665L546 639L531 673L333 285H348L148 673L133 639L247 665L245 685ZM314 300V120H356V300ZM356 39V120H314V63C314 44 309 38 287 33L229 20L231 0H439L441 20ZM331 685ZM204 817H458V856H204ZM331 685Z" glyph-name="Ymacron" horiz-adv-x="671" unicode="&#562;" /><glyph d="M34 685 32 665 90 652C109 648 115 639 127 616L324 247H347L541 616C552 637 560 647 583 652L639 665L637 685H434L432 665L546 639L531 673L333 285H348L148 673L133 639L247 665L245 685ZM314 300V120H356V300ZM356 39V120H314V63C314 44 309 38 287 33L229 20L231 0H439L441 20ZM331 685ZM214 850C248 848 386 780 437 780C479 780 498 817 510 882C510 882 510 882 510 882L496 888C475 852 461 834 448 814C411 815 279 884 225 884C184 884 162 847 150 781C150 781 150 781 150 781L164 776C184 811 203 838 214 850ZM329 927ZM331 685Z" glyph-name="Ytilde" horiz-adv-x="671" unicode="&#7928;" /><glyph d="M516 0C520 27 522 67 522 100C522 123 521 143 519 165H504L470 35C442 32 398 30 357 30H90L104 4L507 655L502 685H84C80 658 78 618 78 585C78 562 79 542 81 520H96L130 650C158 653 202 655 243 655H489L475 681L72 30L77 0ZM304 685ZM306 0Z" glyph-name="Z" horiz-adv-x="594" unicode="Z" /><glyph d="M516 0C520 27 522 67 522 100C522 123 521 143 519 165H504L470 35C442 32 398 30 357 30H90L104 4L507 655L502 685H84C80 658 78 618 78 585C78 562 79 542 81 520H96L130 650C158 653 202 655 243 655H489L475 681L72 30L77 0ZM304 685ZM306 0ZM394 896C351 865 285 822 186 794L193 778C259 785 422 829 422 871C422 884 415 892 401 897ZM304 859ZM304 685Z" glyph-name="Zacute" horiz-adv-x="594" unicode="&#377;" /><glyph d="M516 0C520 27 522 67 522 100C522 123 521 143 519 165H504L470 35C442 32 398 30 357 30H90L104 4L507 655L502 685H84C80 658 78 618 78 585C78 562 79 542 81 520H96L130 650C158 653 202 655 243 655H489L475 681L72 30L77 0ZM304 685ZM306 0ZM293 801 319 803C268 834 218 874 179 905L165 895C208 847 254 800 284 771H321L327 775C344 798 401 856 442 893L430 905C386 876 317 823 293 801ZM304 685Z" glyph-name="Zcaron" horiz-adv-x="594" unicode="&#381;" /><glyph d="M516 0C520 27 522 67 522 100C522 123 521 143 519 165H504L470 35C442 32 398 30 357 30H90L104 4L507 655L502 685H84C80 658 78 618 78 585C78 562 79 542 81 520H96L130 650C158 653 202 655 243 655H489L475 681L72 30L77 0ZM304 685ZM306 0ZM344 835C344 858 331 874 306 874C281 874 264 853 264 831C264 809 278 792 303 792C332 792 344 814 344 835ZM304 685Z" glyph-name="Zdotaccent" horiz-adv-x="594" unicode="&#379;" /><glyph d="M516 0C520 27 522 67 522 100C522 123 521 143 519 165H504L470 35C442 32 398 30 357 30H90L104 4L507 655L502 685H84C80 658 78 618 78 585C78 562 79 542 81 520H96L130 650C158 653 202 655 243 655H489L475 681L72 30L77 0ZM304 685ZM306 0ZM342 -165C342 -140 330 -122 308 -122C285 -122 270 -145 270 -169C270 -193 283 -212 305 -212C331 -212 342 -188 342 -165ZM306 0Z" glyph-name="Zdotbelow" horiz-adv-x="594" unicode="&#7826;" /><glyph d="M355 270C187 270 64 198 64 100C64 32 111 -10 188 -10C258 -10 314 30 352 74L342 102C304 57 250 25 194 25C140 25 107 49 107 102C107 184 207 240 355 240ZM249 505C162 505 74 432 74 372C74 351 87 337 107 337C115 337 122 339 128 343C123 354 121 363 121 375C121 420 170 472 240 472C303 472 342 436 342 372C342 335 338 187 338 67C338 19 363 -10 403 -10C433 -10 460 4 477 21L473 30C457 25 444 23 429 23C392 23 380 39 380 88C380 175 384 315 384 374C384 458 335 505 249 505ZM446 0ZM236 0ZM230 495Z" glyph-name="a" horiz-adv-x="496" unicode="a" /><glyph d="M288 141C150 141 50 85 50 8C50 -45 88 -78 151 -78C209 -78 255 -47 286 -12L278 9C246 -25 202 -49 156 -49C112 -49 85 -30 85 11C85 74 167 117 288 117ZM202 324C130 324 58 267 58 220C58 203 69 192 85 192C92 192 97 194 102 197C98 206 97 213 97 223C97 258 137 298 194 298C246 298 278 270 278 221C278 193 274 73 274 -17C274 -55 295 -78 328 -78C352 -78 375 -67 389 -52L385 -45C372 -49 362 -50 349 -50C319 -50 309 -38 309 1C309 67 312 175 312 220C312 287 272 324 202 324Z" glyph-name="a.inferior" horiz-adv-x="411" unicode="&#8336;" /><glyph d="M283 535 98 60C92 44 84 35 66 30L18 17L20 0H192L194 17L109 40L118 20L294 474H283L455 34L382 17L384 0H566L568 17L519 28C502 32 496 40 488 60L303 535ZM175 212V181L402 184V211ZM566 0ZM293 0ZM296 535Z" glyph-name="a.sc" horiz-adv-x="586" /><glyph d="M288 580C150 580 50 524 50 447C50 394 88 361 151 361C209 361 255 392 286 427L278 448C246 414 202 390 156 390C112 390 85 409 85 450C85 513 167 556 288 556ZM202 763C130 763 58 706 58 659C58 642 69 631 85 631C92 631 97 633 102 636C98 645 97 652 97 662C97 697 137 737 194 737C246 737 278 709 278 660C278 632 274 512 274 422C274 384 295 361 328 361C352 361 375 372 389 387L385 394C372 390 362 389 349 389C319 389 309 401 309 440C309 506 312 614 312 659C312 726 272 763 202 763Z" glyph-name="a.superior" horiz-adv-x="412" /><glyph d="M355 270C187 270 64 198 64 100C64 32 111 -10 188 -10C258 -10 314 30 352 74L342 102C304 57 250 25 194 25C140 25 107 49 107 102C107 184 207 240 355 240ZM249 505C162 505 74 432 74 372C74 351 87 337 107 337C115 337 122 339 128 343C123 354 121 363 121 375C121 420 170 472 240 472C303 472 342 436 342 372C342 335 338 187 338 67C338 19 363 -10 403 -10C433 -10 460 4 477 21L473 30C457 25 444 23 429 23C392 23 380 39 380 88C380 175 384 315 384 374C384 458 335 505 249 505ZM446 0ZM236 0ZM230 495ZM332 732C332 745 322 755 300 755C299 755 297 755 296 755L291 753C269 712 218 650 165 593L177 581C243 631 332 698 332 732ZM249 745ZM230 495Z" glyph-name="aacute" horiz-adv-x="496" unicode="&#225;" /><glyph d="M283 535 98 60C92 44 84 35 66 30L18 17L20 0H192L194 17L109 40L118 20L294 474H283L455 34L382 17L384 0H566L568 17L519 28C502 32 496 40 488 60L303 535ZM175 212V181L402 184V211ZM566 0ZM293 0ZM296 535ZM398 772C398 785 388 795 366 795C365 795 363 795 362 795L357 793C335 752 284 690 231 633L243 621C309 671 398 738 398 772ZM315 785ZM296 535Z" glyph-name="aacute.sc" horiz-adv-x="586" /><glyph d="M355 270C187 270 64 198 64 100C64 32 111 -10 188 -10C258 -10 314 30 352 74L342 102C304 57 250 25 194 25C140 25 107 49 107 102C107 184 207 240 355 240ZM249 505C162 505 74 432 74 372C74 351 87 337 107 337C115 337 122 339 128 343C123 354 121 363 121 375C121 420 170 472 240 472C303 472 342 436 342 372C342 335 338 187 338 67C338 19 363 -10 403 -10C433 -10 460 4 477 21L473 30C457 25 444 23 429 23C392 23 380 39 380 88C380 175 384 315 384 374C384 458 335 505 249 505ZM446 0ZM236 0ZM230 495ZM331 728C315 678 278 648 232 648C181 648 143 679 128 730L111 727C122 650 167 605 227 605C288 605 334 650 349 727L335 730ZM230 745ZM230 495Z" glyph-name="abreve" horiz-adv-x="496" unicode="&#259;" /><glyph d="M283 535 98 60C92 44 84 35 66 30L18 17L20 0H192L194 17L109 40L118 20L294 474H283L455 34L382 17L384 0H566L568 17L519 28C502 32 496 40 488 60L303 535ZM175 212V181L402 184V211ZM566 0ZM293 0ZM296 535ZM397 768C381 718 344 688 298 688C247 688 209 719 194 770L177 767C188 690 233 645 293 645C354 645 400 690 415 767L401 770ZM296 785ZM296 535Z" glyph-name="abreve.sc" horiz-adv-x="586" /><glyph d="M355 270C187 270 64 198 64 100C64 32 111 -10 188 -10C258 -10 314 30 352 74L342 102C304 57 250 25 194 25C140 25 107 49 107 102C107 184 207 240 355 240ZM249 505C162 505 74 432 74 372C74 351 87 337 107 337C115 337 122 339 128 343C123 354 121 363 121 375C121 420 170 472 240 472C303 472 342 436 342 372C342 335 338 187 338 67C338 19 363 -10 403 -10C433 -10 460 4 477 21L473 30C457 25 444 23 429 23C392 23 380 39 380 88C380 175 384 315 384 374C384 458 335 505 249 505ZM446 0ZM236 0ZM230 495ZM219 617 245 619C198 660 151 712 115 752L101 742C140 682 181 624 208 588H249L255 592C270 621 321 694 358 740L346 752C305 714 241 646 219 617ZM229 745ZM230 495Z" glyph-name="acaron" horiz-adv-x="496" unicode="&#462;" /><glyph d="M283 535 98 60C92 44 84 35 66 30L18 17L20 0H192L194 17L109 40L118 20L294 474H283L455 34L382 17L384 0H566L568 17L519 28C502 32 496 40 488 60L303 535ZM175 212V181L402 184V211ZM566 0ZM293 0ZM296 535ZM285 657 311 659C264 700 217 752 181 792L167 782C206 722 247 664 274 628H315L321 632C336 661 387 734 424 780L412 792C371 754 307 686 285 657ZM295 785ZM296 535Z" glyph-name="acaron.sc" horiz-adv-x="586" /><glyph d="M355 270C187 270 64 198 64 100C64 32 111 -10 188 -10C258 -10 314 30 352 74L342 102C304 57 250 25 194 25C140 25 107 49 107 102C107 184 207 240 355 240ZM249 505C162 505 74 432 74 372C74 351 87 337 107 337C115 337 122 339 128 343C123 354 121 363 121 375C121 420 170 472 240 472C303 472 342 436 342 372C342 335 338 187 338 67C338 19 363 -10 403 -10C433 -10 460 4 477 21L473 30C457 25 444 23 429 23C392 23 380 39 380 88C380 175 384 315 384 374C384 458 335 505 249 505ZM446 0ZM236 0ZM230 495ZM240 721 214 719C261 678 308 626 344 586L358 596C319 656 278 714 251 750H210L204 746C189 717 138 644 101 598L113 586C154 624 218 692 240 721ZM229 745ZM230 495Z" glyph-name="acircumflex" horiz-adv-x="496" unicode="&#226;" /><glyph d="M283 535 98 60C92 44 84 35 66 30L18 17L20 0H192L194 17L109 40L118 20L294 474H283L455 34L382 17L384 0H566L568 17L519 28C502 32 496 40 488 60L303 535ZM175 212V181L402 184V211ZM566 0ZM293 0ZM296 535ZM306 761 280 759C327 718 374 666 410 626L424 636C385 696 344 754 317 790H276L270 786C255 757 204 684 167 638L179 626C220 664 284 732 306 761ZM295 785ZM296 535Z" glyph-name="acircumflex.sc" horiz-adv-x="586" /><glyph d="M267 732C267 745 257 755 235 755C234 755 232 755 231 755L226 753C204 712 153 650 100 593L112 581C178 631 267 698 267 732Z" glyph-name="acute" horiz-adv-x="367" unicode="&#180;" /><glyph d="M308 896C265 865 199 822 100 794L107 778C173 785 336 829 336 871C336 884 329 892 315 897Z" glyph-name="acute.case" horiz-adv-x="436" /><glyph d="M267 732C267 745 257 755 235 755C234 755 232 755 231 755L226 753C204 712 153 650 100 593L112 581C178 631 267 698 267 732ZM184 745ZM165 495Z" glyph-name="acutecomb" horiz-adv-x="367" unicode="&#769;" /><glyph d="M308 896C265 865 199 822 100 794L107 778C173 785 336 829 336 871C336 884 329 892 315 897ZM218 859ZM218 685Z" glyph-name="acutecomb.case" horiz-adv-x="436" /><glyph d="M355 270C187 270 64 198 64 100C64 32 111 -10 188 -10C258 -10 314 30 352 74L342 102C304 57 250 25 194 25C140 25 107 49 107 102C107 184 207 240 355 240ZM249 505C162 505 74 432 74 372C74 351 87 337 107 337C115 337 122 339 128 343C123 354 121 363 121 375C121 420 170 472 240 472C303 472 342 436 342 372C342 335 338 187 338 67C338 19 363 -10 403 -10C433 -10 460 4 477 21L473 30C457 25 444 23 429 23C392 23 380 39 380 88C380 175 384 315 384 374C384 458 335 505 249 505ZM446 0ZM236 0ZM230 495ZM359 670C359 694 347 711 326 711C304 711 289 688 289 663C289 640 302 621 323 621C348 621 359 646 359 670ZM169 670C169 694 157 711 136 711C114 711 99 688 99 663C99 640 112 621 133 621C158 621 169 646 169 670ZM230 745ZM230 495Z" glyph-name="adieresis" horiz-adv-x="496" unicode="&#228;" /><glyph d="M283 535 98 60C92 44 84 35 66 30L18 17L20 0H192L194 17L109 40L118 20L294 474H283L455 34L382 17L384 0H566L568 17L519 28C502 32 496 40 488 60L303 535ZM175 212V181L402 184V211ZM566 0ZM293 0ZM296 535ZM425 710C425 734 413 751 392 751C370 751 355 728 355 703C355 680 368 661 389 661C414 661 425 686 425 710ZM235 710C235 734 223 751 202 751C180 751 165 728 165 703C165 680 178 661 199 661C224 661 235 686 235 710ZM296 785ZM296 535Z" glyph-name="adieresis.sc" horiz-adv-x="586" /><glyph d="M355 270C187 270 64 198 64 100C64 32 111 -10 188 -10C258 -10 314 30 352 74L342 102C304 57 250 25 194 25C140 25 107 49 107 102C107 184 207 240 355 240ZM249 505C162 505 74 432 74 372C74 351 87 337 107 337C115 337 122 339 128 343C123 354 121 363 121 375C121 420 170 472 240 472C303 472 342 436 342 372C342 335 338 187 338 67C338 19 363 -10 403 -10C433 -10 460 4 477 21L473 30C457 25 444 23 429 23C392 23 380 39 380 88C380 175 384 315 384 374C384 458 335 505 249 505ZM446 0ZM236 0ZM230 495ZM272 -165C272 -140 260 -122 238 -122C215 -122 200 -145 200 -169C200 -193 213 -212 235 -212C261 -212 272 -188 272 -165ZM236 0Z" glyph-name="adotbelow" horiz-adv-x="496" unicode="&#7841;" /><glyph d="M283 535 98 60C92 44 84 35 66 30L18 17L20 0H192L194 17L109 40L118 20L294 474H283L455 34L382 17L384 0H566L568 17L519 28C502 32 496 40 488 60L303 535ZM175 212V181L402 184V211ZM566 0ZM293 0ZM296 535ZM329 -165C329 -140 317 -122 295 -122C272 -122 257 -145 257 -169C257 -193 270 -212 292 -212C318 -212 329 -188 329 -165ZM293 0Z" glyph-name="adotbelow.sc" horiz-adv-x="586" /><glyph d="M374 97 359 123C316 66 256 25 194 25C140 25 107 49 107 102C107 184 207 240 355 240V270C187 270 64 198 64 100C64 32 111 -10 188 -10C267 -10 331 41 374 97ZM342 372C342 355 341 307 340 251H382C383 299 384 347 384 374C384 458 335 505 249 505C162 505 74 432 74 372C74 351 87 337 107 337C115 337 122 339 128 343C123 354 121 363 121 375C121 420 170 472 240 472C303 472 342 436 342 372ZM376 286 373 258H681L690 268L660 291ZM536 472C608 472 649 420 649 326C649 319 649 305 648 289L690 268C691 287 692 307 692 324C692 437 632 505 540 505C422 505 339 393 339 235C339 85 416 -10 537 -10C601 -10 661 20 694 70L682 80C644 43 599 25 548 25C446 25 382 112 382 254C382 382 443 472 536 472ZM384 495Z" glyph-name="ae" horiz-adv-x="742" unicode="&#230;" /><glyph d="M200 277V246L427 249V276ZM455 0H715C719 21 720 46 720 74C720 102 719 127 717 148H704L689 91C685 78 679 54 674 34C651 31 613 30 579 30H455ZM455 535V505H570C605 505 642 503 665 502C669 489 675 468 681 444L696 387H709C711 410 712 433 712 461C712 489 710 514 707 535ZM455 279V248L641 244L642 284ZM20 0H192L194 17L124 36L311 518L282 505H415V120H455V535H196L194 517L269 498L98 60C92 44 84 35 66 30L18 17ZM455 0V120H415V59C415 42 410 34 391 30L340 18L342 0ZM454 535Z" glyph-name="ae.sc" horiz-adv-x="770" /><glyph d="M374 97 359 123C316 66 256 25 194 25C140 25 107 49 107 102C107 184 207 240 355 240V270C187 270 64 198 64 100C64 32 111 -10 188 -10C267 -10 331 41 374 97ZM342 372C342 355 341 307 340 251H382C383 299 384 347 384 374C384 458 335 505 249 505C162 505 74 432 74 372C74 351 87 337 107 337C115 337 122 339 128 343C123 354 121 363 121 375C121 420 170 472 240 472C303 472 342 436 342 372ZM376 286 373 258H681L690 268L660 291ZM536 472C608 472 649 420 649 326C649 319 649 305 648 289L690 268C691 287 692 307 692 324C692 437 632 505 540 505C422 505 339 393 339 235C339 85 416 -10 537 -10C601 -10 661 20 694 70L682 80C644 43 599 25 548 25C446 25 382 112 382 254C382 382 443 472 536 472ZM384 495ZM486 732C486 745 476 755 454 755C453 755 451 755 450 755L445 753C423 712 372 650 319 593L331 581C397 631 486 698 486 732ZM403 745ZM384 495Z" glyph-name="aeacute" horiz-adv-x="742" unicode="&#509;" /><glyph d="M200 277V246L427 249V276ZM455 0H715C719 21 720 46 720 74C720 102 719 127 717 148H704L689 91C685 78 679 54 674 34C651 31 613 30 579 30H455ZM455 535V505H570C605 505 642 503 665 502C669 489 675 468 681 444L696 387H709C711 410 712 433 712 461C712 489 710 514 707 535ZM455 279V248L641 244L642 284ZM20 0H192L194 17L124 36L311 518L282 505H415V120H455V535H196L194 517L269 498L98 60C92 44 84 35 66 30L18 17ZM455 0V120H415V59C415 42 410 34 391 30L340 18L342 0ZM454 535ZM556 772C556 785 546 795 524 795C523 795 521 795 520 795L515 793C493 752 442 690 389 633L401 621C467 671 556 738 556 772ZM473 785ZM454 535Z" glyph-name="aeacute.sc" horiz-adv-x="770" /><glyph d="M355 270C187 270 64 198 64 100C64 32 111 -10 188 -10C258 -10 314 30 352 74L342 102C304 57 250 25 194 25C140 25 107 49 107 102C107 184 207 240 355 240ZM249 505C162 505 74 432 74 372C74 351 87 337 107 337C115 337 122 339 128 343C123 354 121 363 121 375C121 420 170 472 240 472C303 472 342 436 342 372C342 335 338 187 338 67C338 19 363 -10 403 -10C433 -10 460 4 477 21L473 30C457 25 444 23 429 23C392 23 380 39 380 88C380 175 384 315 384 374C384 458 335 505 249 505ZM446 0ZM236 0ZM230 495ZM293 593C240 650 189 712 167 753L162 755C161 755 159 755 158 755C136 755 126 745 126 732C126 698 215 631 281 581ZM210 745ZM230 495Z" glyph-name="agrave" horiz-adv-x="496" unicode="&#224;" /><glyph d="M283 535 98 60C92 44 84 35 66 30L18 17L20 0H192L194 17L109 40L118 20L294 474H283L455 34L382 17L384 0H566L568 17L519 28C502 32 496 40 488 60L303 535ZM175 212V181L402 184V211ZM566 0ZM293 0ZM296 535ZM359 633C306 690 255 752 233 793L228 795C227 795 225 795 224 795C202 795 192 785 192 772C192 738 281 671 347 621ZM276 785ZM296 535Z" glyph-name="agrave.sc" horiz-adv-x="586" /><glyph d="M355 270C187 270 64 198 64 100C64 32 111 -10 188 -10C258 -10 314 30 352 74L342 102C304 57 250 25 194 25C140 25 107 49 107 102C107 184 207 240 355 240ZM249 505C162 505 74 432 74 372C74 351 87 337 107 337C115 337 122 339 128 343C123 354 121 363 121 375C121 420 170 472 240 472C303 472 342 436 342 372C342 335 338 187 338 67C338 19 363 -10 403 -10C433 -10 460 4 477 21L473 30C457 25 444 23 429 23C392 23 380 39 380 88C380 175 384 315 384 374C384 458 335 505 249 505ZM446 0ZM236 0ZM230 495ZM103 653H357V687H103ZM230 495Z" glyph-name="amacron" horiz-adv-x="496" unicode="&#257;" /><glyph d="M283 535 98 60C92 44 84 35 66 30L18 17L20 0H192L194 17L109 40L118 20L294 474H283L455 34L382 17L384 0H566L568 17L519 28C502 32 496 40 488 60L303 535ZM175 212V181L402 184V211ZM566 0ZM293 0ZM296 535ZM169 693H423V727H169ZM296 535Z" glyph-name="amacron.sc" horiz-adv-x="586" /><glyph d="M310 -10C475 -10 579 111 579 262C579 316 562 363 527 363C516 363 507 359 502 353C524 327 534 292 534 256C534 122 448 25 313 25C208 25 129 93 129 192C129 270 184 342 256 360L239 381C151 360 84 276 84 184C84 72 178 -10 310 -10ZM718 21 714 30C639 9 582 31 509 108L269 360C212 420 184 468 184 530C184 604 244 661 314 661C384 661 424 611 426 549C426 540 425 531 423 519C429 516 435 515 443 515C462 515 474 532 474 559C474 637 415 695 319 695C223 695 139 624 139 528C139 461 166 406 238 330L423 134C521 30 567 -10 639 -10C679 -10 703 6 718 21Z" glyph-name="ampersand" horiz-adv-x="762" unicode="&amp;" /><glyph d="M310 -10C475 -10 579 111 579 262C579 316 562 363 527 363C516 363 507 359 502 353C524 327 534 292 534 256C534 122 448 25 313 25C208 25 129 93 129 192C129 270 184 342 256 360L239 381C151 360 84 276 84 184C84 72 178 -10 310 -10ZM718 21 714 30C639 9 582 31 509 108L269 360C212 420 184 468 184 530C184 604 244 661 314 661C384 661 424 611 426 549C426 540 425 531 423 519C429 516 435 515 443 515C462 515 474 532 474 559C474 637 415 695 319 695C223 695 139 624 139 528C139 461 166 406 238 330L423 134C521 30 567 -10 639 -10C679 -10 703 6 718 21Z" glyph-name="ampersand.caps" horiz-adv-x="762" /><glyph d="M293 -10C450 -10 549 99 549 214C549 259 529 303 497 303C487 303 480 299 475 293C496 268 507 244 507 205C507 101 425 25 296 25C191 25 112 77 112 162C112 221 168 272 239 290L222 311C137 290 70 228 70 156C70 57 163 -10 293 -10ZM221 260 390 124C493 41 547 -10 592 -10C619 -10 640 6 651 21L647 30C632 27 619 25 606 25C566 25 536 54 482 98L258 282C203 327 177 355 177 411C177 467 227 511 292 511C356 511 394 472 394 424C394 412 393 404 391 394C396 391 401 390 408 390C424 390 437 406 437 430C437 495 372 545 297 545C211 545 135 486 135 405C135 356 159 310 221 260Z" glyph-name="ampersand.sc" horiz-adv-x="681" /><glyph d="M355 270C187 270 64 198 64 100C64 32 111 -10 188 -10C258 -10 314 30 352 74L342 102C304 57 250 25 194 25C140 25 107 49 107 102C107 184 207 240 355 240ZM249 505C162 505 74 432 74 372C74 351 87 337 107 337C115 337 122 339 128 343C123 354 121 363 121 375C121 420 170 472 240 472C303 472 342 436 342 372C342 335 338 187 338 67C338 19 363 -10 403 -10C433 -10 460 4 477 21L473 30C457 25 444 23 429 23C392 23 380 39 380 88C380 175 384 315 384 374C384 458 335 505 249 505ZM446 0ZM236 0ZM230 495ZM450 -181 446 -172C425 -177 412 -179 394 -179C357 -179 335 -160 335 -127C335 -85 371 -43 446 0L436 17C340 -30 293 -83 293 -138C293 -185 321 -212 368 -212C397 -212 429 -200 450 -181ZM446 0Z" glyph-name="aogonek" horiz-adv-x="496" unicode="&#261;" /><glyph d="M283 535 98 60C92 44 84 35 66 30L18 17L20 0H192L194 17L109 40L118 20L294 474H283L455 34L382 17L384 0H566L568 17L519 28C502 32 496 40 488 60L303 535ZM175 212V181L402 184V211ZM566 0ZM293 0ZM296 535ZM570 -181 566 -172C545 -177 532 -179 514 -179C477 -179 455 -160 455 -127C455 -85 491 -43 566 0L556 17C460 -30 413 -83 413 -138C413 -185 441 -212 488 -212C517 -212 549 -200 570 -181ZM566 0Z" glyph-name="aogonek.sc" horiz-adv-x="588" /><glyph d="M404 315C368 315 188 370 155 370C143 370 118 340 92 308L67 323C89 360 120 411 156 411C193 411 364 356 405 356C417 356 441 385 468 418L493 403C472 366 441 315 404 315ZM404 121C368 121 188 176 155 176C143 176 118 146 92 114L67 129C89 166 120 217 156 217C193 217 364 162 405 162C417 162 441 191 468 224L493 209C472 172 441 121 404 121Z" glyph-name="approxequal" horiz-adv-x="560" unicode="&#8776;" /><glyph d="M404 391C368 391 188 446 155 446C143 446 118 416 92 384L67 399C89 436 120 487 156 487C193 487 364 432 405 432C417 432 441 461 468 494L493 479C472 442 441 391 404 391ZM404 197C368 197 188 252 155 252C143 252 118 222 92 190L67 205C89 242 120 293 156 293C193 293 364 238 405 238C417 238 441 267 468 300L493 285C472 248 441 197 404 197Z" glyph-name="approxequal.lf" horiz-adv-x="560" /><glyph d="M404 315C368 315 188 370 155 370C143 370 118 340 92 308L67 323C89 360 120 411 156 411C193 411 364 356 405 356C417 356 441 385 468 418L493 403C472 366 441 315 404 315ZM404 121C368 121 188 176 155 176C143 176 118 146 92 114L67 129C89 166 120 217 156 217C193 217 364 162 405 162C417 162 441 191 468 224L493 209C472 172 441 121 404 121Z" glyph-name="approxequal.osf" horiz-adv-x="560" /><glyph d="M404 315C368 315 188 370 155 370C143 370 118 340 92 308L67 323C89 360 120 411 156 411C193 411 364 356 405 356C417 356 441 385 468 418L493 403C472 366 441 315 404 315ZM404 121C368 121 188 176 155 176C143 176 118 146 92 114L67 129C89 166 120 217 156 217C193 217 364 162 405 162C417 162 441 191 468 224L493 209C472 172 441 121 404 121Z" glyph-name="approxequal.sc" horiz-adv-x="560" /><glyph d="M355 270C187 270 64 198 64 100C64 32 111 -10 188 -10C258 -10 314 30 352 74L342 102C304 57 250 25 194 25C140 25 107 49 107 102C107 184 207 240 355 240ZM249 505C162 505 74 432 74 372C74 351 87 337 107 337C115 337 122 339 128 343C123 354 121 363 121 375C121 420 170 472 240 472C303 472 342 436 342 372C342 335 338 187 338 67C338 19 363 -10 403 -10C433 -10 460 4 477 21L473 30C457 25 444 23 429 23C392 23 380 39 380 88C380 175 384 315 384 374C384 458 335 505 249 505ZM446 0ZM236 0ZM230 495ZM226 596C271 596 305 627 307 670C309 710 277 739 233 739C187 739 153 709 153 665C153 624 183 596 226 596ZM230 716C255 716 273 697 273 671C273 641 255 619 229 619C204 619 186 638 186 665C186 694 204 716 230 716ZM230 745ZM230 495Z" glyph-name="aring" horiz-adv-x="496" unicode="&#229;" /><glyph d="M283 535 98 60C92 44 84 35 66 30L18 17L20 0H192L194 17L109 40L118 20L294 474H283L455 34L382 17L384 0H566L568 17L519 28C502 32 496 40 488 60L303 535ZM175 212V181L402 184V211ZM566 0ZM293 0ZM296 535ZM292 636C337 636 371 667 373 710C375 750 343 779 299 779C253 779 219 749 219 705C219 664 249 636 292 636ZM296 756C321 756 339 737 339 711C339 681 321 659 295 659C270 659 252 678 252 705C252 734 270 756 296 756ZM296 785ZM296 535Z" glyph-name="aring.sc" horiz-adv-x="586" /><glyph d="M355 270C187 270 64 198 64 100C64 32 111 -10 188 -10C258 -10 314 30 352 74L342 102C304 57 250 25 194 25C140 25 107 49 107 102C107 184 207 240 355 240ZM249 505C162 505 74 432 74 372C74 351 87 337 107 337C115 337 122 339 128 343C123 354 121 363 121 375C121 420 170 472 240 472C303 472 342 436 342 372C342 335 338 187 338 67C338 19 363 -10 403 -10C433 -10 460 4 477 21L473 30C457 25 444 23 429 23C392 23 380 39 380 88C380 175 384 315 384 374C384 458 335 505 249 505ZM446 0ZM236 0ZM230 495ZM226 596C271 596 305 627 307 670C309 710 277 739 233 739C187 739 153 709 153 665C153 624 183 596 226 596ZM230 716C255 716 273 697 273 671C273 641 255 619 229 619C204 619 186 638 186 665C186 694 204 716 230 716ZM230 745ZM230 495ZM332 982C332 995 322 1005 300 1005C299 1005 297 1005 296 1005L291 1003C269 962 218 900 165 843L177 831C243 881 332 948 332 982ZM249 995ZM230 745Z" glyph-name="aringacute" horiz-adv-x="496" unicode="&#507;" /><glyph d="M283 535 98 60C92 44 84 35 66 30L18 17L20 0H192L194 17L109 40L118 20L294 474H283L455 34L382 17L384 0H566L568 17L519 28C502 32 496 40 488 60L303 535ZM175 212V181L402 184V211ZM566 0ZM293 0ZM296 535ZM292 636C337 636 371 667 373 710C375 750 343 779 299 779C253 779 219 749 219 705C219 664 249 636 292 636ZM296 756C321 756 339 737 339 711C339 681 321 659 295 659C270 659 252 678 252 705C252 734 270 756 296 756ZM296 785ZM296 535ZM398 1022C398 1035 388 1045 366 1045C365 1045 363 1045 362 1045L357 1043C335 1002 284 940 231 883L243 871C309 921 398 988 398 1022ZM315 1035ZM296 785Z" glyph-name="aringacute.sc" horiz-adv-x="586" /><glyph d="M135 210 261 512H258L391 210H435L288 545H232L90 210Z" glyph-name="asciicircum" horiz-adv-x="526" unicode="^" /><glyph d="M382 218C346 218 166 273 133 273C121 273 96 243 70 211L45 226C67 263 98 314 134 314C171 314 342 259 383 259C395 259 419 288 446 321L471 306C450 269 419 218 382 218Z" glyph-name="asciitilde" horiz-adv-x="520" unicode="~" /><glyph d="M244 507C244 533 233 568 230 609C265 586 290 559 312 546C324 539 335 542 341 553C347 563 344 574 332 581C310 594 273 602 237 620C273 638 310 646 332 659C344 666 347 677 341 688C335 698 324 701 312 694C290 681 265 654 230 631C233 672 244 707 244 733C244 747 236 755 224 755C212 755 204 747 204 733C204 707 215 672 218 631C183 654 158 681 136 694C124 701 113 698 107 688C101 677 104 666 116 659C138 646 175 638 211 620C175 602 138 594 116 581C104 574 101 563 107 553C113 542 124 539 136 546C158 559 183 586 218 609C215 568 204 533 204 507C204 493 212 485 224 485C236 485 244 493 244 507Z" glyph-name="asterisk" horiz-adv-x="448" unicode="*" /><glyph d="M244 507C244 533 233 568 230 609C265 586 290 559 312 546C324 539 335 542 341 553C347 563 344 574 332 581C310 594 273 602 237 620C273 638 310 646 332 659C344 666 347 677 341 688C335 698 324 701 312 694C290 681 265 654 230 631C233 672 244 707 244 733C244 747 236 755 224 755C212 755 204 747 204 733C204 707 215 672 218 631C183 654 158 681 136 694C124 701 113 698 107 688C101 677 104 666 116 659C138 646 175 638 211 620C175 602 138 594 116 581C104 574 101 563 107 553C113 542 124 539 136 546C158 559 183 586 218 609C215 568 204 533 204 507C204 493 212 485 224 485C236 485 244 493 244 507Z" glyph-name="asterisk.caps" horiz-adv-x="448" /><glyph d="M230 342C230 368 219 403 216 444C251 421 276 394 298 381C310 374 321 377 327 388C333 398 330 409 318 416C296 429 259 437 223 455C259 473 296 481 318 494C330 501 333 512 327 523C321 533 310 536 298 529C276 516 251 489 216 466C219 507 230 542 230 568C230 582 222 590 210 590C198 590 190 582 190 568C190 542 201 507 204 466C169 489 144 516 122 529C110 536 99 533 93 523C87 512 90 501 102 494C124 481 161 473 197 455C161 437 124 429 102 416C90 409 87 398 93 388C99 377 110 374 122 381C144 394 169 421 204 444C201 403 190 368 190 342C190 328 198 320 210 320C222 320 230 328 230 342Z" glyph-name="asterisk.sc" horiz-adv-x="420" /><glyph d="M392 117C392 303 518 470 632 470C657 470 673 465 688 459L677 415C651 312 507 30 437 30C408 30 392 68 392 117ZM758 30C680 30 655 120 687 260L730 446L739 485C718 495 684 505 646 505C485 505 347 316 347 116C347 34 379 -10 423 -10C507 -10 595 145 643 256L630 170C615 70 655 -10 752 -10C902 -10 1027 157 1027 352C1027 582 867 755 630 755C359 755 64 522 64 171C64 -68 236 -255 489 -255C613 -255 712 -216 782 -160L767 -135C697 -175 617 -215 481 -215C265 -215 109 -45 109 179C109 501 386 715 625 715C834 715 982 564 982 355C982 163 865 30 758 30Z" glyph-name="at" horiz-adv-x="1091" unicode="@" /><glyph d="M355 270C187 270 64 198 64 100C64 32 111 -10 188 -10C258 -10 314 30 352 74L342 102C304 57 250 25 194 25C140 25 107 49 107 102C107 184 207 240 355 240ZM249 505C162 505 74 432 74 372C74 351 87 337 107 337C115 337 122 339 128 343C123 354 121 363 121 375C121 420 170 472 240 472C303 472 342 436 342 372C342 335 338 187 338 67C338 19 363 -10 403 -10C433 -10 460 4 477 21L473 30C457 25 444 23 429 23C392 23 380 39 380 88C380 175 384 315 384 374C384 458 335 505 249 505ZM446 0ZM236 0ZM230 495ZM131 681C159 679 275 624 318 624C360 624 379 659 390 720C390 720 390 720 390 720L376 726C356 693 343 677 330 659C299 660 188 716 143 716C103 716 81 681 70 619C70 619 70 619 70 619L84 614C103 646 121 670 131 681ZM230 745ZM230 495Z" glyph-name="atilde" horiz-adv-x="496" unicode="&#227;" /><glyph d="M283 535 98 60C92 44 84 35 66 30L18 17L20 0H192L194 17L109 40L118 20L294 474H283L455 34L382 17L384 0H566L568 17L519 28C502 32 496 40 488 60L303 535ZM175 212V181L402 184V211ZM566 0ZM293 0ZM296 535ZM197 721C225 719 341 664 384 664C426 664 445 699 456 760C456 760 456 760 456 760L442 766C422 733 409 717 396 699C365 700 254 756 209 756C169 756 147 721 136 659C136 659 136 659 136 659L150 654C169 686 187 710 197 721ZM296 785ZM296 535Z" glyph-name="atilde.sc" horiz-adv-x="586" /><glyph d="M151 635H111V-5L121 -10L151 15ZM270 23C214 23 164 41 135 63L130 25C155 9 212 -10 268 -10C401 -10 484 95 484 250C484 406 415 505 291 505C223 505 163 465 133 423L143 393C181 441 228 472 289 472C384 472 441 384 441 250C441 112 379 23 270 23ZM151 635V745L141 755C110 750 66 740 36 730L38 716L111 710V635Z" glyph-name="b" horiz-adv-x="540" unicode="b" /><glyph d="M128 425H94V-74L103 -78L128 -58ZM225 -52C179 -52 138 -38 114 -19L110 -49C131 -63 177 -78 223 -78C333 -78 401 4 401 125C401 247 344 324 242 324C187 324 137 293 113 260L121 236C152 273 191 296 241 296C318 296 365 228 365 124C365 17 314 -52 225 -52ZM128 425V511L119 519C94 515 58 507 33 499L35 488L94 482V425Z" glyph-name="b.inferior" horiz-adv-x="443" /><glyph d="M132 415V120H172V415ZM172 0V30H260C354 30 415 73 415 145C415 215 348 258 244 258H172V287H248C321 287 378 331 378 400C378 467 327 505 240 505H172V535H247C351 535 418 486 418 403C418 335 373 293 323 278C405 261 457 213 457 145C457 50 379 0 262 0ZM172 535H59L57 517L108 505C127 501 132 493 132 476V415H172ZM172 0V120H132V59C132 42 127 34 108 30L57 18L59 0Z" glyph-name="b.sc" horiz-adv-x="499" /><glyph d="M128 864H94V365L103 361L128 381ZM225 387C179 387 138 401 114 420L110 390C131 376 177 361 223 361C333 361 401 443 401 564C401 686 344 763 242 763C187 763 137 732 113 699L121 675C152 712 191 735 241 735C318 735 365 667 365 563C365 456 314 387 225 387ZM128 864V950L119 958C94 954 58 946 33 938L35 927L94 921V864Z" glyph-name="b.superior" horiz-adv-x="443" /><glyph d="M271 -10 302 -5 310 3 122 755 92 750 84 742Z" glyph-name="backslash" horiz-adv-x="394" unicode="\" /><glyph d="M271 -40 302 -35 310 -27 122 725 92 720 84 712Z" glyph-name="backslash.caps" horiz-adv-x="394" /><glyph d="M250 -31 221 -40 210 -37 70 525 100 535 110 531Z" glyph-name="backslash.sc" horiz-adv-x="320" /><glyph d="M151 -255 184 -252V748L177 755L144 752V-248Z" glyph-name="bar" horiz-adv-x="328" unicode="|" /><glyph d="M104 295V269C174 269 209 235 209 175C209 91 172 25 172 -61C172 -145 232 -193 336 -193L339 -175C249 -169 215 -135 215 -64C215 20 251 86 251 173C251 223 229 271 166 287V277C229 293 251 341 251 391C251 478 215 544 215 628C215 699 249 733 339 739L336 757C232 757 172 709 172 625C172 539 209 473 209 389C209 329 174 295 104 295Z" glyph-name="braceleft" horiz-adv-x="403" unicode="{" /><glyph d="M199 245C199 193 172 152 172 99C172 30 232 -10 336 -10L339 8C249 14 215 40 215 96C215 148 241 189 241 243C241 301 209 354 110 354V330C209 330 241 383 241 441C241 495 215 536 215 588C215 645 249 671 339 677L336 695C232 695 172 655 172 585C172 532 199 491 199 439C199 385 168 355 104 355V329C168 329 199 299 199 245Z" glyph-name="braceleft.caps" horiz-adv-x="403" /><glyph d="M175 168C175 116 148 75 148 22C148 -47 208 -87 312 -87L315 -69C225 -63 191 -37 191 19C191 71 217 112 217 166C217 224 185 277 86 277V253C185 253 217 306 217 364C217 418 191 459 191 511C191 568 225 594 315 600L312 618C208 618 148 578 148 508C148 455 175 414 175 362C175 308 144 278 80 278V252C144 252 175 222 175 168Z" glyph-name="braceleft.sc" horiz-adv-x="375" /><glyph d="M299 295V269C229 269 194 235 194 175C194 91 231 25 231 -61C231 -145 171 -193 67 -193L64 -175C154 -169 188 -135 188 -64C188 20 152 86 152 173C152 223 174 271 237 287V277C174 293 152 341 152 391C152 478 188 544 188 628C188 699 154 733 64 739L67 757C171 757 231 709 231 625C231 539 194 473 194 389C194 329 229 295 299 295Z" glyph-name="braceright" horiz-adv-x="403" unicode="}" /><glyph d="M204 245C204 193 231 152 231 99C231 30 171 -10 67 -10L64 8C154 14 188 40 188 96C188 148 162 189 162 243C162 301 194 354 293 354V330C194 330 162 383 162 441C162 495 188 536 188 588C188 645 154 671 64 677L67 695C171 695 231 655 231 585C231 532 204 491 204 439C204 385 235 355 299 355V329C235 329 204 299 204 245Z" glyph-name="braceright.caps" horiz-adv-x="403" /><glyph d="M200 168C200 116 227 75 227 22C227 -47 167 -87 63 -87L60 -69C150 -63 184 -37 184 19C184 71 158 112 158 166C158 224 190 277 289 277V253C190 253 158 306 158 364C158 418 184 459 184 511C184 568 150 594 60 600L63 618C167 618 227 578 227 508C227 455 200 414 200 362C200 308 231 278 295 278V252C231 252 200 222 200 168Z" glyph-name="braceright.sc" horiz-adv-x="375" /><glyph d="M313 -193V-169H186V736H313V760H144V-193Z" glyph-name="bracketleft" horiz-adv-x="377" unicode="[" /><glyph d="M313 -10V14H186V671H313V695H144V-10Z" glyph-name="bracketleft.caps" horiz-adv-x="377" /><glyph d="M299 -87V-63H172V594H299V618H130V-87Z" glyph-name="bracketleft.sc" horiz-adv-x="349" /><glyph d="M64 755V731H191V-174H64V-198H233V755Z" glyph-name="bracketright" horiz-adv-x="377" unicode="]" /><glyph d="M64 -10V14H191V671H64V695H233V-10Z" glyph-name="bracketright.caps" horiz-adv-x="377" /><glyph d="M50 -87V-63H177V594H50V618H219V-87Z" glyph-name="bracketright.sc" horiz-adv-x="349" /><glyph d="M320 728C304 678 267 648 221 648C170 648 132 679 117 730L100 727C111 650 156 605 216 605C277 605 323 650 338 727L324 730Z" glyph-name="breve" horiz-adv-x="438" unicode="&#728;" /><glyph d="M320 888C304 851 267 828 221 828C170 828 132 851 117 890L100 887C111 823 156 785 216 785C277 785 323 823 338 887L324 890Z" glyph-name="breve.case" horiz-adv-x="438" /><glyph d="M320 728C304 678 267 648 221 648C170 648 132 679 117 730L100 727C111 650 156 605 216 605C277 605 323 650 338 727L324 730ZM219 745ZM219 495Z" glyph-name="brevecomb" horiz-adv-x="438" unicode="&#774;" /><glyph d="M320 888C304 851 267 828 221 828C170 828 132 851 117 890L100 887C111 823 156 785 216 785C277 785 323 823 338 887L324 890ZM219 685Z" glyph-name="brevecomb.case" horiz-adv-x="438" /><glyph d="M306 721C299 647 257 599 200 599C144 599 105 647 100 721L117 724C126 675 161 642 205 642C248 642 281 674 288 722L292 724ZM202 495Z" glyph-name="brevecomb.i" horiz-adv-x="406" /><glyph d="M184 377V748L177 755L144 752V381L161 374ZM184 -252V119L177 126L144 123V-248L161 -255Z" glyph-name="brokenbar" horiz-adv-x="328" unicode="&#166;" /><glyph d="M198 160C266 160 298 219 298 277C298 332 264 374 206 374C145 374 104 318 104 259C104 206 140 160 198 160Z" glyph-name="bullet" horiz-adv-x="402" unicode="&#8226;" /><glyph d="M198 232C266 232 298 291 298 349C298 404 264 446 206 446C145 446 104 390 104 331C104 278 140 232 198 232Z" glyph-name="bullet.caps" horiz-adv-x="402" /><glyph d="M184 157C252 157 284 216 284 274C284 329 250 371 192 371C131 371 90 315 90 256C90 203 126 157 184 157Z" glyph-name="bullet.sc" horiz-adv-x="374" /><glyph d="M411 70 399 80C361 43 316 25 265 25C160 25 99 112 99 254C99 382 163 472 253 472C316 472 357 431 357 370C357 361 356 352 354 340C359 338 365 337 372 337C390 337 401 354 401 380C401 451 338 505 257 505C139 505 56 393 56 235C56 85 134 -10 257 -10C320 -10 378 20 411 70ZM258 495ZM240 0Z" glyph-name="c" horiz-adv-x="443" unicode="c" /><glyph d="M325 226C325 282 273 324 207 324C110 324 42 237 42 113C42 -4 106 -78 207 -78C258 -78 306 -53 333 -14L323 -6C292 -34 255 -48 213 -48C127 -48 77 19 77 129C77 228 130 298 203 298C255 298 288 266 288 217C288 210 288 203 286 194C290 193 295 192 301 192C316 192 325 205 325 226Z" glyph-name="c.inferior" horiz-adv-x="351" /><glyph d="M457 11C460 32 460 54 460 78C460 100 458 126 454 146H441C433 110 421 66 410 30C389 25 371 22 325 22C185 22 92 114 92 260C92 414 192 513 319 513C353 513 375 509 399 504C409 474 421 426 430 386H443C447 415 449 444 449 473C449 492 448 508 446 521C415 535 379 545 320 545C171 545 50 436 50 260C50 89 156 -10 326 -10C381 -10 428 0 457 11ZM290 535ZM304 0Z" glyph-name="c.sc" horiz-adv-x="518" /><glyph d="M325 665C325 721 273 763 207 763C110 763 42 676 42 552C42 435 106 361 207 361C258 361 306 386 333 425L323 433C292 405 255 391 213 391C127 391 77 458 77 568C77 667 130 737 203 737C255 737 288 705 288 656C288 649 288 642 286 633C290 632 295 631 301 631C316 631 325 644 325 665Z" glyph-name="c.superior" horiz-adv-x="351" /><glyph d="M546 755C404 699 316 614 316 464C316 419 345 386 371 386C386 386 396 396 396 415C396 464 331 505 266 505C143 505 56 393 56 235C56 85 134 -10 257 -10C320 -10 378 20 411 70L399 80C361 43 316 25 265 25C160 25 99 112 99 254C99 368 163 472 261 472C297 472 326 457 346 451C346 591 432 670 527 705ZM556 635V745L546 755L516 710V635ZM556 635H516V120H556ZM816 120H856V353C856 451 807 505 715 505C655 505 594 477 545 431L556 405C601 448 655 472 708 472C780 472 816 429 816 353ZM556 35V120H516V60C516 40 511 35 489 29L441 16L443 0H629L631 16ZM856 35V120H816V60C816 40 811 35 789 29L741 16L743 0H929L931 16Z" glyph-name="c_h" horiz-adv-x="970" /><glyph d="M451 480 453 460H746V490H521V130C521 39 561 -10 634 -10C687 -10 740 23 773 70L761 80C723 45 682 25 642 25C586 25 561 63 561 145V490H541C558 509 587 546 587 598C587 672 533 730 456 730C354 730 286 648 286 546C286 458 333 386 369 386C384 386 396 396 396 415C396 464 331 505 266 505C143 505 56 393 56 235C56 85 134 -10 257 -10C320 -10 378 20 411 70L399 80C361 43 316 25 265 25C160 25 99 112 99 254C99 368 163 472 261 472C297 472 326 457 346 451C329 482 321 502 321 545C321 632 373 698 452 698C508 698 549 657 549 599C549 545 517 495 451 480Z" glyph-name="c_t" horiz-adv-x="805" /><glyph d="M411 70 399 80C361 43 316 25 265 25C160 25 99 112 99 254C99 382 163 472 253 472C316 472 357 431 357 370C357 361 356 352 354 340C359 338 365 337 372 337C390 337 401 354 401 380C401 451 338 505 257 505C139 505 56 393 56 235C56 85 134 -10 257 -10C320 -10 378 20 411 70ZM258 495ZM240 0ZM360 732C360 745 350 755 328 755C327 755 325 755 324 755L319 753C297 712 246 650 193 593L205 581C271 631 360 698 360 732ZM277 745ZM258 495Z" glyph-name="cacute" horiz-adv-x="443" unicode="&#263;" /><glyph d="M457 11C460 32 460 54 460 78C460 100 458 126 454 146H441C433 110 421 66 410 30C389 25 371 22 325 22C185 22 92 114 92 260C92 414 192 513 319 513C353 513 375 509 399 504C409 474 421 426 430 386H443C447 415 449 444 449 473C449 492 448 508 446 521C415 535 379 545 320 545C171 545 50 436 50 260C50 89 156 -10 326 -10C381 -10 428 0 457 11ZM290 535ZM304 0ZM392 772C392 785 382 795 360 795C359 795 357 795 356 795L351 793C329 752 278 690 225 633L237 621C303 671 392 738 392 772ZM309 785ZM290 535Z" glyph-name="cacute.sc" horiz-adv-x="518" /><glyph d="M218 617 244 619C197 660 150 712 114 752L100 742C139 682 180 624 207 588H248L254 592C269 621 320 694 357 740L345 752C304 714 240 646 218 617Z" glyph-name="caron" horiz-adv-x="457" unicode="&#711;" /><glyph d="M228 801 254 803C203 834 153 874 114 905L100 895C143 847 189 800 219 771H256L262 775C279 798 336 856 377 893L365 905C321 876 252 823 228 801Z" glyph-name="caron.case" horiz-adv-x="477" /><glyph d="M218 617 244 619C197 660 150 712 114 752L100 742C139 682 180 624 207 588H248L254 592C269 621 320 694 357 740L345 752C304 714 240 646 218 617ZM228 745ZM229 495Z" glyph-name="caroncomb" horiz-adv-x="457" unicode="&#780;" /><glyph d="M184 702C184 729 169 745 145 745C122 745 103 724 103 700C103 675 121 660 146 660L140 692C139 653 121 588 100 555L111 546C149 579 184 650 184 702ZM139 495Z" glyph-name="caroncomb.alt" horiz-adv-x="284" /><glyph d="M228 801 254 803C203 834 153 874 114 905L100 895C143 847 189 800 219 771H256L262 775C279 798 336 856 377 893L365 905C321 876 252 823 228 801ZM239 685Z" glyph-name="caroncomb.case" horiz-adv-x="477" /><glyph d="M188 607 214 609C178 651 142 704 114 745L100 735C128 675 157 617 176 581H219L225 585C236 614 271 687 297 733L285 745C254 707 205 637 188 607ZM198 831ZM192 500Z" glyph-name="caroncomb.i" horiz-adv-x="397" /><glyph d="M411 70 399 80C361 43 316 25 265 25C160 25 99 112 99 254C99 382 163 472 253 472C316 472 357 431 357 370C357 361 356 352 354 340C359 338 365 337 372 337C390 337 401 354 401 380C401 451 338 505 257 505C139 505 56 393 56 235C56 85 134 -10 257 -10C320 -10 378 20 411 70ZM258 495ZM240 0ZM247 617 273 619C226 660 179 712 143 752L129 742C168 682 209 624 236 588H277L283 592C298 621 349 694 386 740L374 752C333 714 269 646 247 617ZM257 745ZM258 495Z" glyph-name="ccaron" horiz-adv-x="443" unicode="&#269;" /><glyph d="M457 11C460 32 460 54 460 78C460 100 458 126 454 146H441C433 110 421 66 410 30C389 25 371 22 325 22C185 22 92 114 92 260C92 414 192 513 319 513C353 513 375 509 399 504C409 474 421 426 430 386H443C447 415 449 444 449 473C449 492 448 508 446 521C415 535 379 545 320 545C171 545 50 436 50 260C50 89 156 -10 326 -10C381 -10 428 0 457 11ZM290 535ZM304 0ZM279 657 305 659C258 700 211 752 175 792L161 782C200 722 241 664 268 628H309L315 632C330 661 381 734 418 780L406 792C365 754 301 686 279 657ZM289 785ZM290 535Z" glyph-name="ccaron.sc" horiz-adv-x="518" /><glyph d="M411 70 399 80C361 43 316 25 265 25C160 25 99 112 99 254C99 382 163 472 253 472C316 472 357 431 357 370C357 361 356 352 354 340C359 338 365 337 372 337C390 337 401 354 401 380C401 451 338 505 257 505C139 505 56 393 56 235C56 85 134 -10 257 -10C320 -10 378 20 411 70ZM258 495ZM240 0ZM214 -91C260 -102 275 -119 275 -138C275 -166 244 -184 192 -197L196 -212C255 -205 318 -180 318 -133C318 -103 292 -77 244 -64L242 -84L257 0H226L211 -86ZM240 0Z" glyph-name="ccedilla" horiz-adv-x="443" unicode="&#231;" /><glyph d="M457 11C460 32 460 54 460 78C460 100 458 126 454 146H441C433 110 421 66 410 30C389 25 371 22 325 22C185 22 92 114 92 260C92 414 192 513 319 513C353 513 375 509 399 504C409 474 421 426 430 386H443C447 415 449 444 449 473C449 492 448 508 446 521C415 535 379 545 320 545C171 545 50 436 50 260C50 89 156 -10 326 -10C381 -10 428 0 457 11ZM290 535ZM304 0ZM278 -91C324 -102 339 -119 339 -138C339 -166 308 -184 256 -197L260 -212C319 -205 382 -180 382 -133C382 -103 356 -77 308 -64L306 -84L321 0H290L275 -86ZM304 0Z" glyph-name="ccedilla.sc" horiz-adv-x="518" /><glyph d="M411 70 399 80C361 43 316 25 265 25C160 25 99 112 99 254C99 382 163 472 253 472C316 472 357 431 357 370C357 361 356 352 354 340C359 338 365 337 372 337C390 337 401 354 401 380C401 451 338 505 257 505C139 505 56 393 56 235C56 85 134 -10 257 -10C320 -10 378 20 411 70ZM258 495ZM240 0ZM268 721 242 719C289 678 336 626 372 586L386 596C347 656 306 714 279 750H238L232 746C217 717 166 644 129 598L141 586C182 624 246 692 268 721ZM257 745ZM258 495Z" glyph-name="ccircumflex" horiz-adv-x="443" unicode="&#265;" /><glyph d="M457 11C460 32 460 54 460 78C460 100 458 126 454 146H441C433 110 421 66 410 30C389 25 371 22 325 22C185 22 92 114 92 260C92 414 192 513 319 513C353 513 375 509 399 504C409 474 421 426 430 386H443C447 415 449 444 449 473C449 492 448 508 446 521C415 535 379 545 320 545C171 545 50 436 50 260C50 89 156 -10 326 -10C381 -10 428 0 457 11ZM290 535ZM304 0ZM300 761 274 759C321 718 368 666 404 626L418 636C379 696 338 754 311 790H270L264 786C249 757 198 684 161 638L173 626C214 664 278 732 300 761ZM289 785ZM290 535Z" glyph-name="ccircumflex.sc" horiz-adv-x="518" /><glyph d="M411 70 399 80C361 43 316 25 265 25C160 25 99 112 99 254C99 382 163 472 253 472C316 472 357 431 357 370C357 361 356 352 354 340C359 338 365 337 372 337C390 337 401 354 401 380C401 451 338 505 257 505C139 505 56 393 56 235C56 85 134 -10 257 -10C320 -10 378 20 411 70ZM258 495ZM240 0ZM294 665C294 690 282 708 260 708C237 708 222 685 222 661C222 637 235 618 257 618C283 618 294 642 294 665ZM258 745ZM258 495Z" glyph-name="cdotaccent" horiz-adv-x="443" unicode="&#267;" /><glyph d="M457 11C460 32 460 54 460 78C460 100 458 126 454 146H441C433 110 421 66 410 30C389 25 371 22 325 22C185 22 92 114 92 260C92 414 192 513 319 513C353 513 375 509 399 504C409 474 421 426 430 386H443C447 415 449 444 449 473C449 492 448 508 446 521C415 535 379 545 320 545C171 545 50 436 50 260C50 89 156 -10 326 -10C381 -10 428 0 457 11ZM290 535ZM304 0ZM326 705C326 730 314 748 292 748C269 748 254 725 254 701C254 677 267 658 289 658C315 658 326 682 326 705ZM290 785ZM290 535Z" glyph-name="cdotaccent.sc" horiz-adv-x="518" /><glyph d="M122 -91C168 -102 183 -119 183 -138C183 -166 152 -184 100 -197L104 -212C163 -205 226 -180 226 -133C226 -103 200 -77 152 -64L150 -84L165 0H134L119 -86Z" glyph-name="cedilla" horiz-adv-x="326" unicode="&#184;" /><glyph d="M122 -91C168 -102 183 -119 183 -138C183 -166 152 -184 100 -197L104 -212C163 -205 226 -180 226 -133C226 -103 200 -77 152 -64L150 -84L165 0H134L119 -86ZM148 0Z" glyph-name="cedillacomb" horiz-adv-x="326" unicode="&#807;" /><glyph d="M244 677V525H279V673L272 680ZM279 -137V12H244V-133L251 -140ZM421 70 409 80C369 44 323 25 270 25C162 25 99 121 99 272C99 415 165 512 263 512C324 512 367 472 367 410C367 401 366 392 364 380C369 378 375 377 382 377C400 377 411 394 411 420C411 491 345 545 266 545C140 545 56 423 56 268C56 91 135 -10 262 -10C327 -10 388 20 421 70Z" glyph-name="cent" horiz-adv-x="469" unicode="&#162;" /><glyph d="M244 677V525H279V673L272 680ZM279 -137V12H244V-133L251 -140ZM421 70 409 80C369 44 323 25 270 25C162 25 99 121 99 272C99 415 165 512 263 512C324 512 367 472 367 410C367 401 366 392 364 380C369 378 375 377 382 377C400 377 411 394 411 420C411 491 345 545 266 545C140 545 56 423 56 268C56 91 135 -10 262 -10C327 -10 388 20 421 70Z" glyph-name="cent.lf" horiz-adv-x="469" /><glyph d="M258 677V525H293V673L286 680ZM293 -137V12H258V-133L265 -140ZM435 70 423 80C383 44 337 25 284 25C176 25 113 121 113 272C113 415 179 512 277 512C338 512 381 472 381 410C381 401 380 392 378 380C383 378 389 377 396 377C414 377 425 394 425 420C425 491 359 545 280 545C154 545 70 423 70 268C70 91 149 -10 276 -10C341 -10 402 20 435 70Z" glyph-name="cent.osf" horiz-adv-x="497" /><glyph d="M258 677V525H293V673L286 680ZM293 -137V12H258V-133L265 -140ZM435 70 423 80C383 44 337 25 284 25C176 25 113 121 113 272C113 415 179 512 277 512C338 512 381 472 381 410C381 401 380 392 378 380C383 378 389 377 396 377C414 377 425 394 425 420C425 491 359 545 280 545C154 545 70 423 70 268C70 91 149 -10 276 -10C341 -10 402 20 435 70Z" glyph-name="cent.sc" horiz-adv-x="497" /><glyph d="M288 677V525H323V673L316 680ZM323 -137V12H288V-133L295 -140ZM465 70 453 80C413 44 367 25 314 25C206 25 143 121 143 272C143 415 209 512 307 512C368 512 411 472 411 410C411 401 410 392 408 380C413 378 419 377 426 377C444 377 455 394 455 420C455 491 389 545 310 545C184 545 100 423 100 268C100 91 179 -10 306 -10C371 -10 432 20 465 70Z" glyph-name="cent.tf" horiz-adv-x="560" /><glyph d="M298 677V525H333V673L326 680ZM333 -137V12H298V-133L305 -140ZM475 70 463 80C423 44 377 25 324 25C216 25 153 121 153 272C153 415 219 512 317 512C378 512 421 472 421 410C421 401 420 392 418 380C423 378 429 377 436 377C454 377 465 394 465 420C465 491 399 545 320 545C194 545 110 423 110 268C110 91 189 -10 316 -10C381 -10 442 20 475 70Z" glyph-name="cent.tf.sc" horiz-adv-x="572" /><glyph d="M288 677V525H323V673L316 680ZM323 -137V12H288V-133L295 -140ZM465 70 453 80C413 44 367 25 314 25C206 25 143 121 143 272C143 415 209 512 307 512C368 512 411 472 411 410C411 401 410 392 408 380C413 378 419 377 426 377C444 377 455 394 455 420C455 491 389 545 310 545C184 545 100 423 100 268C100 91 179 -10 306 -10C371 -10 432 20 465 70Z" glyph-name="cent.tosf" horiz-adv-x="560" /><glyph d="M239 721 213 719C260 678 307 626 343 586L357 596C318 656 277 714 250 750H209L203 746C188 717 137 644 100 598L112 586C153 624 217 692 239 721Z" glyph-name="circumflex" horiz-adv-x="457" unicode="&#710;" /><glyph d="M249 875 223 873C274 842 324 802 363 771L377 781C334 829 288 876 258 905H221L215 901C198 878 141 820 100 783L112 771C156 800 225 853 249 875Z" glyph-name="circumflex.case" horiz-adv-x="477" /><glyph d="M239 721 213 719C260 678 307 626 343 586L357 596C318 656 277 714 250 750H209L203 746C188 717 137 644 100 598L112 586C153 624 217 692 239 721ZM228 745ZM229 495Z" glyph-name="circumflexcomb" horiz-adv-x="457" unicode="&#770;" /><glyph d="M249 875 223 873C274 842 324 802 363 771L377 781C334 829 288 876 258 905H221L215 901C198 878 141 820 100 783L112 771C156 800 225 853 249 875ZM239 685Z" glyph-name="circumflexcomb.case" horiz-adv-x="477" /><glyph d="M209 719 183 717C219 675 255 622 283 581L297 591C269 651 240 709 221 745H178L172 741C161 712 126 639 100 593L112 581C143 619 192 689 209 719ZM199 495Z" glyph-name="circumflexcomb.i" horiz-adv-x="397" /><glyph d="M103 317C131 317 144 341 144 365C144 388 130 405 106 405C81 405 64 382 64 358C64 336 79 317 103 317ZM103 -10C131 -10 144 14 144 38C144 61 130 78 106 78C81 78 64 55 64 31C64 9 79 -10 103 -10Z" glyph-name="colon" horiz-adv-x="208" unicode=":" /><glyph d="M64 -180 76 -189C123 -125 157 -34 157 25C157 56 142 78 115 78C88 78 70 57 70 34C70 8 87 -10 114 -10C125 -10 137 -5 146 0L121 21C115 -59 93 -132 64 -180Z" glyph-name="comma" horiz-adv-x="221" unicode="," /><glyph d="M184 -165C184 -138 169 -122 145 -122C122 -122 103 -143 103 -167C103 -192 121 -207 146 -207L140 -175C139 -214 121 -279 100 -312L111 -321C149 -288 184 -217 184 -165ZM145 0Z" glyph-name="commaaccent" horiz-adv-x="284" unicode="&#806;" /><glyph d="M364 -47C529 -47 664 87 664 250C664 412 535 545 364 545C199 545 64 412 64 250C64 82 194 -47 364 -47ZM364 -7C216 -7 104 104 104 250C104 391 221 505 364 505C508 505 624 391 624 250C624 109 508 -7 364 -7ZM479 135 464 150C442 130 411 115 379 115C324 115 276 169 276 250C276 329 314 387 370 387C403 387 426 363 426 329C426 324 426 319 425 311C429 309 438 307 444 307C460 307 470 318 470 336C470 384 428 420 372 420C292 420 233 346 233 245C233 144 292 80 375 80C418 80 457 101 479 135Z" glyph-name="copyright" horiz-adv-x="728" unicode="&#169;" /><glyph d="M477 459 451 485 365 399 391 373ZM453 60 478 79V90C456 112 425 141 392 175L365 148ZM171 404 89 485 64 460 145 377ZM268 450C157 450 84 359 84 264C84 172 150 90 262 90C374 90 444 183 444 274C444 363 375 450 268 450ZM264 415C349 415 404 344 404 271C404 196 355 125 265 125C175 125 124 199 124 269C124 344 179 415 264 415ZM176 146 150 172 64 86 90 60Z" glyph-name="currency" horiz-adv-x="542" unicode="&#164;" /><glyph d="M477 532 451 558 365 472 391 446ZM453 133 478 152V163C456 185 425 214 392 248L365 221ZM171 477 89 558 64 533 145 450ZM268 523C157 523 84 432 84 337C84 245 150 163 262 163C374 163 444 256 444 347C444 436 375 523 268 523ZM264 488C349 488 404 417 404 344C404 269 355 198 265 198C175 198 124 272 124 342C124 417 179 488 264 488ZM176 219 150 245 64 159 90 133Z" glyph-name="currency.lf" horiz-adv-x="542" /><glyph d="M491 459 465 485 379 399 405 373ZM467 60 492 79V90C470 112 439 141 406 175L379 148ZM185 404 103 485 78 460 159 377ZM282 450C171 450 98 359 98 264C98 172 164 90 276 90C388 90 458 183 458 274C458 363 389 450 282 450ZM278 415C363 415 418 344 418 271C418 196 369 125 279 125C189 125 138 199 138 269C138 344 193 415 278 415ZM190 146 164 172 78 86 104 60Z" glyph-name="currency.osf" horiz-adv-x="570" /><glyph d="M491 459 465 485 379 399 405 373ZM467 60 492 79V90C470 112 439 141 406 175L379 148ZM185 404 103 485 78 460 159 377ZM282 450C171 450 98 359 98 264C98 172 164 90 276 90C388 90 458 183 458 274C458 363 389 450 282 450ZM278 415C363 415 418 344 418 271C418 196 369 125 279 125C189 125 138 199 138 269C138 344 193 415 278 415ZM190 146 164 172 78 86 104 60Z" glyph-name="currency.sc" horiz-adv-x="570" /><glyph d="M486 532 460 558 374 472 400 446ZM462 133 487 152V163C465 185 434 214 401 248L374 221ZM180 477 98 558 73 533 154 450ZM277 523C166 523 93 432 93 337C93 245 159 163 271 163C383 163 453 256 453 347C453 436 384 523 277 523ZM273 488C358 488 413 417 413 344C413 269 364 198 274 198C184 198 133 272 133 342C133 417 188 488 273 488ZM185 219 159 245 73 159 99 133Z" glyph-name="currency.tf" horiz-adv-x="560" /><glyph d="M507 459 481 485 395 399 421 373ZM483 60 508 79V90C486 112 455 141 422 175L395 148ZM201 404 119 485 94 460 175 377ZM298 450C187 450 114 359 114 264C114 172 180 90 292 90C404 90 474 183 474 274C474 363 405 450 298 450ZM294 415C379 415 434 344 434 271C434 196 385 125 295 125C205 125 154 199 154 269C154 344 209 415 294 415ZM206 146 180 172 94 86 120 60Z" glyph-name="currency.tf.sc" horiz-adv-x="602" /><glyph d="M486 459 460 485 374 399 400 373ZM462 60 487 79V90C465 112 434 141 401 175L374 148ZM180 404 98 485 73 460 154 377ZM277 450C166 450 93 359 93 264C93 172 159 90 271 90C383 90 453 183 453 274C453 363 384 450 277 450ZM273 415C358 415 413 344 413 271C413 196 364 125 274 125C184 125 133 199 133 269C133 344 188 415 273 415ZM185 146 159 172 73 86 99 60Z" glyph-name="currency.tosf" horiz-adv-x="560" /><glyph d="M400 74 390 102C361 64 308 24 244 24C163 24 99 96 99 235C99 394 178 472 278 472C319 472 363 461 397 438L400 482C363 496 323 505 280 505C165 505 56 407 56 236C56 71 136 -10 241 -10C318 -10 378 40 400 74ZM525 21 521 30C507 26 495 23 477 23C437 23 426 49 426 104V635H386V69C386 20 409 -10 451 -10C483 -10 510 6 525 21ZM426 635V745L416 755C379 749 326 742 291 730L293 716L386 710V635ZM345 581ZM259 0ZM596 495Z" glyph-name="d" horiz-adv-x="544" unicode="d" /><glyph d="M224 298C142 298 77 237 77 114C77 7 130 -50 196 -50C248 -50 292 -19 315 9L324 -12C306 -39 256 -78 193 -78C107 -78 42 -14 42 114C42 247 131 324 225 324C261 324 293 317 324 306L321 270C293 289 257 298 224 298ZM312 -16V425H345V12C345 -30 354 -50 387 -50C402 -50 412 -48 423 -45L427 -52C414 -65 392 -78 366 -78C331 -78 312 -54 312 -16ZM345 425V511L337 519C307 514 263 508 234 499L236 488L312 482V425Z" glyph-name="d.inferior" horiz-adv-x="449" /><glyph d="M132 415V120H172V415ZM172 0H241C418 0 522 100 522 267C522 435 418 535 241 535H172V505H238C395 505 480 417 480 267C480 118 395 30 238 30H172ZM172 0V120H132V59C132 42 127 34 108 30L57 18L59 0ZM172 535V415H132V476C132 493 127 501 108 505L57 517L59 535ZM207 251ZM279 0ZM291 535Z" glyph-name="d.sc" horiz-adv-x="572" /><glyph d="M224 737C142 737 77 676 77 553C77 446 130 389 196 389C248 389 292 420 315 448L324 427C306 400 256 361 193 361C107 361 42 425 42 553C42 686 131 763 225 763C261 763 293 756 324 745L321 709C293 728 257 737 224 737ZM312 423V864H345V451C345 409 354 389 387 389C402 389 412 391 423 394L427 387C414 374 392 361 366 361C331 361 312 385 312 423ZM345 864V950L337 958C307 953 263 947 234 938L236 927L312 921V864Z" glyph-name="d.superior" horiz-adv-x="447" /><glyph d="M252 495 78 508 64 500C66 490 69 477 71 468L75 465L252 473ZM237 495 227 150 242 0H262L277 150L267 495ZM267 495 277 687 269 695C257 694 240 691 230 689L227 685L237 495ZM252 473 426 465 440 473C438 484 435 496 433 505L429 508L252 495Z" glyph-name="dagger" horiz-adv-x="504" unicode="&#8224;" /><glyph d="M267 200H237L227 10L230 6C240 4 257 1 269 0L277 8ZM252 222V200L429 187L433 190C435 199 438 211 440 222L426 230ZM252 222 75 230 71 227C69 218 66 205 64 195L78 187L252 200ZM237 200H267L277 348L267 495H237L227 348ZM252 495V473L426 465L440 473C438 484 435 496 433 505L429 508ZM252 495 78 508 64 500C66 490 69 477 71 468L75 465L252 473ZM230 689 227 685 237 495H267L277 687L269 695C257 694 240 691 230 689Z" glyph-name="daggerdbl" horiz-adv-x="504" unicode="&#8225;" /><glyph d="M400 74 390 102C361 64 308 24 244 24C163 24 99 96 99 235C99 394 178 472 278 472C319 472 363 461 397 438L400 482C363 496 323 505 280 505C165 505 56 407 56 236C56 71 136 -10 241 -10C318 -10 378 40 400 74ZM525 21 521 30C507 26 495 23 477 23C437 23 426 49 426 104V635H386V69C386 20 409 -10 451 -10C483 -10 510 6 525 21ZM426 635V745L416 755C379 749 326 742 291 730L293 716L386 710V635ZM345 581ZM259 0ZM596 495ZM641 702C641 729 626 745 602 745C579 745 560 724 560 700C560 675 578 660 603 660L597 692C596 653 578 588 557 555L568 546C606 579 641 650 641 702ZM596 495Z" glyph-name="dcaron" horiz-adv-x="697" unicode="&#271;" /><glyph d="M132 415V120H172V415ZM172 0H241C418 0 522 100 522 267C522 435 418 535 241 535H172V505H238C395 505 480 417 480 267C480 118 395 30 238 30H172ZM172 0V120H132V59C132 42 127 34 108 30L57 18L59 0ZM172 535V415H132V476C132 493 127 501 108 505L57 517L59 535ZM207 251ZM279 0ZM291 535ZM280 657 306 659C259 700 212 752 176 792L162 782C201 722 242 664 269 628H310L316 632C331 661 382 734 419 780L407 792C366 754 302 686 280 657ZM290 785ZM291 535Z" glyph-name="dcaron.sc" horiz-adv-x="572" /><glyph d="M400 74 390 102C361 64 308 24 244 24C163 24 99 96 99 235C99 394 178 472 278 472C319 472 363 461 397 438L400 482C363 496 323 505 280 505C165 505 56 407 56 236C56 71 136 -10 241 -10C318 -10 378 40 400 74ZM525 21 521 30C507 26 495 23 477 23C437 23 426 49 426 104V635H386V69C386 20 409 -10 451 -10C483 -10 510 6 525 21ZM426 635V745L416 755C379 749 326 742 291 730L293 716L386 710V635ZM345 581ZM259 0ZM596 495ZM525 580V610H166V580ZM345 581Z" glyph-name="dcroat" horiz-adv-x="544" unicode="&#273;" /><glyph d="M132 415V120H172V415ZM172 0H241C418 0 522 100 522 267C522 435 418 535 241 535H172V505H238C395 505 480 417 480 267C480 118 395 30 238 30H172ZM172 0V120H132V59C132 42 127 34 108 30L57 18L59 0ZM172 535V415H132V476C132 493 127 501 108 505L57 517L59 535ZM207 251ZM279 0ZM291 535ZM328.74 250V280H20V250ZM173.94 251Z" glyph-name="dcroat.sc" horiz-adv-x="572" /><glyph d="M400 74 390 102C361 64 308 24 244 24C163 24 99 96 99 235C99 394 178 472 278 472C319 472 363 461 397 438L400 482C363 496 323 505 280 505C165 505 56 407 56 236C56 71 136 -10 241 -10C318 -10 378 40 400 74ZM525 21 521 30C507 26 495 23 477 23C437 23 426 49 426 104V635H386V69C386 20 409 -10 451 -10C483 -10 510 6 525 21ZM426 635V745L416 755C379 749 326 742 291 730L293 716L386 710V635ZM345 581ZM259 0ZM596 495ZM295 -165C295 -140 283 -122 261 -122C238 -122 223 -145 223 -169C223 -193 236 -212 258 -212C284 -212 295 -188 295 -165ZM259 0Z" glyph-name="ddotbelow" horiz-adv-x="544" unicode="&#7693;" /><glyph d="M132 415V120H172V415ZM172 0H241C418 0 522 100 522 267C522 435 418 535 241 535H172V505H238C395 505 480 417 480 267C480 118 395 30 238 30H172ZM172 0V120H132V59C132 42 127 34 108 30L57 18L59 0ZM172 535V415H132V476C132 493 127 501 108 505L57 517L59 535ZM207 251ZM279 0ZM291 535ZM315 -165C315 -140 303 -122 281 -122C258 -122 243 -145 243 -169C243 -193 256 -212 278 -212C304 -212 315 -188 315 -165ZM279 0Z" glyph-name="ddotbelow.sc" horiz-adv-x="572" /><glyph d="M176 310C240 310 295 365 295 433C295 501 247 545 184 545C119 545 64 492 64 423C64 354 114 310 176 310ZM180 510C227 510 257 476 257 431C257 382 226 345 179 345C134 345 102 379 102 425C102 471 132 510 180 510Z" glyph-name="degree" horiz-adv-x="359" unicode="&#176;" /><glyph d="M190 460C254 460 309 515 309 583C309 651 261 695 198 695C133 695 78 642 78 573C78 504 128 460 190 460ZM194 660C241 660 271 626 271 581C271 532 240 495 193 495C148 495 116 529 116 575C116 621 146 660 194 660Z" glyph-name="degree.lf" horiz-adv-x="359" /><glyph d="M190 310C254 310 309 365 309 433C309 501 261 545 198 545C133 545 78 492 78 423C78 354 128 310 190 310ZM194 510C241 510 271 476 271 431C271 382 240 345 193 345C148 345 116 379 116 425C116 471 146 510 194 510Z" glyph-name="degree.osf" horiz-adv-x="359" /><glyph d="M190 310C254 310 309 365 309 433C309 501 261 545 198 545C133 545 78 492 78 423C78 354 128 310 190 310ZM194 510C241 510 271 476 271 431C271 382 240 345 193 345C148 345 116 379 116 425C116 471 146 510 194 510Z" glyph-name="degree.sc" horiz-adv-x="359" /><glyph d="M360 670C360 694 348 711 327 711C305 711 290 688 290 663C290 640 303 621 324 621C349 621 360 646 360 670ZM170 670C170 694 158 711 137 711C115 711 100 688 100 663C100 640 113 621 134 621C159 621 170 646 170 670Z" glyph-name="dieresis" horiz-adv-x="460" unicode="&#168;" /><glyph d="M366 839C366 861 353 877 330 877C306 877 290 855 290 832C290 810 304 792 327 792C354 792 366 816 366 839ZM176 839C176 861 163 877 140 877C116 877 100 855 100 832C100 810 114 792 137 792C164 792 176 816 176 839Z" glyph-name="dieresis.case" horiz-adv-x="466" /><glyph d="M360 670C360 694 348 711 327 711C305 711 290 688 290 663C290 640 303 621 324 621C349 621 360 646 360 670ZM170 670C170 694 158 711 137 711C115 711 100 688 100 663C100 640 113 621 134 621C159 621 170 646 170 670ZM231 745ZM231 495Z" glyph-name="dieresiscomb" horiz-adv-x="460" unicode="&#776;" /><glyph d="M366 839C366 861 353 877 330 877C306 877 290 855 290 832C290 810 304 792 327 792C354 792 366 816 366 839ZM176 839C176 861 163 877 140 877C116 877 100 855 100 832C100 810 114 792 137 792C164 792 176 816 176 839ZM233 905ZM233 685Z" glyph-name="dieresiscomb.case" horiz-adv-x="466" /><glyph d="M310 684C310 708 298 725 277 725C255 725 240 702 240 677C240 654 253 635 274 635C299 635 310 660 310 684ZM170 684C170 708 158 725 137 725C115 725 100 702 100 677C100 654 113 635 134 635C159 635 170 660 170 684ZM206 745ZM205 495Z" glyph-name="dieresiscomb.i" horiz-adv-x="410" /><glyph d="M480 246 485 278 477 286C383 286 165 284 75 281V246ZM316 454C316 479 304 497 282 497C259 497 244 474 244 450C244 426 257 407 279 407C305 407 316 431 316 454ZM316 82C316 107 304 125 282 125C259 125 244 102 244 78C244 54 257 35 279 35C305 35 316 59 316 82Z" glyph-name="divide" horiz-adv-x="560" unicode="&#247;" /><glyph d="M480 322 485 354 477 362C383 362 165 360 75 357V322ZM316 530C316 555 304 573 282 573C259 573 244 550 244 526C244 502 257 483 279 483C305 483 316 507 316 530ZM316 158C316 183 304 201 282 201C259 201 244 178 244 154C244 130 257 111 279 111C305 111 316 135 316 158Z" glyph-name="divide.lf" horiz-adv-x="560" /><glyph d="M480 246 485 278 477 286C383 286 165 284 75 281V246ZM316 454C316 479 304 497 282 497C259 497 244 474 244 450C244 426 257 407 279 407C305 407 316 431 316 454ZM316 82C316 107 304 125 282 125C259 125 244 102 244 78C244 54 257 35 279 35C305 35 316 59 316 82Z" glyph-name="divide.osf" horiz-adv-x="560" /><glyph d="M480 246 485 278 477 286C383 286 165 284 75 281V246ZM316 454C316 479 304 497 282 497C259 497 244 474 244 450C244 426 257 407 279 407C305 407 316 431 316 454ZM316 82C316 107 304 125 282 125C259 125 244 102 244 78C244 54 257 35 279 35C305 35 316 59 316 82Z" glyph-name="divide.sc" horiz-adv-x="560" /><glyph d="M246 -137V12H211V-133L218 -140ZM226 677V525H261V673L254 680ZM222 -10C328 -10 395 40 395 126C395 285 127 276 126 416C126 478 177 513 245 513C285 513 312 503 329 486C342 471 351 444 359 390H373C377 418 379 455 379 479C379 493 379 509 373 516C361 529 316 545 253 545C160 545 84 496 84 408C84 248 352 264 352 115C352 56 304 21 227 21C184 21 148 26 129 47C113 65 106 90 96 144L83 145C79 123 76 89 76 66C76 42 77 28 84 18C93 4 156 -10 222 -10ZM238 535ZM239 0Z" glyph-name="dollar" horiz-adv-x="471" unicode="$" /><glyph d="M239 827V675H274V823L267 830ZM259 -137V12H224V-133L231 -140ZM236 -10C359 -10 426 59 426 158C426 362 120 354 120 533C120 611 170 660 251 660C290 660 330 652 350 633C366 617 376 588 385 520H401C405 552 407 586 407 612C407 632 407 651 401 658C387 674 336 695 261 695C153 695 75 636 75 532C75 329 381 337 381 154C381 84 333 25 242 25C195 25 149 29 126 52C108 70 100 94 88 165H73C68 141 66 103 66 83C66 54 67 40 75 27C85 10 159 -10 236 -10Z" glyph-name="dollar.lf" horiz-adv-x="492" /><glyph d="M246 -137V12H211V-133L218 -140ZM226 677V525H261V673L254 680ZM222 -10C328 -10 395 40 395 126C395 285 127 276 126 416C126 478 177 513 245 513C285 513 312 503 329 486C342 471 351 444 359 390H373C377 418 379 455 379 479C379 493 379 509 373 516C361 529 316 545 253 545C160 545 84 496 84 408C84 248 352 264 352 115C352 56 304 21 227 21C184 21 148 26 129 47C113 65 106 90 96 144L83 145C79 123 76 89 76 66C76 42 77 28 84 18C93 4 156 -10 222 -10ZM238 535ZM239 0Z" glyph-name="dollar.osf" horiz-adv-x="471" /><glyph d="M246 -137V12H211V-133L218 -140ZM226 677V525H261V673L254 680ZM222 -10C328 -10 395 40 395 126C395 285 127 276 126 416C126 478 177 513 245 513C285 513 312 503 329 486C342 471 351 444 359 390H373C377 418 379 455 379 479C379 493 379 509 373 516C361 529 316 545 253 545C160 545 84 496 84 408C84 248 352 264 352 115C352 56 304 21 227 21C184 21 148 26 129 47C113 65 106 90 96 144L83 145C79 123 76 89 76 66C76 42 77 28 84 18C93 4 156 -10 222 -10ZM238 535ZM239 0Z" glyph-name="dollar.sc" horiz-adv-x="471" /><glyph d="M313 675V823L306 830L278 827V675ZM270 -140 298 -137V12H263V-133ZM265 -10C388 -10 465 59 465 158C465 362 149 354 149 533C149 611 209 660 290 660C329 660 369 652 389 633C405 617 415 588 424 520H440C444 552 446 586 446 612C446 632 446 651 440 658C426 674 375 695 300 695C192 695 104 636 104 532C104 329 420 337 420 154C420 84 362 25 271 25C224 25 178 29 155 52C137 70 129 94 117 165H102C97 141 95 103 95 83C95 54 96 40 104 27C114 10 188 -10 265 -10Z" glyph-name="dollar.tf" horiz-adv-x="560" /><glyph d="M242 -137V12H207V-133L214 -140ZM222 677V525H257V673L250 680ZM218 -10C324 -10 391 40 391 126C391 285 123 276 122 416C122 478 173 513 241 513C281 513 308 503 325 486C338 471 347 444 355 390H369C373 418 375 455 375 479C375 493 375 509 369 516C357 529 312 545 249 545C156 545 80 496 80 408C80 248 348 264 348 115C348 56 300 21 223 21C180 21 144 26 125 47C109 65 102 90 92 144L79 145C75 123 72 89 72 66C72 42 73 28 80 18C89 4 152 -10 218 -10ZM234 535ZM235 0Z" glyph-name="dollar.tf.sc" horiz-adv-x="463" /><glyph d="M294 -137V12H259V-133L266 -140ZM274 677V525H309V673L302 680ZM272 -10C378 -10 445 40 445 126C445 285 177 276 176 416C176 478 227 513 295 513C335 513 362 503 379 486C392 471 401 444 409 390H423C427 418 429 455 429 479C429 493 429 509 423 516C411 529 366 545 303 545C210 545 134 496 134 408C134 248 402 264 402 115C402 56 354 21 277 21C234 21 198 26 179 47C163 65 156 90 146 144L133 145C129 123 126 89 126 66C126 42 127 28 134 18C143 4 206 -10 272 -10ZM288 535ZM289 0Z" glyph-name="dollar.tosf" horiz-adv-x="560" /><glyph d="M172 665C172 690 160 708 138 708C115 708 100 685 100 661C100 637 113 618 135 618C161 618 172 642 172 665Z" glyph-name="dotaccent" horiz-adv-x="272" unicode="&#729;" /><glyph d="M180 835C180 858 167 874 142 874C117 874 100 853 100 831C100 809 114 792 139 792C168 792 180 814 180 835Z" glyph-name="dotaccent.case" horiz-adv-x="280" /><glyph d="M172 665C172 690 160 708 138 708C115 708 100 685 100 661C100 637 113 618 135 618C161 618 172 642 172 665ZM136 745ZM136 495Z" glyph-name="dotaccentcomb" horiz-adv-x="272" unicode="&#775;" /><glyph d="M180 835C180 858 167 874 142 874C117 874 100 853 100 831C100 809 114 792 139 792C168 792 180 814 180 835ZM140 685Z" glyph-name="dotaccentcomb.case" horiz-adv-x="280" /><glyph d="M172 -165C172 -140 160 -122 138 -122C115 -122 100 -145 100 -169C100 -193 113 -212 135 -212C161 -212 172 -188 172 -165ZM136 0Z" glyph-name="dotbelowcomb" horiz-adv-x="272" unicode="&#803;" /><glyph d="M162 385H122V120H162ZM162 385V495L152 505C121 500 77 490 47 480L49 466L122 460V385ZM162 35V120H122V60C122 40 117 35 95 29L47 16L49 0H235L237 16ZM131 495ZM142 0Z" glyph-name="dotlessi" horiz-adv-x="276" unicode="&#305;" /><glyph d="M132 415V120H172V415ZM172 37V120H132V59C132 42 127 34 108 30L57 18L59 0H245L247 18ZM132 498V415H172V476C172 493 177 501 196 505L247 517L245 535H59L57 517ZM245 0ZM152 0ZM152 535Z" glyph-name="dotlessi.sc" horiz-adv-x="304" /><glyph d="M155 385H115V19C115 -122 81 -167 29 -241L44 -255C120 -183 155 -137 155 -10ZM155 385V495L145 505C114 500 70 490 40 480L42 466L115 460V385ZM124 495Z" glyph-name="dotlessj" horiz-adv-x="256" unicode="&#567;" /><glyph d="M132 415V70C132 -25 108 -64 59 -118L73 -133C137 -86 172 -40 172 60V415ZM132 498V415H172V476C172 493 177 501 196 505L247 517L245 535H59L57 517ZM153 535Z" glyph-name="dotlessj.sc" horiz-adv-x="288" /><glyph d="M93 286 90 258H398L407 268L377 291ZM253 472C325 472 366 420 366 326C366 319 366 305 365 289L407 268C408 287 409 307 409 324C409 437 349 505 257 505C139 505 56 393 56 235C56 85 133 -10 254 -10C318 -10 378 20 411 70L399 80C361 43 316 25 265 25C163 25 99 112 99 254C99 382 160 472 253 472ZM316 0ZM237 0ZM248 495Z" glyph-name="e" horiz-adv-x="459" unicode="e" /><glyph d="M67 286 64 258H372L381 268L351 291ZM227 472C299 472 340 420 340 326C340 319 340 305 339 289L381 268C382 287 383 307 383 324C383 437 323 505 231 505C113 505 30 393 30 235C30 85 107 -10 228 -10C292 -10 352 20 385 70L373 80C335 43 290 25 239 25C137 25 73 112 73 254C73 382 134 472 227 472Z" glyph-name="e.ae" horiz-adv-x="415" /><glyph d="M72 153 70 131H322L330 139L305 157ZM203 298C262 298 296 258 296 185C296 179 296 168 295 155L330 139C331 154 331 169 331 182C331 271 282 324 207 324C110 324 42 237 42 113C42 -4 105 -78 204 -78C257 -78 306 -53 333 -14L323 -6C292 -34 255 -48 213 -48C130 -48 77 19 77 130C77 228 127 298 203 298Z" glyph-name="e.inferior" horiz-adv-x="367" unicode="&#8337;" /><glyph d="M132 415V120H172V415ZM172 0H432C436 21 437 46 437 74C437 102 436 127 434 148H421L406 91C402 78 396 54 391 34C368 31 330 30 296 30H172ZM172 535V505H287C322 505 359 503 382 502C386 489 392 468 398 444L413 387H426C428 410 429 433 429 461C429 489 427 514 424 535ZM172 279V248L358 244L359 284ZM172 0V120H132V59C132 42 127 34 108 30L57 18L59 0ZM172 535V415H132V476C132 493 127 501 108 505L57 517L59 535ZM432 0ZM280 0ZM265 535Z" glyph-name="e.sc" horiz-adv-x="487" /><glyph d="M72 592 70 570H322L330 578L305 596ZM203 737C262 737 296 697 296 624C296 618 296 607 295 594L330 578C331 593 331 608 331 621C331 710 282 763 207 763C110 763 42 676 42 552C42 435 105 361 204 361C257 361 306 386 333 425L323 433C292 405 255 391 213 391C130 391 77 458 77 569C77 667 127 737 203 737Z" glyph-name="e.superior" horiz-adv-x="367" /><glyph d="M93 286 90 258H398L407 268L377 291ZM253 472C325 472 366 420 366 326C366 319 366 305 365 289L407 268C408 287 409 307 409 324C409 437 349 505 257 505C139 505 56 393 56 235C56 85 133 -10 254 -10C318 -10 378 20 411 70L399 80C361 43 316 25 265 25C163 25 99 112 99 254C99 382 160 472 253 472ZM316 0ZM237 0ZM248 495ZM350 732C350 745 340 755 318 755C317 755 315 755 314 755L309 753C287 712 236 650 183 593L195 581C261 631 350 698 350 732ZM267 745ZM248 495Z" glyph-name="eacute" horiz-adv-x="459" unicode="&#233;" /><glyph d="M132 415V120H172V415ZM172 0H432C436 21 437 46 437 74C437 102 436 127 434 148H421L406 91C402 78 396 54 391 34C368 31 330 30 296 30H172ZM172 535V505H287C322 505 359 503 382 502C386 489 392 468 398 444L413 387H426C428 410 429 433 429 461C429 489 427 514 424 535ZM172 279V248L358 244L359 284ZM172 0V120H132V59C132 42 127 34 108 30L57 18L59 0ZM172 535V415H132V476C132 493 127 501 108 505L57 517L59 535ZM432 0ZM280 0ZM265 535ZM367 772C367 785 357 795 335 795C334 795 332 795 331 795L326 793C304 752 253 690 200 633L212 621C278 671 367 738 367 772ZM284 785ZM265 535Z" glyph-name="eacute.sc" horiz-adv-x="487" /><glyph d="M93 286 90 258H398L407 268L377 291ZM253 472C325 472 366 420 366 326C366 319 366 305 365 289L407 268C408 287 409 307 409 324C409 437 349 505 257 505C139 505 56 393 56 235C56 85 133 -10 254 -10C318 -10 378 20 411 70L399 80C361 43 316 25 265 25C163 25 99 112 99 254C99 382 160 472 253 472ZM316 0ZM237 0ZM248 495ZM349 728C333 678 296 648 250 648C199 648 161 679 146 730L129 727C140 650 185 605 245 605C306 605 352 650 367 727L353 730ZM248 745ZM248 495Z" glyph-name="ebreve" horiz-adv-x="459" unicode="&#277;" /><glyph d="M132 415V120H172V415ZM172 0H432C436 21 437 46 437 74C437 102 436 127 434 148H421L406 91C402 78 396 54 391 34C368 31 330 30 296 30H172ZM172 535V505H287C322 505 359 503 382 502C386 489 392 468 398 444L413 387H426C428 410 429 433 429 461C429 489 427 514 424 535ZM172 279V248L358 244L359 284ZM172 0V120H132V59C132 42 127 34 108 30L57 18L59 0ZM172 535V415H132V476C132 493 127 501 108 505L57 517L59 535ZM432 0ZM280 0ZM265 535ZM366 768C350 718 313 688 267 688C216 688 178 719 163 770L146 767C157 690 202 645 262 645C323 645 369 690 384 767L370 770ZM265 785ZM265 535Z" glyph-name="ebreve.sc" horiz-adv-x="487" /><glyph d="M93 286 90 258H398L407 268L377 291ZM253 472C325 472 366 420 366 326C366 319 366 305 365 289L407 268C408 287 409 307 409 324C409 437 349 505 257 505C139 505 56 393 56 235C56 85 133 -10 254 -10C318 -10 378 20 411 70L399 80C361 43 316 25 265 25C163 25 99 112 99 254C99 382 160 472 253 472ZM316 0ZM237 0ZM248 495ZM237 617 263 619C216 660 169 712 133 752L119 742C158 682 199 624 226 588H267L273 592C288 621 339 694 376 740L364 752C323 714 259 646 237 617ZM247 745ZM248 495Z" glyph-name="ecaron" horiz-adv-x="459" unicode="&#283;" /><glyph d="M132 415V120H172V415ZM172 0H432C436 21 437 46 437 74C437 102 436 127 434 148H421L406 91C402 78 396 54 391 34C368 31 330 30 296 30H172ZM172 535V505H287C322 505 359 503 382 502C386 489 392 468 398 444L413 387H426C428 410 429 433 429 461C429 489 427 514 424 535ZM172 279V248L358 244L359 284ZM172 0V120H132V59C132 42 127 34 108 30L57 18L59 0ZM172 535V415H132V476C132 493 127 501 108 505L57 517L59 535ZM432 0ZM280 0ZM265 535ZM254 657 280 659C233 700 186 752 150 792L136 782C175 722 216 664 243 628H284L290 632C305 661 356 734 393 780L381 792C340 754 276 686 254 657ZM264 785ZM265 535Z" glyph-name="ecaron.sc" horiz-adv-x="487" /><glyph d="M93 286 90 258H398L407 268L377 291ZM253 472C325 472 366 420 366 326C366 319 366 305 365 289L407 268C408 287 409 307 409 324C409 437 349 505 257 505C139 505 56 393 56 235C56 85 133 -10 254 -10C318 -10 378 20 411 70L399 80C361 43 316 25 265 25C163 25 99 112 99 254C99 382 160 472 253 472ZM316 0ZM237 0ZM248 495ZM258 721 232 719C279 678 326 626 362 586L376 596C337 656 296 714 269 750H228L222 746C207 717 156 644 119 598L131 586C172 624 236 692 258 721ZM247 745ZM248 495Z" glyph-name="ecircumflex" horiz-adv-x="459" unicode="&#234;" /><glyph d="M132 415V120H172V415ZM172 0H432C436 21 437 46 437 74C437 102 436 127 434 148H421L406 91C402 78 396 54 391 34C368 31 330 30 296 30H172ZM172 535V505H287C322 505 359 503 382 502C386 489 392 468 398 444L413 387H426C428 410 429 433 429 461C429 489 427 514 424 535ZM172 279V248L358 244L359 284ZM172 0V120H132V59C132 42 127 34 108 30L57 18L59 0ZM172 535V415H132V476C132 493 127 501 108 505L57 517L59 535ZM432 0ZM280 0ZM265 535ZM275 761 249 759C296 718 343 666 379 626L393 636C354 696 313 754 286 790H245L239 786C224 757 173 684 136 638L148 626C189 664 253 732 275 761ZM264 785ZM265 535Z" glyph-name="ecircumflex.sc" horiz-adv-x="487" /><glyph d="M93 286 90 258H398L407 268L377 291ZM253 472C325 472 366 420 366 326C366 319 366 305 365 289L407 268C408 287 409 307 409 324C409 437 349 505 257 505C139 505 56 393 56 235C56 85 133 -10 254 -10C318 -10 378 20 411 70L399 80C361 43 316 25 265 25C163 25 99 112 99 254C99 382 160 472 253 472ZM316 0ZM237 0ZM248 495ZM377 670C377 694 365 711 344 711C322 711 307 688 307 663C307 640 320 621 341 621C366 621 377 646 377 670ZM187 670C187 694 175 711 154 711C132 711 117 688 117 663C117 640 130 621 151 621C176 621 187 646 187 670ZM248 745ZM248 495Z" glyph-name="edieresis" horiz-adv-x="459" unicode="&#235;" /><glyph d="M132 415V120H172V415ZM172 0H432C436 21 437 46 437 74C437 102 436 127 434 148H421L406 91C402 78 396 54 391 34C368 31 330 30 296 30H172ZM172 535V505H287C322 505 359 503 382 502C386 489 392 468 398 444L413 387H426C428 410 429 433 429 461C429 489 427 514 424 535ZM172 279V248L358 244L359 284ZM172 0V120H132V59C132 42 127 34 108 30L57 18L59 0ZM172 535V415H132V476C132 493 127 501 108 505L57 517L59 535ZM432 0ZM280 0ZM265 535ZM394 710C394 734 382 751 361 751C339 751 324 728 324 703C324 680 337 661 358 661C383 661 394 686 394 710ZM204 710C204 734 192 751 171 751C149 751 134 728 134 703C134 680 147 661 168 661C193 661 204 686 204 710ZM265 785ZM265 535Z" glyph-name="edieresis.sc" horiz-adv-x="487" /><glyph d="M93 286 90 258H398L407 268L377 291ZM253 472C325 472 366 420 366 326C366 319 366 305 365 289L407 268C408 287 409 307 409 324C409 437 349 505 257 505C139 505 56 393 56 235C56 85 133 -10 254 -10C318 -10 378 20 411 70L399 80C361 43 316 25 265 25C163 25 99 112 99 254C99 382 160 472 253 472ZM316 0ZM237 0ZM248 495ZM284 665C284 690 272 708 250 708C227 708 212 685 212 661C212 637 225 618 247 618C273 618 284 642 284 665ZM248 745ZM248 495Z" glyph-name="edotaccent" horiz-adv-x="459" unicode="&#279;" /><glyph d="M132 415V120H172V415ZM172 0H432C436 21 437 46 437 74C437 102 436 127 434 148H421L406 91C402 78 396 54 391 34C368 31 330 30 296 30H172ZM172 535V505H287C322 505 359 503 382 502C386 489 392 468 398 444L413 387H426C428 410 429 433 429 461C429 489 427 514 424 535ZM172 279V248L358 244L359 284ZM172 0V120H132V59C132 42 127 34 108 30L57 18L59 0ZM172 535V415H132V476C132 493 127 501 108 505L57 517L59 535ZM432 0ZM280 0ZM265 535ZM301 705C301 730 289 748 267 748C244 748 229 725 229 701C229 677 242 658 264 658C290 658 301 682 301 705ZM265 785ZM265 535Z" glyph-name="edotaccent.sc" horiz-adv-x="487" /><glyph d="M93 286 90 258H398L407 268L377 291ZM253 472C325 472 366 420 366 326C366 319 366 305 365 289L407 268C408 287 409 307 409 324C409 437 349 505 257 505C139 505 56 393 56 235C56 85 133 -10 254 -10C318 -10 378 20 411 70L399 80C361 43 316 25 265 25C163 25 99 112 99 254C99 382 160 472 253 472ZM316 0ZM237 0ZM248 495ZM273 -165C273 -140 261 -122 239 -122C216 -122 201 -145 201 -169C201 -193 214 -212 236 -212C262 -212 273 -188 273 -165ZM237 0Z" glyph-name="edotbelow" horiz-adv-x="459" unicode="&#7865;" /><glyph d="M132 415V120H172V415ZM172 0H432C436 21 437 46 437 74C437 102 436 127 434 148H421L406 91C402 78 396 54 391 34C368 31 330 30 296 30H172ZM172 535V505H287C322 505 359 503 382 502C386 489 392 468 398 444L413 387H426C428 410 429 433 429 461C429 489 427 514 424 535ZM172 279V248L358 244L359 284ZM172 0V120H132V59C132 42 127 34 108 30L57 18L59 0ZM172 535V415H132V476C132 493 127 501 108 505L57 517L59 535ZM432 0ZM280 0ZM265 535ZM316 -165C316 -140 304 -122 282 -122C259 -122 244 -145 244 -169C244 -193 257 -212 279 -212C305 -212 316 -188 316 -165ZM280 0Z" glyph-name="edotbelow.sc" horiz-adv-x="487" /><glyph d="M93 286 90 258H398L407 268L377 291ZM253 472C325 472 366 420 366 326C366 319 366 305 365 289L407 268C408 287 409 307 409 324C409 437 349 505 257 505C139 505 56 393 56 235C56 85 133 -10 254 -10C318 -10 378 20 411 70L399 80C361 43 316 25 265 25C163 25 99 112 99 254C99 382 160 472 253 472ZM316 0ZM237 0ZM248 495ZM311 593C258 650 207 712 185 753L180 755C179 755 177 755 176 755C154 755 144 745 144 732C144 698 233 631 299 581ZM228 745ZM248 495Z" glyph-name="egrave" horiz-adv-x="459" unicode="&#232;" /><glyph d="M132 415V120H172V415ZM172 0H432C436 21 437 46 437 74C437 102 436 127 434 148H421L406 91C402 78 396 54 391 34C368 31 330 30 296 30H172ZM172 535V505H287C322 505 359 503 382 502C386 489 392 468 398 444L413 387H426C428 410 429 433 429 461C429 489 427 514 424 535ZM172 279V248L358 244L359 284ZM172 0V120H132V59C132 42 127 34 108 30L57 18L59 0ZM172 535V415H132V476C132 493 127 501 108 505L57 517L59 535ZM432 0ZM280 0ZM265 535ZM328 633C275 690 224 752 202 793L197 795C196 795 194 795 193 795C171 795 161 785 161 772C161 738 250 671 316 621ZM245 785ZM265 535Z" glyph-name="egrave.sc" horiz-adv-x="487" /><glyph d="M295 341C365 377 437 447 437 542C437 631 371 695 266 695C160 695 84 622 84 533C84 323 421 336 421 159C421 74 342 21 253 21C160 21 90 77 90 158C90 237 159 302 253 339L226 354C126 318 48 238 48 150C48 57 132 -11 250 -11C375 -11 463 59 463 158C463 364 126 346 126 535C126 608 183 663 264 663C346 663 397 611 397 541C397 452 329 385 268 354Z" glyph-name="eight" horiz-adv-x="511" unicode="8" /><glyph d="M219 196C265 215 311 252 311 308C311 361 268 399 198 399C128 399 80 355 80 302C80 185 302 186 302 90C302 42 251 12 194 12C135 12 89 42 89 90C89 136 133 175 192 191L169 200C106 186 56 142 56 87C56 29 113 -10 192 -10C277 -10 335 32 335 92C335 208 113 199 113 305C113 346 148 377 199 377C249 377 278 348 278 308C278 258 245 225 201 205Z" glyph-name="eight.denominator" horiz-adv-x="391" /><glyph d="M295 341C365 377 437 447 437 542C437 631 371 695 266 695C160 695 84 622 84 533C84 323 421 336 421 159C421 74 342 21 253 21C160 21 90 77 90 158C90 237 159 302 253 339L226 354C126 318 48 238 48 150C48 57 132 -11 250 -11C375 -11 463 59 463 158C463 364 126 346 126 535C126 608 183 663 264 663C346 663 397 611 397 541C397 452 329 385 268 354Z" glyph-name="eight.lf" horiz-adv-x="511" /><glyph d="M219 482C265 501 311 538 311 594C311 647 268 685 198 685C128 685 80 641 80 588C80 471 302 472 302 376C302 328 251 298 194 298C135 298 89 328 89 376C89 422 133 461 192 477L169 486C106 472 56 428 56 373C56 315 113 276 192 276C277 276 335 318 335 378C335 494 113 485 113 591C113 632 148 663 199 663C249 663 278 634 278 594C278 544 245 511 201 491Z" glyph-name="eight.numerator" horiz-adv-x="391" /><glyph d="M295 341C365 377 437 447 437 542C437 631 371 695 266 695C160 695 84 622 84 533C84 323 421 336 421 159C421 74 342 21 253 21C160 21 90 77 90 158C90 237 159 302 253 339L226 354C126 318 48 238 48 150C48 57 132 -11 250 -11C375 -11 463 59 463 158C463 364 126 346 126 535C126 608 183 663 264 663C346 663 397 611 397 541C397 452 329 385 268 354Z" glyph-name="eight.osf" horiz-adv-x="511" /><glyph d="M268 264C324 290 390 344 390 416C390 490 332 545 242 545C151 545 83 482 83 408C83 251 367 250 367 123C367 57 302 20 229 20C150 20 90 58 90 124C90 182 146 230 224 260L200 275C114 250 48 193 48 119C48 43 122 -10 226 -10C334 -10 409 51 409 129C409 272 125 272 125 413C125 470 173 515 241 515C305 515 348 472 348 416C348 351 302 312 242 279Z" glyph-name="eight.sc" horiz-adv-x="457" /><glyph d="M319 341C388 377 459 447 459 542C459 631 394 695 290 695C186 695 111 622 111 533C111 323 443 336 443 159C443 74 365 21 277 21C186 21 117 77 117 158C117 237 184 303 277 339L250 354C151 319 75 238 75 150C75 57 158 -11 274 -11C398 -11 485 59 485 158C485 364 153 346 153 535C153 608 209 663 288 663C369 663 419 611 419 541C419 452 352 385 292 354Z" glyph-name="eight.tf" horiz-adv-x="560" /><glyph d="M319 262C387 289 446 344 446 417C446 491 386 545 293 545C200 545 130 483 130 409C130 251 423 250 423 123C423 59 362 20 282 20C203 20 137 58 137 124C137 182 190 230 275 261L251 276C158 250 93 192 95 120C97 43 171 -10 277 -10C391 -10 465 51 465 129C465 272 172 273 172 414C172 471 222 515 292 515C359 515 404 473 404 417C404 351 359 304 293 277Z" glyph-name="eight.tf.sc" horiz-adv-x="560" /><glyph d="M319 341C388 377 459 447 459 542C459 631 394 695 290 695C186 695 111 622 111 533C111 323 443 336 443 159C443 74 365 21 277 21C186 21 117 77 117 158C117 237 184 303 277 339L250 354C151 319 75 238 75 150C75 57 158 -11 274 -11C398 -11 485 59 485 158C485 364 153 346 153 535C153 608 209 663 288 663C369 663 419 611 419 541C419 452 352 385 292 354Z" glyph-name="eight.tosf" horiz-adv-x="560" /><glyph d="M219 120C265 139 311 176 311 232C311 285 268 323 198 323C128 323 80 279 80 226C80 109 302 110 302 14C302 -34 251 -64 194 -64C135 -64 89 -34 89 14C89 60 133 99 192 115L169 124C106 110 56 66 56 11C56 -47 113 -86 192 -86C277 -86 335 -44 335 16C335 132 113 123 113 229C113 270 148 301 199 301C249 301 278 272 278 232C278 182 245 149 201 129Z" glyph-name="eightinferior" horiz-adv-x="391" /><glyph d="M219 552C265 571 311 608 311 664C311 717 268 755 198 755C128 755 80 711 80 658C80 541 302 542 302 446C302 398 251 368 194 368C135 368 89 398 89 446C89 492 133 531 192 547L169 556C106 542 56 498 56 443C56 385 113 346 192 346C277 346 335 388 335 448C335 564 113 555 113 661C113 702 148 733 199 733C249 733 278 704 278 664C278 614 245 581 201 561Z" glyph-name="eightsuperior" horiz-adv-x="391" /><glyph d="M103 -10C131 -10 144 14 144 38C144 61 130 78 106 78C81 78 64 55 64 31C64 9 79 -10 103 -10ZM289 -10C317 -10 330 14 330 38C330 61 316 78 292 78C267 78 250 55 250 31C250 9 265 -10 289 -10ZM475 -10C503 -10 516 14 516 38C516 61 502 78 478 78C453 78 436 55 436 31C436 9 451 -10 475 -10Z" glyph-name="ellipsis" horiz-adv-x="580" unicode="&#8230;" /><glyph d="M93 286 90 258H398L407 268L377 291ZM253 472C325 472 366 420 366 326C366 319 366 305 365 289L407 268C408 287 409 307 409 324C409 437 349 505 257 505C139 505 56 393 56 235C56 85 133 -10 254 -10C318 -10 378 20 411 70L399 80C361 43 316 25 265 25C163 25 99 112 99 254C99 382 160 472 253 472ZM316 0ZM237 0ZM248 495ZM121 653H375V687H121ZM248 495Z" glyph-name="emacron" horiz-adv-x="459" unicode="&#275;" /><glyph d="M132 415V120H172V415ZM172 0H432C436 21 437 46 437 74C437 102 436 127 434 148H421L406 91C402 78 396 54 391 34C368 31 330 30 296 30H172ZM172 535V505H287C322 505 359 503 382 502C386 489 392 468 398 444L413 387H426C428 410 429 433 429 461C429 489 427 514 424 535ZM172 279V248L358 244L359 284ZM172 0V120H132V59C132 42 127 34 108 30L57 18L59 0ZM172 535V415H132V476C132 493 127 501 108 505L57 517L59 535ZM432 0ZM280 0ZM265 535ZM138 693H392V727H138ZM265 535Z" glyph-name="emacron.sc" horiz-adv-x="487" /><glyph d="M48 250H742V285H48Z" glyph-name="emdash" horiz-adv-x="790" unicode="&#8212;" /><glyph d="M48 322H742V357H48Z" glyph-name="emdash.caps" horiz-adv-x="790" /><glyph d="M48 248H742V283H48Z" glyph-name="emdash.sc" horiz-adv-x="762" /><glyph d="M48.76 250H479.04V285H48.76Z" glyph-name="endash" horiz-adv-x="527" unicode="&#8211;" /><glyph d="M47.76 322H478.04V357H47.76Z" glyph-name="endash.caps" horiz-adv-x="526" /><glyph d="M34.76 247H465.04V282H34.76Z" glyph-name="endash.sc" horiz-adv-x="499" /><glyph d="M162 385H122V120H162ZM151 431 162 405C207 448 261 472 314 472C386 472 422 429 422 353V19C422 -122 388 -167 336 -241L351 -255C427 -183 462 -137 462 -10V353C462 451 413 505 321 505C261 505 200 477 151 431ZM162 385V495L152 505C121 500 77 490 47 480L49 466L122 460V385ZM162 35V120H122V60C122 40 117 35 95 29L47 16L49 0H235L237 16Z" glyph-name="eng" horiz-adv-x="563" unicode="&#331;" /><glyph d="M505 58 152 535H59L57 518L129 501V87H162V475H146L497 0H505ZM490 448V70C490 -25 464 -64 410 -118L424 -133C488 -86 523 -40 523 60V448ZM162 36V87H129V58C129 40 124 34 105 28L57 17L59 0H230L231 17ZM490 499V448H523V477C523 495 528 501 547 507L595 518L593 535H422L421 518Z" glyph-name="eng.sc" horiz-adv-x="628" /><glyph d="M93 286 90 258H398L407 268L377 291ZM253 472C325 472 366 420 366 326C366 319 366 305 365 289L407 268C408 287 409 307 409 324C409 437 349 505 257 505C139 505 56 393 56 235C56 85 133 -10 254 -10C318 -10 378 20 411 70L399 80C361 43 316 25 265 25C163 25 99 112 99 254C99 382 160 472 253 472ZM316 0ZM237 0ZM248 495ZM320 -181 316 -172C295 -177 282 -179 264 -179C227 -179 205 -160 205 -127C205 -85 241 -43 316 0L306 17C210 -30 163 -83 163 -138C163 -185 191 -212 238 -212C267 -212 299 -200 320 -181ZM316 0Z" glyph-name="eogonek" horiz-adv-x="459" unicode="&#281;" /><glyph d="M132 415V120H172V415ZM172 0H432C436 21 437 46 437 74C437 102 436 127 434 148H421L406 91C402 78 396 54 391 34C368 31 330 30 296 30H172ZM172 535V505H287C322 505 359 503 382 502C386 489 392 468 398 444L413 387H426C428 410 429 433 429 461C429 489 427 514 424 535ZM172 279V248L358 244L359 284ZM172 0V120H132V59C132 42 127 34 108 30L57 18L59 0ZM172 535V415H132V476C132 493 127 501 108 505L57 517L59 535ZM432 0ZM280 0ZM265 535ZM436 -181 432 -172C411 -177 398 -179 380 -179C343 -179 321 -160 321 -127C321 -85 357 -43 432 0L422 17C326 -30 279 -83 279 -138C279 -185 307 -212 354 -212C383 -212 415 -200 436 -181ZM432 0Z" glyph-name="eogonek.sc" horiz-adv-x="487" /><glyph d="M480 343 485 375 477 383C383 383 165 381 75 378V343ZM480 150 485 182 477 190C383 190 165 188 75 185V150Z" glyph-name="equal" horiz-adv-x="560" unicode="=" /><glyph d="M480 419 485 451 477 459C383 459 165 457 75 454V419ZM480 226 485 258 477 266C383 266 165 264 75 261V226Z" glyph-name="equal.lf" horiz-adv-x="560" /><glyph d="M480 343 485 375 477 383C383 383 165 381 75 378V343ZM480 150 485 182 477 190C383 190 165 188 75 185V150Z" glyph-name="equal.osf" horiz-adv-x="560" /><glyph d="M480 343 485 375 477 383C383 383 165 381 75 378V343ZM480 150 485 182 477 190C383 190 165 188 75 185V150Z" glyph-name="equal.sc" horiz-adv-x="560" /><glyph d="M248 -10C372 -10 442 90 442 266C442 508 300 719 114 755L108 729C294 673 400 500 400 253L413 321C396 440 339 505 245 505C151 505 56 419 56 251C56 83 138 -11 248 -10ZM255 472C344 472 400 382 400 253C400 99 350 23 247 23C156 23 99 122 99 249C99 400 165 472 255 472ZM467.706 687.858 452.91 719.986 126.29 567.386 140.088 535.328ZM297.996 627.552Z" glyph-name="eth" horiz-adv-x="524" unicode="&#240;" /><glyph d="M132 415V120H172V415ZM172 0H241C418 0 522 100 522 267C522 435 418 535 241 535H172V505H238C395 505 480 417 480 267C480 118 395 30 238 30H172ZM172 0V120H132V59C132 42 127 34 108 30L57 18L59 0ZM172 535V415H132V476C132 493 127 501 108 505L57 517L59 535ZM207 251ZM279 0ZM291 535ZM328.74 250V280H20V250ZM173.94 251Z" glyph-name="eth.sc" horiz-adv-x="572" /><glyph d="M93 286 90 258H398L407 268L377 291ZM253 472C325 472 366 420 366 326C366 319 366 305 365 289L407 268C408 287 409 307 409 324C409 437 349 505 257 505C139 505 56 393 56 235C56 85 133 -10 254 -10C318 -10 378 20 411 70L399 80C361 43 316 25 265 25C163 25 99 112 99 254C99 382 160 472 253 472ZM316 0ZM237 0ZM248 495ZM149 681C177 679 293 624 336 624C378 624 397 659 408 720C408 720 408 720 408 720L394 726C374 693 361 677 348 659C317 660 206 716 161 716C121 716 99 681 88 619C88 619 88 619 88 619L102 614C121 646 139 670 149 681ZM248 745ZM248 495Z" glyph-name="etilde" horiz-adv-x="459" unicode="&#7869;" /><glyph d="M132 415V120H172V415ZM172 0H432C436 21 437 46 437 74C437 102 436 127 434 148H421L406 91C402 78 396 54 391 34C368 31 330 30 296 30H172ZM172 535V505H287C322 505 359 503 382 502C386 489 392 468 398 444L413 387H426C428 410 429 433 429 461C429 489 427 514 424 535ZM172 279V248L358 244L359 284ZM172 0V120H132V59C132 42 127 34 108 30L57 18L59 0ZM172 535V415H132V476C132 493 127 501 108 505L57 517L59 535ZM432 0ZM280 0ZM265 535ZM166 721C194 719 310 664 353 664C395 664 414 699 425 760C425 760 425 760 425 760L411 766C391 733 378 717 365 699C334 700 223 756 178 756C138 756 116 721 105 659C105 659 105 659 105 659L119 654C138 686 156 710 166 721ZM265 785ZM265 535Z" glyph-name="etilde.sc" horiz-adv-x="487" /><glyph d="M556 70 544 80C501 41 446 25 385 25C265 25 194 121 194 272C194 415 270 512 383 512C453 512 502 472 502 410C502 401 501 392 499 380C504 378 510 377 517 377C535 377 546 394 546 420C546 491 473 545 386 545C245 545 151 423 151 268C151 91 238 -10 377 -10C450 -10 522 18 556 70ZM70 299H427L432 334H75ZM56 189H413L417 224H61Z" glyph-name="euro" horiz-adv-x="612" /><glyph d="M566 80 555 91C509 48 464 25 395 25C268 25 194 152 194 352C194 537 273 662 391 662C462 662 512 610 512 530C512 521 511 512 509 500C514 498 520 497 527 497C545 497 556 514 556 540C556 628 483 695 396 695C249 695 151 542 151 348C151 120 242 -10 387 -10C471 -10 532 29 566 80ZM70 365H467L472 400H75ZM56 232H453L457 267H61Z" glyph-name="euro.lf" horiz-adv-x="622" /><glyph d="M556 70 544 80C501 41 446 25 385 25C265 25 194 121 194 272C194 415 270 512 383 512C453 512 502 472 502 410C502 401 501 392 499 380C504 378 510 377 517 377C535 377 546 394 546 420C546 491 473 545 386 545C245 545 151 423 151 268C151 91 238 -10 377 -10C450 -10 522 18 556 70ZM70 299H427L432 334H75ZM56 189H413L417 224H61Z" glyph-name="euro.osf" horiz-adv-x="612" /><glyph d="M556 70 544 80C501 41 446 25 385 25C265 25 194 121 194 272C194 415 270 512 383 512C453 512 502 472 502 410C502 401 501 392 499 380C504 378 510 377 517 377C535 377 546 394 546 420C546 491 473 545 386 545C245 545 151 423 151 268C151 91 238 -10 377 -10C450 -10 522 18 556 70ZM70 299H427L432 334H75ZM56 189H413L417 224H61Z" glyph-name="euro.sc" horiz-adv-x="612" /><glyph d="M529 80 518 91C474 49 433 25 368 25C253 25 187 152 187 352C187 537 258 662 364 662C429 662 475 610 475 530C475 521 474 512 472 500C477 498 483 497 490 497C508 497 519 514 519 540C519 628 451 695 369 695C234 695 144 542 144 348C144 120 227 -10 360 -10C439 -10 496 30 529 80ZM74 365H430L435 400H79ZM60 232H416L420 267H65Z" glyph-name="euro.tf" horiz-adv-x="560" /><glyph d="M344 545C215 545 129 423 129 268C129 91 208 -10 335 -10C400 -10 460 20 493 70L481 80C441 44 396 25 343 25C236 25 172 121 172 272C172 415 240 512 341 512C399 512 440 472 440 410C440 401 439 392 437 380C442 378 448 377 455 377C473 377 484 394 484 420C484 491 420 545 344 545ZM59 299H385L390 334H64ZM45 189H371L375 224H50Z" glyph-name="euro.tf.sc" horiz-adv-x="523" /><glyph d="M514 70 502 80C462 44 416 25 363 25C256 25 192 121 192 272C192 415 260 512 361 512C419 512 460 472 460 410C460 401 459 392 457 380C462 378 468 377 475 377C493 377 504 394 504 420C504 491 440 545 364 545C235 545 149 423 149 268C149 91 228 -10 355 -10C420 -10 481 20 514 70ZM79 299H405L410 334H84ZM65 189H391L395 224H70Z" glyph-name="euro.tosf" horiz-adv-x="560" /><glyph d="M111 685 126 190H154L171 648C171 658 172 670 172 680C172 691 168 695 158 695C149 695 137 693 129 691L114 688ZM176 37C176 62 164 80 142 80C119 80 104 57 104 33C104 9 117 -10 139 -10C165 -10 176 14 176 37ZM140 202Z" glyph-name="exclam" horiz-adv-x="280" unicode="!" /><glyph d="M111 685 126 190H154L171 648C171 658 172 670 172 680C172 691 168 695 158 695C149 695 137 693 129 691L114 688ZM176 37C176 62 164 80 142 80C119 80 104 57 104 33C104 9 117 -10 139 -10C165 -10 176 14 176 37ZM140 202Z" glyph-name="exclam.caps" horiz-adv-x="280" /><glyph d="M97 535 112 190H140L157 498C158 508 158 520 158 530C158 541 154 545 144 545C135 545 119 542 114 541L100 538ZM162 37C162 62 150 80 128 80C105 80 90 57 90 33C90 9 103 -10 125 -10C151 -10 162 14 162 37Z" glyph-name="exclam.sc" horiz-adv-x="252" /><glyph d="M169 -190 154 305H126L109 -153C109 -163 108 -175 108 -185C108 -196 112 -200 122 -200C131 -200 143 -198 151 -196L166 -193ZM104 458C104 433 116 415 138 415C161 415 176 438 176 462C176 486 163 505 141 505C115 505 104 481 104 458ZM140 293Z" glyph-name="exclamdown" horiz-adv-x="280" unicode="&#161;" /><glyph d="M169 0 154 495H126L109 37C109 27 108 15 108 5C108 -6 112 -10 122 -10C131 -10 143 -8 151 -6L166 -3ZM104 648C104 623 116 605 138 605C161 605 176 628 176 652C176 676 163 695 141 695C115 695 104 671 104 648ZM140 483Z" glyph-name="exclamdown.caps" horiz-adv-x="280" /><glyph d="M155 0 140 345H112L95 37C94 27 94 15 94 5C94 -6 98 -10 108 -10C117 -10 133 -7 138 -6L152 -3ZM90 498C90 473 102 455 124 455C147 455 162 478 162 502C162 526 149 545 127 545C101 545 90 521 90 498Z" glyph-name="exclamdown.sc" horiz-adv-x="252" /><glyph d="M299 490H127H122L47 476L49 460H299ZM122 508V120H162V520C162 647 212 722 293 722C343 722 373 690 385 645C387 644 390 644 392 644C407 644 417 655 417 671C417 713 369 755 304 755C195 755 122 659 122 508ZM162 35V120H122V60C122 40 117 35 95 29L47 16L49 0H255L257 16Z" glyph-name="f" horiz-adv-x="309" unicode="f" /><glyph d="M252 312H111H107L45 300L47 288H252ZM107 326V23H140V337C140 435 181 493 247 493C288 493 313 468 323 431C324 430 327 430 328 430C341 430 349 439 349 452C349 486 310 519 256 519C167 519 107 444 107 326ZM140 -42V23H107V-22C107 -38 103 -42 85 -47L45 -57L47 -70H216L218 -57Z" glyph-name="f.inferior" horiz-adv-x="239" /><glyph d="M132 415V120H172V415ZM172 535V505H287C321 505 360 503 383 502C388 482 394 460 398 444L413 387H426C428 410 429 433 429 461C429 489 427 514 423 535ZM172 269V238L358 234L359 274ZM172 535V415H132V476C132 493 127 501 108 505L57 517L59 535ZM172 37V120H132V59C132 42 127 34 108 30L57 18L59 0H260L262 18Z" glyph-name="f.sc" horiz-adv-x="455" /><glyph d="M252 751H111H107L45 739L47 727H252ZM107 765V462H140V776C140 874 181 932 247 932C288 932 313 907 323 870C324 869 327 869 328 869C341 869 349 878 349 891C349 925 310 958 256 958C167 958 107 883 107 765ZM140 397V462H107V417C107 401 103 397 85 392L45 382L47 369H216L218 382Z" glyph-name="f.superior" horiz-adv-x="239" /><glyph d="M377 490H127H122L47 476L49 460H377ZM122 513V120H162V525C162 636 212 702 293 702C347 702 382 658 392 612C394 611 397 611 399 611C414 611 424 622 424 638C424 675 369 735 301 735C194 735 122 649 122 513ZM162 35V120H122V60C122 40 117 35 95 29L47 16L49 0H255L257 16ZM562 490H390H385L310 476L312 460H562ZM385 508V120H425V520C425 647 475 722 556 722C606 722 636 690 648 645C650 644 653 644 655 644C670 644 680 655 680 671C680 713 632 755 567 755C458 755 385 659 385 508ZM425 35V120H385V60C385 40 380 35 358 29L310 16L312 0H518L520 16Z" glyph-name="f_f" horiz-adv-x="572" unicode="&#64256;" /><glyph d="M672 35V120H632V60C632 40 627 35 605 29L557 16L559 0H745L747 16ZM672 385H632V120H672ZM672 385V495L662 505C651 502 637 494 632 490V385ZM417 35V120H377V60C377 40 372 35 350 29L302 16L304 0H510L512 16ZM632 490H377L302 476L304 460H632ZM377 508V120H417V520C417 647 467 722 548 722C598 722 628 690 640 645C642 644 645 644 647 644C662 644 672 655 672 671C672 713 624 755 559 755C450 755 377 659 377 508ZM162 35V120H122V60C122 40 117 35 95 29L47 16L49 0H255L257 16ZM377 490H127H122L47 476L49 460H377ZM122 513V120H162V525C162 636 212 702 293 702C347 702 382 658 392 612C394 611 397 611 399 611C414 611 424 622 424 638C424 675 369 735 301 735C194 735 122 649 122 513Z" glyph-name="f_f_i" horiz-adv-x="786" unicode="&#64259;" /><glyph d="M672 35V120H632V60C632 40 627 35 605 29L557 16L559 0H745L747 16ZM672 636H632V120H672ZM672 636V746L662 756C653 755 642 753 632 751V636ZM417 35V120H377V60C377 40 372 35 350 29L302 16L304 0H510L512 16ZM652 490H377L302 476L304 460H652ZM377 533V120H417V545C417 656 467 722 548 722C602 722 644 681 647 632C649 631 652 631 654 631C665 631 672 644 672 663C672 698 623 755 551 755C449 755 377 669 377 533ZM162 35V120H122V60C122 40 117 35 95 29L47 16L49 0H255L257 16ZM377 490H127H122L47 476L49 460H377ZM122 513V120H162V525C162 636 212 702 293 702C347 702 382 658 392 612C394 611 397 611 399 611C414 611 424 622 424 638C424 675 369 735 301 735C194 735 122 649 122 513Z" glyph-name="f_f_l" horiz-adv-x="786" unicode="&#64260;" /><glyph d="M417 385H377V120H417ZM417 385V495L407 505C396 502 382 494 377 490V385ZM417 35V120H377V60C377 40 372 35 350 29L302 16L304 0H490L492 16ZM377 490H127H122L47 476L49 460H377ZM122 508V120H162V520C162 647 212 722 293 722C343 722 373 690 385 645C387 644 390 644 392 644C407 644 417 655 417 671C417 713 369 755 304 755C195 755 122 659 122 508ZM162 35V120H122V60C122 40 117 35 95 29L47 16L49 0H255L257 16Z" glyph-name="f_i" horiz-adv-x="531" /><glyph d="M397 490H127H122L47 476L49 460H397ZM122 533V120H162V545C162 656 212 722 293 722C347 722 389 681 392 632C394 631 397 631 399 631C410 631 417 644 417 663C417 698 368 755 296 755C194 755 122 669 122 533ZM162 35V120H122V60C122 40 117 35 95 29L47 16L49 0H255L257 16ZM417 636H377V120H417ZM417 636V746L407 756C398 755 387 753 377 751V636ZM417 35V120H377V60C377 40 372 35 350 29L302 16L304 0H490L492 16Z" glyph-name="f_l" horiz-adv-x="531" /><glyph d="M417 385H377V120H417ZM417 385V495L407 505C396 502 382 494 377 490V385ZM417 35V120H377V60C377 40 372 35 350 29L302 16L304 0H490L492 16ZM377 490H127H122L47 476L49 460H377ZM122 508V120H162V520C162 647 212 722 293 722C343 722 373 690 385 645C387 644 390 644 392 644C407 644 417 655 417 671C417 713 369 755 304 755C195 755 122 659 122 508ZM162 35V120H122V60C122 40 117 35 95 29L47 16L49 0H255L257 16Z" glyph-name="fi" horiz-adv-x="531" unicode="&#64257;" /><glyph glyph-name="figurespace" horiz-adv-x="520" unicode="&#8199;" /><glyph d="M86 218 96 208C296 215 408 163 408 37C408 -58 340 -120 231 -120C139 -120 82 -85 82 -23C82 -4 86 12 90 24L81 31C55 16 40 -8 40 -38C40 -105 117 -150 225 -150C354 -150 450 -71 450 40C450 174 329 237 164 237C147 237 121 237 107 234L124 233V502L114 492H342C388 492 388 473 395 385H413C420 424 425 482 424 530H86Z" glyph-name="five" horiz-adv-x="498" unicode="5" /><glyph d="M87 389 86 209 93 203C221 206 294 172 294 101C294 48 248 10 181 10C124 10 89 30 89 66C89 76 91 84 93 90L87 95C67 87 56 73 56 55C56 16 107 -10 179 -10C264 -10 327 37 327 104C327 184 248 221 140 221C128 221 111 221 101 219L116 218L117 369L106 363H258C288 363 289 352 292 303H305C310 327 314 361 313 389Z" glyph-name="five.denominator" horiz-adv-x="383" /><glyph d="M86 373 96 363C296 370 408 311 408 185C408 90 340 20 231 20C139 20 82 55 82 117C82 136 86 152 90 164L81 171C55 156 40 132 40 102C40 35 117 -10 225 -10C354 -10 450 77 450 188C450 322 329 392 164 392C147 392 121 392 107 389L124 388V657L114 647H342C388 647 388 628 395 540H413C420 579 425 637 424 685H86Z" glyph-name="five.lf" horiz-adv-x="498" /><glyph d="M87 675 86 495 93 489C221 492 294 458 294 387C294 334 248 296 181 296C124 296 89 316 89 352C89 362 91 370 93 376L87 381C67 373 56 359 56 341C56 302 107 276 179 276C264 276 327 323 327 390C327 470 248 507 140 507C128 507 111 507 101 505L116 504L117 655L106 649H258C288 649 289 638 292 589H305C310 613 314 647 313 675Z" glyph-name="five.numerator" horiz-adv-x="383" /><glyph d="M86 218 96 208C296 215 408 163 408 37C408 -58 340 -120 231 -120C139 -120 82 -85 82 -23C82 -4 86 12 90 24L81 31C55 16 40 -8 40 -38C40 -105 117 -150 225 -150C354 -150 450 -71 450 40C450 174 329 237 164 237C147 237 121 237 107 234L124 233V507L114 497H342C388 497 388 478 395 390H413C420 429 425 487 424 535H86Z" glyph-name="five.osf" horiz-adv-x="498" /><glyph d="M79 285 89 275C255 277 348 236 348 136C348 65 290 20 205 20C129 20 82 48 82 102C82 112 83 119 85 126L76 132C55 122 40 104 40 78C40 25 106 -10 200 -10C308 -10 390 50 390 148C390 253 286 302 147 305C131 305 109 305 97 302L117 297V507L103 497H298C337 497 335 479 343 400H359C366 441 369 493 369 535H79Z" glyph-name="five.sc" horiz-adv-x="438" /><glyph d="M126 361 136 351C330 358 438 300 438 177C438 82 371 20 271 20C179 20 122 55 122 117C122 136 126 152 130 164L121 171C95 156 80 132 80 102C80 35 157 -10 265 -10C388 -10 480 69 480 180C480 311 363 380 204 380C187 380 161 380 147 377L164 376V657L154 647H372C418 647 418 628 425 540H443C450 579 455 637 454 685H126Z" glyph-name="five.tf" horiz-adv-x="560" /><glyph d="M139 285 149 275C321 277 418 236 418 136C418 65 360 20 275 20C193 20 142 48 142 102C142 112 143 119 145 126L136 132C115 122 100 104 100 78C100 25 170 -10 270 -10C378 -10 460 50 460 148C460 253 352 302 207 305C191 305 169 305 157 302L177 297V507L163 497H368C407 497 405 479 413 400H429C436 441 439 493 439 535H139Z" glyph-name="five.tf.sc" horiz-adv-x="560" /><glyph d="M131 223 141 213C335.0029 220.0001 443 161.4205 443 35C443 -67.7907 376.2326 -135 269 -135C181.2361 -135 127 -100 127 -38C127 -19 131 -3 135 9L126 16C100 1 85 -23 85 -53C85 -120 159.1667 -165 263 -165C390.1455 -165 485 -80.8293 485 38C485 171.3069 368 242 209 242C192 242 166 242 152 239L169 238V507L159 497H377C423 497 423 478 430 390H448C455 429 460 487 459 535H131Z" glyph-name="five.tosf" horiz-adv-x="560" /><glyph d="M87 313 86 133 93 127C221 130 294 96 294 25C294 -28 248 -66 181 -66C124 -66 89 -46 89 -10C89 0 91 8 93 14L87 19C67 11 56 -3 56 -21C56 -60 107 -86 179 -86C264 -86 327 -39 327 28C327 108 248 145 140 145C128 145 111 145 101 143L116 142L117 293L106 287H258C288 287 289 276 292 227H305C310 251 314 285 313 313Z" glyph-name="fiveinferior" horiz-adv-x="383" /><glyph d="M87 745 86 565 93 559C221 562 294 528 294 457C294 404 248 366 181 366C124 366 89 386 89 422C89 432 91 440 93 446L87 451C67 443 56 429 56 411C56 372 107 346 179 346C264 346 327 393 327 460C327 540 248 577 140 577C128 577 111 577 101 575L116 574L117 725L106 719H258C288 719 289 708 292 659H305C310 683 314 717 313 745Z" glyph-name="fivesuperior" horiz-adv-x="383" /><glyph d="M397 490H127H122L47 476L49 460H397ZM122 533V120H162V545C162 656 212 722 293 722C347 722 389 681 392 632C394 631 397 631 399 631C410 631 417 644 417 663C417 698 368 755 296 755C194 755 122 669 122 533ZM162 35V120H122V60C122 40 117 35 95 29L47 16L49 0H255L257 16ZM417 636H377V120H417ZM417 636V746L407 756C398 755 387 753 377 751V636ZM417 35V120H377V60C377 40 372 35 350 29L302 16L304 0H490L492 16Z" glyph-name="fl" horiz-adv-x="531" unicode="&#64258;" /><glyph d="M72 288H419L423 323H76ZM374 584C422 584 459 553 480 480C493 482 507 494 507 516C507 562 460 615 390 615C299 615 227 539 208 398L164 80C148 -37 117 -102 62 -102C25 -102 -3 -73 -23 -45C-32 -50 -40 -61 -40 -75C-40 -107 -7 -135 40 -135C124 -135 189 -51 208 92L251 410C266 521 307 584 374 584Z" glyph-name="florin" horiz-adv-x="531" /><glyph d="M89 298H436L440 333H93ZM401 665C453 665 487 632 507 561C521 565 534 575 534 597C534 643 487 696 417 696C323 696 250 609 229 449L164 -40C148 -157 117 -222 62 -222C25 -222 -3 -193 -23 -165C-32 -170 -40 -181 -40 -195C-40 -227 -7 -255 40 -255C124 -255 190 -166 208 -28L272 461C289 591 331 665 401 665Z" glyph-name="florin.lf" horiz-adv-x="558" /><glyph d="M72 288H419L423 323H76ZM374 584C422 584 459 553 480 480C493 482 507 494 507 516C507 562 460 615 390 615C299 615 227 539 208 398L164 80C148 -37 117 -102 62 -102C25 -102 -3 -73 -23 -45C-32 -50 -40 -61 -40 -75C-40 -107 -7 -135 40 -135C124 -135 189 -51 208 92L251 410C266 521 307 584 374 584Z" glyph-name="florin.osf" horiz-adv-x="531" /><glyph d="M72 288H419L423 323H76ZM374 584C422 584 459 553 480 480C493 482 507 494 507 516C507 562 460 615 390 615C299 615 227 539 208 398L164 80C148 -37 117 -102 62 -102C25 -102 -3 -73 -23 -45C-32 -50 -40 -61 -40 -75C-40 -107 -7 -135 40 -135C124 -135 189 -51 208 92L251 410C266 521 307 584 374 584Z" glyph-name="florin.sc" horiz-adv-x="531" /><glyph d="M95 298H442L446 333H99ZM407 665C459 665 493 632 513 561C527 565 540 575 540 597C540 643 493 696 423 696C329 696 256 609 235 449L170 -40C154 -157 123 -222 68 -222C31 -222 3 -193 -17 -165C-26 -170 -34 -181 -34 -195C-34 -227 -1 -255 46 -255C130 -255 196 -166 214 -28L278 461C295 591 337 665 407 665Z" glyph-name="florin.tf" horiz-adv-x="560" /><glyph d="M95 288H442L446 323H99ZM397 584C440 584 472 552 493 480C506 482 520 494 520 516C520 562 477 615 413 615C322 615 250 539 231 398L187 80C171 -37 140 -102 84 -102C49 -102 22 -73 2 -45C-7 -50 -15 -61 -15 -75C-15 -107 18 -135 61 -135C146 -135 212 -51 231 92L274 410C289 521 330 584 397 584Z" glyph-name="florin.tf.sc" horiz-adv-x="525" /><glyph d="M110 288H457L461 323H114ZM412 584C455 584 487 552 508 480C521 482 535 494 535 516C535 562 492 615 428 615C337 615 265 539 246 398L202 80C186 -37 155 -102 99 -102C64 -102 37 -73 17 -45C8 -50 0 -61 0 -75C0 -107 33 -135 76 -135C161 -135 227 -51 246 92L289 410C304 521 345 584 412 584Z" glyph-name="florin.tosf" horiz-adv-x="560" /><glyph d="M24 54 36 27H509L517 65H50L64 52L380 509L354 506V-141H394V530L364 535Z" glyph-name="four" horiz-adv-x="557" unicode="4" /><glyph d="M56 113 64 95H380L385 119H75L84 112L291 380L273 378V0H306V396L282 399Z" glyph-name="four.denominator" horiz-adv-x="441" /><glyph d="M24 195 36 168H509L517 206H50L64 193L380 669L354 666V0H394V690L364 695Z" glyph-name="four.lf" horiz-adv-x="557" /><glyph d="M56 399 64 381H380L385 405H75L84 398L291 666L273 664V286H306V682L282 685Z" glyph-name="four.numerator" horiz-adv-x="441" /><glyph d="M24 54 36 27H509L517 65H50L64 52L380 519L354 516V-141H394V540L364 545Z" glyph-name="four.osf" horiz-adv-x="557" /><glyph d="M24 163 34 136H439L446 174H47L69 168L320 506L303 499V0H343V540L313 545Z" glyph-name="four.sc" horiz-adv-x="486" /><glyph d="M55 195 67 168H497L505 206H81L95 193L408 669L382 666V0H422V690L392 695Z" glyph-name="four.tf" horiz-adv-x="560" /><glyph d="M60 163 70 136H473L480 174H83L105 168L374 506L357 499V0H397V540L367 545Z" glyph-name="four.tf.sc" horiz-adv-x="560" /><glyph d="M35 54 47 27H477L485 65H61L75 52L388 514L362 511V-145H402V535L372 540Z" glyph-name="four.tosf" horiz-adv-x="560" /><glyph d="M56 37 64 19H380L385 43H75L84 36L291 304L273 302V-76H306V320L282 323Z" glyph-name="fourinferior" horiz-adv-x="441" /><glyph d="M56 469 64 451H380L385 475H75L84 468L291 736L273 734V356H306V752L282 755Z" glyph-name="foursuperior" horiz-adv-x="441" /><glyph d="M365 695H325L-96 -10H-57Z" glyph-name="fraction" horiz-adv-x="269" unicode="&#8260;" /><glyph d="M76 317C76 221 141 150 229 150C323 150 386 223 386 333C386 434 325 505 239 505C144 505 76 426 76 317ZM343 322C343 235 300 182 230 183C164 184 119 245 119 331C119 414 167 472 235 472C303 472 343 417 343 322ZM320 476 334 458C363 461 391 461 423 461C438 461 443 466 445 475C446 479 447 487 447 494C447 511 442 517 430 517C411 517 353 497 320 476ZM194 158 167 164C142 138 127 111 127 83C127 44 154 13 204 8L289 0C360 -7 399 -43 399 -101C399 -172 332 -222 234 -222C140 -222 84 -177 84 -103C84 -78 91 -53 106 -27L94 -17C58 -46 41 -79 41 -119C41 -200 115 -255 225 -255C352 -255 442 -188 442 -94C442 -18 391 31 301 40L213 49C179 52 164 65 164 95C164 120 177 140 194 158ZM237 495ZM240 -245Z" glyph-name="g" horiz-adv-x="471" unicode="g" /><glyph d="M71 177C71 102 124 47 196 47C274 47 325 104 325 190C325 269 275 324 205 324C127 324 71 262 71 177ZM290 181C290 113 255 72 197 73C143 74 106 121 106 188C106 253 146 298 201 298C257 298 290 256 290 181ZM271 301 283 287C307 289 330 289 356 289C368 289 372 293 374 300C375 304 375 310 375 316C375 330 371 335 361 335C346 335 298 319 271 301ZM168 53 146 58C125 38 113 16 113 -7C113 -37 135 -62 176 -66L246 -72C304 -78 336 -105 336 -150C336 -204 281 -243 201 -243C124 -243 78 -207 78 -149C78 -131 83 -112 96 -93L86 -85C56 -107 42 -132 42 -164C42 -227 103 -269 193 -269C297 -269 371 -216 371 -142C371 -82 329 -44 256 -37L183 -30C156 -28 143 -18 143 5C143 24 154 40 168 53Z" glyph-name="g.inferior" horiz-adv-x="385" /><glyph d="M327 -10C378 -10 435 0 466 14V127H426V21L439 37C398 26 369 22 326 22C183 22 92 115 92 267C92 412 194 513 323 513C368 513 391 508 418 502L449 386L462 387C466 415 467 450 467 473C467 492 466 508 465 521C432 534 390 545 327 545C171 545 50 435 50 265C50 92 149 -10 327 -10ZM426 210V127H466V188C466 205 471 213 490 217L541 229L539 247H353L351 229ZM297 535ZM309 0Z" glyph-name="g.sc" horiz-adv-x="581" /><glyph d="M71 616C71 541 124 486 196 486C274 486 325 543 325 629C325 708 275 763 205 763C127 763 71 701 71 616ZM290 620C290 552 255 511 197 512C143 513 106 560 106 627C106 692 146 737 201 737C257 737 290 695 290 620ZM271 740 283 726C307 728 330 728 356 728C368 728 372 732 374 739C375 743 375 749 375 755C375 769 371 774 361 774C346 774 298 758 271 740ZM168 492 146 497C125 477 113 455 113 432C113 402 135 377 176 373L246 367C304 361 336 334 336 289C336 235 281 196 201 196C124 196 78 232 78 290C78 308 83 327 96 346L86 354C56 332 42 307 42 275C42 212 103 170 193 170C297 170 371 223 371 297C371 357 329 395 256 402L183 409C156 411 143 421 143 444C143 463 154 479 168 492Z" glyph-name="g.superior" horiz-adv-x="385" /><glyph d="M76 317C76 221 141 150 229 150C323 150 386 223 386 333C386 434 325 505 239 505C144 505 76 426 76 317ZM343 322C343 235 300 182 230 183C164 184 119 245 119 331C119 414 167 472 235 472C303 472 343 417 343 322ZM320 476 334 458C363 461 391 461 423 461C438 461 443 466 445 475C446 479 447 487 447 494C447 511 442 517 430 517C411 517 353 497 320 476ZM194 158 167 164C142 138 127 111 127 83C127 44 154 13 204 8L289 0C360 -7 399 -43 399 -101C399 -172 332 -222 234 -222C140 -222 84 -177 84 -103C84 -78 91 -53 106 -27L94 -17C58 -46 41 -79 41 -119C41 -200 115 -255 225 -255C352 -255 442 -188 442 -94C442 -18 391 31 301 40L213 49C179 52 164 65 164 95C164 120 177 140 194 158ZM237 495ZM240 -245ZM339 732C339 745 329 755 307 755C306 755 304 755 303 755L298 753C276 712 225 650 172 593L184 581C250 631 339 698 339 732ZM256 745ZM237 495Z" glyph-name="gacute" horiz-adv-x="471" unicode="&#501;" /><glyph d="M327 -10C378 -10 435 0 466 14V127H426V21L439 37C398 26 369 22 326 22C183 22 92 115 92 267C92 412 194 513 323 513C368 513 391 508 418 502L449 386L462 387C466 415 467 450 467 473C467 492 466 508 465 521C432 534 390 545 327 545C171 545 50 435 50 265C50 92 149 -10 327 -10ZM426 210V127H466V188C466 205 471 213 490 217L541 229L539 247H353L351 229ZM297 535ZM309 0ZM399 772C399 785 389 795 367 795C366 795 364 795 363 795L358 793C336 752 285 690 232 633L244 621C310 671 399 738 399 772ZM316 785ZM297 535Z" glyph-name="gacute.sc" horiz-adv-x="581" /><glyph d="M76 317C76 221 141 150 229 150C323 150 386 223 386 333C386 434 325 505 239 505C144 505 76 426 76 317ZM343 322C343 235 300 182 230 183C164 184 119 245 119 331C119 414 167 472 235 472C303 472 343 417 343 322ZM320 476 334 458C363 461 391 461 423 461C438 461 443 466 445 475C446 479 447 487 447 494C447 511 442 517 430 517C411 517 353 497 320 476ZM194 158 167 164C142 138 127 111 127 83C127 44 154 13 204 8L289 0C360 -7 399 -43 399 -101C399 -172 332 -222 234 -222C140 -222 84 -177 84 -103C84 -78 91 -53 106 -27L94 -17C58 -46 41 -79 41 -119C41 -200 115 -255 225 -255C352 -255 442 -188 442 -94C442 -18 391 31 301 40L213 49C179 52 164 65 164 95C164 120 177 140 194 158ZM237 495ZM240 -245ZM338 728C322 678 285 648 239 648C188 648 150 679 135 730L118 727C129 650 174 605 234 605C295 605 341 650 356 727L342 730ZM237 745ZM237 495Z" glyph-name="gbreve" horiz-adv-x="471" unicode="&#287;" /><glyph d="M327 -10C378 -10 435 0 466 14V127H426V21L439 37C398 26 369 22 326 22C183 22 92 115 92 267C92 412 194 513 323 513C368 513 391 508 418 502L449 386L462 387C466 415 467 450 467 473C467 492 466 508 465 521C432 534 390 545 327 545C171 545 50 435 50 265C50 92 149 -10 327 -10ZM426 210V127H466V188C466 205 471 213 490 217L541 229L539 247H353L351 229ZM297 535ZM309 0ZM398 768C382 718 345 688 299 688C248 688 210 719 195 770L178 767C189 690 234 645 294 645C355 645 401 690 416 767L402 770ZM297 785ZM297 535Z" glyph-name="gbreve.sc" horiz-adv-x="581" /><glyph d="M76 317C76 221 141 150 229 150C323 150 386 223 386 333C386 434 325 505 239 505C144 505 76 426 76 317ZM343 322C343 235 300 182 230 183C164 184 119 245 119 331C119 414 167 472 235 472C303 472 343 417 343 322ZM320 476 334 458C363 461 391 461 423 461C438 461 443 466 445 475C446 479 447 487 447 494C447 511 442 517 430 517C411 517 353 497 320 476ZM194 158 167 164C142 138 127 111 127 83C127 44 154 13 204 8L289 0C360 -7 399 -43 399 -101C399 -172 332 -222 234 -222C140 -222 84 -177 84 -103C84 -78 91 -53 106 -27L94 -17C58 -46 41 -79 41 -119C41 -200 115 -255 225 -255C352 -255 442 -188 442 -94C442 -18 391 31 301 40L213 49C179 52 164 65 164 95C164 120 177 140 194 158ZM237 495ZM240 -245ZM226 617 252 619C205 660 158 712 122 752L108 742C147 682 188 624 215 588H256L262 592C277 621 328 694 365 740L353 752C312 714 248 646 226 617ZM236 745ZM237 495Z" glyph-name="gcaron" horiz-adv-x="471" unicode="&#487;" /><glyph d="M327 -10C378 -10 435 0 466 14V127H426V21L439 37C398 26 369 22 326 22C183 22 92 115 92 267C92 412 194 513 323 513C368 513 391 508 418 502L449 386L462 387C466 415 467 450 467 473C467 492 466 508 465 521C432 534 390 545 327 545C171 545 50 435 50 265C50 92 149 -10 327 -10ZM426 210V127H466V188C466 205 471 213 490 217L541 229L539 247H353L351 229ZM297 535ZM309 0ZM286 657 312 659C265 700 218 752 182 792L168 782C207 722 248 664 275 628H316L322 632C337 661 388 734 425 780L413 792C372 754 308 686 286 657ZM296 785ZM297 535Z" glyph-name="gcaron.sc" horiz-adv-x="581" /><glyph d="M76 317C76 221 141 150 229 150C323 150 386 223 386 333C386 434 325 505 239 505C144 505 76 426 76 317ZM343 322C343 235 300 182 230 183C164 184 119 245 119 331C119 414 167 472 235 472C303 472 343 417 343 322ZM320 476 334 458C363 461 391 461 423 461C438 461 443 466 445 475C446 479 447 487 447 494C447 511 442 517 430 517C411 517 353 497 320 476ZM194 158 167 164C142 138 127 111 127 83C127 44 154 13 204 8L289 0C360 -7 399 -43 399 -101C399 -172 332 -222 234 -222C140 -222 84 -177 84 -103C84 -78 91 -53 106 -27L94 -17C58 -46 41 -79 41 -119C41 -200 115 -255 225 -255C352 -255 442 -188 442 -94C442 -18 391 31 301 40L213 49C179 52 164 65 164 95C164 120 177 140 194 158ZM237 495ZM240 -245ZM247 721 221 719C268 678 315 626 351 586L365 596C326 656 285 714 258 750H217L211 746C196 717 145 644 108 598L120 586C161 624 225 692 247 721ZM236 745ZM237 495Z" glyph-name="gcircumflex" horiz-adv-x="471" unicode="&#285;" /><glyph d="M327 -10C378 -10 435 0 466 14V127H426V21L439 37C398 26 369 22 326 22C183 22 92 115 92 267C92 412 194 513 323 513C368 513 391 508 418 502L449 386L462 387C466 415 467 450 467 473C467 492 466 508 465 521C432 534 390 545 327 545C171 545 50 435 50 265C50 92 149 -10 327 -10ZM426 210V127H466V188C466 205 471 213 490 217L541 229L539 247H353L351 229ZM297 535ZM309 0ZM307 761 281 759C328 718 375 666 411 626L425 636C386 696 345 754 318 790H277L271 786C256 757 205 684 168 638L180 626C221 664 285 732 307 761ZM296 785ZM297 535Z" glyph-name="gcircumflex.sc" horiz-adv-x="581" /><glyph d="M76 317C76 221 141 150 229 150C323 150 386 223 386 333C386 434 325 505 239 505C144 505 76 426 76 317ZM343 322C343 235 300 182 230 183C164 184 119 245 119 331C119 414 167 472 235 472C303 472 343 417 343 322ZM320 476 334 458C363 461 391 461 423 461C438 461 443 466 445 475C446 479 447 487 447 494C447 511 442 517 430 517C411 517 353 497 320 476ZM194 158 167 164C142 138 127 111 127 83C127 44 154 13 204 8L289 0C360 -7 399 -43 399 -101C399 -172 332 -222 234 -222C140 -222 84 -177 84 -103C84 -78 91 -53 106 -27L94 -17C58 -46 41 -79 41 -119C41 -200 115 -255 225 -255C352 -255 442 -188 442 -94C442 -18 391 31 301 40L213 49C179 52 164 65 164 95C164 120 177 140 194 158ZM237 495ZM240 -245ZM195 661C195 634 210 618 234 618C257 618 276 639 276 663C276 688 258 703 233 703L239 671C240 710 258 775 279 808L268 817C230 784 195 713 195 661ZM234 496Z" glyph-name="gcommaaccent" horiz-adv-x="471" unicode="&#291;" /><glyph d="M327 -10C378 -10 435 0 466 14V127H426V21L439 37C398 26 369 22 326 22C183 22 92 115 92 267C92 412 194 513 323 513C368 513 391 508 418 502L449 386L462 387C466 415 467 450 467 473C467 492 466 508 465 521C432 534 390 545 327 545C171 545 50 435 50 265C50 92 149 -10 327 -10ZM426 210V127H466V188C466 205 471 213 490 217L541 229L539 247H353L351 229ZM297 535ZM309 0ZM348 -165C348 -138 333 -122 309 -122C286 -122 267 -143 267 -167C267 -192 285 -207 310 -207L304 -175C303 -214 285 -279 264 -312L275 -321C313 -288 348 -217 348 -165ZM309 0Z" glyph-name="gcommaaccent.sc" horiz-adv-x="581" /><glyph d="M76 317C76 221 141 150 229 150C323 150 386 223 386 333C386 434 325 505 239 505C144 505 76 426 76 317ZM343 322C343 235 300 182 230 183C164 184 119 245 119 331C119 414 167 472 235 472C303 472 343 417 343 322ZM320 476 334 458C363 461 391 461 423 461C438 461 443 466 445 475C446 479 447 487 447 494C447 511 442 517 430 517C411 517 353 497 320 476ZM194 158 167 164C142 138 127 111 127 83C127 44 154 13 204 8L289 0C360 -7 399 -43 399 -101C399 -172 332 -222 234 -222C140 -222 84 -177 84 -103C84 -78 91 -53 106 -27L94 -17C58 -46 41 -79 41 -119C41 -200 115 -255 225 -255C352 -255 442 -188 442 -94C442 -18 391 31 301 40L213 49C179 52 164 65 164 95C164 120 177 140 194 158ZM237 495ZM240 -245ZM273 665C273 690 261 708 239 708C216 708 201 685 201 661C201 637 214 618 236 618C262 618 273 642 273 665ZM237 745ZM237 495Z" glyph-name="gdotaccent" horiz-adv-x="471" unicode="&#289;" /><glyph d="M327 -10C378 -10 435 0 466 14V127H426V21L439 37C398 26 369 22 326 22C183 22 92 115 92 267C92 412 194 513 323 513C368 513 391 508 418 502L449 386L462 387C466 415 467 450 467 473C467 492 466 508 465 521C432 534 390 545 327 545C171 545 50 435 50 265C50 92 149 -10 327 -10ZM426 210V127H466V188C466 205 471 213 490 217L541 229L539 247H353L351 229ZM297 535ZM309 0ZM333 705C333 730 321 748 299 748C276 748 261 725 261 701C261 677 274 658 296 658C322 658 333 682 333 705ZM297 785ZM297 535Z" glyph-name="gdotaccent.sc" horiz-adv-x="581" /><glyph d="M493 182C493 322 425 420 301 448V440C400 452 445 534 445 607C445 696 385 755 296 755C180 755 114 665 114 508V120H154V520C154 652 202 727 285 727C356 727 402 676 402 599C402 535 370 460 262 446V433C382 406 450 313 450 178C450 90 402 23 338 23C289 23 259 55 247 100C245 101 242 101 240 101C225 101 215 90 215 74C215 32 264 -10 330 -10C423 -10 493 73 493 182ZM142 0 154 16V120H114V60C114 40 109 35 87 29L39 16L41 0ZM119 460V490H114L39 476L41 460Z" glyph-name="germandbls" horiz-adv-x="549" unicode="&#223;" /><glyph d="M59 0H159L172 15V399C172 470 233 524 314 524C370 524 418 506 456 472L459 493L293 309L296 291C402 243 508 203 508 116C508 65 468 23 404 23C365 23 332 28 315 49C299 67 292 92 282 146L269 147C265 125 262 91 262 68C262 44 263 30 270 20C279 6 337 -8 398 -8C492 -8 552 44 552 121C552 225 427 275 327 323L326 304L493 488L490 506C450 539 396 556 324 556C215 556 132 483 132 386V59C132 42 127 34 108 30L57 18Z" glyph-name="germandbls.sc" horiz-adv-x="612" /><glyph d="M267 593C214 650 163 712 141 753L136 755C135 755 133 755 132 755C110 755 100 745 100 732C100 698 189 631 255 581Z" glyph-name="grave" horiz-adv-x="367" unicode="`" /><glyph d="M336 795C237 823 171 866 128 897L121 898C107 893 100 885 100 872C100 830 263 786 329 779Z" glyph-name="grave.case" horiz-adv-x="436" /><glyph d="M267 593C214 650 163 712 141 753L136 755C135 755 133 755 132 755C110 755 100 745 100 732C100 698 189 631 255 581ZM184 745ZM204 495Z" glyph-name="gravecomb" horiz-adv-x="367" unicode="&#768;" /><glyph d="M336 795C237 823 171 866 128 897L121 898C107 893 100 885 100 872C100 830 263 786 329 779ZM218 685Z" glyph-name="gravecomb.case" horiz-adv-x="436" /><glyph d="M90 41 495 263 491 279C402 328 183 445 91 489V444L426 269L90 86Z" glyph-name="greater" horiz-adv-x="560" unicode="&gt;" /><glyph d="M90 117 495 339 491 355C402 404 183 521 91 565V520L426 345L90 162Z" glyph-name="greater.lf" horiz-adv-x="560" /><glyph d="M90 41 495 263 491 279C402 328 183 445 91 489V444L426 269L90 86Z" glyph-name="greater.osf" horiz-adv-x="560" /><glyph d="M90 41 495 263 491 279C402 328 183 445 91 489V444L426 269L90 86Z" glyph-name="greater.sc" horiz-adv-x="560" /><glyph d="M80 120 490 323 486 339C398 386 177 483 80 530V484L421 330L80 166ZM495 0 500 32 492 40C398 40 180 38 90 35V0Z" glyph-name="greaterequal" horiz-adv-x="560" unicode="&#8805;" /><glyph d="M80 196 490 399 486 415C398 462 177 559 80 606V560L421 406L80 242ZM495 76 500 108 492 116C398 116 180 114 90 111V76Z" glyph-name="greaterequal.lf" horiz-adv-x="560" /><glyph d="M80 120 490 323 486 339C398 386 177 483 80 530V484L421 330L80 166ZM495 0 500 32 492 40C398 40 180 38 90 35V0Z" glyph-name="greaterequal.osf" horiz-adv-x="560" /><glyph d="M80 120 490 323 486 339C398 386 177 483 80 530V484L421 330L80 166ZM495 0 500 32 492 40C398 40 180 38 90 35V0Z" glyph-name="greaterequal.sc" horiz-adv-x="560" /><glyph d="M117 260 119 234C169 315 221 399 254 469L239 478C186 397 128 316 84 268V228L88 222C122 191 186 105 237 21L253 29C210 118 153 217 117 260ZM317 260 319 234C369 315 421 399 454 469L439 478C386 397 328 316 284 268V228L288 222C322 191 386 105 437 21L453 29C410 118 353 217 317 260Z" glyph-name="guillemetleft" horiz-adv-x="538" unicode="&#171;" /><glyph d="M117 352 119 326C169 407 221 491 254 561L239 570C186 489 128 408 84 360V320L88 314C122 283 186 197 237 113L253 121C210 210 153 309 117 352ZM317 352 319 326C369 407 421 491 454 561L439 570C386 489 328 408 284 360V320L288 314C322 283 386 197 437 113L453 121C410 210 353 309 317 352Z" glyph-name="guillemetleft.caps" horiz-adv-x="538" /><glyph d="M103 277 105 251C155 332 207 416 240 486L225 495C172 414 114 333 70 285V245L74 239C108 208 172 122 223 38L239 46C196 135 139 234 103 277ZM303 277 305 251C355 332 407 416 440 486L425 495C372 414 314 333 270 285V245L274 239C308 208 372 122 423 38L439 46C396 135 339 234 303 277Z" glyph-name="guillemetleft.sc" horiz-adv-x="510" /><glyph d="M421 235 419 261C369 180 317 96 284 26L299 17C352 98 410 179 454 227V267L450 273C416 304 352 390 301 474L285 466C328 377 385 278 421 235ZM221 235 219 261C169 180 117 96 84 26L99 17C152 98 210 179 254 227V267L250 273C216 304 152 390 101 474L85 466C128 377 185 278 221 235Z" glyph-name="guillemetright" horiz-adv-x="538" unicode="&#187;" /><glyph d="M421 352 419 326C369 407 317 491 284 561L299 570C352 489 410 408 454 360V320L450 314C416 283 352 197 301 113L285 121C328 210 385 309 421 352ZM221 352 219 326C169 407 117 491 84 561L99 570C152 489 210 408 254 360V320L250 314C216 283 152 197 101 113L85 121C128 210 185 309 221 352Z" glyph-name="guillemetright.caps" horiz-adv-x="538" /><glyph d="M407 277 405 251C355 332 303 416 270 486L285 495C338 414 396 333 440 285V245L436 239C402 208 338 122 287 38L271 46C314 135 371 234 407 277ZM207 277 205 251C155 332 103 416 70 486L85 495C138 414 196 333 240 285V245L236 239C202 208 138 122 87 38L71 46C114 135 171 234 207 277Z" glyph-name="guillemetright.sc" horiz-adv-x="510" /><glyph d="M117 259 119 233C169 314 221 398 254 468L239 477C186 396 128 315 84 267V227L88 221C122 190 186 104 237 20L253 28C210 117 153 216 117 259Z" glyph-name="guilsinglleft" horiz-adv-x="338" unicode="&#8249;" /><glyph d="M117 352 119 326C169 407 221 491 254 561L239 570C186 489 128 408 84 360V320L88 314C122 283 186 197 237 113L253 121C210 210 153 309 117 352Z" glyph-name="guilsinglleft.caps" horiz-adv-x="338" /><glyph d="M103 277 105 251C155 332 207 416 240 486L225 495C172 414 114 333 70 285V245L74 239C108 208 172 122 223 38L239 46C196 135 139 234 103 277Z" glyph-name="guilsinglleft.sc" horiz-adv-x="310" /><glyph d="M221 234 219 260C169 179 117 95 84 25L99 16C152 97 210 178 254 226V266L250 272C216 303 152 389 101 473L85 465C128 376 185 277 221 234Z" glyph-name="guilsinglright" horiz-adv-x="338" unicode="&#8250;" /><glyph d="M221 352 219 326C169 407 117 491 84 561L99 570C152 489 210 408 254 360V320L250 314C216 283 152 197 101 113L85 121C128 210 185 309 221 352Z" glyph-name="guilsinglright.caps" horiz-adv-x="338" /><glyph d="M207 277 205 251C155 332 103 416 70 486L85 495C138 414 196 333 240 285V245L236 239C202 208 138 122 87 38L71 46C114 135 171 234 207 277Z" glyph-name="guilsinglright.sc" horiz-adv-x="310" /><glyph d="M154 635H114V120H154ZM414 120H454V353C454 451 405 505 313 505C253 505 192 477 143 431L154 405C199 448 253 472 306 472C378 472 414 429 414 353ZM154 635V745L144 755C113 750 69 740 39 730L41 716L114 710V635ZM154 35V120H114V60C114 40 109 35 87 29L39 16L41 0H227L229 16ZM454 35V120H414V60C414 40 409 35 387 29L339 16L341 0H527L529 16ZM181 581ZM284 0ZM122 711Z" glyph-name="h" horiz-adv-x="568" unicode="h" /><glyph d="M132 425H99V23H132ZM345 23H378V206C378 282 338 324 262 324C213 324 163 302 123 266L132 245C169 278 213 296 256 296C315 296 345 263 345 205ZM378 -42V23H345V-22C345 -38 341 -42 323 -47L283 -57L285 -70H438L439 -57ZM132 -42V23H99V-22C99 -38 95 -42 77 -47L37 -57L39 -70H192L193 -57ZM132 425V511L124 519C98 515 62 507 37 499L39 488L99 482V425Z" glyph-name="h.inferior" horiz-adv-x="476" unicode="&#8341;" /><glyph d="M132 415V120H172V415ZM479 415V120H519V415ZM172 285V254H479V285ZM132 498V415H172V476C172 493 177 501 196 505L247 517L245 535H59L57 517ZM172 37V120H132V59C132 42 127 34 108 30L57 18L59 0H245L247 18ZM479 498V415H519V476C519 493 524 501 543 505L594 517L592 535H406L404 517ZM519 37V120H479V59C479 42 474 34 455 30L404 18L406 0H592L594 18ZM326 377ZM326 0ZM326 535Z" glyph-name="h.sc" horiz-adv-x="651" /><glyph d="M132 864H99V462H132ZM345 462H378V645C378 721 338 763 262 763C213 763 163 741 123 705L132 684C169 717 213 735 256 735C315 735 345 702 345 644ZM378 397V462H345V417C345 401 341 397 323 392L283 382L285 369H438L439 382ZM132 397V462H99V417C99 401 95 397 77 392L37 382L39 369H192L193 382ZM132 864V950L124 958C98 954 62 946 37 938L39 927L99 921V864Z" glyph-name="h.superior" horiz-adv-x="476" /><glyph d="M154 635H114V120H154ZM414 120H454V353C454 451 405 505 313 505C253 505 192 477 143 431L154 405C199 448 253 472 306 472C378 472 414 429 414 353ZM154 635V745L144 755C113 750 69 740 39 730L41 716L114 710V635ZM154 35V120H114V60C114 40 109 35 87 29L39 16L41 0H227L229 16ZM454 35V120H414V60C414 40 409 35 387 29L339 16L341 0H527L529 16ZM181 581ZM284 0ZM122 711ZM361 580V610H2V580ZM181 581Z" glyph-name="hbar" horiz-adv-x="568" unicode="&#295;" /><glyph d="M132 415V120H172V415ZM479 415V120H519V415ZM172 285V254H479V285ZM132 498V415H172V476C172 493 177 501 196 505L247 517L245 535H59L57 517ZM172 37V120H132V59C132 42 127 34 108 30L57 18L59 0H245L247 18ZM479 498V415H519V476C519 493 524 501 543 505L594 517L592 535H406L404 517ZM519 37V120H479V59C479 42 474 34 455 30L404 18L406 0H592L594 18ZM326 377ZM326 0ZM326 535ZM589 378V408H61V378ZM325.88 377Z" glyph-name="hbar.sc" horiz-adv-x="651" /></font>
</defs>
</svg>
