<?xml version="1.0" standalone="no"?><!DOCTYPE svg PUBLIC "-//W3C//DTD SVG 1.1//EN" "http://www.w3.org/Graphics/SVG/1.1/DTD/svg11.dtd" ><svg version="1.1" xmlns="http://www.w3.org/2000/svg"><defs><font horiz-adv-x="0" id="font"><font-face ascent="745" bbox="-165 -282 3477 1108" cap-height="685" descent="-245" font-family="Indivisa Text Sans" font-stretch="normal" font-style="italic" font-weight="300" units-per-em="1000" x-height="495" /><missing-glyph d="M88 0H568L728 750H248ZM137 40 279 710H679L537 40ZM656 729 115 23H160L701 729ZM265 729 506 23H551L310 729Z" horiz-adv-x="680.5826" /><glyph d="M453 258H137L129 222H445ZM13 0 267 437C305 503 346 571 376 637H377C378 571 389 503 399 437L467 0H511L404 690L400 695L372 692C358 665 337 628 316 592L-28 0ZM508 10ZM256 0ZM373 685Z" glyph-name="A" horiz-adv-x="589" unicode="A" /><glyph d="M458 258H172L164 222H450ZM13 0 336 437C385 503 437 574 476 637H477C465 568 460 503 453 437L407 0H451L512 680L508 685H477C414 596 433 624 410 592L-28 0ZM781 685H488L480 650L777 646L785 680ZM715 360 458 358 451 323 706 321ZM738 39 429 35 422 0H730ZM505 685ZM359 0Z" glyph-name="AE" horiz-adv-x="833" unicode="&#198;" /><glyph d="M458 258H172L164 222H450ZM13 0 336 437C385 503 437 574 476 637H477C465 568 460 503 453 437L407 0H451L512 680L508 685H477C414 596 433 624 410 592L-28 0ZM781 685H488L480 650L777 646L785 680ZM715 360 458 358 451 323 706 321ZM738 39 429 35 422 0H730ZM505 685ZM359 0ZM623 843 599 867C552 830 496 797 441 769L446 756C506 774 564 799 623 837ZM544 867ZM505 685Z" glyph-name="AEacute" horiz-adv-x="833" unicode="&#508;" /><glyph d="M453 258H137L129 222H445ZM13 0 267 437C305 503 346 571 376 637H377C378 571 389 503 399 437L467 0H511L404 690L400 695L372 692C358 665 337 628 316 592L-28 0ZM508 10ZM256 0ZM373 685ZM491 843 467 867C420 830 364 797 309 769L314 756C374 774 432 799 491 837ZM412 867ZM373 685Z" glyph-name="Aacute" horiz-adv-x="589" unicode="&#193;" /><glyph d="M453 258H137L129 222H445ZM13 0 267 437C305 503 346 571 376 637H377C378 571 389 503 399 437L467 0H511L404 690L400 695L372 692C358 665 337 628 316 592L-28 0ZM508 10ZM256 0ZM373 685ZM378 757C431 757 489 806 507 865L490 861C463 820 426 790 385 790C344 790 319 816 308 859L293 855C288 806 323 757 378 757ZM411 865ZM373 685Z" glyph-name="Abreve" horiz-adv-x="589" unicode="&#258;" /><glyph d="M453 258H137L129 222H445ZM13 0 267 437C305 503 346 571 376 637H377C378 571 389 503 399 437L467 0H511L404 690L400 695L372 692C358 665 337 628 316 592L-28 0ZM508 10ZM256 0ZM373 685ZM507 866C457 841 411 812 363 775H401C371 812 334 842 296 866L284 856C314 822 339 789 361 756L398 762C450 807 468 820 515 856ZM411 866ZM373 685Z" glyph-name="Acaron" horiz-adv-x="589" unicode="&#461;" /><glyph d="M453 258H137L129 222H445ZM13 0 267 437C305 503 346 571 376 637H377C378 571 389 503 399 437L467 0H511L404 690L400 695L372 692C358 665 337 628 316 592L-28 0ZM508 10ZM256 0ZM373 685ZM292 756C342 781 388 810 436 847H398C428 810 464 779 503 756L515 766C485 800 460 833 438 866L401 860C349 815 331 802 284 766ZM411 866ZM373 685Z" glyph-name="Acircumflex" horiz-adv-x="589" unicode="&#194;" /><glyph d="M453 258H137L129 222H445ZM13 0 267 437C305 503 346 571 376 637H377C378 571 389 503 399 437L467 0H511L404 690L400 695L372 692C358 665 337 628 316 592L-28 0ZM508 10ZM256 0ZM373 685ZM334 823C334 839 323 852 305 852C280 852 255 826 255 800C255 782 269 770 285 770C309 770 334 796 334 823ZM544 823C544 839 533 852 515 852C490 852 465 826 465 800C465 782 479 770 495 770C519 770 544 796 544 823ZM408 852ZM373 685Z" glyph-name="Adieresis" horiz-adv-x="589" unicode="&#196;" /><glyph d="M453 258H137L129 222H445ZM13 0 267 437C305 503 346 571 376 637H377C378 571 389 503 399 437L467 0H511L404 690L400 695L372 692C358 665 337 628 316 592L-28 0ZM508 10ZM256 0ZM373 685ZM269 -182C269 -165 261 -154 244 -154C219 -154 195 -185 195 -214C195 -231 204 -244 221 -244C251 -244 269 -209 269 -182ZM257 -105ZM201 -365ZM256 0ZM227 -135Z" glyph-name="Adotbelow" horiz-adv-x="589" unicode="&#7840;" /><glyph d="M453 258H137L129 222H445ZM13 0 267 437C305 503 346 571 376 637H377C378 571 389 503 399 437L467 0H511L404 690L400 695L372 692C358 665 337 628 316 592L-28 0ZM508 10ZM256 0ZM373 685ZM466 756 477 769C435 796 395 826 360 867L326 843L323 837C366 799 414 775 466 756ZM412 867ZM373 685Z" glyph-name="Agrave" horiz-adv-x="589" unicode="&#192;" /><glyph d="M453 258H137L129 222H445ZM13 0 267 437C305 503 346 571 376 637H377C378 571 389 503 399 437L467 0H511L404 690L400 695L372 692C358 665 337 628 316 592L-28 0ZM508 10ZM256 0ZM373 685ZM278 794H515L522 827H285ZM404 827ZM373 685Z" glyph-name="Amacron" horiz-adv-x="589" unicode="&#256;" /><glyph d="M511 0 507 20C409 -30 272 -112 272 -200C272 -234 296 -255 335 -255C379 -255 422 -232 453 -203L450 -186C410 -211 378 -223 349 -223C325 -223 315 -211 315 -193C315 -129 410 -60 511 0ZM453 258H137L129 222H445ZM13 0 267 437C305 503 346 571 376 637H377C378 571 389 503 399 437L467 0H511L404 690L400 695L372 692C358 665 337 628 316 592L-28 0ZM508 10ZM256 0ZM373 685Z" glyph-name="Aogonek" horiz-adv-x="589" unicode="&#260;" /><glyph d="M453 258H137L129 222H445ZM13 0 267 437C305 503 346 571 376 637H377C378 571 389 503 399 437L467 0H511L404 690L400 695L372 692C358 665 337 628 316 592L-28 0ZM508 10ZM256 0ZM373 685ZM481 829C481 860 456 882 419 882C368 882 319 839 319 795C319 762 348 740 382 740C432 740 481 783 481 829ZM358 801C358 827 383 851 410 851C430 851 442 838 442 821C442 796 418 771 392 771C373 771 358 782 358 801ZM415 882ZM373 685Z" glyph-name="Aring" horiz-adv-x="589" unicode="&#197;" /><glyph d="M453 258H137L129 222H445ZM13 0 267 437C305 503 346 571 376 637H377C378 571 389 503 399 437L467 0H511L404 690L400 695L372 692C358 665 337 628 316 592L-28 0ZM508 10ZM256 0ZM373 685ZM481 829C481 860 456 882 419 882C368 882 319 839 319 795C319 762 348 740 382 740C432 740 481 783 481 829ZM358 801C358 827 383 851 410 851C430 851 442 838 442 821C442 796 418 771 392 771C373 771 358 782 358 801ZM415 882ZM373 685ZM533 1040 509 1064C462 1027 406 994 351 966L356 953C416 971 474 996 533 1034ZM454 1064ZM415 882Z" glyph-name="Aringacute" horiz-adv-x="589" unicode="&#506;" /><glyph d="M453 258H137L129 222H445ZM13 0 267 437C305 503 346 571 376 637H377C378 571 389 503 399 437L467 0H511L404 690L400 695L372 692C358 665 337 628 316 592L-28 0ZM508 10ZM256 0ZM373 685ZM351 858C302 858 261 807 247 766L260 763C279 794 308 822 338 822C381 822 396 764 449 764C498 764 540 816 552 856L539 859C520 828 490 800 461 800C418 800 403 858 351 858ZM410 859ZM373 685Z" glyph-name="Atilde" horiz-adv-x="589" unicode="&#195;" /><glyph d="M121 0 267 685H218C214 646 206 595 194 538L79 0ZM213 0C384 0 513 84 513 220C513 288 481 336 396 356C481 381 551 457 551 546C551 635 481 685 362 685H249L241 650H352C454 650 505 610 505 535C505 435 415 371 289 371H182L175 336H287C421 336 468 291 468 215C468 105 368 35 227 35H111L103 0Z" glyph-name="B" horiz-adv-x="593" unicode="B" /><glyph d="M498 86C446 52 376 28 314 28C200 28 144 111 144 243C144 426 252 657 451 657C503 657 561 641 599 608L617 650C567 685 502 695 458 695C241 695 99 451 99 233C99 75 174 -10 300 -10C361 -10 441 10 496 48ZM436 685ZM268 0Z" glyph-name="C" horiz-adv-x="578" unicode="C" /><glyph d="M498 86C446 52 376 28 314 28C200 28 144 111 144 243C144 426 252 657 451 657C503 657 561 641 599 608L617 650C567 685 502 695 458 695C241 695 99 451 99 233C99 75 174 -10 300 -10C361 -10 441 10 496 48ZM436 685ZM268 0ZM554 843 530 867C483 830 427 797 372 769L377 756C437 774 495 799 554 837ZM475 867ZM436 685Z" glyph-name="Cacute" horiz-adv-x="578" unicode="&#262;" /><glyph d="M498 86C446 52 376 28 314 28C200 28 144 111 144 243C144 426 252 657 451 657C503 657 561 641 599 608L617 650C567 685 502 695 458 695C241 695 99 451 99 233C99 75 174 -10 300 -10C361 -10 441 10 496 48ZM436 685ZM268 0ZM570 866C520 841 474 812 426 775H464C434 812 397 842 359 866L347 856C377 822 402 789 424 756L461 762C513 807 531 820 578 856ZM474 866ZM436 685Z" glyph-name="Ccaron" horiz-adv-x="578" unicode="&#268;" /><glyph d="M498 86C446 52 376 28 314 28C200 28 144 111 144 243C144 426 252 657 451 657C503 657 561 641 599 608L617 650C567 685 502 695 458 695C241 695 99 451 99 233C99 75 174 -10 300 -10C361 -10 441 10 496 48ZM436 685ZM268 0ZM163 -233 156 -255C246 -238 328 -164 328 -95C328 -68 310 -55 285 -55C254 -55 226 -68 204 -80L208 -93C224 -89 243 -85 259 -85C282 -85 289 -97 289 -110C289 -154 230 -211 163 -233ZM246 10 204 -80 231 -77 279 10ZM268 0ZM214 -255Z" glyph-name="Ccedilla" horiz-adv-x="578" unicode="&#199;" /><glyph d="M498 86C446 52 376 28 314 28C200 28 144 111 144 243C144 426 252 657 451 657C503 657 561 641 599 608L617 650C567 685 502 695 458 695C241 695 99 451 99 233C99 75 174 -10 300 -10C361 -10 441 10 496 48ZM436 685ZM268 0ZM355 756C405 781 451 810 499 847H461C491 810 527 779 566 756L578 766C548 800 523 833 501 866L464 860C412 815 394 802 347 766ZM474 866ZM436 685Z" glyph-name="Ccircumflex" horiz-adv-x="578" unicode="&#264;" /><glyph d="M498 86C446 52 376 28 314 28C200 28 144 111 144 243C144 426 252 657 451 657C503 657 561 641 599 608L617 650C567 685 502 695 458 695C241 695 99 451 99 233C99 75 174 -10 300 -10C361 -10 441 10 496 48ZM436 685ZM268 0ZM500 825C500 841 490 851 473 851C449 851 426 825 426 799C426 783 436 771 453 771C478 771 500 798 500 825ZM472 851ZM436 685Z" glyph-name="Cdotaccent" horiz-adv-x="578" unicode="&#266;" /><glyph d="M121 0 267 685H218C214 646 206 595 194 538L79 0ZM639 433C639 605 537 685 375 685H243L235 649H361C523 649 594 574 594 429C594 234 466 36 233 36H111L103 0H227C477 0 639 217 639 433ZM245 343ZM302 0ZM434 685Z" glyph-name="D" horiz-adv-x="699" unicode="D" /><glyph d="M121 0 267 685H218C214 646 206 595 194 538L79 0ZM639 433C639 605 537 685 375 685H243L235 649H361C523 649 594 574 594 429C594 234 466 36 233 36H111L103 0H227C477 0 639 217 639 433ZM245 343ZM302 0ZM434 685ZM568 866C518 841 472 812 424 775H462C432 812 395 842 357 866L345 856C375 822 400 789 422 756L459 762C511 807 529 820 576 856ZM472 866ZM434 685Z" glyph-name="Dcaron" horiz-adv-x="699" unicode="&#270;" /><glyph d="M121 0 267 685H218C214 646 206 595 194 538L79 0ZM639 433C639 605 537 685 375 685H243L235 649H361C523 649 594 574 594 429C594 234 466 36 233 36H111L103 0H227C477 0 639 217 639 433ZM245 343ZM302 0ZM434 685ZM422 328 428 358H68L62 328ZM245 343Z" glyph-name="Dcroat" horiz-adv-x="699" unicode="&#272;" /><glyph d="M121 0 267 685H218C214 646 206 595 194 538L79 0ZM639 433C639 605 537 685 375 685H243L235 649H361C523 649 594 574 594 429C594 234 466 36 233 36H111L103 0H227C477 0 639 217 639 433ZM245 343ZM302 0ZM434 685ZM315 -182C315 -165 307 -154 290 -154C265 -154 241 -185 241 -214C241 -231 250 -244 267 -244C297 -244 315 -209 315 -182ZM303 -105ZM247 -365ZM302 0ZM273 -135Z" glyph-name="Ddotbelow" horiz-adv-x="699" unicode="&#7692;" /><glyph d="M362 690 -23 20 -25 0H491L497 20L397 690ZM456 14 477 33H-2L12 15L376 642H357Z" glyph-name="Delta" horiz-adv-x="570" unicode="&#916;" /><glyph d="M121 0 267 685H218C213 638 206 596 194 538L79 0ZM560 685H263L255 650L557 646L564 680ZM454 360 196 358 189 323 445 321ZM437 39 126 35 121 0H429ZM431 10ZM393 685ZM145 685ZM257 0Z" glyph-name="E" horiz-adv-x="532" unicode="E" /><glyph d="M121 0 267 685H218C213 638 206 596 194 538L79 0ZM560 685H263L255 650L557 646L564 680ZM454 360 196 358 189 323 445 321ZM437 39 126 35 121 0H429ZM431 10ZM393 685ZM145 685ZM257 0ZM511 843 487 867C440 830 384 797 329 769L334 756C394 774 452 799 511 837ZM432 867ZM393 685Z" glyph-name="Eacute" horiz-adv-x="532" unicode="&#201;" /><glyph d="M121 0 267 685H218C213 638 206 596 194 538L79 0ZM560 685H263L255 650L557 646L564 680ZM454 360 196 358 189 323 445 321ZM437 39 126 35 121 0H429ZM431 10ZM393 685ZM145 685ZM257 0ZM398 757C451 757 509 806 527 865L510 861C483 820 446 790 405 790C364 790 339 816 328 859L313 855C308 806 343 757 398 757ZM431 865ZM393 685Z" glyph-name="Ebreve" horiz-adv-x="532" unicode="&#276;" /><glyph d="M121 0 267 685H218C213 638 206 596 194 538L79 0ZM560 685H263L255 650L557 646L564 680ZM454 360 196 358 189 323 445 321ZM437 39 126 35 121 0H429ZM431 10ZM393 685ZM145 685ZM257 0ZM527 866C477 841 431 812 383 775H421C391 812 354 842 316 866L304 856C334 822 359 789 381 756L418 762C470 807 488 820 535 856ZM431 866ZM393 685Z" glyph-name="Ecaron" horiz-adv-x="532" unicode="&#282;" /><glyph d="M121 0 267 685H218C213 638 206 596 194 538L79 0ZM560 685H263L255 650L557 646L564 680ZM454 360 196 358 189 323 445 321ZM437 39 126 35 121 0H429ZM431 10ZM393 685ZM145 685ZM257 0ZM312 756C362 781 408 810 456 847H418C448 810 484 779 523 756L535 766C505 800 480 833 458 866L421 860C369 815 351 802 304 766ZM431 866ZM393 685Z" glyph-name="Ecircumflex" horiz-adv-x="532" unicode="&#202;" /><glyph d="M121 0 267 685H218C213 638 206 596 194 538L79 0ZM560 685H263L255 650L557 646L564 680ZM454 360 196 358 189 323 445 321ZM437 39 126 35 121 0H429ZM431 10ZM393 685ZM145 685ZM257 0ZM354 823C354 839 343 852 325 852C300 852 275 826 275 800C275 782 289 770 305 770C329 770 354 796 354 823ZM564 823C564 839 553 852 535 852C510 852 485 826 485 800C485 782 499 770 515 770C539 770 564 796 564 823ZM428 852ZM393 685Z" glyph-name="Edieresis" horiz-adv-x="532" unicode="&#203;" /><glyph d="M121 0 267 685H218C213 638 206 596 194 538L79 0ZM560 685H263L255 650L557 646L564 680ZM454 360 196 358 189 323 445 321ZM437 39 126 35 121 0H429ZM431 10ZM393 685ZM145 685ZM257 0ZM457 825C457 841 447 851 430 851C406 851 383 825 383 799C383 783 393 771 410 771C435 771 457 798 457 825ZM429 851ZM393 685Z" glyph-name="Edotaccent" horiz-adv-x="532" unicode="&#278;" /><glyph d="M121 0 267 685H218C213 638 206 596 194 538L79 0ZM560 685H263L255 650L557 646L564 680ZM454 360 196 358 189 323 445 321ZM437 39 126 35 121 0H429ZM431 10ZM393 685ZM145 685ZM257 0ZM270 -182C270 -165 262 -154 245 -154C220 -154 196 -185 196 -214C196 -231 205 -244 222 -244C252 -244 270 -209 270 -182ZM258 -105ZM202 -365ZM257 0ZM228 -135Z" glyph-name="Edotbelow" horiz-adv-x="532" unicode="&#7864;" /><glyph d="M121 0 267 685H218C213 638 206 596 194 538L79 0ZM560 685H263L255 650L557 646L564 680ZM454 360 196 358 189 323 445 321ZM437 39 126 35 121 0H429ZM431 10ZM393 685ZM145 685ZM257 0ZM486 756 497 769C455 796 415 826 380 867L346 843L343 837C386 799 434 775 486 756ZM432 867ZM393 685Z" glyph-name="Egrave" horiz-adv-x="532" unicode="&#200;" /><glyph d="M121 0 267 685H218C213 638 206 596 194 538L79 0ZM560 685H263L255 650L557 646L564 680ZM454 360 196 358 189 323 445 321ZM437 39 126 35 121 0H429ZM431 10ZM393 685ZM145 685ZM257 0ZM298 794H535L542 827H305ZM424 827ZM393 685Z" glyph-name="Emacron" horiz-adv-x="532" unicode="&#274;" /><glyph d="M392 -182C474 -146 532 -80 559 43L512 20C492 -77 439 -128 383 -156ZM395 384C358 476 301 611 266 695L218 685C212 631 205 596 193 538L79 0H121L202 382C220 467 237 546 252 634H253C282 532 314 461 376 311C420 204 467 91 510 -13L559 43L697 690L693 695L647 685C641 636 636 602 622 537C543 163 536 127 523 51H522C494 156 453 241 395 384Z" glyph-name="Eng" horiz-adv-x="728" unicode="&#330;" /><glyph d="M429 0 431 20C332 -30 195 -112 195 -200C195 -234 219 -255 258 -255C302 -255 345 -232 376 -203L373 -186C333 -211 301 -223 272 -223C248 -223 238 -211 238 -193C238 -129 331 -60 429 0ZM121 0 267 685H218C213 638 206 596 194 538L79 0ZM560 685H263L255 650L557 646L564 680ZM454 360 196 358 189 323 445 321ZM437 39 126 35 121 0H429ZM431 10ZM393 685ZM145 685ZM257 0ZM431 10Z" glyph-name="Eogonek" horiz-adv-x="532" unicode="&#280;" /><glyph d="M121 0 267 685H218C214 646 206 595 194 538L79 0ZM639 433C639 605 537 685 375 685H243L235 649H361C523 649 594 574 594 429C594 234 466 36 233 36H111L103 0H227C477 0 639 217 639 433ZM245 343ZM302 0ZM434 685ZM422 328 428 358H68L62 328ZM245 343Z" glyph-name="Eth" horiz-adv-x="699" unicode="&#208;" /><glyph d="M121 0 267 685H218C213 638 206 596 194 538L79 0ZM560 685H263L255 650L557 646L564 680ZM454 360 196 358 189 323 445 321ZM437 39 126 35 121 0H429ZM431 10ZM393 685ZM145 685ZM257 0ZM371 858C322 858 281 807 267 766L280 763C299 794 328 822 358 822C401 822 416 764 469 764C518 764 560 816 572 856L559 859C540 828 510 800 481 800C438 800 423 858 371 858ZM430 859ZM393 685Z" glyph-name="Etilde" horiz-adv-x="532" unicode="&#7868;" /><glyph d="M121 0 267 685H218C213 638 206 596 194 538L79 0ZM560 685H267L259 650L557 646L564 680ZM452 350 195 348 188 313 443 311Z" glyph-name="F" horiz-adv-x="502" unicode="F" /><glyph d="M516 79C465 47 400 28 336 28C205 28 145 107 145 247C145 443 263 657 447 657C498 657 556 641 594 608L612 650C562 685 497 695 454 695C248 695 100 467 100 240C100 71 182 -10 321 -10C385 -10 463 7 514 41ZM563 288 515 278C510 231 502 184 491 131L472 41H514L567 283ZM423 685ZM344 0Z" glyph-name="G" horiz-adv-x="639" unicode="G" /><glyph d="M516 79C465 47 400 28 336 28C205 28 145 107 145 247C145 443 263 657 447 657C498 657 556 641 594 608L612 650C562 685 497 695 454 695C248 695 100 467 100 240C100 71 182 -10 321 -10C385 -10 463 7 514 41ZM563 288 515 278C510 231 502 184 491 131L472 41H514L567 283ZM423 685ZM344 0ZM541 843 517 867C470 830 414 797 359 769L364 756C424 774 482 799 541 837ZM462 867ZM423 685Z" glyph-name="Gacute" horiz-adv-x="639" unicode="&#500;" /><glyph d="M516 79C465 47 400 28 336 28C205 28 145 107 145 247C145 443 263 657 447 657C498 657 556 641 594 608L612 650C562 685 497 695 454 695C248 695 100 467 100 240C100 71 182 -10 321 -10C385 -10 463 7 514 41ZM563 288 515 278C510 231 502 184 491 131L472 41H514L567 283ZM423 685ZM344 0ZM428 757C481 757 539 806 557 865L540 861C513 820 476 790 435 790C394 790 369 816 358 859L343 855C338 806 373 757 428 757ZM461 865ZM423 685Z" glyph-name="Gbreve" horiz-adv-x="639" unicode="&#286;" /><glyph d="M516 79C465 47 400 28 336 28C205 28 145 107 145 247C145 443 263 657 447 657C498 657 556 641 594 608L612 650C562 685 497 695 454 695C248 695 100 467 100 240C100 71 182 -10 321 -10C385 -10 463 7 514 41ZM563 288 515 278C510 231 502 184 491 131L472 41H514L567 283ZM423 685ZM344 0ZM557 866C507 841 461 812 413 775H451C421 812 384 842 346 866L334 856C364 822 389 789 411 756L448 762C500 807 518 820 565 856ZM461 866ZM423 685Z" glyph-name="Gcaron" horiz-adv-x="639" unicode="&#486;" /><glyph d="M516 79C465 47 400 28 336 28C205 28 145 107 145 247C145 443 263 657 447 657C498 657 556 641 594 608L612 650C562 685 497 695 454 695C248 695 100 467 100 240C100 71 182 -10 321 -10C385 -10 463 7 514 41ZM563 288 515 278C510 231 502 184 491 131L472 41H514L567 283ZM423 685ZM344 0ZM342 756C392 781 438 810 486 847H448C478 810 514 779 553 756L565 766C535 800 510 833 488 866L451 860C399 815 381 802 334 766ZM461 866ZM423 685Z" glyph-name="Gcircumflex" horiz-adv-x="639" unicode="&#284;" /><glyph d="M516 79C465 47 400 28 336 28C205 28 145 107 145 247C145 443 263 657 447 657C498 657 556 641 594 608L612 650C562 685 497 695 454 695C248 695 100 467 100 240C100 71 182 -10 321 -10C385 -10 463 7 514 41ZM563 288 515 278C510 231 502 184 491 131L472 41H514L567 283ZM423 685ZM344 0ZM247 -273 256 -282C308 -244 364 -156 364 -113C364 -94 352 -83 332 -83C306 -83 280 -111 280 -138C280 -157 294 -168 315 -168L316 -136C307 -175 274 -240 247 -273ZM344 0ZM284 -282Z" glyph-name="Gcommaaccent" horiz-adv-x="639" unicode="&#290;" /><glyph d="M516 79C465 47 400 28 336 28C205 28 145 107 145 247C145 443 263 657 447 657C498 657 556 641 594 608L612 650C562 685 497 695 454 695C248 695 100 467 100 240C100 71 182 -10 321 -10C385 -10 463 7 514 41ZM563 288 515 278C510 231 502 184 491 131L472 41H514L567 283ZM423 685ZM344 0ZM487 825C487 841 477 851 460 851C436 851 413 825 413 799C413 783 423 771 440 771C465 771 487 798 487 825ZM459 851ZM423 685Z" glyph-name="Gdotaccent" horiz-adv-x="639" unicode="&#288;" /><glyph d="M65 77C59 50 50 28 37 0L75 -10C88 12 102 52 108 78L191 468C215 581 302 657 415 657C463 657 511 643 534 579L546 618L306 386L301 363C408 325 481 277 481 182C481 98 424 28 312 28C276 28 228 35 193 58L184 15C219 -3 262 -10 301 -10C442 -10 525 83 525 190C525 299 439 351 344 393L333 370L580 605C554 663 493 695 418 695C294 695 181 618 148 465Z" glyph-name="Germandbls" horiz-adv-x="602" unicode="&#7838;" /><glyph d="M121 0 268 690 264 695 218 685C213 638 205 596 193 538L79 0ZM590 359H179L172 323H583ZM535 0 682 690 678 695 632 685C627 638 620 596 607 538L493 0ZM304 0ZM445 685ZM143 685ZM415 523Z" glyph-name="H" horiz-adv-x="713" unicode="H" /><glyph d="M121 0 268 690 264 695 218 685C213 638 205 596 193 538L79 0ZM590 359H179L172 323H583ZM535 0 682 690 678 695 632 685C627 638 620 596 607 538L493 0ZM304 0ZM445 685ZM143 685ZM415 523ZM722 508 728 538H108L102 508ZM415 523Z" glyph-name="Hbar" horiz-adv-x="713" unicode="&#294;" /><glyph d="M121 0 268 690 264 695 218 685C213 638 205 596 193 538L79 0ZM590 359H179L172 323H583ZM535 0 682 690 678 695 632 685C627 638 620 596 607 538L493 0ZM304 0ZM445 685ZM143 685ZM415 523ZM364 756C414 781 460 810 508 847H470C500 810 536 779 575 756L587 766C557 800 532 833 510 866L473 860C421 815 403 802 356 766ZM483 866ZM445 685Z" glyph-name="Hcircumflex" horiz-adv-x="713" unicode="&#292;" /><glyph d="M121 0 268 690 264 695 218 685C213 638 205 596 193 538L79 0ZM590 359H179L172 323H583ZM535 0 682 690 678 695 632 685C627 638 620 596 607 538L493 0ZM304 0ZM445 685ZM143 685ZM415 523ZM317 -182C317 -165 309 -154 292 -154C267 -154 243 -185 243 -214C243 -231 252 -244 269 -244C299 -244 317 -209 317 -182ZM305 -105ZM249 -365ZM304 0ZM275 -135Z" glyph-name="Hdotbelow" horiz-adv-x="713" unicode="&#7716;" /><glyph d="M121 0 268 690 264 695 218 685C213 638 206 596 193 538L79 0ZM192 10ZM243 685ZM145 685ZM97 0Z" glyph-name="I" horiz-adv-x="299" unicode="I" /><glyph d="M121 0 268 690 264 695 218 685C213 638 206 596 193 538L79 0ZM192 10ZM243 685ZM145 685ZM97 0ZM233 -182C323 -142 376 -70 400 43L537 690L533 695L487 685C481 631 475 596 463 538L358 43C335 -67 280 -128 223 -156ZM512 685ZM366 0Z" glyph-name="IJ" horiz-adv-x="568" unicode="&#306;" /><glyph d="M121 0 268 690 264 695 218 685C213 638 206 596 193 538L79 0ZM192 10ZM243 685ZM145 685ZM97 0ZM361 843 337 867C290 830 234 797 179 769L184 756C244 774 302 799 361 837ZM282 867ZM243 685Z" glyph-name="Iacute" horiz-adv-x="299" unicode="&#205;" /><glyph d="M121 0 268 690 264 695 218 685C213 638 206 596 193 538L79 0ZM192 10ZM243 685ZM145 685ZM97 0ZM248 757C301 757 359 806 377 865L360 861C333 820 296 790 255 790C214 790 189 816 178 859L163 855C158 806 193 757 248 757ZM281 865ZM243 685Z" glyph-name="Ibreve" horiz-adv-x="299" unicode="&#300;" /><glyph d="M121 0 268 690 264 695 218 685C213 638 206 596 193 538L79 0ZM192 10ZM243 685ZM145 685ZM97 0ZM377 866C327 841 281 812 233 775H271C241 812 204 842 166 866L154 856C184 822 209 789 231 756L268 762C320 807 338 820 385 856ZM281 866ZM243 685Z" glyph-name="Icaron" horiz-adv-x="299" unicode="&#463;" /><glyph d="M121 0 268 690 264 695 218 685C213 638 206 596 193 538L79 0ZM192 10ZM243 685ZM145 685ZM97 0ZM162 756C212 781 258 810 306 847H268C298 810 334 779 373 756L385 766C355 800 330 833 308 866L271 860C219 815 201 802 154 766ZM281 866ZM243 685Z" glyph-name="Icircumflex" horiz-adv-x="299" unicode="&#206;" /><glyph d="M121 0 268 690 264 695 218 685C213 638 206 596 193 538L79 0ZM192 10ZM243 685ZM145 685ZM97 0ZM204 823C204 839 193 852 175 852C150 852 125 826 125 800C125 782 139 770 155 770C179 770 204 796 204 823ZM414 823C414 839 403 852 385 852C360 852 335 826 335 800C335 782 349 770 365 770C389 770 414 796 414 823ZM278 852ZM243 685Z" glyph-name="Idieresis" horiz-adv-x="299" unicode="&#207;" /><glyph d="M121 0 268 690 264 695 218 685C213 638 206 596 193 538L79 0ZM192 10ZM243 685ZM145 685ZM97 0ZM307 825C307 841 297 851 280 851C256 851 233 825 233 799C233 783 243 771 260 771C285 771 307 798 307 825ZM279 851ZM243 685Z" glyph-name="Idotaccent" horiz-adv-x="299" unicode="&#304;" /><glyph d="M121 0 268 690 264 695 218 685C213 638 206 596 193 538L79 0ZM192 10ZM243 685ZM145 685ZM97 0ZM110 -182C110 -165 102 -154 85 -154C60 -154 36 -185 36 -214C36 -231 45 -244 62 -244C92 -244 110 -209 110 -182ZM98 -105ZM42 -365ZM97 0ZM68 -135Z" glyph-name="Idotbelow" horiz-adv-x="299" unicode="&#7882;" /><glyph d="M121 0 268 690 264 695 218 685C213 638 206 596 193 538L79 0ZM192 10ZM243 685ZM145 685ZM97 0ZM336 756 347 769C305 796 265 826 230 867L196 843L193 837C236 799 284 775 336 756ZM282 867ZM243 685Z" glyph-name="Igrave" horiz-adv-x="299" unicode="&#204;" /><glyph d="M121 0 268 690 264 695 218 685C213 638 206 596 193 538L79 0ZM192 10ZM243 685ZM145 685ZM97 0ZM148 794H385L392 827H155ZM274 827ZM243 685Z" glyph-name="Imacron" horiz-adv-x="299" unicode="&#298;" /><glyph d="M121 0 115 16C48 -31 -44 -108 -44 -187C-44 -230 -16 -255 29 -255C69 -255 109 -232 137 -203L134 -186C98 -211 68 -223 42 -223C12 -223 -1 -207 -1 -182C-1 -122 58 -57 121 0ZM121 0 268 690 264 695 218 685C213 638 206 596 193 538L79 0ZM192 10ZM243 685ZM145 685ZM97 0ZM192 10Z" glyph-name="Iogonek" horiz-adv-x="299" unicode="&#302;" /><glyph d="M121 0 268 690 264 695 218 685C213 638 206 596 193 538L79 0ZM192 10ZM243 685ZM145 685ZM97 0ZM221 858C172 858 131 807 117 766L130 763C149 794 178 822 208 822C251 822 266 764 319 764C368 764 410 816 422 856L409 859C390 828 360 800 331 800C288 800 273 858 221 858ZM280 859ZM243 685Z" glyph-name="Itilde" horiz-adv-x="299" unicode="&#296;" /><glyph d="M-66 -182C24 -142 77 -70 101 43L238 690L234 695L188 685C182 631 176 596 164 538L59 43C36 -67 -19 -128 -76 -156ZM213 685ZM67 0Z" glyph-name="J" horiz-adv-x="269" unicode="J" /><glyph d="M-66 -182C24 -142 77 -70 101 43L238 690L234 695L188 685C182 631 176 596 164 538L59 43C36 -67 -19 -128 -76 -156ZM213 685ZM67 0ZM132 756C182 781 228 810 276 847H238C268 810 304 779 343 756L355 766C325 800 300 833 278 866L241 860C189 815 171 802 124 766ZM251 866ZM213 685Z" glyph-name="Jcircumflex" horiz-adv-x="269" unicode="&#308;" /><glyph d="M194 538 79 0H119L188 323H300C359 212 418 101 477 -10L520 0L329 359V336L642 677L638 682L613 695C510 583 407 471 305 359H196L266 690L262 695L218 685C213 638 206 596 194 538ZM407 685ZM261 0Z" glyph-name="K" horiz-adv-x="598" unicode="K" /><glyph d="M194 538 79 0H119L188 323H300C359 212 418 101 477 -10L520 0L329 359V336L642 677L638 682L613 695C510 583 407 471 305 359H196L266 690L262 695L218 685C213 638 206 596 194 538ZM407 685ZM261 0ZM164 -273 173 -282C225 -244 281 -156 281 -113C281 -94 269 -83 249 -83C223 -83 197 -111 197 -138C197 -157 211 -168 232 -168L233 -136C224 -175 191 -240 164 -273ZM261 0ZM201 -282Z" glyph-name="Kcommaaccent" horiz-adv-x="598" unicode="&#310;" /><glyph d="M121 0 268 690 264 695 218 685C213 638 206 597 194 539L79 0ZM429 39 129 35 121 0H421ZM214 0ZM360 685ZM421 467ZM171 343Z" glyph-name="L" horiz-adv-x="504" unicode="L" /><glyph d="M121 0 268 690 264 695 218 685C213 638 206 597 194 539L79 0ZM429 39 129 35 121 0H421ZM214 0ZM360 685ZM421 467ZM171 343ZM478 843 454 867C407 830 351 797 296 769L301 756C361 774 419 799 478 837ZM399 867ZM360 685Z" glyph-name="Lacute" horiz-adv-x="504" unicode="&#313;" /><glyph d="M121 0 268 690 264 695 218 685C213 638 206 597 194 539L79 0ZM429 39 129 35 121 0H421ZM214 0ZM360 685ZM421 467ZM171 343ZM481 730H438C410 659 383 603 357 551H375C412 601 450 662 485 725ZM421 467Z" glyph-name="Lcaron" horiz-adv-x="504" unicode="&#317;" /><glyph d="M121 0 268 690 264 695 218 685C213 638 206 597 194 539L79 0ZM429 39 129 35 121 0H421ZM214 0ZM360 685ZM421 467ZM171 343ZM117 -273 126 -282C178 -244 234 -156 234 -113C234 -94 222 -83 202 -83C176 -83 150 -111 150 -138C150 -157 164 -168 185 -168L186 -136C177 -175 144 -240 117 -273ZM214 0ZM154 -282Z" glyph-name="Lcommaaccent" horiz-adv-x="504" unicode="&#315;" /><glyph d="M121 0 268 690 264 695 218 685C213 638 206 597 194 539L79 0ZM429 39 129 35 121 0H421ZM214 0ZM360 685ZM421 467ZM171 343ZM401 358C401 377 388 390 369 390C342 390 314 362 314 333C314 313 329 300 347 300C374 300 401 329 401 358Z" glyph-name="Ldot" horiz-adv-x="600" unicode="&#319;" /><glyph d="M121 0 268 690 264 695 218 685C213 638 206 597 194 539L79 0ZM429 39 129 35 121 0H421ZM214 0ZM360 685ZM421 467ZM171 343ZM344 412 333 441 -3 274 7 245ZM171 343Z" glyph-name="Lslash" horiz-adv-x="504" unicode="&#321;" /><glyph d="M765 695 733 691 496 271C460 208 421 139 370 41H369C364 120 351 210 342 271L282 695L246 691L7 0H47L141 271C180 385 221 498 255 612H256C265 512 278 429 300 271L337 0H383L537 271C601 385 666 498 724 612H725C711 501 704 414 693 271L671 0H713L769 690Z" glyph-name="M" horiz-adv-x="826" unicode="M" /><glyph d="M395 384C353 486 310 591 266 695L218 685C213 638 206 596 193 538L79 0H121L202 382C220 464 237 546 252 634H253C284 526 320 447 376 311C419 207 462 104 505 0H550L697 690L693 695L647 685C642 638 635 596 622 538C543 163 537 132 523 51H522C493 162 451 247 395 384ZM449 685ZM303 0Z" glyph-name="N" horiz-adv-x="728" unicode="N" /><glyph d="M395 384C353 486 310 591 266 695L218 685C213 638 206 596 193 538L79 0H121L202 382C220 464 237 546 252 634H253C284 526 320 447 376 311C419 207 462 104 505 0H550L697 690L693 695L647 685C642 638 635 596 622 538C543 163 537 132 523 51H522C493 162 451 247 395 384ZM449 685ZM303 0ZM567 843 543 867C496 830 440 797 385 769L390 756C450 774 508 799 567 837ZM488 867ZM449 685Z" glyph-name="Nacute" horiz-adv-x="728" unicode="&#323;" /><glyph d="M395 384C353 486 310 591 266 695L218 685C213 638 206 596 193 538L79 0H121L202 382C220 464 237 546 252 634H253C284 526 320 447 376 311C419 207 462 104 505 0H550L697 690L693 695L647 685C642 638 635 596 622 538C543 163 537 132 523 51H522C493 162 451 247 395 384ZM449 685ZM303 0ZM583 866C533 841 487 812 439 775H477C447 812 410 842 372 866L360 856C390 822 415 789 437 756L474 762C526 807 544 820 591 856ZM487 866ZM449 685Z" glyph-name="Ncaron" horiz-adv-x="728" unicode="&#327;" /><glyph d="M395 384C353 486 310 591 266 695L218 685C213 638 206 596 193 538L79 0H121L202 382C220 464 237 546 252 634H253C284 526 320 447 376 311C419 207 462 104 505 0H550L697 690L693 695L647 685C642 638 635 596 622 538C543 163 537 132 523 51H522C493 162 451 247 395 384ZM449 685ZM303 0ZM206 -273 215 -282C267 -244 323 -156 323 -113C323 -94 311 -83 291 -83C265 -83 239 -111 239 -138C239 -157 253 -168 274 -168L275 -136C266 -175 233 -240 206 -273ZM303 0ZM243 -282Z" glyph-name="Ncommaaccent" horiz-adv-x="728" unicode="&#325;" /><glyph d="M395 384C353 486 310 591 266 695L218 685C213 638 206 596 193 538L79 0H121L202 382C220 464 237 546 252 634H253C284 526 320 447 376 311C419 207 462 104 505 0H550L697 690L693 695L647 685C642 638 635 596 622 538C543 163 537 132 523 51H522C493 162 451 247 395 384ZM449 685ZM303 0ZM513 825C513 841 503 851 486 851C462 851 439 825 439 799C439 783 449 771 466 771C491 771 513 798 513 825ZM485 851ZM449 685Z" glyph-name="Ndotaccent" horiz-adv-x="728" unicode="&#7748;" /><glyph d="M-67 -182C15 -146 73 -81 100 43H58C35 -67 -19 -128 -76 -156ZM365 384C328 476 272 611 236 695L188 685C183 638 176 590 164 538L58 43H100L172 382C189 462 207 546 222 634H223C254 526 290 447 346 312C388 210 432 104 475 0H520L667 690L663 695L617 685C612 638 605 596 592 536C513 163 506 128 493 51H492C464 156 421 247 365 384Z" glyph-name="Nhookleft" horiz-adv-x="698" unicode="&#413;" /><glyph d="M395 384C353 486 310 591 266 695L218 685C213 638 206 596 193 538L79 0H121L202 382C220 464 237 546 252 634H253C284 526 320 447 376 311C419 207 462 104 505 0H550L697 690L693 695L647 685C642 638 635 596 622 538C543 163 537 132 523 51H522C493 162 451 247 395 384ZM449 685ZM303 0ZM427 858C378 858 337 807 323 766L336 763C355 794 384 822 414 822C457 822 472 764 525 764C574 764 616 816 628 856L615 859C596 828 566 800 537 800C494 800 479 858 427 858ZM486 859ZM449 685Z" glyph-name="Ntilde" horiz-adv-x="728" unicode="&#209;" /><glyph d="M143 240C143 431 259 657 431 657C534 657 585 576 585 444C585 250 476 28 302 28C198 28 143 108 143 240ZM630 448C630 607 556 695 439 695C244 695 98 451 98 231C98 73 174 -10 291 -10C490 -10 630 229 630 448ZM290 0ZM435 10ZM445 685ZM769 685ZM122 685ZM373 343Z" glyph-name="O" horiz-adv-x="689" unicode="O" /><glyph d="M652 460C652 609 575 695 457 695C268 695 96 468 96 221C96 71 177 -10 295 -10C486 -10 652 208 652 460ZM142 230C142 455 287 657 449 657C552 657 607 579 607 456C607 225 468 28 307 28C202 28 142 104 142 230ZM953 685H509L501 650L949 646L957 680ZM847 360 610 358 603 323 838 321ZM830 39 370 35 363 0H822Z" glyph-name="OE" horiz-adv-x="925" unicode="&#338;" /><glyph d="M143 240C143 431 259 657 431 657C534 657 585 576 585 444C585 250 476 28 302 28C198 28 143 108 143 240ZM630 448C630 607 556 695 439 695C244 695 98 451 98 231C98 73 174 -10 291 -10C490 -10 630 229 630 448ZM290 0ZM435 10ZM445 685ZM769 685ZM122 685ZM373 343ZM563 843 539 867C492 830 436 797 381 769L386 756C446 774 504 799 563 837ZM484 867ZM445 685Z" glyph-name="Oacute" horiz-adv-x="689" unicode="&#211;" /><glyph d="M143 240C143 431 259 657 431 657C534 657 585 576 585 444C585 250 476 28 302 28C198 28 143 108 143 240ZM630 448C630 607 556 695 439 695C244 695 98 451 98 231C98 73 174 -10 291 -10C490 -10 630 229 630 448ZM290 0ZM435 10ZM445 685ZM769 685ZM122 685ZM373 343ZM450 757C503 757 561 806 579 865L562 861C535 820 498 790 457 790C416 790 391 816 380 859L365 855C360 806 395 757 450 757ZM483 865ZM445 685Z" glyph-name="Obreve" horiz-adv-x="689" unicode="&#334;" /><glyph d="M143 240C143 431 259 657 431 657C534 657 585 576 585 444C585 250 476 28 302 28C198 28 143 108 143 240ZM630 448C630 607 556 695 439 695C244 695 98 451 98 231C98 73 174 -10 291 -10C490 -10 630 229 630 448ZM290 0ZM435 10ZM445 685ZM769 685ZM122 685ZM373 343ZM579 866C529 841 483 812 435 775H473C443 812 406 842 368 866L356 856C386 822 411 789 433 756L470 762C522 807 540 820 587 856ZM483 866ZM445 685Z" glyph-name="Ocaron" horiz-adv-x="689" unicode="&#465;" /><glyph d="M143 240C143 431 259 657 431 657C534 657 585 576 585 444C585 250 476 28 302 28C198 28 143 108 143 240ZM630 448C630 607 556 695 439 695C244 695 98 451 98 231C98 73 174 -10 291 -10C490 -10 630 229 630 448ZM290 0ZM435 10ZM445 685ZM769 685ZM122 685ZM373 343ZM364 756C414 781 460 810 508 847H470C500 810 536 779 575 756L587 766C557 800 532 833 510 866L473 860C421 815 403 802 356 766ZM483 866ZM445 685Z" glyph-name="Ocircumflex" horiz-adv-x="689" unicode="&#212;" /><glyph d="M143 240C143 431 259 657 431 657C534 657 585 576 585 444C585 250 476 28 302 28C198 28 143 108 143 240ZM630 448C630 607 556 695 439 695C244 695 98 451 98 231C98 73 174 -10 291 -10C490 -10 630 229 630 448ZM290 0ZM435 10ZM445 685ZM769 685ZM122 685ZM373 343ZM406 823C406 839 395 852 377 852C352 852 327 826 327 800C327 782 341 770 357 770C381 770 406 796 406 823ZM616 823C616 839 605 852 587 852C562 852 537 826 537 800C537 782 551 770 567 770C591 770 616 796 616 823ZM480 852ZM445 685Z" glyph-name="Odieresis" horiz-adv-x="689" unicode="&#214;" /><glyph d="M143 240C143 431 259 657 431 657C534 657 585 576 585 444C585 250 476 28 302 28C198 28 143 108 143 240ZM630 448C630 607 556 695 439 695C244 695 98 451 98 231C98 73 174 -10 291 -10C490 -10 630 229 630 448ZM290 0ZM435 10ZM445 685ZM769 685ZM122 685ZM373 343ZM303 -182C303 -165 295 -154 278 -154C253 -154 229 -185 229 -214C229 -231 238 -244 255 -244C285 -244 303 -209 303 -182ZM291 -105ZM235 -365ZM290 0ZM261 -135Z" glyph-name="Odotbelow" horiz-adv-x="689" unicode="&#7884;" /><glyph d="M143 240C143 431 259 657 431 657C534 657 585 576 585 444C585 250 476 28 302 28C198 28 143 108 143 240ZM630 448C630 607 556 695 439 695C244 695 98 451 98 231C98 73 174 -10 291 -10C490 -10 630 229 630 448ZM290 0ZM435 10ZM445 685ZM769 685ZM122 685ZM373 343ZM538 756 549 769C507 796 467 826 432 867L398 843L395 837C438 799 486 775 538 756ZM484 867ZM445 685Z" glyph-name="Ograve" horiz-adv-x="689" unicode="&#210;" /><glyph d="M143 240C143 431 259 657 431 657C534 657 585 576 585 444C585 250 476 28 302 28C198 28 143 108 143 240ZM630 448C630 607 556 695 439 695C244 695 98 451 98 231C98 73 174 -10 291 -10C490 -10 630 229 630 448ZM290 0ZM435 10ZM445 685ZM769 685ZM122 685ZM373 343ZM466 839 449 860C406 827 350 796 304 774L309 759C363 777 415 800 467 833ZM637 839 620 860C577 827 529 800 475 774L480 759C533 776 582 799 638 833ZM482 860ZM445 685Z" glyph-name="Ohungarumlaut" horiz-adv-x="689" unicode="&#336;" /><glyph d="M143 240C143 431 259 657 431 657C534 657 585 576 585 444C585 250 476 28 302 28C198 28 143 108 143 240ZM630 448C630 607 556 695 439 695C244 695 98 451 98 231C98 73 174 -10 291 -10C490 -10 630 229 630 448ZM290 0ZM435 10ZM445 685ZM769 685ZM122 685ZM373 343ZM350 794H587L594 827H357ZM476 827ZM445 685Z" glyph-name="Omacron" horiz-adv-x="689" unicode="&#332;" /><glyph d="M621 445C621 291 519 119 380 23L378 0C533 70 668 278 668 457C668 598 584 695 448 695C266 695 113 523 113 298C113 161 170 41 244 0L252 23C192 82 156 187 156 294C156 497 286 657 440 657C552 657 621 572 621 445ZM244 0 252 23H235L11 41L5 36L2 0ZM633 36 629 41 397 23H380L378 0H620Z" glyph-name="Omega" horiz-adv-x="728" unicode="&#937;" /><glyph d="M418 25 420 45C320 4 188 -94 188 -186C188 -229 216 -255 261 -255C301 -255 341 -232 369 -203L366 -186C330 -211 301 -223 275 -223C244 -223 231 -205 231 -179C231 -111 320 -26 418 25ZM143 240C143 431 259 657 431 657C534 657 585 576 585 444C585 250 476 28 302 28C198 28 143 108 143 240ZM630 448C630 607 556 695 439 695C244 695 98 451 98 231C98 73 174 -10 291 -10C490 -10 630 229 630 448ZM290 0ZM435 10ZM445 685ZM769 685ZM122 685ZM373 343ZM435 10Z" glyph-name="Oogonek" horiz-adv-x="689" unicode="&#490;" /><glyph d="M143 240C143 431 259 657 431 657C534 657 585 576 585 444C585 250 476 28 302 28C198 28 143 108 143 240ZM630 448C630 607 556 695 439 695C244 695 98 451 98 231C98 73 174 -10 291 -10C490 -10 630 229 630 448ZM290 0ZM435 10ZM445 685ZM769 685ZM122 685ZM373 343ZM743 665 721 686 3 22 23 0ZM373 343Z" glyph-name="Oslash" horiz-adv-x="689" unicode="&#216;" /><glyph d="M143 240C143 431 259 657 431 657C534 657 585 576 585 444C585 250 476 28 302 28C198 28 143 108 143 240ZM630 448C630 607 556 695 439 695C244 695 98 451 98 231C98 73 174 -10 291 -10C490 -10 630 229 630 448ZM290 0ZM435 10ZM445 685ZM769 685ZM122 685ZM373 343ZM743 665 721 686 3 22 23 0ZM373 343ZM563 843 539 867C492 830 436 797 381 769L386 756C446 774 504 799 563 837ZM484 867ZM445 685Z" glyph-name="Oslashacute" horiz-adv-x="689" unicode="&#510;" /><glyph d="M143 240C143 431 259 657 431 657C534 657 585 576 585 444C585 250 476 28 302 28C198 28 143 108 143 240ZM630 448C630 607 556 695 439 695C244 695 98 451 98 231C98 73 174 -10 291 -10C490 -10 630 229 630 448ZM290 0ZM435 10ZM445 685ZM769 685ZM122 685ZM373 343ZM423 858C374 858 333 807 319 766L332 763C351 794 380 822 410 822C453 822 468 764 521 764C570 764 612 816 624 856L611 859C592 828 562 800 533 800C490 800 475 858 423 858ZM482 859ZM445 685Z" glyph-name="Otilde" horiz-adv-x="689" unicode="&#213;" /><glyph d="M551 527C551 626 479 685 358 685H249L241 650H348C458 650 506 599 506 523C506 393 410 302 270 302H169L162 267H254C420 267 551 369 551 527ZM121 0 267 685H218C213 638 206 596 194 538L79 0Z" glyph-name="P" horiz-adv-x="538" unicode="P" /><glyph d="M251 67 277 84C226 139 202 208 202 302C202 503 313 657 441 657C537 657 577 570 577 450C577 203 408 -24 146 -24C129 -24 127 -23 117 -23L108 -46C231 -137 404 -181 524 -181C581 -181 616 -171 616 -143C616 -136 614 -130 610 -126C579 -134 559 -136 528 -136C410 -136 280 -108 161 -48L163 -57C460 -42 622 210 622 448C622 601 555 695 445 695C294 695 157 516 157 301C157 181 200 109 251 67Z" glyph-name="Q" horiz-adv-x="661" unicode="Q" /><glyph d="M121 0 267 685H218C213 638 206 596 194 538L79 0ZM331 293C460 315 552 404 552 527C552 623 480 685 358 685H249L241 650H348C460 650 506 596 506 523C506 399 412 322 275 322H172L164 287H329ZM447 -10 488 0 347 312 306 303C353 199 400 94 447 -10ZM394 685ZM248 0Z" glyph-name="R" horiz-adv-x="571" unicode="R" /><glyph d="M121 0 267 685H218C213 638 206 596 194 538L79 0ZM331 293C460 315 552 404 552 527C552 623 480 685 358 685H249L241 650H348C460 650 506 596 506 523C506 399 412 322 275 322H172L164 287H329ZM447 -10 488 0 347 312 306 303C353 199 400 94 447 -10ZM394 685ZM248 0ZM512 843 488 867C441 830 385 797 330 769L335 756C395 774 453 799 512 837ZM433 867ZM394 685Z" glyph-name="Racute" horiz-adv-x="571" unicode="&#340;" /><glyph d="M121 0 267 685H218C213 638 206 596 194 538L79 0ZM331 293C460 315 552 404 552 527C552 623 480 685 358 685H249L241 650H348C460 650 506 596 506 523C506 399 412 322 275 322H172L164 287H329ZM447 -10 488 0 347 312 306 303C353 199 400 94 447 -10ZM394 685ZM248 0ZM528 866C478 841 432 812 384 775H422C392 812 355 842 317 866L305 856C335 822 360 789 382 756L419 762C471 807 489 820 536 856ZM432 866ZM394 685Z" glyph-name="Rcaron" horiz-adv-x="571" unicode="&#344;" /><glyph d="M121 0 267 685H218C213 638 206 596 194 538L79 0ZM331 293C460 315 552 404 552 527C552 623 480 685 358 685H249L241 650H348C460 650 506 596 506 523C506 399 412 322 275 322H172L164 287H329ZM447 -10 488 0 347 312 306 303C353 199 400 94 447 -10ZM394 685ZM248 0ZM151 -273 160 -282C212 -244 268 -156 268 -113C268 -94 256 -83 236 -83C210 -83 184 -111 184 -138C184 -157 198 -168 219 -168L220 -136C211 -175 178 -240 151 -273ZM248 0ZM188 -282Z" glyph-name="Rcommaaccent" horiz-adv-x="571" unicode="&#342;" /><glyph d="M121 0 267 685H218C213 638 206 596 194 538L79 0ZM331 293C460 315 552 404 552 527C552 623 480 685 358 685H249L241 650H348C460 650 506 596 506 523C506 399 412 322 275 322H172L164 287H329ZM447 -10 488 0 347 312 306 303C353 199 400 94 447 -10ZM394 685ZM248 0ZM261 -182C261 -165 253 -154 236 -154C211 -154 187 -185 187 -214C187 -231 196 -244 213 -244C243 -244 261 -209 261 -182ZM249 -105ZM193 -365ZM248 0ZM219 -135Z" glyph-name="Rdotbelow" horiz-adv-x="571" unicode="&#7770;" /><glyph d="M417 190C417 283 351 326 296 359C232 397 167 430 167 506C167 591 248 657 358 657C396 657 452 649 494 619L511 662C477 682 419 695 365 695C222 695 122 606 122 495C122 404 190 366 251 331C308 298 373 262 373 184C373 97 292 28 180 28C142 28 78 36 30 68L13 25C64 -2 126 -10 171 -10C316 -10 417 75 417 190ZM340 685ZM200 0Z" glyph-name="S" horiz-adv-x="493" unicode="S" /><glyph d="M417 190C417 283 351 326 296 359C232 397 167 430 167 506C167 591 248 657 358 657C396 657 452 649 494 619L511 662C477 682 419 695 365 695C222 695 122 606 122 495C122 404 190 366 251 331C308 298 373 262 373 184C373 97 292 28 180 28C142 28 78 36 30 68L13 25C64 -2 126 -10 171 -10C316 -10 417 75 417 190ZM340 685ZM200 0ZM458 843 434 867C387 830 331 797 276 769L281 756C341 774 399 799 458 837ZM379 867ZM340 685Z" glyph-name="Sacute" horiz-adv-x="493" unicode="&#346;" /><glyph d="M417 190C417 283 351 326 296 359C232 397 167 430 167 506C167 591 248 657 358 657C396 657 452 649 494 619L511 662C477 682 419 695 365 695C222 695 122 606 122 495C122 404 190 366 251 331C308 298 373 262 373 184C373 97 292 28 180 28C142 28 78 36 30 68L13 25C64 -2 126 -10 171 -10C316 -10 417 75 417 190ZM340 685ZM200 0ZM474 866C424 841 378 812 330 775H368C338 812 301 842 263 866L251 856C281 822 306 789 328 756L365 762C417 807 435 820 482 856ZM378 866ZM340 685Z" glyph-name="Scaron" horiz-adv-x="493" unicode="&#352;" /><glyph d="M417 190C417 283 351 326 296 359C232 397 167 430 167 506C167 591 248 657 358 657C396 657 452 649 494 619L511 662C477 682 419 695 365 695C222 695 122 606 122 495C122 404 190 366 251 331C308 298 373 262 373 184C373 97 292 28 180 28C142 28 78 36 30 68L13 25C64 -2 126 -10 171 -10C316 -10 417 75 417 190ZM340 685ZM200 0ZM95 -233 88 -255C178 -238 260 -164 260 -95C260 -68 242 -55 217 -55C186 -55 158 -68 136 -80L140 -93C156 -89 175 -85 191 -85C214 -85 221 -97 221 -110C221 -154 162 -211 95 -233ZM178 10 136 -80 163 -77 211 10ZM200 0ZM146 -255Z" glyph-name="Scedilla" horiz-adv-x="493" unicode="&#350;" /><glyph d="M558 351 565 384H143L124 366L136 343ZM124 366C111 334 85 261 85 185C85 63 157 -10 271 -10C464 -10 611 196 611 436C611 615 529 695 397 695C316 695 245 665 209 642L205 604C256 633 318 657 384 657C492 657 564 592 564 426C564 211 444 28 282 28C190 28 131 87 131 195C131 253 148 316 166 352Z" glyph-name="Schwa" horiz-adv-x="674" unicode="&#399;" /><glyph d="M417 190C417 283 351 326 296 359C232 397 167 430 167 506C167 591 248 657 358 657C396 657 452 649 494 619L511 662C477 682 419 695 365 695C222 695 122 606 122 495C122 404 190 366 251 331C308 298 373 262 373 184C373 97 292 28 180 28C142 28 78 36 30 68L13 25C64 -2 126 -10 171 -10C316 -10 417 75 417 190ZM340 685ZM200 0ZM259 756C309 781 355 810 403 847H365C395 810 431 779 470 756L482 766C452 800 427 833 405 866L368 860C316 815 298 802 251 766ZM378 866ZM340 685Z" glyph-name="Scircumflex" horiz-adv-x="493" unicode="&#348;" /><glyph d="M417 190C417 283 351 326 296 359C232 397 167 430 167 506C167 591 248 657 358 657C396 657 452 649 494 619L511 662C477 682 419 695 365 695C222 695 122 606 122 495C122 404 190 366 251 331C308 298 373 262 373 184C373 97 292 28 180 28C142 28 78 36 30 68L13 25C64 -2 126 -10 171 -10C316 -10 417 75 417 190ZM340 685ZM200 0ZM103 -273 112 -282C164 -244 220 -156 220 -113C220 -94 208 -83 188 -83C162 -83 136 -111 136 -138C136 -157 150 -168 171 -168L172 -136C163 -175 130 -240 103 -273ZM200 0ZM140 -282Z" glyph-name="Scommaaccent" horiz-adv-x="493" unicode="&#536;" /><glyph d="M417 190C417 283 351 326 296 359C232 397 167 430 167 506C167 591 248 657 358 657C396 657 452 649 494 619L511 662C477 682 419 695 365 695C222 695 122 606 122 495C122 404 190 366 251 331C308 298 373 262 373 184C373 97 292 28 180 28C142 28 78 36 30 68L13 25C64 -2 126 -10 171 -10C316 -10 417 75 417 190ZM340 685ZM200 0ZM213 -182C213 -165 205 -154 188 -154C163 -154 139 -185 139 -214C139 -231 148 -244 165 -244C195 -244 213 -209 213 -182ZM201 -105ZM145 -365ZM200 0ZM171 -135Z" glyph-name="Sdotbelow" horiz-adv-x="493" unicode="&#7778;" /><glyph d="M214 0 360 685H318L172 0ZM330 650C408 650 487 648 565 645L571 685H106L94 645C174 648 253 650 330 650ZM266 343ZM193 0ZM339 685Z" glyph-name="T" horiz-adv-x="491" unicode="T" /><glyph d="M214 0 360 685H318L172 0ZM330 650C408 650 487 648 565 645L571 685H106L94 645C174 648 253 650 330 650ZM266 343ZM193 0ZM339 685ZM443 328 449 358H89L83 328ZM266 343Z" glyph-name="Tbar" horiz-adv-x="491" unicode="&#358;" /><glyph d="M214 0 360 685H318L172 0ZM330 650C408 650 487 648 565 645L571 685H106L94 645C174 648 253 650 330 650ZM266 343ZM193 0ZM339 685ZM473 866C423 841 377 812 329 775H367C337 812 300 842 262 866L250 856C280 822 305 789 327 756L364 762C416 807 434 820 481 856ZM377 866ZM339 685Z" glyph-name="Tcaron" horiz-adv-x="491" unicode="&#356;" /><glyph d="M214 0 360 685H318L172 0ZM330 650C408 650 487 648 565 645L571 685H106L94 645C174 648 253 650 330 650ZM266 343ZM193 0ZM339 685ZM88 -233 81 -255C171 -238 253 -164 253 -95C253 -68 235 -55 210 -55C179 -55 151 -68 129 -80L133 -93C149 -89 168 -85 184 -85C207 -85 214 -97 214 -110C214 -154 155 -211 88 -233ZM171 10 129 -80 156 -77 204 10ZM193 0ZM139 -255Z" glyph-name="Tcedilla" horiz-adv-x="491" unicode="&#354;" /><glyph d="M214 0 360 685H318L172 0ZM330 650C408 650 487 648 565 645L571 685H106L94 645C174 648 253 650 330 650ZM266 343ZM193 0ZM339 685ZM96 -273 105 -282C157 -244 213 -156 213 -113C213 -94 201 -83 181 -83C155 -83 129 -111 129 -138C129 -157 143 -168 164 -168L165 -136C156 -175 123 -240 96 -273ZM193 0ZM133 -282Z" glyph-name="Tcommaaccent" horiz-adv-x="491" unicode="&#538;" /><glyph d="M214 0 360 685H318L172 0ZM330 650C408 650 487 648 565 645L571 685H106L94 645C174 648 253 650 330 650ZM266 343ZM193 0ZM339 685ZM206 -182C206 -165 198 -154 181 -154C156 -154 132 -185 132 -214C132 -231 141 -244 158 -244C188 -244 206 -209 206 -182ZM194 -105ZM138 -365ZM193 0ZM164 -135Z" glyph-name="Tdotbelow" horiz-adv-x="491" unicode="&#7788;" /><glyph d="M540 398C540 506 467 562 346 562H222L215 527H337C447 527 495 479 495 394C495 273 397 179 259 179H141L134 144H243C415 144 540 257 540 398ZM121 0 267 685H218C211 625 205 596 193 538L79 0Z" glyph-name="Thorn" horiz-adv-x="553" unicode="&#222;" /><glyph d="M87 157C87 46 160 -10 262 -10C388 -10 505 67 538 220L639 695L585 687C580 603 571 574 495 217C469 93 375 30 276 30C191 30 129 77 129 167C129 201 134 215 237 694V695L183 687C173 534 87 245 87 157ZM353 10ZM415 685ZM723 685ZM269 0Z" glyph-name="U" horiz-adv-x="634" unicode="U" /><glyph d="M87 157C87 46 160 -10 262 -10C388 -10 505 67 538 220L639 695L585 687C580 603 571 574 495 217C469 93 375 30 276 30C191 30 129 77 129 167C129 201 134 215 237 694V695L183 687C173 534 87 245 87 157ZM353 10ZM415 685ZM723 685ZM269 0ZM533 843 509 867C462 830 406 797 351 769L356 756C416 774 474 799 533 837ZM454 867ZM415 685Z" glyph-name="Uacute" horiz-adv-x="634" unicode="&#218;" /><glyph d="M87 157C87 46 160 -10 262 -10C388 -10 505 67 538 220L639 695L585 687C580 603 571 574 495 217C469 93 375 30 276 30C191 30 129 77 129 167C129 201 134 215 237 694V695L183 687C173 534 87 245 87 157ZM353 10ZM415 685ZM723 685ZM269 0ZM420 757C473 757 531 806 549 865L532 861C505 820 468 790 427 790C386 790 361 816 350 859L335 855C330 806 365 757 420 757ZM453 865ZM415 685Z" glyph-name="Ubreve" horiz-adv-x="634" unicode="&#364;" /><glyph d="M87 157C87 46 160 -10 262 -10C388 -10 505 67 538 220L639 695L585 687C580 603 571 574 495 217C469 93 375 30 276 30C191 30 129 77 129 167C129 201 134 215 237 694V695L183 687C173 534 87 245 87 157ZM353 10ZM415 685ZM723 685ZM269 0ZM549 866C499 841 453 812 405 775H443C413 812 376 842 338 866L326 856C356 822 381 789 403 756L440 762C492 807 510 820 557 856ZM453 866ZM415 685Z" glyph-name="Ucaron" horiz-adv-x="634" unicode="&#467;" /><glyph d="M87 157C87 46 160 -10 262 -10C388 -10 505 67 538 220L639 695L585 687C580 603 571 574 495 217C469 93 375 30 276 30C191 30 129 77 129 167C129 201 134 215 237 694V695L183 687C173 534 87 245 87 157ZM353 10ZM415 685ZM723 685ZM269 0ZM334 756C384 781 430 810 478 847H440C470 810 506 779 545 756L557 766C527 800 502 833 480 866L443 860C391 815 373 802 326 766ZM453 866ZM415 685Z" glyph-name="Ucircumflex" horiz-adv-x="634" unicode="&#219;" /><glyph d="M87 157C87 46 160 -10 262 -10C388 -10 505 67 538 220L639 695L585 687C580 603 571 574 495 217C469 93 375 30 276 30C191 30 129 77 129 167C129 201 134 215 237 694V695L183 687C173 534 87 245 87 157ZM353 10ZM415 685ZM723 685ZM269 0ZM376 823C376 839 365 852 347 852C322 852 297 826 297 800C297 782 311 770 327 770C351 770 376 796 376 823ZM586 823C586 839 575 852 557 852C532 852 507 826 507 800C507 782 521 770 537 770C561 770 586 796 586 823ZM450 852ZM415 685Z" glyph-name="Udieresis" horiz-adv-x="634" unicode="&#220;" /><glyph d="M87 157C87 46 160 -10 262 -10C388 -10 505 67 538 220L639 695L585 687C580 603 571 574 495 217C469 93 375 30 276 30C191 30 129 77 129 167C129 201 134 215 237 694V695L183 687C173 534 87 245 87 157ZM353 10ZM415 685ZM723 685ZM269 0ZM376 823C376 839 365 852 347 852C322 852 297 826 297 800C297 782 311 770 327 770C351 770 376 796 376 823ZM586 823C586 839 575 852 557 852C532 852 507 826 507 800C507 782 521 770 537 770C561 770 586 796 586 823ZM450 852ZM415 685ZM568 1010 544 1034C497 997 441 964 386 936L391 923C451 941 509 966 568 1004ZM489 1034ZM450 852Z" glyph-name="Udieresisacute" horiz-adv-x="634" unicode="&#471;" /><glyph d="M87 157C87 46 160 -10 262 -10C388 -10 505 67 538 220L639 695L585 687C580 603 571 574 495 217C469 93 375 30 276 30C191 30 129 77 129 167C129 201 134 215 237 694V695L183 687C173 534 87 245 87 157ZM353 10ZM415 685ZM723 685ZM269 0ZM376 823C376 839 365 852 347 852C322 852 297 826 297 800C297 782 311 770 327 770C351 770 376 796 376 823ZM586 823C586 839 575 852 557 852C532 852 507 826 507 800C507 782 521 770 537 770C561 770 586 796 586 823ZM450 852ZM415 685ZM593 1108C540 1073 493 1035 445 983H483C458 1034 428 1071 388 1108L376 1098C405 1050 425 1006 441 958L479 964C517 1012 551 1049 601 1098ZM504 1108ZM450 852Z" glyph-name="Udieresiscaron" horiz-adv-x="634" unicode="&#473;" /><glyph d="M87 157C87 46 160 -10 262 -10C388 -10 505 67 538 220L639 695L585 687C580 603 571 574 495 217C469 93 375 30 276 30C191 30 129 77 129 167C129 201 134 215 237 694V695L183 687C173 534 87 245 87 157ZM353 10ZM415 685ZM723 685ZM269 0ZM376 823C376 839 365 852 347 852C322 852 297 826 297 800C297 782 311 770 327 770C351 770 376 796 376 823ZM586 823C586 839 575 852 557 852C532 852 507 826 507 800C507 782 521 770 537 770C561 770 586 796 586 823ZM450 852ZM415 685ZM543 923 554 936C512 963 472 993 437 1034L403 1010L400 1004C443 966 491 942 543 923ZM489 1034ZM450 852Z" glyph-name="Udieresisgrave" horiz-adv-x="634" unicode="&#475;" /><glyph d="M87 157C87 46 160 -10 262 -10C388 -10 505 67 538 220L639 695L585 687C580 603 571 574 495 217C469 93 375 30 276 30C191 30 129 77 129 167C129 201 134 215 237 694V695L183 687C173 534 87 245 87 157ZM353 10ZM415 685ZM723 685ZM269 0ZM376 823C376 839 365 852 347 852C322 852 297 826 297 800C297 782 311 770 327 770C351 770 376 796 376 823ZM586 823C586 839 575 852 557 852C532 852 507 826 507 800C507 782 521 770 537 770C561 770 586 796 586 823ZM450 852ZM415 685ZM355 961H592L599 994H362ZM481 994ZM450 852Z" glyph-name="Udieresismacron" horiz-adv-x="634" unicode="&#469;" /><glyph d="M87 157C87 46 160 -10 262 -10C388 -10 505 67 538 220L639 695L585 687C580 603 571 574 495 217C469 93 375 30 276 30C191 30 129 77 129 167C129 201 134 215 237 694V695L183 687C173 534 87 245 87 157ZM353 10ZM415 685ZM723 685ZM269 0ZM282 -182C282 -165 274 -154 257 -154C232 -154 208 -185 208 -214C208 -231 217 -244 234 -244C264 -244 282 -209 282 -182ZM270 -105ZM214 -365ZM269 0ZM240 -135Z" glyph-name="Udotbelow" horiz-adv-x="634" unicode="&#7908;" /><glyph d="M87 157C87 46 160 -10 262 -10C388 -10 505 67 538 220L639 695L585 687C580 603 571 574 495 217C469 93 375 30 276 30C191 30 129 77 129 167C129 201 134 215 237 694V695L183 687C173 534 87 245 87 157ZM353 10ZM415 685ZM723 685ZM269 0ZM508 756 519 769C477 796 437 826 402 867L368 843L365 837C408 799 456 775 508 756ZM454 867ZM415 685Z" glyph-name="Ugrave" horiz-adv-x="634" unicode="&#217;" /><glyph d="M87 157C87 46 160 -10 262 -10C388 -10 505 67 538 220L639 695L585 687C580 603 571 574 495 217C469 93 375 30 276 30C191 30 129 77 129 167C129 201 134 215 237 694V695L183 687C173 534 87 245 87 157ZM353 10ZM415 685ZM723 685ZM269 0ZM436 839 419 860C376 827 320 796 274 774L279 759C333 777 385 800 437 833ZM607 839 590 860C547 827 499 800 445 774L450 759C503 776 552 799 608 833ZM452 860ZM415 685Z" glyph-name="Uhungarumlaut" horiz-adv-x="634" unicode="&#368;" /><glyph d="M87 157C87 46 160 -10 262 -10C388 -10 505 67 538 220L639 695L585 687C580 603 571 574 495 217C469 93 375 30 276 30C191 30 129 77 129 167C129 201 134 215 237 694V695L183 687C173 534 87 245 87 157ZM353 10ZM415 685ZM723 685ZM269 0ZM320 794H557L564 827H327ZM446 827ZM415 685Z" glyph-name="Umacron" horiz-adv-x="634" unicode="&#362;" /><glyph d="M361 7 360 27C262 -9 117 -107 117 -195C117 -235 146 -255 188 -255C234 -255 270 -232 298 -203L295 -186C259 -211 232 -223 204 -223C175 -223 160 -211 160 -188C160 -127 248 -46 361 7ZM87 157C87 46 160 -10 262 -10C388 -10 505 67 538 220L639 695L585 687C580 603 571 574 495 217C469 93 375 30 276 30C191 30 129 77 129 167C129 201 134 215 237 694V695L183 687C173 534 87 245 87 157ZM353 10ZM415 685ZM723 685ZM269 0ZM353 10Z" glyph-name="Uogonek" horiz-adv-x="634" unicode="&#370;" /><glyph d="M87 157C87 46 160 -10 262 -10C388 -10 505 67 538 220L639 695L585 687C580 603 571 574 495 217C469 93 375 30 276 30C191 30 129 77 129 167C129 201 134 215 237 694V695L183 687C173 534 87 245 87 157ZM353 10ZM415 685ZM723 685ZM269 0ZM523 829C523 860 498 882 461 882C410 882 361 839 361 795C361 762 390 740 424 740C474 740 523 783 523 829ZM400 801C400 827 425 851 452 851C472 851 484 838 484 821C484 796 460 771 434 771C415 771 400 782 400 801ZM457 882ZM415 685Z" glyph-name="Uring" horiz-adv-x="634" unicode="&#366;" /><glyph d="M87 157C87 46 160 -10 262 -10C388 -10 505 67 538 220L639 695L585 687C580 603 571 574 495 217C469 93 375 30 276 30C191 30 129 77 129 167C129 201 134 215 237 694V695L183 687C173 534 87 245 87 157ZM353 10ZM415 685ZM723 685ZM269 0ZM393 858C344 858 303 807 289 766L302 763C321 794 350 822 380 822C423 822 438 764 491 764C540 764 582 816 594 856L581 859C562 828 532 800 503 800C460 800 445 858 393 858ZM452 859ZM415 685Z" glyph-name="Utilde" horiz-adv-x="634" unicode="&#360;" /><glyph d="M228 -5H253L654 685L650 690L617 695L385 293C339 214 285 122 252 49C252 122 242 185 229 268L162 695L119 691Z" glyph-name="V" horiz-adv-x="586" unicode="V" /><glyph d="M197 -5H222L484 487C509 533 535 581 561 638H562C564 581 570 533 575 487L630 -5H655L1024 685L1020 690L989 695L771 287C729 209 681 120 655 52C658 120 651 185 641 267L593 695L554 691L339 290C298 212 248 120 222 52C225 120 218 185 208 267L160 695L119 690ZM571 685ZM425 0Z" glyph-name="W" horiz-adv-x="956" unicode="W" /><glyph d="M197 -5H222L484 487C509 533 535 581 561 638H562C564 581 570 533 575 487L630 -5H655L1024 685L1020 690L989 695L771 287C729 209 681 120 655 52C658 120 651 185 641 267L593 695L554 691L339 290C298 212 248 120 222 52C225 120 218 185 208 267L160 695L119 690ZM571 685ZM425 0ZM689 843 665 867C618 830 562 797 507 769L512 756C572 774 630 799 689 837ZM610 867ZM571 685Z" glyph-name="Wacute" horiz-adv-x="956" unicode="&#7810;" /><glyph d="M197 -5H222L484 487C509 533 535 581 561 638H562C564 581 570 533 575 487L630 -5H655L1024 685L1020 690L989 695L771 287C729 209 681 120 655 52C658 120 651 185 641 267L593 695L554 691L339 290C298 212 248 120 222 52C225 120 218 185 208 267L160 695L119 690ZM571 685ZM425 0ZM490 756C540 781 586 810 634 847H596C626 810 662 779 701 756L713 766C683 800 658 833 636 866L599 860C547 815 529 802 482 766ZM609 866ZM571 685Z" glyph-name="Wcircumflex" horiz-adv-x="956" unicode="&#372;" /><glyph d="M197 -5H222L484 487C509 533 535 581 561 638H562C564 581 570 533 575 487L630 -5H655L1024 685L1020 690L989 695L771 287C729 209 681 120 655 52C658 120 651 185 641 267L593 695L554 691L339 290C298 212 248 120 222 52C225 120 218 185 208 267L160 695L119 690ZM571 685ZM425 0ZM532 823C532 839 521 852 503 852C478 852 453 826 453 800C453 782 467 770 483 770C507 770 532 796 532 823ZM742 823C742 839 731 852 713 852C688 852 663 826 663 800C663 782 677 770 693 770C717 770 742 796 742 823ZM606 852ZM571 685Z" glyph-name="Wdieresis" horiz-adv-x="956" unicode="&#7812;" /><glyph d="M197 -5H222L484 487C509 533 535 581 561 638H562C564 581 570 533 575 487L630 -5H655L1024 685L1020 690L989 695L771 287C729 209 681 120 655 52C658 120 651 185 641 267L593 695L554 691L339 290C298 212 248 120 222 52C225 120 218 185 208 267L160 695L119 690ZM571 685ZM425 0ZM664 756 675 769C633 796 593 826 558 867L524 843L521 837C564 799 612 775 664 756ZM610 867ZM571 685Z" glyph-name="Wgrave" horiz-adv-x="956" unicode="&#7808;" /><glyph d="M-22 0H18L281 319H282L411 0H458L318 347L604 685V690L567 695L302 376H301L167 695L123 685L265 348L-22 5Z" glyph-name="X" horiz-adv-x="541" unicode="X" /><glyph d="M243 256 188 0H230L284 252L592 685L588 690L555 695L373 437C343 394 299 336 272 285H271C267 336 247 392 236 435L162 695L119 691ZM355 685ZM209 0ZM98 685Z" glyph-name="Y" horiz-adv-x="524" unicode="Y" /><glyph d="M243 256 188 0H230L284 252L592 685L588 690L555 695L373 437C343 394 299 336 272 285H271C267 336 247 392 236 435L162 695L119 691ZM355 685ZM209 0ZM98 685ZM473 843 449 867C402 830 346 797 291 769L296 756C356 774 414 799 473 837ZM394 867ZM355 685Z" glyph-name="Yacute" horiz-adv-x="524" unicode="&#221;" /><glyph d="M243 256 188 0H230L284 252L592 685L588 690L555 695L373 437C343 394 299 336 272 285H271C267 336 247 392 236 435L162 695L119 691ZM355 685ZM209 0ZM98 685ZM274 756C324 781 370 810 418 847H380C410 810 446 779 485 756L497 766C467 800 442 833 420 866L383 860C331 815 313 802 266 766ZM393 866ZM355 685Z" glyph-name="Ycircumflex" horiz-adv-x="524" unicode="&#374;" /><glyph d="M243 256 188 0H230L284 252L592 685L588 690L555 695L373 437C343 394 299 336 272 285H271C267 336 247 392 236 435L162 695L119 691ZM355 685ZM209 0ZM98 685ZM316 823C316 839 305 852 287 852C262 852 237 826 237 800C237 782 251 770 267 770C291 770 316 796 316 823ZM526 823C526 839 515 852 497 852C472 852 447 826 447 800C447 782 461 770 477 770C501 770 526 796 526 823ZM390 852ZM355 685Z" glyph-name="Ydieresis" horiz-adv-x="524" unicode="&#376;" /><glyph d="M243 256 188 0H230L284 252L592 685L588 690L555 695L373 437C343 394 299 336 272 285H271C267 336 247 392 236 435L162 695L119 691ZM355 685ZM209 0ZM98 685ZM448 756 459 769C417 796 377 826 342 867L308 843L305 837C348 799 396 775 448 756ZM394 867ZM355 685Z" glyph-name="Ygrave" horiz-adv-x="524" unicode="&#7922;" /><glyph d="M243 256 188 0H230L284 252L592 685L588 690L555 695L373 437C343 394 299 336 272 285H271C267 336 247 392 236 435L162 695L119 691ZM355 685ZM209 0ZM98 685ZM260 794H497L504 827H267ZM386 827ZM355 685Z" glyph-name="Ymacron" horiz-adv-x="524" unicode="&#562;" /><glyph d="M243 256 188 0H230L284 252L592 685L588 690L555 695L373 437C343 394 299 336 272 285H271C267 336 247 392 236 435L162 695L119 691ZM355 685ZM209 0ZM98 685ZM333 858C284 858 243 807 229 766L242 763C261 794 290 822 320 822C363 822 378 764 431 764C480 764 522 816 534 856L521 859C502 828 472 800 443 800C400 800 385 858 333 858ZM392 859ZM355 685Z" glyph-name="Ytilde" horiz-adv-x="524" unicode="&#7928;" /><glyph d="M-16 0H422L433 39L12 35L26 23L558 660L554 685H137L126 647L523 650L521 669L-17 25ZM347 685ZM201 0Z" glyph-name="Z" horiz-adv-x="507" unicode="Z" /><glyph d="M-16 0H422L433 39L12 35L26 23L558 660L554 685H137L126 647L523 650L521 669L-17 25ZM347 685ZM201 0ZM465 843 441 867C394 830 338 797 283 769L288 756C348 774 406 799 465 837ZM386 867ZM347 685Z" glyph-name="Zacute" horiz-adv-x="507" unicode="&#377;" /><glyph d="M-16 0H422L433 39L12 35L26 23L558 660L554 685H137L126 647L523 650L521 669L-17 25ZM347 685ZM201 0ZM481 866C431 841 385 812 337 775H375C345 812 308 842 270 866L258 856C288 822 313 789 335 756L372 762C424 807 442 820 489 856ZM385 866ZM347 685Z" glyph-name="Zcaron" horiz-adv-x="507" unicode="&#381;" /><glyph d="M-16 0H422L433 39L12 35L26 23L558 660L554 685H137L126 647L523 650L521 669L-17 25ZM347 685ZM201 0ZM411 825C411 841 401 851 384 851C360 851 337 825 337 799C337 783 347 771 364 771C389 771 411 798 411 825ZM383 851ZM347 685Z" glyph-name="Zdotaccent" horiz-adv-x="507" unicode="&#379;" /><glyph d="M-16 0H422L433 39L12 35L26 23L558 660L554 685H137L126 647L523 650L521 669L-17 25ZM347 685ZM201 0ZM214 -182C214 -165 206 -154 189 -154C164 -154 140 -185 140 -214C140 -231 149 -244 166 -244C196 -244 214 -209 214 -182ZM202 -105ZM146 -365ZM201 0ZM172 -135Z" glyph-name="Zdotbelow" horiz-adv-x="507" unicode="&#7826;" /><glyph d="M52 132C52 32 93 -10 143 -10C275 -10 387 286 405 339L402 404C375 299 253 26 155 26C116 26 95 68 95 137C95 297 209 469 337 469C361 469 402 463 433 451L463 490C426 501 385 505 360 505C185 505 52 313 52 132ZM373 0C373 117 395 208 421 317L463 490L424 495C349 186 333 120 333 0ZM415 10ZM223 0ZM319 495Z" glyph-name="a" horiz-adv-x="506" unicode="a" /><glyph d="M16 37C16 -44 52 -78 94 -78C202 -78 292 143 306 190L304 246C281 158 184 -46 104 -46C72 -46 54 -13 54 42C54 163 145 294 252 294C279 294 304 289 329 279L355 311C323 321 288 324 268 324C124 324 16 177 16 37ZM286 -70C285 19 302 86 323 176L355 311L321 316C262 74 250 22 251 -70ZM321 -62ZM161 -70ZM242 316Z" glyph-name="a.inferior" horiz-adv-x="419" /><glyph d="M431 203H162L155 169H424ZM64 0 269 336C302 390 336 446 359 495H360C362 445 373 384 382 336L444 0H486L387 542L383 547L354 544C339 517 322 490 307 465L25 0ZM487 15ZM259 15ZM369 530Z" glyph-name="a.sc" horiz-adv-x="511" /><glyph d="M92 397C92 316 128 282 170 282C278 282 368 503 382 550L380 606C357 518 260 314 180 314C148 314 130 347 130 402C130 523 221 654 328 654C355 654 380 649 405 639L431 671C399 681 364 684 344 684C200 684 92 537 92 397ZM362 290C361 379 378 446 399 536L431 671L397 676C338 434 326 382 327 290ZM397 298ZM237 290ZM318 676Z" glyph-name="a.superior" horiz-adv-x="419" /><glyph d="M52 132C52 32 93 -10 143 -10C275 -10 387 286 405 339L402 404C375 299 253 26 155 26C116 26 95 68 95 137C95 297 209 469 337 469C361 469 402 463 433 451L463 490C426 501 385 505 360 505C185 505 52 313 52 132ZM373 0C373 117 395 208 421 317L463 490L424 495C349 186 333 120 333 0ZM415 10ZM223 0ZM319 495ZM427 745 384 747C358 698 321 648 281 601L292 593C344 635 390 683 431 740ZM372 747ZM319 495Z" glyph-name="aacute" horiz-adv-x="506" unicode="&#225;" /><glyph d="M431 203H162L155 169H424ZM64 0 269 336C302 390 336 446 359 495H360C362 445 373 384 382 336L444 0H486L387 542L383 547L354 544C339 517 322 490 307 465L25 0ZM487 15ZM259 15ZM369 530ZM477 780 434 782C408 733 371 683 331 636L342 628C394 670 440 718 481 775ZM422 782ZM369 530Z" glyph-name="aacute.sc" horiz-adv-x="511" /><glyph d="M52 132C52 32 93 -10 143 -10C275 -10 387 286 405 339L402 404C375 299 253 26 155 26C116 26 95 68 95 137C95 297 209 469 337 469C361 469 402 463 433 451L463 490C426 501 385 505 360 505C185 505 52 313 52 132ZM373 0C373 117 395 208 421 317L463 490L424 495C349 186 333 120 333 0ZM415 10ZM223 0ZM319 495ZM340 607C400 607 453 654 473 730L451 726C429 673 396 646 352 646C311 646 287 669 288 724L265 720C252 646 289 607 340 607ZM369 730ZM319 495Z" glyph-name="abreve" horiz-adv-x="506" unicode="&#259;" /><glyph d="M431 203H162L155 169H424ZM64 0 269 336C302 390 336 446 359 495H360C362 445 373 384 382 336L444 0H486L387 542L383 547L354 544C339 517 322 490 307 465L25 0ZM487 15ZM259 15ZM369 530ZM390 642C450 642 503 689 523 765L501 761C479 708 446 681 402 681C361 681 337 704 338 759L315 755C302 681 339 642 390 642ZM419 765ZM369 530Z" glyph-name="abreve.sc" horiz-adv-x="511" /><glyph d="M52 132C52 32 93 -10 143 -10C275 -10 387 286 405 339L402 404C375 299 253 26 155 26C116 26 95 68 95 137C95 297 209 469 337 469C361 469 402 463 433 451L463 490C426 501 385 505 360 505C185 505 52 313 52 132ZM373 0C373 117 395 208 421 317L463 490L424 495C349 186 333 120 333 0ZM415 10ZM223 0ZM319 495ZM462 751C409 716 362 678 314 626H352C327 677 297 714 257 751L245 741C274 693 294 649 310 601L348 607C386 655 420 692 470 741ZM373 751ZM319 495Z" glyph-name="acaron" horiz-adv-x="506" unicode="&#462;" /><glyph d="M431 203H162L155 169H424ZM64 0 269 336C302 390 336 446 359 495H360C362 445 373 384 382 336L444 0H486L387 542L383 547L354 544C339 517 322 490 307 465L25 0ZM487 15ZM259 15ZM369 530ZM392 751C339 716 292 678 244 626H282C257 677 227 714 187 751L175 741C204 693 224 649 240 601L278 607C316 655 350 692 400 741Z" glyph-name="acaron.sc" horiz-adv-x="600" /><glyph d="M52 132C52 32 93 -10 143 -10C275 -10 387 286 405 339L402 404C375 299 253 26 155 26C116 26 95 68 95 137C95 297 209 469 337 469C361 469 402 463 433 451L463 490C426 501 385 505 360 505C185 505 52 313 52 132ZM373 0C373 117 395 208 421 317L463 490L424 495C349 186 333 120 333 0ZM415 10ZM223 0ZM319 495ZM253 601C306 636 353 674 401 726H363C388 675 418 638 458 601L470 611C441 659 421 703 405 751L367 745C329 697 295 660 245 611ZM373 751ZM319 495Z" glyph-name="acircumflex" horiz-adv-x="506" unicode="&#226;" /><glyph d="M431 203H162L155 169H424ZM64 0 269 336C302 390 336 446 359 495H360C362 445 373 384 382 336L444 0H486L387 542L383 547L354 544C339 517 322 490 307 465L25 0ZM487 15ZM259 15ZM369 530ZM303 636C356 671 403 709 451 761H413C438 710 468 673 508 636L520 646C491 694 471 738 455 786L417 780C379 732 345 695 295 646ZM423 786ZM369 530Z" glyph-name="acircumflex.sc" horiz-adv-x="511" /><glyph d="M239 745 196 747C170 698 133 648 93 601L104 593C156 635 202 683 243 740ZM184 747ZM131 495Z" glyph-name="acute" horiz-adv-x="237" unicode="&#180;" /><glyph d="M363 843 339 867C292 830 236 797 181 769L186 756C246 774 304 799 363 837ZM284 867ZM245 685Z" glyph-name="acute.case" horiz-adv-x="308" /><glyph d="M291 745 248 747C222 698 185 648 145 601L156 593C208 635 254 683 295 740ZM236 747ZM183 495Z" glyph-name="acutecomb" horiz-adv-x="260" unicode="&#769;" /><glyph d="M363 843 339 867C292 830 236 797 181 769L186 756C246 774 304 799 363 837ZM284 867ZM245 685Z" glyph-name="acutecomb.case" horiz-adv-x="308" /><glyph d="M52 132C52 32 93 -10 143 -10C275 -10 387 286 405 339L402 404C375 299 253 26 155 26C116 26 95 68 95 137C95 297 209 469 337 469C361 469 402 463 433 451L463 490C426 501 385 505 360 505C185 505 52 313 52 132ZM373 0C373 117 395 208 421 317L463 490L424 495C349 186 333 120 333 0ZM415 10ZM223 0ZM319 495ZM301 665C305 687 295 704 274 704C252 704 230 685 225 661C220 638 234 622 253 622C273 622 296 640 301 665ZM485 665C489 687 479 704 458 704C436 704 414 685 409 661C404 638 418 622 437 622C457 622 480 640 485 665ZM364 704ZM319 495Z" glyph-name="adieresis" horiz-adv-x="506" unicode="&#228;" /><glyph d="M431 203H162L155 169H424ZM64 0 269 336C302 390 336 446 359 495H360C362 445 373 384 382 336L444 0H486L387 542L383 547L354 544C339 517 322 490 307 465L25 0ZM487 15ZM259 15ZM369 530ZM351 700C355 722 345 739 324 739C302 739 280 720 275 696C270 673 284 657 303 657C323 657 346 675 351 700ZM535 700C539 722 529 739 508 739C486 739 464 720 459 696C454 673 468 657 487 657C507 657 530 675 535 700ZM414 739ZM369 530Z" glyph-name="adieresis.sc" horiz-adv-x="511" /><glyph d="M52 132C52 32 93 -10 143 -10C275 -10 387 286 405 339L402 404C375 299 253 26 155 26C116 26 95 68 95 137C95 297 209 469 337 469C361 469 402 463 433 451L463 490C426 501 385 505 360 505C185 505 52 313 52 132ZM373 0C373 117 395 208 421 317L463 490L424 495C349 186 333 120 333 0ZM415 10ZM223 0ZM319 495ZM236 -182C236 -165 228 -154 211 -154C186 -154 162 -185 162 -214C162 -231 171 -244 188 -244C218 -244 236 -209 236 -182ZM224 -105ZM168 -365ZM223 0ZM194 -135Z" glyph-name="adotbelow" horiz-adv-x="506" unicode="&#7841;" /><glyph d="M431 203H162L155 169H424ZM64 0 269 336C302 390 336 446 359 495H360C362 445 373 384 382 336L444 0H486L387 542L383 547L354 544C339 517 322 490 307 465L25 0ZM487 15ZM259 15ZM369 530ZM272 -167C272 -150 264 -139 247 -139C222 -139 198 -170 198 -199C198 -216 207 -229 224 -229C254 -229 272 -194 272 -167ZM260 -90ZM204 -350ZM259 15ZM230 -120Z" glyph-name="adotbelow.sc" horiz-adv-x="511" /><glyph d="M52 133C52 32 93 -10 143 -10C275 -10 387 286 405 339L372 315C322 192 231 26 154 26C116 26 95 66 95 137C95 297 200 469 355 469C404 469 451 452 475 436L512 473C469 492 423 505 373 505C180 505 52 313 52 133ZM647 119C606 68 552 26 494 26C425 26 385 86 385 172C385 300 475 469 581 469C624 469 652 442 652 402C652 349 604 263 379 253L376 224C624 233 695 321 695 403C695 467 652 505 590 505C456 505 342 326 342 169C342 54 403 -10 486 -10C553 -10 624 32 665 106ZM415 10ZM223 0ZM429 495Z" glyph-name="ae" horiz-adv-x="730" unicode="&#230;" /><glyph d="M394 203H175L168 169H387ZM64 0C343 410 360 434 396 495H399C392 442 388 388 357 0H399L440 534L436 539H388C368 505 360 494 341 465L25 0ZM685 539H417L410 506L681 502L689 534ZM619 286 402 284 396 252 611 250ZM631 37 379 33 372 0H623ZM444 530ZM331 0Z" glyph-name="ae.sc" horiz-adv-x="661" /><glyph d="M52 133C52 32 93 -10 143 -10C275 -10 387 286 405 339L372 315C322 192 231 26 154 26C116 26 95 66 95 137C95 297 200 469 355 469C404 469 451 452 475 436L512 473C469 492 423 505 373 505C180 505 52 313 52 133ZM647 119C606 68 552 26 494 26C425 26 385 86 385 172C385 300 475 469 581 469C624 469 652 442 652 402C652 349 604 263 379 253L376 224C624 233 695 321 695 403C695 467 652 505 590 505C456 505 342 326 342 169C342 54 403 -10 486 -10C553 -10 624 32 665 106ZM415 10ZM223 0ZM429 495ZM537 745 494 747C468 698 431 648 391 601L402 593C454 635 500 683 541 740ZM482 747ZM429 495Z" glyph-name="aeacute" horiz-adv-x="730" unicode="&#509;" /><glyph d="M394 203H175L168 169H387ZM64 0C343 410 360 434 396 495H399C392 442 388 388 357 0H399L440 534L436 539H388C368 505 360 494 341 465L25 0ZM685 539H417L410 506L681 502L689 534ZM619 286 402 284 396 252 611 250ZM631 37 379 33 372 0H623ZM444 530ZM331 0ZM552 780 509 782C483 733 446 683 406 636L417 628C469 670 515 718 556 775ZM497 782ZM444 530Z" glyph-name="aeacute.sc" horiz-adv-x="661" /><glyph d="M52 132C52 32 93 -10 143 -10C275 -10 387 286 405 339L402 404C375 299 253 26 155 26C116 26 95 68 95 137C95 297 209 469 337 469C361 469 402 463 433 451L463 490C426 501 385 505 360 505C185 505 52 313 52 132ZM373 0C373 117 395 208 421 317L463 490L424 495C349 186 333 120 333 0ZM415 10ZM223 0ZM319 495ZM380 593 393 601C373 648 358 698 352 747L309 745L303 740C320 683 346 635 380 593ZM319 747ZM319 495Z" glyph-name="agrave" horiz-adv-x="506" unicode="&#224;" /><glyph d="M431 203H162L155 169H424ZM64 0 269 336C302 390 336 446 359 495H360C362 445 373 384 382 336L444 0H486L387 542L383 547L354 544C339 517 322 490 307 465L25 0ZM487 15ZM259 15ZM369 530ZM430 628 443 636C423 683 408 733 402 782L359 780L353 775C370 718 396 670 430 628ZM369 782ZM369 530Z" glyph-name="agrave.sc" horiz-adv-x="511" /><glyph d="M52 132C52 32 93 -10 143 -10C275 -10 387 286 405 339L402 404C375 299 253 26 155 26C116 26 95 68 95 137C95 297 209 469 337 469C361 469 402 463 433 451L463 490C426 501 385 505 360 505C185 505 52 313 52 132ZM373 0C373 117 395 208 421 317L463 490L424 495C349 186 333 120 333 0ZM415 10ZM223 0ZM319 495ZM249 650H454L461 683H256ZM359 683ZM319 495Z" glyph-name="amacron" horiz-adv-x="506" unicode="&#257;" /><glyph d="M431 203H162L155 169H424ZM64 0 269 336C302 390 336 446 359 495H360C362 445 373 384 382 336L444 0H486L387 542L383 547L354 544C339 517 322 490 307 465L25 0ZM487 15ZM259 15ZM369 530ZM299 685H504L511 718H306ZM409 718ZM369 530Z" glyph-name="amacron.sc" horiz-adv-x="511" /><glyph d="M681 57C681 213 275 232 275 489C275 595 344 659 423 659C483 659 503 623 503 585C503 551 484 516 458 484L463 473C525 468 685 458 754 457C757 468 760 488 760 500L755 505C684 500 527 493 480 493L476 486C516 510 546 557 546 603C546 656 506 695 432 695C328 695 232 617 232 486C232 218 638 185 638 53C638 33 629 8 620 -3L627 -10C663 -1 681 24 681 57ZM626 472H590C590 257 465 26 281 26C191 26 129 81 129 164C129 238 176 328 293 373L287 396C166 357 86 260 86 159C86 67 148 -10 266 -10C486 -10 626 260 626 472Z" glyph-name="ampersand" horiz-adv-x="753" unicode="&amp;" /><glyph d="M681 57C681 213 275 232 275 489C275 595 344 659 423 659C483 659 503 623 503 585C503 551 484 516 458 484L463 473C525 468 685 458 754 457C757 468 760 488 760 500L755 505C684 500 527 493 480 493L476 486C516 510 546 557 546 603C546 656 506 695 432 695C328 695 232 617 232 486C232 218 638 185 638 53C638 33 629 8 620 -3L627 -10C663 -1 681 24 681 57ZM626 472H590C590 257 465 26 281 26C191 26 129 81 129 164C129 238 176 328 293 373L287 396C166 357 86 260 86 159C86 67 148 -10 266 -10C486 -10 626 260 626 472Z" glyph-name="ampersand.caps" horiz-adv-x="753" /><glyph d="M571 48C571 174 226 187 226 386C226 463 281 509 344 509C393 509 410 481 410 452C410 424 393 397 375 375L379 366C445 360 561 353 627 351C630 361 632 381 632 390L628 394C566 390 434 385 394 385L391 379C423 395 451 430 451 469C451 512 415 542 351 542C263 542 183 483 183 383C183 170 531 143 531 38C531 22 524 6 517 -2L523 -8C555 0 571 21 571 48ZM517 365H485C487 200 386 26 234 26C160 26 107 68 107 133C107 187 144 255 237 289L231 310C134 281 64 207 64 126C64 52 120 -8 219 -8C404 -8 519 200 517 365Z" glyph-name="ampersand.sc" horiz-adv-x="643" /><glyph d="M373 0 364 17C273 -32 139 -113 139 -200C139 -234 163 -255 202 -255C246 -255 289 -232 320 -203L317 -186C277 -211 245 -223 218 -223C192 -223 182 -212 182 -192C182 -129 275 -60 373 0ZM52 132C52 32 93 -10 143 -10C275 -10 387 286 405 339L402 404C375 299 253 26 155 26C116 26 95 68 95 137C95 297 209 469 337 469C361 469 402 463 433 451L463 490C426 501 385 505 360 505C185 505 52 313 52 132ZM373 0C373 117 395 208 421 317L463 490L424 495C349 186 333 120 333 0ZM415 10ZM223 0ZM319 495ZM415 10Z" glyph-name="aogonek" horiz-adv-x="506" unicode="&#261;" /><glyph d="M486 0 479 17C383 -25 251 -103 251 -186C251 -226 279 -250 324 -250C364 -250 404 -227 432 -198L429 -181C393 -206 364 -218 340 -218C307 -218 294 -204 294 -178C294 -118 387 -52 486 0ZM431 203H162L155 169H424ZM64 0 269 336C302 390 336 446 359 495H360C362 445 373 384 382 336L444 0H486L387 542L383 547L354 544C339 517 322 490 307 465L25 0ZM487 15ZM259 15ZM369 530ZM487 15Z" glyph-name="aogonek.sc" horiz-adv-x="511" /><glyph d="M391 327C345 327 178 403 152 403C132 403 96 361 53 314L31 332C66 377 119 443 162 443C208 443 374 367 400 367C420 367 456 408 501 455L522 438C487 393 434 327 391 327ZM370 103C324 103 157 179 131 179C111 179 75 137 32 90L10 108C45 153 98 219 141 219C187 219 353 143 379 143C399 143 435 184 480 231L501 214C466 169 413 103 370 103Z" glyph-name="approxequal" horiz-adv-x="520" unicode="&#8776;" /><glyph d="M407 402C361 402 194 478 168 478C148 478 112 436 69 389L47 407C82 452 135 518 178 518C224 518 390 442 416 442C436 442 472 483 517 530L538 513C503 468 450 402 407 402ZM386 178C340 178 173 254 147 254C127 254 91 212 48 165L26 183C61 228 114 294 157 294C203 294 369 218 395 218C415 218 451 259 496 306L517 289C482 244 429 178 386 178Z" glyph-name="approxequal.lf" horiz-adv-x="520" /><glyph d="M419 402C373 402 206 478 180 478C160 478 124 436 81 389L59 407C94 452 147 518 190 518C236 518 402 442 428 442C448 442 484 483 529 530L550 513C515 468 462 402 419 402ZM398 178C352 178 185 254 159 254C139 254 103 212 60 165L38 183C73 228 126 294 169 294C215 294 381 218 407 218C427 218 463 259 508 306L529 289C494 244 441 178 398 178Z" glyph-name="approxequal.osf" horiz-adv-x="520" /><glyph d="M391 327C345 327 178 403 152 403C132 403 96 361 53 314L31 332C66 377 119 443 162 443C208 443 374 367 400 367C420 367 456 408 501 455L522 438C487 393 434 327 391 327ZM370 103C324 103 157 179 131 179C111 179 75 137 32 90L10 108C45 153 98 219 141 219C187 219 353 143 379 143C399 143 435 184 480 231L501 214C466 169 413 103 370 103Z" glyph-name="approxequal.sc" horiz-adv-x="520" /><glyph d="M52 132C52 32 93 -10 143 -10C275 -10 387 286 405 339L402 404C375 299 253 26 155 26C116 26 95 68 95 137C95 297 209 469 337 469C361 469 402 463 433 451L463 490C426 501 385 505 360 505C185 505 52 313 52 132ZM373 0C373 117 395 208 421 317L463 490L424 495C349 186 333 120 333 0ZM415 10ZM223 0ZM319 495ZM437 702C437 733 414 756 379 756C329 756 281 711 281 666C281 633 308 610 341 610C389 610 437 655 437 702ZM320 672C320 699 345 725 369 725C388 725 399 711 399 694C399 668 375 641 350 641C334 641 320 653 320 672ZM375 756ZM319 495Z" glyph-name="aring" horiz-adv-x="506" unicode="&#229;" /><glyph d="M431 203H162L155 169H424ZM64 0 269 336C302 390 336 446 359 495H360C362 445 373 384 382 336L444 0H486L387 542L383 547L354 544C339 517 322 490 307 465L25 0ZM487 15ZM259 15ZM369 530ZM487 737C487 768 464 791 429 791C379 791 331 746 331 701C331 668 358 645 391 645C439 645 487 690 487 737ZM370 707C370 734 395 760 419 760C438 760 449 746 449 729C449 703 425 676 400 676C384 676 370 688 370 707ZM425 791ZM369 530Z" glyph-name="aring.sc" horiz-adv-x="511" /><glyph d="M52 132C52 32 93 -10 143 -10C275 -10 387 286 405 339L402 404C375 299 253 26 155 26C116 26 95 68 95 137C95 297 209 469 337 469C361 469 402 463 433 451L463 490C426 501 385 505 360 505C185 505 52 313 52 132ZM373 0C373 117 395 208 421 317L463 490L424 495C349 186 333 120 333 0ZM415 10ZM223 0ZM319 495ZM437 702C437 733 414 756 379 756C329 756 281 711 281 666C281 633 308 610 341 610C389 610 437 655 437 702ZM320 672C320 699 345 725 369 725C388 725 399 711 399 694C399 668 375 641 350 641C334 641 320 653 320 672ZM375 756ZM319 495ZM483 1006 440 1008C414 959 377 909 337 862L348 854C400 896 446 944 487 1001ZM428 1008ZM375 756Z" glyph-name="aringacute" horiz-adv-x="506" unicode="&#507;" /><glyph d="M431 203H162L155 169H424ZM64 0 269 336C302 390 336 446 359 495H360C362 445 373 384 382 336L444 0H486L387 542L383 547L354 544C339 517 322 490 307 465L25 0ZM487 15ZM259 15ZM369 530ZM487 737C487 768 464 791 429 791C379 791 331 746 331 701C331 668 358 645 391 645C439 645 487 690 487 737ZM370 707C370 734 395 760 419 760C438 760 449 746 449 729C449 703 425 676 400 676C384 676 370 688 370 707ZM425 791ZM369 530ZM533 1041 490 1043C464 994 427 944 387 897L398 889C450 931 496 979 537 1036ZM478 1043ZM425 791Z" glyph-name="aringacute.sc" horiz-adv-x="511" /><glyph d="M127 210 317 512H314L383 210H427L351 545H295L82 210Z" glyph-name="asciicircum" horiz-adv-x="525" unicode="^" /><glyph d="M382 227C336 227 169 303 143 303C123 303 87 261 44 214L22 232C57 277 110 343 153 343C199 343 365 267 391 267C411 267 447 308 492 355L513 338C478 293 425 227 382 227Z" glyph-name="asciitilde" horiz-adv-x="520" unicode="~" /><glyph d="M161 463 172 434 360 541 354 556 163 470ZM553 635 542 664 354 556 360 541 550 628ZM497 438 520 467 363 557 351 542 489 436ZM217 660 194 631 351 542 363 557 224 662ZM413 746H379L347 549H365L417 741ZM300 352H334L365 549H347L296 357Z" glyph-name="asterisk" horiz-adv-x="481" unicode="*" /><glyph d="M149 463 160 434 348 541 342 556 151 470ZM541 635 530 664 342 556 348 541 538 628ZM485 438 508 467 351 557 339 542 477 436ZM205 660 182 631 339 542 351 557 212 662ZM401 746H367L335 549H353L405 741ZM288 352H322L353 549H335L284 357Z" glyph-name="asterisk.caps" horiz-adv-x="561" /><glyph d="M161 463 172 434 360 541 354 556 163 470ZM553 635 542 664 354 556 360 541 550 628ZM497 438 520 467 363 557 351 542 489 436ZM217 660 194 631 351 542 363 557 224 662ZM413 746H379L347 549H365L417 741ZM300 352H334L365 549H347L296 357Z" glyph-name="asterisk.sc" horiz-adv-x="481" /><glyph d="M455 26C416 26 395 68 395 137C395 297 509 469 637 469C661 469 702 463 733 451L763 490C726 501 685 505 660 505C485 505 352 313 352 132C352 32 393 -10 443 -10C534 -10 624 127 667 231H671C633 111 639 -10 783 -10C952 -10 1090 155 1090 356C1090 578 921 755 669 755C369 755 82 502 82 178C82 -78 263 -255 516 -255C644 -255 751 -209 820 -163L806 -139C735 -178 651 -219 528 -219C284 -219 125 -48 125 187C125 502 413 719 670 719C886 719 1047 565 1047 354C1047 158 909 26 787 26C650 26 690 193 707 262L763 490L724 495L695 376C669 269 553 26 455 26Z" glyph-name="at" horiz-adv-x="1118" unicode="@" /><glyph d="M52 132C52 32 93 -10 143 -10C275 -10 387 286 405 339L402 404C375 299 253 26 155 26C116 26 95 68 95 137C95 297 209 469 337 469C361 469 402 463 433 451L463 490C426 501 385 505 360 505C185 505 52 313 52 132ZM373 0C373 117 395 208 421 317L463 490L424 495C349 186 333 120 333 0ZM415 10ZM223 0ZM319 495ZM306 706C259 706 222 653 211 614L224 611C240 642 266 670 294 670C334 670 353 612 402 612C446 612 485 662 496 704L483 707C467 676 441 648 414 648C374 648 355 706 306 706ZM364 707ZM319 495Z" glyph-name="atilde" horiz-adv-x="506" unicode="&#227;" /><glyph d="M431 203H162L155 169H424ZM64 0 269 336C302 390 336 446 359 495H360C362 445 373 384 382 336L444 0H486L387 542L383 547L354 544C339 517 322 490 307 465L25 0ZM487 15ZM259 15ZM369 530ZM356 741C309 741 272 688 261 649L274 646C290 677 316 705 344 705C384 705 403 647 452 647C496 647 535 697 546 739L533 742C517 711 491 683 464 683C424 683 405 741 356 741ZM414 742ZM369 530Z" glyph-name="atilde.sc" horiz-adv-x="511" /><glyph d="M181 609 132 380C85 161 69 98 47 5L87 0C133 234 238 585 238 755L189 745ZM366 505C240 505 145 274 107 156L108 133L106 90C133 207 259 469 357 469C396 469 417 427 417 358C417 198 303 26 175 26C151 26 110 32 79 44L47 5C81 -6 125 -10 151 -10C328 -10 460 182 460 363C460 463 420 505 366 505Z" glyph-name="b" horiz-adv-x="512" unicode="b" /><glyph d="M116 405 78 226C42 56 28 5 11 -65L46 -68C82 114 166 387 163 519L120 511ZM278 324C186 324 108 196 61 56L62 38L61 0C81 89 185 292 270 292C304 292 323 258 323 203C323 82 231 -48 113 -48C90 -48 58 -43 39 -33L11 -65C39 -74 78 -78 103 -78C255 -78 361 72 361 209C361 289 325 324 278 324Z" glyph-name="b.inferior" horiz-adv-x="429" /><glyph d="M124 0 239 539H193C188 497 183 465 174 422L84 0ZM218 0C368 0 470 72 470 176C470 229 436 266 370 280C448 303 498 362 498 429C498 497 438 539 336 539H224L217 506H326C413 506 455 472 455 421C455 343 387 294 277 294H171L164 261H274C383 261 428 226 428 172C428 87 352 33 230 33H116L109 0Z" glyph-name="b.sc" horiz-adv-x="490" /><glyph d="M193 765 155 586C119 416 105 365 88 295L123 292C159 474 243 747 240 879L197 871ZM355 684C263 684 185 556 138 416L139 398L138 360C158 449 262 652 347 652C381 652 400 618 400 563C400 442 308 312 190 312C167 312 135 317 116 327L88 295C116 286 155 282 180 282C332 282 438 432 438 569C438 649 402 684 355 684Z" glyph-name="b.superior" horiz-adv-x="430" /><glyph d="M246 -2 277 3 287 11 259 758 228 753 218 745Z" glyph-name="backslash" horiz-adv-x="349" unicode="\" /><glyph d="M228 -28 259 -23 269 -15 241 732 210 727 200 719Z" glyph-name="backslash.caps" horiz-adv-x="425" /><glyph d="M246 -2 277 3 287 11 259 758 228 753 218 745Z" glyph-name="backslash.sc" horiz-adv-x="349" /><glyph d="M42 -252 65 -249 276 745 271 752 247 749 36 -245Z" glyph-name="bar" horiz-adv-x="311" unicode="|" /><glyph d="M137 174C137 88 47 -19 47 -114C47 -175 85 -195 172 -195L182 -165C113 -165 87 -146 87 -101C87 -16 177 84 177 182C177 234 151 271 90 288L88 277C159 281 238 339 238 513C238 530 238 566 238 568C238 686 271 725 371 725L374 755C273 755 199 725 199 574C199 557 200 534 200 515C200 378 146 308 62 304L54 265C111 256 137 220 137 174Z" glyph-name="braceleft" horiz-adv-x="290" unicode="{" /><glyph d="M67 327C126 321 152 300 152 262C152 200 83 129 83 59C83 6 123 -10 211 -10L221 20C151 20 122 35 122 66C122 114 193 197 193 266C193 318 152 342 102 345L101 339C157 342 236 372 236 484C236 509 232 546 232 570C232 639 266 665 358 665L361 695C258 695 193 668 193 568C193 538 199 505 199 476C199 403 162 366 74 360Z" glyph-name="braceleft.caps" horiz-adv-x="289" /><glyph d="M51 250C110 244 136 223 136 185C136 123 67 52 67 -18C67 -71 107 -87 195 -87L205 -57C135 -57 106 -42 106 -11C106 37 177 120 177 189C177 241 136 265 86 268L85 262C141 265 220 295 220 407C220 432 216 469 216 493C216 562 250 588 342 588L345 618C242 618 177 591 177 491C177 461 183 428 183 399C183 326 146 289 58 283Z" glyph-name="braceleft.sc" horiz-adv-x="290" /><glyph d="M166 386C166 472 256 579 256 674C256 735 218 755 131 755L121 725C190 725 216 706 216 661C216 576 126 476 126 378C126 326 152 289 213 272L215 283C144 279 65 221 65 47C65 30 65 -6 65 -8C65 -126 32 -165 -68 -165L-71 -195C30 -195 104 -165 104 -14C104 3 103 26 103 45C103 182 157 252 241 256L249 295C192 304 166 340 166 386Z" glyph-name="braceright" horiz-adv-x="289" unicode="}" /><glyph d="M263 357C204 363 178 384 178 422C178 484 247 555 247 625C247 678 207 694 119 694L109 664C179 664 208 649 208 618C208 570 137 487 137 418C137 366 178 342 228 339L229 345C173 342 94 312 94 200C94 175 98 138 98 114C98 45 64 19 -28 19L-31 -11C72 -11 137 16 137 116C137 146 131 179 131 208C131 281 168 318 256 324Z" glyph-name="braceright.caps" horiz-adv-x="290" /><glyph d="M246 280C187 286 161 307 161 345C161 407 230 478 230 548C230 601 190 617 102 617L92 587C162 587 191 572 191 541C191 493 120 410 120 341C120 289 161 265 211 262L212 268C156 265 77 235 77 123C77 98 81 61 81 37C81 -32 47 -58 -45 -58L-48 -88C55 -88 120 -61 120 39C120 69 114 102 114 131C114 204 151 241 239 247Z" glyph-name="braceright.sc" horiz-adv-x="289" /><glyph d="M-14 -195H28L230 755H188ZM188 755 180 719H373L381 755ZM-6 -159 -14 -195H179L187 -159Z" glyph-name="bracketleft" horiz-adv-x="298" unicode="[" /><glyph d="M27 0H69L215 685H173ZM173 685 165 649H358L366 685ZM35 36 27 0H220L228 36Z" glyph-name="bracketleft.caps" horiz-adv-x="298" /><glyph d="M11 -77H53L199 608H157ZM157 608 149 572H342L350 608ZM19 -41 11 -77H204L212 -41Z" glyph-name="bracketleft.sc" horiz-adv-x="298" /><glyph d="M326 755H284L82 -195H124ZM124 -195 132 -159H-61L-69 -195ZM318 719 326 755H133L125 719Z" glyph-name="bracketright" horiz-adv-x="298" unicode="]" /><glyph d="M311 685H269L123 0H165ZM165 0 173 36H-20L-28 0ZM303 649 311 685H118L110 649Z" glyph-name="bracketright.caps" horiz-adv-x="298" /><glyph d="M295 608H253L107 -77H149ZM149 -77 157 -41H-36L-44 -77ZM287 572 295 608H102L94 572Z" glyph-name="bracketright.sc" horiz-adv-x="298" /><glyph d="M245 607C305 607 358 654 378 730L356 726C334 673 301 646 257 646C216 646 192 669 193 724L170 720C157 646 194 607 245 607Z" glyph-name="breve" horiz-adv-x="345" unicode="&#728;" /><glyph d="M284 757C337 757 395 806 413 865L396 861C369 820 332 790 291 790C250 790 225 816 214 859L199 855C194 806 229 757 284 757ZM317 865ZM279 685Z" glyph-name="breve.case" horiz-adv-x="352" /><glyph d="M257 607C317 607 370 654 390 730L368 726C346 673 313 646 269 646C228 646 204 669 205 724L182 720C169 646 206 607 257 607ZM286 730ZM236 495Z" glyph-name="brevecomb" horiz-adv-x="345" unicode="&#774;" /><glyph d="M284 757C337 757 395 806 413 865L396 861C369 820 332 790 291 790C250 790 225 816 214 859L199 855C194 806 229 757 284 757ZM317 865ZM279 685Z" glyph-name="brevecomb.case" horiz-adv-x="352" /><glyph d="M198 377 276 745 271 752 247 749 169 381 175 374ZM65 -249 143 119 138 126 114 123 36 -245 42 -252Z" glyph-name="brokenbar" horiz-adv-x="311" unicode="&#166;" /><glyph d="M228 160C294 160 355 228 355 302C355 344 330 374 284 374C217 374 152 306 152 235C152 193 179 160 228 160Z" glyph-name="bullet" horiz-adv-x="394" unicode="&#8226;" /><glyph d="M243 232C309 232 370 300 370 374C370 416 345 446 299 446C232 446 167 378 167 307C167 265 194 232 243 232Z" glyph-name="bullet.caps" horiz-adv-x="394" /><glyph d="M227 157C293 157 354 225 354 299C354 341 329 371 283 371C216 371 151 303 151 232C151 190 178 157 227 157Z" glyph-name="bullet.sc" horiz-adv-x="394" /><glyph d="M366 119C322 64 272 26 213 26C138 26 102 87 102 172C102 317 208 469 317 469C357 469 388 449 411 422L428 463C404 486 373 505 327 505C187 505 59 340 59 168C59 54 116 -10 203 -10C266 -10 331 23 384 106ZM283 495ZM215 0Z" glyph-name="c" horiz-adv-x="444" unicode="c" /><glyph d="M271 24C237 -15 189 -47 140 -47C86 -47 57 -3 57 60C57 169 140 294 239 294C267 294 291 283 311 269L325 304C306 315 278 324 246 324C126 324 19 196 19 61C19 -24 62 -78 131 -78C189 -78 251 -42 286 12ZM206 316ZM123 -70Z" glyph-name="c.inferior" horiz-adv-x="375" /><glyph d="M476 73C433 47 375 29 320 29C216 29 165 95 165 193C165 366 284 510 426 510C479 510 526 495 552 472L569 512C535 535 480 547 431 547C264 547 121 378 121 180C121 59 192 -8 305 -8C361 -8 427 7 474 37ZM404 530ZM299 15Z" glyph-name="c.sc" horiz-adv-x="516" /><glyph d="M348 384C314 345 266 313 217 313C163 313 134 357 134 420C134 529 217 654 316 654C344 654 368 643 388 629L402 664C383 675 355 684 323 684C203 684 96 556 96 421C96 336 139 282 208 282C266 282 328 318 363 372ZM283 676ZM200 290Z" glyph-name="c.superior" horiz-adv-x="376" /><glyph d="M366 119C322 64 272 26 213 26C138 26 102 87 102 172C102 317 208 469 317 469C357 469 388 449 411 422L428 463C404 486 373 505 326 505C188 505 59 341 59 168C59 54 116 -10 203 -10C266 -10 331 23 384 106ZM611 755C456 755 342 677 342 572C342 530 360 481 418 445L428 463C396 500 385 538 385 572C385 673 497 719 592 719C612 719 634 717 658 714L675 750C653 753 636 755 611 755ZM548 0C554 246 653 469 794 469C840 469 859 445 859 400C859 368 851 325 832 238C817 171 798 95 798 0H838C838 57 839 92 865 218C889 334 899 367 899 404C899 470 866 505 807 505C735 505 654 453 605 345H603C638 497 675 650 675 750L626 745C626 684 620 618 608 562L569 380C527 184 508 80 508 0Z" glyph-name="c_h" horiz-adv-x="974" /><glyph d="M400 455 428 463C412 493 405 524 405 559C405 645 470 709 551 709C605 709 644 681 644 628C644 568 598 508 524 485L518 462H594C525 137 518 112 518 80C518 16 549 -10 607 -10C646 -10 683 2 711 18L709 51C683 36 653 26 623 26C583 26 561 44 561 96C561 127 568 155 634 462H772L780 490L776 495H584L572 477C639 499 684 567 684 631C684 696 636 745 555 745C456 745 365 669 365 565C365 531 371 487 400 455ZM366 119C322 64 272 26 213 26C138 26 102 87 102 172C102 317 208 469 317 469C357 469 388 449 411 422L428 463C404 486 373 505 327 505C187 505 59 340 59 168C59 54 116 -10 203 -10C266 -10 331 23 384 106Z" glyph-name="c_t" horiz-adv-x="780" /><glyph d="M366 119C322 64 272 26 213 26C138 26 102 87 102 172C102 317 208 469 317 469C357 469 388 449 411 422L428 463C404 486 373 505 327 505C187 505 59 340 59 168C59 54 116 -10 203 -10C266 -10 331 23 384 106ZM283 495ZM215 0ZM391 745 348 747C322 698 285 648 245 601L256 593C308 635 354 683 395 740ZM336 747ZM283 495Z" glyph-name="cacute" horiz-adv-x="444" unicode="&#263;" /><glyph d="M476 73C433 47 375 29 320 29C216 29 165 95 165 193C165 366 284 510 426 510C479 510 526 495 552 472L569 512C535 535 480 547 431 547C264 547 121 378 121 180C121 59 192 -8 305 -8C361 -8 427 7 474 37ZM404 530ZM299 15ZM512 780 469 782C443 733 406 683 366 636L377 628C429 670 475 718 516 775ZM457 782ZM404 530Z" glyph-name="cacute.sc" horiz-adv-x="516" /><glyph d="M392 751C339 716 292 678 244 626H282C257 677 227 714 187 751L175 741C204 693 224 649 240 601L278 607C316 655 350 692 400 741Z" glyph-name="caron" horiz-adv-x="365" unicode="&#711;" /><glyph d="M422 866C372 841 326 812 278 775H316C286 812 249 842 211 866L199 856C229 822 254 789 276 756L313 762C365 807 383 820 430 856ZM326 866ZM288 685Z" glyph-name="caron.case" horiz-adv-x="371" /><glyph d="M392 751C339 716 292 678 244 626H282C257 677 227 714 187 751L175 741C204 693 224 649 240 601L278 607C316 655 350 692 400 741ZM303 751ZM249 495Z" glyph-name="caroncomb" horiz-adv-x="365" unicode="&#780;" /><glyph d="M264 758H221C193 687 166 631 140 579H158C195 629 233 690 268 753ZM204 495Z" glyph-name="caroncomb.alt" horiz-adv-x="231" /><glyph d="M422 866C372 841 326 812 278 775H316C286 812 249 842 211 866L199 856C229 822 254 789 276 756L313 762C365 807 383 820 430 856ZM326 866ZM288 685Z" glyph-name="caroncomb.case" horiz-adv-x="371" /><glyph d="M366 119C322 64 272 26 213 26C138 26 102 87 102 172C102 317 208 469 317 469C357 469 388 449 411 422L428 463C404 486 373 505 327 505C187 505 59 340 59 168C59 54 116 -10 203 -10C266 -10 331 23 384 106ZM283 495ZM215 0ZM426 751C373 716 326 678 278 626H316C291 677 261 714 221 751L209 741C238 693 258 649 274 601L312 607C350 655 384 692 434 741ZM337 751ZM283 495Z" glyph-name="ccaron" horiz-adv-x="444" unicode="&#269;" /><glyph d="M476 73C433 47 375 29 320 29C216 29 165 95 165 193C165 366 284 510 426 510C479 510 526 495 552 472L569 512C535 535 480 547 431 547C264 547 121 378 121 180C121 59 192 -8 305 -8C361 -8 427 7 474 37ZM404 530ZM299 15ZM547 786C494 751 447 713 399 661H437C412 712 382 749 342 786L330 776C359 728 379 684 395 636L433 642C471 690 505 727 555 776ZM458 786ZM404 530Z" glyph-name="ccaron.sc" horiz-adv-x="516" /><glyph d="M366 119C322 64 272 26 213 26C138 26 102 87 102 172C102 317 208 469 317 469C357 469 388 449 411 422L428 463C404 486 373 505 327 505C187 505 59 340 59 168C59 54 116 -10 203 -10C266 -10 331 23 384 106ZM283 495ZM215 0ZM110 -233 103 -255C193 -238 275 -164 275 -95C275 -68 257 -55 232 -55C201 -55 173 -68 151 -80L155 -93C171 -89 190 -85 206 -85C229 -85 236 -97 236 -110C236 -154 177 -211 110 -233ZM193 10 151 -80 178 -77 226 10ZM215 0ZM161 -255Z" glyph-name="ccedilla" horiz-adv-x="444" unicode="&#231;" /><glyph d="M476 73C433 47 375 29 320 29C216 29 165 95 165 193C165 366 284 510 426 510C479 510 526 495 552 472L569 512C535 535 480 547 431 547C264 547 121 378 121 180C121 59 192 -8 305 -8C361 -8 427 7 474 37ZM404 530ZM299 15ZM194 -218 187 -240C277 -223 359 -149 359 -80C359 -53 341 -40 316 -40C285 -40 257 -53 235 -65L239 -78C255 -74 274 -70 290 -70C313 -70 320 -82 320 -95C320 -139 261 -196 194 -218ZM277 25 235 -65 262 -62 310 25ZM299 15ZM245 -240Z" glyph-name="ccedilla.sc" horiz-adv-x="516" /><glyph d="M366 119C322 64 272 26 213 26C138 26 102 87 102 172C102 317 208 469 317 469C357 469 388 449 411 422L428 463C404 486 373 505 327 505C187 505 59 340 59 168C59 54 116 -10 203 -10C266 -10 331 23 384 106ZM283 495ZM215 0ZM217 601C270 636 317 674 365 726H327C352 675 382 638 422 601L434 611C405 659 385 703 369 751L331 745C293 697 259 660 209 611ZM337 751ZM283 495Z" glyph-name="ccircumflex" horiz-adv-x="444" unicode="&#265;" /><glyph d="M476 73C433 47 375 29 320 29C216 29 165 95 165 193C165 366 284 510 426 510C479 510 526 495 552 472L569 512C535 535 480 547 431 547C264 547 121 378 121 180C121 59 192 -8 305 -8C361 -8 427 7 474 37ZM404 530ZM299 15ZM338 636C391 671 438 709 486 761H448C473 710 503 673 543 636L555 646C526 694 506 738 490 786L452 780C414 732 380 695 330 646ZM458 786ZM404 530Z" glyph-name="ccircumflex.sc" horiz-adv-x="516" /><glyph d="M366 119C322 64 272 26 213 26C138 26 102 87 102 172C102 317 208 469 317 469C357 469 388 449 411 422L428 463C404 486 373 505 327 505C187 505 59 340 59 168C59 54 116 -10 203 -10C266 -10 331 23 384 106ZM283 495ZM215 0ZM351 678C351 695 343 706 326 706C301 706 277 675 277 646C277 629 286 616 303 616C333 616 351 651 351 678ZM339 755ZM283 495Z" glyph-name="cdotaccent" horiz-adv-x="444" unicode="&#267;" /><glyph d="M476 73C433 47 375 29 320 29C216 29 165 95 165 193C165 366 284 510 426 510C479 510 526 495 552 472L569 512C535 535 480 547 431 547C264 547 121 378 121 180C121 59 192 -8 305 -8C361 -8 427 7 474 37ZM404 530ZM299 15ZM472 713C472 730 464 741 447 741C422 741 398 710 398 681C398 664 407 651 424 651C454 651 472 686 472 713ZM460 790ZM404 530Z" glyph-name="cdotaccent.sc" horiz-adv-x="516" /><glyph d="M-30 -233 -37 -255C53 -238 135 -164 135 -95C135 -68 117 -55 92 -55C61 -55 33 -68 11 -80L15 -93C31 -89 50 -85 66 -85C89 -85 96 -97 96 -110C96 -154 37 -211 -30 -233ZM53 10 11 -80 38 -77 86 10Z" glyph-name="cedilla" horiz-adv-x="280" unicode="&#184;" /><glyph d="M-30 -233 -37 -255C53 -238 135 -164 135 -95C135 -68 117 -55 92 -55C61 -55 33 -68 11 -80L15 -93C31 -89 50 -85 66 -85C89 -85 96 -97 96 -110C96 -154 37 -211 -30 -233ZM53 10 11 -80 38 -77 86 10ZM75 0ZM21 -255Z" glyph-name="cedillacomb" horiz-adv-x="280" unicode="&#807;" /><glyph d="M354 519 387 671 380 679 358 676 324 519ZM172 -140 195 -137 224 0H194L166 -132ZM439 497C417 522 387 539 341 539C193 539 63 371 63 179C63 46 125 -10 205 -10C276 -10 341 33 388 106L370 119C340 79 283 26 215 26C146 26 108 82 108 186C108 356 211 503 331 503C376 503 404 482 422 456Z" glyph-name="cent" horiz-adv-x="448" unicode="&#162;" /><glyph d="M325 500 353 632 347 640 324 637 295 500ZM167 -140 190 -137 219 0H189L161 -132ZM366 119C322 64 272 26 213 26C138 26 102 87 102 172C102 317 208 469 317 469C357 469 388 449 411 422L428 463C404 486 373 505 327 505C187 505 59 340 59 168C59 54 116 -10 203 -10C266 -10 331 23 384 106ZM283 495ZM215 0Z" glyph-name="cent.lf" horiz-adv-x="444" /><glyph d="M366 519 399 671 392 679 370 676 336 519ZM184 -140 207 -137 236 0H206L178 -132ZM451 497C429 522 399 539 353 539C205 539 75 371 75 179C75 46 137 -10 217 -10C288 -10 353 33 400 106L382 119C352 79 295 26 227 26C158 26 120 82 120 186C120 356 223 503 343 503C388 503 416 482 434 456Z" glyph-name="cent.osf" horiz-adv-x="485" /><glyph d="M435 542 463 674 457 682 434 679 405 542ZM248 -140 271 -137 300 0H270L242 -132ZM476 73C433 47 375 29 320 29C216 29 165 95 165 193C165 366 284 510 426 510C479 510 526 495 552 472L569 512C535 535 480 547 431 547C264 547 121 378 121 180C121 59 192 -8 305 -8C361 -8 427 7 474 37ZM404 530ZM299 15Z" glyph-name="cent.sc" horiz-adv-x="516" /><glyph d="M341 500 369 632 363 640 340 637 311 500ZM183 -140 206 -137 235 0H205L177 -132ZM382 119C338 64 288 26 229 26C154 26 118 87 118 172C118 317 224 469 333 469C373 469 404 449 427 422L444 463C420 486 389 505 343 505C203 505 75 340 75 168C75 54 132 -10 219 -10C282 -10 347 23 400 106ZM299 495ZM231 0Z" glyph-name="cent.tf" horiz-adv-x="520" /><glyph d="M417 542 445 674 439 682 416 679 387 542ZM230 -140 253 -137 282 0H252L224 -132ZM458 73C415 47 357 29 302 29C198 29 147 95 147 193C147 366 266 510 408 510C461 510 508 495 534 472L551 512C517 535 462 547 413 547C246 547 103 378 103 180C103 59 174 -8 287 -8C343 -8 409 7 456 37ZM386 530ZM281 15Z" glyph-name="cent.tf.sc" horiz-adv-x="520" /><glyph d="M374 519 407 671 400 679 378 676 344 519ZM192 -140 215 -137 244 0H214L186 -132ZM459 497C437 522 407 539 361 539C213 539 83 371 83 179C83 46 145 -10 225 -10C296 -10 361 33 408 106L390 119C360 79 303 26 235 26C166 26 128 82 128 186C128 356 231 503 351 503C396 503 424 482 442 456Z" glyph-name="cent.tosf" horiz-adv-x="520" /><glyph d="M155 601C208 636 255 674 303 726H265C290 675 320 638 360 601L372 611C343 659 323 703 307 751L269 745C231 697 197 660 147 611Z" glyph-name="circumflex" horiz-adv-x="365" unicode="&#710;" /><glyph d="M188 756C238 781 284 810 332 847H294C324 810 360 779 399 756L411 766C381 800 356 833 334 866L297 860C245 815 227 802 180 766ZM307 866ZM269 685Z" glyph-name="circumflex.case" horiz-adv-x="371" /><glyph d="M155 601C208 636 255 674 303 726H265C290 675 320 638 360 601L372 611C343 659 323 703 307 751L269 745C231 697 197 660 147 611ZM275 751ZM221 495Z" glyph-name="circumflexcomb" horiz-adv-x="365" unicode="&#770;" /><glyph d="M188 756C238 781 284 810 332 847H294C324 810 360 779 399 756L411 766C381 800 356 833 334 866L297 860C245 815 227 802 180 766ZM307 866ZM269 685Z" glyph-name="circumflexcomb.case" horiz-adv-x="371" /><glyph d="M228 473C228 491 216 505 196 505C169 505 141 477 141 448C141 428 156 415 174 415C201 415 228 444 228 473ZM138 48C138 67 125 80 106 80C79 80 51 52 51 23C51 3 66 -10 84 -10C111 -10 138 19 138 48Z" glyph-name="colon" horiz-adv-x="174" unicode=":" /><glyph d="M-3 -180 7 -189C76 -116 136 -7 136 42C136 64 124 78 103 78C73 78 47 52 47 23C47 3 61 -10 83 -10C94 -10 107 -5 117 0L97 21C74 -59 35 -133 -3 -180Z" glyph-name="comma" horiz-adv-x="178" unicode="," /><glyph d="M268 784 259 793C207 755 151 667 151 624C151 605 163 594 183 594C209 594 235 622 235 649C235 668 221 679 200 679L199 647C208 686 241 751 268 784ZM171 511ZM231 793ZM231 793ZM167 495Z" glyph-name="commaabovecomb" horiz-adv-x="224" unicode="&#787;" /><glyph d="M-41 -273 -32 -282C20 -244 76 -156 76 -113C76 -94 64 -83 44 -83C18 -83 -8 -111 -8 -138C-8 -157 6 -168 27 -168L28 -136C19 -175 -14 -240 -41 -273ZM56 0ZM-4 -282Z" glyph-name="commaaccent" horiz-adv-x="224" /><glyph d="M-41 -273 -32 -282C20 -244 76 -156 76 -113C76 -94 64 -83 44 -83C18 -83 -8 -111 -8 -138C-8 -157 6 -168 27 -168L28 -136C19 -175 -14 -240 -41 -273ZM56 0ZM-4 -282Z" glyph-name="commaaccentcomb" horiz-adv-x="224" unicode="&#806;" /><glyph d="M336 -36C524 -36 692 137 692 311C692 442 598 536 461 536C275 536 106 363 106 187C106 57 198 -36 336 -36ZM343 0C224 0 143 80 143 195C143 350 291 500 452 500C572 500 655 415 655 301C655 148 505 0 343 0ZM512 379C494 398 466 408 435 408C346 408 268 324 268 217C268 141 307 100 364 100C411 100 462 128 494 175L478 187C459 164 422 131 379 131C332 131 306 169 306 228C306 312 360 377 426 377C457 377 479 363 494 346ZM411 446ZM329 60Z" glyph-name="copyright" horiz-adv-x="692" unicode="&#169;" /><glyph d="M539 467 520 490 404 393 422 370ZM427 48 456 67V71C452 79 391 157 383 168L354 144ZM131 169 16 74 34 51 150 145ZM206 393C182 423 149 464 128 490L103 469L179 370ZM313 446C193 446 89 342 89 229C89 152 138 94 228 94C348 94 452 197 452 310C452 387 403 446 313 446ZM302 414C370 414 412 371 412 301C412 207 337 126 241 126C164 126 129 178 129 239C129 332 209 414 302 414Z" glyph-name="currency" horiz-adv-x="547" unicode="&#164;" /><glyph d="M539 467 520 490 404 393 422 370ZM427 48 456 67V71C452 79 391 157 383 168L354 144ZM131 169 16 74 34 51 150 145ZM206 393C182 423 149 464 128 490L103 469L179 370ZM313 446C193 446 89 342 89 229C89 152 138 94 228 94C348 94 452 197 452 310C452 387 403 446 313 446ZM302 414C370 414 412 371 412 301C412 207 337 126 241 126C164 126 129 178 129 239C129 332 209 414 302 414Z" glyph-name="currency.lf" horiz-adv-x="547" /><glyph d="M551 467 532 490 416 393 434 370ZM439 48 468 67V71C464 79 403 157 395 168L366 144ZM143 169 28 74 46 51 162 145ZM218 393C194 423 161 464 140 490L115 469L191 370ZM325 446C205 446 101 342 101 229C101 152 150 94 240 94C360 94 464 197 464 310C464 387 415 446 325 446ZM314 414C382 414 424 371 424 301C424 207 349 126 253 126C176 126 141 178 141 239C141 332 221 414 314 414Z" glyph-name="currency.osf" horiz-adv-x="571" /><glyph d="M539 467 520 490 404 393 422 370ZM427 48 456 67V71C452 79 391 157 383 168L354 144ZM131 169 16 74 34 51 150 145ZM206 393C182 423 149 464 128 490L103 469L179 370ZM313 446C193 446 89 342 89 229C89 152 138 94 228 94C348 94 452 197 452 310C452 387 403 446 313 446ZM302 414C370 414 412 371 412 301C412 207 337 126 241 126C164 126 129 178 129 239C129 332 209 414 302 414Z" glyph-name="currency.sc" horiz-adv-x="547" /><glyph d="M540 536 521 559 405 462 423 439ZM428 117 457 136V140C453 148 392 226 384 237L355 213ZM132 238 17 143 35 120 151 214ZM207 462C183 492 150 533 129 559L104 538L180 439ZM314 515C194 515 90 411 90 298C90 221 139 163 229 163C349 163 453 266 453 379C453 456 404 515 314 515ZM303 483C371 483 413 440 413 370C413 276 338 195 242 195C165 195 130 247 130 308C130 401 210 483 303 483Z" glyph-name="currency.tf" horiz-adv-x="520" /><glyph d="M513 467 494 490 378 393 396 370ZM401 48 430 67V71C426 79 365 157 357 168L328 144ZM105 169 -10 74 8 51 124 145ZM180 393C156 423 123 464 102 490L77 469L153 370ZM287 446C167 446 63 342 63 229C63 152 112 94 202 94C322 94 426 197 426 310C426 387 377 446 287 446ZM276 414C344 414 386 371 386 301C386 207 311 126 215 126C138 126 103 178 103 239C103 332 183 414 276 414Z" glyph-name="currency.tf.sc" horiz-adv-x="520" /><glyph d="M525 467 506 490 390 393 408 370ZM413 48 442 67V71C438 79 377 157 369 168L340 144ZM117 169 2 74 20 51 136 145ZM192 393C168 423 135 464 114 490L89 469L165 370ZM299 446C179 446 75 342 75 229C75 152 124 94 214 94C334 94 438 197 438 310C438 387 389 446 299 446ZM288 414C356 414 398 371 398 301C398 207 323 126 227 126C150 126 115 178 115 239C115 332 195 414 288 414Z" glyph-name="currency.tosf" horiz-adv-x="520" /><glyph d="M376 0C376 209 503 563 503 755L454 745L446 609L397 380C350 161 336 72 336 0ZM360 505C185 505 52 313 52 132C52 32 93 -10 143 -10C275 -10 367 223 405 339L402 403C380 299 253 26 155 26C116 26 95 68 95 137C95 297 209 469 337 469C361 469 402 463 433 451L463 490C426 501 385 505 360 505ZM203 0ZM309 495ZM596 495ZM406 615Z" glyph-name="d" horiz-adv-x="509" unicode="d" /><glyph d="M297 -70C293 93 396 369 393 519L350 511L346 405L308 226C274 67 260 -12 262 -70ZM284 324C129 324 15 178 15 39C15 -44 53 -78 94 -78C202 -78 284 100 315 190L311 243C294 161 190 -46 106 -46C72 -46 53 -12 53 44C53 165 147 294 269 294C288 294 312 290 337 279L363 311C334 321 305 324 284 324ZM148 -70ZM230 316ZM478 316ZM312 410Z" glyph-name="d.inferior" horiz-adv-x="429" /><glyph d="M124 0 239 539H193C188 497 183 465 174 422L84 0ZM570 335C570 465 472 539 342 539H216L208 505H328C451 505 526 440 526 330C526 163 397 34 230 34H113L106 0H224C413 0 570 152 570 335ZM215 264ZM283 15ZM403 530Z" glyph-name="d.sc" horiz-adv-x="580" /><glyph d="M373 290C369 453 472 729 469 879L426 871L422 765L384 586C350 427 336 348 338 290ZM360 684C205 684 91 538 91 399C91 316 129 282 170 282C278 282 360 460 391 550L387 603C370 521 266 314 182 314C148 314 129 348 129 404C129 525 223 654 345 654C364 654 388 650 413 639L439 671C410 681 381 684 360 684ZM224 290ZM306 676ZM554 676ZM388 770Z" glyph-name="d.superior" horiz-adv-x="429" /><glyph d="M317 485 210 4 216 -3 244 0 248 3 345 485ZM345 485 394 688 388 695C375 695 373 694 359 692L356 689L317 485ZM334 499 151 504 143 497C141 488 140 477 140 469L142 466L328 471ZM328 471 511 466 520 473C522 483 523 494 523 501L520 504L334 499Z" glyph-name="dagger" horiz-adv-x="562" unicode="&#8224;" /><glyph d="M345 480 393 684 388 691C374 691 373 690 359 688L355 685L317 480ZM328 466 334 494 151 499 142 492C141 486 140 479 139 464L142 461ZM519 468C523 484 521 481 522 496L520 499L334 494L328 466L511 461ZM260 205H284C299 254 314 311 321 344C327 374 337 431 343 480H319C305 434 288 369 282 340C276 310 266 249 260 205ZM269 191 275 219 92 224 84 217C81 203 82 204 81 189L83 186ZM461 193C463 204 463 206 464 221L461 224L275 219L269 191L452 186ZM244 -3 248 0 286 205H258L210 1L216 -6C228 -6 231 -5 244 -3Z" glyph-name="daggerdbl" horiz-adv-x="563" unicode="&#8225;" /><glyph d="M376 0C376 209 503 563 503 755L454 745L446 609L397 380C350 161 336 72 336 0ZM360 505C185 505 52 313 52 132C52 32 93 -10 143 -10C275 -10 367 223 405 339L402 403C380 299 253 26 155 26C116 26 95 68 95 137C95 297 209 469 337 469C361 469 402 463 433 451L463 490C426 501 385 505 360 505ZM203 0ZM309 495ZM596 495ZM406 615ZM656 758H613C585 687 558 631 532 579H550C587 629 625 690 660 753ZM596 495Z" glyph-name="dcaron" horiz-adv-x="509" unicode="&#271;" /><glyph d="M124 0 239 539H193C188 497 183 465 174 422L84 0ZM570 335C570 465 472 539 342 539H216L208 505H328C451 505 526 440 526 330C526 163 397 34 230 34H113L106 0H224C413 0 570 152 570 335ZM215 264ZM283 15ZM403 530ZM546 786C493 751 446 713 398 661H436C411 712 381 749 341 786L329 776C358 728 378 684 394 636L432 642C470 690 504 727 554 776ZM457 786ZM403 530Z" glyph-name="dcaron.sc" horiz-adv-x="580" /><glyph d="M376 0C376 209 503 563 503 755L454 745L446 609L397 380C350 161 336 72 336 0ZM360 505C185 505 52 313 52 132C52 32 93 -10 143 -10C275 -10 367 223 405 339L402 403C380 299 253 26 155 26C116 26 95 68 95 137C95 297 209 469 337 469C361 469 402 463 433 451L463 490C426 501 385 505 360 505ZM203 0ZM309 495ZM596 495ZM406 615ZM583 600 589 630H229L223 600ZM406 615Z" glyph-name="dcroat" horiz-adv-x="509" unicode="&#273;" /><glyph d="M124 0 239 539H193C188 497 183 465 174 422L84 0ZM570 335C570 465 472 539 342 539H216L208 505H328C451 505 526 440 526 330C526 163 397 34 230 34H113L106 0H224C413 0 570 152 570 335ZM215 264ZM283 15ZM403 530ZM365.3 249 370.4 279H64.4L59.3 249ZM214.85 264Z" glyph-name="dcroat.sc" horiz-adv-x="580" /><glyph d="M376 0C376 209 503 563 503 755L454 745L446 609L397 380C350 161 336 72 336 0ZM360 505C185 505 52 313 52 132C52 32 93 -10 143 -10C275 -10 367 223 405 339L402 403C380 299 253 26 155 26C116 26 95 68 95 137C95 297 209 469 337 469C361 469 402 463 433 451L463 490C426 501 385 505 360 505ZM203 0ZM309 495ZM596 495ZM406 615ZM216 -182C216 -165 208 -154 191 -154C166 -154 142 -185 142 -214C142 -231 151 -244 168 -244C198 -244 216 -209 216 -182ZM204 -105ZM148 -365ZM203 0ZM174 -135Z" glyph-name="ddotbelow" horiz-adv-x="509" unicode="&#7693;" /><glyph d="M124 0 239 539H193C188 497 183 465 174 422L84 0ZM570 335C570 465 472 539 342 539H216L208 505H328C451 505 526 440 526 330C526 163 397 34 230 34H113L106 0H224C413 0 570 152 570 335ZM215 264ZM283 15ZM403 530ZM296 -167C296 -150 288 -139 271 -139C246 -139 222 -170 222 -199C222 -216 231 -229 248 -229C278 -229 296 -194 296 -167ZM284 -90ZM228 -350ZM283 15ZM254 -120Z" glyph-name="ddotbelow.sc" horiz-adv-x="580" /><glyph d="M188 310C265 310 338 384 338 459C338 512 302 545 249 545C171 545 99 472 99 397C99 343 137 310 188 310ZM238 510C272 510 299 489 299 448C299 395 252 345 199 345C162 345 138 370 138 408C138 460 185 510 238 510Z" glyph-name="degree" horiz-adv-x="371" unicode="&#176;" /><glyph d="M260 460C337 460 410 534 410 609C410 662 374 695 321 695C243 695 171 622 171 547C171 493 209 460 260 460ZM310 660C344 660 371 639 371 598C371 545 324 495 271 495C234 495 210 520 210 558C210 610 257 660 310 660Z" glyph-name="degree.lf" horiz-adv-x="451" /><glyph d="M188 310C265 310 338 384 338 459C338 512 302 545 249 545C171 545 99 472 99 397C99 343 137 310 188 310ZM238 510C272 510 299 489 299 448C299 395 252 345 199 345C162 345 138 370 138 408C138 460 185 510 238 510Z" glyph-name="degree.osf" horiz-adv-x="371" /><glyph d="M228 310C305 310 378 384 378 459C378 512 342 545 289 545C211 545 139 472 139 397C139 343 177 310 228 310ZM278 510C312 510 339 489 339 448C339 395 292 345 239 345C202 345 178 370 178 408C178 460 225 510 278 510Z" glyph-name="degree.sc" horiz-adv-x="451" /><glyph d="M234 665C238 687 228 704 207 704C185 704 163 685 158 661C153 638 167 622 186 622C206 622 229 640 234 665ZM418 665C422 687 412 704 391 704C369 704 347 685 342 661C337 638 351 622 370 622C390 622 413 640 418 665ZM297 704ZM252 495Z" glyph-name="dieresis" horiz-adv-x="360" unicode="&#168;" /><glyph d="M267 823C267 839 256 852 238 852C213 852 188 826 188 800C188 782 202 770 218 770C242 770 267 796 267 823ZM477 823C477 839 466 852 448 852C423 852 398 826 398 800C398 782 412 770 428 770C452 770 477 796 477 823ZM341 852ZM306 685Z" glyph-name="dieresis.case" horiz-adv-x="426" /><glyph d="M234 665C238 687 228 704 207 704C185 704 163 685 158 661C153 638 167 622 186 622C206 622 229 640 234 665ZM418 665C422 687 412 704 391 704C369 704 347 685 342 661C337 638 351 622 370 622C390 622 413 640 418 665ZM297 704ZM252 495Z" glyph-name="dieresiscomb" horiz-adv-x="399" unicode="&#776;" /><glyph d="M267 823C267 839 256 852 238 852C213 852 188 826 188 800C188 782 202 770 218 770C242 770 267 796 267 823ZM477 823C477 839 466 852 448 852C423 852 398 826 398 800C398 782 412 770 428 770C452 770 477 796 477 823ZM341 852ZM306 685Z" glyph-name="dieresiscomb.case" horiz-adv-x="426" /><glyph d="M485 253 496 288 493 293C387 293 145 291 42 288L35 253ZM352 472C352 491 340 503 323 503C294 503 265 474 265 445C265 428 276 415 295 415C324 415 352 444 352 472ZM274 100C274 119 262 131 245 131C216 131 187 102 187 73C187 56 198 43 217 43C246 43 274 72 274 100Z" glyph-name="divide" horiz-adv-x="520" unicode="&#247;" /><glyph d="M501 328 512 363 509 368C403 368 161 366 58 363L51 328ZM368 547C368 566 356 578 339 578C310 578 281 549 281 520C281 503 292 490 311 490C340 490 368 519 368 547ZM290 175C290 194 278 206 261 206C232 206 203 177 203 148C203 131 214 118 233 118C262 118 290 147 290 175Z" glyph-name="divide.lf" horiz-adv-x="520" /><glyph d="M501 328 512 363 509 368C403 368 161 366 58 363L51 328ZM368 547C368 566 356 578 339 578C310 578 281 549 281 520C281 503 292 490 311 490C340 490 368 519 368 547ZM290 175C290 194 278 206 261 206C232 206 203 177 203 148C203 131 214 118 233 118C262 118 290 147 290 175Z" glyph-name="divide.osf" horiz-adv-x="520" /><glyph d="M485 253 496 288 493 293C387 293 145 291 42 288L35 253ZM352 472C352 491 340 503 323 503C294 503 265 474 265 445C265 428 276 415 295 415C324 415 352 444 352 472ZM274 100C274 119 262 131 245 131C216 131 187 102 187 73C187 56 198 43 217 43C246 43 274 72 274 100Z" glyph-name="divide.sc" horiz-adv-x="600" /><glyph d="M343 685 371 817 365 825 342 822 313 685ZM136 -140 159 -137 188 0H158L130 -132ZM382 185C382 350 172 364 172 508C172 591 241 657 343 657C378 657 426 649 464 619L481 662C450 682 400 695 352 695C228 695 126 610 126 500C126 341 337 327 337 173C337 80 260 28 166 28C129 28 73 36 30 68L13 25C59 -2 114 -10 154 -10C279 -10 382 69 382 185Z" glyph-name="dollar" horiz-adv-x="460" unicode="$" /><glyph d="M343 685 371 817 365 825 342 822 313 685ZM136 -140 159 -137 188 0H158L130 -132ZM382 185C382 350 172 364 172 508C172 591 241 657 343 657C378 657 426 649 464 619L481 662C450 682 400 695 352 695C228 695 126 610 126 500C126 341 337 327 337 173C337 80 260 28 166 28C129 28 73 36 30 68L13 25C59 -2 114 -10 154 -10C279 -10 382 69 382 185Z" glyph-name="dollar.lf" horiz-adv-x="460" /><glyph d="M355 539 383 671 376 679 354 676 325 539ZM168 -140 191 -137 220 0H190L162 -132ZM403 156C403 280 186 284 186 393C186 462 254 511 344 511C377 511 424 504 460 481L476 521C446 537 397 547 353 547C236 547 144 474 144 382C144 256 361 256 361 146C361 77 295 28 204 28C170 28 115 35 74 60L58 20C102 -1 154 -8 191 -8C310 -8 403 64 403 156ZM326 530ZM217 15Z" glyph-name="dollar.osf" horiz-adv-x="427" /><glyph d="M314 542 342 674 336 682 313 679 284 542ZM127 -140 150 -137 179 0H149L121 -132ZM357 156C357 280 140 284 140 393C140 462 208 511 298 511C331 511 378 504 414 481L430 521C400 537 351 547 307 547C190 547 98 474 98 382C98 256 315 256 315 146C315 77 249 28 158 28C124 28 69 35 28 60L12 20C56 -1 108 -8 145 -8C264 -8 357 64 357 156ZM280 530ZM171 15Z" glyph-name="dollar.sc" horiz-adv-x="439" /><glyph d="M373 685 401 817 395 825 372 822 343 685ZM166 -140 189 -137 218 0H188L160 -132ZM412 185C412 350 202 364 202 508C202 591 271 657 373 657C408 657 456 649 494 619L511 662C480 682 430 695 382 695C258 695 156 610 156 500C156 341 367 327 367 173C367 80 290 28 196 28C159 28 103 36 60 68L43 25C89 -2 144 -10 184 -10C309 -10 412 69 412 185Z" glyph-name="dollar.tf" horiz-adv-x="520" /><glyph d="M355 542 383 674 377 682 354 679 325 542ZM168 -140 191 -137 220 0H190L162 -132ZM398 156C398 280 181 284 181 393C181 462 249 511 339 511C372 511 419 504 455 481L471 521C441 537 392 547 348 547C231 547 139 474 139 382C139 256 356 256 356 146C356 77 290 28 199 28C165 28 110 35 69 60L53 20C97 -1 149 -8 186 -8C305 -8 398 64 398 156ZM321 530ZM212 15Z" glyph-name="dollar.tf.sc" horiz-adv-x="520" /><glyph d="M349 539 377 671 370 679 348 676 319 539ZM162 -140 185 -137 214 0H184L156 -132ZM397 156C397 280 180 284 180 393C180 462 248 511 338 511C371 511 418 504 454 481L470 521C440 537 391 547 347 547C230 547 138 474 138 382C138 256 355 256 355 146C355 77 289 28 198 28C164 28 109 35 68 60L52 20C96 -1 148 -8 185 -8C304 -8 397 64 397 156ZM320 530ZM211 15Z" glyph-name="dollar.tosf" horiz-adv-x="520" /><glyph d="M225 678C225 695 217 706 200 706C175 706 151 675 151 646C151 629 160 616 177 616C207 616 225 651 225 678Z" glyph-name="dotaccent" horiz-adv-x="210" unicode="&#729;" /><glyph d="M260 814C260 830 250 840 233 840C209 840 186 814 186 788C186 772 196 760 213 760C238 760 260 787 260 814Z" glyph-name="dotaccent.case" horiz-adv-x="211" /><glyph d="M225 678C225 695 217 706 200 706C175 706 151 675 151 646C151 629 160 616 177 616C207 616 225 651 225 678ZM213 755ZM157 495Z" glyph-name="dotaccentcomb" horiz-adv-x="210" unicode="&#775;" /><glyph d="M262 825C262 841 252 851 235 851C211 851 188 825 188 799C188 783 198 771 215 771C240 771 262 798 262 825ZM234 851ZM198 685Z" glyph-name="dotaccentcomb.case" horiz-adv-x="210" /><glyph d="M65 -182C65 -165 57 -154 40 -154C15 -154 -9 -185 -9 -214C-9 -231 0 -244 17 -244C47 -244 65 -209 65 -182ZM53 -105ZM-3 -365ZM52 0ZM23 -135Z" glyph-name="dotbelowcomb" horiz-adv-x="210" unicode="&#803;" /><glyph d="M111 0C111 161 185 356 185 505L136 495L128 359L108 267C85 161 71 72 71 0ZM180 10ZM137 0ZM149 495Z" glyph-name="dotlessi" horiz-adv-x="241" unicode="&#305;" /><glyph d="M124 0 239 542 235 547 193 539C188 496 181 459 173 421L84 0ZM154 15ZM104 15ZM214 530Z" glyph-name="dotlessi.sc" horiz-adv-x="208" /><glyph d="M-30 -203C22 -153 66 -90 85 0C156 336 179 418 179 505L130 495L122 359L45 0C26 -88 -15 -148 -45 -182ZM128 495ZM56 0Z" glyph-name="dotlessj" horiz-adv-x="218" unicode="&#567;" /><glyph d="M-9 -144C66 -112 112 -60 134 40L241 542L237 547L193 539C191 504 185 467 175 421L94 40C75 -48 31 -97 -18 -122ZM218 530ZM105 0Z" glyph-name="dotlessj.sc" horiz-adv-x="210" /><glyph d="M364 119C323 68 269 26 211 26C142 26 102 86 102 172C102 300 192 469 298 469C341 469 369 442 369 402C369 349 321 263 96 253L93 224C341 233 412 321 412 403C412 467 369 505 307 505C173 505 59 326 59 169C59 54 120 -10 203 -10C270 -10 341 32 382 106ZM286 10ZM184 0ZM273 495Z" glyph-name="e" horiz-adv-x="447" unicode="e" /><glyph d="M284 24C247 -17 199 -47 150 -47C93 -47 58 -1 58 68C58 177 145 294 231 294C264 294 283 276 283 248C283 204 242 135 51 124L49 101C252 109 321 185 321 250C321 295 290 324 237 324C130 324 20 199 20 67C20 -21 69 -78 144 -78C201 -78 264 -46 300 12ZM303 -62ZM131 -70ZM199 316Z" glyph-name="e.inferior" horiz-adv-x="379" /><glyph d="M124 0 239 539H193C188 497 183 465 174 422L84 0ZM487 539H238L231 506L483 502L491 534ZM401 286 183 284 177 252 393 250ZM393 37 130 33 123 0H385ZM388 15ZM339 530ZM130 530ZM241 15Z" glyph-name="e.sc" horiz-adv-x="423" /><glyph d="M361 384C324 343 276 313 227 313C170 313 135 359 135 428C135 537 222 654 308 654C341 654 360 636 360 608C360 564 319 495 128 484L126 461C329 469 398 545 398 610C398 655 367 684 314 684C207 684 97 559 97 427C97 339 146 282 221 282C278 282 341 314 377 372ZM380 298ZM208 290ZM276 676Z" glyph-name="e.superior" horiz-adv-x="380" /><glyph d="M364 119C323 68 269 26 211 26C142 26 102 86 102 172C102 300 192 469 298 469C341 469 369 442 369 402C369 349 321 263 96 253L93 224C341 233 412 321 412 403C412 467 369 505 307 505C173 505 59 326 59 169C59 54 120 -10 203 -10C270 -10 341 32 382 106ZM286 10ZM184 0ZM273 495ZM381 745 338 747C312 698 275 648 235 601L246 593C298 635 344 683 385 740ZM326 747ZM273 495Z" glyph-name="eacute" horiz-adv-x="447" unicode="&#233;" /><glyph d="M124 0 239 539H193C188 497 183 465 174 422L84 0ZM487 539H238L231 506L483 502L491 534ZM401 286 183 284 177 252 393 250ZM393 37 130 33 123 0H385ZM388 15ZM339 530ZM130 530ZM241 15ZM447 780 404 782C378 733 341 683 301 636L312 628C364 670 410 718 451 775ZM392 782ZM339 530Z" glyph-name="eacute.sc" horiz-adv-x="423" /><glyph d="M364 119C323 68 269 26 211 26C142 26 102 86 102 172C102 300 192 469 298 469C341 469 369 442 369 402C369 349 321 263 96 253L93 224C341 233 412 321 412 403C412 467 369 505 307 505C173 505 59 326 59 169C59 54 120 -10 203 -10C270 -10 341 32 382 106ZM286 10ZM184 0ZM273 495ZM294 607C354 607 407 654 427 730L405 726C383 673 350 646 306 646C265 646 241 669 242 724L219 720C206 646 243 607 294 607ZM323 730ZM273 495Z" glyph-name="ebreve" horiz-adv-x="447" unicode="&#277;" /><glyph d="M124 0 239 539H193C188 497 183 465 174 422L84 0ZM487 539H238L231 506L483 502L491 534ZM401 286 183 284 177 252 393 250ZM393 37 130 33 123 0H385ZM388 15ZM339 530ZM130 530ZM241 15ZM360 642C420 642 473 689 493 765L471 761C449 708 416 681 372 681C331 681 307 704 308 759L285 755C272 681 309 642 360 642ZM389 765ZM339 530Z" glyph-name="ebreve.sc" horiz-adv-x="423" /><glyph d="M364 119C323 68 269 26 211 26C142 26 102 86 102 172C102 300 192 469 298 469C341 469 369 442 369 402C369 349 321 263 96 253L93 224C341 233 412 321 412 403C412 467 369 505 307 505C173 505 59 326 59 169C59 54 120 -10 203 -10C270 -10 341 32 382 106ZM286 10ZM184 0ZM273 495ZM416 751C363 716 316 678 268 626H306C281 677 251 714 211 751L199 741C228 693 248 649 264 601L302 607C340 655 374 692 424 741ZM327 751ZM273 495Z" glyph-name="ecaron" horiz-adv-x="447" unicode="&#283;" /><glyph d="M124 0 239 539H193C188 497 183 465 174 422L84 0ZM487 539H238L231 506L483 502L491 534ZM401 286 183 284 177 252 393 250ZM393 37 130 33 123 0H385ZM388 15ZM339 530ZM130 530ZM241 15ZM482 786C429 751 382 713 334 661H372C347 712 317 749 277 786L265 776C294 728 314 684 330 636L368 642C406 690 440 727 490 776ZM393 786ZM339 530Z" glyph-name="ecaron.sc" horiz-adv-x="423" /><glyph d="M364 119C323 68 269 26 211 26C142 26 102 86 102 172C102 300 192 469 298 469C341 469 369 442 369 402C369 349 321 263 96 253L93 224C341 233 412 321 412 403C412 467 369 505 307 505C173 505 59 326 59 169C59 54 120 -10 203 -10C270 -10 341 32 382 106ZM286 10ZM184 0ZM273 495ZM207 601C260 636 307 674 355 726H317C342 675 372 638 412 601L424 611C395 659 375 703 359 751L321 745C283 697 249 660 199 611ZM327 751ZM273 495Z" glyph-name="ecircumflex" horiz-adv-x="447" unicode="&#234;" /><glyph d="M124 0 239 539H193C188 497 183 465 174 422L84 0ZM487 539H238L231 506L483 502L491 534ZM401 286 183 284 177 252 393 250ZM393 37 130 33 123 0H385ZM388 15ZM339 530ZM130 530ZM241 15ZM273 636C326 671 373 709 421 761H383C408 710 438 673 478 636L490 646C461 694 441 738 425 786L387 780C349 732 315 695 265 646ZM393 786ZM339 530Z" glyph-name="ecircumflex.sc" horiz-adv-x="423" /><glyph d="M364 119C323 68 269 26 211 26C142 26 102 86 102 172C102 300 192 469 298 469C341 469 369 442 369 402C369 349 321 263 96 253L93 224C341 233 412 321 412 403C412 467 369 505 307 505C173 505 59 326 59 169C59 54 120 -10 203 -10C270 -10 341 32 382 106ZM286 10ZM184 0ZM273 495ZM255 665C259 687 249 704 228 704C206 704 184 685 179 661C174 638 188 622 207 622C227 622 250 640 255 665ZM439 665C443 687 433 704 412 704C390 704 368 685 363 661C358 638 372 622 391 622C411 622 434 640 439 665ZM318 704ZM273 495Z" glyph-name="edieresis" horiz-adv-x="447" unicode="&#235;" /><glyph d="M124 0 239 539H193C188 497 183 465 174 422L84 0ZM487 539H238L231 506L483 502L491 534ZM401 286 183 284 177 252 393 250ZM393 37 130 33 123 0H385ZM388 15ZM339 530ZM130 530ZM241 15ZM321 700C325 722 315 739 294 739C272 739 250 720 245 696C240 673 254 657 273 657C293 657 316 675 321 700ZM505 700C509 722 499 739 478 739C456 739 434 720 429 696C424 673 438 657 457 657C477 657 500 675 505 700ZM384 739ZM339 530Z" glyph-name="edieresis.sc" horiz-adv-x="423" /><glyph d="M364 119C323 68 269 26 211 26C142 26 102 86 102 172C102 300 192 469 298 469C341 469 369 442 369 402C369 349 321 263 96 253L93 224C341 233 412 321 412 403C412 467 369 505 307 505C173 505 59 326 59 169C59 54 120 -10 203 -10C270 -10 341 32 382 106ZM286 10ZM184 0ZM273 495ZM341 678C341 695 333 706 316 706C291 706 267 675 267 646C267 629 276 616 293 616C323 616 341 651 341 678ZM329 755ZM273 495Z" glyph-name="edotaccent" horiz-adv-x="447" unicode="&#279;" /><glyph d="M124 0 239 539H193C188 497 183 465 174 422L84 0ZM487 539H238L231 506L483 502L491 534ZM401 286 183 284 177 252 393 250ZM393 37 130 33 123 0H385ZM388 15ZM339 530ZM130 530ZM241 15ZM407 713C407 730 399 741 382 741C357 741 333 710 333 681C333 664 342 651 359 651C389 651 407 686 407 713ZM395 790ZM339 530Z" glyph-name="edotaccent.sc" horiz-adv-x="423" /><glyph d="M364 119C323 68 269 26 211 26C142 26 102 86 102 172C102 300 192 469 298 469C341 469 369 442 369 402C369 349 321 263 96 253L93 224C341 233 412 321 412 403C412 467 369 505 307 505C173 505 59 326 59 169C59 54 120 -10 203 -10C270 -10 341 32 382 106ZM286 10ZM184 0ZM273 495ZM197 -182C197 -165 189 -154 172 -154C147 -154 123 -185 123 -214C123 -231 132 -244 149 -244C179 -244 197 -209 197 -182ZM185 -105ZM129 -365ZM184 0ZM155 -135Z" glyph-name="edotbelow" horiz-adv-x="447" unicode="&#7865;" /><glyph d="M124 0 239 539H193C188 497 183 465 174 422L84 0ZM487 539H238L231 506L483 502L491 534ZM401 286 183 284 177 252 393 250ZM393 37 130 33 123 0H385ZM388 15ZM339 530ZM130 530ZM241 15ZM254 -167C254 -150 246 -139 229 -139C204 -139 180 -170 180 -199C180 -216 189 -229 206 -229C236 -229 254 -194 254 -167ZM242 -90ZM186 -350ZM241 15ZM212 -120Z" glyph-name="edotbelow.sc" horiz-adv-x="423" /><glyph d="M364 119C323 68 269 26 211 26C142 26 102 86 102 172C102 300 192 469 298 469C341 469 369 442 369 402C369 349 321 263 96 253L93 224C341 233 412 321 412 403C412 467 369 505 307 505C173 505 59 326 59 169C59 54 120 -10 203 -10C270 -10 341 32 382 106ZM286 10ZM184 0ZM273 495ZM334 593 347 601C327 648 312 698 306 747L263 745L257 740C274 683 300 635 334 593ZM273 747ZM273 495Z" glyph-name="egrave" horiz-adv-x="447" unicode="&#232;" /><glyph d="M124 0 239 539H193C188 497 183 465 174 422L84 0ZM487 539H238L231 506L483 502L491 534ZM401 286 183 284 177 252 393 250ZM393 37 130 33 123 0H385ZM388 15ZM339 530ZM130 530ZM241 15ZM400 628 413 636C393 683 378 733 372 782L329 780L323 775C340 718 366 670 400 628ZM339 782ZM339 530Z" glyph-name="egrave.sc" horiz-adv-x="423" /><glyph d="M259 333C344 282 404 244 404 173C404 85 312 25 201 25C110 25 58 65 58 130C58 224 167 286 259 333ZM341 657C421 657 467 619 467 559C467 472 369 413 284 371C210 417 159 454 159 517C159 597 240 657 341 657ZM15 124C15 39 84 -11 192 -11C327 -11 447 67 447 182C447 266 384 309 315 353V354C403 397 509 462 509 565C509 643 447 693 348 693C225 693 116 615 116 507C116 435 165 394 229 352V351C130 303 15 234 15 124Z" glyph-name="eight" horiz-adv-x="540" unicode="8" /><glyph d="M223 178C274 153 316 124 316 85C316 45 271 9 200 9C138 9 104 36 104 72C104 121 170 160 223 178ZM265 376C314 376 350 352 350 314C350 273 306 233 240 209C197 229 165 261 165 298C165 346 212 376 265 376ZM195 -18C287 -18 355 29 355 88C355 135 313 171 269 193V194C340 221 388 269 388 318C388 369 340 404 273 404C196 404 126 357 126 293C126 249 160 217 199 194V193C113 164 65 116 65 67C65 17 116 -18 195 -18Z" glyph-name="eight.denominator" horiz-adv-x="385" /><glyph d="M256 325C337 287 403 243 403 174C403 97 320 26 205 26C117 26 57 67 57 129C57 200 135 277 256 325ZM332 659C412 659 464 616 464 552C464 473 389 407 282 364C210 398 157 448 157 514C157 595 235 659 332 659ZM198 -10C342 -10 446 81 446 178C446 253 383 311 311 345L312 346C427 389 507 468 507 557C507 640 436 695 340 695C220 695 114 609 114 504C114 432 165 379 226 344V343C99 291 14 208 14 123C14 43 89 -10 198 -10Z" glyph-name="eight.lf" horiz-adv-x="539" /><glyph d="M287 480C338 455 380 426 380 387C380 347 335 311 264 311C202 311 168 338 168 374C168 423 234 462 287 480ZM329 678C378 678 414 654 414 616C414 575 370 535 304 511C261 531 229 563 229 600C229 648 276 678 329 678ZM259 284C351 284 419 331 419 390C419 437 377 473 333 495V496C404 523 452 571 452 620C452 671 404 706 337 706C260 706 190 659 190 595C190 551 224 519 263 496V495C177 466 129 418 129 369C129 319 180 284 259 284Z" glyph-name="eight.numerator" horiz-adv-x="385" /><glyph d="M259 333C344 282 404 244 404 173C404 85 312 25 201 25C110 25 58 65 58 130C58 224 167 286 259 333ZM341 657C421 657 467 619 467 559C467 472 369 413 284 371C210 417 159 454 159 517C159 597 240 657 341 657ZM15 124C15 39 84 -11 192 -11C327 -11 447 67 447 182C447 266 384 309 315 353V354C403 397 509 462 509 565C509 643 447 693 348 693C225 693 116 615 116 507C116 435 165 394 229 352V351C130 303 15 234 15 124Z" glyph-name="eight.osf" horiz-adv-x="540" /><glyph d="M216 254C289 219 339 184 339 133C339 72 269 24 173 24C90 24 50 60 50 106C50 162 108 215 216 254ZM272 515C345 515 385 479 385 432C385 377 331 325 236 290C179 316 129 363 129 415C129 476 197 515 272 515ZM167 -8C292 -8 379 58 379 135C379 195 325 243 265 272V273C361 308 425 370 425 436C425 499 367 547 276 547C178 547 89 491 89 412C89 354 136 301 187 272V271C76 230 9 169 9 100C9 38 63 -8 167 -8Z" glyph-name="eight.sc" horiz-adv-x="480" /><glyph d="M265 325C346 287 412 243 412 174C412 97 329 26 214 26C126 26 66 67 66 129C66 200 144 277 265 325ZM341 659C421 659 473 616 473 552C473 473 398 407 291 364C219 398 166 448 166 514C166 595 244 659 341 659ZM207 -10C351 -10 455 81 455 178C455 253 392 311 320 345L321 346C436 389 516 468 516 557C516 640 445 695 349 695C229 695 123 609 123 504C123 432 174 379 235 344V343C108 291 23 208 23 123C23 43 98 -10 207 -10Z" glyph-name="eight.tf" horiz-adv-x="520" /><glyph d="M254 254C327 219 377 184 377 133C377 72 307 24 211 24C128 24 88 60 88 106C88 162 146 215 254 254ZM310 515C383 515 423 479 423 432C423 377 369 325 274 290C217 316 167 363 167 415C167 476 235 515 310 515ZM205 -8C330 -8 417 58 417 135C417 195 363 243 303 272V273C399 308 463 370 463 436C463 499 405 547 314 547C216 547 127 491 127 412C127 354 174 301 225 272V271C114 230 47 169 47 100C47 38 101 -8 205 -8Z" glyph-name="eight.tf.sc" horiz-adv-x="520" /><glyph d="M267 333C352 282 412 244 412 173C412 85 320 25 209 25C118 25 66 65 66 130C66 224 175 286 267 333ZM349 657C429 657 475 619 475 559C475 472 377 413 292 371C218 417 167 454 167 517C167 597 248 657 349 657ZM23 124C23 39 92 -11 200 -11C335 -11 455 67 455 182C455 266 392 309 323 353V354C411 397 517 462 517 565C517 643 455 693 356 693C233 693 124 615 124 507C124 435 173 394 237 352V351C138 303 23 234 23 124Z" glyph-name="eight.tosf" horiz-adv-x="520" /><glyph d="M210 116C261 91 303 62 303 23C303 -17 258 -53 187 -53C125 -53 91 -26 91 10C91 59 157 98 210 116ZM252 314C301 314 337 290 337 252C337 211 293 171 227 147C184 167 152 199 152 236C152 284 199 314 252 314ZM182 -80C274 -80 342 -33 342 26C342 73 300 109 256 131V132C327 159 375 207 375 256C375 307 327 342 260 342C183 342 113 295 113 231C113 187 147 155 186 132V131C100 102 52 54 52 5C52 -45 103 -80 182 -80Z" glyph-name="eightinferior" horiz-adv-x="385" unicode="&#8328;" /><glyph d="M300 540C351 515 393 486 393 447C393 407 348 371 277 371C215 371 181 398 181 434C181 483 247 522 300 540ZM342 738C391 738 427 714 427 676C427 635 383 595 317 571C274 591 242 623 242 660C242 708 289 738 342 738ZM272 344C364 344 432 391 432 450C432 497 390 533 346 555V556C417 583 465 631 465 680C465 731 417 766 350 766C273 766 203 719 203 655C203 611 237 579 276 556V555C190 526 142 478 142 429C142 379 193 344 272 344Z" glyph-name="eightsuperior" horiz-adv-x="385" unicode="&#8312;" /><glyph d="M138 48C138 67 125 80 106 80C79 80 51 52 51 23C51 3 66 -10 84 -10C111 -10 138 19 138 48ZM267 48C267 67 254 80 235 80C208 80 180 52 180 23C180 3 195 -10 213 -10C240 -10 267 19 267 48ZM396 48C396 67 383 80 364 80C337 80 309 52 309 23C309 3 324 -10 342 -10C369 -10 396 19 396 48Z" glyph-name="ellipsis" horiz-adv-x="432" unicode="&#8230;" /><glyph d="M364 119C323 68 269 26 211 26C142 26 102 86 102 172C102 300 192 469 298 469C341 469 369 442 369 402C369 349 321 263 96 253L93 224C341 233 412 321 412 403C412 467 369 505 307 505C173 505 59 326 59 169C59 54 120 -10 203 -10C270 -10 341 32 382 106ZM286 10ZM184 0ZM273 495ZM203 650H408L415 683H210ZM313 683ZM273 495Z" glyph-name="emacron" horiz-adv-x="447" unicode="&#275;" /><glyph d="M124 0 239 539H193C188 497 183 465 174 422L84 0ZM487 539H238L231 506L483 502L491 534ZM401 286 183 284 177 252 393 250ZM393 37 130 33 123 0H385ZM388 15ZM339 530ZM130 530ZM241 15ZM269 685H474L481 718H276ZM379 718ZM339 530Z" glyph-name="emacron.sc" horiz-adv-x="423" /><glyph d="M89 279H783L790 314H96Z" glyph-name="emdash" horiz-adv-x="754" unicode="&#8212;" /><glyph d="M104 351H798L805 386H111Z" glyph-name="emdash.caps" horiz-adv-x="754" /><glyph d="M89 277H783L790 312H96Z" glyph-name="emdash.sc" horiz-adv-x="755" /><glyph d="M66.18 279H496.46L500.8 314H70.52Z" glyph-name="endash" horiz-adv-x="490" unicode="&#8211;" /><glyph d="M81.18 351H511.46L515.8 386H85.52Z" glyph-name="endash.caps" horiz-adv-x="490" /><glyph d="M65.18 276H495.46L499.8 311H69.52Z" glyph-name="endash.sc" horiz-adv-x="489" /><glyph d="M111 0C117 241 216 469 355 469C423 469 429 415 403 287C374 144 361 76 361 0L414 151L456 350C476 445 444 505 368 505C297 505 215 453 165 345H163C176 400 185 455 185 505L136 495L128 359C84 161 72 82 71 0ZM266 -203C357 -116 366 -73 414 151L418 359L341 0C322 -88 281 -148 251 -182ZM316 495ZM247 0Z" glyph-name="eng" horiz-adv-x="515" unicode="&#331;" /><glyph d="M353 -144C426 -113 476 -61 497 40H457C438 -47 393 -96 344 -122ZM351 304C309 394 269 481 237 547L193 539C189 502 182 460 174 422L84 0H124L186 292C200 358 213 419 224 487H225C255 395 292 326 332 242C370 161 409 79 445 0L497 40L603 542L599 547L557 539C554 512 545 454 537 418C463 71 474 116 463 52H462C436 135 411 175 351 304ZM401 539ZM276 0Z" glyph-name="eng.sc" horiz-adv-x="572" /><glyph d="M300 19 302 39C182 -25 60 -109 60 -192C60 -232 89 -255 133 -255C176 -255 213 -232 241 -203L238 -186C203 -211 175 -223 149 -223C117 -223 103 -209 103 -184C103 -126 181 -55 300 19ZM364 119C323 68 269 26 211 26C142 26 102 86 102 172C102 300 192 469 298 469C341 469 369 442 369 402C369 349 321 263 96 253L93 224C341 233 412 321 412 403C412 467 369 505 307 505C173 505 59 326 59 169C59 54 120 -10 203 -10C270 -10 341 32 382 106ZM286 10ZM184 0ZM273 495ZM286 10Z" glyph-name="eogonek" horiz-adv-x="447" unicode="&#281;" /><glyph d="M385 0 377 14C283 -30 152 -108 152 -191C152 -227 178 -250 219 -250C262 -250 303 -227 333 -198L330 -181C292 -206 261 -218 233 -218C206 -218 195 -204 195 -184C195 -123 288 -57 385 0ZM124 0 239 539H193C188 497 183 465 174 422L84 0ZM487 539H238L231 506L483 502L491 534ZM401 286 183 284 177 252 393 250ZM393 37 130 33 123 0H385ZM388 15ZM339 530ZM130 530ZM241 15ZM388 15Z" glyph-name="eogonek.sc" horiz-adv-x="423" /><glyph d="M504 345 516 380 512 385C406 385 164 383 62 380L54 345ZM465 161 476 196 473 201C367 201 125 199 22 196L15 161Z" glyph-name="equal" horiz-adv-x="520" unicode="=" /><glyph d="M520 421 532 456 528 461C422 461 180 459 78 456L70 421ZM481 237 492 272 489 277C383 277 141 275 38 272L31 237Z" glyph-name="equal.lf" horiz-adv-x="520" /><glyph d="M520 421 532 456 528 461C422 461 180 459 78 456L70 421ZM481 237 492 272 489 277C383 277 141 275 38 272L31 237Z" glyph-name="equal.osf" horiz-adv-x="520" /><glyph d="M504 345 516 380 512 385C406 385 164 383 62 380L54 345ZM465 161 476 196 473 201C367 201 125 199 22 196L15 161Z" glyph-name="equal.sc" horiz-adv-x="600" /><glyph d="M221 -10C377 -10 495 152 495 364C495 523 415 651 282 702L266 671C404 608 474 461 450 299L471 269C460 382 387 428 310 428C180 428 60 294 60 146C60 50 122 -10 221 -10ZM304 392C383 392 435 333 435 251C435 134 337 26 231 26C159 26 105 73 105 158C105 282 198 392 304 392ZM547.358 652.161 542.787 684.646 245.241 536.713 249.001 504.326ZM396.705 594.388Z" glyph-name="eth" horiz-adv-x="561" unicode="&#240;" /><glyph d="M124 0 239 539H193C188 497 183 465 174 422L84 0ZM570 335C570 465 472 539 342 539H216L208 505H328C451 505 526 440 526 330C526 163 397 34 230 34H113L106 0H224C413 0 570 152 570 335ZM215 264ZM283 15ZM403 530ZM365.3 249 370.4 279H64.4L59.3 249ZM214.85 264Z" glyph-name="eth.sc" horiz-adv-x="580" /><glyph d="M364 119C323 68 269 26 211 26C142 26 102 86 102 172C102 300 192 469 298 469C341 469 369 442 369 402C369 349 321 263 96 253L93 224C341 233 412 321 412 403C412 467 369 505 307 505C173 505 59 326 59 169C59 54 120 -10 203 -10C270 -10 341 32 382 106ZM286 10ZM184 0ZM273 495ZM260 706C213 706 176 653 165 614L178 611C194 642 220 670 248 670C288 670 307 612 356 612C400 612 439 662 450 704L437 707C421 676 395 648 368 648C328 648 309 706 260 706ZM318 707ZM273 495Z" glyph-name="etilde" horiz-adv-x="447" unicode="&#7869;" /><glyph d="M124 0 239 539H193C188 497 183 465 174 422L84 0ZM487 539H238L231 506L483 502L491 534ZM401 286 183 284 177 252 393 250ZM393 37 130 33 123 0H385ZM388 15ZM339 530ZM130 530ZM241 15ZM326 741C279 741 242 688 231 649L244 646C260 677 286 705 314 705C354 705 373 647 422 647C466 647 505 697 516 739L503 742C487 711 461 683 434 683C394 683 375 741 326 741ZM384 742ZM339 530Z" glyph-name="etilde.sc" horiz-adv-x="423" /><glyph d="M510 86C463 52 398 28 341 28C242 28 187 100 187 235C187 449 326 657 484 657C534 657 585 637 612 608L629 650C595 680 538 695 491 695C304 695 140 462 140 223C140 65 212 -10 326 -10C385 -10 457 10 508 48ZM116 388H480L490 418H127ZM71 250H435L444 280H81Z" glyph-name="euro" horiz-adv-x="590" unicode="&#8364;" /><glyph d="M510 86C463 52 398 28 341 28C242 28 187 100 187 235C187 449 326 657 484 657C534 657 585 637 612 608L629 650C595 680 538 695 491 695C304 695 140 462 140 223C140 65 212 -10 326 -10C385 -10 457 10 508 48ZM116 388H480L490 418H127ZM71 250H435L444 280H81Z" glyph-name="euro.lf" horiz-adv-x="570" /><glyph d="M137 314H501L510 344H147ZM95 194H459L468 224H105ZM559 73C516 47 458 29 403 29C299 29 248 95 248 193C248 366 367 510 509 510C562 510 609 495 635 472L652 512C618 535 563 547 514 547C347 547 204 378 204 180C204 59 275 -8 388 -8C444 -8 510 7 557 37ZM487 530ZM382 15Z" glyph-name="euro.osf" horiz-adv-x="599" /><glyph d="M101 314H465L474 344H111ZM59 194H423L432 224H69ZM523 73C480 47 422 29 367 29C263 29 212 95 212 193C212 366 331 510 473 510C526 510 573 495 599 472L616 512C582 535 527 547 478 547C311 547 168 378 168 180C168 59 239 -8 352 -8C408 -8 474 7 521 37ZM451 530ZM346 15Z" glyph-name="euro.sc" horiz-adv-x="606" /><glyph d="M460 86C413 52 348 28 291 28C192 28 137 100 137 235C137 449 276 657 434 657C484 657 535 637 562 608L579 650C545 680 488 695 441 695C254 695 90 462 90 223C90 65 162 -10 276 -10C335 -10 407 10 458 48ZM66 388H430L440 418H77ZM21 250H385L394 280H31Z" glyph-name="euro.tf" horiz-adv-x="520" /><glyph d="M33 314H397L406 344H43ZM-9 194H355L364 224H1ZM455 73C412 47 354 29 299 29C195 29 144 95 144 193C144 366 263 510 405 510C458 510 505 495 531 472L548 512C514 535 459 547 410 547C243 547 100 378 100 180C100 59 171 -8 284 -8C340 -8 406 7 453 37ZM383 530ZM278 15Z" glyph-name="euro.tf.sc" horiz-adv-x="520" /><glyph d="M31 314H395L404 344H41ZM-11 194H353L362 224H-1ZM453 73C410 47 352 29 297 29C193 29 142 95 142 193C142 366 261 510 403 510C456 510 503 495 529 472L546 512C512 535 457 547 408 547C241 547 98 378 98 180C98 59 169 -8 282 -8C338 -8 404 7 451 37ZM381 530ZM276 15Z" glyph-name="euro.tosf" horiz-adv-x="520" /><glyph d="M118 158C169 340 204 495 249 690L245 695L184 685C182 619 169 573 94 158ZM121 -11C121 6 113 17 96 17C71 17 47 -14 47 -43C47 -60 56 -73 73 -73C103 -73 121 -38 121 -11ZM109 66ZM53 -194ZM108 171ZM79 36Z" glyph-name="exclam" horiz-adv-x="250" unicode="!" /><glyph d="M118 158C169 340 204 495 249 690L245 695L184 685C182 619 169 573 94 158ZM121 -11C121 6 113 17 96 17C71 17 47 -14 47 -43C47 -60 56 -73 73 -73C103 -73 121 -38 121 -11ZM109 66ZM53 -194ZM108 171ZM79 36Z" glyph-name="exclam.caps" horiz-adv-x="250" /><glyph d="M118 158C157 284 189 421 216 534L212 539L151 529C149 483 146 458 94 158ZM119 -11C119 6 111 17 94 17C69 17 45 -14 45 -43C45 -60 54 -73 71 -73C101 -73 119 -38 119 -11ZM107 66ZM51 -194ZM106 171ZM77 36Z" glyph-name="exclam.sc" horiz-adv-x="248" /><glyph d="M132 337C81 155 46 0 1 -195L5 -200L66 -190C68 -124 81 -78 156 337ZM129 506C129 489 137 478 154 478C179 478 203 509 203 538C203 555 194 568 177 568C147 568 129 533 129 506ZM141 429ZM197 689ZM142 324ZM171 459Z" glyph-name="exclamdown" horiz-adv-x="250" unicode="&#161;" /><glyph d="M191 527C140 345 105 190 60 -5L64 -10L125 0C127 66 140 112 215 527ZM188 696C188 679 196 668 213 668C238 668 262 699 262 728C262 745 253 758 236 758C206 758 188 723 188 696ZM200 619ZM256 879ZM201 514ZM230 649Z" glyph-name="exclamdown.caps" horiz-adv-x="251" /><glyph d="M138 371C99 245 67 108 40 -5L44 -10L105 0C107 46 110 71 162 371ZM137 540C137 523 145 512 162 512C187 512 211 543 211 572C211 589 202 602 185 602C155 602 137 567 137 540ZM149 463ZM205 723ZM150 358ZM179 493Z" glyph-name="exclamdown.sc" horiz-adv-x="249" /><glyph d="M104 0 209 495H208C213 524 223 576 226 591C244 672 278 719 350 719C390 719 420 705 439 689L460 729C432 746 397 755 361 755C267 755 208 693 187 594C183 576 176 533 169 495L64 0ZM162 462H202L339 459L348 490L344 495H169L91 488L86 464ZM-11 -203C41 -153 85 -90 104 0H64C45 -88 4 -148 -26 -182Z" glyph-name="f" horiz-adv-x="318" unicode="f" /><glyph d="M55 -66 136 316C142 352 147 377 150 392C163 451 192 488 254 488C288 488 314 477 331 465L348 499C324 512 292 519 262 519C181 519 131 470 115 392C111 372 107 345 101 316L19 -68ZM96 288H131L249 286L256 311L252 316H101L34 310L30 290ZM-41 -230C3 -190 39 -139 55 -66L19 -68C4 -138 -30 -184 -55 -212Z" glyph-name="f.inferior" horiz-adv-x="252" /><glyph d="M124 0 239 539H193C188 497 183 465 174 422L84 0ZM486 539H239L232 506L483 502L490 534ZM399 277 183 276 176 243 391 241Z" glyph-name="f.sc" horiz-adv-x="405" /><glyph d="M132 294 213 676C219 712 224 737 227 752C240 811 269 848 331 848C365 848 391 837 408 825L425 859C401 872 369 879 339 879C258 879 208 830 192 752C188 732 184 705 178 676L96 292ZM173 648H208L326 646L333 671L329 676H178L111 670L107 650ZM36 130C80 170 116 221 132 294L96 292C81 222 47 176 22 148Z" glyph-name="f.superior" horiz-adv-x="252" /><glyph d="M103 0 208 495H207C213 525 216 551 221 573C240 665 287 699 359 699C411 699 446 681 476 660L499 697C472 715 428 735 370 735C287 735 208 694 182 575C177 553 173 522 168 495L63 0ZM161 462H201H439L447 490L443 495H168L91 488L86 464ZM-12 -203C40 -153 84 -90 103 0H63C44 -88 3 -148 -27 -182ZM359 0 464 495H463C468 524 478 576 481 591C499 672 533 719 605 719C645 719 675 705 694 689L715 729C687 746 652 755 616 755C522 755 463 693 442 594C438 576 431 533 424 495L319 0ZM417 462H457L594 459L603 490L599 495H424L346 488L341 464ZM244 -203C296 -153 340 -90 359 0H319C300 -88 259 -148 229 -182Z" glyph-name="f_f" horiz-adv-x="573" /><glyph d="M161 462H201H429L437 490L433 495H168L91 488L86 464ZM103 0 208 495H207C213 525 216 551 221 573C240 665 287 699 359 699C411 699 446 681 476 660L499 697C472 715 428 735 370 735C287 735 208 694 182 575C177 553 173 522 168 495L63 0ZM-12 -203C40 -153 84 -90 103 0H63C44 -88 3 -148 -27 -182ZM353 0 458 495H457C462 522 473 579 476 593C493 672 533 719 614 719C670 719 704 697 727 675L757 709C723 739 678 755 626 755C525 755 456 693 436 594C433 579 426 534 418 495L313 0ZM411 462H451L669 459L677 490L673 495H418L341 488L336 464ZM238 -203C290 -153 334 -90 353 0H313C294 -88 253 -148 223 -182ZM621 0C621 161 695 356 695 505L646 495L638 359L618 267C595 161 581 72 581 0Z" glyph-name="f_f_i" horiz-adv-x="751" /><glyph d="M103 0 208 495H207C213 525 216 551 221 573C242 665 287 699 359 699C411 699 446 681 476 660L499 697C472 715 428 735 370 735C287 735 209 694 182 575C177 553 173 522 168 495L63 0ZM161 462H201H439L447 490L443 495H168L91 488L86 464ZM-12 -203C40 -153 84 -90 103 0H63C44 -88 3 -148 -27 -182ZM359 0 464 495H463C468 522 479 579 482 593C499 672 539 719 620 719C668 719 700 703 722 684L738 727C708 745 672 755 632 755C531 755 462 693 442 594C439 579 432 534 424 495L319 0ZM417 462H457L675 459L683 490L679 495H424L347 488L342 464ZM244 -203C296 -153 340 -90 359 0H319C300 -88 259 -148 229 -182ZM635 0C635 209 762 563 762 755L713 745L705 609L656 380C609 161 595 72 595 0ZM612 0ZM741 734ZM833 495ZM703 495Z" glyph-name="f_f_l" horiz-adv-x="764" /><glyph d="M103 0 208 495H207C212 522 223 579 226 593C243 672 283 719 364 719C420 719 454 697 477 675L507 709C473 739 428 755 376 755C275 755 206 693 186 594C183 579 176 534 168 495L63 0ZM161 462H201L419 459L427 490L423 495H168L91 488L86 464ZM-12 -203C40 -153 84 -90 103 0H63C44 -88 3 -148 -27 -182ZM371 0C371 161 445 356 445 505L396 495L388 359L368 267C345 161 331 72 331 0Z" glyph-name="f_i" horiz-adv-x="501" /><glyph d="M103 0 208 495H207C212 522 223 579 226 593C243 672 283 719 364 719C412 719 444 703 466 684L482 727C452 745 416 755 376 755C275 755 206 693 186 594C183 579 176 534 168 495L63 0ZM161 462H201L419 459L427 490L423 495H168L91 488L86 464ZM-12 -203C40 -153 84 -90 103 0H63C44 -88 3 -148 -27 -182ZM379 0C379 209 506 563 506 755L457 745L449 609L400 380C353 161 339 72 339 0ZM356 0ZM485 734ZM577 495ZM447 495Z" glyph-name="f_l" horiz-adv-x="508" /><glyph d="M103 0 208 495H207C212 522 223 579 226 593C243 672 283 719 364 719C420 719 454 697 477 675L507 709C473 739 428 755 376 755C275 755 206 693 186 594C183 579 176 534 168 495L63 0ZM161 462H201L419 459L427 490L423 495H168L91 488L86 464ZM-12 -203C40 -153 84 -90 103 0H63C44 -88 3 -148 -27 -182ZM371 0C371 161 445 356 445 505L396 495L388 359L368 267C345 161 331 72 331 0Z" glyph-name="fi" horiz-adv-x="501" unicode="&#64257;" /><glyph glyph-name="figurespace" horiz-adv-x="520" unicode="&#8199;" /><glyph d="M-3 -127C31 -139 89 -151 143 -151C300 -151 433 -42 433 105C433 205 352 253 254 253C215 253 153 245 121 233L136 223L193 491H499L513 539C461 532 405 529 351 529H163L95 208L103 198C136 211 202 218 237 218C322 218 388 177 388 95C388 -25 283 -115 151 -115C106 -115 49 -105 9 -91Z" glyph-name="five" horiz-adv-x="544" unicode="5" /><glyph d="M54 -4C75 -10 113 -18 151 -18C259 -18 343 47 343 130C343 199 287 231 221 231C198 231 160 227 138 220L151 211L183 364H378L389 402C355 397 320 396 284 396H156L114 196L120 190C141 198 181 203 204 203C258 203 302 177 302 122C302 59 238 11 157 11C129 11 90 17 65 26Z" glyph-name="five.denominator" horiz-adv-x="366" /><glyph d="M27 14C61 2 119 -10 171 -10C335 -10 464 109 464 248C464 358 383 403 287 403C247 403 185 395 153 383L168 373L227 647H533L547 695C494 688 439 685 385 685H197L127 358L135 348C168 361 234 368 270 368C353 368 420 331 420 239C420 123 315 26 180 26C137 26 80 36 40 50Z" glyph-name="five.lf" horiz-adv-x="544" /><glyph d="M118 296C139 290 177 282 215 282C323 282 407 347 407 430C407 499 351 531 285 531C262 531 224 527 202 520L215 511L247 664H442L453 702C419 697 384 696 348 696H220L178 496L184 490C205 498 245 503 268 503C322 503 366 477 366 422C366 359 302 311 221 311C193 311 154 317 129 326Z" glyph-name="five.numerator" horiz-adv-x="366" /><glyph d="M-3 -127C31 -139 89 -151 143 -151C300 -151 433 -42 433 105C433 205 352 253 254 253C215 253 153 245 121 233L136 223L193 491H499L513 539C461 532 405 529 351 529H163L95 208L103 198C136 211 202 218 237 218C322 218 388 177 388 95C388 -25 283 -115 151 -115C106 -115 49 -105 9 -91Z" glyph-name="five.osf" horiz-adv-x="544" /><glyph d="M27 11C57 1 107 -8 156 -8C301 -8 397 72 397 182C397 278 325 319 242 319C207 319 158 312 133 303L145 294L190 503H449L462 547C417 541 368 539 324 539H162L107 277L114 268C141 279 198 285 227 285C298 285 356 251 356 174C356 85 280 26 165 26C122 26 74 34 39 45Z" glyph-name="five.sc" horiz-adv-x="490" /><glyph d="M12 14C46 2 104 -10 156 -10C320 -10 449 109 449 248C449 358 368 403 272 403C232 403 170 395 138 383L153 373L212 647H518L532 695C479 688 424 685 370 685H182L112 358L120 348C153 361 219 368 255 368C338 368 405 331 405 239C405 123 300 26 165 26C122 26 65 36 25 50Z" glyph-name="five.tf" horiz-adv-x="520" /><glyph d="M47 11C77 1 127 -8 176 -8C321 -8 417 72 417 182C417 278 345 319 262 319C227 319 178 312 153 303L165 294L210 503H469L482 547C437 541 388 539 344 539H182L127 277L134 268C161 279 218 285 247 285C318 285 376 251 376 174C376 85 300 26 185 26C142 26 94 34 59 45Z" glyph-name="five.tf.sc" horiz-adv-x="520" /><glyph d="M-16 -127C18 -139 76 -151 130 -151C287 -151 420 -42 420 105C420 205 339 253 241 253C202 253 140 245 108 233L123 223L180 491H486L500 539C448 532 392 529 338 529H150L82 208L90 198C123 211 189 218 224 218C309 218 375 177 375 95C375 -25 270 -115 138 -115C93 -115 36 -105 -4 -91Z" glyph-name="five.tosf" horiz-adv-x="520" /><glyph d="M41 -66C62 -72 100 -80 138 -80C246 -80 330 -15 330 68C330 137 274 169 208 169C185 169 147 165 125 158L138 149L170 302H365L376 340C342 335 307 334 271 334H143L101 134L107 128C128 136 168 141 191 141C245 141 289 115 289 60C289 -3 225 -51 144 -51C116 -51 77 -45 52 -36Z" glyph-name="fiveinferior" horiz-adv-x="366" unicode="&#8325;" /><glyph d="M131 358C152 352 190 344 228 344C336 344 420 409 420 492C420 561 364 593 298 593C275 593 237 589 215 582L228 573L260 726H455L466 764C432 759 397 758 361 758H233L191 558L197 552C218 560 258 565 281 565C335 565 379 539 379 484C379 421 315 373 234 373C206 373 167 379 142 388Z" glyph-name="fivesuperior" horiz-adv-x="366" unicode="&#8309;" /><glyph d="M103 0 208 495H207C212 522 223 579 226 593C243 672 283 719 364 719C412 719 444 703 466 684L482 727C452 745 416 755 376 755C275 755 206 693 186 594C183 579 176 534 168 495L63 0ZM161 462H201L419 459L427 490L423 495H168L91 488L86 464ZM-12 -203C40 -153 84 -90 103 0H63C44 -88 3 -148 -27 -182ZM379 0C379 209 506 563 506 755L457 745L449 609L400 380C353 161 339 72 339 0ZM356 0ZM485 734ZM577 495ZM447 495Z" glyph-name="fl" horiz-adv-x="508" unicode="&#64258;" /><glyph d="M313 404H312C323 436 338 489 353 530C388 624 427 659 494 659C537 659 566 645 582 629L610 669C584 686 550 695 513 695C419 695 352 637 316 537C305 506 282 435 273 404L174 53C158 -5 123 -115 26 -115C-9 -115 -37 -101 -51 -85L-79 -125C-56 -142 -22 -151 12 -151C153 -151 196 -2 211 50ZM261 371H300L484 368L499 399L496 404H273L172 397L162 373Z" glyph-name="florin" horiz-adv-x="520" unicode="&#402;" /><glyph d="M303 404H302C313 436 328 489 343 530C378 624 417 659 484 659C527 659 556 645 572 629L600 669C574 686 540 695 503 695C409 695 342 637 306 537C295 506 272 435 263 404L164 53C148 -5 113 -115 16 -115C-19 -115 -47 -101 -61 -85L-89 -125C-66 -142 -32 -151 2 -151C143 -151 186 -2 201 50ZM251 371H290L474 368L489 399L486 404H263L162 397L152 373Z" glyph-name="florin.lf" horiz-adv-x="510" /><glyph d="M281 329H280C309 430 313 441 318 458C349 554 398 584 461 584C505 584 533 570 550 554L577 594C552 611 518 620 480 620C387 620 312 565 279 460C273 441 250 365 240 329L166 64C151 9 117 -104 17 -104C-17 -104 -45 -90 -59 -74L-87 -114C-64 -131 -30 -140 3 -140C137 -140 183 -8 203 61ZM229 296H268L452 293L467 324L464 329H241L140 322L130 298Z" glyph-name="florin.osf" horiz-adv-x="503" /><glyph d="M281 329H280C309 430 313 441 318 458C349 554 398 584 461 584C505 584 533 570 550 554L577 594C552 611 518 620 480 620C387 620 312 565 279 460C273 441 250 365 240 329L166 64C151 9 117 -104 17 -104C-17 -104 -45 -90 -59 -74L-87 -114C-64 -131 -30 -140 3 -140C137 -140 183 -8 203 61ZM229 296H268L452 293L467 324L464 329H241L140 322L130 298Z" glyph-name="florin.sc" horiz-adv-x="503" /><glyph d="M303 404H302C313 436 328 489 343 530C378 624 417 659 484 659C527 659 556 645 572 629L600 669C574 686 540 695 503 695C409 695 342 637 306 537C295 506 272 435 263 404L164 53C148 -5 113 -115 16 -115C-19 -115 -47 -101 -61 -85L-89 -125C-66 -142 -32 -151 2 -151C143 -151 186 -2 201 50ZM251 371H290L474 368L489 399L486 404H263L162 397L152 373Z" glyph-name="florin.tf" horiz-adv-x="520" /><glyph d="M295 329H294C323 430 327 441 332 458C363 554 412 584 475 584C519 584 547 570 564 554L591 594C566 611 532 620 494 620C401 620 326 565 293 460C287 441 264 365 254 329L180 64C165 9 131 -104 31 -104C-3 -104 -31 -90 -45 -74L-73 -114C-50 -131 -16 -140 17 -140C151 -140 197 -8 217 61ZM243 296H282L466 293L481 324L478 329H255L154 322L144 298Z" glyph-name="florin.tf.sc" horiz-adv-x="520" /><glyph d="M295 329H294C323 430 327 441 332 458C363 554 412 584 475 584C519 584 547 570 564 554L591 594C566 611 532 620 494 620C401 620 326 565 293 460C287 441 264 365 254 329L180 64C165 9 131 -104 31 -104C-3 -104 -31 -90 -45 -74L-73 -114C-50 -131 -16 -140 17 -140C151 -140 197 -8 217 61ZM243 296H282L466 293L481 324L478 329H255L154 322L144 298Z" glyph-name="florin.tosf" horiz-adv-x="520" /><glyph d="M20 81V43H492L512 91C460 84 404 81 350 81H308C219 81 150 81 59 79L60 80L431 480H432C422 437 418 421 398 328L298 -141H338L481 534L477 539L435 529Z" glyph-name="four" horiz-adv-x="590" unicode="4" /><glyph d="M68 132V103H356L371 139C337 135 300 133 265 133H245C191 133 152 133 103 132V133L315 363H316C309 335 307 320 295 266L235 -10H272L359 400L356 404L315 398Z" glyph-name="four.denominator" horiz-adv-x="391" /><glyph d="M52 235V197H484L504 245C452 238 395 235 342 235H320C238 235 175 235 92 233V234L443 634H444C437 604 433 585 411 482L307 0H347L493 688L489 693L447 683Z" glyph-name="four.lf" horiz-adv-x="550" /><glyph d="M132 434V405H420L435 441C401 437 364 435 329 435H309C255 435 216 435 167 434V435L379 665H380C373 637 371 622 359 568L299 292H336L423 702L420 706L379 700Z" glyph-name="four.numerator" horiz-adv-x="391" /><glyph d="M20 81V43H492L512 91C460 84 404 81 350 81H308C219 81 150 81 59 79L60 80L431 480H432C422 437 418 421 398 328L298 -141H338L481 534L477 539L435 529Z" glyph-name="four.osf" horiz-adv-x="590" /><glyph d="M42 187 43 152H412L430 195C386 190 337 188 292 188H221C169 188 130 188 80 186V187L367 495H368C360 460 351 421 341 373L261 0H299L414 541L411 545L371 538Z" glyph-name="four.sc" horiz-adv-x="486" /><glyph d="M12 235V197H483L503 245C451 238 394 235 341 235H311C218 235 146 235 52 233V234L434 634H435C428 604 424 585 402 482L298 0H338L484 688L480 693L438 683Z" glyph-name="four.tf" horiz-adv-x="520" /><glyph d="M34 187 35 152H427L445 195C401 190 352 188 307 188H286C208 188 148 188 72 186V187L382 495H383C375 460 370 440 356 373L276 0H314L429 541L426 545L386 538Z" glyph-name="four.tf.sc" horiz-adv-x="520" /><glyph d="M-16 81 -17 43H448L468 91C417 84 362 81 311 81H270C181 81 115 81 24 79V80L391 474H392C382 433 377 407 360 328L259 -141H299L442 534L438 539L396 529Z" glyph-name="four.tosf" horiz-adv-x="520" /><glyph d="M55 72V43H343L358 79C324 75 287 73 252 73H232C178 73 139 73 90 72V73L302 303H303C296 275 294 260 282 206L222 -70H259L346 340L343 344L302 338Z" glyph-name="fourinferior" horiz-adv-x="391" unicode="&#8324;" /><glyph d="M145 494V465H433L448 501C414 497 377 495 342 495H322C268 495 229 495 180 494V495L392 725H393C386 697 384 682 372 628L312 352H349L436 762L433 766L392 760Z" glyph-name="foursuperior" horiz-adv-x="391" unicode="&#8308;" /><glyph d="M523 700H477L-98 -10H-53Z" glyph-name="fraction" horiz-adv-x="278.2104" unicode="&#8260;" /><glyph d="M325 370C325 283 268 185 188 185C142 185 110 217 110 282C110 375 178 471 250 471C297 471 325 432 325 370ZM120 -255C255 -255 328 -172 328 -104C328 -58 294 -25 213 13C194 22 157 37 157 61C157 117 365 183 365 374C365 429 348 459 317 479V480C342 474 370 468 390 468C419 468 427 481 427 494C427 501 425 510 422 515C378 505 347 505 271 505C158 505 70 398 70 279C70 203 107 150 187 150C190 150 188 150 196 151V150C147 113 114 81 114 49C114 13 157 -4 200 -25C261 -55 285 -79 285 -112C285 -166 223 -219 128 -219C47 -219 4 -178 4 -129C4 -97 23 -64 53 -35L39 -19C-6 -47 -39 -84 -39 -137C-39 -205 16 -255 120 -255ZM261 495ZM155 0Z" glyph-name="g" horiz-adv-x="415" unicode="g" /><glyph d="M251 215C251 151 204 75 136 75C97 75 68 101 68 153C68 224 124 296 185 296C225 296 251 265 251 215ZM86 -269C201 -269 262 -205 262 -154C262 -114 226 -84 162 -59C149 -54 112 -40 112 -21C112 21 286 72 286 215C286 260 269 289 242 303H243C267 298 290 294 306 294C330 294 337 304 337 315C337 321 335 328 332 332C295 324 268 324 204 324C107 324 33 240 33 149C33 85 74 46 130 46C135 46 139 46 144 47V46C103 19 75 -6 75 -31C75 -57 105 -71 149 -90C204 -114 224 -132 224 -158C224 -203 166 -239 92 -239C22 -239 -16 -207 -16 -168C-16 -143 0 -119 24 -98L11 -85C-26 -106 -54 -134 -54 -175C-54 -229 -5 -269 86 -269ZM194 316ZM111 -70Z" glyph-name="g.inferior" horiz-adv-x="358" /><glyph d="M493 68C443 43 374 28 324 28C216 28 165 94 165 192C165 371 286 511 442 511C494 511 535 496 560 477L577 517C544 537 497 547 448 547C266 547 121 384 121 179C121 59 192 -8 309 -8C362 -8 440 6 492 32ZM531 229 486 221C481 177 475 144 466 101L451 31L492 32L533 224ZM391 530ZM311 15Z" glyph-name="g.sc" horiz-adv-x="561" /><glyph d="M328 575C328 511 281 435 213 435C174 435 145 461 145 513C145 584 201 656 262 656C302 656 328 625 328 575ZM163 91C278 91 339 155 339 206C339 246 303 276 239 301C226 306 189 320 189 339C189 381 363 432 363 575C363 620 346 649 319 663H320C344 658 367 654 383 654C407 654 414 664 414 675C414 681 412 688 409 692C372 684 345 684 281 684C184 684 110 600 110 509C110 445 151 406 207 406C212 406 216 406 221 407V406C180 379 152 354 152 329C152 303 182 289 226 270C281 246 301 228 301 202C301 157 243 121 169 121C99 121 61 153 61 192C61 217 77 241 101 262L88 275C51 254 23 226 23 185C23 131 72 91 163 91ZM271 676ZM188 290Z" glyph-name="g.superior" horiz-adv-x="358" /><glyph d="M325 370C325 283 268 185 188 185C142 185 110 217 110 282C110 375 178 471 250 471C297 471 325 432 325 370ZM120 -255C255 -255 328 -172 328 -104C328 -58 294 -25 213 13C194 22 157 37 157 61C157 117 365 183 365 374C365 429 348 459 317 479V480C342 474 370 468 390 468C419 468 427 481 427 494C427 501 425 510 422 515C378 505 347 505 271 505C158 505 70 398 70 279C70 203 107 150 187 150C190 150 188 150 196 151V150C147 113 114 81 114 49C114 13 157 -4 200 -25C261 -55 285 -79 285 -112C285 -166 223 -219 128 -219C47 -219 4 -178 4 -129C4 -97 23 -64 53 -35L39 -19C-6 -47 -39 -84 -39 -137C-39 -205 16 -255 120 -255ZM261 495ZM155 0ZM369 745 326 747C300 698 263 648 223 601L234 593C286 635 332 683 373 740ZM314 747ZM261 495Z" glyph-name="gacute" horiz-adv-x="415" unicode="&#501;" /><glyph d="M493 68C443 43 374 28 324 28C216 28 165 94 165 192C165 371 286 511 442 511C494 511 535 496 560 477L577 517C544 537 497 547 448 547C266 547 121 384 121 179C121 59 192 -8 309 -8C362 -8 440 6 492 32ZM531 229 486 221C481 177 475 144 466 101L451 31L492 32L533 224ZM391 530ZM311 15ZM499 780 456 782C430 733 393 683 353 636L364 628C416 670 462 718 503 775ZM444 782ZM391 530Z" glyph-name="gacute.sc" horiz-adv-x="561" /><glyph d="M325 370C325 283 268 185 188 185C142 185 110 217 110 282C110 375 178 471 250 471C297 471 325 432 325 370ZM120 -255C255 -255 328 -172 328 -104C328 -58 294 -25 213 13C194 22 157 37 157 61C157 117 365 183 365 374C365 429 348 459 317 479V480C342 474 370 468 390 468C419 468 427 481 427 494C427 501 425 510 422 515C378 505 347 505 271 505C158 505 70 398 70 279C70 203 107 150 187 150C190 150 188 150 196 151V150C147 113 114 81 114 49C114 13 157 -4 200 -25C261 -55 285 -79 285 -112C285 -166 223 -219 128 -219C47 -219 4 -178 4 -129C4 -97 23 -64 53 -35L39 -19C-6 -47 -39 -84 -39 -137C-39 -205 16 -255 120 -255ZM261 495ZM155 0ZM282 607C342 607 395 654 415 730L393 726C371 673 338 646 294 646C253 646 229 669 230 724L207 720C194 646 231 607 282 607ZM311 730ZM261 495Z" glyph-name="gbreve" horiz-adv-x="415" unicode="&#287;" /><glyph d="M493 68C443 43 374 28 324 28C216 28 165 94 165 192C165 371 286 511 442 511C494 511 535 496 560 477L577 517C544 537 497 547 448 547C266 547 121 384 121 179C121 59 192 -8 309 -8C362 -8 440 6 492 32ZM531 229 486 221C481 177 475 144 466 101L451 31L492 32L533 224ZM391 530ZM311 15ZM412 642C472 642 525 689 545 765L523 761C501 708 468 681 424 681C383 681 359 704 360 759L337 755C324 681 361 642 412 642ZM441 765ZM391 530Z" glyph-name="gbreve.sc" horiz-adv-x="561" /><glyph d="M325 370C325 283 268 185 188 185C142 185 110 217 110 282C110 375 178 471 250 471C297 471 325 432 325 370ZM120 -255C255 -255 328 -172 328 -104C328 -58 294 -25 213 13C194 22 157 37 157 61C157 117 365 183 365 374C365 429 348 459 317 479V480C342 474 370 468 390 468C419 468 427 481 427 494C427 501 425 510 422 515C378 505 347 505 271 505C158 505 70 398 70 279C70 203 107 150 187 150C190 150 188 150 196 151V150C147 113 114 81 114 49C114 13 157 -4 200 -25C261 -55 285 -79 285 -112C285 -166 223 -219 128 -219C47 -219 4 -178 4 -129C4 -97 23 -64 53 -35L39 -19C-6 -47 -39 -84 -39 -137C-39 -205 16 -255 120 -255ZM261 495ZM155 0ZM404 751C351 716 304 678 256 626H294C269 677 239 714 199 751L187 741C216 693 236 649 252 601L290 607C328 655 362 692 412 741ZM315 751ZM261 495Z" glyph-name="gcaron" horiz-adv-x="415" unicode="&#487;" /><glyph d="M493 68C443 43 374 28 324 28C216 28 165 94 165 192C165 371 286 511 442 511C494 511 535 496 560 477L577 517C544 537 497 547 448 547C266 547 121 384 121 179C121 59 192 -8 309 -8C362 -8 440 6 492 32ZM531 229 486 221C481 177 475 144 466 101L451 31L492 32L533 224ZM391 530ZM311 15ZM534 786C481 751 434 713 386 661H424C399 712 369 749 329 786L317 776C346 728 366 684 382 636L420 642C458 690 492 727 542 776ZM445 786ZM391 530Z" glyph-name="gcaron.sc" horiz-adv-x="561" /><glyph d="M325 370C325 283 268 185 188 185C142 185 110 217 110 282C110 375 178 471 250 471C297 471 325 432 325 370ZM120 -255C255 -255 328 -172 328 -104C328 -58 294 -25 213 13C194 22 157 37 157 61C157 117 365 183 365 374C365 429 348 459 317 479V480C342 474 370 468 390 468C419 468 427 481 427 494C427 501 425 510 422 515C378 505 347 505 271 505C158 505 70 398 70 279C70 203 107 150 187 150C190 150 188 150 196 151V150C147 113 114 81 114 49C114 13 157 -4 200 -25C261 -55 285 -79 285 -112C285 -166 223 -219 128 -219C47 -219 4 -178 4 -129C4 -97 23 -64 53 -35L39 -19C-6 -47 -39 -84 -39 -137C-39 -205 16 -255 120 -255ZM261 495ZM155 0ZM155 601C208 636 255 674 303 726H265C290 675 320 638 360 601L372 611C343 659 323 703 307 751L269 745C231 697 197 660 147 611Z" glyph-name="gcircumflex" horiz-adv-x="415" unicode="&#285;" /><glyph d="M493 68C443 43 374 28 324 28C216 28 165 94 165 192C165 371 286 511 442 511C494 511 535 496 560 477L577 517C544 537 497 547 448 547C266 547 121 384 121 179C121 59 192 -8 309 -8C362 -8 440 6 492 32ZM531 229 486 221C481 177 475 144 466 101L451 31L492 32L533 224ZM391 530ZM311 15ZM325 636C378 671 425 709 473 761H435C460 710 490 673 530 636L542 646C513 694 493 738 477 786L439 780C401 732 367 695 317 646ZM445 786ZM391 530Z" glyph-name="gcircumflex.sc" horiz-adv-x="561" /><glyph d="M325 370C325 283 268 185 188 185C142 185 110 217 110 282C110 375 178 471 250 471C297 471 325 432 325 370ZM120 -255C255 -255 328 -172 328 -104C328 -58 294 -25 213 13C194 22 157 37 157 61C157 117 365 183 365 374C365 429 348 459 317 479V480C342 474 370 468 390 468C419 468 427 481 427 494C427 501 425 510 422 515C378 505 347 505 271 505C158 505 70 398 70 279C70 203 107 150 187 150C190 150 188 150 196 151V150C147 113 114 81 114 49C114 13 157 -4 200 -25C261 -55 285 -79 285 -112C285 -166 223 -219 128 -219C47 -219 4 -178 4 -129C4 -97 23 -64 53 -35L39 -19C-6 -47 -39 -84 -39 -137C-39 -205 16 -255 120 -255ZM261 495ZM155 0ZM362 784 353 793C301 755 245 667 245 624C245 605 257 594 277 594C303 594 329 622 329 649C329 668 315 679 294 679L293 647C302 686 335 751 362 784ZM265 511ZM325 793ZM325 793ZM261 495Z" glyph-name="gcommaaccent" horiz-adv-x="415" unicode="&#291;" /><glyph d="M493 68C443 43 374 28 324 28C216 28 165 94 165 192C165 371 286 511 442 511C494 511 535 496 560 477L577 517C544 537 497 547 448 547C266 547 121 384 121 179C121 59 192 -8 309 -8C362 -8 440 6 492 32ZM531 229 486 221C481 177 475 144 466 101L451 31L492 32L533 224ZM391 530ZM311 15ZM214 -258 223 -267C275 -229 331 -141 331 -98C331 -79 319 -68 299 -68C273 -68 247 -96 247 -123C247 -142 261 -153 282 -153L283 -121C274 -160 241 -225 214 -258ZM311 15ZM251 -267Z" glyph-name="gcommaaccent.sc" horiz-adv-x="561" /><glyph d="M325 370C325 283 268 185 188 185C142 185 110 217 110 282C110 375 178 471 250 471C297 471 325 432 325 370ZM120 -255C255 -255 328 -172 328 -104C328 -58 294 -25 213 13C194 22 157 37 157 61C157 117 365 183 365 374C365 429 348 459 317 479V480C342 474 370 468 390 468C419 468 427 481 427 494C427 501 425 510 422 515C378 505 347 505 271 505C158 505 70 398 70 279C70 203 107 150 187 150C190 150 188 150 196 151V150C147 113 114 81 114 49C114 13 157 -4 200 -25C261 -55 285 -79 285 -112C285 -166 223 -219 128 -219C47 -219 4 -178 4 -129C4 -97 23 -64 53 -35L39 -19C-6 -47 -39 -84 -39 -137C-39 -205 16 -255 120 -255ZM261 495ZM155 0ZM329 678C329 695 321 706 304 706C279 706 255 675 255 646C255 629 264 616 281 616C311 616 329 651 329 678ZM317 755ZM261 495Z" glyph-name="gdotaccent" horiz-adv-x="415" unicode="&#289;" /><glyph d="M493 68C443 43 374 28 324 28C216 28 165 94 165 192C165 371 286 511 442 511C494 511 535 496 560 477L577 517C544 537 497 547 448 547C266 547 121 384 121 179C121 59 192 -8 309 -8C362 -8 440 6 492 32ZM531 229 486 221C481 177 475 144 466 101L451 31L492 32L533 224ZM391 530ZM311 15ZM459 713C459 730 451 741 434 741C409 741 385 710 385 681C385 664 394 651 411 651C441 651 459 686 459 713ZM447 790ZM391 530Z" glyph-name="gdotaccent.sc" horiz-adv-x="561" /><glyph d="M162 462 169 495 91 488 86 464ZM449 177C449 90 394 26 306 26C277 26 236 33 199 48L192 12C225 -1 265 -10 303 -10C420 -10 495 75 495 187C495 306 411 367 304 398L301 384C453 413 556 518 556 625C556 712 490 755 410 755C328 755 214 708 175 525L63 0H103L215 528C249 687 334 719 397 719C462 719 511 684 511 617C511 529 428 440 276 407L268 371C372 339 449 281 449 177ZM-12 -203C40 -153 84 -90 103 0H63C44 -88 3 -148 -27 -182Z" glyph-name="germandbls" horiz-adv-x="581" unicode="&#223;" /><glyph d="M113 -10 75 0C107 47 119 95 129 138L178 365C204 485 294 547 388 547C468 547 536 508 532 430L335 278L337 286C434 269 520 224 520 144C520 59 440 -8 336 -8C309 -8 264 -3 238 11L247 51C278 33 322 28 349 28C424 28 478 73 478 135C478 201 398 242 291 260L297 287L516 458L489 416C489 477 441 509 381 509C311 509 238 460 218 366L166 124C157 80 137 25 113 -10Z" glyph-name="germandbls.sc" horiz-adv-x="547" /><glyph d="M233 593 246 601C226 648 211 698 205 747L162 745L156 740C173 683 199 635 233 593ZM172 747ZM172 495Z" glyph-name="grave" horiz-adv-x="341" unicode="`" /><glyph d="M338 756 349 769C307 796 267 826 232 867L198 843L195 837C238 799 286 775 338 756ZM284 867ZM245 685Z" glyph-name="grave.case" horiz-adv-x="308" /><glyph d="M233 593 246 601C226 648 211 698 205 747L162 745L156 740C173 683 199 635 233 593ZM172 747ZM172 495Z" glyph-name="gravecomb" horiz-adv-x="341" unicode="&#768;" /><glyph d="M338 756 349 769C307 796 267 826 232 867L198 843L195 837C238 799 286 775 338 756ZM284 867ZM245 685Z" glyph-name="gravecomb.case" horiz-adv-x="308" /><glyph d="M18 50 480 258 485 285 483 291C401 337 201 438 111 481L102 441L425 275L28 95Z" glyph-name="greater" horiz-adv-x="520" unicode="&gt;" /><glyph d="M34 127 496 335 501 362 499 368C417 414 217 515 127 558L118 518L441 352L44 172Z" glyph-name="greater.lf" horiz-adv-x="519" /><glyph d="M27 127 489 335 494 362 492 368C410 414 210 515 120 558L111 518L434 352L37 172Z" glyph-name="greater.osf" horiz-adv-x="520" /><glyph d="M18 50 480 258 485 285 483 291C401 337 201 438 111 481L102 441L425 275L28 95Z" glyph-name="greater.sc" horiz-adv-x="600" /><glyph d="M17 173 500 340 506 370 503 376C413 414 192 496 94 531L86 491L448 359L26 213ZM436 23 447 58 444 63C338 63 96 61 -7 58L-14 23Z" glyph-name="greaterequal" horiz-adv-x="520" unicode="&#8805;" /><glyph d="M34 253 517 420 523 450 520 456C430 494 209 576 111 611L103 571L465 439L43 293ZM453 103 464 138 461 143C355 143 113 141 10 138L3 103Z" glyph-name="greaterequal.lf" horiz-adv-x="520" /><glyph d="M34 253 517 420 523 450 520 456C430 494 209 576 111 611L103 571L465 439L43 293ZM453 103 464 138 461 143C355 143 113 141 10 138L3 103Z" glyph-name="greaterequal.osf" horiz-adv-x="520" /><glyph d="M17 173 500 340 506 370 503 376C413 414 192 496 94 531L86 491L448 359L26 213ZM436 23 447 58 444 63C338 63 96 61 -7 58L-14 23Z" glyph-name="greaterequal.sc" horiz-adv-x="520" /><glyph d="M68 287C114 235 151 168 193 90L207 98C185 179 153 248 115 310L108 276C172 337 235 410 290 488L279 496C204 417 136 350 71 299ZM228 287C274 235 311 168 353 90L367 98C345 179 313 248 275 310L268 276C332 337 395 410 450 488L439 496C364 417 296 350 231 299Z" glyph-name="guillemetleft" horiz-adv-x="439" unicode="&#171;" /><glyph d="M88 379C134 327 171 260 213 182L227 190C205 271 173 340 135 402L128 368C192 429 255 502 310 580L299 588C224 509 156 442 91 391ZM248 379C294 327 331 260 373 182L387 190C365 271 333 340 295 402L288 368C352 429 415 502 470 580L459 588C384 509 316 442 251 391Z" glyph-name="guillemetleft.caps" horiz-adv-x="439" /><glyph d="M58 237C104 185 141 118 183 40L197 48C175 129 143 198 105 260L98 226C162 287 225 360 280 438L269 446C194 367 126 300 61 249ZM218 237C264 185 301 118 343 40L357 48C335 129 303 198 265 260L258 226C322 287 385 360 440 438L429 446C354 367 286 300 221 249Z" glyph-name="guillemetleft.sc" horiz-adv-x="440" /><glyph d="M390 299C344 351 307 418 265 496L251 488C273 407 305 338 343 276L350 310C286 249 223 176 168 98L179 90C254 169 322 236 387 287ZM230 299C184 351 147 418 105 496L91 488C113 407 145 338 183 276L190 310C126 249 63 176 8 98L19 90C94 169 162 236 227 287Z" glyph-name="guillemetright" horiz-adv-x="439" unicode="&#187;" /><glyph d="M410 391C364 443 327 510 285 588L271 580C293 499 325 430 363 368L370 402C306 341 243 268 188 190L199 182C274 261 342 328 407 379ZM250 391C204 443 167 510 125 588L111 580C133 499 165 430 203 368L210 402C146 341 83 268 28 190L39 182C114 261 182 328 247 379Z" glyph-name="guillemetright.caps" horiz-adv-x="439" /><glyph d="M380 249C334 301 297 368 255 446L241 438C263 357 295 288 333 226L340 260C276 199 213 126 158 48L169 40C244 119 312 186 377 237ZM220 249C174 301 137 368 95 446L81 438C103 357 135 288 173 226L180 260C116 199 53 126 -2 48L9 40C84 119 152 186 217 237Z" glyph-name="guillemetright.sc" horiz-adv-x="440" /><glyph d="M68 286C114 234 151 167 193 89L207 97C185 178 153 247 115 309L108 275C172 336 235 409 290 487L279 495C204 416 136 349 71 298Z" glyph-name="guilsinglleft" horiz-adv-x="279" unicode="&#8249;" /><glyph d="M88 379C134 327 171 260 213 182L227 190C205 271 173 340 135 402L128 368C192 429 255 502 310 580L299 588C224 509 156 442 91 391Z" glyph-name="guilsinglleft.caps" horiz-adv-x="279" /><glyph d="M58 237C104 185 141 118 183 40L197 48C175 129 143 198 105 260L98 226C162 287 225 360 280 438L269 446C194 367 126 300 61 249Z" glyph-name="guilsinglleft.sc" horiz-adv-x="280" /><glyph d="M230 298C184 350 147 417 105 495L91 487C113 406 145 337 183 275L190 309C126 248 63 175 8 97L19 89C94 168 162 235 227 286Z" glyph-name="guilsinglright" horiz-adv-x="279" unicode="&#8250;" /><glyph d="M250 391C204 443 167 510 125 588L111 580C133 499 165 430 203 368L210 402C146 341 83 268 28 190L39 182C114 261 182 328 247 379Z" glyph-name="guilsinglright.caps" horiz-adv-x="279" /><glyph d="M220 249C174 301 137 368 95 446L81 438C103 357 135 288 173 226L180 260C116 199 53 126 -2 48L9 40C84 119 152 186 217 237Z" glyph-name="guilsinglright.sc" horiz-adv-x="280" /><glyph d="M111 0C117 246 216 469 357 469C403 469 422 445 422 400C422 369 414 325 395 238C380 171 361 96 361 0H401C401 63 405 110 428 218C462 374 462 375 462 409C462 469 429 505 368 505C298 505 217 453 168 345H166C201 497 238 650 238 755L189 745L181 609L132 380C85 161 71 72 71 0ZM274 606ZM215 0ZM341 745Z" glyph-name="h" horiz-adv-x="537" unicode="h" /><glyph d="M67 -70C68 120 154 292 270 292C308 292 323 273 323 227C323 213 321 188 309 134C295 70 280 -3 281 -70H317C317 -19 318 15 335 97C350 167 362 210 362 242C362 292 334 324 283 324C217 324 150 279 110 200H109C136 318 165 436 164 519L121 511L116 405L78 226C46 75 30 -13 32 -70ZM197 403ZM156 -70ZM252 511Z" glyph-name="h.inferior" horiz-adv-x="449" /><glyph d="M124 0 239 542 235 547 193 539C188 496 181 459 173 421L84 0ZM527 285H170L162 251H519ZM488 0 603 542 599 547 557 539C553 509 547 467 537 421L448 0ZM289 15ZM399 530ZM133 530ZM372 411Z" glyph-name="h.sc" horiz-adv-x="572" /><glyph d="M144 290C145 480 231 652 347 652C385 652 400 633 400 587C400 573 398 548 386 494C372 430 357 357 358 290H394C394 341 395 375 412 457C427 527 439 570 439 602C439 652 411 684 360 684C294 684 227 639 187 560H186C213 678 242 796 241 879L198 871L193 765L155 586C123 435 107 347 109 290ZM274 763ZM233 290ZM329 871Z" glyph-name="h.superior" horiz-adv-x="450" /><glyph d="M111 0C117 246 216 469 357 469C403 469 422 445 422 400C422 369 414 325 395 238C380 171 361 96 361 0H401C401 63 405 110 428 218C462 374 462 375 462 409C462 469 429 505 368 505C298 505 217 453 168 345H166C201 497 238 650 238 755L189 745L181 609L132 380C85 161 71 72 71 0ZM274 606ZM215 0ZM341 745ZM451 591 457 621H97L91 591ZM274 606Z" glyph-name="hbar" horiz-adv-x="537" unicode="&#295;" /><glyph d="M124 0 239 542 235 547 193 539C188 496 181 459 173 421L84 0ZM527 285H170L162 251H519ZM488 0 603 542 599 547 557 539C553 509 547 467 537 421L448 0ZM289 15ZM399 530ZM133 530ZM372 411ZM648.7 396 654.1 426H96.1L90.7 396ZM372.4 411Z" glyph-name="hbar.sc" horiz-adv-x="572" /><glyph d="M111 0C117 246 216 469 357 469C403 469 422 445 422 400C422 369 414 325 395 238C380 171 361 96 361 0H401C401 63 405 110 428 218C462 374 462 375 462 409C462 469 429 505 368 505C298 505 217 453 168 345H166C201 497 238 650 238 755L189 745L181 609L132 380C85 161 71 72 71 0ZM274 606ZM215 0ZM341 745ZM260 816C310 841 356 870 404 907H366C396 870 432 839 471 816L483 826C453 860 428 893 406 926L369 920C317 875 299 862 252 826ZM379 926ZM341 745Z" glyph-name="hcircumflex" horiz-adv-x="537" unicode="&#293;" /><glyph d="M124 0 239 542 235 547 193 539C188 496 181 459 173 421L84 0ZM527 285H170L162 251H519ZM488 0 603 542 599 547 557 539C553 509 547 467 537 421L448 0ZM289 15ZM399 530ZM133 530ZM372 411ZM333 636C386 671 433 709 481 761H443C468 710 498 673 538 636L550 646C521 694 501 738 485 786L447 780C409 732 375 695 325 646ZM453 786ZM399 530Z" glyph-name="hcircumflex.sc" horiz-adv-x="572" /><glyph d="M111 0C117 246 216 469 357 469C403 469 422 445 422 400C422 369 414 325 395 238C380 171 361 96 361 0H401C401 63 405 110 428 218C462 374 462 375 462 409C462 469 429 505 368 505C298 505 217 453 168 345H166C201 497 238 650 238 755L189 745L181 609L132 380C85 161 71 72 71 0ZM274 606ZM215 0ZM341 745ZM228 -182C228 -165 220 -154 203 -154C178 -154 154 -185 154 -214C154 -231 163 -244 180 -244C210 -244 228 -209 228 -182ZM216 -105ZM160 -365ZM215 0ZM186 -135Z" glyph-name="hdotbelow" horiz-adv-x="537" unicode="&#7717;" /><glyph d="M124 0 239 542 235 547 193 539C188 496 181 459 173 421L84 0ZM527 285H170L162 251H519ZM488 0 603 542 599 547 557 539C553 509 547 467 537 421L448 0ZM289 15ZM399 530ZM133 530ZM372 411ZM302 -167C302 -150 294 -139 277 -139C252 -139 228 -170 228 -199C228 -216 237 -229 254 -229C284 -229 302 -194 302 -167ZM290 -90ZM234 -350ZM289 15ZM260 -120Z" glyph-name="hdotbelow.sc" horiz-adv-x="572" /><glyph d="M282 741 247 743C221 694 182 640 144 597L154 589C203 631 245 678 286 736ZM394 741 359 743C333 694 294 640 256 597L266 589C315 631 357 678 398 736Z" glyph-name="hungarumlaut" horiz-adv-x="364" unicode="&#733;" /><glyph d="M344 839 327 860C284 827 228 796 182 774L187 759C241 777 293 800 345 833ZM515 839 498 860C455 827 407 800 353 774L358 759C411 776 460 799 516 833ZM360 860ZM323 685Z" glyph-name="hungarumlaut.case" horiz-adv-x="462" /><glyph d="M282 741 247 743C221 694 182 640 144 597L154 589C203 631 245 678 286 736ZM394 741 359 743C333 694 294 640 256 597L266 589C315 631 357 678 398 736ZM287 743ZM235 495Z" glyph-name="hungarumlautcomb" horiz-adv-x="364" unicode="&#779;" /><glyph d="M344 839 327 860C284 827 228 796 182 774L187 759C241 777 293 800 345 833ZM515 839 498 860C455 827 407 800 353 774L358 759C411 776 460 799 516 833ZM360 860ZM323 685Z" glyph-name="hungarumlautcomb.case" horiz-adv-x="462" /><glyph d="M54.49 279H339.03L341.9 314H57.36Z" glyph-name="hyphen" horiz-adv-x="345" unicode="-" /><glyph d="M69.49 351H354.03L356.9 386H72.36Z" glyph-name="hyphen.caps" horiz-adv-x="345" /><glyph d="M53.49 276H338.03L340.9 311H56.36Z" glyph-name="hyphen.sc" horiz-adv-x="345" /><glyph d="M111 0C111 161 185 356 185 505L136 495L128 359L108 267C85 161 71 72 71 0ZM180 10ZM137 0ZM149 495ZM217 678C217 695 209 706 192 706C167 706 143 675 143 646C143 629 152 616 169 616C199 616 217 651 217 678ZM205 755ZM149 495ZM75 0Z" glyph-name="i" horiz-adv-x="241" unicode="i" /><glyph d="M68 -70C66 56 126 208 123 324L80 316L76 210L60 138C42 56 30 -9 33 -70ZM152 495C152 509 144 520 129 520C108 520 88 494 88 471C88 457 96 446 111 446C136 446 152 473 152 495Z" glyph-name="i.inferior" horiz-adv-x="202" /><glyph d="M124 0 239 542 235 547 193 539C188 496 181 459 173 421L84 0ZM154 15ZM104 15ZM214 530Z" glyph-name="i.sc" horiz-adv-x="208" /><glyph d="M145 290C143 416 203 568 200 684L157 676L153 570L137 498C119 416 107 351 110 290ZM229 855C229 869 221 880 206 880C185 880 165 854 165 831C165 817 173 806 188 806C213 806 229 833 229 855Z" glyph-name="i.superior" horiz-adv-x="203" /><glyph d="M111 0C111 161 185 356 185 505L136 495L128 359L108 267C85 161 71 72 71 0ZM180 10ZM137 0ZM149 495ZM257 745 214 747C188 698 151 648 111 601L122 593C174 635 220 683 261 740ZM202 747ZM149 495Z" glyph-name="iacute" horiz-adv-x="241" unicode="&#237;" /><glyph d="M124 0 239 542 235 547 193 539C188 496 181 459 173 421L84 0ZM154 15ZM104 15ZM214 530ZM322 780 279 782C253 733 216 683 176 636L187 628C239 670 285 718 326 775ZM267 782ZM214 530Z" glyph-name="iacute.sc" horiz-adv-x="208" /><glyph d="M111 0C111 161 185 356 185 505L136 495L128 359L108 267C85 161 71 72 71 0ZM180 10ZM137 0ZM149 495ZM170 607C230 607 283 654 303 730L281 726C259 673 226 646 182 646C141 646 117 669 118 724L95 720C82 646 119 607 170 607ZM199 730ZM149 495Z" glyph-name="ibreve" horiz-adv-x="241" unicode="&#301;" /><glyph d="M124 0 239 542 235 547 193 539C188 496 181 459 173 421L84 0ZM154 15ZM104 15ZM214 530ZM235 642C295 642 348 689 368 765L346 761C324 708 291 681 247 681C206 681 182 704 183 759L160 755C147 681 184 642 235 642ZM264 765ZM214 530Z" glyph-name="ibreve.sc" horiz-adv-x="208" /><glyph d="M111 0C111 161 185 356 185 505L136 495L128 359L108 267C85 161 71 72 71 0ZM180 10ZM137 0ZM149 495ZM292 751C239 716 192 678 144 626H182C157 677 127 714 87 751L75 741C104 693 124 649 140 601L178 607C216 655 250 692 300 741ZM203 751ZM149 495Z" glyph-name="icaron" horiz-adv-x="241" unicode="&#464;" /><glyph d="M124 0 239 542 235 547 193 539C188 496 181 459 173 421L84 0ZM154 15ZM104 15ZM214 530ZM357 786C304 751 257 713 209 661H247C222 712 192 749 152 786L140 776C169 728 189 684 205 636L243 642C281 690 315 727 365 776ZM268 786ZM214 530Z" glyph-name="icaron.sc" horiz-adv-x="208" /><glyph d="M111 0C111 161 185 356 185 505L136 495L128 359L108 267C85 161 71 72 71 0ZM180 10ZM137 0ZM149 495ZM83 601C136 636 183 674 231 726H193C218 675 248 638 288 601L300 611C271 659 251 703 235 751L197 745C159 697 125 660 75 611ZM203 751ZM149 495Z" glyph-name="icircumflex" horiz-adv-x="241" unicode="&#238;" /><glyph d="M124 0 239 542 235 547 193 539C188 496 181 459 173 421L84 0ZM154 15ZM104 15ZM214 530ZM148 636C201 671 248 709 296 761H258C283 710 313 673 353 636L365 646C336 694 316 738 300 786L262 780C224 732 190 695 140 646ZM268 786ZM214 530Z" glyph-name="icircumflex.sc" horiz-adv-x="208" /><glyph d="M111 0C111 161 185 356 185 505L136 495L128 359L108 267C85 161 71 72 71 0ZM180 10ZM137 0ZM149 495ZM131 665C135 687 125 704 104 704C82 704 60 685 55 661C50 638 64 622 83 622C103 622 126 640 131 665ZM315 665C319 687 309 704 288 704C266 704 244 685 239 661C234 638 248 622 267 622C287 622 310 640 315 665ZM194 704ZM149 495Z" glyph-name="idieresis" horiz-adv-x="241" unicode="&#239;" /><glyph d="M124 0 239 542 235 547 193 539C188 496 181 459 173 421L84 0ZM154 15ZM104 15ZM214 530ZM196 700C200 722 190 739 169 739C147 739 125 720 120 696C115 673 129 657 148 657C168 657 191 675 196 700ZM380 700C384 722 374 739 353 739C331 739 309 720 304 696C299 673 313 657 332 657C352 657 375 675 380 700ZM259 739ZM214 530Z" glyph-name="idieresis.sc" horiz-adv-x="208" /><glyph d="M124 0 239 542 235 547 193 539C188 496 181 459 173 421L84 0ZM154 15ZM104 15ZM214 530ZM282 713C282 730 274 741 257 741C232 741 208 710 208 681C208 664 217 651 234 651C264 651 282 686 282 713ZM270 790ZM214 530Z" glyph-name="idotaccent.sc" horiz-adv-x="208" /><glyph d="M111 0C111 161 185 356 185 505L136 495L128 359L108 267C85 161 71 72 71 0ZM180 10ZM137 0ZM149 495ZM217 678C217 695 209 706 192 706C167 706 143 675 143 646C143 629 152 616 169 616C199 616 217 651 217 678ZM205 755ZM149 495ZM75 0ZM88 -182C88 -165 80 -154 63 -154C38 -154 14 -185 14 -214C14 -231 23 -244 40 -244C70 -244 88 -209 88 -182ZM76 -105ZM20 -365ZM75 0ZM46 -135Z" glyph-name="idotbelow" horiz-adv-x="241" unicode="&#7883;" /><glyph d="M124 0 239 542 235 547 193 539C188 496 181 459 173 421L84 0ZM154 15ZM104 15ZM214 530ZM117 -167C117 -150 109 -139 92 -139C67 -139 43 -170 43 -199C43 -216 52 -229 69 -229C99 -229 117 -194 117 -167ZM105 -90ZM49 -350ZM104 15ZM75 -120Z" glyph-name="idotbelow.sc" horiz-adv-x="208" /><glyph d="M111 0C111 161 185 356 185 505L136 495L128 359L108 267C85 161 71 72 71 0ZM180 10ZM137 0ZM149 495ZM210 593 223 601C203 648 188 698 182 747L139 745L133 740C150 683 176 635 210 593ZM149 747ZM149 495Z" glyph-name="igrave" horiz-adv-x="241" unicode="&#236;" /><glyph d="M124 0 239 542 235 547 193 539C188 496 181 459 173 421L84 0ZM154 15ZM104 15ZM214 530ZM275 628 288 636C268 683 253 733 247 782L204 780L198 775C215 718 241 670 275 628ZM214 782ZM214 530Z" glyph-name="igrave.sc" horiz-adv-x="208" /><glyph d="M111 0C111 161 185 356 185 505L136 495L128 359L108 267C85 161 71 72 71 0ZM180 10ZM137 0ZM149 495ZM217 678C217 695 209 706 192 706C167 706 143 675 143 646C143 629 152 616 169 616C199 616 217 651 217 678ZM205 755ZM149 495ZM75 0ZM211 -203C263 -153 307 -90 326 0C397 336 420 418 420 505L371 495L363 359L286 0C267 -88 226 -148 196 -182ZM369 495ZM297 0ZM437 678C437 695 429 706 412 706C387 706 363 675 363 646C363 629 372 616 389 616C419 616 437 651 437 678ZM425 755ZM369 495Z" glyph-name="ij" horiz-adv-x="459" unicode="&#307;" /><glyph d="M124 0 239 542 235 547 193 539C188 496 181 459 173 421L84 0ZM154 15ZM104 15ZM214 530ZM199 -144C274 -112 320 -60 342 40L449 542L445 547L401 539C399 504 393 467 383 421L302 40C283 -48 239 -97 190 -122ZM426 530ZM313 0Z" glyph-name="ij.sc" horiz-adv-x="418" /><glyph d="M111 0C111 161 185 356 185 505L136 495L128 359L108 267C85 161 71 72 71 0ZM180 10ZM137 0ZM149 495ZM79 650H284L291 683H86ZM189 683ZM149 495Z" glyph-name="imacron" horiz-adv-x="241" unicode="&#299;" /><glyph d="M124 0 239 542 235 547 193 539C188 496 181 459 173 421L84 0ZM154 15ZM104 15ZM214 530ZM144 685H349L356 718H151ZM254 718ZM214 530Z" glyph-name="imacron.sc" horiz-adv-x="208" /><glyph d="M616 397C675 397 715 358 715 296C715 215 645 143 565 143C487 143 460 209 428 282C398 349 355 433 256 433C154 433 71 344 71 240C71 157 125 107 203 107C283 107 353 159 424 257L406 282C348 198 282 144 214 144C155 144 113 184 113 250C113 325 168 397 248 397C334 397 370 315 399 247C422 192 457 107 561 107C670 107 757 199 757 302C757 384 703 433 626 433C548 433 478 384 408 287L426 260C486 347 550 397 616 397Z" glyph-name="infinity" horiz-adv-x="818" unicode="&#8734;" /><glyph d="M632 472C691 472 731 433 731 371C731 290 661 218 581 218C503 218 476 284 444 357C414 424 371 508 272 508C170 508 87 419 87 315C87 232 141 182 219 182C299 182 369 234 440 332L422 357C364 273 298 219 230 219C171 219 129 259 129 325C129 400 184 472 264 472C350 472 386 390 415 322C438 267 473 182 577 182C686 182 773 274 773 377C773 459 719 508 642 508C564 508 494 459 424 362L442 335C502 422 566 472 632 472Z" glyph-name="infinity.lf" horiz-adv-x="818" /><glyph d="M632 472C691 472 731 433 731 371C731 290 661 218 581 218C503 218 476 284 444 357C414 424 371 508 272 508C170 508 87 419 87 315C87 232 141 182 219 182C299 182 369 234 440 332L422 357C364 273 298 219 230 219C171 219 129 259 129 325C129 400 184 472 264 472C350 472 386 390 415 322C438 267 473 182 577 182C686 182 773 274 773 377C773 459 719 508 642 508C564 508 494 459 424 362L442 335C502 422 566 472 632 472Z" glyph-name="infinity.osf" horiz-adv-x="818" /><glyph d="M616 397C675 397 715 358 715 296C715 215 645 143 565 143C487 143 460 209 428 282C398 349 355 433 256 433C154 433 71 344 71 240C71 157 125 107 203 107C283 107 353 159 424 257L406 282C348 198 282 144 214 144C155 144 113 184 113 250C113 325 168 397 248 397C334 397 370 315 399 247C422 192 457 107 561 107C670 107 757 199 757 302C757 384 703 433 626 433C548 433 478 384 408 287L426 260C486 347 550 397 616 397Z" glyph-name="infinity.sc" horiz-adv-x="818" /><glyph d="M137 -255C311 -255 321 -87 321 166C321 280 319 364 319 422C319 581 334 719 457 719C497 719 531 704 560 682L577 723C545 742 511 755 464 755C289 755 279 580 279 343C279 237 281 156 281 92C281 -79 267 -219 143 -219C103 -219 69 -204 40 -182L23 -223C55 -242 89 -255 137 -255Z" glyph-name="integral" horiz-adv-x="493" unicode="&#8747;" /><glyph d="M111 0 106 21C49 -27 -45 -105 -45 -184C-45 -229 -15 -255 30 -255C72 -255 109 -232 136 -203L133 -186C99 -211 72 -223 47 -223C12 -223 -2 -205 -2 -179C-2 -120 55 -56 111 0ZM111 0C111 161 185 356 185 505L136 495L128 359L108 267C85 161 71 72 71 0ZM180 10ZM137 0ZM149 495ZM217 678C217 695 209 706 192 706C167 706 143 675 143 646C143 629 152 616 169 616C199 616 217 651 217 678ZM205 755ZM149 495ZM75 0ZM180 10Z" glyph-name="iogonek" horiz-adv-x="241" unicode="&#303;" /><glyph d="M124 0 126 20C35 -24 -52 -112 -52 -181C-52 -223 -20 -250 26 -250C68 -250 103 -228 129 -198L126 -181C94 -207 68 -218 42 -218C8 -218 -9 -200 -9 -174C-9 -128 43 -53 124 0ZM124 0 239 542 235 547 193 539C188 496 181 459 173 421L84 0ZM154 15ZM104 15ZM214 530ZM154 15Z" glyph-name="iogonek.sc" horiz-adv-x="208" /><glyph d="M111 0C111 161 185 356 185 505L136 495L128 359L108 267C85 161 71 72 71 0ZM180 10ZM137 0ZM149 495ZM136 706C89 706 52 653 41 614L54 611C70 642 96 670 124 670C164 670 183 612 232 612C276 612 315 662 326 704L313 707C297 676 271 648 244 648C204 648 185 706 136 706ZM194 707ZM149 495Z" glyph-name="itilde" horiz-adv-x="241" unicode="&#297;" /><glyph d="M124 0 239 542 235 547 193 539C188 496 181 459 173 421L84 0ZM154 15ZM104 15ZM214 530ZM201 741C154 741 117 688 106 649L119 646C135 677 161 705 189 705C229 705 248 647 297 647C341 647 380 697 391 739L378 742C362 711 336 683 309 683C269 683 250 741 201 741ZM259 742ZM214 530Z" glyph-name="itilde.sc" horiz-adv-x="208" /><glyph d="M-30 -203C22 -153 66 -90 85 0C156 336 179 418 179 505L130 495L122 359L45 0C26 -88 -15 -148 -45 -182ZM128 495ZM56 0ZM196 678C196 695 188 706 171 706C146 706 122 675 122 646C122 629 131 616 148 616C178 616 196 651 196 678ZM184 755ZM128 495Z" glyph-name="j" horiz-adv-x="218" unicode="j" /><glyph d="M-45 -230C-1 -190 35 -140 51 -66C108 201 124 257 123 324L80 316L75 210L15 -68C0 -137 -34 -183 -59 -212ZM152 495C152 509 144 520 129 520C108 520 88 494 88 471C88 457 96 446 111 446C136 446 152 473 152 495Z" glyph-name="j.inferior" horiz-adv-x="186" /><glyph d="M-9 -144C66 -112 112 -60 134 40L241 542L237 547L193 539C191 504 185 467 175 421L94 40C75 -48 31 -97 -18 -122ZM218 530ZM105 0Z" glyph-name="j.sc" horiz-adv-x="210" /><glyph d="M32 130C76 170 112 220 128 294C185 561 201 617 200 684L157 676L152 570L92 292C77 223 43 177 18 148ZM229 855C229 869 221 880 206 880C185 880 165 854 165 831C165 817 173 806 188 806C213 806 229 833 229 855Z" glyph-name="j.superior" horiz-adv-x="187" /><glyph d="M-30 -203C22 -153 66 -90 85 0C156 336 179 418 179 505L130 495L122 359L45 0C26 -88 -15 -148 -45 -182ZM128 495ZM56 0ZM62 601C115 636 162 674 210 726H172C197 675 227 638 267 601L279 611C250 659 230 703 214 751L176 745C138 697 104 660 54 611ZM182 751ZM128 495Z" glyph-name="jcircumflex" horiz-adv-x="218" unicode="&#309;" /><glyph d="M-9 -144C66 -112 112 -60 134 40L241 542L237 547L193 539C191 504 185 467 175 421L94 40C75 -48 31 -97 -18 -122ZM218 530ZM105 0ZM152 636C205 671 252 709 300 761H262C287 710 317 673 357 636L369 646C340 694 320 738 304 786L266 780C228 732 194 695 144 646ZM272 786ZM218 530Z" glyph-name="jcircumflex.sc" horiz-adv-x="210" /><glyph d="M111 0C111 209 238 563 238 755L189 745L181 609L132 380C85 161 71 72 71 0ZM449 429C449 472 425 505 373 505C295 505 207 430 154 286H143L92 85L111 0C118 207 240 469 359 469C390 469 406 451 406 421C406 340 294 270 205 225C249 138 300 57 349 0H401C347 57 286 150 252 209C348 258 449 343 449 429ZM294 495ZM222 0Z" glyph-name="k" horiz-adv-x="474" unicode="k" /><glyph d="M67 -70C64 93 167 369 164 519L121 511L116 405L78 226C46 75 30 -13 32 -70ZM351 262C351 297 329 324 284 324C216 324 142 265 99 156H90L49 -1L67 -70C70 91 170 294 272 294C298 294 313 280 313 255C313 195 221 141 144 104C183 37 231 -27 271 -70H317C270 -25 218 45 186 94C266 131 351 196 351 262ZM216 316ZM133 -70Z" glyph-name="k.inferior" horiz-adv-x="401" /><glyph d="M173 421 84 0H122L175 250H269C393 40 365 87 421 -8L463 0L298 285L297 265L558 532L554 537L528 547C432 447 349 362 273 284H182L237 542L234 547L193 539C186 480 182 468 173 421ZM341 495ZM239 15Z" glyph-name="k.sc" horiz-adv-x="472" /><glyph d="M144 290C141 453 244 729 241 879L198 871L193 765L155 586C123 435 107 347 109 290ZM428 622C428 657 406 684 361 684C293 684 219 625 176 516H167L126 359L144 290C147 451 247 654 349 654C375 654 390 640 390 615C390 555 298 501 221 464C260 397 308 333 348 290H394C347 335 295 405 263 454C343 491 428 556 428 622ZM293 676ZM210 290Z" glyph-name="k.superior" horiz-adv-x="402" /><glyph d="M111 0C111 209 238 563 238 755L189 745L181 609L132 380C85 161 71 72 71 0ZM449 429C449 472 425 505 373 505C295 505 207 430 154 286H143L92 85L111 0C118 207 240 469 359 469C390 469 406 451 406 421C406 340 294 270 205 225C249 138 300 57 349 0H401C347 57 286 150 252 209C348 258 449 343 449 429ZM294 495ZM222 0ZM125 -273 134 -282C186 -244 242 -156 242 -113C242 -94 230 -83 210 -83C184 -83 158 -111 158 -138C158 -157 172 -168 193 -168L194 -136C185 -175 152 -240 125 -273ZM222 0ZM162 -282Z" glyph-name="kcommaaccent" horiz-adv-x="474" unicode="&#311;" /><glyph d="M173 421 84 0H122L175 250H269C393 40 365 87 421 -8L463 0L298 285L297 265L558 532L554 537L528 547C432 447 349 362 273 284H182L237 542L234 547L193 539C186 480 182 468 173 421ZM341 495ZM239 15ZM142 -258 151 -267C203 -229 259 -141 259 -98C259 -79 247 -68 227 -68C201 -68 175 -96 175 -123C175 -142 189 -153 210 -153L211 -121C202 -160 169 -225 142 -258ZM239 15ZM179 -267Z" glyph-name="kcommaaccent.sc" horiz-adv-x="472" /><glyph d="M111 0C118 195 161 325 165 345C177 405 185 464 185 505L136 495L128 359C84 161 72 82 71 0ZM449 429C449 472 425 505 373 505C295 505 207 430 154 286H143L92 85L111 0C118 207 240 469 359 469C390 469 406 451 406 421C406 340 294 270 205 225C249 138 300 57 349 0H401C347 57 286 150 252 209C348 258 449 343 449 429Z" glyph-name="kgreenlandic" horiz-adv-x="474" unicode="&#312;" /><glyph d="M173 421 84 0H122L175 250H269C393 40 365 87 421 -8L463 0L298 285L297 265L558 532L554 537L528 547C432 447 349 362 273 284H182L237 542L234 547L193 539C186 480 182 468 173 421ZM341 495ZM239 15Z" glyph-name="kgreenlandic.sc" horiz-adv-x="472" /><glyph d="M111 0C111 209 238 563 238 755L189 745L181 609L132 380C85 161 71 72 71 0ZM88 0ZM217 734ZM309 495ZM179 495Z" glyph-name="l" horiz-adv-x="240" unicode="l" /><glyph d="M67 -70C64 93 167 369 164 519L121 511L116 405L78 226C46 75 30 -13 32 -70ZM32 -70ZM145 503ZM229 317ZM117 314Z" glyph-name="l.inferior" horiz-adv-x="200" /><glyph d="M124 0 239 542 235 547 193 539C189 502 182 461 174 422L84 0ZM386 37 129 33 124 0H378ZM235 15ZM253 530ZM353 320ZM195 261Z" glyph-name="l.sc" horiz-adv-x="399" /><glyph d="M144 290C141 453 244 729 241 879L198 871L193 765L155 586C123 435 107 347 109 290ZM109 290ZM222 863ZM306 677ZM194 674Z" glyph-name="l.superior" horiz-adv-x="201" /><glyph d="M111 0C111 209 238 563 238 755L189 745L181 609L132 380C85 161 71 72 71 0ZM88 0ZM217 734ZM309 495ZM179 495ZM335 892 311 916C264 879 208 846 153 818L158 805C218 823 276 848 335 886ZM256 916ZM217 734Z" glyph-name="lacute" horiz-adv-x="240" unicode="&#314;" /><glyph d="M124 0 239 542 235 547 193 539C189 502 182 461 174 422L84 0ZM386 37 129 33 124 0H378ZM235 15ZM253 530ZM353 320ZM195 261ZM361 780 318 782C292 733 255 683 215 636L226 628C278 670 324 718 365 775ZM306 782ZM253 530Z" glyph-name="lacute.sc" horiz-adv-x="399" /><glyph d="M111 0C111 209 238 563 238 755L189 745L181 609L132 380C85 161 71 72 71 0ZM88 0ZM217 734ZM309 495ZM179 495ZM369 758H326C298 687 271 631 245 579H263C300 629 338 690 373 753ZM309 495Z" glyph-name="lcaron" horiz-adv-x="240" unicode="&#318;" /><glyph d="M124 0 239 542 235 547 193 539C189 502 182 461 174 422L84 0ZM386 37 129 33 124 0H378ZM235 15ZM253 530ZM353 320ZM195 261ZM413 583H370C342 512 315 456 289 404H307C344 454 382 515 417 578ZM353 320Z" glyph-name="lcaron.sc" horiz-adv-x="399" /><glyph d="M111 0C111 209 238 563 238 755L189 745L181 609L132 380C85 161 71 72 71 0ZM88 0ZM217 734ZM309 495ZM179 495ZM-9 -273 0 -282C52 -244 108 -156 108 -113C108 -94 96 -83 76 -83C50 -83 24 -111 24 -138C24 -157 38 -168 59 -168L60 -136C51 -175 18 -240 -9 -273ZM88 0ZM28 -282Z" glyph-name="lcommaaccent" horiz-adv-x="240" unicode="&#316;" /><glyph d="M124 0 239 542 235 547 193 539C189 502 182 461 174 422L84 0ZM386 37 129 33 124 0H378ZM235 15ZM253 530ZM353 320ZM195 261ZM138 -258 147 -267C199 -229 255 -141 255 -98C255 -79 243 -68 223 -68C197 -68 171 -96 171 -123C171 -142 185 -153 206 -153L207 -121C198 -160 165 -225 138 -258ZM235 15ZM175 -267Z" glyph-name="lcommaaccent.sc" horiz-adv-x="399" /><glyph d="M111 0C111 209 238 563 238 755L189 745L181 609L132 380C85 161 71 72 71 0ZM88 0ZM217 734ZM309 495ZM179 495ZM352 328C352 347 339 360 320 360C293 360 265 332 265 303C265 283 280 270 298 270C325 270 352 299 352 328Z" glyph-name="ldot" horiz-adv-x="412" unicode="&#320;" /><glyph d="M124 0 239 542 235 547 193 539C189 502 182 461 174 422L84 0ZM386 37 129 33 124 0H378ZM235 15ZM253 530ZM353 320ZM195 261ZM363 262C363 279 355 290 338 290C313 290 289 259 289 230C289 213 298 200 315 200C345 200 363 235 363 262ZM351 339ZM295 79Z" glyph-name="ldot.sc" horiz-adv-x="399" /><glyph d="M528 484 66 276 61 249 63 243C145 197 345 96 435 53L444 93L121 259L518 439Z" glyph-name="less" horiz-adv-x="520" unicode="&lt;" /><glyph d="M528 561 66 353 61 326 63 320C145 274 345 173 435 130L444 170L121 336L518 516Z" glyph-name="less.lf" horiz-adv-x="519" /><glyph d="M528 561 66 353 61 326 63 320C145 274 345 173 435 130L444 170L121 336L518 516Z" glyph-name="less.osf" horiz-adv-x="519" /><glyph d="M528 484 66 276 61 249 63 243C145 197 345 96 435 53L444 93L121 259L518 439Z" glyph-name="less.sc" horiz-adv-x="600" /><glyph d="M120 358 536 491 545 531C413 491 165 410 70 376L64 370L59 344L469 173L478 213ZM436 23 447 58 444 63C338 63 96 61 -7 58L-14 23Z" glyph-name="lessequal" horiz-adv-x="520" unicode="&#8804;" /><glyph d="M137 438 553 571 562 611C430 571 182 490 87 456L81 450L76 424L486 253L495 293ZM453 103 464 138 461 143C355 143 113 141 10 138L3 103Z" glyph-name="lessequal.lf" horiz-adv-x="520" /><glyph d="M137 438 553 571 562 611C430 571 182 490 87 456L81 450L76 424L486 253L495 293ZM453 103 464 138 461 143C355 143 113 141 10 138L3 103Z" glyph-name="lessequal.osf" horiz-adv-x="520" /><glyph d="M120 358 536 491 545 531C413 491 165 410 70 376L64 370L59 344L469 173L478 213ZM436 23 447 58 444 63C338 63 96 61 -7 58L-14 23Z" glyph-name="lessequal.sc" horiz-adv-x="520" /><glyph d="M490 305 484 313C384 313 152 311 54 308L47 273H442L404 96H444Z" glyph-name="logicalnot" horiz-adv-x="520" unicode="&#172;" /><glyph d="M506 381 500 389C400 389 168 387 70 384L63 349H458L420 172H460Z" glyph-name="logicalnot.lf" horiz-adv-x="520" /><glyph d="M506 381 500 389C400 389 168 387 70 384L63 349H458L420 172H460Z" glyph-name="logicalnot.osf" horiz-adv-x="520" /><glyph d="M490 305 484 313C384 313 152 311 54 308L47 273H442L404 96H444Z" glyph-name="logicalnot.sc" horiz-adv-x="520" /><glyph d="M1065 110H942L777 398L712 291L879 0H1003ZM653 690 715 581 549 291H673L839 581L777 690ZM363 37 424 148H755L693 254H363L300 148ZM1150 254H1025L859 545L797 435L963 148H1088ZM487 690 549 581 382 291H506L673 581L611 690ZM444 -107 506 0H839L777 110H444L382 0ZM1516 0H1272V277C1272 317 1272 350 1266 381L1361 387L1372 375V74L1516 76ZM1708 -5C1700 6 1697 20 1691 31H1688C1674 11 1644 -5 1610 -5C1567 -5 1536 17 1536 62C1536 124 1596 151 1680 154V169C1680 179 1680 209 1637 209C1613 209 1581 200 1553 186L1550 263C1576 271 1624 282 1667 282C1745 282 1782 246 1782 169C1782 151 1780 104 1780 75C1780 45 1782 17 1791 0ZM1680 124C1656 122 1633 107 1633 79C1633 62 1644 51 1661 51C1670 51 1674 54 1680 57ZM1892 99C1921 82 1971 74 2000 74C2028 74 2041 82 2041 102C2041 136 2003 148 1963 167C1925 185 1889 212 1889 271C1889 345 1952 387 2037 387C2077 387 2113 378 2132 373L2121 285C2096 299 2064 309 2038 309C2008 309 1994 296 1994 277C1994 248 2026 236 2066 215C2106 194 2146 169 2146 109C2146 34 2084 -5 1997 -5C1958 -5 1906 3 1886 17ZM2341 -5C2335 6 2330 20 2327 31H2324C2307 11 2279 -5 2244 -5C2202 -5 2169 17 2169 63C2169 124 2227 151 2316 154V169C2316 195 2302 209 2271 209C2245 209 2213 200 2189 186L2183 263C2211 271 2255 282 2299 282C2378 282 2414 246 2414 169C2414 151 2412 100 2412 79C2412 46 2417 17 2423 0ZM2316 124C2287 122 2265 107 2265 79C2265 62 2276 51 2293 51C2302 51 2310 54 2316 57ZM2460 409 2555 418 2568 406V0H2468V312C2468 345 2465 373 2460 409ZM2615 409 2711 418 2723 406V0H2623V312C2623 345 2620 373 2615 409ZM3018 136 3010 127H2863C2871 82 2898 65 2939 65C2962 65 2984 71 3001 79L3007 17C2990 6 2956 -5 2912 -5C2821 -5 2759 45 2759 133C2759 220 2821 282 2901 282C2973 282 3018 232 3018 164C3018 156 3018 145 3018 136ZM2920 162C2923 167 2923 172 2923 181C2923 204 2918 226 2896 226C2872 226 2860 199 2860 159ZM1309 687V562C1309 533 1322 517 1344 517C1367 517 1381 533 1381 562V647C1381 661 1381 673 1378 687L1418 690V559C1418 515 1384 492 1341 492C1303 492 1272 515 1272 559V639C1272 656 1272 670 1269 687L1303 690ZM1610 495H1577V584C1577 603 1570 610 1556 610C1545 610 1533 606 1525 600V495H1492V584C1492 601 1491 613 1487 630L1516 636C1519 632 1523 623 1525 615C1536 628 1553 636 1570 636C1593 636 1610 621 1610 593ZM1777 633 1814 636 1833 564C1838 545 1841 530 1843 517C1845 531 1850 545 1855 564L1875 636L1903 633V630L1858 492H1822ZM1983 559C1983 528 2000 515 2022 515C2035 515 2047 520 2058 526L2061 503C2052 498 2035 492 2014 492C1971 492 1946 515 1946 562C1946 607 1974 636 2011 636C2044 636 2064 612 2064 579C2064 573 2064 567 2064 564L2058 559ZM2031 573C2031 576 2031 579 2031 584C2031 601 2022 615 2008 615C1994 615 1983 598 1980 573ZM2212 598C2207 598 2203 601 2196 601C2188 601 2174 598 2165 590V495H2132V584C2132 601 2132 612 2127 630L2157 636C2160 630 2164 618 2166 607C2175 624 2188 636 2202 636C2207 636 2212 635 2215 633ZM2297 597C2297 568 2361 574 2361 531C2361 506 2341 492 2304 492C2290 492 2271 495 2259 501L2262 528C2279 518 2297 516 2306 516C2320 516 2326 521 2326 529C2326 554 2262 550 2262 593C2262 618 2282 636 2317 636C2331 636 2344 633 2358 627L2355 601C2341 608 2327 612 2316 612C2304 612 2297 606 2297 597ZM2458 636 2461 633V495H2428V584C2428 601 2428 615 2425 633ZM2792 559C2770 556 2754 547 2754 531C2754 520 2759 512 2770 512C2777 512 2787 515 2792 520ZM2795 509C2788 501 2771 492 2752 492C2731 492 2716 504 2716 525C2716 557 2752 570 2792 570V584C2792 601 2784 610 2767 610C2754 610 2740 604 2726 595L2723 624C2737 630 2756 636 2776 636C2809 636 2829 619 2829 587C2829 574 2826 545 2826 531C2826 517 2829 506 2835 495L2804 492C2801 495 2798 501 2795 509ZM2422 684C2422 698 2430 708 2444 708C2456 708 2464 700 2464 688C2464 674 2456 664 2442 664C2429 664 2422 673 2422 684ZM2996 492C2993 495 2990 501 2987 509C2978 498 2965 492 2948 492C2917 492 2894 517 2894 559C2894 607 2926 636 2967 636C2975 636 2981 635 2985 634V656C2985 673 2984 687 2982 704L3016 706L3018 704V531C3018 517 3021 506 3027 495ZM2985 613C2979 615 2976 615 2972 615C2945 615 2932 598 2932 562C2932 531 2942 512 2962 512C2973 512 2979 515 2985 520ZM2629 492C2626 495 2623 501 2620 509C2611 498 2598 492 2581 492C2550 492 2527 517 2527 559C2527 607 2559 636 2600 636C2608 636 2614 635 2618 634V656C2618 673 2617 687 2615 704L2649 706L2651 704V531C2651 517 2654 506 2660 495ZM2618 613C2612 615 2609 615 2605 615C2578 615 2565 598 2565 562C2565 531 2575 512 2595 512C2606 512 2612 515 2618 520ZM1713 636 1716 633V495H1683V584C1683 601 1683 615 1680 633ZM1677 684C1677 698 1685 708 1699 708C1711 708 1719 700 1719 688C1719 674 1711 664 1697 664C1684 664 1677 673 1677 684Z" glyph-name="logo1" horiz-adv-x="3327" /></font>
</defs>
</svg>
