<?xml version="1.0" standalone="no"?><!DOCTYPE svg PUBLIC "-//W3C//DTD SVG 1.1//EN" "http://www.w3.org/Graphics/SVG/1.1/DTD/svg11.dtd" ><svg version="1.1" xmlns="http://www.w3.org/2000/svg"><defs><font horiz-adv-x="0" id="font"><font-face ascent="750" bbox="-115 -334 3477 1185" cap-height="690" descent="-250" font-family="Indivisa Text Sans" font-stretch="normal" font-style="italic" font-weight="900" units-per-em="1000" x-height="500" /><missing-glyph d="M88 0H568L728 750H248ZM137 40 279 710H679L537 40ZM656 729 115 23H160L701 729ZM265 729 506 23H551L310 729Z" horiz-adv-x="680.5826" /><glyph d="M493 260H177L149 130H465ZM147 0 294 305C340 401 382 498 400 542H405C403 497 403 417 409 304L427 0H612L562 674L537 699L311 690C300 661 282 621 261 580L-28 0ZM594 10ZM290 0ZM423 700Z" glyph-name="A" horiz-adv-x="690" unicode="A" /><glyph d="M548 260H232L205 130H521ZM147 0 342 305C402 399 459 494 485 542H490C482 499 465 417 448 304L402 0H587L668 674L646 690H421C414 678 383 625 353 580L-28 0ZM932 690H638L610 560L918 550L947 670ZM857 404 626 399 601 284 825 277ZM881 140 589 130 561 0H851ZM609 700ZM422 0Z" glyph-name="AE" horiz-adv-x="939" unicode="&#198;" /><glyph d="M548 260H232L205 130H521ZM147 0 342 305C402 399 459 494 485 542H490C482 499 465 417 448 304L402 0H587L668 674L646 690H421C414 678 383 625 353 580L-28 0ZM932 690H638L610 560L918 550L947 670ZM857 404 626 399 601 284 825 277ZM881 140 589 130 561 0H851ZM609 700ZM422 0ZM774 839 684 921C627 866 559 813 495 769L513 722C598 740 683 770 766 807ZM656 921ZM609 700Z" glyph-name="AEacute" horiz-adv-x="939" unicode="&#508;" /><glyph d="M493 260H177L149 130H465ZM147 0 294 305C340 401 382 498 400 542H405C403 497 403 417 409 304L427 0H612L562 674L537 699L311 690C300 661 282 621 261 580L-28 0ZM594 10ZM290 0ZM423 700ZM588 839 498 921C441 866 373 813 309 769L327 722C412 740 497 770 580 807ZM470 921ZM423 700Z" glyph-name="Aacute" horiz-adv-x="690" unicode="&#193;" /><glyph d="M493 260H177L149 130H465ZM147 0 294 305C340 401 382 498 400 542H405C403 497 403 417 409 304L427 0H612L562 674L537 699L311 690C300 661 282 621 261 580L-28 0ZM594 10ZM290 0ZM423 700ZM406 724C509 724 589 806 618 916L547 907C528 864 489 832 435 832C383 832 356 860 355 908L283 898C265 790 320 724 406 724ZM469 916ZM423 700Z" glyph-name="Abreve" horiz-adv-x="690" unicode="&#258;" /><glyph d="M493 260H177L149 130H465ZM147 0 294 305C340 401 382 498 400 542H405C403 497 403 417 409 304L427 0H612L562 674L537 699L311 690C300 661 282 621 261 580L-28 0ZM594 10ZM290 0ZM423 700ZM580 912C524 882 468 848 423 820H454C418 850 376 881 331 912L260 879C293 825 314 777 337 731L506 741C546 783 582 825 637 879ZM468 912ZM423 700Z" glyph-name="Acaron" horiz-adv-x="690" unicode="&#461;" /><glyph d="M493 260H177L149 130H465ZM147 0 294 305C340 401 382 498 400 542H405C403 497 403 417 409 304L427 0H612L562 674L537 699L311 690C300 661 282 621 261 580L-28 0ZM594 10ZM290 0ZM423 700ZM317 731C373 761 429 795 474 823H443C479 793 521 762 566 731L637 764C604 818 583 866 560 912L391 902C351 860 315 818 260 764ZM468 912ZM423 700Z" glyph-name="Acircumflex" horiz-adv-x="690" unicode="&#194;" /><glyph d="M493 260H177L149 130H465ZM147 0 294 305C340 401 382 498 400 542H405C403 497 403 417 409 304L427 0H612L562 674L537 699L311 690C300 661 282 621 261 580L-28 0ZM594 10ZM290 0ZM423 700ZM420 851C420 889 394 914 353 914C288 914 222 854 222 794C222 757 248 729 293 729C358 729 420 789 420 851ZM675 851C675 889 649 914 608 914C543 914 477 854 477 794C477 757 503 729 548 729C613 729 675 789 675 851ZM468 914ZM423 700Z" glyph-name="Adieresis" horiz-adv-x="690" unicode="&#196;" /><glyph d="M493 260H177L149 130H465ZM147 0 294 305C340 401 382 498 400 542H405C403 497 403 417 409 304L427 0H612L562 674L537 699L311 690C300 661 282 621 261 580L-28 0ZM594 10ZM290 0ZM423 700ZM368 -133C368 -89 338 -63 294 -63C225 -63 151 -126 151 -192C151 -234 181 -263 229 -263C300 -263 368 -199 368 -133ZM281 -63ZM224 -332ZM290 0ZM237 -246Z" glyph-name="Adotbelow" horiz-adv-x="690" unicode="&#7840;" /><glyph d="M493 260H177L149 130H465ZM147 0 294 305C340 401 382 498 400 542H405C403 497 403 417 409 304L427 0H612L562 674L537 699L311 690C300 661 282 621 261 580L-28 0ZM594 10ZM290 0ZM423 700ZM538 722 576 769C528 815 486 864 451 921L327 839L321 807C388 769 461 741 538 722ZM470 921ZM423 700Z" glyph-name="Agrave" horiz-adv-x="690" unicode="&#192;" /><glyph d="M493 260H177L149 130H465ZM147 0 294 305C340 401 382 498 400 542H405C403 497 403 417 409 304L427 0H612L562 674L537 699L311 690C300 661 282 621 261 580L-28 0ZM594 10ZM290 0ZM423 700ZM272 767H602L625 877H295ZM460 877ZM423 700Z" glyph-name="Amacron" horiz-adv-x="690" unicode="&#256;" /><glyph d="M612 0 530 19C401 -11 301 -84 301 -169C301 -217 339 -250 403 -250C461 -250 520 -221 561 -182L554 -136C531 -150 513 -156 500 -156C468 -156 457 -138 457 -115C457 -70 511 -12 612 0ZM493 260H177L149 130H465ZM147 0 294 305C340 401 382 498 400 542H405C403 497 403 417 409 304L427 0H612L562 674L537 699L311 690C300 661 282 621 261 580L-28 0ZM594 10ZM290 0ZM423 700Z" glyph-name="Aogonek" horiz-adv-x="690" unicode="&#260;" /><glyph d="M493 260H177L149 130H465ZM147 0 294 305C340 401 382 498 400 542H405C403 497 403 417 409 304L427 0H612L562 674L537 699L311 690C300 661 282 621 261 580L-28 0ZM594 10ZM290 0ZM423 700ZM581 853C581 899 543 928 487 928C402 928 318 861 318 795C318 752 354 717 417 717C501 717 581 783 581 853ZM401 812C401 836 433 859 463 859C483 859 498 849 498 833C498 809 467 786 437 786C415 786 401 797 401 812ZM472 928ZM423 700Z" glyph-name="Aring" horiz-adv-x="690" unicode="&#197;" /><glyph d="M493 260H177L149 130H465ZM147 0 294 305C340 401 382 498 400 542H405C403 497 403 417 409 304L427 0H612L562 674L537 699L311 690C300 661 282 621 261 580L-28 0ZM594 10ZM290 0ZM423 700ZM581 853C581 899 543 928 487 928C402 928 318 861 318 795C318 752 354 717 417 717C501 717 581 783 581 853ZM401 812C401 836 433 859 463 859C483 859 498 849 498 833C498 809 467 786 437 786C415 786 401 797 401 812ZM472 928ZM423 700ZM637 1067 547 1149C490 1094 422 1041 358 997L376 950C461 968 546 998 629 1035ZM519 1149ZM472 928Z" glyph-name="Aringacute" horiz-adv-x="690" unicode="&#506;" /><glyph d="M493 260H177L149 130H465ZM147 0 294 305C340 401 382 498 400 542H405C403 497 403 417 409 304L427 0H612L562 674L537 699L311 690C300 661 282 621 261 580L-28 0ZM594 10ZM290 0ZM423 700ZM399 910C319 910 276 825 259 746L302 739C325 772 343 784 361 784C402 784 446 732 502 732C572 732 621 815 638 896L595 903C574 875 559 858 533 858C487 858 461 910 399 910ZM467 910ZM423 700Z" glyph-name="Atilde" horiz-adv-x="690" unicode="&#195;" /><glyph d="M208 0 355 690H164C160 627 149 571 136 511L27 0ZM291 0C449 0 598 89 598 229C598 296 564 336 500 360C584 393 638 459 638 539C638 629 570 690 443 690H345L317 565H384C431 565 453 543 453 503C453 452 417 403 350 403H284L259 291H335C389 291 415 268 415 226C415 170 369 125 300 125H214L188 0Z" glyph-name="B" horiz-adv-x="637" unicode="B" /><glyph d="M526 178C483 157 425 140 375 140C289 140 245 190 245 289C245 408 309 550 425 550C466 550 519 533 557 505L625 660C591 683 521 700 455 700C222 700 50 488 50 253C50 79 145 -10 320 -10C387 -10 455 3 515 30ZM418 700ZM259 0Z" glyph-name="C" horiz-adv-x="587" unicode="C" /><glyph d="M526 178C483 157 425 140 375 140C289 140 245 190 245 289C245 408 309 550 425 550C466 550 519 533 557 505L625 660C591 683 521 700 455 700C222 700 50 488 50 253C50 79 145 -10 320 -10C387 -10 455 3 515 30ZM418 700ZM259 0ZM583 839 493 921C436 866 368 813 304 769L322 722C407 740 492 770 575 807ZM465 921ZM418 700Z" glyph-name="Cacute" horiz-adv-x="587" unicode="&#262;" /><glyph d="M526 178C483 157 425 140 375 140C289 140 245 190 245 289C245 408 309 550 425 550C466 550 519 533 557 505L625 660C591 683 521 700 455 700C222 700 50 488 50 253C50 79 145 -10 320 -10C387 -10 455 3 515 30ZM418 700ZM259 0ZM575 912C519 882 463 848 418 820H449C413 850 371 881 326 912L255 879C288 825 309 777 332 731L501 741C541 783 577 825 632 879ZM463 912ZM418 700Z" glyph-name="Ccaron" horiz-adv-x="587" unicode="&#268;" /><glyph d="M526 178C483 157 425 140 375 140C289 140 245 190 245 289C245 408 309 550 425 550C466 550 519 533 557 505L625 660C591 683 521 700 455 700C222 700 50 488 50 253C50 79 145 -10 320 -10C387 -10 455 3 515 30ZM418 700ZM259 0ZM123 -190 105 -250C253 -250 370 -182 370 -97C370 -56 334 -38 295 -38C240 -38 187 -72 152 -100L165 -130C188 -122 202 -118 215 -118C232 -118 239 -125 239 -135C239 -163 190 -187 123 -190ZM248 43 152 -100 243 -77 341 43ZM259 0ZM206 -250Z" glyph-name="Ccedilla" horiz-adv-x="587" unicode="&#199;" /><glyph d="M526 178C483 157 425 140 375 140C289 140 245 190 245 289C245 408 309 550 425 550C466 550 519 533 557 505L625 660C591 683 521 700 455 700C222 700 50 488 50 253C50 79 145 -10 320 -10C387 -10 455 3 515 30ZM418 700ZM259 0ZM312 731C368 761 424 795 469 823H438C474 793 516 762 561 731L632 764C599 818 578 866 555 912L386 902C346 860 310 818 255 764ZM463 912ZM418 700Z" glyph-name="Ccircumflex" horiz-adv-x="587" unicode="&#264;" /><glyph d="M526 178C483 157 425 140 375 140C289 140 245 190 245 289C245 408 309 550 425 550C466 550 519 533 557 505L625 660C591 683 521 700 455 700C222 700 50 488 50 253C50 79 145 -10 320 -10C387 -10 455 3 515 30ZM418 700ZM259 0ZM555 853C555 893 526 915 477 915C401 915 333 858 333 794C333 756 361 729 415 729C490 729 555 787 555 853ZM464 915ZM418 700Z" glyph-name="Cdotaccent" horiz-adv-x="587" unicode="&#266;" /><glyph d="M213 0 359 690H164C161 628 152 585 136 511L28 0ZM698 427C698 607 599 690 418 690H241L214 560H381C476 560 505 502 505 411C505 282 447 130 295 130H128L101 0H252C545 0 698 204 698 427ZM235 345ZM291 0ZM449 700Z" glyph-name="D" horiz-adv-x="710" unicode="D" /><glyph d="M213 0 359 690H164C161 628 152 585 136 511L28 0ZM698 427C698 607 599 690 418 690H241L214 560H381C476 560 505 502 505 411C505 282 447 130 295 130H128L101 0H252C545 0 698 204 698 427ZM235 345ZM291 0ZM449 700ZM606 912C550 882 494 848 449 820H480C444 850 402 881 357 912L286 879C319 825 340 777 363 731L532 741C572 783 608 825 663 879ZM494 912ZM449 700Z" glyph-name="Dcaron" horiz-adv-x="710" unicode="&#270;" /><glyph d="M213 0 359 690H164C161 628 152 585 136 511L28 0ZM698 427C698 607 599 690 418 690H241L214 560H381C476 560 505 502 505 411C505 282 447 130 295 130H128L101 0H252C545 0 698 204 698 427ZM235 345ZM291 0ZM449 700ZM418 300 437 390H51L32 300ZM235 345Z" glyph-name="Dcroat" horiz-adv-x="710" unicode="&#272;" /><glyph d="M213 0 359 690H164C161 628 152 585 136 511L28 0ZM698 427C698 607 599 690 418 690H241L214 560H381C476 560 505 502 505 411C505 282 447 130 295 130H128L101 0H252C545 0 698 204 698 427ZM235 345ZM291 0ZM449 700ZM369 -133C369 -89 339 -63 295 -63C226 -63 152 -126 152 -192C152 -234 182 -263 230 -263C301 -263 369 -199 369 -133ZM282 -63ZM225 -332ZM291 0ZM238 -246Z" glyph-name="Ddotbelow" horiz-adv-x="710" unicode="&#7692;" /><glyph d="M336 690 -24 20 -26 0H610L616 20L546 690ZM414 24 427 134H178L145 25L406 549L377 550Z" glyph-name="Delta" horiz-adv-x="690" unicode="&#916;" /><glyph d="M212 0 359 690H164C161 627 149 571 136 511L28 0ZM613 690H349L329 560L600 550L629 670ZM519 404 297 399 272 284 487 277ZM522 140 234 130 204 0H493ZM460 10ZM395 700ZM129 690ZM259 0Z" glyph-name="E" horiz-adv-x="581" unicode="E" /><glyph d="M212 0 359 690H164C161 627 149 571 136 511L28 0ZM613 690H349L329 560L600 550L629 670ZM519 404 297 399 272 284 487 277ZM522 140 234 130 204 0H493ZM460 10ZM395 700ZM129 690ZM259 0ZM560 839 470 921C413 866 345 813 281 769L299 722C384 740 469 770 552 807ZM442 921ZM395 700Z" glyph-name="Eacute" horiz-adv-x="581" unicode="&#201;" /><glyph d="M212 0 359 690H164C161 627 149 571 136 511L28 0ZM613 690H349L329 560L600 550L629 670ZM519 404 297 399 272 284 487 277ZM522 140 234 130 204 0H493ZM460 10ZM395 700ZM129 690ZM259 0ZM378 724C481 724 561 806 590 916L519 907C500 864 461 832 407 832C355 832 328 860 327 908L255 898C237 790 292 724 378 724ZM441 916ZM395 700Z" glyph-name="Ebreve" horiz-adv-x="581" unicode="&#276;" /><glyph d="M212 0 359 690H164C161 627 149 571 136 511L28 0ZM613 690H349L329 560L600 550L629 670ZM519 404 297 399 272 284 487 277ZM522 140 234 130 204 0H493ZM460 10ZM395 700ZM129 690ZM259 0ZM552 912C496 882 440 848 395 820H426C390 850 348 881 303 912L232 879C265 825 286 777 309 731L478 741C518 783 554 825 609 879ZM440 912ZM395 700Z" glyph-name="Ecaron" horiz-adv-x="581" unicode="&#282;" /><glyph d="M212 0 359 690H164C161 627 149 571 136 511L28 0ZM613 690H349L329 560L600 550L629 670ZM519 404 297 399 272 284 487 277ZM522 140 234 130 204 0H493ZM460 10ZM395 700ZM129 690ZM259 0ZM289 731C345 761 401 795 446 823H415C451 793 493 762 538 731L609 764C576 818 555 866 532 912L363 902C323 860 287 818 232 764ZM440 912ZM395 700Z" glyph-name="Ecircumflex" horiz-adv-x="581" unicode="&#202;" /><glyph d="M212 0 359 690H164C161 627 149 571 136 511L28 0ZM613 690H349L329 560L600 550L629 670ZM519 404 297 399 272 284 487 277ZM522 140 234 130 204 0H493ZM460 10ZM395 700ZM129 690ZM259 0ZM392 851C392 889 366 914 325 914C260 914 194 854 194 794C194 757 220 729 265 729C330 729 392 789 392 851ZM647 851C647 889 621 914 580 914C515 914 449 854 449 794C449 757 475 729 520 729C585 729 647 789 647 851ZM440 914ZM395 700Z" glyph-name="Edieresis" horiz-adv-x="581" unicode="&#203;" /><glyph d="M212 0 359 690H164C161 627 149 571 136 511L28 0ZM613 690H349L329 560L600 550L629 670ZM519 404 297 399 272 284 487 277ZM522 140 234 130 204 0H493ZM460 10ZM395 700ZM129 690ZM259 0ZM532 853C532 893 503 915 454 915C378 915 310 858 310 794C310 756 338 729 392 729C467 729 532 787 532 853ZM441 915ZM395 700Z" glyph-name="Edotaccent" horiz-adv-x="581" unicode="&#278;" /><glyph d="M212 0 359 690H164C161 627 149 571 136 511L28 0ZM613 690H349L329 560L600 550L629 670ZM519 404 297 399 272 284 487 277ZM522 140 234 130 204 0H493ZM460 10ZM395 700ZM129 690ZM259 0ZM337 -133C337 -89 307 -63 263 -63C194 -63 120 -126 120 -192C120 -234 150 -263 198 -263C269 -263 337 -199 337 -133ZM250 -63ZM193 -332ZM259 0ZM206 -246Z" glyph-name="Edotbelow" horiz-adv-x="581" unicode="&#7864;" /><glyph d="M212 0 359 690H164C161 627 149 571 136 511L28 0ZM613 690H349L329 560L600 550L629 670ZM519 404 297 399 272 284 487 277ZM522 140 234 130 204 0H493ZM460 10ZM395 700ZM129 690ZM259 0ZM510 722 548 769C500 815 458 864 423 921L299 839L293 807C360 769 433 741 510 722ZM442 921ZM395 700Z" glyph-name="Egrave" horiz-adv-x="581" unicode="&#200;" /><glyph d="M212 0 359 690H164C161 627 149 571 136 511L28 0ZM613 690H349L329 560L600 550L629 670ZM519 404 297 399 272 284 487 277ZM522 140 234 130 204 0H493ZM460 10ZM395 700ZM129 690ZM259 0ZM244 767H574L597 877H267ZM432 877ZM395 700Z" glyph-name="Emacron" horiz-adv-x="581" unicode="&#274;" /><glyph d="M358 -202C543 -121 599 -33 637 140L434 57C415 -33 382 -76 320 -140ZM440 441C414 512 395 565 350 697L164 690C159 636 149 575 136 511L27 0H202L254 243C267 302 277 358 281 435H284C302 358 320 308 341 253C368 183 393 100 432 0L637 140L751 678L735 698L569 690C560 617 547 540 527 447C510 367 504 323 497 246H494C481 315 461 384 440 441Z" glyph-name="Eng" horiz-adv-x="730" unicode="&#330;" /><glyph d="M493 0 442 20C261 -27 167 -93 167 -169C167 -217 205 -250 269 -250C327 -250 386 -221 427 -182L420 -136C392 -150 370 -156 354 -156C331 -156 323 -145 323 -131C323 -94 387 -46 493 0ZM212 0 359 690H164C161 627 149 571 136 511L28 0ZM613 690H349L329 560L600 550L629 670ZM519 404 297 399 272 284 487 277ZM522 140 234 130 204 0H493ZM460 10ZM395 700ZM129 690ZM259 0ZM460 10Z" glyph-name="Eogonek" horiz-adv-x="581" unicode="&#280;" /><glyph d="M213 0 359 690H164C161 628 152 585 136 511L28 0ZM698 427C698 607 599 690 418 690H241L214 560H381C476 560 505 502 505 411C505 282 447 130 295 130H128L101 0H252C545 0 698 204 698 427ZM235 345ZM291 0ZM449 700ZM418 300 437 390H51L32 300ZM235 345Z" glyph-name="Eth" horiz-adv-x="710" unicode="&#208;" /><glyph d="M212 0 359 690H164C161 627 149 571 136 511L28 0ZM613 690H349L329 560L600 550L629 670ZM519 404 297 399 272 284 487 277ZM522 140 234 130 204 0H493ZM460 10ZM395 700ZM129 690ZM259 0ZM371 910C291 910 248 825 231 746L274 739C297 772 315 784 333 784C374 784 418 732 474 732C544 732 593 815 610 896L567 903C546 875 531 858 505 858C459 858 433 910 371 910ZM439 910ZM395 700Z" glyph-name="Etilde" horiz-adv-x="581" unicode="&#7868;" /><glyph d="M213 0 359 690H164C161 627 149 571 136 511L28 0ZM593 690H349L322 560L580 550L609 670ZM494 384 288 379 259 264 462 257Z" glyph-name="F" horiz-adv-x="540" unicode="F" /><glyph d="M571 168C522 143 430 130 382 130C287 130 242 180 242 276C242 413 333 555 481 555C537 555 586 535 625 505L688 660C645 683 575 700 503 700C247 700 47 482 47 244C47 79 144 -10 335 -10C418 -10 498 7 563 30ZM610 333 439 323C432 229 429 207 406 97L390 20L563 30L626 313ZM458 700ZM343 0Z" glyph-name="G" horiz-adv-x="668" unicode="G" /><glyph d="M571 168C522 143 430 130 382 130C287 130 242 180 242 276C242 413 333 555 481 555C537 555 586 535 625 505L688 660C645 683 575 700 503 700C247 700 47 482 47 244C47 79 144 -10 335 -10C418 -10 498 7 563 30ZM610 333 439 323C432 229 429 207 406 97L390 20L563 30L626 313ZM458 700ZM343 0ZM623 839 533 921C476 866 408 813 344 769L362 722C447 740 532 770 615 807ZM505 921ZM458 700Z" glyph-name="Gacute" horiz-adv-x="668" unicode="&#500;" /><glyph d="M571 168C522 143 430 130 382 130C287 130 242 180 242 276C242 413 333 555 481 555C537 555 586 535 625 505L688 660C645 683 575 700 503 700C247 700 47 482 47 244C47 79 144 -10 335 -10C418 -10 498 7 563 30ZM610 333 439 323C432 229 429 207 406 97L390 20L563 30L626 313ZM458 700ZM343 0ZM441 724C544 724 624 806 653 916L582 907C563 864 524 832 470 832C418 832 391 860 390 908L318 898C300 790 355 724 441 724ZM504 916ZM458 700Z" glyph-name="Gbreve" horiz-adv-x="668" unicode="&#286;" /><glyph d="M571 168C522 143 430 130 382 130C287 130 242 180 242 276C242 413 333 555 481 555C537 555 586 535 625 505L688 660C645 683 575 700 503 700C247 700 47 482 47 244C47 79 144 -10 335 -10C418 -10 498 7 563 30ZM610 333 439 323C432 229 429 207 406 97L390 20L563 30L626 313ZM458 700ZM343 0ZM615 912C559 882 503 848 458 820H489C453 850 411 881 366 912L295 879C328 825 349 777 372 731L541 741C581 783 617 825 672 879ZM503 912ZM458 700Z" glyph-name="Gcaron" horiz-adv-x="668" unicode="&#486;" /><glyph d="M571 168C522 143 430 130 382 130C287 130 242 180 242 276C242 413 333 555 481 555C537 555 586 535 625 505L688 660C645 683 575 700 503 700C247 700 47 482 47 244C47 79 144 -10 335 -10C418 -10 498 7 563 30ZM610 333 439 323C432 229 429 207 406 97L390 20L563 30L626 313ZM458 700ZM343 0ZM352 731C408 761 464 795 509 823H478C514 793 556 762 601 731L672 764C639 818 618 866 595 912L426 902C386 860 350 818 295 764ZM503 912ZM458 700Z" glyph-name="Gcircumflex" horiz-adv-x="668" unicode="&#284;" /><glyph d="M571 168C522 143 430 130 382 130C287 130 242 180 242 276C242 413 333 555 481 555C537 555 586 535 625 505L688 660C645 683 575 700 503 700C247 700 47 482 47 244C47 79 144 -10 335 -10C418 -10 498 7 563 30ZM610 333 439 323C432 229 429 207 406 97L390 20L563 30L626 313ZM458 700ZM343 0ZM204 -323 214 -334C309 -300 402 -192 402 -112C402 -71 376 -46 332 -46C277 -46 226 -98 226 -152C226 -187 252 -213 294 -213L286 -176C275 -231 235 -289 204 -323ZM343 0ZM272 -334Z" glyph-name="Gcommaaccent" horiz-adv-x="668" unicode="&#290;" /><glyph d="M571 168C522 143 430 130 382 130C287 130 242 180 242 276C242 413 333 555 481 555C537 555 586 535 625 505L688 660C645 683 575 700 503 700C247 700 47 482 47 244C47 79 144 -10 335 -10C418 -10 498 7 563 30ZM610 333 439 323C432 229 429 207 406 97L390 20L563 30L626 313ZM458 700ZM343 0ZM595 853C595 893 566 915 517 915C441 915 373 858 373 794C373 756 401 729 455 729C530 729 595 787 595 853ZM504 915ZM458 700Z" glyph-name="Gdotaccent" horiz-adv-x="668" unicode="&#288;" /><glyph d="M74 187C61 124 35 44 12 0L179 -10C212 12 235 75 244 118L311 434C329 518 374 561 428 561C479 561 510 528 500 474L541 549L351 355L343 316C457 250 486 223 486 187C486 154 461 130 417 130C378 130 338 149 312 170L280 19C313 2 377 -10 434 -10C575 -10 678 79 678 190C678 305 594 358 490 402L446 295L694 518C697 638 601 700 463 700C295 700 164 608 130 450Z" glyph-name="Germandbls" horiz-adv-x="735" unicode="&#7838;" /><glyph d="M213 0 357 680 341 700 164 690C160 636 149 572 135 503L28 0ZM539 407H279L251 277H511ZM613 0 757 680 741 700 564 690C560 636 549 572 535 503L428 0ZM315 0ZM462 700ZM114 690ZM430 541Z" glyph-name="H" horiz-adv-x="736" unicode="H" /><glyph d="M213 0 357 680 341 700 164 690C160 636 149 572 135 503L28 0ZM539 407H279L251 277H511ZM613 0 757 680 741 700 564 690C560 636 549 572 535 503L428 0ZM315 0ZM462 700ZM114 690ZM430 541ZM780 496 799 586H79L60 496ZM430 541Z" glyph-name="Hbar" horiz-adv-x="736" unicode="&#294;" /><glyph d="M213 0 357 680 341 700 164 690C160 636 149 572 135 503L28 0ZM539 407H279L251 277H511ZM613 0 757 680 741 700 564 690C560 636 549 572 535 503L428 0ZM315 0ZM462 700ZM114 690ZM430 541ZM356 731C412 761 468 795 513 823H482C518 793 560 762 605 731L676 764C643 818 622 866 599 912L430 902C390 860 354 818 299 764ZM507 912ZM462 700Z" glyph-name="Hcircumflex" horiz-adv-x="736" unicode="&#292;" /><glyph d="M213 0 357 680 341 700 164 690C160 636 149 572 135 503L28 0ZM539 407H279L251 277H511ZM613 0 757 680 741 700 564 690C560 636 549 572 535 503L428 0ZM315 0ZM462 700ZM114 690ZM430 541ZM393 -133C393 -89 363 -63 319 -63C250 -63 176 -126 176 -192C176 -234 206 -263 254 -263C325 -263 393 -199 393 -133ZM306 -63ZM249 -332ZM315 0ZM262 -246Z" glyph-name="Hdotbelow" horiz-adv-x="736" unicode="&#7716;" /><glyph d="M213 0 357 680 341 700 164 690C160 636 149 572 135 503L28 0ZM235 10ZM268 700ZM129 690ZM113 0Z" glyph-name="I" horiz-adv-x="336" unicode="I" /><glyph d="M213 0 357 680 341 700 164 690C160 636 149 572 135 503L28 0ZM235 10ZM268 700ZM129 690ZM113 0ZM299 -202C484 -121 541 -33 578 140L693 681L678 700L493 681C490 609 480 552 470 503L393 140C368 23 329 -64 261 -140ZM598 690ZM451 0Z" glyph-name="IJ" horiz-adv-x="671" unicode="&#306;" /><glyph d="M213 0 357 680 341 700 164 690C160 636 149 572 135 503L28 0ZM235 10ZM268 700ZM129 690ZM113 0ZM433 839 343 921C286 866 218 813 154 769L172 722C257 740 342 770 425 807ZM315 921ZM268 700Z" glyph-name="Iacute" horiz-adv-x="336" unicode="&#205;" /><glyph d="M213 0 357 680 341 700 164 690C160 636 149 572 135 503L28 0ZM235 10ZM268 700ZM129 690ZM113 0ZM251 724C354 724 434 806 463 916L392 907C373 864 334 832 280 832C228 832 201 860 200 908L128 898C110 790 165 724 251 724ZM314 916ZM268 700Z" glyph-name="Ibreve" horiz-adv-x="336" unicode="&#300;" /><glyph d="M213 0 357 680 341 700 164 690C160 636 149 572 135 503L28 0ZM235 10ZM268 700ZM129 690ZM113 0ZM425 912C369 882 313 848 268 820H299C263 850 221 881 176 912L105 879C138 825 159 777 182 731L351 741C391 783 427 825 482 879ZM313 912ZM268 700Z" glyph-name="Icaron" horiz-adv-x="336" unicode="&#463;" /><glyph d="M213 0 357 680 341 700 164 690C160 636 149 572 135 503L28 0ZM235 10ZM268 700ZM129 690ZM113 0ZM162 731C218 761 274 795 319 823H288C324 793 366 762 411 731L482 764C449 818 428 866 405 912L236 902C196 860 160 818 105 764ZM313 912ZM268 700Z" glyph-name="Icircumflex" horiz-adv-x="336" unicode="&#206;" /><glyph d="M213 0 357 680 341 700 164 690C160 636 149 572 135 503L28 0ZM235 10ZM268 700ZM129 690ZM113 0ZM265 851C265 889 239 914 198 914C133 914 67 854 67 794C67 757 93 729 138 729C203 729 265 789 265 851ZM520 851C520 889 494 914 453 914C388 914 322 854 322 794C322 757 348 729 393 729C458 729 520 789 520 851ZM313 914ZM268 700Z" glyph-name="Idieresis" horiz-adv-x="336" unicode="&#207;" /><glyph d="M213 0 357 680 341 700 164 690C160 636 149 572 135 503L28 0ZM235 10ZM268 700ZM129 690ZM113 0ZM405 853C405 893 376 915 327 915C251 915 183 858 183 794C183 756 211 729 265 729C340 729 405 787 405 853ZM314 915ZM268 700Z" glyph-name="Idotaccent" horiz-adv-x="336" unicode="&#304;" /><glyph d="M213 0 357 680 341 700 164 690C160 636 149 572 135 503L28 0ZM235 10ZM268 700ZM129 690ZM113 0ZM191 -133C191 -89 161 -63 117 -63C48 -63 -26 -126 -26 -192C-26 -234 4 -263 52 -263C123 -263 191 -199 191 -133ZM104 -63ZM47 -332ZM113 0ZM60 -246Z" glyph-name="Idotbelow" horiz-adv-x="336" unicode="&#7882;" /><glyph d="M213 0 357 680 341 700 164 690C160 636 149 572 135 503L28 0ZM235 10ZM268 700ZM129 690ZM113 0ZM383 722 421 769C373 815 331 864 296 921L172 839L166 807C233 769 306 741 383 722ZM315 921ZM268 700Z" glyph-name="Igrave" horiz-adv-x="336" unicode="&#204;" /><glyph d="M213 0 357 680 341 700 164 690C160 636 149 572 135 503L28 0ZM235 10ZM268 700ZM129 690ZM113 0ZM117 767H447L470 877H140ZM305 877ZM268 700Z" glyph-name="Imacron" horiz-adv-x="336" unicode="&#298;" /><glyph d="M213 0 199 20C30 -27 -58 -93 -58 -169C-58 -217 -20 -250 44 -250C102 -250 161 -221 202 -182L195 -136C167 -150 145 -156 129 -156C106 -156 98 -145 98 -131C98 -94 141 -46 213 0ZM213 0 357 680 341 700 164 690C160 636 149 572 135 503L28 0ZM235 10ZM268 700ZM129 690ZM113 0ZM235 10Z" glyph-name="Iogonek" horiz-adv-x="336" unicode="&#302;" /><glyph d="M213 0 357 680 341 700 164 690C160 636 149 572 135 503L28 0ZM235 10ZM268 700ZM129 690ZM113 0ZM244 910C164 910 121 825 104 746L147 739C170 772 188 784 206 784C247 784 291 732 347 732C417 732 466 815 483 896L440 903C419 875 404 858 378 858C332 858 306 910 244 910ZM312 910ZM268 700Z" glyph-name="Itilde" horiz-adv-x="336" unicode="&#296;" /><glyph d="M-37 -202C148 -121 205 -33 242 140L357 681L342 700L157 681C154 609 144 552 134 503L57 140C32 23 -7 -64 -75 -140ZM262 690ZM115 0Z" glyph-name="J" horiz-adv-x="335" unicode="J" /><glyph d="M-37 -202C148 -121 205 -33 242 140L357 681L342 700L157 681C154 609 144 552 134 503L57 140C32 23 -7 -64 -75 -140ZM262 690ZM115 0ZM156 721C212 751 268 785 313 813H282C318 783 360 752 405 721L476 754C443 808 422 856 399 902L230 892C190 850 154 808 99 754ZM307 902ZM262 690Z" glyph-name="Jcircumflex" horiz-adv-x="335" unicode="&#308;" /><glyph d="M134 503 27 0H212L266 253H326C347 166 374 74 402 -5L617 0L485 403L481 341L736 671L730 690L557 700C492 595 413 473 354 383H294L357 680L341 700L164 690C158 623 147 566 134 503ZM429 690ZM282 0Z" glyph-name="K" horiz-adv-x="670" unicode="K" /><glyph d="M134 503 27 0H212L266 253H326C347 166 374 74 402 -5L617 0L485 403L481 341L736 671L730 690L557 700C492 595 413 473 354 383H294L357 680L341 700L164 690C158 623 147 566 134 503ZM429 690ZM282 0ZM143 -323 153 -334C248 -300 341 -192 341 -112C341 -71 315 -46 271 -46C216 -46 165 -98 165 -152C165 -187 191 -213 233 -213L225 -176C214 -231 174 -289 143 -323ZM282 0ZM211 -334Z" glyph-name="Kcommaaccent" horiz-adv-x="670" unicode="&#310;" /><glyph d="M213 0 357 680 341 700 164 690C160 636 149 572 135 503L28 0ZM502 140 240 130 213 0H473ZM213 0ZM360 700ZM520 515ZM204 345Z" glyph-name="L" horiz-adv-x="531" unicode="L" /><glyph d="M213 0 357 680 341 700 164 690C160 636 149 572 135 503L28 0ZM502 140 240 130 213 0H473ZM213 0ZM360 700ZM520 515ZM204 345ZM525 839 435 921C378 866 310 813 246 769L264 722C349 740 434 770 517 807ZM407 921ZM360 700Z" glyph-name="Lacute" horiz-adv-x="531" unicode="&#313;" /><glyph d="M213 0 357 680 341 700 164 690C160 636 149 572 135 503L28 0ZM502 140 240 130 213 0H473ZM213 0ZM360 700ZM520 515ZM204 345ZM628 784H491C465 704 437 624 408 544H467C520 601 576 666 632 754ZM520 515Z" glyph-name="Lcaron" horiz-adv-x="531" unicode="&#317;" /><glyph d="M213 0 357 680 341 700 164 690C160 636 149 572 135 503L28 0ZM502 140 240 130 213 0H473ZM213 0ZM360 700ZM520 515ZM204 345ZM74 -323 84 -334C179 -300 272 -192 272 -112C272 -71 246 -46 202 -46C147 -46 96 -98 96 -152C96 -187 122 -213 164 -213L156 -176C145 -231 105 -289 74 -323ZM213 0ZM142 -334Z" glyph-name="Lcommaaccent" horiz-adv-x="531" unicode="&#315;" /><glyph d="M213 0 357 680 341 700 164 690C160 636 149 572 135 503L28 0ZM502 140 240 130 213 0H473ZM213 0ZM360 700ZM520 515ZM204 345ZM641 411C641 453 611 480 566 480C494 480 422 414 422 348C422 308 451 277 501 277C573 277 641 343 641 411Z" glyph-name="Ldot" horiz-adv-x="600" unicode="&#319;" /><glyph d="M213 0 357 680 341 700 164 690C160 636 149 572 135 503L28 0ZM502 140 240 130 213 0H473ZM213 0ZM360 700ZM520 515ZM204 345ZM439 418 414 492 -32 271 -8 197ZM204 345Z" glyph-name="Lslash" horiz-adv-x="531" unicode="&#321;" /><glyph d="M887 700 654 690 577 510C539 420 502 332 447 152H444C460 274 466 417 465 510L463 698L209 690L-3 0H147L221 242C246 325 274 426 302 539H305C293 440 291 345 292 242L295 0H501L606 242C648 340 687 440 718 539H721C708 457 685 325 676 242L648 0H829L908 680Z" glyph-name="M" horiz-adv-x="932" unicode="M" /><glyph d="M441 441C414 513 387 591 351 697L164 690C160 636 149 571 136 511L28 0H203L254 243C267 304 278 366 282 449H285C299 384 318 320 342 253C369 183 394 100 433 0H608L752 678L736 698L569 690C561 617 547 535 528 446C511 365 504 318 497 233H494C481 307 464 374 441 441ZM449 700ZM303 0Z" glyph-name="N" horiz-adv-x="731" unicode="N" /><glyph d="M441 441C414 513 387 591 351 697L164 690C160 636 149 571 136 511L28 0H203L254 243C267 304 278 366 282 449H285C299 384 318 320 342 253C369 183 394 100 433 0H608L752 678L736 698L569 690C561 617 547 535 528 446C511 365 504 318 497 233H494C481 307 464 374 441 441ZM449 700ZM303 0ZM614 839 524 921C467 866 399 813 335 769L353 722C438 740 523 770 606 807ZM496 921ZM449 700Z" glyph-name="Nacute" horiz-adv-x="731" unicode="&#323;" /><glyph d="M441 441C414 513 387 591 351 697L164 690C160 636 149 571 136 511L28 0H203L254 243C267 304 278 366 282 449H285C299 384 318 320 342 253C369 183 394 100 433 0H608L752 678L736 698L569 690C561 617 547 535 528 446C511 365 504 318 497 233H494C481 307 464 374 441 441ZM449 700ZM303 0ZM606 912C550 882 494 848 449 820H480C444 850 402 881 357 912L286 879C319 825 340 777 363 731L532 741C572 783 608 825 663 879ZM494 912ZM449 700Z" glyph-name="Ncaron" horiz-adv-x="731" unicode="&#327;" /><glyph d="M441 441C414 513 387 591 351 697L164 690C160 636 149 571 136 511L28 0H203L254 243C267 304 278 366 282 449H285C299 384 318 320 342 253C369 183 394 100 433 0H608L752 678L736 698L569 690C561 617 547 535 528 446C511 365 504 318 497 233H494C481 307 464 374 441 441ZM449 700ZM303 0ZM164 -323 174 -334C269 -300 362 -192 362 -112C362 -71 336 -46 292 -46C237 -46 186 -98 186 -152C186 -187 212 -213 254 -213L246 -176C235 -231 195 -289 164 -323ZM303 0ZM232 -334Z" glyph-name="Ncommaaccent" horiz-adv-x="731" unicode="&#325;" /><glyph d="M441 441C414 513 387 591 351 697L164 690C160 636 149 571 136 511L28 0H203L254 243C267 304 278 366 282 449H285C299 384 318 320 342 253C369 183 394 100 433 0H608L752 678L736 698L569 690C561 617 547 535 528 446C511 365 504 318 497 233H494C481 307 464 374 441 441ZM449 700ZM303 0ZM586 853C586 893 557 915 508 915C432 915 364 858 364 794C364 756 392 729 446 729C521 729 586 787 586 853ZM495 915ZM449 700Z" glyph-name="Ndotaccent" horiz-adv-x="731" unicode="&#7748;" /><glyph d="M-37 -202C140 -121 194 -33 232 140H57C32 26 -7 -64 -75 -140ZM440 440C419 497 395 565 350 697L163 690C159 636 147 570 135 511L57 140H232L254 243C266 300 276 356 281 435H284C298 373 317 315 341 252C368 183 393 100 432 0H607L751 678L735 698L568 690C560 617 544 530 527 448C508 359 504 322 497 246H494C481 315 461 384 440 440Z" glyph-name="Nhookleft" horiz-adv-x="730" unicode="&#413;" /><glyph d="M441 441C414 513 387 591 351 697L164 690C160 636 149 571 136 511L28 0H203L254 243C267 304 278 366 282 449H285C299 384 318 320 342 253C369 183 394 100 433 0H608L752 678L736 698L569 690C561 617 547 535 528 446C511 365 504 318 497 233H494C481 307 464 374 441 441ZM449 700ZM303 0ZM425 910C345 910 302 825 285 746L328 739C351 772 369 784 387 784C428 784 472 732 528 732C598 732 647 815 664 896L621 903C600 875 585 858 559 858C513 858 487 910 425 910ZM493 910ZM449 700Z" glyph-name="Ntilde" horiz-adv-x="731" unicode="&#209;" /><glyph d="M240 250C240 380 303 565 422 565C482 565 505 518 505 440C505 310 442 125 323 125C263 125 240 172 240 250ZM695 437C695 606 603 700 448 700C212 700 50 480 50 253C50 83 141 -10 294 -10C531 -10 695 211 695 437ZM288 0ZM560 10ZM438 700ZM752 690ZM115 690ZM361 345Z" glyph-name="O" horiz-adv-x="705" unicode="O" /><glyph d="M688 453C688 604 605 700 453 700C234 700 47 485 47 233C47 79 138 -10 284 -10C506 -10 688 198 688 453ZM240 248C240 414 324 565 418 565C477 565 499 519 499 452C499 281 415 125 323 125C264 125 240 176 240 248ZM1004 690H497L579 560L990 550L1020 670ZM909 404 677 399 653 284 877 277ZM913 140 488 130 350 0H883Z" glyph-name="OE" horiz-adv-x="971" unicode="&#338;" /><glyph d="M240 250C240 380 303 565 422 565C482 565 505 518 505 440C505 310 442 125 323 125C263 125 240 172 240 250ZM695 437C695 606 603 700 448 700C212 700 50 480 50 253C50 83 141 -10 294 -10C531 -10 695 211 695 437ZM288 0ZM560 10ZM438 700ZM752 690ZM115 690ZM361 345ZM603 839 513 921C456 866 388 813 324 769L342 722C427 740 512 770 595 807ZM485 921ZM438 700Z" glyph-name="Oacute" horiz-adv-x="705" unicode="&#211;" /><glyph d="M240 250C240 380 303 565 422 565C482 565 505 518 505 440C505 310 442 125 323 125C263 125 240 172 240 250ZM695 437C695 606 603 700 448 700C212 700 50 480 50 253C50 83 141 -10 294 -10C531 -10 695 211 695 437ZM288 0ZM560 10ZM438 700ZM752 690ZM115 690ZM361 345ZM421 724C524 724 604 806 633 916L562 907C543 864 504 832 450 832C398 832 371 860 370 908L298 898C280 790 335 724 421 724ZM484 916ZM438 700Z" glyph-name="Obreve" horiz-adv-x="705" unicode="&#334;" /><glyph d="M240 250C240 380 303 565 422 565C482 565 505 518 505 440C505 310 442 125 323 125C263 125 240 172 240 250ZM695 437C695 606 603 700 448 700C212 700 50 480 50 253C50 83 141 -10 294 -10C531 -10 695 211 695 437ZM288 0ZM560 10ZM438 700ZM752 690ZM115 690ZM361 345ZM595 912C539 882 483 848 438 820H469C433 850 391 881 346 912L275 879C308 825 329 777 352 731L521 741C561 783 597 825 652 879ZM483 912ZM438 700Z" glyph-name="Ocaron" horiz-adv-x="705" unicode="&#465;" /><glyph d="M240 250C240 380 303 565 422 565C482 565 505 518 505 440C505 310 442 125 323 125C263 125 240 172 240 250ZM695 437C695 606 603 700 448 700C212 700 50 480 50 253C50 83 141 -10 294 -10C531 -10 695 211 695 437ZM288 0ZM560 10ZM438 700ZM752 690ZM115 690ZM361 345ZM332 731C388 761 444 795 489 823H458C494 793 536 762 581 731L652 764C619 818 598 866 575 912L406 902C366 860 330 818 275 764ZM483 912ZM438 700Z" glyph-name="Ocircumflex" horiz-adv-x="705" unicode="&#212;" /><glyph d="M240 250C240 380 303 565 422 565C482 565 505 518 505 440C505 310 442 125 323 125C263 125 240 172 240 250ZM695 437C695 606 603 700 448 700C212 700 50 480 50 253C50 83 141 -10 294 -10C531 -10 695 211 695 437ZM288 0ZM560 10ZM438 700ZM752 690ZM115 690ZM361 345ZM435 851C435 889 409 914 368 914C303 914 237 854 237 794C237 757 263 729 308 729C373 729 435 789 435 851ZM690 851C690 889 664 914 623 914C558 914 492 854 492 794C492 757 518 729 563 729C628 729 690 789 690 851ZM483 914ZM438 700Z" glyph-name="Odieresis" horiz-adv-x="705" unicode="&#214;" /><glyph d="M240 250C240 380 303 565 422 565C482 565 505 518 505 440C505 310 442 125 323 125C263 125 240 172 240 250ZM695 437C695 606 603 700 448 700C212 700 50 480 50 253C50 83 141 -10 294 -10C531 -10 695 211 695 437ZM288 0ZM560 10ZM438 700ZM752 690ZM115 690ZM361 345ZM366 -133C366 -89 336 -63 292 -63C223 -63 149 -126 149 -192C149 -234 179 -263 227 -263C298 -263 366 -199 366 -133ZM279 -63ZM222 -332ZM288 0ZM235 -246Z" glyph-name="Odotbelow" horiz-adv-x="705" unicode="&#7884;" /><glyph d="M240 250C240 380 303 565 422 565C482 565 505 518 505 440C505 310 442 125 323 125C263 125 240 172 240 250ZM695 437C695 606 603 700 448 700C212 700 50 480 50 253C50 83 141 -10 294 -10C531 -10 695 211 695 437ZM288 0ZM560 10ZM438 700ZM752 690ZM115 690ZM361 345ZM553 722 591 769C543 815 501 864 466 921L342 839L336 807C403 769 476 741 553 722ZM485 921ZM438 700Z" glyph-name="Ograve" horiz-adv-x="705" unicode="&#210;" /><glyph d="M240 250C240 380 303 565 422 565C482 565 505 518 505 440C505 310 442 125 323 125C263 125 240 172 240 250ZM695 437C695 606 603 700 448 700C212 700 50 480 50 253C50 83 141 -10 294 -10C531 -10 695 211 695 437ZM288 0ZM560 10ZM438 700ZM752 690ZM115 690ZM361 345ZM473 833 400 913C349 858 289 810 226 767L240 731C310 735 394 762 464 801ZM702 833 629 913C578 858 517 810 455 767L469 731C539 735 623 762 693 801ZM483 913ZM438 700Z" glyph-name="Ohungarumlaut" horiz-adv-x="705" unicode="&#336;" /><glyph d="M240 250C240 380 303 565 422 565C482 565 505 518 505 440C505 310 442 125 323 125C263 125 240 172 240 250ZM695 437C695 606 603 700 448 700C212 700 50 480 50 253C50 83 141 -10 294 -10C531 -10 695 211 695 437ZM288 0ZM560 10ZM438 700ZM752 690ZM115 690ZM361 345ZM287 767H617L640 877H310ZM475 877ZM438 700Z" glyph-name="Omacron" horiz-adv-x="705" unicode="&#332;" /><glyph d="M572 442C572 326 506 173 415 77L455 60C606 101 766 278 766 460C766 593 680 700 507 700C293 700 115 536 115 328C115 194 189 78 310 60L334 77C316 124 296 179 296 269C296 445 370 565 477 565C547 565 572 513 572 442ZM298 0 334 77H270L32 145L8 125L6 0ZM763 125 747 145 479 77H415L419 0H711Z" glyph-name="Omega" horiz-adv-x="825" unicode="&#937;" /><glyph d="M450 25 451 45C256 -9 155 -84 155 -165C155 -217 197 -250 262 -250C322 -250 376 -221 415 -182L408 -136C385 -150 366 -156 350 -156C323 -156 311 -139 311 -118C311 -78 356 -20 450 25ZM240 250C240 380 303 565 422 565C482 565 505 518 505 440C505 310 442 125 323 125C263 125 240 172 240 250ZM695 437C695 606 603 700 448 700C212 700 50 480 50 253C50 83 141 -10 294 -10C531 -10 695 211 695 437ZM288 0ZM560 10ZM438 700ZM752 690ZM115 690ZM361 345ZM560 10Z" glyph-name="Oogonek" horiz-adv-x="705" unicode="&#490;" /><glyph d="M240 250C240 380 303 565 422 565C482 565 505 518 505 440C505 310 442 125 323 125C263 125 240 172 240 250ZM695 437C695 606 603 700 448 700C212 700 50 480 50 253C50 83 141 -10 294 -10C531 -10 695 211 695 437ZM288 0ZM560 10ZM438 700ZM752 690ZM115 690ZM361 345ZM747 650 693 705 -25 41 28 -15ZM361 345Z" glyph-name="Oslash" horiz-adv-x="705" unicode="&#216;" /><glyph d="M240 250C240 380 303 565 422 565C482 565 505 518 505 440C505 310 442 125 323 125C263 125 240 172 240 250ZM695 437C695 606 603 700 448 700C212 700 50 480 50 253C50 83 141 -10 294 -10C531 -10 695 211 695 437ZM288 0ZM560 10ZM438 700ZM752 690ZM115 690ZM361 345ZM747 650 693 705 -25 41 28 -15ZM361 345ZM603 839 513 921C456 866 388 813 324 769L342 722C427 740 512 770 595 807ZM485 921ZM438 700Z" glyph-name="Oslashacute" horiz-adv-x="705" unicode="&#510;" /><glyph d="M240 250C240 380 303 565 422 565C482 565 505 518 505 440C505 310 442 125 323 125C263 125 240 172 240 250ZM695 437C695 606 603 700 448 700C212 700 50 480 50 253C50 83 141 -10 294 -10C531 -10 695 211 695 437ZM288 0ZM560 10ZM438 700ZM752 690ZM115 690ZM361 345ZM414 910C334 910 291 825 274 746L317 739C340 772 358 784 376 784C417 784 461 732 517 732C587 732 636 815 653 896L610 903C589 875 574 858 548 858C502 858 476 910 414 910ZM482 910ZM438 700Z" glyph-name="Otilde" horiz-adv-x="705" unicode="&#213;" /><glyph d="M645 503C645 623 567 690 426 690H205L180 565H360C432 565 454 533 454 479C454 398 405 332 306 332H132L109 207H305C492 207 645 336 645 503ZM213 0 359 690H164C161 628 152 585 136 511L28 0Z" glyph-name="P" horiz-adv-x="617" unicode="P" /><glyph d="M202 116 277 156C271 187 265 221 265 262C265 395 328 565 429 565C479 565 507 523 507 441C507 267 383 75 120 36C101 33 80 32 59 31L34 -62C169 -159 336 -215 491 -215C632 -215 709 -169 709 -89C709 -63 701 -46 687 -33C658 -48 569 -81 455 -81C352 -81 225 -54 153 -20L110 -59C435 -36 697 152 697 430C697 607 590 701 447 701C251 701 88 526 88 331C88 225 136 160 202 116Z" glyph-name="Q" horiz-adv-x="707" unicode="Q" /><glyph d="M212 0 359 690H164C160 627 149 571 136 511L27 0ZM380 252C552 272 647 390 647 514C647 630 563 690 398 690H205L182 565H362C433 565 456 537 456 485C456 408 406 347 310 347H136L112 227H338ZM363 -11 577 0 478 305 312 253C324 163 341 71 363 -11ZM419 700ZM272 0Z" glyph-name="R" horiz-adv-x="650" unicode="R" /><glyph d="M212 0 359 690H164C160 627 149 571 136 511L27 0ZM380 252C552 272 647 390 647 514C647 630 563 690 398 690H205L182 565H362C433 565 456 537 456 485C456 408 406 347 310 347H136L112 227H338ZM363 -11 577 0 478 305 312 253C324 163 341 71 363 -11ZM419 700ZM272 0ZM584 839 494 921C437 866 369 813 305 769L323 722C408 740 493 770 576 807ZM466 921ZM419 700Z" glyph-name="Racute" horiz-adv-x="650" unicode="&#340;" /><glyph d="M212 0 359 690H164C160 627 149 571 136 511L27 0ZM380 252C552 272 647 390 647 514C647 630 563 690 398 690H205L182 565H362C433 565 456 537 456 485C456 408 406 347 310 347H136L112 227H338ZM363 -11 577 0 478 305 312 253C324 163 341 71 363 -11ZM419 700ZM272 0ZM576 912C520 882 464 848 419 820H450C414 850 372 881 327 912L256 879C289 825 310 777 333 731L502 741C542 783 578 825 633 879ZM464 912ZM419 700Z" glyph-name="Rcaron" horiz-adv-x="650" unicode="&#344;" /><glyph d="M212 0 359 690H164C160 627 149 571 136 511L27 0ZM380 252C552 272 647 390 647 514C647 630 563 690 398 690H205L182 565H362C433 565 456 537 456 485C456 408 406 347 310 347H136L112 227H338ZM363 -11 577 0 478 305 312 253C324 163 341 71 363 -11ZM419 700ZM272 0ZM133 -323 143 -334C238 -300 331 -192 331 -112C331 -71 305 -46 261 -46C206 -46 155 -98 155 -152C155 -187 181 -213 223 -213L215 -176C204 -231 164 -289 133 -323ZM272 0ZM201 -334Z" glyph-name="Rcommaaccent" horiz-adv-x="650" unicode="&#342;" /><glyph d="M212 0 359 690H164C160 627 149 571 136 511L27 0ZM380 252C552 272 647 390 647 514C647 630 563 690 398 690H205L182 565H362C433 565 456 537 456 485C456 408 406 347 310 347H136L112 227H338ZM363 -11 577 0 478 305 312 253C324 163 341 71 363 -11ZM419 700ZM272 0ZM350 -133C350 -89 320 -63 276 -63C207 -63 133 -126 133 -192C133 -234 163 -263 211 -263C282 -263 350 -199 350 -133ZM263 -63ZM206 -332ZM272 0ZM219 -246Z" glyph-name="Rdotbelow" horiz-adv-x="650" unicode="&#7770;" /><glyph d="M508 219C508 305 453 351 402 384C344 421 287 441 287 491C287 533 327 560 387 560C433 560 486 545 526 520L579 675C546 689 484 700 420 700C230 700 91 603 91 468C91 387 140 341 194 309C243 280 312 253 312 196C312 156 278 130 220 130C170 130 83 150 39 180L-3 29C28 6 115 -10 191 -10C380 -10 508 88 508 219ZM374 700ZM227 0Z" glyph-name="S" horiz-adv-x="559" unicode="S" /><glyph d="M508 219C508 305 453 351 402 384C344 421 287 441 287 491C287 533 327 560 387 560C433 560 486 545 526 520L579 675C546 689 484 700 420 700C230 700 91 603 91 468C91 387 140 341 194 309C243 280 312 253 312 196C312 156 278 130 220 130C170 130 83 150 39 180L-3 29C28 6 115 -10 191 -10C380 -10 508 88 508 219ZM374 700ZM227 0ZM539 839 449 921C392 866 324 813 260 769L278 722C363 740 448 770 531 807ZM421 921ZM374 700Z" glyph-name="Sacute" horiz-adv-x="559" unicode="&#346;" /><glyph d="M508 219C508 305 453 351 402 384C344 421 287 441 287 491C287 533 327 560 387 560C433 560 486 545 526 520L579 675C546 689 484 700 420 700C230 700 91 603 91 468C91 387 140 341 194 309C243 280 312 253 312 196C312 156 278 130 220 130C170 130 83 150 39 180L-3 29C28 6 115 -10 191 -10C380 -10 508 88 508 219ZM374 700ZM227 0ZM531 912C475 882 419 848 374 820H405C369 850 327 881 282 912L211 879C244 825 265 777 288 731L457 741C497 783 533 825 588 879ZM419 912ZM374 700Z" glyph-name="Scaron" horiz-adv-x="559" unicode="&#352;" /><glyph d="M508 219C508 305 453 351 402 384C344 421 287 441 287 491C287 533 327 560 387 560C433 560 486 545 526 520L579 675C546 689 484 700 420 700C230 700 91 603 91 468C91 387 140 341 194 309C243 280 312 253 312 196C312 156 278 130 220 130C170 130 83 150 39 180L-3 29C28 6 115 -10 191 -10C380 -10 508 88 508 219ZM374 700ZM227 0ZM91 -190 73 -250C221 -250 338 -182 338 -97C338 -56 302 -38 263 -38C208 -38 155 -72 120 -100L133 -130C156 -122 170 -118 183 -118C200 -118 207 -125 207 -135C207 -163 158 -187 91 -190ZM216 43 120 -100 211 -77 309 43ZM227 0ZM174 -250Z" glyph-name="Scedilla" horiz-adv-x="559" unicode="&#350;" /><glyph d="M530 321 552 409H107L75 384L218 298ZM75 384C72 374 39 299 39 209C39 59 124 -10 262 -10C495 -10 674 187 674 423C674 603 570 700 390 700C291 700 194 671 163 654L137 519C189 545 251 564 312 564C416 564 475 508 475 377C475 237 408 116 303 116C246 116 222 153 222 227C222 273 231 299 251 353Z" glyph-name="Schwa" horiz-adv-x="687" unicode="&#399;" /><glyph d="M508 219C508 305 453 351 402 384C344 421 287 441 287 491C287 533 327 560 387 560C433 560 486 545 526 520L579 675C546 689 484 700 420 700C230 700 91 603 91 468C91 387 140 341 194 309C243 280 312 253 312 196C312 156 278 130 220 130C170 130 83 150 39 180L-3 29C28 6 115 -10 191 -10C380 -10 508 88 508 219ZM374 700ZM227 0ZM268 731C324 761 380 795 425 823H394C430 793 472 762 517 731L588 764C555 818 534 866 511 912L342 902C302 860 266 818 211 764ZM419 912ZM374 700Z" glyph-name="Scircumflex" horiz-adv-x="559" unicode="&#348;" /><glyph d="M508 219C508 305 453 351 402 384C344 421 287 441 287 491C287 533 327 560 387 560C433 560 486 545 526 520L579 675C546 689 484 700 420 700C230 700 91 603 91 468C91 387 140 341 194 309C243 280 312 253 312 196C312 156 278 130 220 130C170 130 83 150 39 180L-3 29C28 6 115 -10 191 -10C380 -10 508 88 508 219ZM374 700ZM227 0ZM88 -323 98 -334C193 -300 286 -192 286 -112C286 -71 260 -46 216 -46C161 -46 110 -98 110 -152C110 -187 136 -213 178 -213L170 -176C159 -231 119 -289 88 -323ZM227 0ZM156 -334Z" glyph-name="Scommaaccent" horiz-adv-x="559" unicode="&#536;" /><glyph d="M508 219C508 305 453 351 402 384C344 421 287 441 287 491C287 533 327 560 387 560C433 560 486 545 526 520L579 675C546 689 484 700 420 700C230 700 91 603 91 468C91 387 140 341 194 309C243 280 312 253 312 196C312 156 278 130 220 130C170 130 83 150 39 180L-3 29C28 6 115 -10 191 -10C380 -10 508 88 508 219ZM374 700ZM227 0ZM305 -133C305 -89 275 -63 231 -63C162 -63 88 -126 88 -192C88 -234 118 -263 166 -263C237 -263 305 -199 305 -133ZM218 -63ZM161 -332ZM227 0ZM174 -246Z" glyph-name="Sdotbelow" horiz-adv-x="559" unicode="&#7778;" /><glyph d="M327 0 473 690H288L142 0ZM352 555C445 555 539 551 633 546L653 690H108L68 546C164 551 260 555 352 555ZM308 345ZM235 0ZM382 700Z" glyph-name="T" horiz-adv-x="575" unicode="T" /><glyph d="M327 0 473 690H288L142 0ZM352 555C445 555 539 551 633 546L653 690H108L68 546C164 551 260 555 352 555ZM308 345ZM235 0ZM382 700ZM491 300 510 390H124L105 300ZM308 345Z" glyph-name="Tbar" horiz-adv-x="575" unicode="&#358;" /><glyph d="M327 0 473 690H288L142 0ZM352 555C445 555 539 551 633 546L653 690H108L68 546C164 551 260 555 352 555ZM308 345ZM235 0ZM382 700ZM539 912C483 882 427 848 382 820H413C377 850 335 881 290 912L219 879C252 825 273 777 296 731L465 741C505 783 541 825 596 879ZM427 912ZM382 700Z" glyph-name="Tcaron" horiz-adv-x="575" unicode="&#356;" /><glyph d="M327 0 473 690H288L142 0ZM352 555C445 555 539 551 633 546L653 690H108L68 546C164 551 260 555 352 555ZM308 345ZM235 0ZM382 700ZM99 -190 81 -250C229 -250 346 -182 346 -97C346 -56 310 -38 271 -38C216 -38 163 -72 128 -100L141 -130C164 -122 178 -118 191 -118C208 -118 215 -125 215 -135C215 -163 166 -187 99 -190ZM224 43 128 -100 219 -77 317 43ZM235 0ZM182 -250Z" glyph-name="Tcedilla" horiz-adv-x="575" unicode="&#354;" /><glyph d="M327 0 473 690H288L142 0ZM352 555C445 555 539 551 633 546L653 690H108L68 546C164 551 260 555 352 555ZM308 345ZM235 0ZM382 700ZM96 -323 106 -334C201 -300 294 -192 294 -112C294 -71 268 -46 224 -46C169 -46 118 -98 118 -152C118 -187 144 -213 186 -213L178 -176C167 -231 127 -289 96 -323ZM235 0ZM164 -334Z" glyph-name="Tcommaaccent" horiz-adv-x="575" unicode="&#538;" /><glyph d="M327 0 473 690H288L142 0ZM352 555C445 555 539 551 633 546L653 690H108L68 546C164 551 260 555 352 555ZM308 345ZM235 0ZM382 700ZM313 -133C313 -89 283 -63 239 -63C170 -63 96 -126 96 -192C96 -234 126 -263 174 -263C245 -263 313 -199 313 -133ZM226 -63ZM169 -332ZM235 0ZM182 -246Z" glyph-name="Tdotbelow" horiz-adv-x="575" unicode="&#7788;" /><glyph d="M625 411C625 530 545 597 406 597H185L157 467H337C366 467 431 467 431 381C431 303 378 244 290 244H116L88 114H284C477 114 625 249 625 411ZM212 0 359 690H164C160 618 146 560 136 511L27 0Z" glyph-name="Thorn" horiz-adv-x="617" unicode="&#222;" /><glyph d="M67 170C67 57 164 -10 304 -10C461 -10 609 75 644 240L741 698L554 690C551 633 550 618 472 256C454 173 410 129 341 129C286 129 257 156 257 214C257 245 265 271 352 680L336 700L159 690C141 495 67 269 67 170ZM463 10ZM454 700ZM774 690ZM308 0Z" glyph-name="U" horiz-adv-x="711" unicode="U" /><glyph d="M67 170C67 57 164 -10 304 -10C461 -10 609 75 644 240L741 698L554 690C551 633 550 618 472 256C454 173 410 129 341 129C286 129 257 156 257 214C257 245 265 271 352 680L336 700L159 690C141 495 67 269 67 170ZM463 10ZM454 700ZM774 690ZM308 0ZM619 839 529 921C472 866 404 813 340 769L358 722C443 740 528 770 611 807ZM501 921ZM454 700Z" glyph-name="Uacute" horiz-adv-x="711" unicode="&#218;" /><glyph d="M67 170C67 57 164 -10 304 -10C461 -10 609 75 644 240L741 698L554 690C551 633 550 618 472 256C454 173 410 129 341 129C286 129 257 156 257 214C257 245 265 271 352 680L336 700L159 690C141 495 67 269 67 170ZM463 10ZM454 700ZM774 690ZM308 0ZM437 724C540 724 620 806 649 916L578 907C559 864 520 832 466 832C414 832 387 860 386 908L314 898C296 790 351 724 437 724ZM500 916ZM454 700Z" glyph-name="Ubreve" horiz-adv-x="711" unicode="&#364;" /><glyph d="M67 170C67 57 164 -10 304 -10C461 -10 609 75 644 240L741 698L554 690C551 633 550 618 472 256C454 173 410 129 341 129C286 129 257 156 257 214C257 245 265 271 352 680L336 700L159 690C141 495 67 269 67 170ZM463 10ZM454 700ZM774 690ZM308 0ZM611 912C555 882 499 848 454 820H485C449 850 407 881 362 912L291 879C324 825 345 777 368 731L537 741C577 783 613 825 668 879ZM499 912ZM454 700Z" glyph-name="Ucaron" horiz-adv-x="711" unicode="&#467;" /><glyph d="M67 170C67 57 164 -10 304 -10C461 -10 609 75 644 240L741 698L554 690C551 633 550 618 472 256C454 173 410 129 341 129C286 129 257 156 257 214C257 245 265 271 352 680L336 700L159 690C141 495 67 269 67 170ZM463 10ZM454 700ZM774 690ZM308 0ZM348 731C404 761 460 795 505 823H474C510 793 552 762 597 731L668 764C635 818 614 866 591 912L422 902C382 860 346 818 291 764ZM499 912ZM454 700Z" glyph-name="Ucircumflex" horiz-adv-x="711" unicode="&#219;" /><glyph d="M67 170C67 57 164 -10 304 -10C461 -10 609 75 644 240L741 698L554 690C551 633 550 618 472 256C454 173 410 129 341 129C286 129 257 156 257 214C257 245 265 271 352 680L336 700L159 690C141 495 67 269 67 170ZM463 10ZM454 700ZM774 690ZM308 0ZM451 851C451 889 425 914 384 914C319 914 253 854 253 794C253 757 279 729 324 729C389 729 451 789 451 851ZM706 851C706 889 680 914 639 914C574 914 508 854 508 794C508 757 534 729 579 729C644 729 706 789 706 851ZM499 914ZM454 700Z" glyph-name="Udieresis" horiz-adv-x="711" unicode="&#220;" /><glyph d="M67 170C67 57 164 -10 304 -10C461 -10 609 75 644 240L741 698L554 690C551 633 550 618 472 256C454 173 410 129 341 129C286 129 257 156 257 214C257 245 265 271 352 680L336 700L159 690C141 495 67 269 67 170ZM463 10ZM454 700ZM774 690ZM308 0ZM451 851C451 889 425 914 384 914C319 914 253 854 253 794C253 757 279 729 324 729C389 729 451 789 451 851ZM706 851C706 889 680 914 639 914C574 914 508 854 508 794C508 757 534 729 579 729C644 729 706 789 706 851ZM499 914ZM454 700ZM664 1053 574 1135C517 1080 449 1027 385 983L403 936C488 954 573 984 656 1021ZM546 1135ZM499 914Z" glyph-name="Udieresisacute" horiz-adv-x="711" unicode="&#471;" /><glyph d="M67 170C67 57 164 -10 304 -10C461 -10 609 75 644 240L741 698L554 690C551 633 550 618 472 256C454 173 410 129 341 129C286 129 257 156 257 214C257 245 265 271 352 680L336 700L159 690C141 495 67 269 67 170ZM463 10ZM454 700ZM774 690ZM308 0ZM451 851C451 889 425 914 384 914C319 914 253 854 253 794C253 757 279 729 324 729C389 729 451 789 451 851ZM706 851C706 889 680 914 639 914C574 914 508 854 508 794C508 757 534 729 579 729C644 729 706 789 706 851ZM499 914ZM454 700ZM670 1185C614 1152 563 1112 514 1069H557C528 1113 493 1153 451 1185L382 1161C406 1101 420 1045 434 980L603 990C640 1047 679 1103 729 1161ZM556 1185ZM499 914Z" glyph-name="Udieresiscaron" horiz-adv-x="711" unicode="&#473;" /><glyph d="M67 170C67 57 164 -10 304 -10C461 -10 609 75 644 240L741 698L554 690C551 633 550 618 472 256C454 173 410 129 341 129C286 129 257 156 257 214C257 245 265 271 352 680L336 700L159 690C141 495 67 269 67 170ZM463 10ZM454 700ZM774 690ZM308 0ZM451 851C451 889 425 914 384 914C319 914 253 854 253 794C253 757 279 729 324 729C389 729 451 789 451 851ZM706 851C706 889 680 914 639 914C574 914 508 854 508 794C508 757 534 729 579 729C644 729 706 789 706 851ZM499 914ZM454 700ZM614 936 652 983C604 1029 562 1078 527 1135L403 1053L397 1021C464 983 537 955 614 936ZM546 1135ZM499 914Z" glyph-name="Udieresisgrave" horiz-adv-x="711" unicode="&#475;" /><glyph d="M67 170C67 57 164 -10 304 -10C461 -10 609 75 644 240L741 698L554 690C551 633 550 618 472 256C454 173 410 129 341 129C286 129 257 156 257 214C257 245 265 271 352 680L336 700L159 690C141 495 67 269 67 170ZM463 10ZM454 700ZM774 690ZM308 0ZM451 851C451 889 425 914 384 914C319 914 253 854 253 794C253 757 279 729 324 729C389 729 451 789 451 851ZM706 851C706 889 680 914 639 914C574 914 508 854 508 794C508 757 534 729 579 729C644 729 706 789 706 851ZM499 914ZM454 700ZM348 981H678L701 1091H371ZM536 1091ZM499 914Z" glyph-name="Udieresismacron" horiz-adv-x="711" unicode="&#469;" /><glyph d="M67 170C67 57 164 -10 304 -10C461 -10 609 75 644 240L741 698L554 690C551 633 550 618 472 256C454 173 410 129 341 129C286 129 257 156 257 214C257 245 265 271 352 680L336 700L159 690C141 495 67 269 67 170ZM463 10ZM454 700ZM774 690ZM308 0ZM386 -133C386 -89 356 -63 312 -63C243 -63 169 -126 169 -192C169 -234 199 -263 247 -263C318 -263 386 -199 386 -133ZM299 -63ZM242 -332ZM308 0ZM255 -246Z" glyph-name="Udotbelow" horiz-adv-x="711" unicode="&#7908;" /><glyph d="M67 170C67 57 164 -10 304 -10C461 -10 609 75 644 240L741 698L554 690C551 633 550 618 472 256C454 173 410 129 341 129C286 129 257 156 257 214C257 245 265 271 352 680L336 700L159 690C141 495 67 269 67 170ZM463 10ZM454 700ZM774 690ZM308 0ZM569 722 607 769C559 815 517 864 482 921L358 839L352 807C419 769 492 741 569 722ZM501 921ZM454 700Z" glyph-name="Ugrave" horiz-adv-x="711" unicode="&#217;" /><glyph d="M67 170C67 57 164 -10 304 -10C461 -10 609 75 644 240L741 698L554 690C551 633 550 618 472 256C454 173 410 129 341 129C286 129 257 156 257 214C257 245 265 271 352 680L336 700L159 690C141 495 67 269 67 170ZM463 10ZM454 700ZM774 690ZM308 0ZM489 833 416 913C365 858 305 810 242 767L256 731C326 735 410 762 480 801ZM718 833 645 913C594 858 533 810 471 767L485 731C555 735 639 762 709 801ZM499 913ZM454 700Z" glyph-name="Uhungarumlaut" horiz-adv-x="711" unicode="&#368;" /><glyph d="M67 170C67 57 164 -10 304 -10C461 -10 609 75 644 240L741 698L554 690C551 633 550 618 472 256C454 173 410 129 341 129C286 129 257 156 257 214C257 245 265 271 352 680L336 700L159 690C141 495 67 269 67 170ZM463 10ZM454 700ZM774 690ZM308 0ZM303 767H633L656 877H326ZM491 877ZM454 700Z" glyph-name="Umacron" horiz-adv-x="711" unicode="&#362;" /><glyph d="M463 22V42C270 -11 170 -84 170 -169C170 -217 208 -250 272 -250C330 -250 389 -221 430 -182L423 -136C401 -150 384 -156 366 -156C338 -156 326 -142 326 -118C326 -82 352 -24 463 22ZM67 170C67 57 164 -10 304 -10C461 -10 609 75 644 240L741 698L554 690C551 633 550 618 472 256C454 173 410 129 341 129C286 129 257 156 257 214C257 245 265 271 352 680L336 700L159 690C141 495 67 269 67 170ZM463 10ZM454 700ZM774 690ZM308 0ZM463 10Z" glyph-name="Uogonek" horiz-adv-x="711" unicode="&#370;" /><glyph d="M67 170C67 57 164 -10 304 -10C461 -10 609 75 644 240L741 698L554 690C551 633 550 618 472 256C454 173 410 129 341 129C286 129 257 156 257 214C257 245 265 271 352 680L336 700L159 690C141 495 67 269 67 170ZM463 10ZM454 700ZM774 690ZM308 0ZM612 853C612 899 574 928 518 928C433 928 349 861 349 795C349 752 385 717 448 717C532 717 612 783 612 853ZM432 812C432 836 464 859 494 859C514 859 529 849 529 833C529 809 498 786 468 786C446 786 432 797 432 812ZM503 928ZM454 700Z" glyph-name="Uring" horiz-adv-x="711" unicode="&#366;" /><glyph d="M67 170C67 57 164 -10 304 -10C461 -10 609 75 644 240L741 698L554 690C551 633 550 618 472 256C454 173 410 129 341 129C286 129 257 156 257 214C257 245 265 271 352 680L336 700L159 690C141 495 67 269 67 170ZM463 10ZM454 700ZM774 690ZM308 0ZM430 910C350 910 307 825 290 746L333 739C356 772 374 784 392 784C433 784 477 732 533 732C603 732 652 815 669 896L626 903C605 875 590 858 564 858C518 858 492 910 430 910ZM498 910ZM454 700Z" glyph-name="Utilde" horiz-adv-x="711" unicode="&#360;" /><glyph d="M168 0H373L730 671L724 690L578 700L389 320C365 272 339 214 322 172C326 212 324 298 320 368L299 700L97 681Z" glyph-name="V" horiz-adv-x="646" unicode="V" /><glyph d="M124 0H329L428 220C463 296 482 340 523 440H526C527 368 523 295 525 223L531 0H736L1049 671L1043 690L897 700L750 348C725 288 711 252 684 177C684 219 685 295 685 356L686 700L506 690L357 344C334 289 304 217 288 177C289 219 295 294 295 356L299 700L97 681ZM577 700ZM430 0Z" glyph-name="W" horiz-adv-x="965" unicode="W" /><glyph d="M124 0H329L428 220C463 296 482 340 523 440H526C527 368 523 295 525 223L531 0H736L1049 671L1043 690L897 700L750 348C725 288 711 252 684 177C684 219 685 295 685 356L686 700L506 690L357 344C334 289 304 217 288 177C289 219 295 294 295 356L299 700L97 681ZM577 700ZM430 0ZM742 839 652 921C595 866 527 813 463 769L481 722C566 740 651 770 734 807ZM624 921ZM577 700Z" glyph-name="Wacute" horiz-adv-x="965" unicode="&#7810;" /><glyph d="M124 0H329L428 220C463 296 482 340 523 440H526C527 368 523 295 525 223L531 0H736L1049 671L1043 690L897 700L750 348C725 288 711 252 684 177C684 219 685 295 685 356L686 700L506 690L357 344C334 289 304 217 288 177C289 219 295 294 295 356L299 700L97 681ZM577 700ZM430 0ZM471 731C527 761 583 795 628 823H597C633 793 675 762 720 731L791 764C758 818 737 866 714 912L545 902C505 860 469 818 414 764ZM622 912ZM577 700Z" glyph-name="Wcircumflex" horiz-adv-x="965" unicode="&#372;" /><glyph d="M124 0H329L428 220C463 296 482 340 523 440H526C527 368 523 295 525 223L531 0H736L1049 671L1043 690L897 700L750 348C725 288 711 252 684 177C684 219 685 295 685 356L686 700L506 690L357 344C334 289 304 217 288 177C289 219 295 294 295 356L299 700L97 681ZM577 700ZM430 0ZM574 851C574 889 548 914 507 914C442 914 376 854 376 794C376 757 402 729 447 729C512 729 574 789 574 851ZM829 851C829 889 803 914 762 914C697 914 631 854 631 794C631 757 657 729 702 729C767 729 829 789 829 851ZM622 914ZM577 700Z" glyph-name="Wdieresis" horiz-adv-x="965" unicode="&#7812;" /><glyph d="M124 0H329L428 220C463 296 482 340 523 440H526C527 368 523 295 525 223L531 0H736L1049 671L1043 690L897 700L750 348C725 288 711 252 684 177C684 219 685 295 685 356L686 700L506 690L357 344C334 289 304 217 288 177C289 219 295 294 295 356L299 700L97 681ZM577 700ZM430 0ZM692 722 730 769C682 815 640 864 605 921L481 839L475 807C542 769 615 741 692 722ZM624 921ZM577 700Z" glyph-name="Wgrave" horiz-adv-x="965" unicode="&#7808;" /><glyph d="M-37 0H124L283 219H285L346 0H552L442 336L694 668L687 688L531 700L366 442H363L299 700L97 685L206 325L-44 20Z" glyph-name="X" horiz-adv-x="610" unicode="X" /><glyph d="M195 216 149 0H334L380 216L673 671L667 690L521 700L416 497C392 450 354 381 335 346H332C330 381 325 447 320 498L299 700L97 681ZM411 700ZM242 0ZM116 690Z" glyph-name="Y" horiz-adv-x="589" unicode="Y" /><glyph d="M195 216 149 0H334L380 216L673 671L667 690L521 700L416 497C392 450 354 381 335 346H332C330 381 325 447 320 498L299 700L97 681ZM411 700ZM242 0ZM116 690ZM576 839 486 921C429 866 361 813 297 769L315 722C400 740 485 770 568 807ZM458 921ZM411 700Z" glyph-name="Yacute" horiz-adv-x="589" unicode="&#221;" /><glyph d="M195 216 149 0H334L380 216L673 671L667 690L521 700L416 497C392 450 354 381 335 346H332C330 381 325 447 320 498L299 700L97 681ZM411 700ZM242 0ZM116 690ZM305 731C361 761 417 795 462 823H431C467 793 509 762 554 731L625 764C592 818 571 866 548 912L379 902C339 860 303 818 248 764ZM456 912ZM411 700Z" glyph-name="Ycircumflex" horiz-adv-x="589" unicode="&#374;" /><glyph d="M195 216 149 0H334L380 216L673 671L667 690L521 700L416 497C392 450 354 381 335 346H332C330 381 325 447 320 498L299 700L97 681ZM411 700ZM242 0ZM116 690ZM408 851C408 889 382 914 341 914C276 914 210 854 210 794C210 757 236 729 281 729C346 729 408 789 408 851ZM663 851C663 889 637 914 596 914C531 914 465 854 465 794C465 757 491 729 536 729C601 729 663 789 663 851ZM456 914ZM411 700Z" glyph-name="Ydieresis" horiz-adv-x="589" unicode="&#376;" /><glyph d="M195 216 149 0H334L380 216L673 671L667 690L521 700L416 497C392 450 354 381 335 346H332C330 381 325 447 320 498L299 700L97 681ZM411 700ZM242 0ZM116 690ZM526 722 564 769C516 815 474 864 439 921L315 839L309 807C376 769 449 741 526 722ZM458 921ZM411 700Z" glyph-name="Ygrave" horiz-adv-x="589" unicode="&#7922;" /><glyph d="M195 216 149 0H334L380 216L673 671L667 690L521 700L416 497C392 450 354 381 335 346H332C330 381 325 447 320 498L299 700L97 681ZM411 700ZM242 0ZM116 690ZM260 767H590L613 877H283ZM448 877ZM411 700Z" glyph-name="Ymacron" horiz-adv-x="589" unicode="&#562;" /><glyph d="M195 216 149 0H334L380 216L673 671L667 690L521 700L416 497C392 450 354 381 335 346H332C330 381 325 447 320 498L299 700L97 681ZM411 700ZM242 0ZM116 690ZM387 910C307 910 264 825 247 746L290 739C313 772 331 784 349 784C390 784 434 732 490 732C560 732 609 815 626 896L583 903C562 875 547 858 521 858C475 858 449 910 387 910ZM455 910ZM411 700Z" glyph-name="Ytilde" horiz-adv-x="589" unicode="&#7928;" /><glyph d="M-13 0H459L503 160L142 150L159 94L597 570L575 690H128L84 530L424 540V595L-18 120ZM364 700ZM217 0Z" glyph-name="Z" horiz-adv-x="539" unicode="Z" /><glyph d="M-13 0H459L503 160L142 150L159 94L597 570L575 690H128L84 530L424 540V595L-18 120ZM364 700ZM217 0ZM529 839 439 921C382 866 314 813 250 769L268 722C353 740 438 770 521 807ZM411 921ZM364 700Z" glyph-name="Zacute" horiz-adv-x="539" unicode="&#377;" /><glyph d="M-13 0H459L503 160L142 150L159 94L597 570L575 690H128L84 530L424 540V595L-18 120ZM364 700ZM217 0ZM521 912C465 882 409 848 364 820H395C359 850 317 881 272 912L201 879C234 825 255 777 278 731L447 741C487 783 523 825 578 879ZM409 912ZM364 700Z" glyph-name="Zcaron" horiz-adv-x="539" unicode="&#381;" /><glyph d="M-13 0H459L503 160L142 150L159 94L597 570L575 690H128L84 530L424 540V595L-18 120ZM364 700ZM217 0ZM501 853C501 893 472 915 423 915C347 915 279 858 279 794C279 756 307 729 361 729C436 729 501 787 501 853ZM410 915ZM364 700Z" glyph-name="Zdotaccent" horiz-adv-x="539" unicode="&#379;" /><glyph d="M-13 0H459L503 160L142 150L159 94L597 570L575 690H128L84 530L424 540V595L-18 120ZM364 700ZM217 0ZM295 -133C295 -89 265 -63 221 -63C152 -63 78 -126 78 -192C78 -234 108 -263 156 -263C227 -263 295 -199 295 -133ZM208 -63ZM151 -332ZM217 0ZM164 -246Z" glyph-name="Zdotbelow" horiz-adv-x="539" unicode="&#7826;" /><glyph d="M25 146C25 48 66 -10 142 -10C242 -10 322 92 335 209L361 345C339 243 289 140 243 140C222 140 210 160 210 195C210 273 269 410 335 410C357 410 385 395 413 370L569 466C511 497 426 510 368 510C140 510 25 309 25 146ZM487 0C487 40 492 114 530 288L569 466L393 497C321 161 307 72 307 0ZM513 10ZM273 0ZM345 500Z" glyph-name="a" horiz-adv-x="580" unicode="a" /><glyph d="M3 55C3 -25 40 -76 103 -76C184 -76 252 0 260 86L280 197C264 116 222 41 185 41C168 41 157 57 157 85C157 153 205 249 259 249C277 249 300 237 324 216L453 296C408 319 337 330 285 330C97 330 3 183 3 55ZM388 -76C388 -53 391 11 422 153L453 296L306 322C249 52 238 -18 238 -76ZM410 -68ZM227 -76ZM231 324Z" glyph-name="a.inferior" horiz-adv-x="486" /><glyph d="M451 203H182L157 83H426ZM175 0 277 212C323 308 353 379 364 405H369C369 378 368 320 374 211L386 0H565L522 523L498 547L274 538C265 514 251 485 234 451L5 0ZM512 10ZM286 0ZM397 520Z" glyph-name="a.sc" horiz-adv-x="570" /><glyph d="M79 415C79 335 116 284 179 284C260 284 328 360 336 446L356 557C340 476 298 401 261 401C244 401 233 417 233 445C233 513 281 609 335 609C353 609 376 597 400 576L529 656C484 679 413 690 361 690C173 690 79 543 79 415ZM464 284C464 307 467 371 498 513L529 656L382 682C325 412 314 342 314 284ZM486 292ZM303 284ZM307 684Z" glyph-name="a.superior" horiz-adv-x="486" /><glyph d="M25 146C25 48 66 -10 142 -10C242 -10 322 92 335 209L361 345C339 243 289 140 243 140C222 140 210 160 210 195C210 273 269 410 335 410C357 410 385 395 413 370L569 466C511 497 426 510 368 510C140 510 25 309 25 146ZM487 0C487 40 492 114 530 288L569 466L393 497C321 161 307 72 307 0ZM513 10ZM273 0ZM345 500ZM506 761 348 769C321 703 287 636 250 571L318 561C390 609 454 665 510 731ZM402 769ZM345 500Z" glyph-name="aacute" horiz-adv-x="580" unicode="&#225;" /><glyph d="M451 203H182L157 83H426ZM175 0 277 212C323 308 353 379 364 405H369C369 378 368 320 374 211L386 0H565L522 523L498 547L274 538C265 514 251 485 234 451L5 0ZM512 10ZM286 0ZM397 520ZM558 781 400 789C373 723 339 656 302 591L370 581C442 629 506 685 562 751ZM454 789ZM397 520Z" glyph-name="aacute.sc" horiz-adv-x="570" /><glyph d="M25 146C25 48 66 -10 142 -10C242 -10 322 92 335 209L361 345C339 243 289 140 243 140C222 140 210 160 210 195C210 273 269 410 335 410C357 410 385 395 413 370L569 466C511 497 426 510 368 510C140 510 25 309 25 146ZM487 0C487 40 492 114 530 288L569 466L393 497C321 161 307 72 307 0ZM513 10ZM273 0ZM345 500ZM360 555C457 555 536 639 565 752L494 743C476 699 433 665 389 665C347 665 318 695 318 744L246 734C228 625 276 555 360 555ZM399 752ZM345 500Z" glyph-name="abreve" horiz-adv-x="580" unicode="&#259;" /><glyph d="M451 203H182L157 83H426ZM175 0 277 212C323 308 353 379 364 405H369C369 378 368 320 374 211L386 0H565L522 523L498 547L274 538C265 514 251 485 234 451L5 0ZM512 10ZM286 0ZM397 520ZM412 575C509 575 588 659 617 772L546 763C528 719 485 685 441 685C399 685 370 715 370 764L298 754C280 645 328 575 412 575ZM451 772ZM397 520Z" glyph-name="abreve.sc" horiz-adv-x="570" /><glyph d="M25 146C25 48 66 -10 142 -10C242 -10 322 92 335 209L361 345C339 243 289 140 243 140C222 140 210 160 210 195C210 273 269 410 335 410C357 410 385 395 413 370L569 466C511 497 426 510 368 510C140 510 25 309 25 146ZM487 0C487 40 492 114 530 288L569 466L393 497C321 161 307 72 307 0ZM513 10ZM273 0ZM345 500ZM516 771C460 738 409 698 360 655H403C374 699 339 739 297 771L228 747C252 687 266 631 280 566L449 576C486 633 525 689 575 747ZM402 771ZM345 500Z" glyph-name="acaron" horiz-adv-x="580" unicode="&#462;" /><glyph d="M451 203H182L157 83H426ZM175 0 277 212C323 308 353 379 364 405H369C369 378 368 320 374 211L386 0H565L522 523L498 547L274 538C265 514 251 485 234 451L5 0ZM512 10ZM286 0ZM397 520ZM444 771C388 738 337 698 288 655H331C302 699 267 739 225 771L156 747C180 687 194 631 208 566L377 576C414 633 453 689 503 747Z" glyph-name="acaron.sc" horiz-adv-x="600" /><glyph d="M25 146C25 48 66 -10 142 -10C242 -10 322 92 335 209L361 345C339 243 289 140 243 140C222 140 210 160 210 195C210 273 269 410 335 410C357 410 385 395 413 370L569 466C511 497 426 510 368 510C140 510 25 309 25 146ZM487 0C487 40 492 114 530 288L569 466L393 497C321 161 307 72 307 0ZM513 10ZM273 0ZM345 500ZM266 566C322 599 374 638 422 682H379C408 638 443 598 485 566L554 590C530 650 516 706 502 771L333 761C296 704 257 648 207 590ZM402 771ZM345 500Z" glyph-name="acircumflex" horiz-adv-x="580" unicode="&#226;" /><glyph d="M451 203H182L157 83H426ZM175 0 277 212C323 308 353 379 364 405H369C369 378 368 320 374 211L386 0H565L522 523L498 547L274 538C265 514 251 485 234 451L5 0ZM512 10ZM286 0ZM397 520ZM318 586C374 619 426 658 474 702H431C460 658 495 618 537 586L606 610C582 670 568 726 554 791L385 781C348 724 309 668 259 610ZM454 791ZM397 520Z" glyph-name="acircumflex.sc" horiz-adv-x="570" /><glyph d="M374 761 216 769C189 703 155 636 118 571L186 561C258 609 322 665 378 731ZM270 769ZM213 500Z" glyph-name="acute" horiz-adv-x="600" unicode="&#180;" /><glyph d="M437 829 347 911C290 856 222 803 158 759L176 712C261 730 346 760 429 797ZM319 911ZM272 690Z" glyph-name="acute.case" horiz-adv-x="364" /><glyph d="M374 761 216 769C189 703 155 636 118 571L186 561C258 609 322 665 378 731ZM270 769ZM213 500Z" glyph-name="acutecomb" horiz-adv-x="326" unicode="&#769;" /><glyph d="M437 829 347 911C290 856 222 803 158 759L176 712C261 730 346 760 429 797ZM319 911ZM272 690Z" glyph-name="acutecomb.case" horiz-adv-x="364" /><glyph d="M25 146C25 48 66 -10 142 -10C242 -10 322 92 335 209L361 345C339 243 289 140 243 140C222 140 210 160 210 195C210 273 269 410 335 410C357 410 385 395 413 370L569 466C511 497 426 510 368 510C140 510 25 309 25 146ZM487 0C487 40 492 114 530 288L569 466L393 497C321 161 307 72 307 0ZM513 10ZM273 0ZM345 500ZM350 688C350 726 324 750 283 750C220 750 152 692 152 629C152 593 177 565 223 565C287 565 350 623 350 688ZM605 688C605 726 579 750 538 750C475 750 407 692 407 629C407 593 432 565 478 565C542 565 605 623 605 688ZM398 750ZM345 500Z" glyph-name="adieresis" horiz-adv-x="580" unicode="&#228;" /><glyph d="M451 203H182L157 83H426ZM175 0 277 212C323 308 353 379 364 405H369C369 378 368 320 374 211L386 0H565L522 523L498 547L274 538C265 514 251 485 234 451L5 0ZM512 10ZM286 0ZM397 520ZM402 708C402 746 376 770 335 770C272 770 204 712 204 649C204 613 229 585 275 585C339 585 402 643 402 708ZM657 708C657 746 631 770 590 770C527 770 459 712 459 649C459 613 484 585 530 585C594 585 657 643 657 708ZM450 770ZM397 520Z" glyph-name="adieresis.sc" horiz-adv-x="570" /><glyph d="M25 146C25 48 66 -10 142 -10C242 -10 322 92 335 209L361 345C339 243 289 140 243 140C222 140 210 160 210 195C210 273 269 410 335 410C357 410 385 395 413 370L569 466C511 497 426 510 368 510C140 510 25 309 25 146ZM487 0C487 40 492 114 530 288L569 466L393 497C321 161 307 72 307 0ZM513 10ZM273 0ZM345 500ZM351 -133C351 -89 321 -63 277 -63C208 -63 134 -126 134 -192C134 -234 164 -263 212 -263C283 -263 351 -199 351 -133ZM264 -63ZM207 -332ZM273 0ZM220 -246Z" glyph-name="adotbelow" horiz-adv-x="580" unicode="&#7841;" /><glyph d="M451 203H182L157 83H426ZM175 0 277 212C323 308 353 379 364 405H369C369 378 368 320 374 211L386 0H565L522 523L498 547L274 538C265 514 251 485 234 451L5 0ZM512 10ZM286 0ZM397 520ZM364 -133C364 -89 334 -63 290 -63C221 -63 147 -126 147 -192C147 -234 177 -263 225 -263C296 -263 364 -199 364 -133ZM277 -63ZM220 -332ZM286 0ZM233 -246Z" glyph-name="adotbelow.sc" horiz-adv-x="570" /><glyph d="M27 157C27 56 70 -10 146 -10C244 -10 327 100 337 209L347 282C321 205 281 140 245 140C224 140 212 160 212 195C212 273 271 410 337 410C359 410 387 395 415 370L571 466C513 497 428 510 368 510C142 510 27 322 27 157ZM726 143C685 120 641 105 601 105C541 105 515 140 515 194C515 260 554 415 626 415C645 415 657 404 657 373C657 301 595 257 500 240L495 194C697 206 820 272 820 379C820 458 754 510 651 510C469 510 330 348 330 180C330 51 411 -10 525 -10C604 -10 686 19 745 70ZM515 10ZM295 0ZM464 500Z" glyph-name="ae" horiz-adv-x="816" unicode="&#230;" /><glyph d="M451 203H182L157 83H426ZM175 0C289 206 350 318 389 405H409C393 314 383 250 344 0H523L562 523L537 540H300C292 516 276 481 259 450L5 0ZM758 540H518L492 420L746 411L774 521ZM717 324 531 320 508 214 687 208ZM733 129 489 120 463 0H706ZM526 520ZM365 0Z" glyph-name="ae.sc" horiz-adv-x="744" /><glyph d="M27 157C27 56 70 -10 146 -10C244 -10 327 100 337 209L347 282C321 205 281 140 245 140C224 140 212 160 212 195C212 273 271 410 337 410C359 410 387 395 415 370L571 466C513 497 428 510 368 510C142 510 27 322 27 157ZM726 143C685 120 641 105 601 105C541 105 515 140 515 194C515 260 554 415 626 415C645 415 657 404 657 373C657 301 595 257 500 240L495 194C697 206 820 272 820 379C820 458 754 510 651 510C469 510 330 348 330 180C330 51 411 -10 525 -10C604 -10 686 19 745 70ZM515 10ZM295 0ZM464 500ZM625 761 467 769C440 703 406 636 369 571L437 561C509 609 573 665 629 731ZM521 769ZM464 500Z" glyph-name="aeacute" horiz-adv-x="816" unicode="&#509;" /><glyph d="M451 203H182L157 83H426ZM175 0C289 206 350 318 389 405H409C393 314 383 250 344 0H523L562 523L537 540H300C292 516 276 481 259 450L5 0ZM758 540H518L492 420L746 411L774 521ZM717 324 531 320 508 214 687 208ZM733 129 489 120 463 0H706ZM526 520ZM365 0ZM687 781 529 789C502 723 468 656 431 591L499 581C571 629 635 685 691 751ZM583 789ZM526 520Z" glyph-name="aeacute.sc" horiz-adv-x="744" /><glyph d="M25 146C25 48 66 -10 142 -10C242 -10 322 92 335 209L361 345C339 243 289 140 243 140C222 140 210 160 210 195C210 273 269 410 335 410C357 410 385 395 413 370L569 466C511 497 426 510 368 510C140 510 25 309 25 146ZM487 0C487 40 492 114 530 288L569 466L393 497C321 161 307 72 307 0ZM513 10ZM273 0ZM345 500ZM435 561 505 571C482 636 462 703 449 769L289 761L279 731C321 665 373 609 435 561ZM345 769ZM345 500Z" glyph-name="agrave" horiz-adv-x="580" unicode="&#224;" /><glyph d="M451 203H182L157 83H426ZM175 0 277 212C323 308 353 379 364 405H369C369 378 368 320 374 211L386 0H565L522 523L498 547L274 538C265 514 251 485 234 451L5 0ZM512 10ZM286 0ZM397 520ZM487 581 557 591C534 656 514 723 501 789L341 781L331 751C373 685 425 629 487 581ZM397 789ZM397 520Z" glyph-name="agrave.sc" horiz-adv-x="570" /><glyph d="M25 146C25 48 66 -10 142 -10C242 -10 322 92 335 209L361 345C339 243 289 140 243 140C222 140 210 160 210 195C210 273 269 410 335 410C357 410 385 395 413 370L569 466C511 497 426 510 368 510C140 510 25 309 25 146ZM487 0C487 40 492 114 530 288L569 466L393 497C321 161 307 72 307 0ZM513 10ZM273 0ZM345 500ZM227 604H507L534 729H254ZM394 729ZM345 500Z" glyph-name="amacron" horiz-adv-x="580" unicode="&#257;" /><glyph d="M451 203H182L157 83H426ZM175 0 277 212C323 308 353 379 364 405H369C369 378 368 320 374 211L386 0H565L522 523L498 547L274 538C265 514 251 485 234 451L5 0ZM512 10ZM286 0ZM397 520ZM279 624H559L586 749H306ZM446 749ZM397 520Z" glyph-name="amacron.sc" horiz-adv-x="570" /><glyph d="M750 123C750 315 373 338 373 518C373 567 401 589 434 589C467 589 478 563 478 535C478 506 466 476 452 451V430C577 403 699 385 820 374C830 406 842 469 842 505L832 510C721 500 555 493 498 493V492C573 492 631 538 631 597C631 661 563 700 455 700C310 700 189 630 189 492C189 231 624 148 624 20C624 12 622 3 619 -3L626 -10C706 8 750 57 750 123ZM646 432H577C552 249 459 110 331 110C269 110 219 143 219 212C219 253 241 308 284 346L268 414C134 371 34 263 34 159C34 61 119 -10 247 -10C480 -10 626 224 646 432Z" glyph-name="ampersand" horiz-adv-x="775" unicode="&amp;" /><glyph d="M750 123C750 315 373 338 373 518C373 567 401 589 434 589C467 589 478 563 478 535C478 506 466 476 452 451V430C577 403 699 385 820 374C830 406 842 469 842 505L832 510C721 500 555 493 498 493V492C573 492 631 538 631 597C631 661 563 700 455 700C310 700 189 630 189 492C189 231 624 148 624 20C624 12 622 3 619 -3L626 -10C706 8 750 57 750 123ZM646 432H577C552 249 459 110 331 110C269 110 219 143 219 212C219 253 241 308 284 346L268 414C134 371 34 263 34 159C34 61 119 -10 247 -10C480 -10 626 224 646 432Z" glyph-name="ampersand.caps" horiz-adv-x="775" /><glyph d="M692 97C692 254 340 270 340 408C340 441 368 455 401 455C432 455 445 435 445 412C445 392 436 370 422 349L423 332C531 310 639 296 749 286C757 314 764 367 764 394L755 398C659 390 510 385 460 385V384C522 383 571 416 571 463C571 515 511 546 416 546C291 546 187 494 187 389C187 180 588 114 588 13C588 7 586 2 583 -2L590 -8C658 7 692 47 692 97ZM595 334H535C520 194 436 92 317 92C251 92 210 122 210 171C210 200 230 239 274 268L258 324C142 291 57 208 57 128C57 48 136 -8 250 -8C458 -8 584 172 595 334Z" glyph-name="ampersand.sc" horiz-adv-x="752" /><glyph d="M487 0 473 28C306 -21 220 -90 220 -169C220 -217 258 -250 322 -250C380 -250 439 -221 480 -182L473 -136C445 -150 423 -156 407 -156C384 -156 376 -145 376 -131C376 -94 418 -46 487 0ZM25 146C25 48 66 -10 142 -10C242 -10 322 92 335 209L361 345C339 243 289 140 243 140C222 140 210 160 210 195C210 273 269 410 335 410C357 410 385 395 413 370L569 466C511 497 426 510 368 510C140 510 25 309 25 146ZM487 0C487 40 492 114 530 288L569 466L393 497C321 161 307 72 307 0ZM513 10ZM273 0ZM345 500ZM513 10Z" glyph-name="aogonek" horiz-adv-x="580" unicode="&#261;" /><glyph d="M565 0 507 24C317 -24 219 -91 219 -169C219 -217 257 -250 321 -250C379 -250 438 -221 479 -182L472 -136C444 -150 422 -156 406 -156C383 -156 375 -145 375 -131C375 -94 446 -46 565 0ZM451 203H182L157 83H426ZM175 0 277 212C323 308 353 379 364 405H369C369 378 368 320 374 211L386 0H565L522 523L498 547L274 538C265 514 251 485 234 451L5 0ZM512 10ZM286 0ZM397 520ZM512 10Z" glyph-name="aogonek.sc" horiz-adv-x="570" /><glyph d="M440 312C393 312 216 362 183 362C172 362 145 335 114 305L70 339C107 388 163 458 209 458C255 458 435 408 467 408C478 408 504 435 536 465L580 431C542 382 487 312 440 312ZM419 88C372 88 195 138 162 138C151 138 124 111 93 81L49 115C86 164 142 234 188 234C234 234 414 184 446 184C457 184 483 211 515 241L559 207C521 158 466 88 419 88Z" glyph-name="approxequal" horiz-adv-x="620" unicode="&#8776;" /><glyph d="M456 387C409 387 232 437 199 437C188 437 161 410 130 380L86 414C123 463 179 533 225 533C271 533 451 483 483 483C494 483 520 510 552 540L596 506C558 457 503 387 456 387ZM435 163C388 163 211 213 178 213C167 213 140 186 109 156L65 190C102 239 158 309 204 309C250 309 430 259 462 259C473 259 499 286 531 316L575 282C537 233 482 163 435 163Z" glyph-name="approxequal.lf" horiz-adv-x="620" /><glyph d="M456 387C409 387 232 437 199 437C188 437 161 410 130 380L86 414C123 463 179 533 225 533C271 533 451 483 483 483C494 483 520 510 552 540L596 506C558 457 503 387 456 387ZM435 163C388 163 211 213 178 213C167 213 140 186 109 156L65 190C102 239 158 309 204 309C250 309 430 259 462 259C473 259 499 286 531 316L575 282C537 233 482 163 435 163Z" glyph-name="approxequal.osf" horiz-adv-x="620" /><glyph d="M440 312C393 312 216 362 183 362C172 362 145 335 114 305L70 339C107 388 163 458 209 458C255 458 435 408 467 408C478 408 504 435 536 465L580 431C542 382 487 312 440 312ZM419 88C372 88 195 138 162 138C151 138 124 111 93 81L49 115C86 164 142 234 188 234C234 234 414 184 446 184C457 184 483 211 515 241L559 207C521 158 466 88 419 88Z" glyph-name="approxequal.sc" horiz-adv-x="620" /><glyph d="M25 146C25 48 66 -10 142 -10C242 -10 322 92 335 209L361 345C339 243 289 140 243 140C222 140 210 160 210 195C210 273 269 410 335 410C357 410 385 395 413 370L569 466C511 497 426 510 368 510C140 510 25 309 25 146ZM487 0C487 40 492 114 530 288L569 466L393 497C321 161 307 72 307 0ZM513 10ZM273 0ZM345 500ZM510 693C510 744 474 776 418 776C332 776 246 699 246 624C246 576 281 539 343 539C428 539 510 615 510 693ZM329 644C329 673 361 703 394 703C414 703 427 691 427 672C427 642 396 612 364 612C342 612 329 626 329 644ZM403 776ZM345 500Z" glyph-name="aring" horiz-adv-x="580" unicode="&#229;" /><glyph d="M451 203H182L157 83H426ZM175 0 277 212C323 308 353 379 364 405H369C369 378 368 320 374 211L386 0H565L522 523L498 547L274 538C265 514 251 485 234 451L5 0ZM512 10ZM286 0ZM397 520ZM562 713C562 764 526 796 470 796C384 796 298 719 298 644C298 596 333 559 395 559C480 559 562 635 562 713ZM381 664C381 693 413 723 446 723C466 723 479 711 479 692C479 662 448 632 416 632C394 632 381 646 381 664ZM455 796ZM397 520Z" glyph-name="aring.sc" horiz-adv-x="570" /><glyph d="M25 146C25 48 66 -10 142 -10C242 -10 322 92 335 209L361 345C339 243 289 140 243 140C222 140 210 160 210 195C210 273 269 410 335 410C357 410 385 395 413 370L569 466C511 497 426 510 368 510C140 510 25 309 25 146ZM487 0C487 40 492 114 530 288L569 466L393 497C321 161 307 72 307 0ZM513 10ZM273 0ZM345 500ZM510 693C510 744 474 776 418 776C332 776 246 699 246 624C246 576 281 539 343 539C428 539 510 615 510 693ZM329 644C329 673 361 703 394 703C414 703 427 691 427 672C427 642 396 612 364 612C342 612 329 626 329 644ZM403 776ZM345 500ZM564 1037 406 1045C379 979 345 912 308 847L376 837C448 885 512 941 568 1007ZM460 1045ZM403 776Z" glyph-name="aringacute" horiz-adv-x="580" unicode="&#507;" /><glyph d="M451 203H182L157 83H426ZM175 0 277 212C323 308 353 379 364 405H369C369 378 368 320 374 211L386 0H565L522 523L498 547L274 538C265 514 251 485 234 451L5 0ZM512 10ZM286 0ZM397 520ZM562 713C562 764 526 796 470 796C384 796 298 719 298 644C298 596 333 559 395 559C480 559 562 635 562 713ZM381 664C381 693 413 723 446 723C466 723 479 711 479 692C479 662 448 632 416 632C394 632 381 646 381 664ZM455 796ZM397 520ZM616 1057 458 1065C431 999 397 932 360 867L428 857C500 905 564 961 620 1027ZM512 1065ZM455 796Z" glyph-name="aringacute.sc" horiz-adv-x="570" /><glyph d="M136 210 268 420H266L312 210H407L329 550H263L41 210Z" glyph-name="asciicircum" horiz-adv-x="466" unicode="^" /><glyph d="M432 212C385 212 208 262 175 262C164 262 137 235 106 205L62 239C99 288 155 358 201 358C247 358 427 308 459 308C470 308 496 335 528 365L572 331C534 282 479 212 432 212Z" glyph-name="asciitilde" horiz-adv-x="620" unicode="~" /><glyph d="M147 487 182 393 375 537 366 560 169 505ZM592 611 557 705 366 560 375 537 571 593ZM496 399 570 493 379 560 361 537 474 405ZM243 699 169 605 361 537 379 560 266 693ZM465 761H357L356 549H382L467 737ZM274 337H382V549H356L272 361Z" glyph-name="asterisk" horiz-adv-x="505" unicode="*" /><glyph d="M93 487 128 393 321 537 312 560 115 505ZM538 611 503 705 312 560 321 537 517 593ZM442 399 516 493 325 560 307 537 420 405ZM189 699 115 605 307 537 325 560 212 693ZM411 761H303L302 549H328L413 737ZM220 337H328V549H302L218 361Z" glyph-name="asterisk.caps" horiz-adv-x="504" /><glyph d="M147 487 182 393 375 537 366 560 169 505ZM592 611 557 705 366 560 375 537 571 593ZM496 399 570 493 379 560 361 537 474 405ZM243 699 169 605 361 537 379 560 266 693ZM465 761H357L356 549H382L467 737ZM274 337H382V549H356L272 361Z" glyph-name="asterisk.sc" horiz-adv-x="505" /><glyph d="M514 140C493 140 481 160 481 195C481 273 543 410 617 410C641 410 667 395 684 370L840 466C785 492 710 510 643 510C416 510 296 305 296 151C296 57 340 -10 414 -10C506 -10 582 96 604 176H609C590 100 627 -10 767 -10C937 -10 1075 154 1075 356C1075 581 904 760 649 760C344 760 57 503 57 178C57 -81 240 -260 496 -260C624 -260 732 -215 800 -160L781 -128C711 -168 629 -210 508 -210C268 -210 112 -42 112 185C112 497 397 710 650 710C860 710 1020 564 1020 353C1020 183 915 69 834 69C753 69 778 183 801 288L840 466L664 497L632 345C611 244 560 140 514 140Z" glyph-name="at" horiz-adv-x="1122" unicode="@" /><glyph d="M25 146C25 48 66 -10 142 -10C242 -10 322 92 335 209L361 345C339 243 289 140 243 140C222 140 210 160 210 195C210 273 269 410 335 410C357 410 385 395 413 370L569 466C511 497 426 510 368 510C140 510 25 309 25 146ZM487 0C487 40 492 114 530 288L569 466L393 497C321 161 307 72 307 0ZM513 10ZM273 0ZM345 500ZM332 763C257 763 213 674 196 592L239 585C260 616 275 628 294 628C333 628 378 571 433 571C500 571 547 658 565 742L522 749C503 722 488 706 465 706C420 706 393 763 332 763ZM401 763ZM345 500Z" glyph-name="atilde" horiz-adv-x="580" unicode="&#227;" /><glyph d="M451 203H182L157 83H426ZM175 0 277 212C323 308 353 379 364 405H369C369 378 368 320 374 211L386 0H565L522 523L498 547L274 538C265 514 251 485 234 451L5 0ZM512 10ZM286 0ZM397 520ZM384 783C309 783 265 694 248 612L291 605C312 636 327 648 346 648C385 648 430 591 485 591C552 591 599 678 617 762L574 769C555 742 540 726 517 726C472 726 445 783 384 783ZM453 783ZM397 520Z" glyph-name="atilde.sc" horiz-adv-x="570" /><glyph d="M138 609 89 380C41 156 28 72 29 33L214 81C238 286 335 597 335 760L146 750ZM444 510C344 510 264 408 251 291L191 241L225 156C245 260 297 360 343 360C364 360 376 340 376 305C376 227 317 90 251 90C229 90 201 105 173 130L29 33C88 1 163 -10 225 -10C443 -10 561 191 561 355C561 452 520 510 444 510Z" glyph-name="b" horiz-adv-x="582" unicode="b" /><glyph d="M76 407 38 228C5 73 -10 -13 -8 -40L146 1C163 159 240 398 239 525L81 517ZM328 330C250 330 185 253 166 168L162 150L146 -5C158 119 206 213 245 213C264 213 274 191 274 159C274 91 228 5 174 5C153 5 129 18 111 39L-8 -40C30 -65 101 -76 151 -76C335 -76 428 75 428 201C428 281 391 330 328 330Z" glyph-name="b.inferior" horiz-adv-x="482" /><glyph d="M230 0 345 540H156C154 488 143 433 134 394L50 0ZM297 0C443 0 560 74 560 181C560 233 527 264 477 282C543 308 590 352 590 420C590 488 529 540 417 540H328L302 420H359C389 420 405 407 405 385C405 350 377 324 340 324H282L258 214H324C359 214 377 198 377 175C377 143 345 120 305 120H239L213 0Z" glyph-name="b.sc" horiz-adv-x="568" /><glyph d="M152 767 114 588C81 433 66 347 68 320L222 361C239 519 316 758 315 885L157 877ZM404 690C326 690 261 613 242 528L238 510L222 355C234 479 282 573 321 573C340 573 350 551 350 519C350 451 304 365 250 365C229 365 205 378 187 399L68 320C106 295 177 284 227 284C411 284 504 435 504 561C504 641 467 690 404 690Z" glyph-name="b.superior" horiz-adv-x="482" /><glyph d="M213 -10 298 5 308 13 280 760 195 745 185 737Z" glyph-name="backslash" horiz-adv-x="366" unicode="\" /><glyph d="M166 -36 251 -21 261 -13 233 734 148 719 138 711Z" glyph-name="backslash.caps" horiz-adv-x="357" /><glyph d="M213 -10 298 5 308 13 280 760 195 745 185 737Z" glyph-name="backslash.sc" horiz-adv-x="366" /><glyph d="M0 -260 78 -257 292 752 286 760 208 757 -6 -252Z" glyph-name="bar" horiz-adv-x="286" unicode="|" /><glyph d="M159 160C159 87 82 13 82 -77C82 -170 164 -200 321 -200L345 -100C297 -100 270 -78 270 -35C270 30 334 100 334 174C334 249 270 288 180 296L176 282C278 280 395 328 395 472C395 486 394 507 394 522C394 617 437 660 506 660L525 760C337 760 225 723 225 564C225 543 227 513 227 493C227 392 175 353 100 343L76 230C135 223 159 200 159 160Z" glyph-name="braceleft" horiz-adv-x="469" unicode="{" /><glyph d="M90 295C151 294 173 273 173 244C173 196 115 132 115 72C115 5 187 -10 361 -10L385 90C336 90 306 104 306 135C306 170 344 226 344 266C344 316 284 349 193 352L190 338C313 342 390 390 390 490C390 499 390 507 390 516C390 575 421 600 494 600L512 700C321 700 222 683 222 566C222 540 227 515 227 490C227 423 192 402 113 403Z" glyph-name="braceleft.caps" horiz-adv-x="470" /><glyph d="M73 218C134 217 156 196 156 167C156 119 98 55 98 -5C98 -72 170 -87 344 -87L368 13C319 13 289 27 289 58C289 93 327 149 327 189C327 239 267 272 176 275L173 261C296 265 373 313 373 413C373 422 373 430 373 439C373 498 404 523 477 523L495 623C304 623 205 606 205 489C205 463 210 438 210 413C210 346 175 325 96 326Z" glyph-name="braceleft.sc" horiz-adv-x="469" /><glyph d="M323 400C323 473 400 547 400 637C400 730 318 760 161 760L137 660C185 660 212 638 212 595C212 530 148 460 148 386C148 311 212 272 302 264L306 278C204 280 87 232 87 88C87 74 88 53 88 38C88 -57 45 -100 -24 -100L-43 -200C145 -200 257 -163 257 -4C257 17 255 47 255 67C255 168 307 207 382 217L406 330C347 337 323 360 323 400Z" glyph-name="braceright" horiz-adv-x="469" unicode="}" /><glyph d="M420 395C359 396 337 417 337 446C337 494 395 558 395 618C395 685 323 700 149 700L125 600C174 600 204 586 204 555C204 520 166 464 166 424C166 374 226 341 317 338L320 352C197 348 120 300 120 200C120 191 120 183 120 174C120 115 89 90 16 90L-2 -10C189 -10 288 7 288 124C288 150 283 175 283 200C283 267 318 288 397 287Z" glyph-name="braceright.caps" horiz-adv-x="469" /><glyph d="M404 318C343 319 321 340 321 369C321 417 379 481 379 541C379 608 307 623 133 623L109 523C158 523 188 509 188 478C188 443 150 387 150 347C150 297 210 264 301 261L304 275C181 271 104 223 104 123C104 114 104 106 104 97C104 38 73 13 0 13L-18 -87C173 -87 272 -70 272 47C272 73 267 98 267 123C267 190 302 211 381 210Z" glyph-name="braceright.sc" horiz-adv-x="470" /><glyph d="M25 -198H195L399 760H229ZM229 760 200 626H474L503 760ZM53 -64 25 -198H299L327 -64Z" glyph-name="bracketleft" horiz-adv-x="445" unicode="[" /><glyph d="M67 0H237L384 690H214ZM214 690 185 556H459L488 690ZM95 134 67 0H341L369 134Z" glyph-name="bracketleft.caps" horiz-adv-x="444" /><glyph d="M51 -77H221L368 613H198ZM198 613 169 479H443L472 613ZM79 57 51 -77H325L353 57Z" glyph-name="bracketleft.sc" horiz-adv-x="445" /><glyph d="M433 760H263L59 -198H229ZM229 -198 258 -64H-16L-45 -198ZM405 626 433 760H159L131 626Z" glyph-name="bracketright" horiz-adv-x="445" unicode="]" /><glyph d="M418 690H248L101 0H271ZM271 0 300 134H26L-3 0ZM390 556 418 690H144L116 556Z" glyph-name="bracketright.caps" horiz-adv-x="445" /><glyph d="M401 613H231L84 -77H254ZM254 -77 283 57H9L-20 -77ZM373 479 401 613H127L99 479Z" glyph-name="bracketright.sc" horiz-adv-x="444" /><glyph d="M267 555C364 555 443 639 472 752L401 743C383 699 340 665 296 665C254 665 225 695 225 744L153 734C135 625 183 555 267 555Z" glyph-name="breve" horiz-adv-x="415" unicode="&#728;" /><glyph d="M309 714C412 714 492 796 521 906L450 897C431 854 392 822 338 822C286 822 259 850 258 898L186 888C168 780 223 714 309 714ZM372 906ZM326 690Z" glyph-name="breve.case" horiz-adv-x="432" /><glyph d="M293 555C390 555 469 639 498 752L427 743C409 699 366 665 322 665C280 665 251 695 251 744L179 734C161 625 209 555 293 555ZM332 752ZM278 500Z" glyph-name="brevecomb" horiz-adv-x="415" unicode="&#774;" /><glyph d="M309 714C412 714 492 796 521 906L450 897C431 854 392 822 338 822C286 822 259 850 258 898L186 888C168 780 223 714 309 714ZM372 906ZM326 690Z" glyph-name="brevecomb.case" horiz-adv-x="432" /><glyph d="M207 348 292 752 286 760 208 757 123 353 129 345ZM78 -257 163 143 157 151 79 148 -6 -252 0 -260Z" glyph-name="brokenbar" horiz-adv-x="286" unicode="&#166;" /><glyph d="M274 88C382 88 482 184 482 286C482 357 434 401 362 401C254 401 146 303 146 204C146 136 197 88 274 88Z" glyph-name="bullet" horiz-adv-x="524" unicode="&#8226;" /><glyph d="M296 192C404 192 504 288 504 390C504 461 456 505 384 505C276 505 168 407 168 308C168 240 219 192 296 192Z" glyph-name="bullet.caps" horiz-adv-x="524" /><glyph d="M274 85C382 85 482 181 482 283C482 354 434 398 362 398C254 398 146 300 146 201C146 133 197 85 274 85Z" glyph-name="bullet.sc" horiz-adv-x="525" /><glyph d="M430 143C389 120 345 105 305 105C241 105 216 144 216 211C216 300 260 395 337 395C373 395 418 375 460 333L505 477C465 500 412 510 362 510C163 510 31 347 31 181C31 51 111 -10 224 -10C308 -10 390 19 449 70ZM308 500ZM242 0Z" glyph-name="c" horiz-adv-x="487" unicode="c" /><glyph d="M323 45C291 30 254 19 221 19C169 19 148 48 148 101C148 178 191 235 250 235C279 235 314 221 343 201L374 311C332 326 283 330 255 330C103 330 -6 211 -6 80C-6 -23 62 -76 160 -76C224 -76 292 -53 339 -16ZM236 322ZM153 -68Z" glyph-name="c.inferior" horiz-adv-x="400" /><glyph d="M490 157C455 143 411 131 364 131C293 131 253 165 253 228C253 326 324 409 407 409C447 409 478 397 519 374L584 517C550 536 499 548 434 548C231 548 64 388 64 193C64 67 151 -8 310 -8C377 -8 430 1 481 20ZM391 520ZM289 0Z" glyph-name="c.sc" horiz-adv-x="482" /><glyph d="M400 405C368 390 331 379 298 379C246 379 225 408 225 461C225 538 268 595 327 595C356 595 391 581 420 561L451 671C409 686 360 690 332 690C180 690 71 571 71 440C71 337 139 284 237 284C301 284 369 307 416 344ZM313 682ZM230 292Z" glyph-name="c.superior" horiz-adv-x="400" /><glyph d="M430 143C389 120 345 105 304 105C241 105 216 141 216 194C216 245 240 395 336 395C371 395 414 375 454 333L505 467C465 497 413 510 358 510C164 510 31 347 31 180C31 51 111 -10 228 -10C308 -10 390 19 449 70ZM668 760C503 760 379 675 379 561C379 517 399 466 449 420L504 468C490 494 486 519 486 536C486 586 520 615 571 615C603 615 633 604 650 589L817 740C764 753 713 760 668 760ZM690 0C693 176 759 360 823 360C840 360 847 346 847 325C847 314 845 301 836 257C823 194 800 93 800 0H980C980 63 984 110 993 151C1034 340 1041 372 1041 405C1041 472 1006 510 944 510C884 510 810 474 757 386H754C786 524 817 681 817 740L632 750C632 697 616 588 600 513L571 380C523 161 510 72 510 0Z" glyph-name="c_h" horiz-adv-x="1073" /><glyph d="M419 471 505 477C495 494 490 513 490 530C490 591 539 643 591 643C626 643 642 623 642 592C642 552 611 500 549 480L536 420L591 418C545 201 536 168 536 129C536 36 588 -10 681 -10C743 -10 800 10 838 31L851 139C822 124 793 115 769 115C738 115 719 130 719 161C719 181 727 210 770 414L910 410L933 480L925 500H693L666 468C760 502 822 566 822 636C822 706 762 750 663 750C515 750 407 651 407 535C407 513 411 489 419 471ZM430 143C389 120 345 105 305 105C241 105 216 144 216 211C216 300 260 395 337 395C373 395 418 375 460 333L505 477C465 500 412 510 362 510C163 510 31 347 31 181C31 51 111 -10 224 -10C308 -10 390 19 449 70Z" glyph-name="c_t" horiz-adv-x="895" /><glyph d="M430 143C389 120 345 105 305 105C241 105 216 144 216 211C216 300 260 395 337 395C373 395 418 375 460 333L505 477C465 500 412 510 362 510C163 510 31 347 31 181C31 51 111 -10 224 -10C308 -10 390 19 449 70ZM308 500ZM242 0ZM469 761 311 769C284 703 250 636 213 571L281 561C353 609 417 665 473 731ZM365 769ZM308 500Z" glyph-name="cacute" horiz-adv-x="487" unicode="&#263;" /><glyph d="M490 157C455 143 411 131 364 131C293 131 253 165 253 228C253 326 324 409 407 409C447 409 478 397 519 374L584 517C550 536 499 548 434 548C231 548 64 388 64 193C64 67 151 -8 310 -8C377 -8 430 1 481 20ZM391 520ZM289 0ZM552 781 394 789C367 723 333 656 296 591L364 581C436 629 500 685 556 751ZM448 789ZM391 520Z" glyph-name="cacute.sc" horiz-adv-x="482" /><glyph d="M444 771C388 738 337 698 288 655H331C302 699 267 739 225 771L156 747C180 687 194 631 208 566L377 576C414 633 453 689 503 747Z" glyph-name="caron" horiz-adv-x="447" unicode="&#711;" /><glyph d="M502 902C446 872 390 838 345 810H376C340 840 298 871 253 902L182 869C215 815 236 767 259 721L428 731C468 773 504 815 559 869ZM390 902ZM345 690Z" glyph-name="caron.case" horiz-adv-x="477" /><glyph d="M465 771C409 738 358 698 309 655H352C323 699 288 739 246 771L177 747C201 687 215 631 229 566L398 576C435 633 474 689 524 747ZM351 771ZM294 500Z" glyph-name="caroncomb" horiz-adv-x="447" unicode="&#780;" /><glyph d="M329 769H192C166 689 138 609 109 529H168C221 586 277 651 333 739ZM221 500Z" glyph-name="caroncomb.alt" horiz-adv-x="279" /><glyph d="M502 902C446 872 390 838 345 810H376C340 840 298 871 253 902L182 869C215 815 236 767 259 721L428 731C468 773 504 815 559 869ZM390 902ZM345 690Z" glyph-name="caroncomb.case" horiz-adv-x="477" /><glyph d="M430 143C389 120 345 105 305 105C241 105 216 144 216 211C216 300 260 395 337 395C373 395 418 375 460 333L505 477C465 500 412 510 362 510C163 510 31 347 31 181C31 51 111 -10 224 -10C308 -10 390 19 449 70ZM308 500ZM242 0ZM479 771C423 738 372 698 323 655H366C337 699 302 739 260 771L191 747C215 687 229 631 243 566L412 576C449 633 488 689 538 747ZM365 771ZM308 500Z" glyph-name="ccaron" horiz-adv-x="487" unicode="&#269;" /><glyph d="M490 157C455 143 411 131 364 131C293 131 253 165 253 228C253 326 324 409 407 409C447 409 478 397 519 374L584 517C550 536 499 548 434 548C231 548 64 388 64 193C64 67 151 -8 310 -8C377 -8 430 1 481 20ZM391 520ZM289 0ZM562 791C506 758 455 718 406 675H449C420 719 385 759 343 791L274 767C298 707 312 651 326 586L495 596C532 653 571 709 621 767ZM448 791ZM391 520Z" glyph-name="ccaron.sc" horiz-adv-x="482" /><glyph d="M430 143C389 120 345 105 305 105C241 105 216 144 216 211C216 300 260 395 337 395C373 395 418 375 460 333L505 477C465 500 412 510 362 510C163 510 31 347 31 181C31 51 111 -10 224 -10C308 -10 390 19 449 70ZM308 500ZM242 0ZM106 -190 88 -250C236 -250 353 -182 353 -97C353 -56 317 -38 278 -38C223 -38 170 -72 135 -100L148 -130C171 -122 185 -118 198 -118C215 -118 222 -125 222 -135C222 -163 173 -187 106 -190ZM231 43 135 -100 226 -77 324 43ZM242 0ZM189 -250Z" glyph-name="ccedilla" horiz-adv-x="487" unicode="&#231;" /><glyph d="M490 157C455 143 411 131 364 131C293 131 253 165 253 228C253 326 324 409 407 409C447 409 478 397 519 374L584 517C550 536 499 548 434 548C231 548 64 388 64 193C64 67 151 -8 310 -8C377 -8 430 1 481 20ZM391 520ZM289 0ZM153 -190 135 -250C283 -250 400 -182 400 -97C400 -56 364 -38 325 -38C270 -38 217 -72 182 -100L195 -130C218 -122 232 -118 245 -118C262 -118 269 -125 269 -135C269 -163 220 -187 153 -190ZM278 43 182 -100 273 -77 371 43ZM289 0ZM236 -250Z" glyph-name="ccedilla.sc" horiz-adv-x="482" /><glyph d="M430 143C389 120 345 105 305 105C241 105 216 144 216 211C216 300 260 395 337 395C373 395 418 375 460 333L505 477C465 500 412 510 362 510C163 510 31 347 31 181C31 51 111 -10 224 -10C308 -10 390 19 449 70ZM308 500ZM242 0ZM229 566C285 599 337 638 385 682H342C371 638 406 598 448 566L517 590C493 650 479 706 465 771L296 761C259 704 220 648 170 590ZM365 771ZM308 500Z" glyph-name="ccircumflex" horiz-adv-x="487" unicode="&#265;" /><glyph d="M490 157C455 143 411 131 364 131C293 131 253 165 253 228C253 326 324 409 407 409C447 409 478 397 519 374L584 517C550 536 499 548 434 548C231 548 64 388 64 193C64 67 151 -8 310 -8C377 -8 430 1 481 20ZM391 520ZM289 0ZM312 586C368 619 420 658 468 702H425C454 658 489 618 531 586L600 610C576 670 562 726 548 791L379 781C342 724 303 668 253 610ZM448 791ZM391 520Z" glyph-name="ccircumflex.sc" horiz-adv-x="482" /><glyph d="M430 143C389 120 345 105 305 105C241 105 216 144 216 211C216 300 260 395 337 395C373 395 418 375 460 333L505 477C465 500 412 510 362 510C163 510 31 347 31 181C31 51 111 -10 224 -10C308 -10 390 19 449 70ZM308 500ZM242 0ZM452 699C452 743 422 769 378 769C309 769 235 706 235 640C235 598 265 569 313 569C384 569 452 633 452 699ZM365 769ZM308 500Z" glyph-name="cdotaccent" horiz-adv-x="487" unicode="&#267;" /><glyph d="M490 157C455 143 411 131 364 131C293 131 253 165 253 228C253 326 324 409 407 409C447 409 478 397 519 374L584 517C550 536 499 548 434 548C231 548 64 388 64 193C64 67 151 -8 310 -8C377 -8 430 1 481 20ZM391 520ZM289 0ZM535 719C535 763 505 789 461 789C392 789 318 726 318 660C318 618 348 589 396 589C467 589 535 653 535 719ZM448 789ZM391 520Z" glyph-name="cdotaccent.sc" horiz-adv-x="482" /><glyph d="M-38 -190 -56 -250C92 -250 209 -182 209 -97C209 -56 173 -38 134 -38C79 -38 26 -72 -9 -100L4 -130C27 -122 41 -118 54 -118C71 -118 78 -125 78 -135C78 -163 29 -187 -38 -190ZM87 43 -9 -100 82 -77 180 43Z" glyph-name="cedilla" horiz-adv-x="335" unicode="&#184;" /><glyph d="M-38 -190 -56 -250C92 -250 209 -182 209 -97C209 -56 173 -38 134 -38C79 -38 26 -72 -9 -100L4 -130C27 -122 41 -118 54 -118C71 -118 78 -125 78 -135C78 -163 29 -187 -38 -190ZM87 43 -9 -100 82 -77 180 43ZM98 0ZM45 -250Z" glyph-name="cedillacomb" horiz-adv-x="335" unicode="&#807;" /><glyph d="M397 540 425 672 418 680 356 677 327 540ZM170 -140 233 -137 262 0H192L164 -132ZM517 513C488 533 435 549 377 549C187 549 34 377 34 188C34 61 103 -10 229 -10C315 -10 395 23 452 70L428 144C386 124 345 110 307 110C247 110 219 146 219 220C219 321 277 423 354 423C389 423 430 401 468 358Z" glyph-name="cent" horiz-adv-x="490" unicode="&#162;" /><glyph d="M366 500 394 632 388 640 325 637 296 500ZM168 -140 231 -137 260 0H190L162 -132ZM430 143C389 120 345 105 305 105C241 105 216 144 216 211C216 300 260 395 337 395C373 395 418 375 460 333L505 477C465 500 412 510 362 510C163 510 31 347 31 181C31 51 111 -10 224 -10C308 -10 390 19 449 70ZM308 500ZM242 0Z" glyph-name="cent.lf" horiz-adv-x="487" /><glyph d="M397 540 425 672 418 680 356 677 327 540ZM170 -140 233 -137 262 0H192L164 -132ZM517 513C488 533 435 549 377 549C187 549 34 377 34 188C34 61 103 -10 229 -10C315 -10 395 23 452 70L428 144C386 124 345 110 307 110C247 110 219 146 219 220C219 321 277 423 354 423C389 423 430 401 468 358Z" glyph-name="cent.osf" horiz-adv-x="511" /><glyph d="M432 540 460 672 454 680 391 677 362 540ZM205 -140 268 -137 297 0H227L199 -132ZM490 157C455 143 411 131 364 131C293 131 253 165 253 228C253 326 324 409 407 409C447 409 478 397 519 374L584 517C550 536 499 548 434 548C231 548 64 388 64 193C64 67 151 -8 310 -8C377 -8 430 1 481 20ZM391 520ZM289 0Z" glyph-name="cent.sc" horiz-adv-x="482" /><glyph d="M423 500 451 632 445 640 382 637 353 500ZM225 -140 288 -137 317 0H247L219 -132ZM487 143C446 120 402 105 362 105C298 105 273 144 273 211C273 300 317 395 394 395C430 395 475 375 517 333L562 477C522 500 469 510 419 510C220 510 88 347 88 181C88 51 168 -10 281 -10C365 -10 447 19 506 70ZM365 500ZM299 0Z" glyph-name="cent.tf" horiz-adv-x="620" /><glyph d="M443 540 471 672 465 680 402 677 373 540ZM216 -140 279 -137 308 0H238L210 -132ZM501 157C466 143 422 131 375 131C304 131 264 165 264 228C264 326 335 409 418 409C458 409 489 397 530 374L595 517C561 536 510 548 445 548C242 548 75 388 75 193C75 67 162 -8 321 -8C388 -8 441 1 492 20ZM402 520ZM300 0Z" glyph-name="cent.tf.sc" horiz-adv-x="620" /><glyph d="M456 540 484 672 477 680 415 677 386 540ZM229 -140 292 -137 321 0H251L223 -132ZM576 513C547 533 494 549 436 549C246 549 93 377 93 188C93 61 162 -10 288 -10C374 -10 454 23 511 70L487 144C445 124 404 110 366 110C306 110 278 146 278 220C278 321 336 423 413 423C448 423 489 401 527 358Z" glyph-name="cent.tosf" horiz-adv-x="620" /><glyph d="M201 566C257 599 309 638 357 682H314C343 638 378 598 420 566L489 590C465 650 451 706 437 771L268 761C231 704 192 648 142 590Z" glyph-name="circumflex" horiz-adv-x="487" unicode="&#710;" /><glyph d="M214 721C270 751 326 785 371 813H340C376 783 418 752 463 721L534 754C501 808 480 856 457 902L288 892C248 850 212 808 157 754ZM365 902ZM320 690Z" glyph-name="circumflex.case" horiz-adv-x="477" /><glyph d="M201 566C257 599 309 638 357 682H314C343 638 378 598 420 566L489 590C465 650 451 706 437 771L268 761C231 704 192 648 142 590ZM337 771ZM280 500Z" glyph-name="circumflexcomb" horiz-adv-x="487" unicode="&#770;" /><glyph d="M214 721C270 751 326 785 371 813H340C376 783 418 752 463 721L534 754C501 808 480 856 457 902L288 892C248 850 212 808 157 754ZM365 902ZM320 690Z" glyph-name="circumflexcomb.case" horiz-adv-x="477" /><glyph d="M344 431C344 473 315 500 269 500C198 500 125 434 125 368C125 328 154 297 204 297C276 297 344 363 344 431ZM279 124C279 166 249 193 204 193C132 193 60 127 60 61C60 21 89 -10 139 -10C211 -10 279 56 279 124Z" glyph-name="colon" horiz-adv-x="300" unicode=":" /><glyph d="M15 -164 27 -177C151 -131 278 19 278 119C278 164 249 193 198 193C128 193 55 127 55 62C55 21 87 -10 139 -10C171 -10 205 10 210 35H139C123 -40 60 -121 15 -164Z" glyph-name="comma" horiz-adv-x="301" unicode="," /><glyph d="M328 827 318 838C223 804 130 696 130 616C130 575 156 550 200 550C255 550 306 602 306 656C306 691 280 717 238 717L246 680C257 735 297 793 328 827ZM189 504ZM260 838ZM260 838ZM188 500Z" glyph-name="commaabovecomb" horiz-adv-x="272" unicode="&#787;" /><glyph d="M-55 -323 -45 -334C50 -300 143 -192 143 -112C143 -71 117 -46 73 -46C18 -46 -33 -98 -33 -152C-33 -187 -7 -213 35 -213L27 -176C16 -231 -24 -289 -55 -323ZM84 0ZM13 -334Z" glyph-name="commaaccent" horiz-adv-x="273" /><glyph d="M-55 -323 -45 -334C50 -300 143 -192 143 -112C143 -71 117 -46 73 -46C18 -46 -33 -98 -33 -152C-33 -187 -7 -213 35 -213L27 -176C16 -231 -24 -289 -55 -323ZM84 0ZM13 -334Z" glyph-name="commaaccentcomb" horiz-adv-x="273" unicode="&#806;" /><glyph d="M329 -50C520 -50 700 128 700 314C700 448 605 550 457 550C266 550 86 372 86 184C86 47 183 -50 329 -50ZM340 0C218 0 137 81 137 194C137 351 287 500 446 500C566 500 649 415 649 302C649 148 498 0 340 0ZM542 400C521 412 490 421 453 421C332 421 231 327 231 214C231 134 281 87 366 87C420 87 470 106 500 133L485 191C465 180 440 170 417 170C381 170 360 193 360 234C360 286 393 335 441 335C462 335 488 324 511 302ZM425 450ZM342 60Z" glyph-name="copyright" horiz-adv-x="680" unicode="&#169;" /><glyph d="M546 446 495 510 407 437 457 373ZM391 30 468 81 471 92C464 101 431 142 401 181L325 118ZM87 173 -9 94 41 30 137 109ZM203 435C196 445 162 489 143 510L71 450L129 373ZM311 470C176 470 56 352 56 224C56 137 112 70 215 70C351 70 468 187 468 315C468 403 413 470 311 470ZM288 380C342 380 370 343 370 293C370 222 312 160 240 160C182 160 155 200 155 245C155 316 216 380 288 380Z" glyph-name="currency" horiz-adv-x="525" unicode="&#164;" /><glyph d="M546 446 495 510 407 437 457 373ZM391 30 468 81 471 92C464 101 431 142 401 181L325 118ZM87 173 -9 94 41 30 137 109ZM203 435C196 445 162 489 143 510L71 450L129 373ZM311 470C176 470 56 352 56 224C56 137 112 70 215 70C351 70 468 187 468 315C468 403 413 470 311 470ZM288 380C342 380 370 343 370 293C370 222 312 160 240 160C182 160 155 200 155 245C155 316 216 380 288 380Z" glyph-name="currency.lf" horiz-adv-x="525" /><glyph d="M546 446 495 510 407 437 457 373ZM391 30 468 81 471 92C464 101 431 142 401 181L325 118ZM87 173 -9 94 41 30 137 109ZM203 435C196 445 162 489 143 510L71 450L129 373ZM311 470C176 470 56 352 56 224C56 137 112 70 215 70C351 70 468 187 468 315C468 403 413 470 311 470ZM288 380C342 380 370 343 370 293C370 222 312 160 240 160C182 160 155 200 155 245C155 316 216 380 288 380Z" glyph-name="currency.osf" horiz-adv-x="521" /><glyph d="M546 446 495 510 407 437 457 373ZM391 30 468 81 471 92C464 101 431 142 401 181L325 118ZM87 173 -9 94 41 30 137 109ZM203 435C196 445 162 489 143 510L71 450L129 373ZM311 470C176 470 56 352 56 224C56 137 112 70 215 70C351 70 468 187 468 315C468 403 413 470 311 470ZM288 380C342 380 370 343 370 293C370 222 312 160 240 160C182 160 155 200 155 245C155 316 216 380 288 380Z" glyph-name="currency.sc" horiz-adv-x="525" /><glyph d="M611 515 560 579 472 506 522 442ZM456 99 533 150 536 161C529 170 496 211 466 250L390 187ZM152 242 56 163 106 99 202 178ZM268 504C261 514 227 558 208 579L136 519L194 442ZM376 539C241 539 121 421 121 293C121 206 177 139 280 139C416 139 533 256 533 384C533 472 478 539 376 539ZM353 449C407 449 435 412 435 362C435 291 377 229 305 229C247 229 220 269 220 314C220 385 281 449 353 449Z" glyph-name="currency.tf" horiz-adv-x="620" /><glyph d="M596 446 545 510 457 437 507 373ZM441 30 518 81 521 92C514 101 481 142 451 181L375 118ZM137 173 41 94 91 30 187 109ZM253 435C246 445 212 489 193 510L121 450L179 373ZM361 470C226 470 106 352 106 224C106 137 162 70 265 70C401 70 518 187 518 315C518 403 463 470 361 470ZM338 380C392 380 420 343 420 293C420 222 362 160 290 160C232 160 205 200 205 245C205 316 266 380 338 380Z" glyph-name="currency.tf.sc" horiz-adv-x="620" /><glyph d="M596 446 545 510 457 437 507 373ZM441 30 518 81 521 92C514 101 481 142 451 181L375 118ZM137 173 41 94 91 30 187 109ZM253 435C246 445 212 489 193 510L121 450L179 373ZM361 470C226 470 106 352 106 224C106 137 162 70 265 70C401 70 518 187 518 315C518 403 463 470 361 470ZM338 380C392 380 420 343 420 293C420 222 362 160 290 160C232 160 205 200 205 245C205 316 266 380 338 380Z" glyph-name="currency.tosf" horiz-adv-x="620" /><glyph d="M487 0C487 193 614 573 614 760L425 750L417 609L368 380C321 161 307 72 307 0ZM361 510C143 510 25 309 25 145C25 48 66 -10 142 -10C242 -10 322 92 335 209L361 345C339 243 289 140 243 140C222 140 210 160 210 195C210 273 269 410 335 410C357 410 385 395 413 370L521 466C473 499 412 510 361 510ZM263 0ZM349 500ZM756 500ZM491 615Z" glyph-name="d" horiz-adv-x="580" unicode="d" /><glyph d="M373 -68C371 81 472 380 470 525L313 517L308 407L269 228C232 58 220 -10 223 -68ZM268 330C89 330 -10 187 -10 57C-10 -23 27 -76 91 -76C168 -76 236 0 243 86L263 200C244 113 208 41 171 41C154 41 144 57 144 90C144 162 190 249 242 249C260 249 281 238 307 215L436 294C391 318 320 330 268 330ZM171 -68ZM254 322ZM590 322ZM370 412Z" glyph-name="d.inferior" horiz-adv-x="477" /><glyph d="M230 0 345 540H156C154 488 143 433 134 394L50 0ZM628 344C628 466 544 540 385 540H229L203 420H350C419 420 441 377 441 325C441 204 379 120 292 120H146L120 0H250C465 0 628 148 628 344ZM216 268ZM289 0ZM400 520Z" glyph-name="d.sc" horiz-adv-x="578" /><glyph d="M449 292C447 441 548 740 546 885L389 877L384 767L345 588C308 418 296 350 299 292ZM344 690C165 690 66 547 66 417C66 337 103 284 167 284C244 284 312 360 319 446L339 560C320 473 284 401 247 401C230 401 220 417 220 450C220 522 266 609 318 609C336 609 357 598 383 575L512 654C467 678 396 690 344 690ZM247 292ZM330 682ZM666 682ZM446 772Z" glyph-name="d.superior" horiz-adv-x="476" /><glyph d="M268 485 138 14 143 0H277L288 14L358 485ZM358 485 432 692 426 700C380 700 323 697 285 693L282 689L268 485ZM323 530 128 548 112 540C104 504 96 451 94 423L97 420L303 438ZM303 438 498 420 514 428C522 465 528 513 532 545L529 548L323 530Z" glyph-name="dagger" horiz-adv-x="526" unicode="&#8224;" /><glyph d="M358 485 432 692 426 700C380 700 323 697 285 693L282 689L268 485ZM303 438 323 530 128 548 112 540C104 503 97 454 94 423L97 420ZM514 428C522 467 528 511 532 545L529 548L323 530L303 438L498 420ZM219 205H289C336 278 362 328 362 384C362 412 357 447 348 485H278C226 409 205 354 205 304C205 273 210 239 219 205ZM244 160 264 252 69 270 53 262C41 207 40 179 35 145L38 142ZM455 150C463 187 470 236 473 267L470 270L264 252L244 160L439 142ZM282 -3 285 1 299 205H209L135 -2L141 -10C188 -10 244 -7 282 -3Z" glyph-name="daggerdbl" horiz-adv-x="526" unicode="&#8225;" /><glyph d="M487 0C487 193 614 573 614 760L425 750L417 609L368 380C321 161 307 72 307 0ZM361 510C143 510 25 309 25 145C25 48 66 -10 142 -10C242 -10 322 92 335 209L361 345C339 243 289 140 243 140C222 140 210 160 210 195C210 273 269 410 335 410C357 410 385 395 413 370L521 466C473 499 412 510 361 510ZM263 0ZM349 500ZM756 500ZM491 615ZM864 769H727C701 689 673 609 644 529H703C756 586 812 651 868 739ZM756 500Z" glyph-name="dcaron" horiz-adv-x="580" unicode="&#271;" /><glyph d="M230 0 345 540H156C154 488 143 433 134 394L50 0ZM628 344C628 466 544 540 385 540H229L203 420H350C419 420 441 377 441 325C441 204 379 120 292 120H146L120 0H250C465 0 628 148 628 344ZM216 268ZM289 0ZM400 520ZM571 791C515 758 464 718 415 675H458C429 719 394 759 352 791L283 767C307 707 321 651 335 586L504 596C541 653 580 709 630 767ZM457 791ZM400 520Z" glyph-name="dcaron.sc" horiz-adv-x="578" /><glyph d="M487 0C487 193 614 573 614 760L425 750L417 609L368 380C321 161 307 72 307 0ZM361 510C143 510 25 309 25 145C25 48 66 -10 142 -10C242 -10 322 92 335 209L361 345C339 243 289 140 243 140C222 140 210 160 210 195C210 273 269 410 335 410C357 410 385 395 413 370L521 466C473 499 412 510 361 510ZM263 0ZM349 500ZM756 500ZM491 615ZM674 570 693 660H307L288 570ZM491 615Z" glyph-name="dcroat" horiz-adv-x="580" unicode="&#273;" /><glyph d="M230 0 345 540H156C154 488 143 433 134 394L50 0ZM628 344C628 466 544 540 385 540H229L203 420H350C419 420 441 377 441 325C441 204 379 120 292 120H146L120 0H250C465 0 628 148 628 344ZM216 268ZM289 0ZM400 520ZM371.6 223 387.75 313H59.65L43.5 223ZM216.05 268Z" glyph-name="dcroat.sc" horiz-adv-x="578" /><glyph d="M487 0C487 193 614 573 614 760L425 750L417 609L368 380C321 161 307 72 307 0ZM361 510C143 510 25 309 25 145C25 48 66 -10 142 -10C242 -10 322 92 335 209L361 345C339 243 289 140 243 140C222 140 210 160 210 195C210 273 269 410 335 410C357 410 385 395 413 370L521 466C473 499 412 510 361 510ZM263 0ZM349 500ZM756 500ZM491 615ZM341 -133C341 -89 311 -63 267 -63C198 -63 124 -126 124 -192C124 -234 154 -263 202 -263C273 -263 341 -199 341 -133ZM254 -63ZM197 -332ZM263 0ZM210 -246Z" glyph-name="ddotbelow" horiz-adv-x="580" unicode="&#7693;" /><glyph d="M230 0 345 540H156C154 488 143 433 134 394L50 0ZM628 344C628 466 544 540 385 540H229L203 420H350C419 420 441 377 441 325C441 204 379 120 292 120H146L120 0H250C465 0 628 148 628 344ZM216 268ZM289 0ZM400 520ZM367 -133C367 -89 337 -63 293 -63C224 -63 150 -126 150 -192C150 -234 180 -263 228 -263C299 -263 367 -199 367 -133ZM280 -63ZM223 -332ZM289 0ZM236 -246Z" glyph-name="ddotbelow.sc" horiz-adv-x="578" /><glyph d="M182 295C271 295 347 371 347 454C347 514 308 550 247 550C158 550 83 475 83 391C83 331 121 295 182 295ZM233 500C269 500 290 477 290 442C290 392 246 345 197 345C163 345 140 368 140 404C140 454 183 500 233 500Z" glyph-name="degree" horiz-adv-x="357" unicode="&#176;" /><glyph d="M254 446C343 446 419 522 419 605C419 665 380 701 319 701C230 701 155 626 155 542C155 482 193 446 254 446ZM305 651C341 651 362 628 362 593C362 543 318 496 269 496C235 496 212 519 212 555C212 605 255 651 305 651Z" glyph-name="degree.lf" horiz-adv-x="437" /><glyph d="M182 295C271 295 347 371 347 454C347 514 308 550 247 550C158 550 83 475 83 391C83 331 121 295 182 295ZM233 500C269 500 290 477 290 442C290 392 246 345 197 345C163 345 140 368 140 404C140 454 183 500 233 500Z" glyph-name="degree.osf" horiz-adv-x="357" /><glyph d="M222 295C311 295 387 371 387 454C387 514 348 550 287 550C198 550 123 475 123 391C123 331 161 295 222 295ZM273 500C309 500 330 477 330 442C330 392 286 345 237 345C203 345 180 368 180 404C180 454 223 500 273 500Z" glyph-name="degree.sc" horiz-adv-x="437" /><glyph d="M331 688C331 726 305 750 264 750C201 750 133 692 133 629C133 593 158 565 204 565C268 565 331 623 331 688ZM586 688C586 726 560 750 519 750C456 750 388 692 388 629C388 593 413 565 459 565C523 565 586 623 586 688ZM379 750ZM326 500Z" glyph-name="dieresis" horiz-adv-x="555" unicode="&#168;" /><glyph d="M363 841C363 879 337 904 296 904C231 904 165 844 165 784C165 747 191 719 236 719C301 719 363 779 363 841ZM618 841C618 879 592 904 551 904C486 904 420 844 420 784C420 747 446 719 491 719C556 719 618 779 618 841ZM411 904ZM366 690Z" glyph-name="dieresis.case" horiz-adv-x="545" /><glyph d="M331 688C331 726 305 750 264 750C201 750 133 692 133 629C133 593 158 565 204 565C268 565 331 623 331 688ZM586 688C586 726 560 750 519 750C456 750 388 692 388 629C388 593 413 565 459 565C523 565 586 623 586 688ZM379 750ZM326 500Z" glyph-name="dieresiscomb" horiz-adv-x="545" unicode="&#776;" /><glyph d="M363 841C363 879 337 904 296 904C231 904 165 844 165 784C165 747 191 719 236 719C301 719 363 779 363 841ZM618 841C618 879 592 904 551 904C486 904 420 844 420 784C420 747 446 719 491 719C556 719 618 779 618 841ZM411 904ZM366 690Z" glyph-name="dieresiscomb.case" horiz-adv-x="545" /><glyph d="M525 228 552 310 546 318C440 318 196 316 93 313L75 228ZM436 483C436 517 413 537 379 537C326 537 272 486 272 436C272 405 293 381 330 381C385 381 436 432 436 483ZM358 111C358 145 335 165 302 165C249 165 193 114 193 64C193 33 214 9 251 9C305 9 358 59 358 111Z" glyph-name="divide" horiz-adv-x="620" unicode="&#247;" /><glyph d="M541 303 568 385 562 393C456 393 212 391 109 388L91 303ZM452 558C452 592 429 612 395 612C342 612 288 561 288 511C288 480 309 456 346 456C401 456 452 507 452 558ZM374 186C374 220 351 240 318 240C265 240 209 189 209 139C209 108 230 84 267 84C321 84 374 134 374 186Z" glyph-name="divide.lf" horiz-adv-x="620" /><glyph d="M525 303 552 385 546 393C440 393 196 391 93 388L75 303ZM436 558C436 592 413 612 379 612C326 612 272 561 272 511C272 480 293 456 330 456C385 456 436 507 436 558ZM358 186C358 220 335 240 302 240C249 240 193 189 193 139C193 108 214 84 251 84C305 84 358 134 358 186Z" glyph-name="divide.osf" horiz-adv-x="620" /><glyph d="M525 228 552 310 546 318C440 318 196 316 93 313L75 228ZM436 483C436 517 413 537 379 537C326 537 272 486 272 436C272 405 293 381 330 381C385 381 436 432 436 483ZM358 111C358 145 335 165 302 165C249 165 193 114 193 64C193 33 214 9 251 9C305 9 358 59 358 111Z" glyph-name="divide.sc" horiz-adv-x="600" /><glyph d="M393 690 422 822 415 830 353 827 323 690ZM135 -140 198 -137 227 0H157L129 -132ZM470 207C470 365 294 399 294 495C294 531 318 560 376 560C413 560 461 545 496 520L549 675C516 691 457 700 402 700C227 700 98 608 98 474C98 317 276 271 276 188C276 159 255 130 199 130C157 130 81 146 35 180L-7 29C22 6 107 -10 177 -10C331 -10 470 66 470 207Z" glyph-name="dollar" horiz-adv-x="524" unicode="$" /><glyph d="M393 690 422 822 415 830 353 827 323 690ZM135 -140 198 -137 227 0H157L129 -132ZM470 207C470 365 294 399 294 495C294 531 318 560 376 560C413 560 461 545 496 520L549 675C516 691 457 700 402 700C227 700 98 608 98 474C98 317 276 271 276 188C276 159 255 130 199 130C157 130 81 146 35 180L-7 29C22 6 107 -10 177 -10C331 -10 470 66 470 207Z" glyph-name="dollar.lf" horiz-adv-x="524" /><glyph d="M398 539 426 671 419 679 357 676 328 539ZM171 -140 234 -137 263 0H193L165 -132ZM481 187C481 323 296 317 296 376C296 402 320 418 359 418C406 418 446 407 484 387L534 530C499 541 450 548 385 548C224 548 107 462 107 344C107 209 293 209 293 158C293 135 274 122 241 122C191 122 117 137 74 163L35 23C58 6 138 -8 206 -8C371 -8 481 71 481 187ZM357 520ZM238 0Z" glyph-name="dollar.osf" horiz-adv-x="475" /><glyph d="M358 540 386 672 380 680 317 677 288 540ZM131 -140 194 -137 223 0H153L125 -132ZM438 187C438 323 253 317 253 376C253 402 277 418 316 418C363 418 403 407 441 387L491 530C456 541 407 548 342 548C181 548 64 462 64 344C64 209 250 209 250 158C250 135 231 122 198 122C148 122 74 137 31 163L-8 23C15 6 95 -8 163 -8C328 -8 438 71 438 187ZM314 520ZM195 0Z" glyph-name="dollar.sc" horiz-adv-x="495" /><glyph d="M441 690 470 822 463 830 401 827 371 690ZM183 -140 246 -137 275 0H205L177 -132ZM518 207C518 365 342 399 342 495C342 531 366 560 424 560C461 560 509 545 544 520L597 675C564 691 505 700 450 700C275 700 146 608 146 474C146 317 324 271 324 188C324 159 303 130 247 130C205 130 129 146 83 180L41 29C70 6 155 -10 225 -10C379 -10 518 66 518 207Z" glyph-name="dollar.tf" horiz-adv-x="620" /><glyph d="M370 540 398 672 392 680 329 677 300 540ZM143 -140 206 -137 235 0H165L137 -132ZM450 187C450 323 265 317 265 376C265 402 289 418 328 418C375 418 415 407 453 387L503 530C468 541 419 548 354 548C193 548 76 462 76 344C76 209 262 209 262 158C262 135 243 122 210 122C160 122 86 137 43 163L4 23C27 6 107 -8 175 -8C340 -8 450 71 450 187ZM326 520ZM207 0Z" glyph-name="dollar.tf.sc" horiz-adv-x="620" /><glyph d="M418 539 446 671 439 679 377 676 348 539ZM191 -140 254 -137 283 0H213L185 -132ZM501 187C501 323 316 317 316 376C316 402 340 418 379 418C426 418 466 407 504 387L554 530C519 541 470 548 405 548C244 548 127 462 127 344C127 209 313 209 313 158C313 135 294 122 261 122C211 122 137 137 94 163L55 23C78 6 158 -8 226 -8C391 -8 501 71 501 187ZM377 520ZM258 0Z" glyph-name="dollar.tosf" horiz-adv-x="620" /><glyph d="M352 699C352 743 322 769 278 769C209 769 135 706 135 640C135 598 165 569 213 569C284 569 352 633 352 699Z" glyph-name="dotaccent" horiz-adv-x="309" unicode="&#729;" /><glyph d="M388 843C388 883 359 905 310 905C234 905 166 848 166 784C166 746 194 719 248 719C323 719 388 777 388 843Z" glyph-name="dotaccent.case" horiz-adv-x="314" /><glyph d="M352 699C352 743 322 769 278 769C209 769 135 706 135 640C135 598 165 569 213 569C284 569 352 633 352 699ZM265 769ZM208 500Z" glyph-name="dotaccentcomb" horiz-adv-x="309" unicode="&#775;" /><glyph d="M388 843C388 883 359 905 310 905C234 905 166 848 166 784C166 746 194 719 248 719C323 719 388 777 388 843ZM297 905ZM251 690Z" glyph-name="dotaccentcomb.case" horiz-adv-x="314" /><glyph d="M180 -133C180 -89 150 -63 106 -63C37 -63 -37 -126 -37 -192C-37 -234 -7 -263 41 -263C112 -263 180 -199 180 -133ZM93 -63ZM36 -332ZM102 0ZM49 -246Z" glyph-name="dotbelowcomb" horiz-adv-x="309" unicode="&#803;" /><glyph d="M208 0C208 161 282 376 282 510L93 500L85 359L65 267C42 161 28 72 28 0ZM284 10ZM163 0ZM180 500Z" glyph-name="dotlessi" horiz-adv-x="301" unicode="&#305;" /><glyph d="M230 0 342 529 326 548 156 540C151 482 142 436 132 386L50 0ZM267 10ZM140 0ZM251 520Z" glyph-name="dotlessi.sc" horiz-adv-x="279" /><glyph d="M-29 -250C123 -169 168 -64 206 118C233 249 274 428 274 510L85 500L77 359L14 60C-6 -37 -32 -107 -86 -190ZM175 500ZM147 0Z" glyph-name="dotlessj" horiz-adv-x="288" unicode="&#567;" /><glyph d="M5 -162C178 -90 226 -16 256 128L341 530L327 548L147 531C147 478 141 433 131 386L76 128C56 34 27 -37 -32 -106ZM236 520ZM140 0Z" glyph-name="dotlessj.sc" horiz-adv-x="279" /><glyph d="M427 143C386 120 342 105 302 105C242 105 216 140 216 194C216 260 255 415 327 415C346 415 358 404 358 373C358 301 296 257 201 240L196 194C396 197 521 281 521 388C521 465 455 510 356 510C168 510 31 348 31 180C31 51 112 -10 226 -10C305 -10 387 19 446 70ZM426 10ZM259 0ZM311 500Z" glyph-name="e" horiz-adv-x="515" unicode="e" /><glyph d="M320 45C286 29 249 19 218 19C169 19 147 45 147 86C147 134 177 252 233 252C248 252 260 244 260 221C260 172 203 130 134 118L131 81C286 85 396 144 396 230C396 293 338 330 256 330C105 330 -7 206 -7 75C-7 -28 62 -76 158 -76C225 -76 295 -53 336 -16ZM377 -60ZM202 -68ZM196 322Z" glyph-name="e.inferior" horiz-adv-x="432" /><glyph d="M230 0 345 540H156C154 488 143 433 134 394L50 0ZM554 540H343L317 420L542 411L570 521ZM480 324 296 320 273 214 450 208ZM490 129 255 120 229 0H463ZM435 10ZM366 520ZM126 500ZM263 0Z" glyph-name="e.sc" horiz-adv-x="501" /><glyph d="M397 405C363 389 326 379 295 379C246 379 224 405 224 446C224 494 254 612 310 612C325 612 337 604 337 581C337 532 280 490 211 478L208 441C363 445 473 504 473 590C473 653 415 690 333 690C182 690 70 566 70 435C70 332 139 284 235 284C302 284 372 307 413 344ZM454 300ZM279 292ZM273 682Z" glyph-name="e.superior" horiz-adv-x="433" /><glyph d="M427 143C386 120 342 105 302 105C242 105 216 140 216 194C216 260 255 415 327 415C346 415 358 404 358 373C358 301 296 257 201 240L196 194C396 197 521 281 521 388C521 465 455 510 356 510C168 510 31 348 31 180C31 51 112 -10 226 -10C305 -10 387 19 446 70ZM426 10ZM259 0ZM311 500ZM472 761 314 769C287 703 253 636 216 571L284 561C356 609 420 665 476 731ZM368 769ZM311 500Z" glyph-name="eacute" horiz-adv-x="515" unicode="&#233;" /><glyph d="M230 0 345 540H156C154 488 143 433 134 394L50 0ZM554 540H343L317 420L542 411L570 521ZM480 324 296 320 273 214 450 208ZM490 129 255 120 229 0H463ZM435 10ZM366 520ZM126 500ZM263 0ZM527 781 369 789C342 723 308 656 271 591L339 581C411 629 475 685 531 751ZM423 789ZM366 520Z" glyph-name="eacute.sc" horiz-adv-x="501" /><glyph d="M427 143C386 120 342 105 302 105C242 105 216 140 216 194C216 260 255 415 327 415C346 415 358 404 358 373C358 301 296 257 201 240L196 194C396 197 521 281 521 388C521 465 455 510 356 510C168 510 31 348 31 180C31 51 112 -10 226 -10C305 -10 387 19 446 70ZM426 10ZM259 0ZM311 500ZM326 555C423 555 502 639 531 752L460 743C442 699 399 665 355 665C313 665 284 695 284 744L212 734C194 625 242 555 326 555ZM365 752ZM311 500Z" glyph-name="ebreve" horiz-adv-x="515" unicode="&#277;" /><glyph d="M230 0 345 540H156C154 488 143 433 134 394L50 0ZM554 540H343L317 420L542 411L570 521ZM480 324 296 320 273 214 450 208ZM490 129 255 120 229 0H463ZM435 10ZM366 520ZM126 500ZM263 0ZM381 575C478 575 557 659 586 772L515 763C497 719 454 685 410 685C368 685 339 715 339 764L267 754C249 645 297 575 381 575ZM420 772ZM366 520Z" glyph-name="ebreve.sc" horiz-adv-x="501" /><glyph d="M427 143C386 120 342 105 302 105C242 105 216 140 216 194C216 260 255 415 327 415C346 415 358 404 358 373C358 301 296 257 201 240L196 194C396 197 521 281 521 388C521 465 455 510 356 510C168 510 31 348 31 180C31 51 112 -10 226 -10C305 -10 387 19 446 70ZM426 10ZM259 0ZM311 500ZM482 771C426 738 375 698 326 655H369C340 699 305 739 263 771L194 747C218 687 232 631 246 566L415 576C452 633 491 689 541 747ZM368 771ZM311 500Z" glyph-name="ecaron" horiz-adv-x="515" unicode="&#283;" /><glyph d="M230 0 345 540H156C154 488 143 433 134 394L50 0ZM554 540H343L317 420L542 411L570 521ZM480 324 296 320 273 214 450 208ZM490 129 255 120 229 0H463ZM435 10ZM366 520ZM126 500ZM263 0ZM537 791C481 758 430 718 381 675H424C395 719 360 759 318 791L249 767C273 707 287 651 301 586L470 596C507 653 546 709 596 767ZM423 791ZM366 520Z" glyph-name="ecaron.sc" horiz-adv-x="501" /><glyph d="M427 143C386 120 342 105 302 105C242 105 216 140 216 194C216 260 255 415 327 415C346 415 358 404 358 373C358 301 296 257 201 240L196 194C396 197 521 281 521 388C521 465 455 510 356 510C168 510 31 348 31 180C31 51 112 -10 226 -10C305 -10 387 19 446 70ZM426 10ZM259 0ZM311 500ZM232 566C288 599 340 638 388 682H345C374 638 409 598 451 566L520 590C496 650 482 706 468 771L299 761C262 704 223 648 173 590ZM368 771ZM311 500Z" glyph-name="ecircumflex" horiz-adv-x="515" unicode="&#234;" /><glyph d="M230 0 345 540H156C154 488 143 433 134 394L50 0ZM554 540H343L317 420L542 411L570 521ZM480 324 296 320 273 214 450 208ZM490 129 255 120 229 0H463ZM435 10ZM366 520ZM126 500ZM263 0ZM287 586C343 619 395 658 443 702H400C429 658 464 618 506 586L575 610C551 670 537 726 523 791L354 781C317 724 278 668 228 610ZM423 791ZM366 520Z" glyph-name="ecircumflex.sc" horiz-adv-x="501" /><glyph d="M427 143C386 120 342 105 302 105C242 105 216 140 216 194C216 260 255 415 327 415C346 415 358 404 358 373C358 301 296 257 201 240L196 194C396 197 521 281 521 388C521 465 455 510 356 510C168 510 31 348 31 180C31 51 112 -10 226 -10C305 -10 387 19 446 70ZM426 10ZM259 0ZM311 500ZM316 688C316 726 290 750 249 750C186 750 118 692 118 629C118 593 143 565 189 565C253 565 316 623 316 688ZM571 688C571 726 545 750 504 750C441 750 373 692 373 629C373 593 398 565 444 565C508 565 571 623 571 688ZM364 750ZM311 500Z" glyph-name="edieresis" horiz-adv-x="515" unicode="&#235;" /><glyph d="M230 0 345 540H156C154 488 143 433 134 394L50 0ZM554 540H343L317 420L542 411L570 521ZM480 324 296 320 273 214 450 208ZM490 129 255 120 229 0H463ZM435 10ZM366 520ZM126 500ZM263 0ZM371 708C371 746 345 770 304 770C241 770 173 712 173 649C173 613 198 585 244 585C308 585 371 643 371 708ZM626 708C626 746 600 770 559 770C496 770 428 712 428 649C428 613 453 585 499 585C563 585 626 643 626 708ZM419 770ZM366 520Z" glyph-name="edieresis.sc" horiz-adv-x="501" /><glyph d="M427 143C386 120 342 105 302 105C242 105 216 140 216 194C216 260 255 415 327 415C346 415 358 404 358 373C358 301 296 257 201 240L196 194C396 197 521 281 521 388C521 465 455 510 356 510C168 510 31 348 31 180C31 51 112 -10 226 -10C305 -10 387 19 446 70ZM426 10ZM259 0ZM311 500ZM455 699C455 743 425 769 381 769C312 769 238 706 238 640C238 598 268 569 316 569C387 569 455 633 455 699ZM368 769ZM311 500Z" glyph-name="edotaccent" horiz-adv-x="515" unicode="&#279;" /><glyph d="M230 0 345 540H156C154 488 143 433 134 394L50 0ZM554 540H343L317 420L542 411L570 521ZM480 324 296 320 273 214 450 208ZM490 129 255 120 229 0H463ZM435 10ZM366 520ZM126 500ZM263 0ZM510 719C510 763 480 789 436 789C367 789 293 726 293 660C293 618 323 589 371 589C442 589 510 653 510 719ZM423 789ZM366 520Z" glyph-name="edotaccent.sc" horiz-adv-x="501" /><glyph d="M427 143C386 120 342 105 302 105C242 105 216 140 216 194C216 260 255 415 327 415C346 415 358 404 358 373C358 301 296 257 201 240L196 194C396 197 521 281 521 388C521 465 455 510 356 510C168 510 31 348 31 180C31 51 112 -10 226 -10C305 -10 387 19 446 70ZM426 10ZM259 0ZM311 500ZM337 -133C337 -89 307 -63 263 -63C194 -63 120 -126 120 -192C120 -234 150 -263 198 -263C269 -263 337 -199 337 -133ZM250 -63ZM193 -332ZM259 0ZM206 -246Z" glyph-name="edotbelow" horiz-adv-x="515" unicode="&#7865;" /><glyph d="M230 0 345 540H156C154 488 143 433 134 394L50 0ZM554 540H343L317 420L542 411L570 521ZM480 324 296 320 273 214 450 208ZM490 129 255 120 229 0H463ZM435 10ZM366 520ZM126 500ZM263 0ZM341 -133C341 -89 311 -63 267 -63C198 -63 124 -126 124 -192C124 -234 154 -263 202 -263C273 -263 341 -199 341 -133ZM254 -63ZM197 -332ZM263 0ZM210 -246Z" glyph-name="edotbelow.sc" horiz-adv-x="501" /><glyph d="M427 143C386 120 342 105 302 105C242 105 216 140 216 194C216 260 255 415 327 415C346 415 358 404 358 373C358 301 296 257 201 240L196 194C396 197 521 281 521 388C521 465 455 510 356 510C168 510 31 348 31 180C31 51 112 -10 226 -10C305 -10 387 19 446 70ZM426 10ZM259 0ZM311 500ZM401 561 471 571C448 636 428 703 415 769L255 761L245 731C287 665 339 609 401 561ZM311 769ZM311 500Z" glyph-name="egrave" horiz-adv-x="515" unicode="&#232;" /><glyph d="M230 0 345 540H156C154 488 143 433 134 394L50 0ZM554 540H343L317 420L542 411L570 521ZM480 324 296 320 273 214 450 208ZM490 129 255 120 229 0H463ZM435 10ZM366 520ZM126 500ZM263 0ZM456 581 526 591C503 656 483 723 470 789L310 781L300 751C342 685 394 629 456 581ZM366 789ZM366 520Z" glyph-name="egrave.sc" horiz-adv-x="501" /><glyph d="M290 281C345 256 371 228 371 186C371 124 313 90 259 90C213 90 188 115 188 155C188 211 237 258 290 281ZM370 600C406 600 423 578 423 549C423 504 384 453 345 433C318 449 289 476 289 518C289 563 323 600 370 600ZM15 141C15 38 121 -10 241 -10C420 -10 550 97 550 234C550 320 498 349 446 374L447 377C525 410 589 487 589 559C589 638 513 700 381 700C229 700 120 617 120 496C120 431 152 395 208 355L207 352C112 329 15 239 15 141Z" glyph-name="eight" horiz-adv-x="608" unicode="8" /><glyph d="M243 152C276 140 296 121 296 100C296 71 267 48 230 48C201 48 185 63 185 84C185 111 208 139 243 152ZM293 337C311 337 324 327 324 311C324 293 308 267 285 248C260 260 247 277 247 295C247 318 267 337 293 337ZM208 -18C335 -18 425 42 425 115C425 165 386 191 350 208V210C410 235 446 279 446 318C446 358 409 404 312 404C207 404 123 352 123 285C123 246 152 222 182 202V200C115 178 58 132 58 75C58 19 113 -18 208 -18Z" glyph-name="eight.denominator" horiz-adv-x="441" /><glyph d="M295 284C352 260 385 228 385 188C385 134 333 90 267 90C217 90 188 117 188 156C188 205 231 258 295 284ZM379 600C413 600 437 580 437 548C437 510 405 461 357 427C317 448 289 478 289 515C289 562 330 600 379 600ZM237 -10C413 -10 561 92 561 217C561 296 502 339 444 367L445 370C536 413 603 485 603 560C603 629 546 700 408 700C249 700 121 607 121 495C121 428 167 389 213 358L212 355C102 325 16 237 16 144C16 54 98 -10 237 -10Z" glyph-name="eight.lf" horiz-adv-x="622" /><glyph d="M307 454C340 442 360 423 360 402C360 373 331 350 294 350C265 350 249 365 249 386C249 413 272 441 307 454ZM357 639C375 639 388 629 388 613C388 595 372 569 349 550C324 562 311 579 311 597C311 620 331 639 357 639ZM272 284C399 284 489 344 489 417C489 467 450 493 414 510V512C474 537 510 581 510 620C510 660 473 706 376 706C271 706 187 654 187 587C187 548 216 524 246 504V502C179 480 122 434 122 377C122 321 177 284 272 284Z" glyph-name="eight.numerator" horiz-adv-x="441" /><glyph d="M290 281C345 256 371 228 371 186C371 124 313 90 259 90C213 90 188 115 188 155C188 211 237 258 290 281ZM370 600C406 600 423 578 423 549C423 504 384 453 345 433C318 449 289 476 289 518C289 563 323 600 370 600ZM15 141C15 38 121 -10 241 -10C420 -10 550 97 550 234C550 320 498 349 446 374L447 377C525 410 589 487 589 559C589 638 513 700 381 700C229 700 120 617 120 496C120 431 152 395 208 355L207 352C112 329 15 239 15 141Z" glyph-name="eight.osf" horiz-adv-x="608" /><glyph d="M250 214C294 198 318 175 318 147C318 110 282 83 234 83C195 83 176 102 176 128C176 162 204 197 250 214ZM315 457C339 457 355 445 355 424C355 402 335 368 306 346C273 362 256 382 256 405C256 434 282 457 315 457ZM211 -8C375 -8 489 72 489 168C489 233 438 269 390 291L391 294C453 320 516 373 516 434C516 487 470 548 342 548C201 548 93 474 93 387C93 333 134 306 170 282V280C83 254 9 187 9 114C9 41 82 -8 211 -8Z" glyph-name="eight.sc" horiz-adv-x="559" /><glyph d="M302 284C359 260 392 228 392 188C392 134 340 90 274 90C224 90 195 117 195 156C195 205 238 258 302 284ZM386 600C420 600 444 580 444 548C444 510 412 461 364 427C324 448 296 478 296 515C296 562 337 600 386 600ZM244 -10C420 -10 568 92 568 217C568 296 509 339 451 367L452 370C543 413 610 485 610 560C610 629 553 700 415 700C256 700 128 607 128 495C128 428 174 389 220 358L219 355C109 325 23 237 23 144C23 54 105 -10 244 -10Z" glyph-name="eight.tf" horiz-adv-x="620" /><glyph d="M288 214C332 198 356 175 356 147C356 110 320 83 272 83C233 83 214 102 214 128C214 162 242 197 288 214ZM353 457C377 457 393 445 393 424C393 402 373 368 344 346C311 362 294 382 294 405C294 434 320 457 353 457ZM249 -8C413 -8 527 72 527 168C527 233 476 269 428 291L429 294C491 320 554 373 554 434C554 487 508 548 380 548C239 548 131 474 131 387C131 333 172 306 208 282V280C121 254 47 187 47 114C47 41 120 -8 249 -8Z" glyph-name="eight.tf.sc" horiz-adv-x="620" /><glyph d="M303 281C358 256 384 228 384 186C384 124 326 90 272 90C226 90 201 115 201 155C201 211 250 258 303 281ZM383 600C419 600 436 578 436 549C436 504 397 453 358 433C331 449 302 476 302 518C302 563 336 600 383 600ZM28 141C28 38 134 -10 254 -10C433 -10 563 97 563 234C563 320 511 349 459 374L460 377C538 410 602 487 602 559C602 638 526 700 394 700C242 700 133 617 133 496C133 431 165 395 221 355L220 352C125 329 28 239 28 141Z" glyph-name="eight.tosf" horiz-adv-x="620" /><glyph d="M230 90C263 78 283 59 283 38C283 9 254 -14 217 -14C188 -14 172 1 172 22C172 49 195 77 230 90ZM280 275C298 275 311 265 311 249C311 231 295 205 272 186C247 198 234 215 234 233C234 256 254 275 280 275ZM195 -80C322 -80 412 -20 412 53C412 103 373 129 337 146V148C397 173 433 217 433 256C433 296 396 342 299 342C194 342 110 290 110 223C110 184 139 160 169 140V138C102 116 45 70 45 13C45 -43 100 -80 195 -80Z" glyph-name="eightinferior" horiz-adv-x="441" unicode="&#8328;" /><glyph d="M320 514C353 502 373 483 373 462C373 433 344 410 307 410C278 410 262 425 262 446C262 473 285 501 320 514ZM370 699C388 699 401 689 401 673C401 655 385 629 362 610C337 622 324 639 324 657C324 680 344 699 370 699ZM285 344C412 344 502 404 502 477C502 527 463 553 427 570V572C487 597 523 641 523 680C523 720 486 766 389 766C284 766 200 714 200 647C200 608 229 584 259 564V562C192 540 135 494 135 437C135 381 190 344 285 344Z" glyph-name="eightsuperior" horiz-adv-x="441" unicode="&#8312;" /><glyph d="M279 124C279 166 249 193 204 193C132 193 60 127 60 61C60 21 89 -10 139 -10C211 -10 279 56 279 124ZM534 124C534 166 504 193 459 193C387 193 315 127 315 61C315 21 344 -10 394 -10C466 -10 534 56 534 124ZM789 124C789 166 759 193 714 193C642 193 570 127 570 61C570 21 599 -10 649 -10C721 -10 789 56 789 124Z" glyph-name="ellipsis" horiz-adv-x="810" unicode="&#8230;" /><glyph d="M427 143C386 120 342 105 302 105C242 105 216 140 216 194C216 260 255 415 327 415C346 415 358 404 358 373C358 301 296 257 201 240L196 194C396 197 521 281 521 388C521 465 455 510 356 510C168 510 31 348 31 180C31 51 112 -10 226 -10C305 -10 387 19 446 70ZM426 10ZM259 0ZM311 500ZM193 604H473L500 729H220ZM360 729ZM311 500Z" glyph-name="emacron" horiz-adv-x="515" unicode="&#275;" /><glyph d="M230 0 345 540H156C154 488 143 433 134 394L50 0ZM554 540H343L317 420L542 411L570 521ZM480 324 296 320 273 214 450 208ZM490 129 255 120 229 0H463ZM435 10ZM366 520ZM126 500ZM263 0ZM248 624H528L555 749H275ZM415 749ZM366 520Z" glyph-name="emacron.sc" horiz-adv-x="501" /><glyph d="M83 251H947L958 301H94Z" glyph-name="emdash" horiz-adv-x="924" unicode="&#8212;" /><glyph d="M98 323H962L973 373H109Z" glyph-name="emdash.caps" horiz-adv-x="924" /><glyph d="M83 249H947L958 299H94Z" glyph-name="emdash.sc" horiz-adv-x="925" /><glyph d="M62.46 251H598.14L604.96 301H69.28Z" glyph-name="endash" horiz-adv-x="595" unicode="&#8211;" /><glyph d="M77.46 323H613.14L619.96 373H84.28Z" glyph-name="endash.caps" horiz-adv-x="600" /><glyph d="M61.46 248H597.14L603.96 298H68.28Z" glyph-name="endash.sc" horiz-adv-x="595" /><glyph d="M208 0C211 176 277 360 341 360C368 360 368 326 360 287C331 144 318 76 318 0L511 151L553 350C574 448 540 510 460 510C400 510 328 476 275 386H272C277 432 282 477 282 510L93 500L85 359C42 170 28 76 28 0ZM270 -250C415 -173 462 -89 511 151L376 359L313 60C293 -37 267 -107 213 -190ZM351 500ZM266 0Z" glyph-name="eng" horiz-adv-x="586" unicode="&#331;" /><glyph d="M337 -162C510 -90 556 -15 587 128L390 48C378 -11 339 -62 299 -106ZM410 356C388 406 367 462 336 545L156 540C152 496 145 447 134 394L50 0H220L255 163C263 202 271 240 271 301H274C284 263 299 218 314 186C337 138 356 77 391 0L587 128L672 527L657 546L496 540C488 475 477 410 460 330C460 330 455 293 452 230H449C439 276 425 321 410 356ZM411 500ZM305 0Z" glyph-name="eng.sc" horiz-adv-x="610" /><glyph d="M424 53 411 61C228 -15 133 -86 133 -169C133 -217 171 -250 235 -250C293 -250 352 -221 393 -182L386 -136C361 -150 341 -156 326 -156C299 -156 289 -138 289 -116C289 -75 324 -16 424 53ZM427 143C386 120 342 105 302 105C242 105 216 140 216 194C216 260 255 415 327 415C346 415 358 404 358 373C358 301 296 257 201 240L196 194C396 197 521 281 521 388C521 465 455 510 356 510C168 510 31 348 31 180C31 51 112 -10 226 -10C305 -10 387 19 446 70ZM426 10ZM259 0ZM311 500ZM426 10Z" glyph-name="eogonek" horiz-adv-x="515" unicode="&#281;" /><glyph d="M463 0 445 20C262 -27 167 -93 167 -169C167 -217 205 -250 269 -250C327 -250 386 -221 427 -182L420 -136C392 -150 370 -156 354 -156C331 -156 323 -145 323 -131C323 -95 376 -46 463 0ZM230 0 345 540H156C154 488 143 433 134 394L50 0ZM554 540H343L317 420L542 411L570 521ZM480 324 296 320 273 214 450 208ZM490 129 255 120 229 0H463ZM435 10ZM366 520ZM126 500ZM263 0ZM435 10Z" glyph-name="eogonek.sc" horiz-adv-x="501" /><glyph d="M547 328 574 410 568 418C462 418 217 416 115 413L97 328ZM504 128 531 210 525 218C419 218 175 216 72 213L54 128Z" glyph-name="equal" horiz-adv-x="620" unicode="=" /><glyph d="M563 404 590 486 584 494C478 494 233 492 131 489L113 404ZM520 204 547 286 541 294C435 294 191 292 88 289L70 204Z" glyph-name="equal.lf" horiz-adv-x="620" /><glyph d="M547 404 574 486 568 494C462 494 217 492 115 489L97 404ZM504 204 531 286 525 294C419 294 175 292 72 289L54 204Z" glyph-name="equal.osf" horiz-adv-x="620" /><glyph d="M547 328 574 410 568 418C462 418 217 416 115 413L97 328ZM504 128 531 210 525 218C419 218 175 216 72 213L54 128Z" glyph-name="equal.sc" horiz-adv-x="600" /><glyph d="M231 -10C422 -10 567 158 567 378C567 538 475 669 296 710L234 601C313 571 399 486 391 375L410 328C411 409 359 442 282 442C143 442 32 322 32 170C32 53 117 -10 231 -10ZM314 333C344 333 364 314 364 270C364 183 319 110 266 110C230 110 216 134 216 171C216 259 260 333 314 333ZM587.68 638.174 589.179 725.027 229.09 545.303 226.908 458.603ZM408.852 592.223Z" glyph-name="eth" horiz-adv-x="599" unicode="&#240;" /><glyph d="M230 0 345 540H156C154 488 143 433 134 394L50 0ZM628 344C628 466 544 540 385 540H229L203 420H350C419 420 441 377 441 325C441 204 379 120 292 120H146L120 0H250C465 0 628 148 628 344ZM216 268ZM289 0ZM400 520ZM371.6 223 387.75 313H59.65L43.5 223ZM216.05 268Z" glyph-name="eth.sc" horiz-adv-x="578" /><glyph d="M427 143C386 120 342 105 302 105C242 105 216 140 216 194C216 260 255 415 327 415C346 415 358 404 358 373C358 301 296 257 201 240L196 194C396 197 521 281 521 388C521 465 455 510 356 510C168 510 31 348 31 180C31 51 112 -10 226 -10C305 -10 387 19 446 70ZM426 10ZM259 0ZM311 500ZM298 763C223 763 179 674 162 592L205 585C226 616 241 628 260 628C299 628 344 571 399 571C466 571 513 658 531 742L488 749C469 722 454 706 431 706C386 706 359 763 298 763ZM367 763ZM311 500Z" glyph-name="etilde" horiz-adv-x="515" unicode="&#7869;" /><glyph d="M230 0 345 540H156C154 488 143 433 134 394L50 0ZM554 540H343L317 420L542 411L570 521ZM480 324 296 320 273 214 450 208ZM490 129 255 120 229 0H463ZM435 10ZM366 520ZM126 500ZM263 0ZM353 783C278 783 234 694 217 612L260 605C281 636 296 648 315 648C354 648 399 591 454 591C521 591 568 678 586 762L543 769C524 742 509 726 486 726C441 726 414 783 353 783ZM422 783ZM366 520Z" glyph-name="etilde.sc" horiz-adv-x="501" /><glyph d="M519 178C481 157 431 140 388 140C318 140 283 184 283 273C283 415 371 550 471 550C506 550 542 534 584 505L651 660C618 684 564 700 503 700C276 700 88 481 88 239C88 76 173 -10 332 -10C394 -10 452 3 508 30ZM52 369H422L447 459H78ZM13 222H383L408 312H39Z" glyph-name="euro" horiz-adv-x="589" unicode="&#8364;" /><glyph d="M519 178C481 157 431 140 388 140C318 140 283 184 283 273C283 415 371 550 471 550C506 550 542 534 584 505L651 660C618 684 564 700 503 700C276 700 88 481 88 239C88 76 173 -10 332 -10C394 -10 452 3 508 30ZM52 369H422L447 459H78ZM13 222H383L408 312H39Z" glyph-name="euro.lf" horiz-adv-x="569" /><glyph d="M72 293H459L479 353H92ZM35 183H422L442 243H55ZM546 157C511 143 467 131 420 131C349 131 309 165 309 228C309 326 380 409 463 409C503 409 534 397 575 374L640 517C606 536 555 548 490 548C287 548 120 388 120 193C120 67 207 -8 366 -8C433 -8 486 1 537 20ZM447 520ZM345 0Z" glyph-name="euro.osf" horiz-adv-x="538" /><glyph d="M42 293H429L449 353H62ZM5 183H392L412 243H25ZM516 157C481 143 437 131 390 131C319 131 279 165 279 228C279 326 350 409 433 409C473 409 504 397 545 374L610 517C576 536 525 548 460 548C257 548 90 388 90 193C90 67 177 -8 336 -8C403 -8 456 1 507 20ZM417 520ZM315 0Z" glyph-name="euro.sc" horiz-adv-x="581" /><glyph d="M530 178C492 157 442 140 399 140C329 140 294 184 294 273C294 415 382 550 482 550C517 550 553 534 595 505L662 660C629 684 575 700 514 700C287 700 99 481 99 239C99 76 184 -10 343 -10C405 -10 463 3 519 30ZM63 369H433L458 459H89ZM24 222H394L419 312H50Z" glyph-name="euro.tf" horiz-adv-x="620" /><glyph d="M42 293H429L449 353H62ZM5 183H392L412 243H25ZM516 157C481 143 437 131 390 131C319 131 279 165 279 228C279 326 350 409 433 409C473 409 504 397 545 374L610 517C576 536 525 548 460 548C257 548 90 388 90 193C90 67 177 -8 336 -8C403 -8 456 1 507 20ZM417 520ZM315 0Z" glyph-name="euro.tf.sc" horiz-adv-x="620" /><glyph d="M64 293H451L471 353H84ZM27 183H414L434 243H47ZM538 157C503 143 459 131 412 131C341 131 301 165 301 228C301 326 372 409 455 409C495 409 526 397 567 374L632 517C598 536 547 548 482 548C279 548 112 388 112 193C112 67 199 -8 358 -8C425 -8 478 1 529 20ZM439 520ZM337 0Z" glyph-name="euro.tosf" horiz-adv-x="620" /><glyph d="M217 232C268 381 314 538 347 680L331 700L154 690C153 623 148 584 103 232ZM222 95.3C222 134.9 195 158.3 155.4 158.3C93.3 158.3 26.7 101.6 26.7 42.2C26.7 4.4 53.7 -21.7 96.9 -21.7C160.8 -21.7 222 35.9 222 95.3ZM143.7 158.3ZM92.4 -83.8ZM151.8 215ZM104.1 -6.4Z" glyph-name="exclam" horiz-adv-x="322" unicode="!" /><glyph d="M217 232C268 381 314 538 347 680L331 700L154 690C153 623 148 584 103 232ZM222 95.3C222 134.9 195 158.3 155.4 158.3C93.3 158.3 26.7 101.6 26.7 42.2C26.7 4.4 53.7 -21.7 96.9 -21.7C160.8 -21.7 222 35.9 222 95.3ZM143.7 158.3ZM92.4 -83.8ZM151.8 215ZM104.1 -6.4Z" glyph-name="exclam.caps" horiz-adv-x="322" /><glyph d="M217 232C257 331 291 431 315 530L300 550L122 540C126 497 123 463 103 232ZM225 95.3C225 134.9 198 158.3 158.4 158.3C96.3 158.3 29.7 101.6 29.7 42.2C29.7 4.4 56.7 -21.7 99.9 -21.7C163.8 -21.7 225 35.9 225 95.3ZM146.7 158.3ZM95.4 -83.8ZM154.8 215ZM107.1 -6.4Z" glyph-name="exclam.sc" horiz-adv-x="325" /><glyph d="M105 268C54 119 8 -38 -25 -180L-9 -200L168 -190C169 -123 174 -84 219 268ZM100 404.7C100 365.1 127 341.7 166.6 341.7C228.7 341.7 295.3 398.4 295.3 457.8C295.3 495.6 268.3 521.7 225.1 521.7C161.2 521.7 100 464.1 100 404.7ZM178.3 341.7ZM229.6 583.8ZM170.2 285ZM217.9 506.4Z" glyph-name="exclamdown" horiz-adv-x="322" unicode="&#161;" /><glyph d="M140 458C89 309 43 152 10 10L26 -10L203 0C204 67 209 106 254 458ZM135 594.7C135 555.1 162 531.7 201.6 531.7C263.7 531.7 330.3 588.4 330.3 647.8C330.3 685.6 303.3 711.7 260.1 711.7C196.2 711.7 135 654.1 135 594.7ZM213.3 531.7ZM264.6 773.8ZM205.2 475ZM252.9 696.4Z" glyph-name="exclamdown.caps" horiz-adv-x="321" /><glyph d="M116 308C76 209 42 109 18 10L33 -10L211 0C207 43 210 77 230 308ZM108 444.7C108 405.1 135 381.7 174.6 381.7C236.7 381.7 303.3 438.4 303.3 497.8C303.3 535.6 276.3 561.7 233.1 561.7C169.2 561.7 108 504.1 108 444.7ZM186.3 381.7ZM237.6 623.8ZM178.2 325ZM225.9 546.4Z" glyph-name="exclamdown.sc" horiz-adv-x="324" /><glyph d="M222 118 299 480H296C300 500 303 525 310 561C320 605 349 630 391 630C428 630 462 614 491 595L554 726C526 745 473 760 414 760C267 760 160 685 130 547C126 527 123 505 119 480L30 60ZM101 395H248L407 390L427 462L419 480H119L45 460L32 400ZM-13 -250C139 -169 184 -64 222 118L30 60C10 -37 -16 -107 -70 -190Z" glyph-name="f" horiz-adv-x="403" unicode="f" /><glyph d="M178 32 237 305H235C238 320 240 338 246 368C253 399 276 417 311 417C339 417 369 405 393 390L444 498C421 513 377 525 328 525C208 525 119 466 96 357C93 344 90 324 87 305L18 -17ZM73 235H195L326 231L342 290L335 305H87L27 289L16 240ZM-14 -266C112 -201 147 -114 178 32L18 -17C2 -96 -20 -151 -62 -217Z" glyph-name="f.inferior" horiz-adv-x="355" /><glyph d="M230 0 345 540H156C154 488 143 433 134 394L50 0ZM534 540H345L319 420L522 411L550 521ZM456 307 294 302 272 197 426 190Z" glyph-name="f.sc" horiz-adv-x="467" /><glyph d="M254 392 313 665H311C314 680 316 698 322 728C329 759 352 777 387 777C415 777 445 765 469 750L520 858C497 873 453 885 404 885C284 885 195 826 172 717C169 704 166 684 163 665L94 343ZM149 595H271L402 591L418 650L411 665H163L103 649L92 600ZM62 94C188 159 223 246 254 392L94 343C78 264 56 209 14 143Z" glyph-name="f.superior" horiz-adv-x="355" /><glyph d="M222 118 299 480H296C299 500 301 517 305 536C318 599 354 625 394 625C439 625 468 599 484 563L585 684C551 712 498 740 410 740C270 740 155 669 128 536C125 521 122 506 119 480L30 60ZM101 395H248H458L477 462L469 480H119L45 460L32 400ZM-13 -250C139 -169 184 -64 222 118L30 60C10 -37 -16 -107 -70 -190ZM528 118 605 480H602C606 500 609 525 616 561C626 605 655 630 697 630C734 630 768 614 797 595L860 726C832 745 779 760 720 760C573 760 466 685 436 547C432 527 429 505 425 480L336 60ZM407 395H554L713 390L733 462L725 480H425L351 460L338 400ZM293 -250C445 -169 490 -64 528 118L336 60C316 -37 290 -107 236 -190Z" glyph-name="f_f" horiz-adv-x="709" /><glyph d="M101 395H248H458L477 462L469 480H119L45 460L32 400ZM222 118 299 480H296C299 500 301 517 305 536C318 599 354 625 394 625C439 625 468 599 484 563L585 684C551 712 498 740 410 740C270 740 155 669 128 536C125 521 122 506 119 480L30 60ZM-13 -250C139 -169 184 -64 222 118L30 60C10 -37 -16 -107 -70 -190ZM517 118 594 480H591C593 500 600 536 603 551C614 605 640 630 687 630C727 630 763 612 794 584L899 690C863 729 794 760 704 760C558 760 452 682 424 542C422 532 416 500 414 480L325 60ZM396 395H543L702 390L722 462L714 480H414L340 460L327 400ZM282 -250C434 -169 478 -65 517 118L325 60C305 -37 279 -107 225 -190ZM809 0C809 161 883 376 883 510L694 480L686 359L666 267C643 161 629 72 629 0Z" glyph-name="f_f_i" horiz-adv-x="902" /><glyph d="M222 118 299 480H296C299 500 301 517 305 536C318 599 354 625 394 625C439 625 468 599 484 563L585 684C551 712 498 740 410 740C270 740 155 669 128 536C125 521 122 506 119 480L30 60ZM101 395H248H458L477 462L469 480H119L45 460L32 400ZM-13 -250C139 -169 184 -64 222 118L30 60C10 -37 -16 -107 -70 -190ZM528 118 605 480H602C604 500 611 536 614 551C625 605 651 630 698 630C738 630 774 612 805 584L910 690C874 729 805 760 715 760C569 760 463 682 435 542C433 532 427 500 425 480L336 60ZM407 395H554L713 390L733 462L725 480H425L351 460L338 400ZM293 -250C445 -169 489 -65 528 118L336 60C316 -37 290 -107 236 -190ZM825 0C825 193 952 573 952 760L763 750L755 609L706 380C659 161 645 72 645 0ZM745 0ZM845 748ZM1078 515ZM807 420Z" glyph-name="f_f_l" horiz-adv-x="915" /><glyph d="M222 118 299 480H296C298 500 305 536 308 551C319 605 345 630 392 630C432 630 468 612 499 584L604 690C568 729 499 760 409 760C263 760 157 682 129 542C127 532 121 500 119 480L30 60ZM101 395H248L407 390L427 462L419 480H119L45 460L32 400ZM-13 -250C139 -169 183 -65 222 118L30 60C10 -37 -16 -107 -70 -190ZM514 0C514 161 588 376 588 510L399 480L391 359L371 267C348 161 334 72 334 0Z" glyph-name="f_i" horiz-adv-x="607" /><glyph d="M222 118 299 480H296C298 500 305 536 308 551C319 605 345 630 392 630C432 630 468 612 499 584L604 690C568 729 499 760 409 760C263 760 157 682 129 542C127 532 121 500 119 480L30 60ZM101 395H248L407 390L427 462L419 480H119L45 460L32 400ZM-13 -250C139 -169 183 -65 222 118L30 60C10 -37 -16 -107 -70 -190ZM519 0C519 193 646 573 646 760L457 750L449 609L400 380C353 161 339 72 339 0ZM439 0ZM539 748ZM772 515ZM501 420Z" glyph-name="f_l" horiz-adv-x="609" /><glyph d="M222 118 299 480H296C298 500 305 536 308 551C319 605 345 630 392 630C432 630 468 612 499 584L604 690C568 729 499 760 409 760C263 760 157 682 129 542C127 532 121 500 119 480L30 60ZM101 395H248L407 390L427 462L419 480H119L45 460L32 400ZM-13 -250C139 -169 183 -65 222 118L30 60C10 -37 -16 -107 -70 -190ZM514 0C514 161 588 376 588 510L399 480L391 359L371 267C348 161 334 72 334 0Z" glyph-name="fi" horiz-adv-x="607" unicode="&#64257;" /><glyph glyph-name="figurespace" horiz-adv-x="620" unicode="&#8199;" /><glyph d="M-16 -138C32 -153 93 -161 144 -161C335 -161 499 -46 499 119C499 230 425 279 321 279C285 279 242 273 216 266L225 225L262 399H526L567 549C515 542 459 539 405 539H146L62 141L84 126C122 140 172 154 219 154C274 154 308 135 308 84C308 17 251 -36 166 -36C129 -36 62 -26 27 -13Z" glyph-name="five" horiz-adv-x="582" unicode="5" /><glyph d="M59 -4C94 -14 137 -18 170 -18C305 -18 399 49 399 143C399 210 351 246 281 246C260 246 232 243 217 239L222 211L241 301H408L436 402C402 397 366 396 331 396H154L103 154L118 144C143 153 177 162 206 162C236 162 258 151 258 123C258 86 216 66 168 66C143 66 106 72 88 80Z" glyph-name="five.denominator" horiz-adv-x="414" /><glyph d="M16 13C61 -2 112 -10 170 -10C386 -10 530 116 530 271C530 380 456 430 354 430C318 430 273 424 248 417L256 376L293 550H557L599 700C547 693 490 690 437 690H178L93 292L115 277C147 291 190 305 236 305C292 305 340 285 340 226C340 162 284 115 189 115C141 115 88 127 59 138Z" glyph-name="five.lf" horiz-adv-x="581" /><glyph d="M123 296C158 286 201 282 234 282C369 282 463 349 463 443C463 510 415 546 345 546C324 546 296 543 281 539L286 511L305 601H472L500 702C466 697 430 696 395 696H218L167 454L182 444C207 453 241 462 270 462C300 462 322 451 322 423C322 386 280 366 232 366C207 366 170 372 152 380Z" glyph-name="five.numerator" horiz-adv-x="414" /><glyph d="M-16 -138C32 -153 93 -161 144 -161C335 -161 499 -46 499 119C499 230 425 279 321 279C285 279 242 273 216 266L225 225L262 399H526L567 549C515 542 459 539 405 539H146L62 141L84 126C122 140 172 154 219 154C274 154 308 135 308 84C308 17 251 -36 166 -36C129 -36 62 -26 27 -13Z" glyph-name="five.osf" horiz-adv-x="582" /><glyph d="M15 10C65 -2 128 -8 173 -8C345 -8 461 80 461 202C461 293 397 341 305 341C278 341 244 337 223 332L229 294L254 411H472L510 548C466 542 418 540 373 540H142L73 215L94 202C124 214 164 226 202 226C245 226 275 211 275 175C275 133 233 107 170 107C135 107 82 115 55 125Z" glyph-name="five.sc" horiz-adv-x="525" /><glyph d="M31 13C76 -2 127 -10 185 -10C401 -10 545 116 545 271C545 380 471 430 369 430C333 430 288 424 263 417L271 376L308 550H572L614 700C562 693 505 690 452 690H193L108 292L130 277C162 291 205 305 251 305C307 305 355 285 355 226C355 162 299 115 204 115C156 115 103 127 74 138Z" glyph-name="five.tf" horiz-adv-x="620" /><glyph d="M44 10C94 -2 157 -8 202 -8C374 -8 490 80 490 202C490 293 426 341 334 341C307 341 273 337 252 332L258 294L283 411H501L539 548C495 542 447 540 402 540H171L102 215L123 202C153 214 193 226 231 226C274 226 304 211 304 175C304 133 262 107 199 107C164 107 111 115 84 125Z" glyph-name="five.tf.sc" horiz-adv-x="600" /><glyph d="M-5 -138C43 -153 104 -161 155 -161C346 -161 510 -46 510 119C510 230 436 279 332 279C296 279 253 273 227 266L236 225L273 399H537L578 549C526 542 470 539 416 539H157L73 141L95 126C133 140 183 154 230 154C285 154 319 135 319 84C319 17 262 -36 177 -36C140 -36 73 -26 38 -13Z" glyph-name="five.tosf" horiz-adv-x="620" /><glyph d="M46 -66C81 -76 124 -80 157 -80C292 -80 386 -13 386 81C386 148 338 184 268 184C247 184 219 181 204 177L209 149L228 239H395L423 340C389 335 353 334 318 334H141L90 92L105 82C130 91 164 100 193 100C223 100 245 89 245 61C245 24 203 4 155 4C130 4 93 10 75 18Z" glyph-name="fiveinferior" horiz-adv-x="414" unicode="&#8325;" /><glyph d="M136 358C171 348 214 344 247 344C382 344 476 411 476 505C476 572 428 608 358 608C337 608 309 605 294 601L299 573L318 663H485L513 764C479 759 443 758 408 758H231L180 516L195 506C220 515 254 524 283 524C313 524 335 513 335 485C335 448 293 428 245 428C220 428 183 434 165 442Z" glyph-name="fivesuperior" horiz-adv-x="414" unicode="&#8309;" /><glyph d="M222 118 299 480H296C298 500 305 536 308 551C319 605 345 630 392 630C432 630 468 612 499 584L604 690C568 729 499 760 409 760C263 760 157 682 129 542C127 532 121 500 119 480L30 60ZM101 395H248L407 390L427 462L419 480H119L45 460L32 400ZM-13 -250C139 -169 183 -65 222 118L30 60C10 -37 -16 -107 -70 -190ZM519 0C519 193 646 573 646 760L457 750L449 609L400 380C353 161 339 72 339 0ZM439 0ZM539 748ZM772 515ZM501 420Z" glyph-name="fl" horiz-adv-x="609" unicode="&#64258;" /><glyph d="M407 420H404C406 426 417 458 432 502C447 545 481 570 523 570C560 570 592 554 618 535L702 666C675 685 620 700 554 700C402 700 296 620 249 489C243 473 228 425 227 420L126 75C114 33 90 -35 26 -35C5 -35 -21 -28 -41 -17L-80 -151C-50 -158 -23 -161 7 -161C207 -161 287 -34 320 90ZM203 335H383L546 330L582 402L577 420H227L119 400L93 340Z" glyph-name="florin" horiz-adv-x="619" unicode="&#402;" /><glyph d="M372 420H369C371 426 382 458 397 502C412 545 446 570 488 570C525 570 557 554 583 535L667 666C640 685 585 700 519 700C367 700 261 620 214 489C208 473 193 425 192 420L91 75C79 33 55 -35 -9 -35C-30 -35 -56 -28 -76 -17L-115 -151C-85 -158 -58 -161 -28 -161C172 -161 252 -34 285 90ZM168 335H348L511 330L547 402L542 420H192L84 400L58 340Z" glyph-name="florin.lf" horiz-adv-x="594" /><glyph d="M398 340H395C396 345 395 345 422 421C438 466 472 490 514 490C551 490 582 474 608 455L692 586C667 605 617 620 551 620C403 620 289 543 239 407C233 391 219 343 218 340L141 78C128 33 109 -16 56 -16C36 -16 11 -9 -22 4L-61 -130C-28 -137 4 -140 31 -140C222 -140 309 6 349 156ZM194 255H374L537 250L572 322L568 340H218L110 320L84 260Z" glyph-name="florin.osf" horiz-adv-x="641" /><glyph d="M398 340H395C396 345 395 345 422 421C438 466 472 490 514 490C551 490 582 474 608 455L692 586C667 605 617 620 551 620C403 620 289 543 239 407C233 391 219 343 218 340L141 78C128 33 109 -16 56 -16C36 -16 11 -9 -22 4L-61 -130C-28 -137 4 -140 31 -140C222 -140 309 6 349 156ZM194 255H374L537 250L572 322L568 340H218L110 320L84 260Z" glyph-name="florin.sc" horiz-adv-x="641" /><glyph d="M373 420H370C372 426 383 458 398 502C413 545 447 570 489 570C526 570 558 554 584 535L668 666C641 685 586 700 520 700C368 700 262 620 215 489C209 473 194 425 193 420L92 75C80 33 56 -35 -8 -35C-29 -35 -55 -28 -75 -17L-114 -151C-84 -158 -57 -161 -27 -161C173 -161 253 -34 286 90ZM169 335H349L512 330L548 402L543 420H193L85 400L59 340Z" glyph-name="florin.tf" horiz-adv-x="620" /><glyph d="M397 340H394C395 345 394 345 421 421C437 466 471 490 513 490C550 490 581 474 607 455L691 586C666 605 616 620 550 620C402 620 288 543 238 407C232 391 218 343 217 340L140 78C127 33 108 -16 55 -16C35 -16 10 -9 -23 4L-62 -130C-29 -137 3 -140 30 -140C221 -140 308 6 348 156ZM193 255H373L536 250L571 322L567 340H217L109 320L83 260Z" glyph-name="florin.tf.sc" horiz-adv-x="620" /><glyph d="M388 340H385C386 345 385 345 412 421C428 466 462 490 504 490C541 490 572 474 598 455L682 586C657 605 607 620 541 620C393 620 279 543 229 407C223 391 209 343 208 340L131 78C118 33 99 -16 46 -16C26 -16 1 -9 -32 4L-71 -130C-38 -137 -6 -140 21 -140C212 -140 299 6 339 156ZM184 255H364L527 250L562 322L558 340H208L100 320L74 260Z" glyph-name="florin.tosf" horiz-adv-x="620" /><glyph d="M3 113 -1 0H545L584 139C532 132 476 129 422 129H321C222 129 176 128 151 127V130L371 409H374C354 349 338 275 326 216L248 -151H418L560 520L544 540L344 529Z" glyph-name="four" horiz-adv-x="621" unicode="4" /><glyph d="M67 150 65 74H411L438 167C404 163 367 161 332 161H272C210 161 185 160 177 160V162L294 320H296C282 277 272 232 265 201L221 -10H347L432 391L420 404L271 398Z" glyph-name="four.denominator" horiz-adv-x="437" /><glyph d="M35 264 31 151H547L587 290C534 283 478 280 424 280H343C252 280 220 279 184 278V281L395 568H398C378 508 364 440 350 375L270 0H440L584 679L568 699L368 688Z" glyph-name="four.lf" horiz-adv-x="591" /><glyph d="M131 452 129 376H475L502 469C468 465 431 463 396 463H336C274 463 249 462 241 462V464L358 622H360C346 579 336 534 329 503L285 292H411L496 693L484 706L335 700Z" glyph-name="four.numerator" horiz-adv-x="437" /><glyph d="M3 113 -1 0H545L584 139C532 132 476 129 422 129H321C222 129 176 128 151 127V130L371 409H374C354 349 338 275 326 216L248 -151H418L560 520L544 540L344 529Z" glyph-name="four.osf" horiz-adv-x="621" /><glyph d="M24 212 21 109H473L508 235C464 230 415 228 370 228H292C223 228 190 227 168 226V229L319 431H322C305 380 291 315 282 272L224 0H389L501 529L486 547L291 538Z" glyph-name="four.sc" horiz-adv-x="524" /><glyph d="M29 264 25 151H563L603 290C550 283 494 280 440 280H364C257 280 205 279 177 278L178 281L416 568H419C399 508 385 440 371 375L291 0H461L605 679L589 699L389 688Z" glyph-name="four.tf" horiz-adv-x="620" /><glyph d="M42 212 39 109H507L542 235C498 230 449 228 404 228H326C236 228 197 227 185 226L186 229L353 431H356C339 380 325 315 316 272L258 0H423L535 529L520 547L325 538Z" glyph-name="four.tf.sc" horiz-adv-x="620" /><glyph d="M6 113 1 0H521L560 139C510 132 459 129 407 129H312C221 129 179 128 154 127L155 130L351 383H354C335 323 323 261 313 216L235 -151H405L548 520L533 540L340 529Z" glyph-name="four.tosf" horiz-adv-x="620" /><glyph d="M54 90 52 14H398L425 107C391 103 354 101 319 101H259C197 101 172 100 164 100V102L281 260H283C269 217 259 172 252 141L208 -70H334L419 331L407 344L258 338Z" glyph-name="fourinferior" horiz-adv-x="437" unicode="&#8324;" /><glyph d="M144 512 142 436H488L515 529C481 525 444 523 409 523H349C287 523 262 522 254 522V524L371 682H373C359 639 349 594 342 563L298 352H424L509 753L497 766L348 760Z" glyph-name="foursuperior" horiz-adv-x="437" unicode="&#8308;" /><glyph d="M530 700H464L-111 -10H-46Z" glyph-name="fraction" horiz-adv-x="269.2104" unicode="&#8260;" /><glyph d="M326 358C326 291 299 204 253 204C225 204 213 236 213 278C213 340 245 425 291 425C317 425 326 397 326 358ZM159 -250C320 -250 454 -185 454 -90C454 -13 365 27 316 51C279 69 262 79 262 90C262 130 493 157 493 324C493 387 461 422 416 446L417 449C446 439 473 420 506 420C554 420 567 461 567 485C567 499 562 513 551 523C490 510 441 510 308 510C180 510 46 438 46 300C46 201 116 146 208 137C219 136 227 136 238 136V133C188 133 95 100 95 38C95 -1 134 -23 182 -46C233 -71 274 -85 274 -118C274 -148 239 -170 190 -170C127 -170 86 -133 86 -78C86 -69 87 -62 88 -54L54 -23C-16 -42 -74 -78 -74 -131C-74 -196 13 -250 159 -250ZM317 500ZM211 0Z" glyph-name="g" horiz-adv-x="533" unicode="g" /><glyph d="M245 207C245 159 224 92 187 92C164 92 154 119 154 150C154 195 179 260 216 260C236 260 245 239 245 207ZM113 -263C244 -263 355 -214 355 -138C355 -76 282 -44 242 -26C213 -13 196 -4 196 5C196 34 384 52 384 181C384 231 356 259 319 278L320 280C344 272 366 256 394 256C433 256 443 290 443 309C443 320 439 333 430 340C380 330 339 330 229 330C125 330 15 277 15 169C15 96 65 50 132 40C146 38 160 37 175 37V35C134 37 57 11 57 -39C57 -70 90 -87 129 -105C172 -125 206 -136 206 -160C206 -182 178 -197 138 -197C87 -197 53 -168 53 -124C53 -119 53 -116 53 -111L25 -86C-30 -100 -80 -127 -80 -169C-80 -220 -7 -263 113 -263ZM237 322ZM154 -68Z" glyph-name="g.inferior" horiz-adv-x="443" /><glyph d="M526 149C486 131 406 122 368 122C291 122 252 158 252 221C252 330 330 413 434 413C480 413 524 397 559 373L618 516C581 534 519 548 455 548C240 548 63 387 63 190C63 70 149 -8 324 -8C399 -8 467 6 519 21ZM555 269 390 261C385 186 383 167 363 69L351 11L519 21L571 250ZM400 520ZM312 0Z" glyph-name="g.sc" horiz-adv-x="538" /><glyph d="M322 567C322 519 301 452 264 452C241 452 231 479 231 510C231 555 256 620 293 620C313 620 322 599 322 567ZM190 97C321 97 432 146 432 222C432 284 359 316 319 334C290 347 273 356 273 365C273 394 461 412 461 541C461 591 433 619 396 638L397 640C421 632 443 616 471 616C510 616 520 650 520 669C520 680 516 693 507 700C457 690 416 690 306 690C202 690 92 637 92 529C92 456 142 410 209 400C223 398 237 397 252 397V395C211 397 134 371 134 321C134 290 167 273 206 255C249 235 283 224 283 200C283 178 255 163 215 163C164 163 130 192 130 236C130 241 130 244 130 249L102 274C47 260 -3 233 -3 191C-3 140 70 97 190 97ZM314 682ZM231 292Z" glyph-name="g.superior" horiz-adv-x="444" /><glyph d="M326 358C326 291 299 204 253 204C225 204 213 236 213 278C213 340 245 425 291 425C317 425 326 397 326 358ZM159 -250C320 -250 454 -185 454 -90C454 -13 365 27 316 51C279 69 262 79 262 90C262 130 493 157 493 324C493 387 461 422 416 446L417 449C446 439 473 420 506 420C554 420 567 461 567 485C567 499 562 513 551 523C490 510 441 510 308 510C180 510 46 438 46 300C46 201 116 146 208 137C219 136 227 136 238 136V133C188 133 95 100 95 38C95 -1 134 -23 182 -46C233 -71 274 -85 274 -118C274 -148 239 -170 190 -170C127 -170 86 -133 86 -78C86 -69 87 -62 88 -54L54 -23C-16 -42 -74 -78 -74 -131C-74 -196 13 -250 159 -250ZM317 500ZM211 0ZM478 761 320 769C293 703 259 636 222 571L290 561C362 609 426 665 482 731ZM374 769ZM317 500Z" glyph-name="gacute" horiz-adv-x="533" unicode="&#501;" /><glyph d="M526 149C486 131 406 122 368 122C291 122 252 158 252 221C252 330 330 413 434 413C480 413 524 397 559 373L618 516C581 534 519 548 455 548C240 548 63 387 63 190C63 70 149 -8 324 -8C399 -8 467 6 519 21ZM555 269 390 261C385 186 383 167 363 69L351 11L519 21L571 250ZM400 520ZM312 0ZM561 781 403 789C376 723 342 656 305 591L373 581C445 629 509 685 565 751ZM457 789ZM400 520Z" glyph-name="gacute.sc" horiz-adv-x="538" /><glyph d="M326 358C326 291 299 204 253 204C225 204 213 236 213 278C213 340 245 425 291 425C317 425 326 397 326 358ZM159 -250C320 -250 454 -185 454 -90C454 -13 365 27 316 51C279 69 262 79 262 90C262 130 493 157 493 324C493 387 461 422 416 446L417 449C446 439 473 420 506 420C554 420 567 461 567 485C567 499 562 513 551 523C490 510 441 510 308 510C180 510 46 438 46 300C46 201 116 146 208 137C219 136 227 136 238 136V133C188 133 95 100 95 38C95 -1 134 -23 182 -46C233 -71 274 -85 274 -118C274 -148 239 -170 190 -170C127 -170 86 -133 86 -78C86 -69 87 -62 88 -54L54 -23C-16 -42 -74 -78 -74 -131C-74 -196 13 -250 159 -250ZM317 500ZM211 0ZM332 555C429 555 508 639 537 752L466 743C448 699 405 665 361 665C319 665 290 695 290 744L218 734C200 625 248 555 332 555ZM371 752ZM317 500Z" glyph-name="gbreve" horiz-adv-x="533" unicode="&#287;" /><glyph d="M526 149C486 131 406 122 368 122C291 122 252 158 252 221C252 330 330 413 434 413C480 413 524 397 559 373L618 516C581 534 519 548 455 548C240 548 63 387 63 190C63 70 149 -8 324 -8C399 -8 467 6 519 21ZM555 269 390 261C385 186 383 167 363 69L351 11L519 21L571 250ZM400 520ZM312 0ZM415 575C512 575 591 659 620 772L549 763C531 719 488 685 444 685C402 685 373 715 373 764L301 754C283 645 331 575 415 575ZM454 772ZM400 520Z" glyph-name="gbreve.sc" horiz-adv-x="538" /><glyph d="M326 358C326 291 299 204 253 204C225 204 213 236 213 278C213 340 245 425 291 425C317 425 326 397 326 358ZM159 -250C320 -250 454 -185 454 -90C454 -13 365 27 316 51C279 69 262 79 262 90C262 130 493 157 493 324C493 387 461 422 416 446L417 449C446 439 473 420 506 420C554 420 567 461 567 485C567 499 562 513 551 523C490 510 441 510 308 510C180 510 46 438 46 300C46 201 116 146 208 137C219 136 227 136 238 136V133C188 133 95 100 95 38C95 -1 134 -23 182 -46C233 -71 274 -85 274 -118C274 -148 239 -170 190 -170C127 -170 86 -133 86 -78C86 -69 87 -62 88 -54L54 -23C-16 -42 -74 -78 -74 -131C-74 -196 13 -250 159 -250ZM317 500ZM211 0ZM488 771C432 738 381 698 332 655H375C346 699 311 739 269 771L200 747C224 687 238 631 252 566L421 576C458 633 497 689 547 747ZM374 771ZM317 500Z" glyph-name="gcaron" horiz-adv-x="533" unicode="&#487;" /><glyph d="M526 149C486 131 406 122 368 122C291 122 252 158 252 221C252 330 330 413 434 413C480 413 524 397 559 373L618 516C581 534 519 548 455 548C240 548 63 387 63 190C63 70 149 -8 324 -8C399 -8 467 6 519 21ZM555 269 390 261C385 186 383 167 363 69L351 11L519 21L571 250ZM400 520ZM312 0ZM571 791C515 758 464 718 415 675H458C429 719 394 759 352 791L283 767C307 707 321 651 335 586L504 596C541 653 580 709 630 767ZM457 791ZM400 520Z" glyph-name="gcaron.sc" horiz-adv-x="538" /><glyph d="M326 358C326 291 299 204 253 204C225 204 213 236 213 278C213 340 245 425 291 425C317 425 326 397 326 358ZM159 -250C320 -250 454 -185 454 -90C454 -13 365 27 316 51C279 69 262 79 262 90C262 130 493 157 493 324C493 387 461 422 416 446L417 449C446 439 473 420 506 420C554 420 567 461 567 485C567 499 562 513 551 523C490 510 441 510 308 510C180 510 46 438 46 300C46 201 116 146 208 137C219 136 227 136 238 136V133C188 133 95 100 95 38C95 -1 134 -23 182 -46C233 -71 274 -85 274 -118C274 -148 239 -170 190 -170C127 -170 86 -133 86 -78C86 -69 87 -62 88 -54L54 -23C-16 -42 -74 -78 -74 -131C-74 -196 13 -250 159 -250ZM317 500ZM211 0ZM201 566C257 599 309 638 357 682H314C343 638 378 598 420 566L489 590C465 650 451 706 437 771L268 761C231 704 192 648 142 590Z" glyph-name="gcircumflex" horiz-adv-x="533" unicode="&#285;" /><glyph d="M526 149C486 131 406 122 368 122C291 122 252 158 252 221C252 330 330 413 434 413C480 413 524 397 559 373L618 516C581 534 519 548 455 548C240 548 63 387 63 190C63 70 149 -8 324 -8C399 -8 467 6 519 21ZM555 269 390 261C385 186 383 167 363 69L351 11L519 21L571 250ZM400 520ZM312 0ZM321 586C377 619 429 658 477 702H434C463 658 498 618 540 586L609 610C585 670 571 726 557 791L388 781C351 724 312 668 262 610ZM457 791ZM400 520Z" glyph-name="gcircumflex.sc" horiz-adv-x="538" /><glyph d="M326 358C326 291 299 204 253 204C225 204 213 236 213 278C213 340 245 425 291 425C317 425 326 397 326 358ZM159 -250C320 -250 454 -185 454 -90C454 -13 365 27 316 51C279 69 262 79 262 90C262 130 493 157 493 324C493 387 461 422 416 446L417 449C446 439 473 420 506 420C554 420 567 461 567 485C567 499 562 513 551 523C490 510 441 510 308 510C180 510 46 438 46 300C46 201 116 146 208 137C219 136 227 136 238 136V133C188 133 95 100 95 38C95 -1 134 -23 182 -46C233 -71 274 -85 274 -118C274 -148 239 -170 190 -170C127 -170 86 -133 86 -78C86 -69 87 -62 88 -54L54 -23C-16 -42 -74 -78 -74 -131C-74 -196 13 -250 159 -250ZM317 500ZM211 0ZM457 827 447 838C352 804 259 696 259 616C259 575 285 550 329 550C384 550 435 602 435 656C435 691 409 717 367 717L375 680C386 735 426 793 457 827ZM318 504ZM389 838ZM389 838ZM317 500Z" glyph-name="gcommaaccent" horiz-adv-x="533" unicode="&#291;" /><glyph d="M526 149C486 131 406 122 368 122C291 122 252 158 252 221C252 330 330 413 434 413C480 413 524 397 559 373L618 516C581 534 519 548 455 548C240 548 63 387 63 190C63 70 149 -8 324 -8C399 -8 467 6 519 21ZM555 269 390 261C385 186 383 167 363 69L351 11L519 21L571 250ZM400 520ZM312 0ZM173 -323 183 -334C278 -300 371 -192 371 -112C371 -71 345 -46 301 -46C246 -46 195 -98 195 -152C195 -187 221 -213 263 -213L255 -176C244 -231 204 -289 173 -323ZM312 0ZM241 -334Z" glyph-name="gcommaaccent.sc" horiz-adv-x="538" /><glyph d="M326 358C326 291 299 204 253 204C225 204 213 236 213 278C213 340 245 425 291 425C317 425 326 397 326 358ZM159 -250C320 -250 454 -185 454 -90C454 -13 365 27 316 51C279 69 262 79 262 90C262 130 493 157 493 324C493 387 461 422 416 446L417 449C446 439 473 420 506 420C554 420 567 461 567 485C567 499 562 513 551 523C490 510 441 510 308 510C180 510 46 438 46 300C46 201 116 146 208 137C219 136 227 136 238 136V133C188 133 95 100 95 38C95 -1 134 -23 182 -46C233 -71 274 -85 274 -118C274 -148 239 -170 190 -170C127 -170 86 -133 86 -78C86 -69 87 -62 88 -54L54 -23C-16 -42 -74 -78 -74 -131C-74 -196 13 -250 159 -250ZM317 500ZM211 0ZM461 699C461 743 431 769 387 769C318 769 244 706 244 640C244 598 274 569 322 569C393 569 461 633 461 699ZM374 769ZM317 500Z" glyph-name="gdotaccent" horiz-adv-x="533" unicode="&#289;" /><glyph d="M526 149C486 131 406 122 368 122C291 122 252 158 252 221C252 330 330 413 434 413C480 413 524 397 559 373L618 516C581 534 519 548 455 548C240 548 63 387 63 190C63 70 149 -8 324 -8C399 -8 467 6 519 21ZM555 269 390 261C385 186 383 167 363 69L351 11L519 21L571 250ZM400 520ZM312 0ZM544 719C544 763 514 789 470 789C401 789 327 726 327 660C327 618 357 589 405 589C476 589 544 653 544 719ZM457 789ZM400 520Z" glyph-name="gdotaccent.sc" horiz-adv-x="538" /><glyph d="M102 395 120 480 45 460 32 400ZM461 192C461 139 424 100 366 100C339 100 304 108 287 117L263 7C280 -2 338 -10 384 -10C552 -10 632 93 632 209C632 317 562 380 445 413L438 370C578 401 655 496 655 596C655 695 578 760 440 760C277 760 160 671 125 507L30 60L222 118L312 541C319 574 338 660 418 660C467 660 486 628 486 584C486 505 434 449 351 417L335 343C407 306 461 255 461 192ZM-13 -250C139 -169 184 -64 222 118L30 60C10 -37 -16 -107 -70 -190Z" glyph-name="germandbls" horiz-adv-x="681" unicode="&#223;" /><glyph d="M192 -10 32 0C50 32 71 87 81 130L127 349C155 482 288 548 416 548C557 548 637 469 619 385L432 240L448 316C502 308 607 277 607 182C607 75 504 -8 372 -8C341 -8 300 -3 278 5L306 135C328 127 354 122 373 122C403 122 420 136 420 162C420 194 383 217 328 238L337 282L467 399L438 332C450 391 435 420 388 420C339 420 306 388 294 332L256 155C236 64 219 27 192 -10Z" glyph-name="germandbls.sc" horiz-adv-x="602" /><glyph d="M233 561 303 571C280 636 260 703 247 769L87 761L77 731C119 665 171 609 233 561ZM143 769ZM143 500Z" glyph-name="grave" horiz-adv-x="276" unicode="`" /><glyph d="M384 712 422 759C374 805 332 854 297 911L173 829L167 797C234 759 307 731 384 712ZM316 911ZM269 690Z" glyph-name="grave.case" horiz-adv-x="364" /><glyph d="M233 561 303 571C280 636 260 703 247 769L87 761L77 731C119 665 171 609 233 561ZM143 769ZM143 500Z" glyph-name="gravecomb" horiz-adv-x="276" unicode="&#768;" /><glyph d="M384 712 422 759C374 805 332 854 297 911L173 829L167 797C234 759 307 731 384 712ZM316 911ZM269 690Z" glyph-name="gravecomb.case" horiz-adv-x="364" /><glyph d="M33 18 532 226 547 295 545 306C458 357 233 475 140 516L120 421L406 269L53 113Z" glyph-name="greater" horiz-adv-x="620" unicode="&gt;" /><glyph d="M49 95 548 303 563 372 561 383C474 434 249 552 156 593L136 498L422 346L69 190Z" glyph-name="greater.lf" horiz-adv-x="620" /><glyph d="M33 95 532 303 547 372 545 383C458 434 233 552 140 593L120 498L406 346L53 190Z" glyph-name="greater.osf" horiz-adv-x="620" /><glyph d="M33 18 532 226 547 295 545 306C458 357 233 475 140 516L120 421L406 269L53 113Z" glyph-name="greater.sc" horiz-adv-x="600" /><glyph d="M55 145 557 316 570 380 567 391C455 438 247 520 144 559L125 469L417 354L75 238ZM474 0 501 82 495 90C389 90 145 88 42 85L24 0Z" glyph-name="greaterequal" horiz-adv-x="620" unicode="&#8805;" /><glyph d="M72 225 574 396 587 460 584 471C472 518 264 600 161 639L142 549L434 434L92 318ZM491 80 518 162 512 170C406 170 162 168 59 165L41 80Z" glyph-name="greaterequal.lf" horiz-adv-x="620" /><glyph d="M72 225 574 396 587 460 584 471C472 518 264 600 161 639L142 549L434 434L92 318ZM491 80 518 162 512 170C406 170 162 168 59 165L41 80Z" glyph-name="greaterequal.osf" horiz-adv-x="620" /><glyph d="M55 145 557 316 570 380 567 391C455 438 247 520 144 559L125 469L417 354L75 238ZM474 0 501 82 495 90C389 90 145 88 42 85L24 0Z" glyph-name="greaterequal.sc" horiz-adv-x="620" /><glyph d="M44 269C95 220 139 157 178 86L228 104C227 180 203 252 174 310L166 276C221 334 274 405 308 482L266 500C194 426 127 368 54 317ZM258 269C309 220 353 157 392 86L442 104C441 180 417 252 388 310L380 276C435 334 488 405 522 482L480 500C408 426 341 368 268 317Z" glyph-name="guillemetleft" horiz-adv-x="513" unicode="&#171;" /><glyph d="M64 363C115 314 159 251 198 180L248 198C247 274 223 346 194 404L186 370C241 428 294 499 328 576L286 594C214 520 147 462 74 411ZM278 363C329 314 373 251 412 180L462 198C461 274 437 346 408 404L400 370C455 428 508 499 542 576L500 594C428 520 361 462 288 411Z" glyph-name="guillemetleft.caps" horiz-adv-x="513" /><glyph d="M34 219C85 170 129 107 168 36L218 54C217 130 193 202 164 260L156 226C211 284 264 355 298 432L256 450C184 376 117 318 44 267ZM248 219C299 170 343 107 382 36L432 54C431 130 407 202 378 260L370 226C425 284 478 355 512 432L470 450C398 376 331 318 258 267Z" glyph-name="guillemetleft.sc" horiz-adv-x="514" /><glyph d="M487 317C436 366 392 429 353 500L303 482C304 406 328 334 357 276L365 310C310 252 257 181 223 104L265 86C337 160 404 218 477 269ZM273 317C222 366 178 429 139 500L89 482C90 406 114 334 143 276L151 310C96 252 43 181 9 104L51 86C123 160 190 218 263 269Z" glyph-name="guillemetright" horiz-adv-x="513" unicode="&#187;" /><glyph d="M507 411C456 460 412 523 373 594L323 576C324 500 348 428 377 370L385 404C330 346 277 275 243 198L285 180C357 254 424 312 497 363ZM293 411C242 460 198 523 159 594L109 576C110 500 134 428 163 370L171 404C116 346 63 275 29 198L71 180C143 254 210 312 283 363Z" glyph-name="guillemetright.caps" horiz-adv-x="513" /><glyph d="M477 267C426 316 382 379 343 450L293 432C294 356 318 284 347 226L355 260C300 202 247 131 213 54L255 36C327 110 394 168 467 219ZM263 267C212 316 168 379 129 450L79 432C80 356 104 284 133 226L141 260C86 202 33 131 -1 54L41 36C113 110 180 168 253 219Z" glyph-name="guillemetright.sc" horiz-adv-x="514" /><glyph d="M44 269C95 220 139 157 178 86L228 104C227 180 203 252 174 310L166 276C221 334 274 405 308 482L266 500C194 426 127 368 54 317Z" glyph-name="guilsinglleft" horiz-adv-x="299" unicode="&#8249;" /><glyph d="M64 363C115 314 159 251 198 180L248 198C247 274 223 346 194 404L186 370C241 428 294 499 328 576L286 594C214 520 147 462 74 411Z" glyph-name="guilsinglleft.caps" horiz-adv-x="299" /><glyph d="M34 219C85 170 129 107 168 36L218 54C217 130 193 202 164 260L156 226C211 284 264 355 298 432L256 450C184 376 117 318 44 267Z" glyph-name="guilsinglleft.sc" horiz-adv-x="300" /><glyph d="M273 317C222 366 178 429 139 500L89 482C90 406 114 334 143 276L151 310C96 252 43 181 9 104L51 86C123 160 190 218 263 269Z" glyph-name="guilsinglright" horiz-adv-x="299" unicode="&#8250;" /><glyph d="M293 411C242 460 198 523 159 594L109 576C110 500 134 428 163 370L171 404C116 346 63 275 29 198L71 180C143 254 210 312 283 363Z" glyph-name="guilsinglright.caps" horiz-adv-x="299" /><glyph d="M263 267C212 316 168 379 129 450L79 432C80 356 104 284 133 226L141 260C86 202 33 131 -1 54L41 36C113 110 180 168 253 219Z" glyph-name="guilsinglright.sc" horiz-adv-x="300" /><glyph d="M208 0C211 176 277 360 341 360C358 360 365 346 365 325C365 314 363 301 354 257C341 194 318 93 318 0H498C498 63 502 110 511 151C552 340 559 372 559 405C559 472 524 510 462 510C402 510 328 474 275 386H272C304 524 335 661 335 760L146 750L138 609L89 380C42 161 28 72 28 0ZM276 607ZM243 0ZM390 745Z" glyph-name="h" horiz-adv-x="591" unicode="h" /><glyph d="M150 -68C151 64 203 205 254 205C268 205 273 194 273 180C273 172 272 164 270 155C247 44 237 -6 238 -68H388C387 -19 390 21 397 50C430 204 435 224 435 245C435 300 404 330 352 330C303 330 245 305 202 236H199C224 343 248 448 248 525L90 517L85 407L47 228C8 44 0 -12 0 -68ZM199 406ZM178 -68ZM292 513Z" glyph-name="h.inferior" horiz-adv-x="489" /><glyph d="M230 0 342 529 326 548 156 540C151 482 142 436 132 386L50 0ZM477 327H282L256 207H451ZM565 0 677 529 662 548 491 540C486 482 477 436 467 386L385 0ZM308 0ZM419 520ZM126 500ZM396 413Z" glyph-name="h.sc" horiz-adv-x="615" /><glyph d="M226 292C227 424 279 565 330 565C344 565 349 554 349 540C349 532 348 524 346 515C323 404 313 354 314 292H464C463 341 466 381 473 410C506 564 511 584 511 605C511 660 480 690 428 690C379 690 321 665 278 596H275C300 703 324 808 324 885L166 877L161 767L123 588C84 404 76 348 76 292ZM275 766ZM254 292ZM368 873Z" glyph-name="h.superior" horiz-adv-x="488" /><glyph d="M208 0C211 176 277 360 341 360C358 360 365 346 365 325C365 314 363 301 354 257C341 194 318 93 318 0H498C498 63 502 110 511 151C552 340 559 372 559 405C559 472 524 510 462 510C402 510 328 474 275 386H272C304 524 335 661 335 760L146 750L138 609L89 380C42 161 28 72 28 0ZM276 607ZM243 0ZM390 745ZM459 562 478 652H92L73 562ZM276 607Z" glyph-name="hbar" horiz-adv-x="591" unicode="&#295;" /><glyph d="M230 0 342 529 326 548 156 540C151 482 142 436 132 386L50 0ZM477 327H282L256 207H451ZM565 0 677 529 662 548 491 540C486 482 477 436 467 386L385 0ZM308 0ZM419 520ZM126 500ZM396 413ZM711.5 368 728.6 458H80.6L63.5 368ZM396.5 413Z" glyph-name="hbar.sc" horiz-adv-x="615" /><glyph d="M208 0C211 176 277 360 341 360C358 360 365 346 365 325C365 314 363 301 354 257C341 194 318 93 318 0H498C498 63 502 110 511 151C552 340 559 372 559 405C559 472 524 510 462 510C402 510 328 474 275 386H272C304 524 335 661 335 760L146 750L138 609L89 380C42 161 28 72 28 0ZM276 607ZM243 0ZM390 745ZM284 776C340 806 396 840 441 868H410C446 838 488 807 533 776L604 809C571 863 550 911 527 957L358 947C318 905 282 863 227 809ZM435 957ZM390 745Z" glyph-name="hcircumflex" horiz-adv-x="591" unicode="&#293;" /><glyph d="M230 0 342 529 326 548 156 540C151 482 142 436 132 386L50 0ZM477 327H282L256 207H451ZM565 0 677 529 662 548 491 540C486 482 477 436 467 386L385 0ZM308 0ZM419 520ZM126 500ZM396 413ZM340 586C396 619 448 658 496 702H453C482 658 517 618 559 586L628 610C604 670 590 726 576 791L407 781C370 724 331 668 281 610ZM476 791ZM419 520Z" glyph-name="hcircumflex.sc" horiz-adv-x="615" /><glyph d="M208 0C211 176 277 360 341 360C358 360 365 346 365 325C365 314 363 301 354 257C341 194 318 93 318 0H498C498 63 502 110 511 151C552 340 559 372 559 405C559 472 524 510 462 510C402 510 328 474 275 386H272C304 524 335 661 335 760L146 750L138 609L89 380C42 161 28 72 28 0ZM276 607ZM243 0ZM390 745ZM321 -133C321 -89 291 -63 247 -63C178 -63 104 -126 104 -192C104 -234 134 -263 182 -263C253 -263 321 -199 321 -133ZM234 -63ZM177 -332ZM243 0ZM190 -246Z" glyph-name="hdotbelow" horiz-adv-x="591" unicode="&#7717;" /><glyph d="M230 0 342 529 326 548 156 540C151 482 142 436 132 386L50 0ZM477 327H282L256 207H451ZM565 0 677 529 662 548 491 540C486 482 477 436 467 386L385 0ZM308 0ZM419 520ZM126 500ZM396 413ZM386 -133C386 -89 356 -63 312 -63C243 -63 169 -126 169 -192C169 -234 199 -263 247 -263C318 -263 386 -199 386 -133ZM299 -63ZM242 -332ZM308 0ZM255 -246Z" glyph-name="hdotbelow.sc" horiz-adv-x="615" /><glyph d="M342 761 216 769C189 703 155 638 118 571L186 561C245 609 298 665 346 731ZM551 761 425 769C398 703 364 638 327 571L395 561C454 609 507 665 555 731Z" glyph-name="hungarumlaut" horiz-adv-x="503" unicode="&#733;" /><glyph d="M405 823 332 903C281 848 221 800 158 757L172 721C242 725 326 752 396 791ZM634 823 561 903C510 848 449 800 387 757L401 721C471 725 555 752 625 791ZM415 903ZM370 690Z" glyph-name="hungarumlaut.case" horiz-adv-x="562" /><glyph d="M342 761 216 769C189 703 155 638 118 571L186 561C245 609 298 665 346 731ZM551 761 425 769C398 703 364 638 327 571L395 561C454 609 507 665 555 731ZM359 769ZM301 500Z" glyph-name="hungarumlautcomb" horiz-adv-x="503" unicode="&#779;" /><glyph d="M405 823 332 903C281 848 221 800 158 757L172 721C242 725 326 752 396 791ZM634 823 561 903C510 848 449 800 387 757L401 721C471 725 555 752 625 791ZM415 903ZM370 690Z" glyph-name="hungarumlautcomb.case" horiz-adv-x="562" /><glyph d="M52.03 251H406.27L410.78 301H56.54Z" glyph-name="hyphen" horiz-adv-x="415" unicode="-" /><glyph d="M67.03 323H421.27L425.78 373H71.54Z" glyph-name="hyphen.caps" horiz-adv-x="415" /><glyph d="M52.03 248H406.27L410.78 298H56.54Z" glyph-name="hyphen.sc" horiz-adv-x="416" /><glyph d="M208 0C208 161 282 376 282 510L93 500L85 359L65 267C42 161 28 72 28 0ZM284 10ZM163 0ZM180 500ZM324 699C324 743 294 769 250 769C181 769 107 706 107 640C107 598 137 569 185 569C256 569 324 633 324 699ZM237 769ZM180 500ZM112 0Z" glyph-name="i" horiz-adv-x="301" unicode="i" /><glyph d="M150 -68C149 58 208 227 206 330L49 322L44 212L28 140C10 58 0 -1 0 -68ZM239 474C239 511 213 533 176 533C121 533 59 483 59 428C59 393 85 369 125 369C183 369 239 421 239 474Z" glyph-name="i.inferior" horiz-adv-x="252" /><glyph d="M230 0 342 529 326 548 156 540C151 482 142 436 132 386L50 0ZM267 10ZM140 0ZM251 520Z" glyph-name="i.sc" horiz-adv-x="279" /><glyph d="M226 292C225 418 284 587 282 690L125 682L120 572L104 500C86 418 76 359 76 292ZM315 834C315 871 289 893 252 893C197 893 135 843 135 788C135 753 161 729 201 729C259 729 315 781 315 834Z" glyph-name="i.superior" horiz-adv-x="251" /><glyph d="M208 0C208 161 282 376 282 510L93 500L85 359L65 267C42 161 28 72 28 0ZM284 10ZM163 0ZM180 500ZM341 761 183 769C156 703 122 636 85 571L153 561C225 609 289 665 345 731ZM237 769ZM180 500Z" glyph-name="iacute" horiz-adv-x="301" unicode="&#237;" /><glyph d="M230 0 342 529 326 548 156 540C151 482 142 436 132 386L50 0ZM267 10ZM140 0ZM251 520ZM412 781 254 789C227 723 193 656 156 591L224 581C296 629 360 685 416 751ZM308 789ZM251 520Z" glyph-name="iacute.sc" horiz-adv-x="279" /><glyph d="M208 0C208 161 282 376 282 510L93 500L85 359L65 267C42 161 28 72 28 0ZM284 10ZM163 0ZM180 500ZM195 555C292 555 371 639 400 752L329 743C311 699 268 665 224 665C182 665 153 695 153 744L81 734C63 625 111 555 195 555ZM234 752ZM180 500Z" glyph-name="ibreve" horiz-adv-x="301" unicode="&#301;" /><glyph d="M230 0 342 529 326 548 156 540C151 482 142 436 132 386L50 0ZM267 10ZM140 0ZM251 520ZM266 575C363 575 442 659 471 772L400 763C382 719 339 685 295 685C253 685 224 715 224 764L152 754C134 645 182 575 266 575ZM305 772ZM251 520Z" glyph-name="ibreve.sc" horiz-adv-x="279" /><glyph d="M208 0C208 161 282 376 282 510L93 500L85 359L65 267C42 161 28 72 28 0ZM284 10ZM163 0ZM180 500ZM351 771C295 738 244 698 195 655H238C209 699 174 739 132 771L63 747C87 687 101 631 115 566L284 576C321 633 360 689 410 747ZM237 771ZM180 500Z" glyph-name="icaron" horiz-adv-x="301" unicode="&#464;" /><glyph d="M230 0 342 529 326 548 156 540C151 482 142 436 132 386L50 0ZM267 10ZM140 0ZM251 520ZM422 791C366 758 315 718 266 675H309C280 719 245 759 203 791L134 767C158 707 172 651 186 586L355 596C392 653 431 709 481 767ZM308 791ZM251 520Z" glyph-name="icaron.sc" horiz-adv-x="279" /><glyph d="M208 0C208 161 282 376 282 510L93 500L85 359L65 267C42 161 28 72 28 0ZM284 10ZM163 0ZM180 500ZM101 566C157 599 209 638 257 682H214C243 638 278 598 320 566L389 590C365 650 351 706 337 771L168 761C131 704 92 648 42 590ZM237 771ZM180 500Z" glyph-name="icircumflex" horiz-adv-x="301" unicode="&#238;" /><glyph d="M230 0 342 529 326 548 156 540C151 482 142 436 132 386L50 0ZM267 10ZM140 0ZM251 520ZM172 586C228 619 280 658 328 702H285C314 658 349 618 391 586L460 610C436 670 422 726 408 791L239 781C202 724 163 668 113 610ZM308 791ZM251 520Z" glyph-name="icircumflex.sc" horiz-adv-x="279" /><glyph d="M208 0C208 161 282 376 282 510L93 500L85 359L65 267C42 161 28 72 28 0ZM284 10ZM163 0ZM180 500ZM185 688C185 726 159 750 118 750C55 750 -13 692 -13 629C-13 593 12 565 58 565C122 565 185 623 185 688ZM440 688C440 726 414 750 373 750C310 750 242 692 242 629C242 593 267 565 313 565C377 565 440 623 440 688ZM233 750ZM180 500Z" glyph-name="idieresis" horiz-adv-x="301" unicode="&#239;" /><glyph d="M230 0 342 529 326 548 156 540C151 482 142 436 132 386L50 0ZM267 10ZM140 0ZM251 520ZM256 708C256 746 230 770 189 770C126 770 58 712 58 649C58 613 83 585 129 585C193 585 256 643 256 708ZM511 708C511 746 485 770 444 770C381 770 313 712 313 649C313 613 338 585 384 585C448 585 511 643 511 708ZM304 770ZM251 520Z" glyph-name="idieresis.sc" horiz-adv-x="279" /><glyph d="M230 0 342 529 326 548 156 540C151 482 142 436 132 386L50 0ZM267 10ZM140 0ZM251 520ZM395 719C395 763 365 789 321 789C252 789 178 726 178 660C178 618 208 589 256 589C327 589 395 653 395 719ZM308 789ZM251 520Z" glyph-name="idotaccent.sc" horiz-adv-x="279" /><glyph d="M208 0C208 161 282 376 282 510L93 500L85 359L65 267C42 161 28 72 28 0ZM284 10ZM163 0ZM180 500ZM324 699C324 743 294 769 250 769C181 769 107 706 107 640C107 598 137 569 185 569C256 569 324 633 324 699ZM237 769ZM180 500ZM112 0ZM190 -133C190 -89 160 -63 116 -63C47 -63 -27 -126 -27 -192C-27 -234 3 -263 51 -263C122 -263 190 -199 190 -133ZM103 -63ZM46 -332ZM112 0ZM59 -246Z" glyph-name="idotbelow" horiz-adv-x="301" unicode="&#7883;" /><glyph d="M230 0 342 529 326 548 156 540C151 482 142 436 132 386L50 0ZM267 10ZM140 0ZM251 520ZM218 -133C218 -89 188 -63 144 -63C75 -63 1 -126 1 -192C1 -234 31 -263 79 -263C150 -263 218 -199 218 -133ZM131 -63ZM74 -332ZM140 0ZM87 -246Z" glyph-name="idotbelow.sc" horiz-adv-x="279" /><glyph d="M208 0C208 161 282 376 282 510L93 500L85 359L65 267C42 161 28 72 28 0ZM284 10ZM163 0ZM180 500ZM270 561 340 571C317 636 297 703 284 769L124 761L114 731C156 665 208 609 270 561ZM180 769ZM180 500Z" glyph-name="igrave" horiz-adv-x="301" unicode="&#236;" /><glyph d="M230 0 342 529 326 548 156 540C151 482 142 436 132 386L50 0ZM267 10ZM140 0ZM251 520ZM341 581 411 591C388 656 368 723 355 789L195 781L185 751C227 685 279 629 341 581ZM251 789ZM251 520Z" glyph-name="igrave.sc" horiz-adv-x="279" /><glyph d="M208 0C208 161 282 376 282 510L93 500L85 359L65 267C42 161 28 72 28 0ZM284 10ZM163 0ZM180 500ZM324 699C324 743 294 769 250 769C181 769 107 706 107 640C107 598 137 569 185 569C256 569 324 633 324 699ZM237 769ZM180 500ZM112 0ZM272 -250C424 -169 469 -64 507 118C534 249 575 428 575 510L386 500L378 359L315 60C295 -37 269 -107 215 -190ZM476 500ZM448 0ZM620 699C620 743 590 769 546 769C477 769 403 706 403 640C403 598 433 569 481 569C552 569 620 633 620 699ZM533 769ZM476 500Z" glyph-name="ij" horiz-adv-x="589" unicode="&#307;" /><glyph d="M230 0 342 529 326 548 156 540C151 482 142 436 132 386L50 0ZM267 10ZM140 0ZM251 520ZM284 -162C457 -90 505 -16 535 128L620 530L606 548L426 531C426 478 420 433 410 386L355 128C335 34 306 -37 247 -106ZM515 520ZM419 0Z" glyph-name="ij.sc" horiz-adv-x="558" /><glyph d="M208 0C208 161 282 376 282 510L93 500L85 359L65 267C42 161 28 72 28 0ZM284 10ZM163 0ZM180 500ZM62 604H342L369 729H89ZM229 729ZM180 500Z" glyph-name="imacron" horiz-adv-x="301" unicode="&#299;" /><glyph d="M230 0 342 529 326 548 156 540C151 482 142 436 132 386L50 0ZM267 10ZM140 0ZM251 520ZM133 624H413L440 749H160ZM300 749ZM251 520Z" glyph-name="imacron.sc" horiz-adv-x="279" /><glyph d="M593 375C641 375 672 345 672 298C672 228 619 165 560 165C502 165 476 216 453 286C425 370 388 465 269 465C145 465 38 351 38 218C38 133 91 75 179 75C273 75 359 134 425 221L357 251C324 210 263 166 215 166C166 166 136 195 136 243C136 315 187 375 247 375C306 375 327 323 354 255C388 170 420 75 538 75C663 75 770 189 770 322C770 407 717 465 628 465C534 465 455 411 382 319L451 289C488 336 542 375 593 375Z" glyph-name="infinity" horiz-adv-x="795" unicode="&#8734;" /><glyph d="M609 450C657 450 688 420 688 373C688 303 635 240 576 240C518 240 492 291 469 361C441 445 404 540 285 540C161 540 54 426 54 293C54 208 107 150 195 150C289 150 375 209 441 296L373 326C340 285 279 241 231 241C182 241 152 270 152 318C152 390 203 450 263 450C322 450 343 398 370 330C404 245 436 150 554 150C679 150 786 264 786 397C786 482 733 540 644 540C550 540 471 486 398 394L467 364C504 411 558 450 609 450Z" glyph-name="infinity.lf" horiz-adv-x="795" /><glyph d="M609 450C657 450 688 420 688 373C688 303 635 240 576 240C518 240 492 291 469 361C441 445 404 540 285 540C161 540 54 426 54 293C54 208 107 150 195 150C289 150 375 209 441 296L373 326C340 285 279 241 231 241C182 241 152 270 152 318C152 390 203 450 263 450C322 450 343 398 370 330C404 245 436 150 554 150C679 150 786 264 786 397C786 482 733 540 644 540C550 540 471 486 398 394L467 364C504 411 558 450 609 450Z" glyph-name="infinity.osf" horiz-adv-x="795" /><glyph d="M593 375C641 375 672 345 672 298C672 228 619 165 560 165C502 165 476 216 453 286C425 370 388 465 269 465C145 465 38 351 38 218C38 133 91 75 179 75C273 75 359 134 425 221L357 251C324 210 263 166 215 166C166 166 136 195 136 243C136 315 187 375 247 375C306 375 327 323 354 255C388 170 420 75 538 75C663 75 770 189 770 322C770 407 717 465 628 465C534 465 455 411 382 319L451 289C488 336 542 375 593 375Z" glyph-name="infinity.sc" horiz-adv-x="795" /><glyph d="M69 -260C195 -260 286 -192 318 -42C330 12 334 93 343 264C357 527 343 645 419 645C449 645 486 630 526 603L564 735C519 754 470 760 428 760C185 760 175 554 159 236C152 93 147 -12 133 -76C123 -121 107 -145 80 -145C56 -145 11 -130 -25 -103L-63 -235C-18 -254 32 -260 69 -260Z" glyph-name="integral" horiz-adv-x="501" unicode="&#8747;" /><glyph d="M208 0 178 30C37 -20 -36 -101 -36 -169C-36 -217 2 -250 66 -250C124 -250 183 -221 224 -182L217 -136C189 -150 167 -156 151 -156C128 -156 120 -145 120 -131C120 -94 153 -46 208 0ZM208 0C208 161 282 376 282 510L93 500L85 359L65 267C42 161 28 72 28 0ZM284 10ZM163 0ZM180 500ZM324 699C324 743 294 769 250 769C181 769 107 706 107 640C107 598 137 569 185 569C256 569 324 633 324 699ZM237 769ZM180 500ZM112 0ZM284 10Z" glyph-name="iogonek" horiz-adv-x="301" unicode="&#303;" /><glyph d="M230 0 204 20C46 -27 -36 -93 -36 -169C-36 -217 2 -250 66 -250C124 -250 183 -221 224 -182L217 -136C189 -150 167 -156 151 -156C128 -156 120 -145 120 -131C120 -94 162 -46 230 0ZM230 0 342 529 326 548 156 540C151 482 142 436 132 386L50 0ZM267 10ZM140 0ZM251 520ZM267 10Z" glyph-name="iogonek.sc" horiz-adv-x="279" /><glyph d="M208 0C208 161 282 376 282 510L93 500L85 359L65 267C42 161 28 72 28 0ZM284 10ZM163 0ZM180 500ZM167 763C92 763 48 674 31 592L74 585C95 616 110 628 129 628C168 628 213 571 268 571C335 571 382 658 400 742L357 749C338 722 323 706 300 706C255 706 228 763 167 763ZM236 763ZM180 500Z" glyph-name="itilde" horiz-adv-x="301" unicode="&#297;" /><glyph d="M230 0 342 529 326 548 156 540C151 482 142 436 132 386L50 0ZM267 10ZM140 0ZM251 520ZM238 783C163 783 119 694 102 612L145 605C166 636 181 648 200 648C239 648 284 591 339 591C406 591 453 678 471 762L428 769C409 742 394 726 371 726C326 726 299 783 238 783ZM307 783ZM251 520Z" glyph-name="itilde.sc" horiz-adv-x="279" /><glyph d="M-29 -250C123 -169 168 -64 206 118C233 249 274 428 274 510L85 500L77 359L14 60C-6 -37 -32 -107 -86 -190ZM175 500ZM147 0ZM319 699C319 743 289 769 245 769C176 769 102 706 102 640C102 598 132 569 180 569C251 569 319 633 319 699ZM232 769ZM175 500Z" glyph-name="j" horiz-adv-x="288" unicode="j" /><glyph d="M-40 -266C86 -201 121 -115 152 31C171 121 204 264 204 330L46 322L41 212L-8 -17C-25 -95 -44 -148 -88 -217ZM236 474C236 511 210 533 173 533C118 533 56 483 56 428C56 393 82 369 122 369C180 369 236 421 236 474Z" glyph-name="j.inferior" horiz-adv-x="249" /><glyph d="M5 -162C178 -90 226 -16 256 128L341 530L327 548L147 531C147 478 141 433 131 386L76 128C56 34 27 -37 -32 -106ZM236 520ZM140 0Z" glyph-name="j.sc" horiz-adv-x="279" /><glyph d="M36 94C162 159 197 245 228 391C247 481 280 624 280 690L122 682L117 572L68 343C51 265 32 212 -12 143ZM312 834C312 871 286 893 249 893C194 893 132 843 132 788C132 753 158 729 198 729C256 729 312 781 312 834Z" glyph-name="j.superior" horiz-adv-x="248" /><glyph d="M-29 -250C123 -169 168 -64 206 118C233 249 274 428 274 510L85 500L77 359L14 60C-6 -37 -32 -107 -86 -190ZM175 500ZM147 0ZM96 566C152 599 204 638 252 682H209C238 638 273 598 315 566L384 590C360 650 346 706 332 771L163 761C126 704 87 648 37 590ZM232 771ZM175 500Z" glyph-name="jcircumflex" horiz-adv-x="288" unicode="&#309;" /><glyph d="M5 -162C178 -90 226 -16 256 128L341 530L327 548L147 531C147 478 141 433 131 386L76 128C56 34 27 -37 -32 -106ZM236 520ZM140 0ZM157 586C213 619 265 658 313 702H270C299 658 334 618 376 586L445 610C421 670 407 726 393 791L224 781C187 724 148 668 98 610ZM293 791ZM236 520Z" glyph-name="jcircumflex.sc" horiz-adv-x="279" /><glyph d="M208 0C208 193 335 573 335 760L146 750L138 609L89 380C42 161 28 72 28 0ZM582 411C582 468 542 510 471 510C399 510 328 468 274 381H186L178 157L208 0C212 194 307 395 376 395C392 395 402 384 402 364C402 327 371 270 278 189C289 121 311 54 335 0H558C509 75 474 153 443 229C506 263 582 332 582 411ZM349 500ZM263 0Z" glyph-name="k" horiz-adv-x="586" unicode="k" /><glyph d="M150 -68C148 81 249 380 248 525L90 517L85 407L47 228C8 44 0 -12 0 -68ZM454 250C454 296 422 330 366 330C306 330 239 289 201 236H128L124 59L150 -68C152 84 228 235 283 235C296 235 304 226 304 211C304 187 281 142 205 77C216 17 235 -30 252 -68H438C397 -8 368 55 342 112C412 147 454 199 454 250ZM261 322ZM178 -68Z" glyph-name="k.inferior" horiz-adv-x="490" /><glyph d="M132 386 50 0H230L269 184H312C326 121 343 56 364 -3L575 0L467 323L463 267L665 523L660 540L489 548C436 458 375 363 338 304H295L342 529L327 548L156 540C151 484 141 434 132 386ZM397 500ZM291 0Z" glyph-name="k.sc" horiz-adv-x="581" /><glyph d="M226 292C224 441 325 740 324 885L166 877L161 767L123 588C84 404 76 348 76 292ZM530 610C530 656 498 690 442 690C382 690 315 649 277 596H204L200 419L226 292C228 444 304 595 359 595C372 595 380 586 380 571C380 547 357 502 281 437C292 377 311 330 328 292H514C473 352 444 415 418 472C488 507 530 559 530 610ZM337 682ZM254 292Z" glyph-name="k.superior" horiz-adv-x="489" /><glyph d="M208 0C208 193 335 573 335 760L146 750L138 609L89 380C42 161 28 72 28 0ZM582 411C582 468 542 510 471 510C399 510 328 468 274 381H186L178 157L208 0C212 194 307 395 376 395C392 395 402 384 402 364C402 327 371 270 278 189C289 121 311 54 335 0H558C509 75 474 153 443 229C506 263 582 332 582 411ZM349 500ZM263 0ZM124 -323 134 -334C229 -300 322 -192 322 -112C322 -71 296 -46 252 -46C197 -46 146 -98 146 -152C146 -187 172 -213 214 -213L206 -176C195 -231 155 -289 124 -323ZM263 0ZM192 -334Z" glyph-name="kcommaaccent" horiz-adv-x="586" unicode="&#311;" /><glyph d="M132 386 50 0H230L269 184H312C326 121 343 56 364 -3L575 0L467 323L463 267L665 523L660 540L489 548C436 458 375 363 338 304H295L342 529L327 548L156 540C151 484 141 434 132 386ZM397 500ZM291 0ZM152 -323 162 -334C257 -300 350 -192 350 -112C350 -71 324 -46 280 -46C225 -46 174 -98 174 -152C174 -187 200 -213 242 -213L234 -176C223 -231 183 -289 152 -323ZM291 0ZM220 -334Z" glyph-name="kcommaaccent.sc" horiz-adv-x="581" /><glyph d="M208 0C211 161 229 281 271 381C277 429 282 476 282 510L93 500L85 359C42 170 28 76 28 0ZM582 411C582 468 542 510 471 510C399 510 328 468 274 381H186L178 157L208 0C212 194 307 395 376 395C392 395 402 384 402 364C402 327 371 270 278 189C289 121 311 54 335 0H558C509 75 474 153 443 229C506 263 582 332 582 411Z" glyph-name="kgreenlandic" horiz-adv-x="586" unicode="&#312;" /><glyph d="M132 386 50 0H230L269 184H312C326 121 343 56 364 -3L575 0L467 323L463 267L665 523L660 540L489 548C436 458 375 363 338 304H295L342 529L327 548L156 540C151 484 141 434 132 386ZM397 500ZM291 0Z" glyph-name="kgreenlandic.sc" horiz-adv-x="581" /><glyph d="M208 0C208 193 335 573 335 760L146 750L138 609L89 380C42 161 28 72 28 0ZM128 0ZM228 748ZM461 515ZM190 420Z" glyph-name="l" horiz-adv-x="298" unicode="l" /><glyph d="M150 -68C148 81 249 380 248 525L90 517L85 407L47 228C8 44 0 -12 0 -68ZM59 -68ZM159 505ZM354 335ZM130 254Z" glyph-name="l.inferior" horiz-adv-x="253" /><glyph d="M230 0 342 529 326 548 156 540C151 482 142 436 132 386L50 0ZM471 129 253 120 230 0H444ZM225 0ZM336 520ZM452 330ZM215 274Z" glyph-name="l.sc" horiz-adv-x="460" /><glyph d="M226 292C224 441 325 740 324 885L166 877L161 767L123 588C84 404 76 348 76 292ZM135 292ZM235 865ZM430 695ZM206 614Z" glyph-name="l.superior" horiz-adv-x="252" /><glyph d="M208 0C208 193 335 573 335 760L146 750L138 609L89 380C42 161 28 72 28 0ZM128 0ZM228 748ZM461 515ZM190 420ZM393 887 303 969C246 914 178 861 114 817L132 770C217 788 302 818 385 855ZM275 969ZM228 748Z" glyph-name="lacute" horiz-adv-x="298" unicode="&#314;" /><glyph d="M230 0 342 529 326 548 156 540C151 482 142 436 132 386L50 0ZM471 129 253 120 230 0H444ZM225 0ZM336 520ZM452 330ZM215 274ZM497 781 339 789C312 723 278 656 241 591L309 581C381 629 445 685 501 751ZM393 789ZM336 520Z" glyph-name="lacute.sc" horiz-adv-x="460" /><glyph d="M208 0C208 193 335 573 335 760L146 750L138 609L89 380C42 161 28 72 28 0ZM128 0ZM228 748ZM461 515ZM190 420ZM569 784H432C406 704 378 624 349 544H408C461 601 517 666 573 754ZM461 515Z" glyph-name="lcaron" horiz-adv-x="298" unicode="&#318;" /><glyph d="M230 0 342 529 326 548 156 540C151 482 142 436 132 386L50 0ZM471 129 253 120 230 0H444ZM225 0ZM336 520ZM452 330ZM215 274ZM560 599H423C397 519 369 439 340 359H399C452 416 508 481 564 569ZM452 330Z" glyph-name="lcaron.sc" horiz-adv-x="460" /><glyph d="M208 0C208 193 335 573 335 760L146 750L138 609L89 380C42 161 28 72 28 0ZM128 0ZM228 748ZM461 515ZM190 420ZM-11 -323 -1 -334C94 -300 187 -192 187 -112C187 -71 161 -46 117 -46C62 -46 11 -98 11 -152C11 -187 37 -213 79 -213L71 -176C60 -231 20 -289 -11 -323ZM128 0ZM57 -334Z" glyph-name="lcommaaccent" horiz-adv-x="298" unicode="&#316;" /><glyph d="M230 0 342 529 326 548 156 540C151 482 142 436 132 386L50 0ZM471 129 253 120 230 0H444ZM225 0ZM336 520ZM452 330ZM215 274ZM86 -323 96 -334C191 -300 284 -192 284 -112C284 -71 258 -46 214 -46C159 -46 108 -98 108 -152C108 -187 134 -213 176 -213L168 -176C157 -231 117 -289 86 -323ZM225 0ZM154 -334Z" glyph-name="lcommaaccent.sc" horiz-adv-x="460" /><glyph d="M208 0C208 193 335 573 335 760L146 750L138 609L89 380C42 161 28 72 28 0ZM128 0ZM228 748ZM461 515ZM190 420ZM555 355C555 397 525 424 480 424C408 424 336 358 336 292C336 252 365 221 415 221C487 221 555 287 555 355Z" glyph-name="ldot" horiz-adv-x="572" unicode="&#320;" /><glyph d="M230 0 342 529 326 548 156 540C151 482 142 436 132 386L50 0ZM471 129 253 120 230 0H444ZM225 0ZM336 520ZM452 330ZM215 274ZM576 363C576 407 546 433 502 433C433 433 359 370 359 304C359 262 389 233 437 233C508 233 576 297 576 363ZM489 433ZM432 164Z" glyph-name="ldot.sc" horiz-adv-x="600" /><glyph d="M594 516 95 308 80 239 82 228C169 177 394 59 487 18L507 113L221 265L574 421Z" glyph-name="less" horiz-adv-x="621" unicode="&lt;" /><glyph d="M610 593 111 385 96 316 98 305C185 254 410 136 503 95L523 190L237 342L590 498Z" glyph-name="less.lf" horiz-adv-x="620" /><glyph d="M610 593 111 385 96 316 98 305C185 254 410 136 503 95L523 190L237 342L590 498Z" glyph-name="less.osf" horiz-adv-x="620" /><glyph d="M594 516 95 308 80 239 82 228C169 177 394 59 487 18L507 113L221 265L574 421Z" glyph-name="less.sc" horiz-adv-x="600" /><glyph d="M253 356 588 469 607 559C498 524 210 425 113 391L105 380L93 325L520 148L540 238ZM476 0 503 82 497 90C391 90 147 88 44 85L26 0Z" glyph-name="lessequal" horiz-adv-x="620" unicode="&#8804;" /><glyph d="M270 436 605 549 624 639C515 604 227 505 130 471L122 460L110 405L537 228L557 318ZM493 80 520 162 514 170C408 170 164 168 61 165L43 80Z" glyph-name="lessequal.lf" horiz-adv-x="620" /><glyph d="M270 436 605 549 624 639C515 604 227 505 130 471L122 460L110 405L537 228L557 318ZM493 80 520 162 514 170C408 170 164 168 61 165L43 80Z" glyph-name="lessequal.osf" horiz-adv-x="620" /><glyph d="M253 356 588 469 607 559C498 524 210 425 113 391L105 380L93 325L520 148L540 238ZM476 0 503 82 497 90C391 90 147 88 44 85L26 0Z" glyph-name="lessequal.sc" horiz-adv-x="620" /><glyph d="M558 339 552 347C446 347 202 345 99 342L81 257H451L415 86H505Z" glyph-name="logicalnot" horiz-adv-x="620" unicode="&#172;" /><glyph d="M574 415 568 423C462 423 218 421 115 418L97 333H467L431 162H521Z" glyph-name="logicalnot.lf" horiz-adv-x="620" /><glyph d="M574 415 568 423C462 423 218 421 115 418L97 333H467L431 162H521Z" glyph-name="logicalnot.osf" horiz-adv-x="620" /><glyph d="M558 339 552 347C446 347 202 345 99 342L81 257H451L415 86H505Z" glyph-name="logicalnot.sc" horiz-adv-x="620" /><glyph d="M1065 110H942L777 398L712 291L879 0H1003ZM653 690 715 581 549 291H673L839 581L777 690ZM363 37 424 148H755L693 254H363L300 148ZM1150 254H1025L859 545L797 435L963 148H1088ZM487 690 549 581 382 291H506L673 581L611 690ZM444 -107 506 0H839L777 110H444L382 0ZM1516 0H1272V277C1272 317 1272 350 1266 381L1361 387L1372 375V74L1516 76ZM1708 -5C1700 6 1697 20 1691 31H1688C1674 11 1644 -5 1610 -5C1567 -5 1536 17 1536 62C1536 124 1596 151 1680 154V169C1680 179 1680 209 1637 209C1613 209 1581 200 1553 186L1550 263C1576 271 1624 282 1667 282C1745 282 1782 246 1782 169C1782 151 1780 104 1780 75C1780 45 1782 17 1791 0ZM1680 124C1656 122 1633 107 1633 79C1633 62 1644 51 1661 51C1670 51 1674 54 1680 57ZM1892 99C1921 82 1971 74 2000 74C2028 74 2041 82 2041 102C2041 136 2003 148 1963 167C1925 185 1889 212 1889 271C1889 345 1952 387 2037 387C2077 387 2113 378 2132 373L2121 285C2096 299 2064 309 2038 309C2008 309 1994 296 1994 277C1994 248 2026 236 2066 215C2106 194 2146 169 2146 109C2146 34 2084 -5 1997 -5C1958 -5 1906 3 1886 17ZM2341 -5C2335 6 2330 20 2327 31H2324C2307 11 2279 -5 2244 -5C2202 -5 2169 17 2169 63C2169 124 2227 151 2316 154V169C2316 195 2302 209 2271 209C2245 209 2213 200 2189 186L2183 263C2211 271 2255 282 2299 282C2378 282 2414 246 2414 169C2414 151 2412 100 2412 79C2412 46 2417 17 2423 0ZM2316 124C2287 122 2265 107 2265 79C2265 62 2276 51 2293 51C2302 51 2310 54 2316 57ZM2460 409 2555 418 2568 406V0H2468V312C2468 345 2465 373 2460 409ZM2615 409 2711 418 2723 406V0H2623V312C2623 345 2620 373 2615 409ZM3018 136 3010 127H2863C2871 82 2898 65 2939 65C2962 65 2984 71 3001 79L3007 17C2990 6 2956 -5 2912 -5C2821 -5 2759 45 2759 133C2759 220 2821 282 2901 282C2973 282 3018 232 3018 164C3018 156 3018 145 3018 136ZM2920 162C2923 167 2923 172 2923 181C2923 204 2918 226 2896 226C2872 226 2860 199 2860 159ZM1309 687V562C1309 533 1322 517 1344 517C1367 517 1381 533 1381 562V647C1381 661 1381 673 1378 687L1418 690V559C1418 515 1384 492 1341 492C1303 492 1272 515 1272 559V639C1272 656 1272 670 1269 687L1303 690ZM1610 495H1577V584C1577 603 1570 610 1556 610C1545 610 1533 606 1525 600V495H1492V584C1492 601 1491 613 1487 630L1516 636C1519 632 1523 623 1525 615C1536 628 1553 636 1570 636C1593 636 1610 621 1610 593ZM1777 633 1814 636 1833 564C1838 545 1841 530 1843 517C1845 531 1850 545 1855 564L1875 636L1903 633V630L1858 492H1822ZM1983 559C1983 528 2000 515 2022 515C2035 515 2047 520 2058 526L2061 503C2052 498 2035 492 2014 492C1971 492 1946 515 1946 562C1946 607 1974 636 2011 636C2044 636 2064 612 2064 579C2064 573 2064 567 2064 564L2058 559ZM2031 573C2031 576 2031 579 2031 584C2031 601 2022 615 2008 615C1994 615 1983 598 1980 573ZM2212 598C2207 598 2203 601 2196 601C2188 601 2174 598 2165 590V495H2132V584C2132 601 2132 612 2127 630L2157 636C2160 630 2164 618 2166 607C2175 624 2188 636 2202 636C2207 636 2212 635 2215 633ZM2297 597C2297 568 2361 574 2361 531C2361 506 2341 492 2304 492C2290 492 2271 495 2259 501L2262 528C2279 518 2297 516 2306 516C2320 516 2326 521 2326 529C2326 554 2262 550 2262 593C2262 618 2282 636 2317 636C2331 636 2344 633 2358 627L2355 601C2341 608 2327 612 2316 612C2304 612 2297 606 2297 597ZM2458 636 2461 633V495H2428V584C2428 601 2428 615 2425 633ZM2792 559C2770 556 2754 547 2754 531C2754 520 2759 512 2770 512C2777 512 2787 515 2792 520ZM2795 509C2788 501 2771 492 2752 492C2731 492 2716 504 2716 525C2716 557 2752 570 2792 570V584C2792 601 2784 610 2767 610C2754 610 2740 604 2726 595L2723 624C2737 630 2756 636 2776 636C2809 636 2829 619 2829 587C2829 574 2826 545 2826 531C2826 517 2829 506 2835 495L2804 492C2801 495 2798 501 2795 509ZM2422 684C2422 698 2430 708 2444 708C2456 708 2464 700 2464 688C2464 674 2456 664 2442 664C2429 664 2422 673 2422 684ZM2996 492C2993 495 2990 501 2987 509C2978 498 2965 492 2948 492C2917 492 2894 517 2894 559C2894 607 2926 636 2967 636C2975 636 2981 635 2985 634V656C2985 673 2984 687 2982 704L3016 706L3018 704V531C3018 517 3021 506 3027 495ZM2985 613C2979 615 2976 615 2972 615C2945 615 2932 598 2932 562C2932 531 2942 512 2962 512C2973 512 2979 515 2985 520ZM2629 492C2626 495 2623 501 2620 509C2611 498 2598 492 2581 492C2550 492 2527 517 2527 559C2527 607 2559 636 2600 636C2608 636 2614 635 2618 634V656C2618 673 2617 687 2615 704L2649 706L2651 704V531C2651 517 2654 506 2660 495ZM2618 613C2612 615 2609 615 2605 615C2578 615 2565 598 2565 562C2565 531 2575 512 2595 512C2606 512 2612 515 2618 520ZM1713 636 1716 633V495H1683V584C1683 601 1683 615 1680 633ZM1677 684C1677 698 1685 708 1699 708C1711 708 1719 700 1719 688C1719 674 1711 664 1697 664C1684 664 1677 673 1677 684Z" glyph-name="logo1" horiz-adv-x="3327" /></font>
</defs>
</svg>
