<?xml version="1.0" standalone="no"?><!DOCTYPE svg PUBLIC "-//W3C//DTD SVG 1.1//EN" "http://www.w3.org/Graphics/SVG/1.1/DTD/svg11.dtd" ><svg version="1.1" xmlns="http://www.w3.org/2000/svg"><defs><font horiz-adv-x="0" id="font"><font-face ascent="748" bbox="-110.5716 -342.8574 3477 1172.3577" cap-height="688" descent="-248" font-family="Indivisa Text Serif" font-stretch="normal" font-style="normal" font-weight="700" units-per-em="1000" x-height="498" /><missing-glyph d="M100 0H580V748.0358H100ZM140 40V708.0358H540V40ZM513 727.0358 122 23H167L558 727.0358ZM122 727.0358 513 23H558L167 727.0358Z" horiz-adv-x="680" /><glyph d="M316.6782 688.0358 102.9283 83.5716C95.9283 62.5716 85.714 51.3573 69.1783 43.3216C61.2854 37.8572 29.5714 28.5001 17.4284 23.0358L19.4284 0H217.5712L219.5712 23.0358L115.3212 56.9644L132.607 24.7857L323.9996 588.2852H302.3209L484.0349 47.5001L404.7136 23.0358L406.7136 0H694.6073L696.6073 23.0358L655.6075 37.8572C633.1789 47.3216 620.9289 55.7144 611.1074 84.1787L397.3575 688.0358ZM183.3924 260.714V216.9996L438.2495 220.3924V259.4997ZM356.0358 688.0358ZM694.6073 0ZM315.7853 0Z" glyph-name="A" horiz-adv-x="714.0358" unicode="A" /><glyph d="M226.7498 362.6429V318.9285L465.8927 322.3213V361.4286ZM562.0363 0H853.2505C857.8576 29.4643 861.0719 58.7857 861.0719 99.7144C861.0719 142.5003 857.6433 177.6076 850.7861 210.5362H826.6789L795.1073 130.3575C784.7857 108.5001 766.5714 62.3218 756.857 49.5716C734.107 46.5716 701.8572 45.1788 674.2145 45.1788H562.0363ZM562.0363 688.0358V642.857H664.2145C691.8572 642.857 724.107 641.0713 746.857 638.4642C756.5714 625.714 774.7857 579.5357 785.1073 557.6783L816.6789 477.4995H840.7861C847.6433 511.6067 851.0719 545.5354 851.0719 588.3214C851.0719 629.25 847.8576 658.5714 843.2505 688.0358ZM562.0363 363.0358V320.8927L755.9289 313.2498L758.5361 371.0715ZM19.4284 0H217.5712L219.5712 23.0358L115.3212 56.9644L132.607 24.7857L346.5355 656.7142L321.4282 642.857H433.2139V106.0356H562.0363V688.0358H220.8925L218.8925 665L297.8211 635.0713L102.9283 83.5716C95.9283 62.5716 85.714 51.3573 69.1783 43.3216C61.2854 37.8572 29.5714 28.5001 17.4284 23.0358ZM562.0363 0V106.0356H433.2139V83.6431C433.2139 57.9644 422.7495 48.3216 395.2852 37.2501L354.2854 23.0358L356.2854 0ZM530.7857 688.0358Z" glyph-name="AE" horiz-adv-x="910.5003" unicode="&#198;" /><glyph d="M226.7498 362.6429V318.9285L465.8927 322.3213V361.4286ZM562.0363 0H853.2505C857.8576 29.4643 861.0719 58.7857 861.0719 99.7144C861.0719 142.5003 857.6433 177.6076 850.7861 210.5362H826.6789L795.1073 130.3575C784.7857 108.5001 766.5714 62.3218 756.857 49.5716C734.107 46.5716 701.8572 45.1788 674.2145 45.1788H562.0363ZM562.0363 688.0358V642.857H664.2145C691.8572 642.857 724.107 641.0713 746.857 638.4642C756.5714 625.714 774.7857 579.5357 785.1073 557.6783L816.6789 477.4995H840.7861C847.6433 511.6067 851.0719 545.5354 851.0719 588.3214C851.0719 629.25 847.8576 658.5714 843.2505 688.0358ZM562.0363 363.0358V320.8927L755.9289 313.2498L758.5361 371.0715ZM19.4284 0H217.5712L219.5712 23.0358L115.3212 56.9644L132.607 24.7857L346.5355 656.7142L321.4282 642.857H433.2139V106.0356H562.0363V688.0358H220.8925L218.8925 665L297.8211 635.0713L102.9283 83.5716C95.9283 62.5716 85.714 51.3573 69.1783 43.3216C61.2854 37.8572 29.5714 28.5001 17.4284 23.0358ZM562.0363 0V106.0356H433.2139V83.6431C433.2139 57.9644 422.7495 48.3216 395.2852 37.2501L354.2854 23.0358L356.2854 0ZM530.7857 688.0358ZM612.8927 922.7146C568.6784 885.6431 488.1069 829.893 398.2141 790.9642L403.9998 773.1428C523.429 775.8927 679.1432 801.6783 679.1432 867.9642C679.1432 891.893 652.1073 914.4646 623.5357 924.3217ZM530.7857 688.0358ZM510.7497 880.8574Z" glyph-name="AEacute" horiz-adv-x="910.5003" unicode="&#508;" /><glyph d="M316.6782 688.0358 102.9283 83.5716C95.9283 62.5716 85.714 51.3573 69.1783 43.3216C61.2854 37.8572 29.5714 28.5001 17.4284 23.0358L19.4284 0H217.5712L219.5712 23.0358L115.3212 56.9644L132.607 24.7857L323.9996 588.2852H302.3209L484.0349 47.5001L404.7136 23.0358L406.7136 0H694.6073L696.6073 23.0358L655.6075 37.8572C633.1789 47.3216 620.9289 55.7144 611.1074 84.1787L397.3575 688.0358ZM183.3924 260.714V216.9996L438.2495 220.3924V259.4997ZM356.0358 688.0358ZM694.6073 0ZM315.7853 0ZM438.1428 922.7146C393.9285 885.6431 313.3569 829.893 223.4641 790.9642L229.2498 773.1428C348.679 775.8927 504.3932 801.6783 504.3932 867.9642C504.3932 891.893 477.3573 914.4646 448.7857 924.3217ZM356.0358 688.0358ZM335.9998 880.8574Z" glyph-name="Aacute" horiz-adv-x="714.0358" unicode="&#193;" /><glyph d="M316.6782 688.0358 102.9283 83.5716C95.9283 62.5716 85.714 51.3573 69.1783 43.3216C61.2854 37.8572 29.5714 28.5001 17.4284 23.0358L19.4284 0H217.5712L219.5712 23.0358L115.3212 56.9644L132.607 24.7857L323.9996 588.2852H302.3209L484.0349 47.5001L404.7136 23.0358L406.7136 0H694.6073L696.6073 23.0358L655.6075 37.8572C633.1789 47.3216 620.9289 55.7144 611.1074 84.1787L397.3575 688.0358ZM183.3924 260.714V216.9996L438.2495 220.3924V259.4997ZM356.0358 688.0358ZM694.6073 0ZM315.7853 0ZM469.1788 918.3575C454.3931 882.5718 411.3216 860.7861 355.6072 860.7861C296.1071 860.7861 253.857 883.7861 241.8928 920.9647L221.2499 916.7504C228.607 832.1073 278.4642 781.3571 350 781.3571C424.3573 781.3571 477.6431 830.893 490.8216 915.5361L473.7859 920.3575ZM356.0358 688.0358Z" glyph-name="Abreve" horiz-adv-x="714.0358" unicode="&#258;" /><glyph d="M316.6782 688.0358 102.9283 83.5716C95.9283 62.5716 85.714 51.3573 69.1783 43.3216C61.2854 37.8572 29.5714 28.5001 17.4284 23.0358L19.4284 0H217.5712L219.5712 23.0358L115.3212 56.9644L132.607 24.7857L323.9996 588.2852H302.3209L484.0349 47.5001L404.7136 23.0358L406.7136 0H694.6073L696.6073 23.0358L655.6075 37.8572C633.1789 47.3216 620.9289 55.7144 611.1074 84.1787L397.3575 688.0358ZM183.3924 260.714V216.9996L438.2495 220.3924V259.4997ZM356.0358 688.0358ZM694.6073 0ZM315.7853 0ZM326.2141 836.8219 389.8574 837.6076C330.3573 863.1432 264.5714 898.286 210.9998 928.0717L195.7855 917.4646C229.0711 871.286 273.8568 817.0002 314.7855 771.6072H387.0002L396.0359 778.0358C420.9289 811.9645 471.2502 868.143 515.8931 914.8574L502.6789 928.0717C440.4643 899.6789 368.4286 859.429 326.2141 836.8219ZM356.0358 688.0358Z" glyph-name="Acaron" horiz-adv-x="714.0358" unicode="&#461;" /><glyph d="M316.6782 688.0358 102.9283 83.5716C95.9283 62.5716 85.714 51.3573 69.1783 43.3216C61.2854 37.8572 29.5714 28.5001 17.4284 23.0358L19.4284 0H217.5712L219.5712 23.0358L115.3212 56.9644L132.607 24.7857L323.9996 588.2852H302.3209L484.0349 47.5001L404.7136 23.0358L406.7136 0H694.6073L696.6073 23.0358L655.6075 37.8572C633.1789 47.3216 620.9289 55.7144 611.1074 84.1787L397.3575 688.0358ZM183.3924 260.714V216.9996L438.2495 220.3924V259.4997ZM356.0358 688.0358ZM694.6073 0ZM315.7853 0ZM386.0717 862.857 322.4284 862.0713C381.9285 836.5357 447.7144 801.3928 501.286 771.6072L516.5003 782.2143C483.2147 828.3928 438.429 882.6786 397.5003 928.0717H325.2856L316.2498 921.6431C291.3569 887.7144 241.0356 831.5358 196.3927 784.8215L209.6069 771.6072C271.8214 800 343.8572 840.2499 386.0717 862.857ZM356.0358 688.0358Z" glyph-name="Acircumflex" horiz-adv-x="714.0358" unicode="&#194;" /><glyph d="M316.6782 688.0358 102.9283 83.5716C95.9283 62.5716 85.714 51.3573 69.1783 43.3216C61.2854 37.8572 29.5714 28.5001 17.4284 23.0358L19.4284 0H217.5712L219.5712 23.0358L115.3212 56.9644L132.607 24.7857L323.9996 588.2852H302.3209L484.0349 47.5001L404.7136 23.0358L406.7136 0H694.6073L696.6073 23.0358L655.6075 37.8572C633.1789 47.3216 620.9289 55.7144 611.1074 84.1787L397.3575 688.0358ZM183.3924 260.714V216.9996L438.2495 220.3924V259.4997ZM356.0358 688.0358ZM694.6073 0ZM315.7853 0ZM536.3935 857.2145C536.3935 891.3575 510.0361 915.2505 474.286 915.2505C430.8572 915.2505 396.6427 881.7146 396.6427 842.3216C396.6427 810 422.1785 783.4999 460.3573 783.4999C505.5718 783.4999 536.3935 816.6072 536.3935 857.2145ZM315.4288 857.2145C315.4288 891.3575 289.0715 915.2505 253.3213 915.2505C209.8925 915.2505 175.678 881.7146 175.678 842.3216C175.678 810 201.2139 783.4999 239.3927 783.4999C284.6071 783.4999 315.4288 816.6072 315.4288 857.2145ZM356.0358 688.0358ZM353.6071 932.3217Z" glyph-name="Adieresis" horiz-adv-x="714.0358" unicode="&#196;" /><glyph d="M316.6782 688.0358 102.9283 83.5716C95.9283 62.5716 85.714 51.3573 69.1783 43.3216C61.2854 37.8572 29.5714 28.5001 17.4284 23.0358L19.4284 0H217.5712L219.5712 23.0358L115.3212 56.9644L132.607 24.7857L323.9996 588.2852H302.3209L484.0349 47.5001L404.7136 23.0358L406.7136 0H694.6073L696.6073 23.0358L655.6075 37.8572C633.1789 47.3216 620.9289 55.7144 611.1074 84.1787L397.3575 688.0358ZM183.3924 260.714V216.9996L438.2495 220.3924V259.4997ZM356.0358 688.0358ZM694.6073 0ZM315.7853 0ZM390.0358 -157.107C390.0358 -116.9283 362.2499 -89.821 325.0711 -89.821C278.9994 -89.821 241.5349 -127.9998 241.5349 -172.0358C241.5349 -210.6073 269.7136 -241.1432 309.9281 -241.1432C357.1784 -241.1432 390.0358 -203.7859 390.0358 -157.107ZM315.7853 0Z" glyph-name="Adotbelow" horiz-adv-x="714.0358" unicode="&#7840;" /><glyph d="M316.6782 688.0358 102.9283 83.5716C95.9283 62.5716 85.714 51.3573 69.1783 43.3216C61.2854 37.8572 29.5714 28.5001 17.4284 23.0358L19.4284 0H217.5712L219.5712 23.0358L115.3212 56.9644L132.607 24.7857L323.9996 588.2852H302.3209L484.0349 47.5001L404.7136 23.0358L406.7136 0H694.6073L696.6073 23.0358L655.6075 37.8572C633.1789 47.3216 620.9289 55.7144 611.1074 84.1787L397.3575 688.0358ZM183.3924 260.714V216.9996L438.2495 220.3924V259.4997ZM356.0358 688.0358ZM694.6073 0ZM315.7853 0ZM488.6073 791.3571C398.7146 830.2858 318.143 886.0359 273.9287 923.1074L263.2858 924.7146C234.7142 914.8574 207.6782 892.2858 207.6782 868.3571C207.6782 802.0711 363.3924 776.2856 482.8216 773.5357ZM356.0358 688.0358Z" glyph-name="Agrave" horiz-adv-x="714.0358" unicode="&#192;" /><glyph d="M316.6782 688.0358 102.9283 83.5716C95.9283 62.5716 85.714 51.3573 69.1783 43.3216C61.2854 37.8572 29.5714 28.5001 17.4284 23.0358L19.4284 0H217.5712L219.5712 23.0358L115.3212 56.9644L132.607 24.7857L323.9996 588.2852H302.3209L484.0349 47.5001L404.7136 23.0358L406.7136 0H694.6073L696.6073 23.0358L655.6075 37.8572C633.1789 47.3216 620.9289 55.7144 611.1074 84.1787L397.3575 688.0358ZM183.3924 260.714V216.9996L438.2495 220.3924V259.4997ZM356.0358 688.0358ZM694.6073 0ZM315.7853 0ZM199.2854 815.7857H512.7861V883.3217H199.2854ZM356.0358 688.0358Z" glyph-name="Amacron" horiz-adv-x="714.0358" unicode="&#256;" /><glyph d="M316.6782 688.0358 102.9283 83.5716C95.9283 62.5716 85.714 51.3573 69.1783 43.3216C61.2854 37.8572 29.5714 28.5001 17.4284 23.0358L19.4284 0H217.5712L219.5712 23.0358L115.3212 56.9644L132.607 24.7857L323.9996 588.2852H302.3209L484.0349 47.5001L404.7136 23.0358L406.7136 0H694.6073L696.6073 23.0358L655.6075 37.8572C633.1789 47.3216 620.9289 55.7144 611.1074 84.1787L397.3575 688.0358ZM183.3924 260.714V216.9996L438.2495 220.3924V259.4997ZM356.0358 688.0358ZM694.6073 0ZM315.7853 0ZM681.6072 -181.6071 677.6072 -169.5714C659.6429 -173.3571 647.25 -174.75 630.4643 -174.75C597.7144 -174.75 578.7502 -156.3571 578.7502 -125.7857C578.7502 -79.5357 619.6073 -31.4642 694.6073 0L688.2503 13.3571C552.7855 -16.6427 477.2495 -73.8928 477.2495 -150.7501C477.2495 -205.6431 514.9638 -241.1432 571.0711 -241.1432C616.4642 -241.1432 657.5714 -219.4288 681.6072 -181.6071ZM694.6073 0Z" glyph-name="Aogonek" horiz-adv-x="714.8215" unicode="&#260;" /><glyph d="M316.6782 688.0358 102.9283 83.5716C95.9283 62.5716 85.714 51.3573 69.1783 43.3216C61.2854 37.8572 29.5714 28.5001 17.4284 23.0358L19.4284 0H217.5712L219.5712 23.0358L115.3212 56.9644L132.607 24.7857L323.9996 588.2852H302.3209L484.0349 47.5001L404.7136 23.0358L406.7136 0H694.6073L696.6073 23.0358L655.6075 37.8572C633.1789 47.3216 620.9289 55.7144 611.1074 84.1787L397.3575 688.0358ZM183.3924 260.714V216.9996L438.2495 220.3924V259.4997ZM356.0358 688.0358ZM694.6073 0ZM315.7853 0ZM352.6429 766C413.4288 766 457.1432 804.8929 457.9289 857.6073C458.7146 906.1074 417.6073 940.5718 360.25 940.5718C298.4642 940.5718 254.7498 903.286 254.7498 849.5716C254.7498 799.4643 294.4642 766 352.6429 766ZM356.6429 907.8574C384.6787 907.8574 404.5001 885.8217 404.5001 856.7859C404.5001 823.7502 384.6787 798.7144 355.6429 798.7144C327.6072 798.7144 307.7857 820.7502 307.7857 850.7859C307.7857 882.8217 327.6072 907.8574 356.6429 907.8574ZM356.0358 688.0358ZM358.6787 932.3217Z" glyph-name="Aring" horiz-adv-x="714.0358" unicode="&#197;" /><glyph d="M316.6782 688.0358 102.9283 83.5716C95.9283 62.5716 85.714 51.3573 69.1783 43.3216C61.2854 37.8572 29.5714 28.5001 17.4284 23.0358L19.4284 0H217.5712L219.5712 23.0358L115.3212 56.9644L132.607 24.7857L323.9996 588.2852H302.3209L484.0349 47.5001L404.7136 23.0358L406.7136 0H694.6073L696.6073 23.0358L655.6075 37.8572C633.1789 47.3216 620.9289 55.7144 611.1074 84.1787L397.3575 688.0358ZM183.3924 260.714V216.9996L438.2495 220.3924V259.4997ZM356.0358 688.0358ZM694.6073 0ZM315.7853 0ZM352.6429 766C413.4288 766 457.1432 804.8929 457.9289 857.6073C458.7146 906.1074 417.6073 940.5718 360.25 940.5718C298.4642 940.5718 254.7498 903.286 254.7498 849.5716C254.7498 799.4643 294.4642 766 352.6429 766ZM356.6429 907.8574C384.6787 907.8574 404.5001 885.8217 404.5001 856.7859C404.5001 823.7502 384.6787 798.7144 355.6429 798.7144C327.6072 798.7144 307.7857 820.7502 307.7857 850.7859C307.7857 882.8217 327.6072 907.8574 356.6429 907.8574ZM356.0358 688.0358ZM358.6787 932.3217ZM440.7857 1167.0006C396.5714 1129.9291 315.9998 1074.1789 226.107 1035.2503L231.8927 1017.4288C351.322 1020.1788 507.0362 1045.9642 507.0362 1112.2503C507.0362 1136.1789 480.0002 1158.7505 451.4286 1168.6077ZM358.6787 932.3218ZM338.6427 1125.1434Z" glyph-name="Aringacute" horiz-adv-x="714.0358" unicode="&#506;" /><glyph d="M316.6782 688.0358 102.9283 83.5716C95.9283 62.5716 85.714 51.3573 69.1783 43.3216C61.2854 37.8572 29.5714 28.5001 17.4284 23.0358L19.4284 0H217.5712L219.5712 23.0358L115.3212 56.9644L132.607 24.7857L323.9996 588.2852H302.3209L484.0349 47.5001L404.7136 23.0358L406.7136 0H694.6073L696.6073 23.0358L655.6075 37.8572C633.1789 47.3216 620.9289 55.7144 611.1074 84.1787L397.3575 688.0358ZM183.3924 260.714V216.9996L438.2495 220.3924V259.4997ZM356.0358 688.0358ZM694.6073 0ZM315.7853 0ZM231.1428 838.4642C284.5716 826.1426 386.1426 776.3571 453.5356 776.3571C515.5716 776.3571 543.6789 829.143 548.3931 894.143C548.3931 903.8574 547.7859 910.5361 547.1788 917.8219L529.5358 923.8219C521.286 909.6793 486.0358 864.3575 480.9287 856.5005C426.3213 868.4292 327.1074 918.6076 258.5358 918.6076C196.8927 918.6076 167.6069 864.0002 162.8927 795.5716C162.8927 789.5001 163.4999 782.8215 164.1071 776.75L181.75 771.1428C189.6069 784.8926 226.8214 833.75 231.1428 838.4642ZM356.0358 688.0358ZM353.4286 930.0358Z" glyph-name="Atilde" horiz-adv-x="714.0358" unicode="&#195;" /><glyph d="M125.3569 582.0002V106.0356H254.1793V582.0002ZM254.1793 0V45.1788H330.0004C427.036 45.1788 490.3216 100.1787 490.3216 188.893C490.3216 274.5714 424.286 329.9642 322.1434 329.9642H254.1793V372.1073H321.0719C403.4645 372.1073 451.7859 425.7857 451.7859 511.5714C451.7859 595.4999 401.7146 642.857 317.1434 642.857H254.1793V688.0358H335.4649C486.4296 688.0358 576.7869 625.0358 576.7869 518.0358C576.7869 435.3573 526.2513 382.1073 448.9653 360.5001C560.3583 335.4644 621.7869 276.0715 621.7869 189.893C621.7869 66.8572 515.2153 0 357.3222 0ZM254.1793 0V106.0356H125.3569V83.6431C125.3569 57.9644 114.8925 48.3216 87.4282 37.2501L46.4284 23.0358L48.4284 0ZM254.1793 688.0358H48.4284L46.4284 665L114.7499 637.4284C123.3927 635.4642 125.3569 633.107 125.3569 625.6429V582.0002H254.1793Z" glyph-name="B" horiz-adv-x="663.2153" unicode="B" /><glyph d="M411.7502 -10C485.2502 -10 548.9647 0.3571 603.822 15.1428C609.8578 47.1073 612.2864 84.3217 612.2864 120.6791C612.2864 152.1791 609.6793 185.7863 604.465 210.5362H580.3577C551.7504 153.3575 521.3216 95.1787 488.4642 47.1073C470.1428 43.143 456.0358 40.1788 422.7146 40.1788C281.9293 40.1788 183.6795 157.9287 182.4651 338.1428C181.2509 522.9998 286.6435 647.2499 420.3575 647.2499C449.5716 647.2499 460 644.6784 479.7142 640.3214C507.7144 591.6427 534.5003 533.4639 562.5005 471.428L586.6078 472.6423C595.2506 511.4995 599.2864 561.0353 599.2864 593.4997C599.2864 622.4284 597.0721 647.1428 592.0363 666.8215C540.0004 687.6786 478.8574 698.0358 406.0002 698.0358C207.6071 698.0358 49.4284 560.3928 49.4284 338.1428C49.4284 113.6784 200.0002 -10 411.7502 -10ZM373.2502 688.0358ZM388.2145 0Z" glyph-name="C" horiz-adv-x="669.7148" unicode="C" /><glyph d="M411.7502 -10C485.2502 -10 548.9647 0.3571 603.822 15.1428C609.8578 47.1073 612.2864 84.3217 612.2864 120.6791C612.2864 152.1791 609.6793 185.7863 604.465 210.5362H580.3577C551.7504 153.3575 521.3216 95.1787 488.4642 47.1073C470.1428 43.143 456.0358 40.1788 422.7146 40.1788C281.9293 40.1788 183.6795 157.9287 182.4651 338.1428C181.2509 522.9998 286.6435 647.2499 420.3575 647.2499C449.5716 647.2499 460 644.6784 479.7142 640.3214C507.7144 591.6427 534.5003 533.4639 562.5005 471.428L586.6078 472.6423C595.2506 511.4995 599.2864 561.0353 599.2864 593.4997C599.2864 622.4284 597.0721 647.1428 592.0363 666.8215C540.0004 687.6786 478.8574 698.0358 406.0002 698.0358C207.6071 698.0358 49.4284 560.3928 49.4284 338.1428C49.4284 113.6784 200.0002 -10 411.7502 -10ZM373.2502 688.0358ZM388.2145 0ZM455.3573 922.7146C411.143 885.6431 330.5714 829.893 240.6787 790.9642L246.4644 773.1428C365.8936 775.8927 521.6078 801.6783 521.6078 867.9642C521.6078 891.893 494.5718 914.4646 466.0002 924.3217ZM373.2503 688.0358ZM353.2143 880.8574Z" glyph-name="Cacute" horiz-adv-x="669.7148" unicode="&#262;" /><glyph d="M411.7502 -10C485.2502 -10 548.9647 0.3571 603.822 15.1428C609.8578 47.1073 612.2864 84.3217 612.2864 120.6791C612.2864 152.1791 609.6793 185.7863 604.465 210.5362H580.3577C551.7504 153.3575 521.3216 95.1787 488.4642 47.1073C470.1428 43.143 456.0358 40.1788 422.7146 40.1788C281.9293 40.1788 183.6795 157.9287 182.4651 338.1428C181.2509 522.9998 286.6435 647.2499 420.3575 647.2499C449.5716 647.2499 460 644.6784 479.7142 640.3214C507.7144 591.6427 534.5003 533.4639 562.5005 471.428L586.6078 472.6423C595.2506 511.4995 599.2864 561.0353 599.2864 593.4997C599.2864 622.4284 597.0721 647.1428 592.0363 666.8215C540.0004 687.6786 478.8574 698.0358 406.0002 698.0358C207.6071 698.0358 49.4284 560.3928 49.4284 338.1428C49.4284 113.6784 200.0002 -10 411.7502 -10ZM373.2502 688.0358ZM388.2145 0ZM343.4286 836.8219 407.0719 837.6076C347.5718 863.1432 281.7859 898.286 228.2143 928.0717L213 917.4646C246.2856 871.286 291.0713 817.0002 332 771.6072H404.2147L413.2505 778.0358C438.1434 811.9645 488.4648 868.143 533.1077 914.8574L519.8934 928.0717C457.6789 899.6789 385.6431 859.429 343.4286 836.8219ZM373.2502 688.0358Z" glyph-name="Ccaron" horiz-adv-x="669.7148" unicode="&#268;" /><glyph d="M411.7502 -10C485.2502 -10 548.9647 0.3571 603.822 15.1428C609.8578 47.1073 612.2864 84.3217 612.2864 120.6791C612.2864 152.1791 609.6793 185.7863 604.465 210.5362H580.3577C551.7504 153.3575 521.3216 95.1787 488.4642 47.1073C470.1428 43.143 456.0358 40.1788 422.7146 40.1788C281.9293 40.1788 183.6795 157.9287 182.4651 338.1428C181.2509 522.9998 286.6435 647.2499 420.3575 647.2499C449.5716 647.2499 460 644.6784 479.7142 640.3214C507.7144 591.6427 534.5003 533.4639 562.5005 471.428L586.6078 472.6423C595.2506 511.4995 599.2864 561.0353 599.2864 593.4997C599.2864 622.4284 597.0721 647.1428 592.0363 666.8215C540.0004 687.6786 478.8574 698.0358 406.0002 698.0358C207.6071 698.0358 49.4284 560.3928 49.4284 338.1428C49.4284 113.6784 200.0002 -10 411.7502 -10ZM373.2502 688.0358ZM388.2145 0ZM350.0715 -110.4288C383.3213 -117.7859 400.1428 -134.1788 400.1428 -153.7859C400.1428 -186.036 360.0356 -211.3218 318.3571 -226.7503L322.9642 -241.7503C439.6435 -239.0004 509.9293 -202.4646 509.9293 -140.893C509.9293 -96.9285 464.5005 -66.0713 386.143 -59.1428L395.6789 -92.5001L412.5003 0H363.2858L345.25 -102.3931ZM388.2145 0Z" glyph-name="Ccedilla" horiz-adv-x="669.7148" unicode="&#199;" /><glyph d="M411.7502 -10C485.2502 -10 548.9647 0.3571 603.822 15.1428C609.8578 47.1073 612.2864 84.3217 612.2864 120.6791C612.2864 152.1791 609.6793 185.7863 604.465 210.5362H580.3577C551.7504 153.3575 521.3216 95.1787 488.4642 47.1073C470.1428 43.143 456.0358 40.1788 422.7146 40.1788C281.9293 40.1788 183.6795 157.9287 182.4651 338.1428C181.2509 522.9998 286.6435 647.2499 420.3575 647.2499C449.5716 647.2499 460 644.6784 479.7142 640.3214C507.7144 591.6427 534.5003 533.4639 562.5005 471.428L586.6078 472.6423C595.2506 511.4995 599.2864 561.0353 599.2864 593.4997C599.2864 622.4284 597.0721 647.1428 592.0363 666.8215C540.0004 687.6786 478.8574 698.0358 406.0002 698.0358C207.6071 698.0358 49.4284 560.3928 49.4284 338.1428C49.4284 113.6784 200.0002 -10 411.7502 -10ZM373.2502 688.0358ZM388.2145 0ZM403.2862 862.857 339.6429 862.0713C399.143 836.5357 464.9289 801.3928 518.5005 771.6072L533.7148 782.2143C500.4292 828.3928 455.6435 882.6786 414.7148 928.0717H342.5001L333.4643 921.6431C308.5714 887.7144 258.25 831.5358 213.6071 784.8215L226.8214 771.6072C289.0359 800 361.0717 840.2499 403.2862 862.857ZM373.2502 688.0358Z" glyph-name="Ccircumflex" horiz-adv-x="669.7148" unicode="&#264;" /><glyph d="M411.7502 -10C485.2502 -10 548.9647 0.3571 603.822 15.1428C609.8578 47.1073 612.2864 84.3217 612.2864 120.6791C612.2864 152.1791 609.6793 185.7863 604.465 210.5362H580.3577C551.7504 153.3575 521.3216 95.1787 488.4642 47.1073C470.1428 43.143 456.0358 40.1788 422.7146 40.1788C281.9293 40.1788 183.6795 157.9287 182.4651 338.1428C181.2509 522.9998 286.6435 647.2499 420.3575 647.2499C449.5716 647.2499 460 644.6784 479.7142 640.3214C507.7144 591.6427 534.5003 533.4639 562.5005 471.428L586.6078 472.6423C595.2506 511.4995 599.2864 561.0353 599.2864 593.4997C599.2864 622.4284 597.0721 647.1428 592.0363 666.8215C540.0004 687.6786 478.8574 698.0358 406.0002 698.0358C207.6071 698.0358 49.4284 560.3928 49.4284 338.1428C49.4284 113.6784 200.0002 -10 411.7502 -10ZM373.2502 688.0358ZM388.2145 0ZM452.1078 856.2503C452.1078 894.429 422.7148 919.5362 383.1432 919.5362C335.0715 919.5362 295.6069 883.3575 295.6069 841.3216C295.6069 804.75 325.3928 776.2141 368.0002 776.2141C417.6433 776.2141 452.1078 811.5714 452.1078 856.2503ZM373.2502 688.0358Z" glyph-name="Cdotaccent" horiz-adv-x="669.7148" unicode="&#266;" /><glyph d="M125.3569 582.0002V106.0356H254.1793V582.0002ZM254.1793 0H325.8578C534.8578 0 674.4651 124.2856 674.4651 343.8215C674.4651 563.3573 536.6793 688.0358 325.8578 688.0358H254.1793V642.0713H321.2507C462.8929 642.0713 542.0355 536.0715 541.4284 343.8215C540.8212 151.5714 462.8929 45.9644 321.2507 45.9644H254.1793ZM254.1793 0V106.0356H125.3569V83.6431C125.3569 57.9644 114.8925 48.3216 87.4282 37.2501L46.4284 23.0358L48.4284 0ZM254.1793 688.0358H48.4284L46.4284 665L114.7499 637.4284C123.3927 635.4642 125.3569 633.107 125.3569 625.6429V582.0002H254.1793ZM356.4292 688.0358ZM241.7501 296.1067ZM368.2145 0Z" glyph-name="D" horiz-adv-x="723.8936" unicode="D" /><glyph d="M125.3569 582.0002V106.0356H254.1793V582.0002ZM254.1793 0H325.8578C534.8578 0 674.4651 124.2856 674.4651 343.8215C674.4651 563.3573 536.6793 688.0358 325.8578 688.0358H254.1793V642.0713H321.2507C462.8929 642.0713 542.0355 536.0715 541.4284 343.8215C540.8212 151.5714 462.8929 45.9644 321.2507 45.9644H254.1793ZM254.1793 0V106.0356H125.3569V83.6431C125.3569 57.9644 114.8925 48.3216 87.4282 37.2501L46.4284 23.0358L48.4284 0ZM254.1793 688.0358H48.4284L46.4284 665L114.7499 637.4284C123.3927 635.4642 125.3569 633.107 125.3569 625.6429V582.0002H254.1793ZM356.4292 688.0358ZM241.7501 296.1067ZM368.2145 0ZM326.6076 836.8219 390.2509 837.6076C330.7508 863.1432 264.9649 898.286 211.3933 928.0717L196.179 917.4646C229.4646 871.286 274.2502 817.0002 315.179 771.6072H387.3936L396.4294 778.0358C421.3224 811.9645 471.6437 868.143 516.2866 914.8574L503.0723 928.0717C440.8578 899.6789 368.822 859.429 326.6076 836.8219ZM356.4292 688.0358Z" glyph-name="Dcaron" horiz-adv-x="723.8936" unicode="&#270;" /><glyph d="M436.0448 328.4999V370.6429H49.3436V328.4999ZM242.5024 296.1067ZM132.0353 582.0002V106.0356H260.8578V582.0002ZM260.8578 0H332.5362C541.5362 0 681.1436 124.2856 681.1436 343.8215C681.1436 563.3573 543.3577 688.0358 332.5362 688.0358H260.8578V642.0713H327.9291C469.5714 642.0713 548.714 536.0715 548.1069 343.8215C547.4997 151.5714 469.5714 45.9644 327.9291 45.9644H260.8578ZM260.8578 0V106.0356H132.0353V83.6431C132.0353 57.9644 121.571 48.3216 94.1067 37.2501L53.1068 23.0358L55.1068 0ZM260.8578 688.0358H55.1068L53.1068 665L121.4284 637.4284C130.0711 635.4642 132.0353 633.107 132.0353 625.6429V582.0002H260.8578ZM363.1076 688.0358ZM248.4286 296.1067ZM374.8929 0Z" glyph-name="Dcroat" horiz-adv-x="730.572" unicode="&#272;" /><glyph d="M125.3569 582.0002V106.0356H254.1793V582.0002ZM254.1793 0H325.8578C534.8578 0 674.4651 124.2856 674.4651 343.8215C674.4651 563.3573 536.6793 688.0358 325.8578 688.0358H254.1793V642.0713H321.2507C462.8929 642.0713 542.0355 536.0715 541.4284 343.8215C540.8212 151.5714 462.8929 45.9644 321.2507 45.9644H254.1793ZM254.1793 0V106.0356H125.3569V83.6431C125.3569 57.9644 114.8925 48.3216 87.4282 37.2501L46.4284 23.0358L48.4284 0ZM254.1793 688.0358H48.4284L46.4284 665L114.7499 637.4284C123.3927 635.4642 125.3569 633.107 125.3569 625.6429V582.0002H254.1793ZM356.4292 688.0358ZM241.7501 296.1067ZM368.2145 0ZM442.4649 -157.107C442.4649 -116.9283 414.679 -89.821 377.5003 -89.821C331.4286 -89.821 293.964 -127.9998 293.964 -172.0358C293.964 -210.6073 322.1428 -241.1432 362.3573 -241.1432C409.6076 -241.1432 442.4649 -203.7859 442.4649 -157.107ZM368.2145 0Z" glyph-name="Ddotbelow" horiz-adv-x="723.8936" unicode="&#7692;" /><glyph d="M438.4991 44.1073H76L258.571 555.9637ZM261.8926 688.0358 17.4284 18.4286 19.4284 0H585.0359L587.0359 18.4286L342.5718 688.0358Z" glyph-name="Delta" horiz-adv-x="604.4643" unicode="&#916;" /><glyph d="M125.3569 582.0002V106.0356H254.1793V582.0002ZM254.1793 0H545.3935C550.0006 29.4643 553.2149 58.7857 553.2149 99.7144C553.2149 142.5003 549.7863 177.6076 542.9291 210.5362H518.8219L487.2502 130.3575C476.9287 108.5001 458.7144 62.3218 449 49.5716C426.25 46.5716 394.0002 45.1788 366.3575 45.1788H254.1793ZM254.1793 688.0358V642.857H356.3575C384.0002 642.857 416.25 641.0713 439 638.4642C448.7144 625.714 466.9287 579.5357 477.2502 557.6783L508.8218 477.4995H532.9291C539.7863 511.6067 543.2149 545.5354 543.2149 588.3214C543.2149 629.25 540.0006 658.5714 535.3935 688.0358ZM254.1793 363.0358V320.8927L448.0719 313.2498L450.6791 371.0715ZM254.1793 0V106.0356H125.3569V83.6431C125.3569 57.9644 114.8925 48.3216 87.4282 37.2501L46.4284 23.0358L48.4284 0ZM254.1793 688.0358H48.4284L46.4284 665L114.7499 637.4284C123.3927 635.4642 125.3569 633.107 125.3569 625.6429V582.0002H254.1793ZM319.036 687.6429ZM545.3935 0ZM312 0Z" glyph-name="E" horiz-adv-x="602.6433" unicode="E" /><glyph d="M125.3569 582.2288V106.0772H254.1793V582.2288ZM254.1793 0H545.3935C550.0006 29.4759 553.2149 58.8088 553.2149 99.7536C553.2149 142.5563 549.7863 177.6773 542.9291 210.619H518.8219L487.2502 130.4087C476.9287 108.5427 458.7144 62.3462 449 49.5911C426.25 46.5899 394.0002 45.1965 366.3575 45.1965H254.1793ZM254.1793 688.306V643.1095H356.3575C384.0002 643.1095 416.25 641.3231 439 638.715C448.7144 625.9598 466.9287 579.7633 477.2502 557.8973L508.8218 477.6871H532.9291C539.7863 511.8077 543.2149 545.7498 543.2149 588.5525C543.2149 629.4973 540.0006 658.8301 535.3935 688.306ZM254.1793 363.1784V321.0188L448.0719 313.3729L450.6791 371.2173ZM254.1793 0V106.0772H125.3569V83.676C125.3569 57.9872 114.8925 48.3405 87.4282 37.2647L46.4284 23.0448L48.4284 0ZM254.1793 688.306H48.4284L46.4284 665.2612L114.7499 637.6788C123.3927 635.7138 125.3569 633.3558 125.3569 625.8887V582.2288H254.1793ZM319.036 687.913ZM545.3935 0ZM312 0ZM401.143 922.3218C356.9287 885.2503 276.3571 829.5001 186.4643 790.5714L192.25 772.75C311.6793 775.4999 467.3935 801.2854 467.3935 867.5714C467.3935 891.5001 440.3575 914.0717 411.7859 923.9289ZM319.036 687.6429ZM299 880.4646Z" glyph-name="Eacute" horiz-adv-x="602.6433" unicode="&#201;" /><glyph d="M432.1789 917.9647C417.3932 882.179 374.3218 860.3933 318.6073 860.3933C259.1073 860.3933 216.8572 883.3933 204.8929 920.5718L184.25 916.3575C191.6071 831.7144 241.4644 780.9642 313.0002 780.9642C387.3575 780.9642 440.6433 830.5001 453.8218 915.1432L436.7861 919.9647ZM319.036 687.6429ZM125.3569 582.0002V106.0356H254.1793V582.0002ZM254.1793 0H545.3935C550.0006 29.4643 553.2149 58.7857 553.2149 99.7144C553.2149 142.5003 549.7863 177.6076 542.9291 210.5362H518.8219L487.2502 130.3575C476.9287 108.5001 458.7144 62.3218 449 49.5716C426.25 46.5716 394.0002 45.1788 366.3575 45.1788H254.1793ZM254.1793 688.0358V642.857H356.3575C384.0002 642.857 416.25 641.0713 439 638.4642C448.7144 625.714 466.9287 579.5357 477.2502 557.6783L508.8218 477.4995H532.9291C539.7863 511.6067 543.2149 545.5354 543.2149 588.3214C543.2149 629.25 540.0006 658.5714 535.3935 688.0358ZM254.1793 363.0358V320.8927L448.0719 313.2498L450.6791 371.0715ZM254.1793 0V106.0356H125.3569V83.6431C125.3569 57.9644 114.8925 48.3216 87.4282 37.2501L46.4284 23.0358L48.4284 0ZM254.1793 688.0358H48.4284L46.4284 665L114.7499 637.4284C123.3927 635.4642 125.3569 633.107 125.3569 625.6429V582.0002H254.1793ZM319.036 687.6429ZM545.3935 0ZM312 0Z" glyph-name="Ebreve" horiz-adv-x="602.6433" unicode="&#276;" /><glyph d="M125.3569 582.0002V106.0356H254.1793V582.0002ZM254.1793 0H545.3935C550.0006 29.4643 553.2149 58.7857 553.2149 99.7144C553.2149 142.5003 549.7863 177.6076 542.9291 210.5362H518.8219L487.2502 130.3575C476.9287 108.5001 458.7144 62.3218 449 49.5716C426.25 46.5716 394.0002 45.1788 366.3575 45.1788H254.1793ZM254.1793 688.0358V642.857H356.3575C384.0002 642.857 416.25 641.0713 439 638.4642C448.7144 625.714 466.9287 579.5357 477.2502 557.6783L508.8218 477.4995H532.9291C539.7863 511.6067 543.2149 545.5354 543.2149 588.3214C543.2149 629.25 540.0006 658.5714 535.3935 688.0358ZM254.1793 363.0358V320.8927L448.0719 313.2498L450.6791 371.0715ZM254.1793 0V106.0356H125.3569V83.6431C125.3569 57.9644 114.8925 48.3216 87.4282 37.2501L46.4284 23.0358L48.4284 0ZM254.1793 688.0358H48.4284L46.4284 665L114.7499 637.4284C123.3927 635.4642 125.3569 633.107 125.3569 625.6429V582.0002H254.1793ZM319.036 687.6429ZM545.3935 0ZM312 0ZM289.2143 836.429 352.8576 837.2147C293.3575 862.7504 227.5716 897.8932 174 927.6789L158.7857 917.0717C192.0713 870.8932 236.857 816.6074 277.7857 771.2143H350.0004L359.0362 777.6429C383.9291 811.5716 434.2505 867.7502 478.8934 914.4646L465.6791 927.6789C403.4646 899.286 331.4288 859.0362 289.2143 836.429ZM319.0359 687.6429Z" glyph-name="Ecaron" horiz-adv-x="602.6433" unicode="&#282;" /><glyph d="M125.3569 582.0002V106.0356H254.1793V582.0002ZM254.1793 0H545.3935C550.0006 29.4643 553.2149 58.7857 553.2149 99.7144C553.2149 142.5003 549.7863 177.6076 542.9291 210.5362H518.8219L487.2502 130.3575C476.9287 108.5001 458.7144 62.3218 449 49.5716C426.25 46.5716 394.0002 45.1788 366.3575 45.1788H254.1793ZM254.1793 688.0358V642.857H356.3575C384.0002 642.857 416.25 641.0713 439 638.4642C448.7144 625.714 466.9287 579.5357 477.2502 557.6783L508.8218 477.4995H532.9291C539.7863 511.6067 543.2149 545.5354 543.2149 588.3214C543.2149 629.25 540.0006 658.5714 535.3935 688.0358ZM254.1793 363.0358V320.8927L448.0719 313.2498L450.6791 371.0715ZM254.1793 0V106.0356H125.3569V83.6431C125.3569 57.9644 114.8925 48.3216 87.4282 37.2501L46.4284 23.0358L48.4284 0ZM254.1793 688.0358H48.4284L46.4284 665L114.7499 637.4284C123.3927 635.4642 125.3569 633.107 125.3569 625.6429V582.0002H254.1793ZM319.036 687.6429ZM545.3935 0ZM312 0ZM349.0719 862.4642 285.4286 861.6784C344.9287 836.1428 410.7146 801 464.2862 771.2143L479.5005 781.8215C446.2149 828 401.4292 882.2858 360.5005 927.6789H288.2858L279.25 921.2503C254.3571 887.3216 204.0358 831.143 159.3929 784.4286L172.6071 771.2143C234.8216 799.6072 306.8574 839.857 349.0719 862.4642ZM319.036 687.6429Z" glyph-name="Ecircumflex" horiz-adv-x="602.6433" unicode="&#202;" /><glyph d="M125.3569 582.0002V106.0356H254.1793V582.0002ZM254.1793 0H545.3935C550.0006 29.4643 553.2149 58.7857 553.2149 99.7144C553.2149 142.5003 549.7863 177.6076 542.9291 210.5362H518.8219L487.2502 130.3575C476.9287 108.5001 458.7144 62.3218 449 49.5716C426.25 46.5716 394.0002 45.1788 366.3575 45.1788H254.1793ZM254.1793 688.0358V642.857H356.3575C384.0002 642.857 416.25 641.0713 439 638.4642C448.7144 625.714 466.9287 579.5357 477.2502 557.6783L508.8218 477.4995H532.9291C539.7863 511.6067 543.2149 545.5354 543.2149 588.3214C543.2149 629.25 540.0006 658.5714 535.3935 688.0358ZM254.1793 363.0358V320.8927L448.0719 313.2498L450.6791 371.0715ZM254.1793 0V106.0356H125.3569V83.6431C125.3569 57.9644 114.8925 48.3216 87.4282 37.2501L46.4284 23.0358L48.4284 0ZM254.1793 688.0358H48.4284L46.4284 665L114.7499 637.4284C123.3927 635.4642 125.3569 633.107 125.3569 625.6429V582.0002H254.1793ZM319.036 687.6429ZM545.3935 0ZM312 0ZM499.3936 856.8217C499.3936 890.9647 473.0363 914.8576 437.2862 914.8576C393.8574 914.8576 359.6429 881.3218 359.6429 841.9287C359.6429 809.6072 385.1787 783.1071 423.3575 783.1071C468.572 783.1071 499.3936 816.2143 499.3936 856.8217ZM278.429 856.8217C278.429 890.9647 252.0717 914.8576 216.3216 914.8576C172.8928 914.8576 138.6782 881.3218 138.6782 841.9287C138.6782 809.6072 164.2141 783.1071 202.3928 783.1071C247.6073 783.1071 278.429 816.2143 278.429 856.8217ZM319.036 687.6429ZM316.6073 931.9289Z" glyph-name="Edieresis" horiz-adv-x="602.6433" unicode="&#203;" /><glyph d="M125.3569 582.0002V106.0356H254.1793V582.0002ZM254.1793 0H545.3935C550.0006 29.4643 553.2149 58.7857 553.2149 99.7144C553.2149 142.5003 549.7863 177.6076 542.9291 210.5362H518.8219L487.2502 130.3575C476.9287 108.5001 458.7144 62.3218 449 49.5716C426.25 46.5716 394.0002 45.1788 366.3575 45.1788H254.1793ZM254.1793 688.0358V642.857H356.3575C384.0002 642.857 416.25 641.0713 439 638.4642C448.7144 625.714 466.9287 579.5357 477.2502 557.6783L508.8218 477.4995H532.9291C539.7863 511.6067 543.2149 545.5354 543.2149 588.3214C543.2149 629.25 540.0006 658.5714 535.3935 688.0358ZM254.1793 363.0358V320.8927L448.0719 313.2498L450.6791 371.0715ZM254.1793 0V106.0356H125.3569V83.6431C125.3569 57.9644 114.8925 48.3216 87.4282 37.2501L46.4284 23.0358L48.4284 0ZM254.1793 688.0358H48.4284L46.4284 665L114.7499 637.4284C123.3927 635.4642 125.3569 633.107 125.3569 625.6429V582.0002H254.1793ZM319.036 687.6429ZM545.3935 0ZM312 0ZM397.8936 855.8574C397.8936 894.0362 368.5005 919.1434 328.9289 919.1434C280.8572 919.1434 241.3927 882.9647 241.3927 840.9287C241.3927 804.3571 271.1785 775.8213 313.7859 775.8213C363.429 775.8213 397.8936 811.1786 397.8936 855.8574ZM319.036 687.6429Z" glyph-name="Edotaccent" horiz-adv-x="602.6433" unicode="&#278;" /><glyph d="M125.3569 582.0002V106.0356H254.1793V582.0002ZM254.1793 0H545.3935C550.0006 29.4643 553.2149 58.7857 553.2149 99.7144C553.2149 142.5003 549.7863 177.6076 542.9291 210.5362H518.8219L487.2502 130.3575C476.9287 108.5001 458.7144 62.3218 449 49.5716C426.25 46.5716 394.0002 45.1788 366.3575 45.1788H254.1793ZM254.1793 688.0358V642.857H356.3575C384.0002 642.857 416.25 641.0713 439 638.4642C448.7144 625.714 466.9287 579.5357 477.2502 557.6783L508.8218 477.4995H532.9291C539.7863 511.6067 543.2149 545.5354 543.2149 588.3214C543.2149 629.25 540.0006 658.5714 535.3935 688.0358ZM254.1793 363.0358V320.8927L448.0719 313.2498L450.6791 371.0715ZM254.1793 0V106.0356H125.3569V83.6431C125.3569 57.9644 114.8925 48.3216 87.4282 37.2501L46.4284 23.0358L48.4284 0ZM254.1793 688.0358H48.4284L46.4284 665L114.7499 637.4284C123.3927 635.4642 125.3569 633.107 125.3569 625.6429V582.0002H254.1793ZM319.036 687.6429ZM545.3935 0ZM312 0ZM386.2505 -157.107C386.2505 -116.9283 358.4646 -89.821 321.2858 -89.821C275.2141 -89.821 237.7495 -127.9998 237.7495 -172.0358C237.7495 -210.6073 265.9283 -241.1432 306.1428 -241.1432C353.3931 -241.1432 386.2505 -203.7859 386.2505 -157.107ZM312 0Z" glyph-name="Edotbelow" horiz-adv-x="602.6433" unicode="&#7864;" /><glyph d="M125.3569 582.0002V106.0356H254.1793V582.0002ZM254.1793 0H545.3935C550.0006 29.4643 553.2149 58.7857 553.2149 99.7144C553.2149 142.5003 549.7863 177.6076 542.9291 210.5362H518.8219L487.2502 130.3575C476.9287 108.5001 458.7144 62.3218 449 49.5716C426.25 46.5716 394.0002 45.1788 366.3575 45.1788H254.1793ZM254.1793 688.0358V642.857H356.3575C384.0002 642.857 416.25 641.0713 439 638.4642C448.7144 625.714 466.9287 579.5357 477.2502 557.6783L508.8218 477.4995H532.9291C539.7863 511.6067 543.2149 545.5354 543.2149 588.3214C543.2149 629.25 540.0006 658.5714 535.3935 688.0358ZM254.1793 363.0358V320.8927L448.0719 313.2498L450.6791 371.0715ZM254.1793 0V106.0356H125.3569V83.6431C125.3569 57.9644 114.8925 48.3216 87.4282 37.2501L46.4284 23.0358L48.4284 0ZM254.1793 688.0358H48.4284L46.4284 665L114.7499 637.4284C123.3927 635.4642 125.3569 633.107 125.3569 625.6429V582.0002H254.1793ZM319.036 687.6429ZM545.3935 0ZM312 0ZM451.6076 790.9642C361.7148 829.893 281.1432 885.6431 236.9289 922.7146L226.286 924.3218C197.7144 914.4646 170.6784 891.893 170.6784 867.9642C170.6784 801.6783 326.3927 775.8928 445.8218 773.1428ZM319.036 687.6429Z" glyph-name="Egrave" horiz-adv-x="602.6433" unicode="&#200;" /><glyph d="M162.2856 815.3929H475.7863V882.9289H162.2856ZM319.036 687.6429ZM125.3569 582.0002V106.0356H254.1793V582.0002ZM254.1793 0H545.3935C550.0006 29.4643 553.2149 58.7857 553.2149 99.7144C553.2149 142.5003 549.7863 177.6076 542.9291 210.5362H518.8219L487.2502 130.3575C476.9287 108.5001 458.7144 62.3218 449 49.5716C426.25 46.5716 394.0002 45.1788 366.3575 45.1788H254.1793ZM254.1793 688.0358V642.857H356.3575C384.0002 642.857 416.25 641.0713 439 638.4642C448.7144 625.714 466.9287 579.5357 477.2502 557.6783L508.8218 477.4995H532.9291C539.7863 511.6067 543.2149 545.5354 543.2149 588.3214C543.2149 629.25 540.0006 658.5714 535.3935 688.0358ZM254.1793 363.0358V320.8927L448.0719 313.2498L450.6791 371.0715ZM254.1793 0V106.0356H125.3569V83.6431C125.3569 57.9644 114.8925 48.3216 87.4282 37.2501L46.4284 23.0358L48.4284 0ZM254.1793 688.0358H48.4284L46.4284 665L114.7499 637.4284C123.3927 635.4642 125.3569 633.107 125.3569 625.6429V582.0002H254.1793ZM319.036 687.6429ZM545.3935 0ZM312 0Z" glyph-name="Emacron" horiz-adv-x="602.6433" unicode="&#274;" /><glyph d="M599.7501 138.0368 236.2507 688.0358H48.4284L46.4284 665L92.2854 648.9642C100.9281 647 125.3569 633.107 125.3569 625.6429V106.0356H175.5357V586.8208L153.4641 581.8208L547.3211 0H599.7501ZM583.7501 582.0002V104C583.7501 -35.3929 545.1073 -78.3928 482.4286 -153.7857L498.6429 -170C591.0359 -98 633.9289 -52 633.9289 75V582.0002ZM583.7502 635.0713V582.0002H633.9289V604.3927C633.9289 630.0713 644.3932 639.7142 671.8576 650.7857L712.8574 665L710.8574 688.0358H506.8216L504.8216 665ZM175.5357 52.9644V106.0356H125.3569V83.6431C125.3569 57.9644 114.8925 48.3216 87.4282 37.2501L46.4284 23.0358L48.4284 0H272.4641L274.4641 23.0358Z" glyph-name="Eng" horiz-adv-x="743.2858" unicode="&#330;" /><glyph d="M125.3569 582.0002V106.0356H254.1793V582.0002ZM254.1793 0H545.3935C550.0006 29.4643 553.2149 58.7857 553.2149 99.7144C553.2149 142.5003 549.7863 177.6076 542.9291 210.5362H518.8219L487.2502 130.3575C476.9287 108.5001 458.7144 62.3218 449 49.5716C426.25 46.5716 394.0002 45.1788 366.3575 45.1788H254.1793ZM254.1793 688.0358V642.857H356.3575C384.0002 642.857 416.25 641.0713 439 638.4642C448.7144 625.714 466.9287 579.5357 477.2502 557.6783L508.8218 477.4995H532.9291C539.7863 511.6067 543.2149 545.5354 543.2149 588.3214C543.2149 629.25 540.0006 658.5714 535.3935 688.0358ZM254.1793 363.0358V320.8927L448.0719 313.2498L450.6791 371.0715ZM254.1793 0V106.0356H125.3569V83.6431C125.3569 57.9644 114.8925 48.3216 87.4282 37.2501L46.4284 23.0358L48.4284 0ZM254.1793 688.0358H48.4284L46.4284 665L114.7499 637.4284C123.3927 635.4642 125.3569 633.107 125.3569 625.6429V582.0002H254.1793ZM319.036 687.6429ZM545.3935 0ZM312 0ZM532.3933 -181.6071 528.3933 -169.5714C510.429 -173.3571 498.0362 -174.75 481.2505 -174.75C448.5005 -174.75 429.5362 -156.3571 429.5362 -125.7857C429.5362 -79.5357 470.3935 -31.4642 545.3935 0L539.0364 13.3571C403.5716 -16.6427 328.0356 -73.8928 328.0356 -150.7501C328.0356 -205.6431 365.75 -241.1432 421.8572 -241.1432C467.2502 -241.1432 508.3575 -219.4288 532.3933 -181.6071ZM545.3935 0Z" glyph-name="Eogonek" horiz-adv-x="602.6433" unicode="&#280;" /><glyph d="M436.0448 328.4999V370.6429H49.3436V328.4999ZM242.5024 296.1067ZM132.0353 582.0002V106.0356H260.8578V582.0002ZM260.8578 0H332.5362C541.5362 0 681.1436 124.2856 681.1436 343.8215C681.1436 563.3573 543.3577 688.0358 332.5362 688.0358H260.8578V642.0713H327.9291C469.5714 642.0713 548.714 536.0715 548.1069 343.8215C547.4997 151.5714 469.5714 45.9644 327.9291 45.9644H260.8578ZM260.8578 0V106.0356H132.0353V83.6431C132.0353 57.9644 121.571 48.3216 94.1067 37.2501L53.1068 23.0358L55.1068 0ZM260.8578 688.0358H55.1068L53.1068 665L121.4284 637.4284C130.0711 635.4642 132.0353 633.107 132.0353 625.6429V582.0002H260.8578ZM363.1076 688.0358ZM248.4286 296.1067ZM374.8929 0Z" glyph-name="Eth" horiz-adv-x="730.572" unicode="&#208;" /><glyph d="M194.143 838.0713C247.5718 825.7498 349.1428 775.9643 416.5358 775.9643C478.5718 775.9643 506.679 828.7502 511.3932 893.7502C511.3932 903.4646 510.7861 910.1432 510.1789 917.429L492.536 923.429C484.2862 909.2864 449.036 863.9647 443.9289 856.1077C389.3216 868.0364 290.1076 918.2147 221.536 918.2147C159.8929 918.2147 130.6071 863.6074 125.8929 795.1788C125.8929 789.1073 126.5001 782.4286 127.1073 776.3571L144.7502 770.75C152.6071 784.4997 189.8216 833.3571 194.143 838.0713ZM319.036 687.6429ZM316.4288 929.6429ZM125.3569 582.0002V106.0356H254.1793V582.0002ZM254.1793 0H545.3935C550.0006 29.4643 553.2149 58.7857 553.2149 99.7144C553.2149 142.5003 549.7863 177.6076 542.9291 210.5362H518.8219L487.2502 130.3575C476.9287 108.5001 458.7144 62.3218 449 49.5716C426.25 46.5716 394.0002 45.1788 366.3575 45.1788H254.1793ZM254.1793 688.0358V642.857H356.3575C384.0002 642.857 416.25 641.0713 439 638.4642C448.7144 625.714 466.9287 579.5357 477.2502 557.6783L508.8218 477.4995H532.9291C539.7863 511.6067 543.2149 545.5354 543.2149 588.3214C543.2149 629.25 540.0006 658.5714 535.3935 688.0358ZM254.1793 363.0358V320.8927L448.0719 313.2498L450.6791 371.0715ZM254.1793 0V106.0356H125.3569V83.6431C125.3569 57.9644 114.8925 48.3216 87.4282 37.2501L46.4284 23.0358L48.4284 0ZM254.1793 688.0358H48.4284L46.4284 665L114.7499 637.4284C123.3927 635.4642 125.3569 633.107 125.3569 625.6429V582.0002H254.1793ZM319.036 687.6429ZM545.3935 0ZM312 0Z" glyph-name="Etilde" horiz-adv-x="602.6433" unicode="&#7868;" /><glyph d="M125.3569 582.0002V106.0356H254.1793V582.0002ZM254.1793 345V302.857L448.0719 295.2141L450.6791 353.0358ZM254.1793 688.0358V642.857H350.286C377.9287 642.857 410.1785 641.0713 432.9285 638.4642C442.6429 625.714 460.8572 579.5357 471.1787 557.6783L502.7504 477.4995H526.8576C533.7148 511.6067 537.1434 545.5354 537.1434 588.3214C537.1434 629.25 533.9291 658.5714 529.322 688.0358ZM254.1793 52.9644V106.0356H125.3569V83.6431C125.3569 57.9644 114.8925 48.3216 87.4282 37.2501L46.4284 23.0358L48.4284 0H351.1078L353.1078 23.0358ZM254.1793 688.0358H48.4284L46.4284 665L114.7499 637.4284C123.3927 635.4642 125.3569 633.107 125.3569 625.6429V582.0002H254.1793Z" glyph-name="F" horiz-adv-x="562.5718" unicode="F" /><glyph d="M404.7859 -10C501.322 -10 555.2862 1.1785 619.4294 21.2143V200H496.6784V32.6786L511.6784 54.1073C479.1073 43.5716 457.3931 40.1788 421.8218 40.1788C288.2509 40.1788 182.4651 153.4286 182.4651 341.1785C182.4651 528.9285 295.1436 647.857 424.0004 647.857C456.3931 647.857 474.8929 646.2856 495.7857 640.3214C518.8574 608.1424 554.286 517.5714 578.572 471.428L602.6793 472.6423C610.9293 511.4995 615.3579 561.0353 615.3579 593.4997C615.3579 622.4284 613.1436 647.1428 608.1078 666.8215C555.8934 687.4643 490.536 698.0358 416.9289 698.0358C214.893 698.0358 49.4284 564.5001 49.4284 338.1428C49.4284 111.7855 200.8574 -10 404.7859 -10ZM496.6784 267.0356V200H619.4294V236.3569C619.4294 263.2498 624.4294 274.7142 645.2151 282.75L686.2149 296.9642L684.2149 320H419.75L417.75 296.9642ZM384.1789 688.0358ZM385.1787 0Z" glyph-name="G" horiz-adv-x="720.6433" unicode="G" /><glyph d="M466.286 922.7146C422.0717 885.6431 341.5001 829.893 251.6073 790.9642L257.3931 773.1428C376.8222 775.8927 532.5365 801.6783 532.5365 867.9642C532.5365 891.893 505.5005 914.4646 476.9289 924.3217ZM384.1789 688.0358ZM364.143 880.8574ZM404.7859 -10C501.322 -10 555.2862 1.1785 619.4294 21.2143V200H496.6784V32.6786L511.6784 54.1073C479.1073 43.5716 457.3931 40.1788 421.8218 40.1788C288.2509 40.1788 182.4651 153.4286 182.4651 341.1785C182.4651 528.9285 295.1436 647.857 424.0004 647.857C456.3931 647.857 474.8929 646.2856 495.7857 640.3214C518.8574 608.1424 554.286 517.5714 578.572 471.428L602.6793 472.6423C610.9293 511.4995 615.3579 561.0353 615.3579 593.4997C615.3579 622.4284 613.1436 647.1428 608.1078 666.8215C555.8934 687.4643 490.536 698.0358 416.9289 698.0358C214.893 698.0358 49.4284 564.5001 49.4284 338.1428C49.4284 111.7855 200.8574 -10 404.7859 -10ZM496.6784 267.0356V200H619.4294V236.3569C619.4294 263.2498 624.4294 274.7142 645.2151 282.75L686.2149 296.9642L684.2149 320H419.75L417.75 296.9642ZM384.1789 688.0358ZM385.1787 0Z" glyph-name="Gacute" horiz-adv-x="720.6433" unicode="&#500;" /><glyph d="M497.322 918.3575C482.5362 882.5718 439.4647 860.7861 383.7504 860.7861C324.2502 860.7861 282.0002 883.7861 270.0359 920.9647L249.393 916.7504C256.7501 832.1073 306.6073 781.3571 378.1432 781.3571C452.5005 781.3571 505.7863 830.893 518.9648 915.5361L501.9291 920.3575ZM384.1789 688.0358ZM404.7859 -10C501.322 -10 555.2862 1.1785 619.4294 21.2143V200H496.6784V32.6786L511.6784 54.1073C479.1073 43.5716 457.3931 40.1788 421.8218 40.1788C288.2509 40.1788 182.4651 153.4286 182.4651 341.1785C182.4651 528.9285 295.1436 647.857 424.0004 647.857C456.3931 647.857 474.8929 646.2856 495.7857 640.3214C518.8574 608.1424 554.286 517.5714 578.572 471.428L602.6793 472.6423C610.9293 511.4995 615.3579 561.0353 615.3579 593.4997C615.3579 622.4284 613.1436 647.1428 608.1078 666.8215C555.8934 687.4643 490.536 698.0358 416.9289 698.0358C214.893 698.0358 49.4284 564.5001 49.4284 338.1428C49.4284 111.7855 200.8574 -10 404.7859 -10ZM496.6784 267.0356V200H619.4294V236.3569C619.4294 263.2498 624.4294 274.7142 645.2151 282.75L686.2149 296.9642L684.2149 320H419.75L417.75 296.9642ZM384.1789 688.0358ZM385.1787 0Z" glyph-name="Gbreve" horiz-adv-x="720.6433" unicode="&#286;" /><glyph d="M404.7859 -10C501.322 -10 555.2862 1.1785 619.4294 21.2143V200H496.6784V32.6786L511.6784 54.1073C479.1073 43.5716 457.3931 40.1788 421.8218 40.1788C288.2509 40.1788 182.4651 153.4286 182.4651 341.1785C182.4651 528.9285 295.1436 647.857 424.0004 647.857C456.3931 647.857 474.8929 646.2856 495.7857 640.3214C518.8574 608.1424 554.286 517.5714 578.572 471.428L602.6793 472.6423C610.9293 511.4995 615.3579 561.0353 615.3579 593.4997C615.3579 622.4284 613.1436 647.1428 608.1078 666.8215C555.8934 687.4643 490.536 698.0358 416.9289 698.0358C214.893 698.0358 49.4284 564.5001 49.4284 338.1428C49.4284 111.7855 200.8574 -10 404.7859 -10ZM496.6784 267.0356V200H619.4294V236.3569C619.4294 263.2498 624.4294 274.7142 645.2151 282.75L686.2149 296.9642L684.2149 320H419.75L417.75 296.9642ZM384.1789 688.0358ZM385.1787 0ZM354.3573 836.8219 418.0006 837.6076C358.5005 863.1432 292.7146 898.286 239.143 928.0717L223.9287 917.4646C257.2143 871.286 302 817.0002 342.9287 771.6072H415.1434L424.1792 778.0358C449.0721 811.9645 499.3935 868.143 544.0364 914.8574L530.8221 928.0717C468.6076 899.6789 396.5718 859.429 354.3573 836.8219ZM384.1789 688.0358Z" glyph-name="Gcaron" horiz-adv-x="720.6433" unicode="&#486;" /><glyph d="M404.7859 -10C501.322 -10 555.2862 1.1785 619.4294 21.2143V200H496.6784V32.6786L511.6784 54.1073C479.1073 43.5716 457.3931 40.1788 421.8218 40.1788C288.2509 40.1788 182.4651 153.4286 182.4651 341.1785C182.4651 528.9285 295.1436 647.857 424.0004 647.857C456.3931 647.857 474.8929 646.2856 495.7857 640.3214C518.8574 608.1424 554.286 517.5714 578.572 471.428L602.6793 472.6423C610.9293 511.4995 615.3579 561.0353 615.3579 593.4997C615.3579 622.4284 613.1436 647.1428 608.1078 666.8215C555.8934 687.4643 490.536 698.0358 416.9289 698.0358C214.893 698.0358 49.4284 564.5001 49.4284 338.1428C49.4284 111.7855 200.8574 -10 404.7859 -10ZM496.6784 267.0356V200H619.4294V236.3569C619.4294 263.2498 624.4294 274.7142 645.2151 282.75L686.2149 296.9642L684.2149 320H419.75L417.75 296.9642ZM384.1789 688.0358ZM385.1787 0ZM414.2149 862.857 350.5716 862.0713C410.0717 836.5357 475.8576 801.3928 529.4292 771.6072L544.6435 782.2143C511.3579 828.3928 466.5722 882.6786 425.6435 928.0717H353.4288L344.3931 921.6431C319.5001 887.7144 269.1787 831.5358 224.5358 784.8215L237.7501 771.6072C299.9647 800 372.0004 840.2499 414.2149 862.857ZM384.1789 688.0358Z" glyph-name="Gcircumflex" horiz-adv-x="720.6433" unicode="&#284;" /><glyph d="M453.322 -161.9642C453.322 -117.3569 426.7861 -89.821 385.1788 -89.821C347 -89.821 317.0713 -120.5354 317.0713 -162.1428C317.0713 -198.0715 344.7857 -224.6073 384.3573 -224.6073L372.2858 -189.5716C371.893 -238.286 347.2143 -301.4645 325.6071 -332.6431L337.2143 -342.8574C393.4288 -314.1074 453.322 -234.6073 453.322 -161.9642ZM385.1788 0ZM404.7859 -10C501.322 -10 555.2862 1.1785 619.4294 21.2143V200H496.6784V32.6786L511.6784 54.1073C479.1073 43.5716 457.3931 40.1788 421.8218 40.1788C288.2509 40.1788 182.4651 153.4286 182.4651 341.1785C182.4651 528.9285 295.1436 647.857 424.0004 647.857C456.3931 647.857 474.8929 646.2856 495.7857 640.3214C518.8574 608.1424 554.286 517.5714 578.572 471.428L602.6793 472.6423C610.9293 511.4995 615.3579 561.0353 615.3579 593.4997C615.3579 622.4284 613.1436 647.1428 608.1078 666.8215C555.8934 687.4643 490.536 698.0358 416.9289 698.0358C214.893 698.0358 49.4284 564.5001 49.4284 338.1428C49.4284 111.7855 200.8574 -10 404.7859 -10ZM496.6784 267.0356V200H619.4294V236.3569C619.4294 263.2498 624.4294 274.7142 645.2151 282.75L686.2149 296.9642L684.2149 320H419.75L417.75 296.9642ZM384.1789 688.0358ZM385.1787 0Z" glyph-name="Gcommaaccent" horiz-adv-x="720.6433" unicode="&#290;" /><glyph d="M463.0366 856.2503C463.0366 894.429 433.6435 919.5362 394.0719 919.5362C346.0002 919.5362 306.5357 883.3575 306.5357 841.3216C306.5357 804.75 336.3216 776.2141 378.9289 776.2141C428.572 776.2141 463.0366 811.5714 463.0366 856.2503ZM384.1789 688.0358ZM404.7859 -10C501.322 -10 555.2862 1.1785 619.4294 21.2143V200H496.6784V32.6786L511.6784 54.1073C479.1073 43.5716 457.3931 40.1788 421.8218 40.1788C288.2509 40.1788 182.4651 153.4286 182.4651 341.1785C182.4651 528.9285 295.1436 647.857 424.0004 647.857C456.3931 647.857 474.8929 646.2856 495.7857 640.3214C518.8574 608.1424 554.286 517.5714 578.572 471.428L602.6793 472.6423C610.9293 511.4995 615.3579 561.0353 615.3579 593.4997C615.3579 622.4284 613.1436 647.1428 608.1078 666.8215C555.8934 687.4643 490.536 698.0358 416.9289 698.0358C214.893 698.0358 49.4284 564.5001 49.4284 338.1428C49.4284 111.7855 200.8574 -10 404.7859 -10ZM496.6784 267.0356V200H619.4294V236.3569C619.4294 263.2498 624.4294 274.7142 645.2151 282.75L686.2149 296.9642L684.2149 320H419.75L417.75 296.9642ZM384.1789 688.0358ZM385.1787 0Z" glyph-name="Gdotaccent" horiz-adv-x="720.6433" unicode="&#288;" /><glyph d="M721.4653 162.143C721.4653 287.9287 609.2157 368.1789 450.858 433.6433L447.8222 379.0358L626.5007 600.0713L622.5007 628.75C576.8936 673.3928 499.322 698.0358 405.3575 698.0358C246.2143 698.0358 125.3569 595.0713 125.3569 458.8568V83.6431C125.3569 57.9644 114.8925 48.3216 87.4282 37.2501L46.4284 23.0358L48.4284 0H228.6435L254.1793 28.5358V481.7855C254.1793 580.4642 311.9649 654.7142 393.1432 654.7142C455.8931 654.7142 503.0002 616.714 530 566.2139L563.9647 632.7501L367.2502 382.1428L369.6431 349.8213C512.9648 297.8927 594.5001 230.0711 594.5001 125.3569C594.5001 74.5357 560.8931 34.1073 502.5362 34.1073C467.822 34.1073 442.6435 46.7501 424.4292 73.2502C406.0721 98.8932 395.4292 138.7146 387.0364 193.536L362.9291 195.3575C345.1789 166.5003 335.8931 123.0359 335.8931 89.6787C335.8931 59.4644 339.9289 38.1786 350.9647 25.1786C366.0004 5.5357 428.0719 -10 493.5005 -10C637.2866 -10 721.4653 55.3929 721.4653 162.143Z" glyph-name="Germandbls" horiz-adv-x="762.6755" unicode="&#7838;" /><glyph d="M125.3569 582.0002V106.0356H254.1793V582.0002ZM543.6784 582.0002V106.0356H672.5009V582.0002ZM254.1793 372.2858V323.9285H543.6784V372.2858ZM254.1793 52.9644V106.0356H125.3569V83.6431C125.3569 57.9644 114.8925 48.3216 87.4282 37.2501L46.4284 23.0358L48.4284 0H331.1078L333.1078 23.0358ZM125.3569 635.0713V582.0002H254.1794V604.3927C254.1794 630.0713 264.6437 639.7142 292.1081 650.7857L333.1079 665L331.1079 688.0358H48.4284L46.4284 665ZM672.5009 52.9644V106.0356H543.6784V83.6431C543.6784 57.9644 533.2141 48.3216 505.7498 37.2501L464.75 23.0358L466.75 0H749.4294L751.4294 23.0358ZM543.6784 635.0713V582.0002H672.5009V604.3927C672.5009 630.0713 682.9652 639.7142 710.4296 650.7857L751.4294 665L749.4294 688.0358H466.7499L464.7499 665ZM398.9289 688.0358ZM398.9289 498.0358ZM398.3218 0Z" glyph-name="H" horiz-adv-x="797.8578" unicode="H" /><glyph d="M125.3569 582.0002V106.0356H254.1793V582.0002ZM543.6784 582.0002V106.0356H672.5009V582.0002ZM254.1793 372.2858V323.9285H543.6784V372.2858ZM254.1793 52.9644V106.0356H125.3569V83.6431C125.3569 57.9644 114.8925 48.3216 87.4282 37.2501L46.4284 23.0358L48.4284 0H331.1078L333.1078 23.0358ZM125.3569 635.0713V582.0002H254.1794V604.3927C254.1794 630.0713 264.6437 639.7142 292.1081 650.7857L333.1079 665L331.1079 688.0358H48.4284L46.4284 665ZM672.5009 52.9644V106.0356H543.6784V83.6431C543.6784 57.9644 533.2141 48.3216 505.7498 37.2501L464.75 23.0358L466.75 0H749.4294L751.4294 23.0358ZM543.6784 635.0713V582.0002H672.5009V604.3927C672.5009 630.0713 682.9652 639.7142 710.4296 650.7857L751.4294 665L749.4294 688.0358H466.7499L464.7499 665ZM398.9289 688.0358ZM398.9289 498.0358ZM398.3218 0ZM744.0723 488.1071V530.25H52.9998V488.1071ZM398.9289 498.0358Z" glyph-name="Hbar" horiz-adv-x="797.8578" unicode="&#294;" /><glyph d="M125.3569 582.0002V106.0356H254.1793V582.0002ZM543.6784 582.0002V106.0356H672.5009V582.0002ZM254.1793 372.2858V323.9285H543.6784V372.2858ZM254.1793 52.9644V106.0356H125.3569V83.6431C125.3569 57.9644 114.8925 48.3216 87.4282 37.2501L46.4284 23.0358L48.4284 0H331.1078L333.1078 23.0358ZM125.3569 635.0713V582.0002H254.1794V604.3927C254.1794 630.0713 264.6437 639.7142 292.1081 650.7857L333.1079 665L331.1079 688.0358H48.4284L46.4284 665ZM672.5009 52.9644V106.0356H543.6784V83.6431C543.6784 57.9644 533.2141 48.3216 505.7498 37.2501L464.75 23.0358L466.75 0H749.4294L751.4294 23.0358ZM543.6784 635.0713V582.0002H672.5009V604.3927C672.5009 630.0713 682.9652 639.7142 710.4296 650.7857L751.4294 665L749.4294 688.0358H466.7499L464.7499 665ZM398.9289 688.0358ZM398.9289 498.0358ZM398.3218 0ZM428.9649 862.857 365.3216 862.0713C424.8216 836.5357 490.6076 801.3928 544.1791 771.6072L559.3935 782.2143C526.1078 828.3928 481.3222 882.6786 440.3934 928.0717H368.1788L359.143 921.6431C334.25 887.7144 283.9287 831.5358 239.2858 784.8215L252.5001 771.6072C314.7146 800 386.7504 840.2499 428.9649 862.857ZM398.9289 688.0358Z" glyph-name="Hcircumflex" horiz-adv-x="797.8578" unicode="&#292;" /><glyph d="M125.3569 582.0002V106.0356H254.1793V582.0002ZM543.6784 582.0002V106.0356H672.5009V582.0002ZM254.1793 372.2858V323.9285H543.6784V372.2858ZM254.1793 52.9644V106.0356H125.3569V83.6431C125.3569 57.9644 114.8925 48.3216 87.4282 37.2501L46.4284 23.0358L48.4284 0H331.1078L333.1078 23.0358ZM125.3569 635.0713V582.0002H254.1794V604.3927C254.1794 630.0713 264.6437 639.7142 292.1081 650.7857L333.1079 665L331.1079 688.0358H48.4284L46.4284 665ZM672.5009 52.9644V106.0356H543.6784V83.6431C543.6784 57.9644 533.2141 48.3216 505.7498 37.2501L464.75 23.0358L466.75 0H749.4294L751.4294 23.0358ZM543.6784 635.0713V582.0002H672.5009V604.3927C672.5009 630.0713 682.9652 639.7142 710.4296 650.7857L751.4294 665L749.4294 688.0358H466.7499L464.7499 665ZM398.9289 688.0358ZM398.9289 498.0358ZM398.3218 0ZM472.5722 -157.107C472.5722 -116.9283 444.7863 -89.821 407.6076 -89.821C361.5358 -89.821 324.0713 -127.9998 324.0713 -172.0358C324.0713 -210.6073 352.25 -241.1432 392.4646 -241.1432C439.7148 -241.1432 472.5722 -203.7859 472.5722 -157.107ZM398.3218 0Z" glyph-name="Hdotbelow" horiz-adv-x="797.8578" unicode="&#7716;" /><glyph d="M125.3569 582.0002V106.0356H254.1793V582.0002ZM254.1793 52.9644V106.0356H125.3569V83.6431C125.3569 57.9644 114.8925 48.3216 87.4282 37.2501L46.4284 23.0358L48.4284 0H331.1078L333.1078 23.0358ZM125.3569 635.0713V582.0002H254.1794V604.3927C254.1794 630.0713 264.6437 639.7142 292.1081 650.7857L333.1079 665L331.1079 688.0358H48.4284L46.4284 665ZM190.4646 688.0358ZM331.1078 0ZM190.0717 0Z" glyph-name="I" horiz-adv-x="379.5362" unicode="I" /><glyph d="M125.3569 582.0002V106.0356H254.1793V582.0002ZM254.1793 52.9644V106.0356H125.3569V83.6431C125.3569 57.9644 114.8925 48.3216 87.4282 37.2501L46.4284 23.0358L48.4284 0H331.1078L333.1078 23.0358ZM125.3569 635.0713V582.0002H254.1794V604.3927C254.1794 630.0713 264.6437 639.7142 292.1081 650.7857L333.1079 665L331.1079 688.0358H48.4284L46.4284 665ZM190.4646 688.0358ZM331.1078 0ZM190.0717 0ZM473.0723 582.0002V113.7144C473.0723 -10.1068 444.9295 -82.8572 393.7509 -151.1786L409.5367 -170C507.394 -135.6433 601.8947 -53.2143 601.8947 78.0357V582.0002ZM473.0723 635.0713V582.0002H601.8947V604.3927C601.8947 630.0713 612.3591 639.7142 639.8234 650.7857L680.8232 665L678.8232 688.0358H396.1438L394.1438 665ZM535.3585 685Z" glyph-name="IJ" horiz-adv-x="711.2517" unicode="&#306;" /><glyph d="M125.3569 582.0002V106.0356H254.1793V582.0002ZM254.1793 52.9644V106.0356H125.3569V83.6431C125.3569 57.9644 114.8925 48.3216 87.4282 37.2501L46.4284 23.0358L48.4284 0H331.1078L333.1078 23.0358ZM125.3569 635.0713V582.0002H254.1794V604.3927C254.1794 630.0713 264.6437 639.7142 292.1081 650.7857L333.1079 665L331.1079 688.0358H48.4284L46.4284 665ZM190.4646 688.0358ZM331.1078 0ZM190.0717 0ZM272.5716 922.7146C228.3573 885.6431 147.7857 829.893 57.8929 790.9642L63.6787 773.1428C183.1078 775.8927 338.822 801.6783 338.822 867.9642C338.822 891.893 311.7861 914.4646 283.2145 924.3217ZM190.4646 688.0358ZM170.4286 880.8574Z" glyph-name="Iacute" horiz-adv-x="379.5362" unicode="&#205;" /><glyph d="M125.3569 582.0002V106.0356H254.1793V582.0002ZM254.1793 52.9644V106.0356H125.3569V83.6431C125.3569 57.9644 114.8925 48.3216 87.4282 37.2501L46.4284 23.0358L48.4284 0H331.1078L333.1078 23.0358ZM125.3569 635.0713V582.0002H254.1794V604.3927C254.1794 630.0713 264.6437 639.7142 292.1081 650.7857L333.1079 665L331.1079 688.0358H48.4284L46.4284 665ZM190.4646 688.0358ZM331.1078 0ZM190.0717 0ZM303.6076 918.3575C288.8218 882.5718 245.7504 860.7861 190.036 860.7861C130.5359 860.7861 88.2858 883.7861 76.3216 920.9647L55.6786 916.7504C63.0358 832.1073 112.893 781.3571 184.4288 781.3571C258.7861 781.3571 312.0719 830.893 325.2505 915.5361L308.2147 920.3575ZM190.4646 688.0358Z" glyph-name="Ibreve" horiz-adv-x="379.5362" unicode="&#300;" /><glyph d="M125.3569 582.0002V106.0356H254.1793V582.0002ZM254.1793 52.9644V106.0356H125.3569V83.6431C125.3569 57.9644 114.8925 48.3216 87.4282 37.2501L46.4284 23.0358L48.4284 0H331.1078L333.1078 23.0358ZM125.3569 635.0713V582.0002H254.1794V604.3927C254.1794 630.0713 264.6437 639.7142 292.1081 650.7857L333.1079 665L331.1079 688.0358H48.4284L46.4284 665ZM190.4646 688.0358ZM331.1078 0ZM190.0717 0ZM160.6429 836.8219 224.2862 837.6076C164.7861 863.1432 99.0002 898.286 45.4286 928.0717L30.2143 917.4646C63.4999 871.286 108.2856 817.0002 149.2143 771.6072H221.429L230.4648 778.0358C255.3577 811.9645 305.6791 868.143 350.322 914.8574L337.1077 928.0717C274.8931 899.6789 202.8574 859.429 160.6429 836.8219ZM190.4645 688.0358Z" glyph-name="Icaron" horiz-adv-x="379.5362" unicode="&#463;" /><glyph d="M125.3569 582.0002V106.0356H254.1793V582.0002ZM254.1793 52.9644V106.0356H125.3569V83.6431C125.3569 57.9644 114.8925 48.3216 87.4282 37.2501L46.4284 23.0358L48.4284 0H331.1078L333.1078 23.0358ZM125.3569 635.0713V582.0002H254.1794V604.3927C254.1794 630.0713 264.6437 639.7142 292.1081 650.7857L333.1079 665L331.1079 688.0358H48.4284L46.4284 665ZM190.4646 688.0358ZM331.1078 0ZM190.0717 0ZM220.5005 862.857 156.8572 862.0713C216.3573 836.5357 282.1432 801.3928 335.7148 771.6072L350.9291 782.2143C317.6435 828.3928 272.8578 882.6786 231.9291 928.0717H159.7144L150.6787 921.6431C125.7857 887.7144 75.4643 831.5358 30.8214 784.8215L44.0358 771.6072C106.2502 800 178.286 840.2499 220.5005 862.857ZM190.4646 688.0358Z" glyph-name="Icircumflex" horiz-adv-x="379.5362" unicode="&#206;" /><glyph d="M125.3569 582.0002V106.0356H254.1793V582.0002ZM254.1793 52.9644V106.0356H125.3569V83.6431C125.3569 57.9644 114.8925 48.3216 87.4282 37.2501L46.4284 23.0358L48.4284 0H331.1078L333.1078 23.0358ZM125.3569 635.0713V582.0002H254.1794V604.3927C254.1794 630.0713 264.6437 639.7142 292.1081 650.7857L333.1079 665L331.1079 688.0358H48.4284L46.4284 665ZM190.4646 688.0358ZM331.1078 0ZM190.0717 0ZM370.8222 857.2145C370.8222 891.3575 344.4649 915.2505 308.7148 915.2505C265.286 915.2505 231.0715 881.7146 231.0715 842.3216C231.0715 810 256.6073 783.4999 294.7861 783.4999C340.0006 783.4999 370.8222 816.6072 370.8222 857.2145ZM149.8576 857.2145C149.8576 891.3575 123.5003 915.2505 87.7502 915.2505C44.3213 915.2505 10.1068 881.7146 10.1068 842.3216C10.1068 810 35.6427 783.4999 73.8214 783.4999C119.0359 783.4999 149.8576 816.6072 149.8576 857.2145ZM190.4646 688.0358ZM188.036 932.3217Z" glyph-name="Idieresis" horiz-adv-x="379.5362" unicode="&#207;" /><glyph d="M125.3569 582.0002V106.0356H254.1793V582.0002ZM254.1793 52.9644V106.0356H125.3569V83.6431C125.3569 57.9644 114.8925 48.3216 87.4282 37.2501L46.4284 23.0358L48.4284 0H331.1078L333.1078 23.0358ZM125.3569 635.0713V582.0002H254.1794V604.3927C254.1794 630.0713 264.6437 639.7142 292.1081 650.7857L333.1079 665L331.1079 688.0358H48.4284L46.4284 665ZM190.4646 688.0358ZM331.1078 0ZM190.0717 0ZM269.3222 856.2503C269.3222 894.429 239.9291 919.5362 200.3575 919.5362C152.2858 919.5362 112.8212 883.3575 112.8212 841.3216C112.8212 804.75 142.6071 776.2141 185.2145 776.2141C234.8576 776.2141 269.3222 811.5714 269.3222 856.2503ZM190.4646 688.0358Z" glyph-name="Idotaccent" horiz-adv-x="379.5362" unicode="&#304;" /><glyph d="M125.3569 582.0002V106.0356H254.1793V582.0002ZM254.1793 52.9644V106.0356H125.3569V83.6431C125.3569 57.9644 114.8925 48.3216 87.4282 37.2501L46.4284 23.0358L48.4284 0H331.1078L333.1078 23.0358ZM125.3569 635.0713V582.0002H254.1794V604.3927C254.1794 630.0713 264.6437 639.7142 292.1081 650.7857L333.1079 665L331.1079 688.0358H48.4284L46.4284 665ZM190.4646 688.0358ZM331.1078 0ZM190.0717 0ZM264.3222 -157.107C264.3222 -116.9283 236.5362 -89.821 199.3575 -89.821C153.2858 -89.821 115.8212 -127.9998 115.8212 -172.0358C115.8212 -210.6073 144 -241.1432 184.2145 -241.1432C231.4648 -241.1432 264.3222 -203.7859 264.3222 -157.107ZM190.0717 0Z" glyph-name="Idotbelow" horiz-adv-x="379.5362" unicode="&#7882;" /><glyph d="M125.3569 582.0002V106.0356H254.1793V582.0002ZM254.1793 52.9644V106.0356H125.3569V83.6431C125.3569 57.9644 114.8925 48.3216 87.4282 37.2501L46.4284 23.0358L48.4284 0H331.1078L333.1078 23.0358ZM125.3569 635.0713V582.0002H254.1794V604.3927C254.1794 630.0713 264.6437 639.7142 292.1081 650.7857L333.1079 665L331.1079 688.0358H48.4284L46.4284 665ZM190.4646 688.0358ZM331.1078 0ZM190.0717 0ZM323.0362 791.3571C233.1434 830.2858 152.5718 886.0359 108.3575 923.1074L97.7146 924.7146C69.143 914.8574 42.107 892.2858 42.107 868.3571C42.107 802.0711 197.8212 776.2856 317.2505 773.5357ZM190.4646 688.0358Z" glyph-name="Igrave" horiz-adv-x="379.5362" unicode="&#204;" /><glyph d="M125.3569 582.0002V106.0356H254.1793V582.0002ZM254.1793 52.9644V106.0356H125.3569V83.6431C125.3569 57.9644 114.8925 48.3216 87.4282 37.2501L46.4284 23.0358L48.4284 0H331.1078L333.1078 23.0358ZM125.3569 635.0713V582.0002H254.1794V604.3927C254.1794 630.0713 264.6437 639.7142 292.1081 650.7857L333.1079 665L331.1079 688.0358H48.4284L46.4284 665ZM190.4646 688.0358ZM331.1078 0ZM190.0717 0ZM33.7142 815.7857H347.2149V883.3217H33.7142ZM190.4646 688.0358Z" glyph-name="Imacron" horiz-adv-x="379.5362" unicode="&#298;" /><glyph d="M125.3569 582.0002V106.0356H254.1793V582.0002ZM254.1793 52.9644V106.0356H125.3569V83.6431C125.3569 57.9644 114.8925 48.3216 87.4282 37.2501L46.4284 23.0358L48.4284 0H331.1078L333.1078 23.0358ZM125.3569 635.0713V582.0002H254.1794V604.3927C254.1794 630.0713 264.6437 639.7142 292.1081 650.7857L333.1079 665L331.1079 688.0358H48.4284L46.4284 665ZM190.4646 688.0358ZM331.1078 0ZM190.0717 0ZM318.1077 -181.6071 314.1077 -169.5714C296.1434 -173.3571 283.7505 -174.75 266.9649 -174.75C234.2149 -174.75 215.2507 -156.3571 215.2507 -125.7857C215.2507 -79.5357 256.1078 -31.4642 331.1079 0L324.7508 13.3571C189.286 -16.6427 113.7499 -73.8928 113.7499 -150.7501C113.7499 -205.6431 151.4643 -241.1432 207.5716 -241.1432C252.9647 -241.1432 294.0719 -219.4288 318.1077 -181.6071ZM331.1079 0Z" glyph-name="Iogonek" horiz-adv-x="379.5362" unicode="&#302;" /><glyph d="M125.3569 582.0002V106.0356H254.1793V582.0002ZM254.1793 52.9644V106.0356H125.3569V83.6431C125.3569 57.9644 114.8925 48.3216 87.4282 37.2501L46.4284 23.0358L48.4284 0H331.1078L333.1078 23.0358ZM125.3569 635.0713V582.0002H254.1794V604.3927C254.1794 630.0713 264.6437 639.7142 292.1081 650.7857L333.1079 665L331.1079 688.0358H48.4284L46.4284 665ZM190.4646 688.0358ZM331.1078 0ZM190.0717 0ZM65.5716 838.4642C119.0004 826.1426 220.5714 776.3571 287.9644 776.3571C350.0004 776.3571 378.1076 829.143 382.8218 894.143C382.8218 903.8574 382.2147 910.5361 381.6076 917.8219L363.9647 923.8219C355.7148 909.6793 320.4646 864.3575 315.3575 856.5005C260.7502 868.4292 161.5362 918.6076 92.9647 918.6076C31.3216 918.6076 2.0358 864.0002 -2.6784 795.5716C-2.6784 789.5001 -2.0713 782.8215 -1.4641 776.75L16.1788 771.1428C24.0358 784.8926 61.2502 833.75 65.5716 838.4642ZM190.4646 688.0358ZM187.8574 930.0358Z" glyph-name="Itilde" horiz-adv-x="379.5362" unicode="&#296;" /><glyph d="M125.7498 582.0002V113.7144C125.7498 -10.1068 97.6069 -82.8572 46.4284 -151.1786L62.2141 -170C160.0715 -135.6433 254.5722 -53.2143 254.5722 78.0357V582.0002ZM125.7497 635.0713V582.0002H254.5722V604.3927C254.5722 630.0713 265.0365 639.7142 292.5009 650.7857L333.5007 665L331.5007 688.0358H48.8212L46.8212 665ZM188.036 685Z" glyph-name="J" horiz-adv-x="363.9291" unicode="J" /><glyph d="M125.7498 582.0002V113.7144C125.7498 -10.1068 97.6069 -82.8572 46.4284 -151.1786L62.2141 -170C160.0715 -135.6433 254.5722 -53.2143 254.5722 78.0357V582.0002ZM125.7497 635.0713V582.0002H254.5722V604.3927C254.5722 630.0713 265.0365 639.7142 292.5009 650.7857L333.5007 665L331.5007 688.0358H48.8212L46.8212 665ZM188.036 685ZM218.0719 859.8212 154.4286 859.0355C213.9287 833.4999 279.7146 798.3571 333.2862 768.5714L348.5005 779.1785C315.2149 825.3571 270.4292 879.6429 229.5005 925.0359H157.2858L148.25 918.6073C123.3571 884.6786 73.0357 828.5001 28.3928 781.7857L41.6072 768.5714C103.8216 796.9642 175.8574 837.2141 218.0719 859.8212ZM188.036 685Z" glyph-name="Jcircumflex" horiz-adv-x="363.9291" unicode="&#308;" /><glyph d="M425.9651 407.6793 338.8572 356.0715 254.1793 355.2858V308.9285H338.4644L473.9642 62.1071C497.9285 18.9285 519.107 -3.6429 571.857 -3.0358L700.6794 0L702.6794 20L674.0723 34.8929C619.9293 65.3217 596.6793 116.1793 552.7148 191.0725ZM336.5001 352.5358 348.2856 313.6427 572.0362 597.1784C589.679 619.1784 603.9291 632.8212 622.9291 641.6784C634.465 648.9642 669.7861 659.5357 686.1792 665L684.1792 688.0358H451.2502L449.2502 665L534.2503 639.3214ZM125.3569 582.0002V106.0356H254.1793V582.0002ZM254.1793 52.9644V106.0356H125.3569V83.6431C125.3569 57.9644 114.8925 48.3216 87.4282 37.2501L46.4284 23.0358L48.4284 0H331.1078L333.1078 23.0358ZM125.3569 635.0713V582.0002H254.1794V604.3927C254.1794 630.0713 264.6437 639.7142 292.1081 650.7857L333.1079 665L331.1079 688.0358H48.4284L46.4284 665ZM364.6789 688.0358ZM380.8216 0Z" glyph-name="K" horiz-adv-x="723.6435" unicode="K" /><glyph d="M448.9649 -161.9642C448.9649 -117.3569 422.429 -89.821 380.8216 -89.821C342.6429 -89.821 312.7142 -120.5354 312.7142 -162.1428C312.7142 -198.0715 340.4286 -224.6073 380.0002 -224.6073L367.9287 -189.5716C367.5358 -238.286 342.8572 -301.4645 321.25 -332.6431L332.8572 -342.8574C389.0717 -314.1074 448.9649 -234.6073 448.9649 -161.9642ZM380.8216 0ZM425.9651 407.6793 338.8572 356.0715 254.1793 355.2858V308.9285H338.4644L473.9642 62.1071C497.9285 18.9285 519.107 -3.6429 571.857 -3.0358L700.6794 0L702.6794 20L674.0723 34.8929C619.9293 65.3217 596.6793 116.1793 552.7148 191.0725ZM336.5001 352.5358 348.2856 313.6427 572.0362 597.1784C589.679 619.1784 603.9291 632.8212 622.9291 641.6784C634.465 648.9642 669.7861 659.5357 686.1792 665L684.1792 688.0358H451.2502L449.2502 665L534.2503 639.3214ZM125.3569 582.0002V106.0356H254.1793V582.0002ZM254.1793 52.9644V106.0356H125.3569V83.6431C125.3569 57.9644 114.8925 48.3216 87.4282 37.2501L46.4284 23.0358L48.4284 0H331.1078L333.1078 23.0358ZM125.3569 635.0713V582.0002H254.1794V604.3927C254.1794 630.0713 264.6437 639.7142 292.1081 650.7857L333.1079 665L331.1079 688.0358H48.4284L46.4284 665ZM364.6789 688.0358ZM380.8216 0Z" glyph-name="Kcommaaccent" horiz-adv-x="723.6435" unicode="&#310;" /><glyph d="M125.3569 582.0002V106.0356H254.1793V582.0002ZM254.1793 0H541.8578C546.465 28.2858 549.6793 56.0358 549.6793 95.7859C549.6793 138.5718 546.2506 173.679 539.3935 206.6078H515.2862L487.6431 138.2145C474.7859 101.0359 460.6787 72.9287 448.2143 51.9287C424.6787 47.3573 391.6431 45.1788 362.8218 45.1788H254.1793ZM254.1793 0V106.0356H125.3569V83.6431C125.3569 57.9644 114.8925 48.3216 87.4282 37.2501L46.4284 23.0358L48.4284 0ZM125.3569 635.0713V582.0002H254.1794V604.3927C254.1794 630.0713 264.6437 639.7142 292.1081 650.7857L333.1079 665L331.1079 688.0358H48.4284L46.4284 665ZM490.6433 480.3575ZM199.5003 688.0358ZM191.6431 345ZM328.2143 0Z" glyph-name="L" horiz-adv-x="591.1077" unicode="L" /><glyph d="M125.3569 582.0002V106.0356H254.1793V582.0002ZM254.1793 0H541.8578C546.465 28.2858 549.6793 56.0358 549.6793 95.7859C549.6793 138.5718 546.2506 173.679 539.3935 206.6078H515.2862L487.6431 138.2145C474.7859 101.0359 460.6787 72.9287 448.2143 51.9287C424.6787 47.3573 391.6431 45.1788 362.8218 45.1788H254.1793ZM254.1793 0V106.0356H125.3569V83.6431C125.3569 57.9644 114.8925 48.3216 87.4282 37.2501L46.4284 23.0358L48.4284 0ZM125.3569 635.0713V582.0002H254.1794V604.3927C254.1794 630.0713 264.6437 639.7142 292.1081 650.7857L333.1079 665L331.1079 688.0358H48.4284L46.4284 665ZM490.6433 480.3575ZM199.5003 688.0358ZM191.6431 345ZM328.2143 0ZM281.6073 922.7146C237.393 885.6431 156.8214 829.893 66.9287 790.9642L72.7144 773.1428C192.1436 775.8927 347.8578 801.6783 347.8578 867.9642C347.8578 891.893 320.8218 914.4646 292.2502 924.3217ZM199.5003 688.0358ZM179.4643 880.8574Z" glyph-name="Lacute" horiz-adv-x="591.1077" unicode="&#313;" /><glyph d="M551.4292 675.8216C551.4292 713.1432 528.5362 736.429 492.3932 736.429C459.0717 736.429 433.3931 710.5718 433.3931 675.0359C433.3931 644.5716 457.4645 622.2858 492.1789 622.2858L481.3217 653.0715C480.9289 611.0358 459.286 555.7501 440.1074 528.2145L450.5003 519.2145C499.429 544.9287 551.4292 613.5001 551.4292 675.8216ZM490.6433 480.3575ZM125.3569 582.0002V106.0356H254.1793V582.0002ZM254.1793 0H541.8578C546.465 28.2858 549.6793 56.0358 549.6793 95.7859C549.6793 138.5718 546.2506 173.679 539.3935 206.6078H515.2862L487.6431 138.2145C474.7859 101.0359 460.6787 72.9287 448.2143 51.9287C424.6787 47.3573 391.6431 45.1788 362.8218 45.1788H254.1793ZM254.1793 0V106.0356H125.3569V83.6431C125.3569 57.9644 114.8925 48.3216 87.4282 37.2501L46.4284 23.0358L48.4284 0ZM125.3569 635.0713V582.0002H254.1794V604.3927C254.1794 630.0713 264.6437 639.7142 292.1081 650.7857L333.1079 665L331.1079 688.0358H48.4284L46.4284 665ZM490.6433 480.3575ZM199.5003 688.0358ZM191.6431 345ZM328.2143 0Z" glyph-name="Lcaron" horiz-adv-x="593.4647" unicode="&#317;" /><glyph d="M396.3575 -161.9642C396.3575 -117.3569 369.8216 -89.821 328.2143 -89.821C290.0356 -89.821 260.1069 -120.5354 260.1069 -162.1428C260.1069 -198.0715 287.8213 -224.6073 327.3929 -224.6073L315.3214 -189.5716C314.9285 -238.286 290.2499 -301.4645 268.6427 -332.6431L280.2499 -342.8574C336.4644 -314.1074 396.3575 -234.6073 396.3575 -161.9642ZM328.2143 0ZM125.3569 582.0002V106.0356H254.1793V582.0002ZM254.1793 0H541.8578C546.465 28.2858 549.6793 56.0358 549.6793 95.7859C549.6793 138.5718 546.2506 173.679 539.3935 206.6078H515.2862L487.6431 138.2145C474.7859 101.0359 460.6787 72.9287 448.2143 51.9287C424.6787 47.3573 391.6431 45.1788 362.8218 45.1788H254.1793ZM254.1793 0V106.0356H125.3569V83.6431C125.3569 57.9644 114.8925 48.3216 87.4282 37.2501L46.4284 23.0358L48.4284 0ZM125.3569 635.0713V582.0002H254.1794V604.3927C254.1794 630.0713 264.6437 639.7142 292.1081 650.7857L333.1079 665L331.1079 688.0358H48.4284L46.4284 665ZM490.6433 480.3575ZM199.5003 688.0358ZM191.6431 345ZM328.2143 0Z" glyph-name="Lcommaaccent" horiz-adv-x="591.1077" unicode="&#315;" /><glyph d="M125.3569 582.0002V106.0356H254.1793V582.0002ZM254.1793 0H541.8578C546.465 28.2858 549.6793 56.0358 549.6793 95.7859C549.6793 138.5718 546.2506 173.679 539.3935 206.6078H515.2862L487.6431 138.2145C474.7859 101.0359 460.6787 72.9287 448.2143 51.9287C424.6787 47.3573 391.6431 45.1788 362.8218 45.1788H254.1793ZM254.1793 0V106.0356H125.3569V83.6431C125.3569 57.9644 114.8925 48.3216 87.4282 37.2501L46.4284 23.0358L48.4284 0ZM125.3569 635.0713V582.0002H254.1794V604.3927C254.1794 630.0713 264.6437 639.7142 292.1081 650.7857L333.1079 665L331.1079 688.0358H48.4284L46.4284 665ZM490.6433 480.3575ZM199.5003 688.0358ZM191.6431 345ZM328.2143 0ZM524.4656 407.429C524.4656 447.6078 496.6797 474.715 459.5009 474.715C413.4292 474.715 375.9647 436.5362 375.9647 392.5003C375.9647 353.9287 404.1434 323.3928 444.3579 323.3928C491.6082 323.3928 524.4656 360.7501 524.4656 407.429Z" glyph-name="Ldot" horiz-adv-x="591.1077" unicode="&#319;" /><glyph d="M125.3569 582.0002V106.0356H254.1793V582.0002ZM254.1793 0H541.8578C546.465 28.2858 549.6793 56.0358 549.6793 95.7859C549.6793 138.5718 546.2506 173.679 539.3935 206.6078H515.2862L487.6431 138.2145C474.7859 101.0359 460.6787 72.9287 448.2143 51.9287C424.6787 47.3573 391.6431 45.1788 362.8218 45.1788H254.1793ZM254.1793 0V106.0356H125.3569V83.6431C125.3569 57.9644 114.8925 48.3216 87.4282 37.2501L46.4284 23.0358L48.4284 0ZM125.3569 635.0713V582.0002H254.1794V604.3927C254.1794 630.0713 264.6437 639.7142 292.1081 650.7857L333.1079 665L331.1079 688.0358H48.4284L46.4284 665ZM490.6433 480.3575ZM199.5003 688.0358ZM191.6431 345ZM328.2143 0ZM379.7148 422.4643 356.6433 463.7859 2.7857 267.5357 24.8572 226.2141ZM191.6431 345Z" glyph-name="Lslash" horiz-adv-x="591.1077" unicode="&#321;" /><glyph d="M168.3213 52.9644 227.714 592.9994 213.9283 590.9994 385.8568 136.428 431.178 0H496.1426L544.4995 136.428L711.2495 583.678L697.4638 585.678L755.2135 74.2147C757.0349 56.0002 730.2137 45.1788 711.3921 36.0715L676.285 23.0358L678.285 0H962.2145L964.2145 23.0358L918.9647 39.6786C910.322 41.6429 886.4646 54.9287 885.286 62.3929L822.2505 634.6784L901.9647 665L899.9647 688.0358H696.4995L496.6071 147.3585H516.6072L314.7863 688.0358H103.2497L101.2497 665L180.571 634.6784L120.3569 83.6431C117.3569 57.9644 109.8925 48.3216 82.4282 37.2501L41.4284 23.0358L43.4284 0H247.0713L249.0713 23.0358Z" glyph-name="M" horiz-adv-x="1002.6429" unicode="M" /><glyph d="M633.9289 582.0002H583.7501V133.0368L599.7501 138.0368L236.2507 688.0358H48.4284L46.4284 665L92.2854 648.9642C100.9281 647 125.3569 633.107 125.3569 625.6429V106.0356H175.5357V586.8208L153.4641 581.8208L547.3211 0H633.9289ZM583.7502 635.0713V582.0002H633.9289V604.3927C633.9289 630.0713 644.3932 639.7142 671.8576 650.7857L712.8574 665L710.8574 688.0358H506.8216L504.8216 665ZM175.5357 52.9644V106.0356H125.3569V83.6431C125.3569 57.9644 114.8925 48.3216 87.4282 37.2501L46.4284 23.0358L48.4284 0H272.4641L274.4641 23.0358ZM392.7146 685ZM376.5714 0Z" glyph-name="N" horiz-adv-x="743.2858" unicode="N" /><glyph d="M474.8216 919.6789C430.6073 882.6073 350.0358 826.8572 260.143 787.9285L265.9287 770.107C385.3579 772.857 541.0721 798.6425 541.0721 864.9285C541.0721 888.8572 514.0362 911.4288 485.4646 921.286ZM392.7146 685ZM372.6787 877.8216ZM633.9289 582.0002H583.7501V133.0368L599.7501 138.0368L236.2507 688.0358H48.4284L46.4284 665L92.2854 648.9642C100.9281 647 125.3569 633.107 125.3569 625.6429V106.0356H175.5357V586.8208L153.4641 581.8208L547.3211 0H633.9289ZM583.7502 635.0713V582.0002H633.9289V604.3927C633.9289 630.0713 644.3932 639.7142 671.8576 650.7857L712.8574 665L710.8574 688.0358H506.8216L504.8216 665ZM175.5357 52.9644V106.0356H125.3569V83.6431C125.3569 57.9644 114.8925 48.3216 87.4282 37.2501L46.4284 23.0358L48.4284 0H272.4641L274.4641 23.0358ZM392.7146 685ZM376.5714 0Z" glyph-name="Nacute" horiz-adv-x="743.2858" unicode="&#323;" /><glyph d="M362.8929 833.7861 426.5362 834.5718C367.0362 860.1074 301.2502 895.2503 247.6787 925.0359L232.4644 914.4288C265.75 868.2503 310.5356 813.9645 351.4644 768.5714H423.679L432.7148 775C457.6078 808.9287 507.9291 865.1073 552.572 911.8216L539.3577 925.0359C477.1432 896.6431 405.1074 856.3932 362.8929 833.7861ZM392.7146 685ZM633.9289 582.0002H583.7501V133.0368L599.7501 138.0368L236.2507 688.0358H48.4284L46.4284 665L92.2854 648.9642C100.9281 647 125.3569 633.107 125.3569 625.6429V106.0356H175.5357V586.8208L153.4641 581.8208L547.3211 0H633.9289ZM583.7502 635.0713V582.0002H633.9289V604.3927C633.9289 630.0713 644.3932 639.7142 671.8576 650.7857L712.8574 665L710.8574 688.0358H506.8216L504.8216 665ZM175.5357 52.9644V106.0356H125.3569V83.6431C125.3569 57.9644 114.8925 48.3216 87.4282 37.2501L46.4284 23.0358L48.4284 0H272.4641L274.4641 23.0358ZM392.7146 685ZM376.5714 0Z" glyph-name="Ncaron" horiz-adv-x="743.2858" unicode="&#327;" /><glyph d="M444.7146 -161.9642C444.7146 -117.3569 418.1788 -89.821 376.5714 -89.821C338.3927 -89.821 308.464 -120.5354 308.464 -162.1428C308.464 -198.0715 336.1784 -224.6073 375.75 -224.6073L363.6784 -189.5716C363.2856 -238.286 338.6069 -301.4645 316.9998 -332.6431L328.6069 -342.8574C384.8215 -314.1074 444.7146 -234.6073 444.7146 -161.9642ZM376.5714 0ZM633.9289 582.0002H583.7501V133.0368L599.7501 138.0368L236.2507 688.0358H48.4284L46.4284 665L92.2854 648.9642C100.9281 647 125.3569 633.107 125.3569 625.6429V106.0356H175.5357V586.8208L153.4641 581.8208L547.3211 0H633.9289ZM583.7502 635.0713V582.0002H633.9289V604.3927C633.9289 630.0713 644.3932 639.7142 671.8576 650.7857L712.8574 665L710.8574 688.0358H506.8216L504.8216 665ZM175.5357 52.9644V106.0356H125.3569V83.6431C125.3569 57.9644 114.8925 48.3216 87.4282 37.2501L46.4284 23.0358L48.4284 0H272.4641L274.4641 23.0358ZM392.7146 685ZM376.5714 0Z" glyph-name="Ncommaaccent" horiz-adv-x="743.2858" unicode="&#325;" /><glyph d="M471.5722 853.2145C471.5722 891.3932 442.1792 916.5005 402.6076 916.5005C354.5358 916.5005 315.0713 880.3217 315.0713 838.2858C315.0713 801.7142 344.8572 773.1784 387.4646 773.1784C437.1077 773.1784 471.5722 808.5357 471.5722 853.2145ZM392.7146 685ZM633.9289 582.0002H583.7501V133.0368L599.7501 138.0368L236.2507 688.0358H48.4284L46.4284 665L92.2854 648.9642C100.9281 647 125.3569 633.107 125.3569 625.6429V106.0356H175.5357V586.8208L153.4641 581.8208L547.3211 0H633.9289ZM583.7502 635.0713V582.0002H633.9289V604.3927C633.9289 630.0713 644.3932 639.7142 671.8576 650.7857L712.8574 665L710.8574 688.0358H506.8216L504.8216 665ZM175.5357 52.9644V106.0356H125.3569V83.6431C125.3569 57.9644 114.8925 48.3216 87.4282 37.2501L46.4284 23.0358L48.4284 0H272.4641L274.4641 23.0358ZM392.7146 685ZM376.5714 0Z" glyph-name="Ndotaccent" horiz-adv-x="743.2858" unicode="&#7748;" /><glyph d="M40.2497 -170C132.6427 -98 175.5357 -52 175.5357 75V586.8208L153.4641 581.8208L547.3211 0H633.9289V582.0002H583.7501V133.0368L599.7501 138.0368L236.2507 688.0358H48.4284L46.4284 665L92.2854 648.9642C100.9281 647 125.3569 633.107 125.3569 625.6429V104C125.3569 -35.3929 86.714 -78.3928 24.0354 -153.7857ZM583.7502 635.0713V582.0002H633.9289V604.3927C633.9289 630.0713 644.3932 639.7142 671.8576 650.7857L712.8574 665L710.8574 688.0358H506.8216L504.8216 665Z" glyph-name="Nhookleft" horiz-adv-x="743.2858" unicode="&#413;" /><glyph d="M267.8216 835.4284C321.2505 823.1069 422.8214 773.3214 490.2145 773.3214C552.2505 773.3214 580.3577 826.1073 585.0719 891.1073C585.0719 900.8216 584.4647 907.5003 583.8576 914.7861L566.2147 920.7861C557.9649 906.6435 522.7146 861.3217 517.6075 853.4647C463.0002 865.3935 363.7863 915.5718 295.2147 915.5718C233.5716 915.5718 204.2858 860.9645 199.5716 792.5358C199.5716 786.4643 200.1787 779.7857 200.7859 773.7142L218.4288 768.107C226.2858 781.8568 263.5003 830.7142 267.8216 835.4284ZM392.7146 685ZM390.1074 927ZM633.9289 582.0002H583.7501V133.0368L599.7501 138.0368L236.2507 688.0358H48.4284L46.4284 665L92.2854 648.9642C100.9281 647 125.3569 633.107 125.3569 625.6429V106.0356H175.5357V586.8208L153.4641 581.8208L547.3211 0H633.9289ZM583.7502 635.0713V582.0002H633.9289V604.3927C633.9289 630.0713 644.3932 639.7142 671.8576 650.7857L712.8574 665L710.8574 688.0358H506.8216L504.8216 665ZM175.5357 52.9644V106.0356H125.3569V83.6431C125.3569 57.9644 114.8925 48.3216 87.4282 37.2501L46.4284 23.0358L48.4284 0H272.4641L274.4641 23.0358ZM392.7146 685ZM376.5714 0Z" glyph-name="Ntilde" horiz-adv-x="743.2858" unicode="&#209;" /><glyph d="M49.4284 344.2143C49.4284 121.5714 174.9287 -10 357.0004 -10C536.0363 -10 666.5724 125.4999 666.5724 349.2143C666.5724 571.9287 537.465 698.0358 361.7504 698.0358C188.9644 698.0358 49.4284 568.2858 49.4284 344.2143ZM182.4651 344.2143C183.0723 531.9285 251.6078 650.8927 361.7504 650.8927C471.1787 650.8927 534.1428 533.1428 533.5357 349.2143C532.9285 164.1072 470.5716 37.143 360.0004 37.143C249.4292 37.143 181.858 156.1072 182.4651 344.2143ZM358.3933 688.0358ZM438.1434 0ZM358.0004 344.2143ZM357.6076 0Z" glyph-name="O" horiz-adv-x="716.0008" unicode="O" /><glyph d="M461.0717 688.0358V0H589.8941V688.0358ZM589.8941 0H881.1082C885.7154 29.4643 888.9297 58.7857 888.9297 99.7144C888.9297 142.5003 885.5011 177.6076 878.6439 210.5362H854.5367L822.9651 130.3575C812.6435 108.5001 794.4292 62.3218 784.7148 49.5716C761.9648 46.5716 729.715 45.1788 702.0723 45.1788H589.8941ZM589.8941 688.0358V642.857H692.0723C719.715 642.857 751.9648 641.0713 774.7148 638.4642C784.4292 625.714 802.6435 579.5357 812.9651 557.6783L844.5367 477.4995H868.6439C875.5011 511.6067 878.9297 545.5354 878.9297 588.3214C878.9297 629.25 875.7154 658.5714 871.1082 688.0358ZM589.8941 363.0358V320.8927L783.7867 313.2498L786.3939 371.0715ZM532.7152 645.9996C493.9651 680.2856 445.5362 698.0358 392.6431 698.0358C206.4643 698.0358 49.0356 565.9287 49.0356 342.25C49.0356 120.3928 192.2143 -10 387.8931 -10C442.2505 -10 489.2149 6.7144 527.9293 37.9289L504.8576 92.9648C479.4647 56.7146 446.2147 36.3573 399.2147 36.3573C268.1434 36.3573 181.4651 155.3216 182.0723 342.25C182.6795 531.5357 268.9649 651.6784 402.1432 651.6784C443.2505 651.6784 474.7148 634.1426 499.322 602.4995Z" glyph-name="OE" horiz-adv-x="938.3581" unicode="&#338;" /><glyph d="M440.5003 922.7146C396.286 885.6431 315.7144 829.893 225.8217 790.9642L231.6073 773.1428C351.0366 775.8927 506.7508 801.6783 506.7508 867.9642C506.7508 891.893 479.7148 914.4646 451.1432 924.3217ZM358.3933 688.0358ZM338.3573 880.8574ZM49.4284 344.2143C49.4284 121.5714 174.9287 -10 357.0004 -10C536.0363 -10 666.5724 125.4999 666.5724 349.2143C666.5724 571.9287 537.465 698.0358 361.7504 698.0358C188.9644 698.0358 49.4284 568.2858 49.4284 344.2143ZM182.4651 344.2143C183.0723 531.9285 251.6078 650.8927 361.7504 650.8927C471.1787 650.8927 534.1428 533.1428 533.5357 349.2143C532.9285 164.1072 470.5716 37.143 360.0004 37.143C249.4292 37.143 181.858 156.1072 182.4651 344.2143ZM358.3933 688.0358ZM438.1434 0ZM358.0004 344.2143ZM357.6076 0Z" glyph-name="Oacute" horiz-adv-x="716.0008" unicode="&#211;" /><glyph d="M471.5362 918.3575C456.7505 882.5718 413.6791 860.7861 357.9647 860.7861C298.4646 860.7861 256.2145 883.7861 244.2502 920.9647L223.6073 916.7504C230.9644 832.1073 280.8216 781.3571 352.3575 781.3571C426.7148 781.3571 480.0006 830.893 493.1791 915.5361L476.1434 920.3575ZM358.3932 688.0358ZM49.4284 344.2143C49.4284 121.5714 174.9287 -10 357.0004 -10C536.0363 -10 666.5724 125.4999 666.5724 349.2143C666.5724 571.9287 537.465 698.0358 361.7504 698.0358C188.9644 698.0358 49.4284 568.2858 49.4284 344.2143ZM182.4651 344.2143C183.0723 531.9285 251.6078 650.8927 361.7504 650.8927C471.1787 650.8927 534.1428 533.1428 533.5357 349.2143C532.9285 164.1072 470.5716 37.143 360.0004 37.143C249.4292 37.143 181.858 156.1072 182.4651 344.2143ZM358.3933 688.0358ZM438.1434 0ZM358.0004 344.2143ZM357.6076 0Z" glyph-name="Obreve" horiz-adv-x="716.0008" unicode="&#334;" /><glyph d="M49.4284 344.2143C49.4284 121.5714 174.9287 -10 357.0004 -10C536.0363 -10 666.5724 125.4999 666.5724 349.2143C666.5724 571.9287 537.465 698.0358 361.7504 698.0358C188.9644 698.0358 49.4284 568.2858 49.4284 344.2143ZM182.4651 344.2143C183.0723 531.9285 251.6078 650.8927 361.7504 650.8927C471.1787 650.8927 534.1428 533.1428 533.5357 349.2143C532.9285 164.1072 470.5716 37.143 360.0004 37.143C249.4292 37.143 181.858 156.1072 182.4651 344.2143ZM358.3933 688.0358ZM438.1434 0ZM358.0004 344.2143ZM357.6076 0ZM328.5716 836.8219 392.2149 837.6076C332.7148 863.1432 266.9289 898.286 213.3573 928.0717L198.143 917.4646C231.4286 871.286 276.2143 817.0002 317.143 771.6072H389.3577L398.3935 778.0358C423.2864 811.9645 473.6078 868.143 518.2507 914.8574L505.0364 928.0717C442.8219 899.6789 370.7861 859.429 328.5716 836.8219ZM358.3932 688.0358Z" glyph-name="Ocaron" horiz-adv-x="716.0008" unicode="&#465;" /><glyph d="M49.4284 344.2143C49.4284 121.5714 174.9287 -10 357.0004 -10C536.0363 -10 666.5724 125.4999 666.5724 349.2143C666.5724 571.9287 537.465 698.0358 361.7504 698.0358C188.9644 698.0358 49.4284 568.2858 49.4284 344.2143ZM182.4651 344.2143C183.0723 531.9285 251.6078 650.8927 361.7504 650.8927C471.1787 650.8927 534.1428 533.1428 533.5357 349.2143C532.9285 164.1072 470.5716 37.143 360.0004 37.143C249.4292 37.143 181.858 156.1072 182.4651 344.2143ZM358.3933 688.0358ZM438.1434 0ZM358.0004 344.2143ZM357.6076 0ZM388.4292 862.857 324.7859 862.0713C384.286 836.5357 450.0719 801.3928 503.6435 771.6072L518.8578 782.2143C485.5722 828.3928 440.7865 882.6786 399.8578 928.0717H327.6431L318.6073 921.6431C293.7144 887.7144 243.393 831.5358 198.7501 784.8215L211.9644 771.6072C274.1789 800 346.2147 840.2499 388.4292 862.857ZM358.3932 688.0358Z" glyph-name="Ocircumflex" horiz-adv-x="716.0008" unicode="&#212;" /><glyph d="M49.4284 344.2143C49.4284 121.5714 174.9287 -10 357.0004 -10C536.0363 -10 666.5724 125.4999 666.5724 349.2143C666.5724 571.9287 537.465 698.0358 361.7504 698.0358C188.9644 698.0358 49.4284 568.2858 49.4284 344.2143ZM182.4651 344.2143C183.0723 531.9285 251.6078 650.8927 361.7504 650.8927C471.1787 650.8927 534.1428 533.1428 533.5357 349.2143C532.9285 164.1072 470.5716 37.143 360.0004 37.143C249.4292 37.143 181.858 156.1072 182.4651 344.2143ZM358.3933 688.0358ZM438.1434 0ZM358.0004 344.2143ZM357.6076 0ZM538.7509 857.2145C538.7509 891.3575 512.3936 915.2505 476.6435 915.2505C433.2147 915.2505 399.0002 881.7146 399.0002 842.3216C399.0002 810 424.536 783.4999 462.7148 783.4999C507.9293 783.4999 538.7509 816.6072 538.7509 857.2145ZM317.7863 857.2145C317.7863 891.3575 291.429 915.2505 255.6789 915.2505C212.25 915.2505 178.0356 881.7146 178.0356 842.3216C178.0356 810 203.5714 783.4999 241.7501 783.4999C286.9647 783.4999 317.7863 816.6072 317.7863 857.2145ZM358.3933 688.0358ZM355.9647 932.3217Z" glyph-name="Odieresis" horiz-adv-x="716.0008" unicode="&#214;" /><glyph d="M49.4284 344.2143C49.4284 121.5714 174.9287 -10 357.0004 -10C536.0363 -10 666.5724 125.4999 666.5724 349.2143C666.5724 571.9287 537.465 698.0358 361.7504 698.0358C188.9644 698.0358 49.4284 568.2858 49.4284 344.2143ZM182.4651 344.2143C183.0723 531.9285 251.6078 650.8927 361.7504 650.8927C471.1787 650.8927 534.1428 533.1428 533.5357 349.2143C532.9285 164.1072 470.5716 37.143 360.0004 37.143C249.4292 37.143 181.858 156.1072 182.4651 344.2143ZM358.3933 688.0358ZM438.1434 0ZM358.0004 344.2143ZM357.6076 0ZM431.858 -157.107C431.858 -116.9283 404.0721 -89.821 366.8933 -89.821C320.8216 -89.821 283.3571 -127.9998 283.3571 -172.0358C283.3571 -210.6073 311.5358 -241.1432 351.7504 -241.1432C399.0006 -241.1432 431.858 -203.7859 431.858 -157.107ZM357.6076 0Z" glyph-name="Odotbelow" horiz-adv-x="716.0008" unicode="&#7884;" /><glyph d="M490.9649 791.3571C401.0721 830.2858 320.5005 886.0359 276.2862 923.1074L265.6433 924.7146C237.0717 914.8574 210.0358 892.2858 210.0358 868.3571C210.0358 802.0711 365.75 776.2856 485.1791 773.5357ZM358.3933 688.0358ZM49.4284 344.2143C49.4284 121.5714 174.9287 -10 357.0004 -10C536.0363 -10 666.5724 125.4999 666.5724 349.2143C666.5724 571.9287 537.465 698.0358 361.7504 698.0358C188.9644 698.0358 49.4284 568.2858 49.4284 344.2143ZM182.4651 344.2143C183.0723 531.9285 251.6078 650.8927 361.7504 650.8927C471.1787 650.8927 534.1428 533.1428 533.5357 349.2143C532.9285 164.1072 470.5716 37.143 360.0004 37.143C249.4292 37.143 181.858 156.1072 182.4651 344.2143ZM358.3933 688.0358ZM438.1434 0ZM358.0004 344.2143ZM357.6076 0Z" glyph-name="Ograve" horiz-adv-x="716.0008" unicode="&#210;" /><glyph d="M466.3945 925.5361C432.1801 888.4646 370.6443 832.7144 301.7158 793.7857L307.5015 775.9642C403.2163 778.7142 526.5734 806.0711 526.5734 870.7857C526.5734 894.7144 502.5732 917.286 477.0374 927.1432ZM391.3915 925.5361C357.1771 888.4646 295.6413 832.7144 226.7128 793.7857L232.4985 775.9642C328.2133 778.7142 451.5704 806.0711 451.5704 870.7857C451.5704 894.7144 427.5702 917.286 402.0344 927.1432ZM358.3933 688.0358ZM49.4284 344.2143C49.4284 121.5714 174.9287 -10 357.0004 -10C536.0363 -10 666.5724 125.4999 666.5724 349.2143C666.5724 571.9287 537.465 698.0358 361.7504 698.0358C188.9644 698.0358 49.4284 568.2858 49.4284 344.2143ZM182.4651 344.2143C183.0723 531.9285 251.6078 650.8927 361.7504 650.8927C471.1787 650.8927 534.1428 533.1428 533.5357 349.2143C532.9285 164.1072 470.5716 37.143 360.0004 37.143C249.4292 37.143 181.858 156.1072 182.4651 344.2143ZM358.3933 688.0358ZM438.1434 0ZM358.0004 344.2143ZM357.6076 0Z" glyph-name="Ohungarumlaut" horiz-adv-x="716.0008" unicode="&#336;" /><glyph d="M201.6429 815.7857H515.1436V883.3217H201.6429ZM358.3932 688.0358ZM49.4284 344.2143C49.4284 121.5714 174.9287 -10 357.0004 -10C536.0363 -10 666.5724 125.4999 666.5724 349.2143C666.5724 571.9287 537.465 698.0358 361.7504 698.0358C188.9644 698.0358 49.4284 568.2858 49.4284 344.2143ZM182.4651 344.2143C183.0723 531.9285 251.6078 650.8927 361.7504 650.8927C471.1787 650.8927 534.1428 533.1428 533.5357 349.2143C532.9285 164.1072 470.5716 37.143 360.0004 37.143C249.4292 37.143 181.858 156.1072 182.4651 344.2143ZM358.3933 688.0358ZM438.1434 0ZM358.0004 344.2143ZM357.6076 0Z" glyph-name="Omacron" horiz-adv-x="716.0008" unicode="&#332;" /><glyph d="M346.7861 0 367.1076 47.0002C298.5007 114.2145 244.3224 213.7144 245.5367 360.4286C244.3224 533.8215 308.0364 650.8927 422.8218 650.8927C531.6431 650.8927 590.9642 533.8215 590.9642 360.4286C590.9642 213.7144 536.7859 114.2145 469.3933 47.0002L489.7148 0H803.251C807.8582 27.0715 811.0725 58.4644 811.0725 93.3573C811.0725 131.286 806.4296 164.5718 800.7867 188.3932H776.6794L745.3935 126.0715C732.5362 94.3573 720.2505 70.5001 709.6075 51.9287C686.0719 47.3573 653.0363 45.1788 624.2151 45.1788H542.2506C643.3939 113.0717 724.001 218.4646 724.001 371.3573C724.001 561.0715 603.0008 698.0358 421.6076 698.0358C233.8572 698.0358 111.2856 561.0715 112.4999 371.3573C111.2856 218.4646 191.8928 113.0717 294.2502 45.1788H212.2858C182.2502 45.1788 149.2147 47.3573 126.8933 51.9287C115.0362 71.1072 103.3575 94.9644 91.1075 126.0715L59.8214 188.3932H35.7142C28.857 162.7503 25.4284 132.5003 25.4284 93.3573C25.4284 59.0715 28.6427 27.6787 33.2499 0Z" glyph-name="Omega" horiz-adv-x="836.5009" unicode="&#42934;" /><glyph d="M425.1432 -181.6071 421.1432 -169.5714C403.1789 -173.3571 390.7861 -174.75 374.0004 -174.75C341.2505 -174.75 322.2862 -156.3571 322.2862 -125.7857C322.2862 -79.5357 363.1434 -31.4642 438.1434 0L431.7863 13.3571C296.3216 -16.6427 220.7855 -73.8928 220.7855 -150.7501C220.7855 -205.6431 258.4999 -241.1432 314.6071 -241.1432C360.0002 -241.1432 401.1074 -219.4288 425.1432 -181.6071ZM438.1434 0ZM49.4284 344.2143C49.4284 121.5714 174.9287 -10 357.0004 -10C536.0363 -10 666.5724 125.4999 666.5724 349.2143C666.5724 571.9287 537.465 698.0358 361.7504 698.0358C188.9644 698.0358 49.4284 568.2858 49.4284 344.2143ZM182.4651 344.2143C183.0723 531.9285 251.6078 650.8927 361.7504 650.8927C471.1787 650.8927 534.1428 533.1428 533.5357 349.2143C532.9285 164.1072 470.5716 37.143 360.0004 37.143C249.4292 37.143 181.858 156.1072 182.4651 344.2143ZM358.3933 688.0358ZM438.1434 0ZM358.0004 344.2143ZM357.6076 0Z" glyph-name="Oogonek" horiz-adv-x="716.0008" unicode="&#490;" /><glyph d="M651.5007 654.5001 614.7863 684.3931 64.5001 34.5356 100.2145 4.0356ZM358.0004 344.2143ZM49.4284 344.2143C49.4284 121.5714 174.9287 -10 357.0004 -10C536.0363 -10 666.5724 125.4999 666.5724 349.2143C666.5724 571.9287 537.465 698.0358 361.7504 698.0358C188.9644 698.0358 49.4284 568.2858 49.4284 344.2143ZM182.4651 344.2143C183.0723 531.9285 251.6078 650.8927 361.7504 650.8927C471.1787 650.8927 534.1428 533.1428 533.5357 349.2143C532.9285 164.1072 470.5716 37.143 360.0004 37.143C249.4292 37.143 181.858 156.1072 182.4651 344.2143ZM358.3933 688.0358ZM438.1434 0ZM358.0004 344.2143ZM357.6076 0Z" glyph-name="Oslash" horiz-adv-x="716.0008" unicode="&#216;" /><glyph d="M651.5007 654.5001 614.7863 684.3931 64.5001 34.5356 100.2145 4.0356ZM358.0004 344.2143ZM440.5003 922.7146C396.286 885.6431 315.7144 829.893 225.8217 790.9642L231.6073 773.1428C351.0366 775.8927 506.7508 801.6783 506.7508 867.9642C506.7508 891.893 479.7148 914.4646 451.1432 924.3217ZM358.3933 688.0358ZM338.3573 880.8574ZM49.4284 344.2143C49.4284 121.5714 174.9287 -10 357.0004 -10C536.0363 -10 666.5724 125.4999 666.5724 349.2143C666.5724 571.9287 537.465 698.0358 361.7504 698.0358C188.9644 698.0358 49.4284 568.2858 49.4284 344.2143ZM182.4651 344.2143C183.0723 531.9285 251.6078 650.8927 361.7504 650.8927C471.1787 650.8927 534.1428 533.1428 533.5357 349.2143C532.9285 164.1072 470.5716 37.143 360.0004 37.143C249.4292 37.143 181.858 156.1072 182.4651 344.2143ZM358.3933 688.0358ZM438.1434 0ZM358.0004 344.2143ZM357.6076 0Z" glyph-name="Oslashacute" horiz-adv-x="716.0008" unicode="&#510;" /><glyph d="M233.5003 838.4642C286.9291 826.1426 388.5001 776.3571 455.8931 776.3571C517.9291 776.3571 546.0363 829.143 550.7505 894.143C550.7505 903.8574 550.1434 910.5361 549.5362 917.8219L531.8934 923.8219C523.6435 909.6793 488.3933 864.3575 483.2862 856.5005C428.6789 868.4292 329.4649 918.6076 260.8933 918.6076C199.2502 918.6076 169.9644 864.0002 165.2502 795.5716C165.2502 789.5001 165.8574 782.8215 166.4646 776.75L184.1075 771.1428C191.9644 784.8926 229.1789 833.75 233.5003 838.4642ZM358.3933 688.0358ZM355.7861 930.0358ZM49.4284 344.2143C49.4284 121.5714 174.9287 -10 357.0004 -10C536.0363 -10 666.5724 125.4999 666.5724 349.2143C666.5724 571.9287 537.465 698.0358 361.7504 698.0358C188.9644 698.0358 49.4284 568.2858 49.4284 344.2143ZM182.4651 344.2143C183.0723 531.9285 251.6078 650.8927 361.7504 650.8927C471.1787 650.8927 534.1428 533.1428 533.5357 349.2143C532.9285 164.1072 470.5716 37.143 360.0004 37.143C249.4292 37.143 181.858 156.1072 182.4651 344.2143ZM358.3933 688.0358ZM438.1434 0ZM358.0004 344.2143ZM357.6076 0Z" glyph-name="Otilde" horiz-adv-x="716.0008" unicode="&#213;" /><glyph d="M254.1793 263.9285H335.9649C484.4294 263.9285 602.3939 338.1785 602.3939 473.8215C602.3939 611.8215 485.2151 688.0358 337.9291 688.0358H254.1793V640.8927H324.8933C415.5716 640.8927 469.3571 577.107 469.3571 473.8215C469.3571 370.9287 414.7859 311.0715 322.9291 311.0715H254.1793ZM125.3569 582.0002V106.0356H254.1793V582.0002ZM254.1793 52.9644V106.0356H125.3569V83.6431C125.3569 57.9644 114.8925 48.3216 87.4282 37.2501L46.4284 23.0358L48.4284 0H351.1078L353.1078 23.0358ZM254.1793 688.0358H48.4284L46.4284 665L114.7499 637.4284C123.3927 635.4642 125.3569 633.107 125.3569 625.6429V582.0002H254.1793Z" glyph-name="P" horiz-adv-x="627.8223" unicode="P" /><glyph d="M298.286 12.2143C402.9287 -85.7857 575.143 -182.4288 673.8931 -182.4288C720.5362 -182.4288 753.715 -158.2858 753.715 -111.6069C753.715 -96.1068 748.6793 -83.2139 741.822 -73.5353L735.3577 -70.1067C722.0719 -72.3209 710.3932 -73.5353 695.7146 -73.5353C585.9291 -73.5353 442.2145 -31.3569 357.9647 12.2143ZM49.4284 344.2143C49.4284 121.5714 174.9287 -10 357.0004 -10C536.0363 -10 666.5724 125.4999 666.5724 349.2143C666.5724 571.9287 537.465 698.0358 361.7504 698.0358C188.9644 698.0358 49.4284 568.2858 49.4284 344.2143ZM182.4651 344.2143C183.0723 531.9285 251.6078 650.8927 361.7504 650.8927C471.1787 650.8927 534.1428 533.1428 533.5357 349.2143C532.9285 164.1072 470.5716 37.143 360.0004 37.143C249.4292 37.143 181.858 156.1072 182.4651 344.2143ZM358.3933 688.0358ZM438.1434 0ZM358.0004 344.2143ZM357.6076 0Z" glyph-name="Q" horiz-adv-x="716.0008" unicode="Q" /><glyph d="M125.3569 582.0002V106.0356H254.1793V582.0002ZM254.1793 287.857H332.0364C340.2862 287.857 429.5013 303.8215 437.3583 305.3929C515.3939 327.4286 596.5011 390.2143 596.5011 496.2143C596.5011 614.3571 493.2868 688.0358 338.1078 688.0358H254.1793V640.8927H319.0006C409.6789 640.8927 463.4644 583.0713 463.4644 489.5356C463.4644 392.0715 409.6789 334.2143 319.0006 334.2143H254.1793ZM452.3583 346.0715 339.8574 299.5712 463.3573 62.1071C486.5358 18.1428 508.5001 -3.6429 561.25 -3.0358L688.1082 0L690.1082 20L663.4653 34.8929C608.7152 66.7146 583.4651 114.3936 539.0721 191.0725ZM254.1793 688.0358H48.4284L46.4284 665L114.7499 637.4284C123.3927 635.4642 125.3569 633.107 125.3569 625.6429V582.0002H254.1793ZM254.1793 52.9644V106.0356H125.3569V83.6431C125.3569 57.9644 114.8925 48.3216 87.4282 37.2501L46.4284 23.0358L48.4284 0H331.1078L333.1078 23.0358ZM344.0006 688.0358ZM379.5003 0Z" glyph-name="R" horiz-adv-x="707.5367" unicode="R" /><glyph d="M125.3569 582.0002V106.0356H254.1793V582.0002ZM254.1793 287.857H332.0364C340.2862 287.857 429.5013 303.8215 437.3583 305.3929C515.3939 327.4286 596.5011 390.2143 596.5011 496.2143C596.5011 614.3571 493.2868 688.0358 338.1078 688.0358H254.1793V640.8927H319.0006C409.6789 640.8927 463.4644 583.0713 463.4644 489.5356C463.4644 392.0715 409.6789 334.2143 319.0006 334.2143H254.1793ZM452.3583 346.0715 339.8574 299.5712 463.3573 62.1071C486.5358 18.1428 508.5001 -3.6429 561.25 -3.0358L688.1082 0L690.1082 20L663.4653 34.8929C608.7152 66.7146 583.4651 114.3936 539.0721 191.0725ZM254.1793 688.0358H48.4284L46.4284 665L114.7499 637.4284C123.3927 635.4642 125.3569 633.107 125.3569 625.6429V582.0002H254.1793ZM254.1793 52.9644V106.0356H125.3569V83.6431C125.3569 57.9644 114.8925 48.3216 87.4282 37.2501L46.4284 23.0358L48.4284 0H331.1078L333.1078 23.0358ZM344.0006 688.0358ZM379.5003 0ZM426.1077 922.7146C381.8933 885.6431 301.3218 829.893 211.429 790.9642L217.2147 773.1428C336.6439 775.8927 492.3581 801.6783 492.3581 867.9642C492.3581 891.893 465.3221 914.4646 436.7505 924.3217ZM344.0006 688.0358ZM323.9647 880.8574Z" glyph-name="Racute" horiz-adv-x="707.5367" unicode="&#340;" /><glyph d="M125.3569 582.0002V106.0356H254.1793V582.0002ZM254.1793 287.857H332.0364C340.2862 287.857 429.5013 303.8215 437.3583 305.3929C515.3939 327.4286 596.5011 390.2143 596.5011 496.2143C596.5011 614.3571 493.2868 688.0358 338.1078 688.0358H254.1793V640.8927H319.0006C409.6789 640.8927 463.4644 583.0713 463.4644 489.5356C463.4644 392.0715 409.6789 334.2143 319.0006 334.2143H254.1793ZM452.3583 346.0715 339.8574 299.5712 463.3573 62.1071C486.5358 18.1428 508.5001 -3.6429 561.25 -3.0358L688.1082 0L690.1082 20L663.4653 34.8929C608.7152 66.7146 583.4651 114.3936 539.0721 191.0725ZM254.1793 688.0358H48.4284L46.4284 665L114.7499 637.4284C123.3927 635.4642 125.3569 633.107 125.3569 625.6429V582.0002H254.1793ZM254.1793 52.9644V106.0356H125.3569V83.6431C125.3569 57.9644 114.8925 48.3216 87.4282 37.2501L46.4284 23.0358L48.4284 0H331.1078L333.1078 23.0358ZM344.0006 688.0358ZM379.5003 0ZM314.179 836.8219 377.8223 837.6076C318.3222 863.1432 252.5363 898.286 198.9647 928.0717L183.7504 917.4646C217.036 871.286 261.8217 817.0002 302.7504 771.6072H374.9651L384.0008 778.0358C408.8938 811.9645 459.2151 868.143 503.858 914.8574L490.6437 928.0717C428.4292 899.6789 356.3935 859.429 314.179 836.8219ZM344.0006 688.0358Z" glyph-name="Rcaron" horiz-adv-x="707.5367" unicode="&#344;" /><glyph d="M447.6435 -161.9642C447.6435 -117.3569 421.1077 -89.821 379.5003 -89.821C341.3216 -89.821 311.3929 -120.5354 311.3929 -162.1428C311.3929 -198.0715 339.1073 -224.6073 378.6789 -224.6073L366.6073 -189.5716C366.2145 -238.286 341.5358 -301.4645 319.9287 -332.6431L331.5358 -342.8574C387.7504 -314.1074 447.6435 -234.6073 447.6435 -161.9642ZM379.5003 0ZM125.3569 582.0002V106.0356H254.1793V582.0002ZM254.1793 287.857H332.0364C340.2862 287.857 429.5013 303.8215 437.3583 305.3929C515.3939 327.4286 596.5011 390.2143 596.5011 496.2143C596.5011 614.3571 493.2868 688.0358 338.1078 688.0358H254.1793V640.8927H319.0006C409.6789 640.8927 463.4644 583.0713 463.4644 489.5356C463.4644 392.0715 409.6789 334.2143 319.0006 334.2143H254.1793ZM452.3583 346.0715 339.8574 299.5712 463.3573 62.1071C486.5358 18.1428 508.5001 -3.6429 561.25 -3.0358L688.1082 0L690.1082 20L663.4653 34.8929C608.7152 66.7146 583.4651 114.3936 539.0721 191.0725ZM254.1793 688.0358H48.4284L46.4284 665L114.7499 637.4284C123.3927 635.4642 125.3569 633.107 125.3569 625.6429V582.0002H254.1793ZM254.1793 52.9644V106.0356H125.3569V83.6431C125.3569 57.9644 114.8925 48.3216 87.4282 37.2501L46.4284 23.0358L48.4284 0H331.1078L333.1078 23.0358ZM344.0006 688.0358ZM379.5003 0Z" glyph-name="Rcommaaccent" horiz-adv-x="707.5367" unicode="&#342;" /><glyph d="M125.3569 582.0002V106.0356H254.1793V582.0002ZM254.1793 287.857H332.0364C340.2862 287.857 429.5013 303.8215 437.3583 305.3929C515.3939 327.4286 596.5011 390.2143 596.5011 496.2143C596.5011 614.3571 493.2868 688.0358 338.1078 688.0358H254.1793V640.8927H319.0006C409.6789 640.8927 463.4644 583.0713 463.4644 489.5356C463.4644 392.0715 409.6789 334.2143 319.0006 334.2143H254.1793ZM452.3583 346.0715 339.8574 299.5712 463.3573 62.1071C486.5358 18.1428 508.5001 -3.6429 561.25 -3.0358L688.1082 0L690.1082 20L663.4653 34.8929C608.7152 66.7146 583.4651 114.3936 539.0721 191.0725ZM254.1793 688.0358H48.4284L46.4284 665L114.7499 637.4284C123.3927 635.4642 125.3569 633.107 125.3569 625.6429V582.0002H254.1793ZM254.1793 52.9644V106.0356H125.3569V83.6431C125.3569 57.9644 114.8925 48.3216 87.4282 37.2501L46.4284 23.0358L48.4284 0H331.1078L333.1078 23.0358ZM344.0006 688.0358ZM379.5003 0ZM453.7508 -157.107C453.7508 -116.9283 425.9649 -89.821 388.7861 -89.821C342.7144 -89.821 305.2499 -127.9998 305.2499 -172.0358C305.2499 -210.6073 333.4286 -241.1432 373.6431 -241.1432C420.8934 -241.1432 453.7508 -203.7859 453.7508 -157.107ZM379.5003 0Z" glyph-name="Rdotbelow" horiz-adv-x="707.5367" unicode="&#7770;" /><glyph d="M233.893 -10C389.6791 -10 489.1436 48.6784 489.1436 168.3216C489.1436 377.1787 178.0008 378.8931 178.0008 545.143C178.0008 609.1785 223.4292 653.9285 291.6791 653.9285C334.9291 653.9285 365.8218 635.6069 383.3933 611.1426C398.1789 590.2854 413.6433 551.571 425.0719 481.7495L449.572 480.5353C468.1436 519.2139 476.2151 578.107 476.2151 612C476.2151 629.5714 475.0008 651.6072 465.3579 661.0358C448.3222 678.25 377.2862 698.0358 298.6433 698.0358C163.9287 698.0358 51.0356 633.5714 51.0356 511.964C51.0356 310.7855 362.1784 306.6425 362.1784 137.607C362.1784 79.7499 321.7857 34.1073 249.0002 34.1073C209.8931 34.1073 168.1432 42.3573 142.1075 70.8217C117.4288 97.9289 105.1787 137.7148 92.5716 205.679L68.4643 207.5005C50.7142 175.6076 41.4284 127.286 41.4284 89.6787C41.4284 59.4644 45.4641 38.1786 56.4999 25.1786C73.7857 5.1428 152.0358 -10 233.893 -10ZM267.2502 688.0358ZM264.1074 0Z" glyph-name="S" horiz-adv-x="530.572" unicode="S" /><glyph d="M233.893 -10C389.6791 -10 489.1436 48.6784 489.1436 168.3216C489.1436 377.1787 178.0008 378.8931 178.0008 545.143C178.0008 609.1785 223.4292 653.9285 291.6791 653.9285C334.9291 653.9285 365.8218 635.6069 383.3933 611.1426C398.1789 590.2854 413.6433 551.571 425.0719 481.7495L449.572 480.5353C468.1436 519.2139 476.2151 578.107 476.2151 612C476.2151 629.5714 475.0008 651.6072 465.3579 661.0358C448.3222 678.25 377.2862 698.0358 298.6433 698.0358C163.9287 698.0358 51.0356 633.5714 51.0356 511.964C51.0356 310.7855 362.1784 306.6425 362.1784 137.607C362.1784 79.7499 321.7857 34.1073 249.0002 34.1073C209.8931 34.1073 168.1432 42.3573 142.1075 70.8217C117.4288 97.9289 105.1787 137.7148 92.5716 205.679L68.4643 207.5005C50.7142 175.6076 41.4284 127.286 41.4284 89.6787C41.4284 59.4644 45.4641 38.1786 56.4999 25.1786C73.7857 5.1428 152.0358 -10 233.893 -10ZM267.2502 688.0358ZM264.1074 0ZM349.3573 922.7146C305.143 885.6431 224.5714 829.893 134.6787 790.9642L140.4643 773.1428C259.8936 775.8927 415.6078 801.6783 415.6078 867.9642C415.6078 891.893 388.5718 914.4646 360.0002 924.3217ZM267.2502 688.0358ZM247.2143 880.8574Z" glyph-name="Sacute" horiz-adv-x="530.572" unicode="&#346;" /><glyph d="M233.893 -10C389.6791 -10 489.1436 48.6784 489.1436 168.3216C489.1436 377.1787 178.0008 378.8931 178.0008 545.143C178.0008 609.1785 223.4292 653.9285 291.6791 653.9285C334.9291 653.9285 365.8218 635.6069 383.3933 611.1426C398.1789 590.2854 413.6433 551.571 425.0719 481.7495L449.572 480.5353C468.1436 519.2139 476.2151 578.107 476.2151 612C476.2151 629.5714 475.0008 651.6072 465.3579 661.0358C448.3222 678.25 377.2862 698.0358 298.6433 698.0358C163.9287 698.0358 51.0356 633.5714 51.0356 511.964C51.0356 310.7855 362.1784 306.6425 362.1784 137.607C362.1784 79.7499 321.7857 34.1073 249.0002 34.1073C209.8931 34.1073 168.1432 42.3573 142.1075 70.8217C117.4288 97.9289 105.1787 137.7148 92.5716 205.679L68.4643 207.5005C50.7142 175.6076 41.4284 127.286 41.4284 89.6787C41.4284 59.4644 45.4641 38.1786 56.4999 25.1786C73.7857 5.1428 152.0358 -10 233.893 -10ZM267.2502 688.0358ZM264.1074 0ZM237.4286 836.8219 301.0719 837.6076C241.5718 863.1432 175.7859 898.286 122.2143 928.0717L107 917.4646C140.2856 871.286 185.0713 817.0002 226 771.6072H298.2147L307.2505 778.0358C332.1434 811.9645 382.4648 868.143 427.1077 914.8574L413.8934 928.0717C351.6789 899.6789 279.6431 859.429 237.4286 836.8219ZM267.2502 688.0358Z" glyph-name="Scaron" horiz-adv-x="530.572" unicode="&#352;" /><glyph d="M233.893 -10C389.6791 -10 489.1436 48.6784 489.1436 168.3216C489.1436 377.1787 178.0008 378.8931 178.0008 545.143C178.0008 609.1785 223.4292 653.9285 291.6791 653.9285C334.9291 653.9285 365.8218 635.6069 383.3933 611.1426C398.1789 590.2854 413.6433 551.571 425.0719 481.7495L449.572 480.5353C468.1436 519.2139 476.2151 578.107 476.2151 612C476.2151 629.5714 475.0008 651.6072 465.3579 661.0358C448.3222 678.25 377.2862 698.0358 298.6433 698.0358C163.9287 698.0358 51.0356 633.5714 51.0356 511.964C51.0356 310.7855 362.1784 306.6425 362.1784 137.607C362.1784 79.7499 321.7857 34.1073 249.0002 34.1073C209.8931 34.1073 168.1432 42.3573 142.1075 70.8217C117.4288 97.9289 105.1787 137.7148 92.5716 205.679L68.4643 207.5005C50.7142 175.6076 41.4284 127.286 41.4284 89.6787C41.4284 59.4644 45.4641 38.1786 56.4999 25.1786C73.7857 5.1428 152.0358 -10 233.893 -10ZM267.2502 688.0358ZM264.1074 0ZM225.9644 -110.4288C259.2143 -117.7859 276.0358 -134.1788 276.0358 -153.7859C276.0358 -186.036 235.9285 -211.3218 194.25 -226.7503L198.8572 -241.7503C315.5365 -239.0004 385.8222 -202.4646 385.8222 -140.893C385.8222 -96.9285 340.3935 -66.0713 262.036 -59.1428L271.5718 -92.5001L288.3933 0H239.1788L221.143 -102.3931ZM264.1075 0Z" glyph-name="Scedilla" horiz-adv-x="530.572" unicode="&#350;" /><glyph d="M506.6429 302.8215 510.6429 342.7144H81.0713L66.2141 327.4644L184.3937 292.5714ZM334.4647 -10C510.1436 -10 641.1082 134.2143 641.1082 354.6429C641.1082 564.0358 522.8223 698.0358 341.429 698.0358C202.393 698.0358 70.8213 598.5357 70.8213 491.9642C70.8213 457.2498 98.3928 438.2141 134.036 438.2141C154.3575 438.2141 175.7148 442.6427 198.5007 455.5356C193.715 472.7857 192.3221 489.4644 192.3221 502.25C192.3221 596.1073 253.7506 650.4642 337.2505 650.4642C449.4645 650.4642 506.8572 542.8215 506.8572 333.2856C506.8572 163.7501 449.3218 38.3573 341.2862 38.3573C249.5365 38.3573 198.0723 114.9287 198.0723 252.2143C198.0723 272.143 198.6795 290.9644 199.6795 306.1073L66.2141 327.4644C64.8213 310.143 64.4284 292.0002 64.4284 267.3573C64.4284 96.0715 179.5716 -10 334.4647 -10Z" glyph-name="Schwa" horiz-adv-x="682.5367" unicode="&#399;" /><glyph d="M233.893 -10C389.6791 -10 489.1436 48.6784 489.1436 168.3216C489.1436 377.1787 178.0008 378.8931 178.0008 545.143C178.0008 609.1785 223.4292 653.9285 291.6791 653.9285C334.9291 653.9285 365.8218 635.6069 383.3933 611.1426C398.1789 590.2854 413.6433 551.571 425.0719 481.7495L449.572 480.5353C468.1436 519.2139 476.2151 578.107 476.2151 612C476.2151 629.5714 475.0008 651.6072 465.3579 661.0358C448.3222 678.25 377.2862 698.0358 298.6433 698.0358C163.9287 698.0358 51.0356 633.5714 51.0356 511.964C51.0356 310.7855 362.1784 306.6425 362.1784 137.607C362.1784 79.7499 321.7857 34.1073 249.0002 34.1073C209.8931 34.1073 168.1432 42.3573 142.1075 70.8217C117.4288 97.9289 105.1787 137.7148 92.5716 205.679L68.4643 207.5005C50.7142 175.6076 41.4284 127.286 41.4284 89.6787C41.4284 59.4644 45.4641 38.1786 56.4999 25.1786C73.7857 5.1428 152.0358 -10 233.893 -10ZM267.2502 688.0358ZM264.1074 0ZM297.2862 862.857 233.6429 862.0713C293.143 836.5357 358.9289 801.3928 412.5005 771.6072L427.7148 782.2143C394.4292 828.3928 349.6435 882.6786 308.7148 928.0717H236.5001L227.4643 921.6431C202.5714 887.7144 152.25 831.5358 107.6071 784.8215L120.8214 771.6072C183.0359 800 255.0717 840.2499 297.2862 862.857ZM267.2502 688.0358Z" glyph-name="Scircumflex" horiz-adv-x="530.572" unicode="&#348;" /><glyph d="M332.2507 -161.9642C332.2507 -117.3569 305.7148 -89.821 264.1074 -89.821C225.9287 -89.821 196 -120.5354 196 -162.1428C196 -198.0715 223.7144 -224.6073 263.286 -224.6073L251.2145 -189.5716C250.8217 -238.286 226.143 -301.4645 204.5358 -332.6431L216.143 -342.8574C272.3575 -314.1074 332.2507 -234.6073 332.2507 -161.9642ZM264.1074 0ZM233.893 -10C389.6791 -10 489.1436 48.6784 489.1436 168.3216C489.1436 377.1787 178.0008 378.8931 178.0008 545.143C178.0008 609.1785 223.4292 653.9285 291.6791 653.9285C334.9291 653.9285 365.8218 635.6069 383.3933 611.1426C398.1789 590.2854 413.6433 551.571 425.0719 481.7495L449.572 480.5353C468.1436 519.2139 476.2151 578.107 476.2151 612C476.2151 629.5714 475.0008 651.6072 465.3579 661.0358C448.3222 678.25 377.2862 698.0358 298.6433 698.0358C163.9287 698.0358 51.0356 633.5714 51.0356 511.964C51.0356 310.7855 362.1784 306.6425 362.1784 137.607C362.1784 79.7499 321.7857 34.1073 249.0002 34.1073C209.8931 34.1073 168.1432 42.3573 142.1075 70.8217C117.4288 97.9289 105.1787 137.7148 92.5716 205.679L68.4643 207.5005C50.7142 175.6076 41.4284 127.286 41.4284 89.6787C41.4284 59.4644 45.4641 38.1786 56.4999 25.1786C73.7857 5.1428 152.0358 -10 233.893 -10ZM267.2502 688.0358ZM264.1074 0Z" glyph-name="Scommaaccent" horiz-adv-x="530.572" unicode="&#536;" /><glyph d="M233.893 -10C389.6791 -10 489.1436 48.6784 489.1436 168.3216C489.1436 377.1787 178.0008 378.8931 178.0008 545.143C178.0008 609.1785 223.4292 653.9285 291.6791 653.9285C334.9291 653.9285 365.8218 635.6069 383.3933 611.1426C398.1789 590.2854 413.6433 551.571 425.0719 481.7495L449.572 480.5353C468.1436 519.2139 476.2151 578.107 476.2151 612C476.2151 629.5714 475.0008 651.6072 465.3579 661.0358C448.3222 678.25 377.2862 698.0358 298.6433 698.0358C163.9287 698.0358 51.0356 633.5714 51.0356 511.964C51.0356 310.7855 362.1784 306.6425 362.1784 137.607C362.1784 79.7499 321.7857 34.1073 249.0002 34.1073C209.8931 34.1073 168.1432 42.3573 142.1075 70.8217C117.4288 97.9289 105.1787 137.7148 92.5716 205.679L68.4643 207.5005C50.7142 175.6076 41.4284 127.286 41.4284 89.6787C41.4284 59.4644 45.4641 38.1786 56.4999 25.1786C73.7857 5.1428 152.0358 -10 233.893 -10ZM267.2502 688.0358ZM264.1074 0ZM338.3579 -157.107C338.3579 -116.9283 310.572 -89.821 273.3932 -89.821C227.3216 -89.821 189.857 -127.9998 189.857 -172.0358C189.857 -210.6073 218.0358 -241.1432 258.2502 -241.1432C305.5005 -241.1432 338.3579 -203.7859 338.3579 -157.107ZM264.1074 0Z" glyph-name="Sdotbelow" horiz-adv-x="530.572" unicode="&#7778;" /><glyph d="M221.6795 52.9644V106.0356H92.857V83.6431C92.857 57.9644 82.3927 48.3216 54.9283 37.2501L13.9285 23.0358L15.9285 0H318.608L320.608 23.0358Z" glyph-name="Serif-long.base" horiz-adv-x="334.5365" /><glyph d="M221.6795 0V106.0356H92.857V83.6431C92.857 57.9644 82.3927 48.3216 54.9283 37.2501L13.9285 23.0358L15.9285 0Z" glyph-name="Serif-side.base" horiz-adv-x="241.6795" /><glyph d="M221.6795 688.0358H15.9285L13.9285 665L82.2501 637.4284C90.8928 635.4642 92.857 633.107 92.857 625.6429V582.0002H221.6795Z" glyph-name="Serif-side.up" horiz-adv-x="241.6795" /><glyph d="M161.2502 52.9644V106.0356H111.0715V83.6431C111.0715 57.9644 100.6072 48.3216 73.1428 37.2501L32.143 23.0358L34.143 0H258.1787L260.1787 23.0358Z" glyph-name="Serif-thin-long.base" horiz-adv-x="292.3218" /><glyph d="M161.2502 52.9644V106.0356H111.0715V83.6431C111.0715 57.9644 100.6072 48.3216 73.1428 37.2501L32.143 23.0358L34.143 0H238.1788L240.1788 23.0358Z" glyph-name="Serif-thin.base" horiz-adv-x="272.3218" /><glyph d="M221.6795 52.9644V106.0356H92.857V83.6431C92.857 57.9644 82.3927 48.3216 54.9283 37.2501L13.9285 23.0358L15.9285 0H298.608L300.608 23.0358Z" glyph-name="Serif.base" horiz-adv-x="314.5365" /><glyph d="M243.6782 642.0713V106.0356H372.5007V642.0713ZM496.6784 635.7142C508.75 614.3214 522.25 585.4284 535.7144 547.4642L563.7504 477.4995H587.8576C594.7148 511.9996 598.1434 545.5354 598.1434 588.3214C598.1434 629.25 594.9291 658.5714 590.322 688.0358H25.2498C20.6427 658.5714 17.4284 629.25 17.4284 588.3214C17.4284 545.5354 20.857 511.9996 27.7142 477.4995H51.8214L79.8574 547.4642C93.3217 585.4284 106.8218 614.3214 118.8933 635.7142C142.429 639.8927 175.4646 642.0713 204.2858 642.0713H411.286C440.1073 642.0713 473.1428 639.8927 496.6784 635.7142ZM372.5007 52.9644V106.0356H243.6782V83.6431C243.6782 57.9644 233.2139 48.3216 205.7495 37.2501L164.7498 23.0358L166.7498 0H449.4292L451.4292 23.0358ZM307.7859 688.4286ZM307.7859 335.4286ZM307.7859 0Z" glyph-name="T" horiz-adv-x="615.5718" unicode="T" /><glyph d="M243.6782 642.0713V106.0356H372.5007V642.0713ZM496.6784 635.7142C508.75 614.3214 522.25 585.4284 535.7144 547.4642L563.7504 477.4995H587.8576C594.7148 511.9996 598.1434 545.5354 598.1434 588.3214C598.1434 629.25 594.9291 658.5714 590.322 688.0358H25.2498C20.6427 658.5714 17.4284 629.25 17.4284 588.3214C17.4284 545.5354 20.857 511.9996 27.7142 477.4995H51.8214L79.8574 547.4642C93.3217 585.4284 106.8218 614.3214 118.8933 635.7142C142.429 639.8927 175.4646 642.0713 204.2858 642.0713H411.286C440.1073 642.0713 473.1428 639.8927 496.6784 635.7142ZM372.5007 52.9644V106.0356H243.6782V83.6431C243.6782 57.9644 233.2139 48.3216 205.7495 37.2501L164.7498 23.0358L166.7498 0H449.4292L451.4292 23.0358ZM307.7859 688.4286ZM307.7859 335.4286ZM307.7859 0ZM522.7215 325.4999V367.6429H97.2185V325.4999ZM310.2118 335.4286Z" glyph-name="Tbar" horiz-adv-x="615.5718" unicode="&#358;" /><glyph d="M243.6782 642.0713V106.0356H372.5007V642.0713ZM496.6784 635.7142C508.75 614.3214 522.25 585.4284 535.7144 547.4642L563.7504 477.4995H587.8576C594.7148 511.9996 598.1434 545.5354 598.1434 588.3214C598.1434 629.25 594.9291 658.5714 590.322 688.0358H25.2498C20.6427 658.5714 17.4284 629.25 17.4284 588.3214C17.4284 545.5354 20.857 511.9996 27.7142 477.4995H51.8214L79.8574 547.4642C93.3217 585.4284 106.8218 614.3214 118.8933 635.7142C142.429 639.8927 175.4646 642.0713 204.2858 642.0713H411.286C440.1073 642.0713 473.1428 639.8927 496.6784 635.7142ZM372.5007 52.9644V106.0356H243.6782V83.6431C243.6782 57.9644 233.2139 48.3216 205.7495 37.2501L164.7498 23.0358L166.7498 0H449.4292L451.4292 23.0358ZM307.7859 688.4286ZM307.7859 335.4286ZM307.7859 0ZM277.9643 837.2147 341.6076 838.0004C282.1075 863.536 216.3216 898.6789 162.75 928.4645L147.5357 917.8574C180.8213 871.6789 225.607 817.3931 266.5357 772H338.7504L347.7861 778.4286C372.6791 812.3573 423.0004 868.5358 467.6433 915.2502L454.429 928.4645C392.2145 900.0717 320.1788 859.8218 277.9643 837.2147ZM307.7859 688.4286Z" glyph-name="Tcaron" horiz-adv-x="615.5718" unicode="&#356;" /><glyph d="M243.6782 642.0713V106.0356H372.5007V642.0713ZM496.6784 635.7142C508.75 614.3214 522.25 585.4284 535.7144 547.4642L563.7504 477.4995H587.8576C594.7148 511.9996 598.1434 545.5354 598.1434 588.3214C598.1434 629.25 594.9291 658.5714 590.322 688.0358H25.2498C20.6427 658.5714 17.4284 629.25 17.4284 588.3214C17.4284 545.5354 20.857 511.9996 27.7142 477.4995H51.8214L79.8574 547.4642C93.3217 585.4284 106.8218 614.3214 118.8933 635.7142C142.429 639.8927 175.4646 642.0713 204.2858 642.0713H411.286C440.1073 642.0713 473.1428 639.8927 496.6784 635.7142ZM372.5007 52.9644V106.0356H243.6782V83.6431C243.6782 57.9644 233.2139 48.3216 205.7495 37.2501L164.7498 23.0358L166.7498 0H449.4292L451.4292 23.0358ZM307.7859 688.4286ZM307.7859 335.4286ZM307.7859 0ZM269.6429 -110.4288C302.8927 -117.7859 319.7142 -134.1788 319.7142 -153.7859C319.7142 -186.036 279.6069 -211.3218 237.9285 -226.7503L242.5356 -241.7503C359.2149 -239.0004 429.5007 -202.4646 429.5007 -140.893C429.5007 -96.9285 384.0719 -66.0713 305.7144 -59.1428L315.2502 -92.5001L332.0717 0H282.8572L264.8214 -102.3931ZM307.7859 0Z" glyph-name="Tcedilla" horiz-adv-x="615.5718" unicode="&#354;" /><glyph d="M375.9291 -161.9642C375.9291 -117.3569 349.3932 -89.821 307.7859 -89.821C269.6071 -89.821 239.6784 -120.5354 239.6784 -162.1428C239.6784 -198.0715 267.3929 -224.6073 306.9644 -224.6073L294.893 -189.5716C294.5001 -238.286 269.8215 -301.4645 248.2143 -332.6431L259.8215 -342.8574C316.036 -314.1074 375.9291 -234.6073 375.9291 -161.9642ZM307.7859 0ZM243.6782 642.0713V106.0356H372.5007V642.0713ZM496.6784 635.7142C508.75 614.3214 522.25 585.4284 535.7144 547.4642L563.7504 477.4995H587.8576C594.7148 511.9996 598.1434 545.5354 598.1434 588.3214C598.1434 629.25 594.9291 658.5714 590.322 688.0358H25.2498C20.6427 658.5714 17.4284 629.25 17.4284 588.3214C17.4284 545.5354 20.857 511.9996 27.7142 477.4995H51.8214L79.8574 547.4642C93.3217 585.4284 106.8218 614.3214 118.8933 635.7142C142.429 639.8927 175.4646 642.0713 204.2858 642.0713H411.286C440.1073 642.0713 473.1428 639.8927 496.6784 635.7142ZM372.5007 52.9644V106.0356H243.6782V83.6431C243.6782 57.9644 233.2139 48.3216 205.7495 37.2501L164.7498 23.0358L166.7498 0H449.4292L451.4292 23.0358ZM307.7859 688.4286ZM307.7859 335.4286ZM307.7859 0Z" glyph-name="Tcommaaccent" horiz-adv-x="615.5718" unicode="&#538;" /><glyph d="M243.6782 642.0713V106.0356H372.5007V642.0713ZM496.6784 635.7142C508.75 614.3214 522.25 585.4284 535.7144 547.4642L563.7504 477.4995H587.8576C594.7148 511.9996 598.1434 545.5354 598.1434 588.3214C598.1434 629.25 594.9291 658.5714 590.322 688.0358H25.2498C20.6427 658.5714 17.4284 629.25 17.4284 588.3214C17.4284 545.5354 20.857 511.9996 27.7142 477.4995H51.8214L79.8574 547.4642C93.3217 585.4284 106.8218 614.3214 118.8933 635.7142C142.429 639.8927 175.4646 642.0713 204.2858 642.0713H411.286C440.1073 642.0713 473.1428 639.8927 496.6784 635.7142ZM372.5007 52.9644V106.0356H243.6782V83.6431C243.6782 57.9644 233.2139 48.3216 205.7495 37.2501L164.7498 23.0358L166.7498 0H449.4292L451.4292 23.0358ZM307.7859 688.4286ZM307.7859 335.4286ZM307.7859 0ZM382.0363 -157.107C382.0363 -116.9283 354.2505 -89.821 317.0717 -89.821C271 -89.821 233.5354 -127.9998 233.5354 -172.0358C233.5354 -210.6073 261.7142 -241.1432 301.9287 -241.1432C349.1789 -241.1432 382.0363 -203.7859 382.0363 -157.107ZM307.7859 0Z" glyph-name="Tdotbelow" horiz-adv-x="615.5718" unicode="&#7788;" /><glyph d="M254.1793 135.3571H335.9649C484.4294 135.3571 602.3939 209.6071 602.3939 345.25C602.3939 483.25 485.2151 559.4643 337.9291 559.4643H254.1793V512.3214H324.8933C415.5716 512.3214 469.3571 448.5356 469.3571 345.25C469.3571 242.3573 414.7859 182.5001 322.9291 182.5001H254.1793ZM125.3569 582.0002V106.0356H254.1793V582.0002ZM254.1793 52.9644V106.0356H125.3569V83.6431C125.3569 57.9644 114.8925 48.3216 87.4282 37.2501L46.4284 23.0358L48.4284 0H351.1078L353.1078 23.0358ZM125.3569 635.0713V582.0002H254.1794V604.3927C254.1794 630.0713 264.6437 639.7142 292.1081 650.7857L333.1079 665L331.1079 688.0358H48.4284L46.4284 665Z" glyph-name="Thorn" horiz-adv-x="627.8223" unicode="&#222;" /><glyph d="M88.3569 235.1788C88.3569 72.8572 189.607 -10 340.5716 -10C492.7148 -10 581.8219 71.8572 581.8219 235.1788V582.0002H531.6431V232.1788C531.6431 102.7502 466.429 40.1788 373.5005 40.1788C282.3934 40.1788 217.1793 105.9644 217.1793 231.5716V582.0002H88.3569ZM531.6431 635.0713V582.0002H581.8219V635.0713L660.7504 665L658.7504 688.0358H454.7146L452.7146 665ZM88.3569 635.0713V582.0002H217.1794V604.3927C217.1794 630.0713 227.6437 639.7142 255.1081 650.7857L296.1079 665L294.1079 688.0358H11.4284L9.4284 665ZM360.7504 688.0358ZM424.1074 0ZM344.6073 0Z" glyph-name="U" horiz-adv-x="672.1788" unicode="U" /><glyph d="M88.3569 235.1788C88.3569 72.8572 189.607 -10 340.5716 -10C492.7148 -10 581.8219 71.8572 581.8219 235.1788V582.0002H531.6431V232.1788C531.6431 102.7502 466.429 40.1788 373.5005 40.1788C282.3934 40.1788 217.1793 105.9644 217.1793 231.5716V582.0002H88.3569ZM531.6431 635.0713V582.0002H581.8219V635.0713L660.7504 665L658.7504 688.0358H454.7146L452.7146 665ZM88.3569 635.0713V582.0002H217.1794V604.3927C217.1794 630.0713 227.6437 639.7142 255.1081 650.7857L296.1079 665L294.1079 688.0358H11.4284L9.4284 665ZM360.7504 688.0358ZM424.1074 0ZM344.6073 0ZM442.8574 922.7146C398.6431 885.6431 318.0715 829.893 228.1788 790.9642L233.9644 773.1428C353.3936 775.8927 509.1078 801.6783 509.1078 867.9642C509.1078 891.893 482.0719 914.4646 453.5003 924.3217ZM360.7504 688.0358ZM340.7144 880.8574Z" glyph-name="Uacute" horiz-adv-x="672.1788" unicode="&#218;" /><glyph d="M473.8933 918.3575C459.1076 882.5718 416.0362 860.7861 360.3218 860.7861C300.8216 860.7861 258.5716 883.7861 246.6073 920.9647L225.9644 916.7504C233.3216 832.1073 283.1788 781.3571 354.7146 781.3571C429.0719 781.3571 482.3577 830.893 495.5362 915.5361L478.5005 920.3575ZM360.7504 688.0358ZM88.3569 235.1788C88.3569 72.8572 189.607 -10 340.5716 -10C492.7148 -10 581.8219 71.8572 581.8219 235.1788V582.0002H531.6431V232.1788C531.6431 102.7502 466.429 40.1788 373.5005 40.1788C282.3934 40.1788 217.1793 105.9644 217.1793 231.5716V582.0002H88.3569ZM531.6431 635.0713V582.0002H581.8219V635.0713L660.7504 665L658.7504 688.0358H454.7146L452.7146 665ZM88.3569 635.0713V582.0002H217.1794V604.3927C217.1794 630.0713 227.6437 639.7142 255.1081 650.7857L296.1079 665L294.1079 688.0358H11.4284L9.4284 665ZM360.7504 688.0358ZM424.1074 0ZM344.6073 0Z" glyph-name="Ubreve" horiz-adv-x="672.1788" unicode="&#364;" /><glyph d="M88.3569 235.1788C88.3569 72.8572 189.607 -10 340.5716 -10C492.7148 -10 581.8219 71.8572 581.8219 235.1788V582.0002H531.6431V232.1788C531.6431 102.7502 466.429 40.1788 373.5005 40.1788C282.3934 40.1788 217.1793 105.9644 217.1793 231.5716V582.0002H88.3569ZM531.6431 635.0713V582.0002H581.8219V635.0713L660.7504 665L658.7504 688.0358H454.7146L452.7146 665ZM88.3569 635.0713V582.0002H217.1794V604.3927C217.1794 630.0713 227.6437 639.7142 255.1081 650.7857L296.1079 665L294.1079 688.0358H11.4284L9.4284 665ZM360.7504 688.0358ZM424.1074 0ZM344.6073 0ZM330.9287 836.8219 394.572 837.6076C335.0719 863.1432 269.286 898.286 215.7144 928.0717L200.5001 917.4646C233.7857 871.286 278.5714 817.0002 319.5001 771.6072H391.7148L400.7505 778.0358C425.6435 811.9645 475.9649 868.143 520.6078 914.8574L507.3935 928.0717C445.1789 899.6789 373.1432 859.429 330.9287 836.8219ZM360.7503 688.0358Z" glyph-name="Ucaron" horiz-adv-x="672.1788" unicode="&#467;" /><glyph d="M88.3569 235.1788C88.3569 72.8572 189.607 -10 340.5716 -10C492.7148 -10 581.8219 71.8572 581.8219 235.1788V582.0002H531.6431V232.1788C531.6431 102.7502 466.429 40.1788 373.5005 40.1788C282.3934 40.1788 217.1793 105.9644 217.1793 231.5716V582.0002H88.3569ZM531.6431 635.0713V582.0002H581.8219V635.0713L660.7504 665L658.7504 688.0358H454.7146L452.7146 665ZM88.3569 635.0713V582.0002H217.1794V604.3927C217.1794 630.0713 227.6437 639.7142 255.1081 650.7857L296.1079 665L294.1079 688.0358H11.4284L9.4284 665ZM360.7504 688.0358ZM424.1074 0ZM344.6073 0ZM390.7863 862.857 327.143 862.0713C386.6431 836.5357 452.429 801.3928 506.0006 771.6072L521.2149 782.2143C487.9293 828.3928 443.1436 882.6786 402.2149 928.0717H330.0002L320.9644 921.6431C296.0715 887.7144 245.7501 831.5358 201.1072 784.8215L214.3216 771.6072C276.536 800 348.5718 840.2499 390.7863 862.857ZM360.7504 688.0358Z" glyph-name="Ucircumflex" horiz-adv-x="672.1788" unicode="&#219;" /><glyph d="M88.3569 235.1788C88.3569 72.8572 189.607 -10 340.5716 -10C492.7148 -10 581.8219 71.8572 581.8219 235.1788V582.0002H531.6431V232.1788C531.6431 102.7502 466.429 40.1788 373.5005 40.1788C282.3934 40.1788 217.1793 105.9644 217.1793 231.5716V582.0002H88.3569ZM531.6431 635.0713V582.0002H581.8219V635.0713L660.7504 665L658.7504 688.0358H454.7146L452.7146 665ZM88.3569 635.0713V582.0002H217.1794V604.3927C217.1794 630.0713 227.6437 639.7142 255.1081 650.7857L296.1079 665L294.1079 688.0358H11.4284L9.4284 665ZM360.7504 688.0358ZM424.1074 0ZM344.6073 0ZM541.108 857.2145C541.108 891.3575 514.7507 915.2505 479.0006 915.2505C435.5718 915.2505 401.3573 881.7146 401.3573 842.3216C401.3573 810 426.8931 783.4999 465.0719 783.4999C510.2864 783.4999 541.108 816.6072 541.108 857.2145ZM320.1434 857.2145C320.1434 891.3575 293.7861 915.2505 258.036 915.2505C214.6071 915.2505 180.3927 881.7146 180.3927 842.3216C180.3927 810 205.9285 783.4999 244.1072 783.4999C289.3218 783.4999 320.1434 816.6072 320.1434 857.2145ZM360.7504 688.0358ZM358.3218 932.3217Z" glyph-name="Udieresis" horiz-adv-x="672.1788" unicode="&#220;" /><glyph d="M88.3569 235.1788C88.3569 72.8572 189.607 -10 340.5716 -10C492.7148 -10 581.8219 71.8572 581.8219 235.1788V582.0002H531.6431V232.1788C531.6431 102.7502 466.429 40.1788 373.5005 40.1788C282.3934 40.1788 217.1793 105.9644 217.1793 231.5716V582.0002H88.3569ZM531.6431 635.0713V582.0002H581.8219V635.0713L660.7504 665L658.7504 688.0358H454.7146L452.7146 665ZM88.3569 635.0713V582.0002H217.1794V604.3927C217.1794 630.0713 227.6437 639.7142 255.1081 650.7857L296.1079 665L294.1079 688.0358H11.4284L9.4284 665ZM360.7504 688.0358ZM424.1074 0ZM344.6073 0ZM440.4288 1167.0006C396.2145 1129.9291 315.6429 1074.1789 225.7501 1035.2503L231.5358 1017.4288C350.9651 1020.1788 506.6793 1045.9642 506.6793 1112.2503C506.6793 1136.1789 479.6433 1158.7505 451.0717 1168.6077ZM358.3218 932.3218ZM338.2858 1125.1434ZM541.108 857.2145C541.108 891.3575 514.7507 915.2505 479.0006 915.2505C435.5718 915.2505 401.3573 881.7146 401.3573 842.3216C401.3573 810 426.8931 783.4999 465.0719 783.4999C510.2864 783.4999 541.108 816.6072 541.108 857.2145ZM320.1434 857.2145C320.1434 891.3575 293.7861 915.2505 258.036 915.2505C214.6071 915.2505 180.3927 881.7146 180.3927 842.3216C180.3927 810 205.9285 783.4999 244.1072 783.4999C289.3218 783.4999 320.1434 816.6072 320.1434 857.2145ZM360.7504 688.0358ZM358.3218 932.3217Z" glyph-name="Udieresisacute" horiz-adv-x="672.1788" unicode="&#471;" /><glyph d="M88.3569 235.1788C88.3569 72.8572 189.607 -10 340.5716 -10C492.7148 -10 581.8219 71.8572 581.8219 235.1788V582.0002H531.6431V232.1788C531.6431 102.7502 466.429 40.1788 373.5005 40.1788C282.3934 40.1788 217.1793 105.9644 217.1793 231.5716V582.0002H88.3569ZM531.6431 635.0713V582.0002H581.8219V635.0713L660.7504 665L658.7504 688.0358H454.7146L452.7146 665ZM88.3569 635.0713V582.0002H217.1794V604.3927C217.1794 630.0713 227.6437 639.7142 255.1081 650.7857L296.1079 665L294.1079 688.0358H11.4284L9.4284 665ZM360.7504 688.0358ZM424.1074 0ZM344.6073 0ZM541.108 857.2145C541.108 891.3575 514.7507 915.2505 479.0006 915.2505C435.5718 915.2505 401.3573 881.7146 401.3573 842.3216C401.3573 810 426.8931 783.4999 465.0719 783.4999C510.2864 783.4999 541.108 816.6072 541.108 857.2145ZM320.1434 857.2145C320.1434 891.3575 293.7861 915.2505 258.036 915.2505C214.6071 915.2505 180.3927 881.7146 180.3927 842.3216C180.3927 810 205.9285 783.4999 244.1072 783.4999C289.3218 783.4999 320.1434 816.6072 320.1434 857.2145ZM360.7504 688.0358ZM358.3218 932.3217ZM330.9287 1081.1079 394.572 1081.8936C335.0719 1107.4292 269.286 1142.572 215.7144 1172.3577L200.5001 1161.7506C233.7857 1115.572 278.5714 1061.2862 319.5001 1015.8932H391.7148L400.7505 1022.3218C425.6435 1056.2505 475.9649 1112.429 520.6078 1159.1434L507.3935 1172.3577C445.1789 1143.9649 373.1432 1103.715 330.9287 1081.1079ZM360.7503 932.3218Z" glyph-name="Udieresiscaron" horiz-adv-x="672.1788" unicode="&#473;" /><glyph d="M88.3569 235.1788C88.3569 72.8572 189.607 -10 340.5716 -10C492.7148 -10 581.8219 71.8572 581.8219 235.1788V582.0002H531.6431V232.1788C531.6431 102.7502 466.429 40.1788 373.5005 40.1788C282.3934 40.1788 217.1793 105.9644 217.1793 231.5716V582.0002H88.3569ZM531.6431 635.0713V582.0002H581.8219V635.0713L660.7504 665L658.7504 688.0358H454.7146L452.7146 665ZM88.3569 635.0713V582.0002H217.1794V604.3927C217.1794 630.0713 227.6437 639.7142 255.1081 650.7857L296.1079 665L294.1079 688.0358H11.4284L9.4284 665ZM360.7504 688.0358ZM424.1074 0ZM344.6073 0ZM490.8933 1035.6431C401.0006 1074.5718 320.429 1130.322 276.2147 1167.3935L265.5718 1169.0006C237.0002 1159.1434 209.9642 1136.5718 209.9642 1112.6431C209.9642 1046.3571 365.6784 1020.5716 485.1076 1017.8217ZM358.3218 932.3218ZM541.108 857.2145C541.108 891.3575 514.7507 915.2505 479.0006 915.2505C435.5718 915.2505 401.3573 881.7146 401.3573 842.3216C401.3573 810 426.8931 783.4999 465.0719 783.4999C510.2864 783.4999 541.108 816.6072 541.108 857.2145ZM320.1434 857.2145C320.1434 891.3575 293.7861 915.2505 258.036 915.2505C214.6071 915.2505 180.3927 881.7146 180.3927 842.3216C180.3927 810 205.9285 783.4999 244.1072 783.4999C289.3218 783.4999 320.1434 816.6072 320.1434 857.2145ZM360.7504 688.0358ZM358.3218 932.3217Z" glyph-name="Udieresisgrave" horiz-adv-x="672.1788" unicode="&#475;" /><glyph d="M201.5714 1060.0717H515.0721V1127.6077H201.5714ZM358.3218 932.3218ZM88.3569 235.1788C88.3569 72.8572 189.607 -10 340.5716 -10C492.7148 -10 581.8219 71.8572 581.8219 235.1788V582.0002H531.6431V232.1788C531.6431 102.7502 466.429 40.1788 373.5005 40.1788C282.3934 40.1788 217.1793 105.9644 217.1793 231.5716V582.0002H88.3569ZM531.6431 635.0713V582.0002H581.8219V635.0713L660.7504 665L658.7504 688.0358H454.7146L452.7146 665ZM88.3569 635.0713V582.0002H217.1794V604.3927C217.1794 630.0713 227.6437 639.7142 255.1081 650.7857L296.1079 665L294.1079 688.0358H11.4284L9.4284 665ZM360.7504 688.0358ZM424.1074 0ZM344.6073 0ZM541.108 857.2145C541.108 891.3575 514.7507 915.2505 479.0006 915.2505C435.5718 915.2505 401.3573 881.7146 401.3573 842.3216C401.3573 810 426.8931 783.4999 465.0719 783.4999C510.2864 783.4999 541.108 816.6072 541.108 857.2145ZM320.1434 857.2145C320.1434 891.3575 293.7861 915.2505 258.036 915.2505C214.6071 915.2505 180.3927 881.7146 180.3927 842.3216C180.3927 810 205.9285 783.4999 244.1072 783.4999C289.3218 783.4999 320.1434 816.6072 320.1434 857.2145ZM360.7504 688.0358ZM358.3218 932.3217Z" glyph-name="Udieresismacron" horiz-adv-x="672.1788" unicode="&#469;" /><glyph d="M88.3569 235.1788C88.3569 72.8572 189.607 -10 340.5716 -10C492.7148 -10 581.8219 71.8572 581.8219 235.1788V582.0002H531.6431V232.1788C531.6431 102.7502 466.429 40.1788 373.5005 40.1788C282.3934 40.1788 217.1793 105.9644 217.1793 231.5716V582.0002H88.3569ZM531.6431 635.0713V582.0002H581.8219V635.0713L660.7504 665L658.7504 688.0358H454.7146L452.7146 665ZM88.3569 635.0713V582.0002H217.1794V604.3927C217.1794 630.0713 227.6437 639.7142 255.1081 650.7857L296.1079 665L294.1079 688.0358H11.4284L9.4284 665ZM360.7504 688.0358ZM424.1074 0ZM344.6073 0ZM418.8578 -157.107C418.8578 -116.9283 391.0719 -89.821 353.8931 -89.821C307.8215 -89.821 270.3569 -127.9998 270.3569 -172.0358C270.3569 -210.6073 298.5357 -241.1432 338.7501 -241.1432C386.0004 -241.1432 418.8578 -203.7859 418.8578 -157.107ZM344.6073 0Z" glyph-name="Udotbelow" horiz-adv-x="672.1788" unicode="&#7908;" /><glyph d="M88.3569 235.1788C88.3569 72.8572 189.607 -10 340.5716 -10C492.7148 -10 581.8219 71.8572 581.8219 235.1788V582.0002H531.6431V232.1788C531.6431 102.7502 466.429 40.1788 373.5005 40.1788C282.3934 40.1788 217.1793 105.9644 217.1793 231.5716V582.0002H88.3569ZM531.6431 635.0713V582.0002H581.8219V635.0713L660.7504 665L658.7504 688.0358H454.7146L452.7146 665ZM88.3569 635.0713V582.0002H217.1794V604.3927C217.1794 630.0713 227.6437 639.7142 255.1081 650.7857L296.1079 665L294.1079 688.0358H11.4284L9.4284 665ZM360.7504 688.0358ZM424.1074 0ZM344.6073 0ZM493.322 791.3571C403.4292 830.2858 322.8576 886.0359 278.6433 923.1074L268.0004 924.7146C239.4288 914.8574 212.3929 892.2858 212.3929 868.3571C212.3929 802.0711 368.1071 776.2856 487.5362 773.5357ZM360.7504 688.0358Z" glyph-name="Ugrave" horiz-adv-x="672.1788" unicode="&#217;" /><glyph d="M468.7516 925.5361C434.5372 888.4646 373.0014 832.7144 304.0729 793.7857L309.8586 775.9642C405.5734 778.7142 528.9305 806.0711 528.9305 870.7857C528.9305 894.7144 504.9303 917.286 479.3945 927.1432ZM393.7486 925.5361C359.5342 888.4646 297.9984 832.7144 229.0699 793.7857L234.8556 775.9642C330.5704 778.7142 453.9275 806.0711 453.9275 870.7857C453.9275 894.7144 429.9273 917.286 404.3915 927.1432ZM360.7504 688.0358ZM88.3569 235.1788C88.3569 72.8572 189.607 -10 340.5716 -10C492.7148 -10 581.8219 71.8572 581.8219 235.1788V582.0002H531.6431V232.1788C531.6431 102.7502 466.429 40.1788 373.5005 40.1788C282.3934 40.1788 217.1793 105.9644 217.1793 231.5716V582.0002H88.3569ZM531.6431 635.0713V582.0002H581.8219V635.0713L660.7504 665L658.7504 688.0358H454.7146L452.7146 665ZM88.3569 635.0713V582.0002H217.1794V604.3927C217.1794 630.0713 227.6437 639.7142 255.1081 650.7857L296.1079 665L294.1079 688.0358H11.4284L9.4284 665ZM360.7504 688.0358ZM424.1074 0ZM344.6073 0Z" glyph-name="Uhungarumlaut" horiz-adv-x="672.1788" unicode="&#368;" /><glyph d="M204 815.7857H517.5007V883.3217H204ZM360.7504 688.0358ZM88.3569 235.1788C88.3569 72.8572 189.607 -10 340.5716 -10C492.7148 -10 581.8219 71.8572 581.8219 235.1788V582.0002H531.6431V232.1788C531.6431 102.7502 466.429 40.1788 373.5005 40.1788C282.3934 40.1788 217.1793 105.9644 217.1793 231.5716V582.0002H88.3569ZM531.6431 635.0713V582.0002H581.8219V635.0713L660.7504 665L658.7504 688.0358H454.7146L452.7146 665ZM88.3569 635.0713V582.0002H217.1794V604.3927C217.1794 630.0713 227.6437 639.7142 255.1081 650.7857L296.1079 665L294.1079 688.0358H11.4284L9.4284 665ZM360.7504 688.0358ZM424.1074 0ZM344.6073 0Z" glyph-name="Umacron" horiz-adv-x="672.1788" unicode="&#362;" /><glyph d="M88.3569 235.1788C88.3569 72.8572 189.607 -10 340.5716 -10C492.7148 -10 581.8219 71.8572 581.8219 235.1788V582.0002H531.6431V232.1788C531.6431 102.7502 466.429 40.1788 373.5005 40.1788C282.3934 40.1788 217.1793 105.9644 217.1793 231.5716V582.0002H88.3569ZM531.6431 635.0713V582.0002H581.8219V635.0713L660.7504 665L658.7504 688.0358H454.7146L452.7146 665ZM88.3569 635.0713V582.0002H217.1794V604.3927C217.1794 630.0713 227.6437 639.7142 255.1081 650.7857L296.1079 665L294.1079 688.0358H11.4284L9.4284 665ZM360.7504 688.0358ZM424.1074 0ZM344.6073 0ZM411.1073 -181.6071 407.1073 -169.5714C389.143 -173.3571 376.7501 -174.75 359.9644 -174.75C327.2145 -174.75 308.2502 -156.3571 308.2502 -125.7857C308.2502 -79.5357 349.1074 -31.4642 424.1075 0L417.7504 13.3571C282.2856 -16.6427 206.7495 -73.8928 206.7495 -150.7501C206.7495 -205.6431 244.464 -241.1432 300.5712 -241.1432C345.9642 -241.1432 387.0715 -219.4288 411.1073 -181.6071ZM424.1075 0Z" glyph-name="Uogonek" horiz-adv-x="672.1788" unicode="&#370;" /><glyph d="M88.3569 235.1788C88.3569 72.8572 189.607 -10 340.5716 -10C492.7148 -10 581.8219 71.8572 581.8219 235.1788V582.0002H531.6431V232.1788C531.6431 102.7502 466.429 40.1788 373.5005 40.1788C282.3934 40.1788 217.1793 105.9644 217.1793 231.5716V582.0002H88.3569ZM531.6431 635.0713V582.0002H581.8219V635.0713L660.7504 665L658.7504 688.0358H454.7146L452.7146 665ZM88.3569 635.0713V582.0002H217.1794V604.3927C217.1794 630.0713 227.6437 639.7142 255.1081 650.7857L296.1079 665L294.1079 688.0358H11.4284L9.4284 665ZM360.7504 688.0358ZM424.1074 0ZM344.6073 0ZM357.3575 766C418.1434 766 461.8578 804.8929 462.6435 857.6073C463.4292 906.1074 422.322 940.5718 364.9647 940.5718C303.1787 940.5718 259.4643 903.286 259.4643 849.5716C259.4643 799.4643 299.1787 766 357.3575 766ZM361.3575 907.8574C389.3932 907.8574 409.2147 885.8217 409.2147 856.7859C409.2147 823.7502 389.3932 798.7144 360.3575 798.7144C332.3218 798.7144 312.5003 820.7502 312.5003 850.7859C312.5003 882.8217 332.3218 907.8574 361.3575 907.8574ZM360.7504 688.0358ZM363.3932 932.3217Z" glyph-name="Uring" horiz-adv-x="672.1788" unicode="&#366;" /><glyph d="M235.8574 838.4642C289.2862 826.1426 390.8572 776.3571 458.2502 776.3571C520.2862 776.3571 548.3935 829.143 553.1076 894.143C553.1076 903.8574 552.5005 910.5361 551.8934 917.8219L534.2505 923.8219C526.0006 909.6793 490.7504 864.3575 485.6433 856.5005C431.036 868.4292 331.822 918.6076 263.2505 918.6076C201.6073 918.6076 172.3216 864.0002 167.6073 795.5716C167.6073 789.5001 168.2145 782.8215 168.8217 776.75L186.4646 771.1428C194.3216 784.8926 231.536 833.75 235.8574 838.4642ZM360.7504 688.0358ZM358.1432 930.0358ZM88.3569 235.1788C88.3569 72.8572 189.607 -10 340.5716 -10C492.7148 -10 581.8219 71.8572 581.8219 235.1788V582.0002H531.6431V232.1788C531.6431 102.7502 466.429 40.1788 373.5005 40.1788C282.3934 40.1788 217.1793 105.9644 217.1793 231.5716V582.0002H88.3569ZM531.6431 635.0713V582.0002H581.8219V635.0713L660.7504 665L658.7504 688.0358H454.7146L452.7146 665ZM88.3569 635.0713V582.0002H217.1794V604.3927C217.1794 630.0713 227.6437 639.7142 255.1081 650.7857L296.1079 665L294.1079 688.0358H11.4284L9.4284 665ZM360.7504 688.0358ZM424.1074 0ZM344.6073 0Z" glyph-name="Utilde" horiz-adv-x="672.1788" unicode="&#360;" /><glyph d="M397.3575 0 611.1074 604.4642C619.3217 627.2856 628.9289 638.4999 645.4646 645.9285C653.3575 650.7857 685.0715 658.9285 696.6073 665L694.6073 688.0358H496.4645L494.4645 665L604.2145 629.8927L583.3931 669.1428L390.0362 99.7506H411.7148L230.0008 640.5357L308.9293 665L306.9293 688.0358H19.4284L17.4284 665L58.4282 650.1785C81.4639 640.7142 93.1068 632.3214 102.9283 603.857L316.6782 0Z" glyph-name="V" horiz-adv-x="714.0358" unicode="V" /><glyph d="M760.1077 0 959.7504 604.4642C967.3575 627.2856 976.9647 638.4999 993.5003 645.9285C1002.0004 650.7857 1033.7144 658.9285 1045.2503 665L1043.2503 688.0358H845.1074L843.1074 665L922.6431 639.9285L760.6793 126.4651H766.572L607.251 640.5357L686.5724 665L684.5724 688.0358H402.3573L400.3573 665L441.75 650.1785C464.7857 640.7142 470.9642 632.3214 480.1785 603.857L679.4284 0ZM383.2502 0 552.0715 510.3569 526.6072 577.1428 375.9289 99.7506H397.6076L230.0008 640.5357L308.9293 665L306.9293 688.0358H19.4284L17.4284 665L58.4282 650.1785C81.4639 640.7142 93.714 632.3214 102.9283 603.857L302.571 0ZM531.3932 688.0358Z" glyph-name="W" horiz-adv-x="1062.6787" unicode="W" /><glyph d="M613.5003 922.7146C569.286 885.6431 488.7144 829.893 398.8216 790.9642L404.6073 773.1428C524.0366 775.8927 679.7507 801.6783 679.7507 867.9642C679.7507 891.893 652.7148 914.4646 624.1432 924.3217ZM531.3932 688.0358ZM511.3573 880.8574ZM760.1077 0 959.7504 604.4642C967.3575 627.2856 976.9647 638.4999 993.5003 645.9285C1002.0004 650.7857 1033.7144 658.9285 1045.2503 665L1043.2503 688.0358H845.1074L843.1074 665L922.6431 639.9285L760.6793 126.4651H766.572L607.251 640.5357L686.5724 665L684.5724 688.0358H402.3573L400.3573 665L441.75 650.1785C464.7857 640.7142 470.9642 632.3214 480.1785 603.857L679.4284 0ZM383.2502 0 552.0715 510.3569 526.6072 577.1428 375.9289 99.7506H397.6076L230.0008 640.5357L308.9293 665L306.9293 688.0358H19.4284L17.4284 665L58.4282 650.1785C81.4639 640.7142 93.714 632.3214 102.9283 603.857L302.571 0ZM531.3932 688.0358Z" glyph-name="Wacute" horiz-adv-x="1062.6787" unicode="&#7810;" /><glyph d="M760.1077 0 959.7504 604.4642C967.3575 627.2856 976.9647 638.4999 993.5003 645.9285C1002.0004 650.7857 1033.7144 658.9285 1045.2503 665L1043.2503 688.0358H845.1074L843.1074 665L922.6431 639.9285L760.6793 126.4651H766.572L607.251 640.5357L686.5724 665L684.5724 688.0358H402.3573L400.3573 665L441.75 650.1785C464.7857 640.7142 470.9642 632.3214 480.1785 603.857L679.4284 0ZM383.2502 0 552.0715 510.3569 526.6072 577.1428 375.9289 99.7506H397.6076L230.0008 640.5357L308.9293 665L306.9293 688.0358H19.4284L17.4284 665L58.4282 650.1785C81.4639 640.7142 93.714 632.3214 102.9283 603.857L302.571 0ZM531.3932 688.0358ZM561.4292 862.857 497.7859 862.0713C557.286 836.5357 623.0719 801.3928 676.6435 771.6072L691.8578 782.2143C658.5722 828.3928 613.7865 882.6786 572.8578 928.0717H500.6431L491.6073 921.6431C466.7144 887.7144 416.3931 831.5358 371.7502 784.8215L384.9645 771.6072C447.1789 800 519.2147 840.2499 561.4292 862.857ZM531.3933 688.0358Z" glyph-name="Wcircumflex" horiz-adv-x="1062.6787" unicode="&#372;" /><glyph d="M760.1077 0 959.7504 604.4642C967.3575 627.2856 976.9647 638.4999 993.5003 645.9285C1002.0004 650.7857 1033.7144 658.9285 1045.2503 665L1043.2503 688.0358H845.1074L843.1074 665L922.6431 639.9285L760.6793 126.4651H766.572L607.251 640.5357L686.5724 665L684.5724 688.0358H402.3573L400.3573 665L441.75 650.1785C464.7857 640.7142 470.9642 632.3214 480.1785 603.857L679.4284 0ZM383.2502 0 552.0715 510.3569 526.6072 577.1428 375.9289 99.7506H397.6076L230.0008 640.5357L308.9293 665L306.9293 688.0358H19.4284L17.4284 665L58.4282 650.1785C81.4639 640.7142 93.714 632.3214 102.9283 603.857L302.571 0ZM531.3932 688.0358ZM711.7509 857.2145C711.7509 891.3575 685.3936 915.2505 649.6435 915.2505C606.2147 915.2505 572.0002 881.7146 572.0002 842.3216C572.0002 810 597.536 783.4999 635.7148 783.4999C680.9293 783.4999 711.7509 816.6072 711.7509 857.2145ZM490.7863 857.2145C490.7863 891.3575 464.429 915.2505 428.6789 915.2505C385.25 915.2505 351.0356 881.7146 351.0356 842.3216C351.0356 810 376.5714 783.4999 414.7501 783.4999C459.9647 783.4999 490.7863 816.6072 490.7863 857.2145ZM531.3933 688.0358ZM528.9647 932.3217Z" glyph-name="Wdieresis" horiz-adv-x="1062.6787" unicode="&#7812;" /><glyph d="M663.9649 791.3571C574.0721 830.2858 493.5005 886.0359 449.2862 923.1074L438.6433 924.7146C410.0717 914.8574 383.0358 892.2858 383.0358 868.3571C383.0358 802.0711 538.75 776.2856 658.1791 773.5357ZM531.3933 688.0358ZM760.1077 0 959.7504 604.4642C967.3575 627.2856 976.9647 638.4999 993.5003 645.9285C1002.0004 650.7857 1033.7144 658.9285 1045.2503 665L1043.2503 688.0358H845.1074L843.1074 665L922.6431 639.9285L760.6793 126.4651H766.572L607.251 640.5357L686.5724 665L684.5724 688.0358H402.3573L400.3573 665L441.75 650.1785C464.7857 640.7142 470.9642 632.3214 480.1785 603.857L679.4284 0ZM383.2502 0 552.0715 510.3569 526.6072 577.1428 375.9289 99.7506H397.6076L230.0008 640.5357L308.9293 665L306.9293 688.0358H19.4284L17.4284 665L58.4282 650.1785C81.4639 640.7142 93.714 632.3214 102.9283 603.857L302.571 0ZM531.3932 688.0358Z" glyph-name="Wgrave" horiz-adv-x="1062.6787" unicode="&#7808;" /><glyph d="M577.6789 597.1784C594.286 620.1784 606.9647 632.4284 625.5718 641.6784C637.7148 648.9642 668.3575 659.5357 684.7505 665L682.7505 688.0358H463.3573L461.3573 665L540.2858 639.3214L363.6789 361.5714L380.2502 316.7855ZM481.0351 47.5001 402.1067 23.0358 404.1067 0H684.7148L686.7148 23.0358C677.0004 27.8929 651.2149 36.6429 643.9291 42.7144C627.3935 51.143 619.5362 62.3931 605.1434 84.1787L239.1438 640.5357L318.0723 665L316.0723 688.0358H32.4284L30.4284 665C44.3929 659.5357 69.1783 650.1785 75.857 644.107C90.3927 635.6784 97.8213 625.6427 111.9998 603.857ZM132.5001 90.8574C116.8929 68.2502 103.8214 55.6073 84.6072 46.3573C72.4642 39.0715 41.8214 29.1073 25.4284 23.0358L27.4284 0H246.8217L248.8217 23.0358L169.8931 48.7144L348.4644 328.8215L331.8929 373.6073Z" glyph-name="X" horiz-adv-x="712.1432" unicode="X" /><glyph d="M19.4284 688.0358 17.4284 665 52.3567 653.8215C74.9996 644.3571 87.6783 635.9642 105.1426 603.857L304.5712 242.75H385.2505L583.5005 604.4642C594.5005 624.857 603.7148 636.0713 620.6433 643.4999C627.9291 649.5714 659.0359 658.9285 671.7861 665L669.7861 688.0358H469.8218L467.8218 665L575.1432 631.7142L560.1432 667.5357L377.322 308.6789H399.6078L219.0366 666.9285L204.6437 631.7142L311.9651 665L309.9651 688.0358ZM279.9996 304.8572V106.0356H408.822V304.8572ZM408.822 52.9644V106.0356H279.9996V83.6431C279.9996 57.9644 269.5353 48.3216 242.0709 37.2501L201.0711 23.0358L203.0711 0H485.7505L487.7505 23.0358ZM359.536 688.0358Z" glyph-name="Y" horiz-adv-x="689.2145" unicode="Y" /><glyph d="M19.4284 688.0358 17.4284 665 52.3567 653.8215C74.9996 644.3571 87.6783 635.9642 105.1426 603.857L304.5712 242.75H385.2505L583.5005 604.4642C594.5005 624.857 603.7148 636.0713 620.6433 643.4999C627.9291 649.5714 659.0359 658.9285 671.7861 665L669.7861 688.0358H469.8218L467.8218 665L575.1432 631.7142L560.1432 667.5357L377.322 308.6789H399.6078L219.0366 666.9285L204.6437 631.7142L311.9651 665L309.9651 688.0358ZM279.9996 304.8572V106.0356H408.822V304.8572ZM408.822 52.9644V106.0356H279.9996V83.6431C279.9996 57.9644 269.5353 48.3216 242.0709 37.2501L201.0711 23.0358L203.0711 0H485.7505L487.7505 23.0358ZM359.536 688.0358ZM441.6431 922.7146C397.4288 885.6431 316.8572 829.893 226.9644 790.9642L232.7502 773.1428C352.1793 775.8927 507.8936 801.6783 507.8936 867.9642C507.8936 891.893 480.8576 914.4646 452.286 924.3217ZM359.5361 688.0358ZM339.5001 880.8574Z" glyph-name="Yacute" horiz-adv-x="689.2145" unicode="&#221;" /><glyph d="M19.4284 688.0358 17.4284 665 52.3567 653.8215C74.9996 644.3571 87.6783 635.9642 105.1426 603.857L304.5712 242.75H385.2505L583.5005 604.4642C594.5005 624.857 603.7148 636.0713 620.6433 643.4999C627.9291 649.5714 659.0359 658.9285 671.7861 665L669.7861 688.0358H469.8218L467.8218 665L575.1432 631.7142L560.1432 667.5357L377.322 308.6789H399.6078L219.0366 666.9285L204.6437 631.7142L311.9651 665L309.9651 688.0358ZM279.9996 304.8572V106.0356H408.822V304.8572ZM408.822 52.9644V106.0356H279.9996V83.6431C279.9996 57.9644 269.5353 48.3216 242.0709 37.2501L201.0711 23.0358L203.0711 0H485.7505L487.7505 23.0358ZM359.536 688.0358ZM389.572 862.857 325.9287 862.0713C385.4288 836.5357 451.2147 801.3928 504.7863 771.6072L520.0006 782.2143C486.715 828.3928 441.9293 882.6786 401.0006 928.0717H328.7859L319.7502 921.6431C294.8572 887.7144 244.5358 831.5358 199.8929 784.8215L213.1073 771.6072C275.3218 800 347.3575 840.2499 389.572 862.857ZM359.536 688.0358Z" glyph-name="Ycircumflex" horiz-adv-x="689.2145" unicode="&#374;" /><glyph d="M19.4284 688.0358 17.4284 665 52.3567 653.8215C74.9996 644.3571 87.6783 635.9642 105.1426 603.857L304.5712 242.75H385.2505L583.5005 604.4642C594.5005 624.857 603.7148 636.0713 620.6433 643.4999C627.9291 649.5714 659.0359 658.9285 671.7861 665L669.7861 688.0358H469.8218L467.8218 665L575.1432 631.7142L560.1432 667.5357L377.322 308.6789H399.6078L219.0366 666.9285L204.6437 631.7142L311.9651 665L309.9651 688.0358ZM279.9996 304.8572V106.0356H408.822V304.8572ZM408.822 52.9644V106.0356H279.9996V83.6431C279.9996 57.9644 269.5353 48.3216 242.0709 37.2501L201.0711 23.0358L203.0711 0H485.7505L487.7505 23.0358ZM359.536 688.0358ZM539.8937 857.2145C539.8937 891.3575 513.5364 915.2505 477.7863 915.2505C434.3575 915.2505 400.143 881.7146 400.143 842.3216C400.143 810 425.6789 783.4999 463.8576 783.4999C509.0721 783.4999 539.8937 816.6072 539.8937 857.2145ZM318.9291 857.2145C318.9291 891.3575 292.5718 915.2505 256.8216 915.2505C213.3929 915.2505 179.1783 881.7146 179.1783 842.3216C179.1783 810 204.7142 783.4999 242.8929 783.4999C288.1074 783.4999 318.9291 816.6072 318.9291 857.2145ZM359.5361 688.0358ZM357.1074 932.3217Z" glyph-name="Ydieresis" horiz-adv-x="689.2145" unicode="&#376;" /><glyph d="M19.4284 688.0358 17.4284 665 52.3567 653.8215C74.9996 644.3571 87.6783 635.9642 105.1426 603.857L304.5712 242.75H385.2505L583.5005 604.4642C594.5005 624.857 603.7148 636.0713 620.6433 643.4999C627.9291 649.5714 659.0359 658.9285 671.7861 665L669.7861 688.0358H469.8218L467.8218 665L575.1432 631.7142L560.1432 667.5357L377.322 308.6789H399.6078L219.0366 666.9285L204.6437 631.7142L311.9651 665L309.9651 688.0358ZM279.9996 304.8572V106.0356H408.822V304.8572ZM408.822 52.9644V106.0356H279.9996V83.6431C279.9996 57.9644 269.5353 48.3216 242.0709 37.2501L201.0711 23.0358L203.0711 0H485.7505L487.7505 23.0358ZM359.536 688.0358ZM492.1077 791.3571C402.2149 830.2858 321.6433 886.0359 277.429 923.1074L266.7861 924.7146C238.2145 914.8574 211.1786 892.2858 211.1786 868.3571C211.1786 802.0711 366.8927 776.2856 486.322 773.5357ZM359.5361 688.0358Z" glyph-name="Ygrave" horiz-adv-x="689.2145" unicode="&#7922;" /><glyph d="M19.4284 688.0358 17.4284 665 52.3567 653.8215C74.9996 644.3571 87.6783 635.9642 105.1426 603.857L304.5712 242.75H385.2505L583.5005 604.4642C594.5005 624.857 603.7148 636.0713 620.6433 643.4999C627.9291 649.5714 659.0359 658.9285 671.7861 665L669.7861 688.0358H469.8218L467.8218 665L575.1432 631.7142L560.1432 667.5357L377.322 308.6789H399.6078L219.0366 666.9285L204.6437 631.7142L311.9651 665L309.9651 688.0358ZM279.9996 304.8572V106.0356H408.822V304.8572ZM408.822 52.9644V106.0356H279.9996V83.6431C279.9996 57.9644 269.5353 48.3216 242.0709 37.2501L201.0711 23.0358L203.0711 0H485.7505L487.7505 23.0358ZM359.536 688.0358ZM202.7857 815.7857H516.2864V883.3217H202.7857ZM359.536 688.0358Z" glyph-name="Ymacron" horiz-adv-x="689.2145" unicode="&#562;" /><glyph d="M19.4284 688.0358 17.4284 665 52.3567 653.8215C74.9996 644.3571 87.6783 635.9642 105.1426 603.857L304.5712 242.75H385.2505L583.5005 604.4642C594.5005 624.857 603.7148 636.0713 620.6433 643.4999C627.9291 649.5714 659.0359 658.9285 671.7861 665L669.7861 688.0358H469.8218L467.8218 665L575.1432 631.7142L560.1432 667.5357L377.322 308.6789H399.6078L219.0366 666.9285L204.6437 631.7142L311.9651 665L309.9651 688.0358ZM279.9996 304.8572V106.0356H408.822V304.8572ZM408.822 52.9644V106.0356H279.9996V83.6431C279.9996 57.9644 269.5353 48.3216 242.0709 37.2501L201.0711 23.0358L203.0711 0H485.7505L487.7505 23.0358ZM359.536 688.0358ZM234.6431 838.4642C288.0719 826.1426 389.6429 776.3571 457.036 776.3571C519.0719 776.3571 547.1791 829.143 551.8933 894.143C551.8933 903.8574 551.2862 910.5361 550.679 917.8219L533.0362 923.8219C524.7863 909.6793 489.5361 864.3575 484.429 856.5005C429.8217 868.4292 330.6078 918.6076 262.0362 918.6076C200.3931 918.6076 171.1073 864.0002 166.3931 795.5716C166.3931 789.5001 167.0002 782.8215 167.6073 776.75L185.2502 771.1428C193.1073 784.8926 230.3218 833.75 234.6431 838.4642ZM359.5361 688.0358ZM356.9289 930.0358Z" glyph-name="Ytilde" horiz-adv-x="689.2145" unicode="&#7928;" /><glyph d="M563.3577 0C567.9648 31.2501 571.1792 68.8214 571.1792 106.0715C571.1792 145.4646 567.7505 178.8219 560.8934 210.5362H536.7861L460.8927 49.5716C437.75 46.5716 405.8929 45.1788 378.2502 45.1788H171.9652L189.6081 22.8217L571.3579 645.8927L563.3221 688.0358H73.6784C69.0713 657.3928 65.857 623.4643 65.857 584.3928C65.857 549.2499 69.2856 510.4282 76.1428 477.4995H100.2501L176.1434 638.4642C199.2862 641.4642 231.1432 642.857 258.7859 642.857H457.4282L439.7853 665.2141L57.4284 42.143L65.4642 0ZM320.3931 688.0358ZM321.1787 0Z" glyph-name="Z" horiz-adv-x="634.679" unicode="Z" /><glyph d="M563.3577 0C567.9648 31.2501 571.1792 68.8214 571.1792 106.0715C571.1792 145.4646 567.7505 178.8219 560.8934 210.5362H536.7861L460.8927 49.5716C437.75 46.5716 405.8929 45.1788 378.2502 45.1788H171.9652L189.6081 22.8217L571.3579 645.8927L563.3221 688.0358H73.6784C69.0713 657.3928 65.857 623.4643 65.857 584.3928C65.857 549.2499 69.2856 510.4282 76.1428 477.4995H100.2501L176.1434 638.4642C199.2862 641.4642 231.1432 642.857 258.7859 642.857H457.4282L439.7853 665.2141L57.4284 42.143L65.4642 0ZM320.3931 688.0358ZM321.1787 0ZM402.5001 922.7146C358.2858 885.6431 277.7142 829.893 187.8214 790.9642L193.6071 773.1428C313.0363 775.8927 468.7505 801.6783 468.7505 867.9642C468.7505 891.893 441.7146 914.4646 413.143 924.3217ZM320.3931 688.0358ZM300.3571 880.8574Z" glyph-name="Zacute" horiz-adv-x="634.679" unicode="&#377;" /><glyph d="M563.3577 0C567.9648 31.2501 571.1792 68.8214 571.1792 106.0715C571.1792 145.4646 567.7505 178.8219 560.8934 210.5362H536.7861L460.8927 49.5716C437.75 46.5716 405.8929 45.1788 378.2502 45.1788H171.9652L189.6081 22.8217L571.3579 645.8927L563.3221 688.0358H73.6784C69.0713 657.3928 65.857 623.4643 65.857 584.3928C65.857 549.2499 69.2856 510.4282 76.1428 477.4995H100.2501L176.1434 638.4642C199.2862 641.4642 231.1432 642.857 258.7859 642.857H457.4282L439.7853 665.2141L57.4284 42.143L65.4642 0ZM320.3931 688.0358ZM321.1787 0ZM290.5714 836.8219 354.2147 837.6076C294.7146 863.1432 228.9287 898.286 175.3571 928.0717L160.1428 917.4646C193.4284 871.286 238.2141 817.0002 279.1428 771.6072H351.3575L360.3932 778.0358C385.2862 811.9645 435.6076 868.143 480.2505 914.8574L467.0362 928.0717C404.8216 899.6789 332.7859 859.429 290.5714 836.8219ZM320.3931 688.0358Z" glyph-name="Zcaron" horiz-adv-x="634.679" unicode="&#381;" /><glyph d="M563.3577 0C567.9648 31.2501 571.1792 68.8214 571.1792 106.0715C571.1792 145.4646 567.7505 178.8219 560.8934 210.5362H536.7861L460.8927 49.5716C437.75 46.5716 405.8929 45.1788 378.2502 45.1788H171.9652L189.6081 22.8217L571.3579 645.8927L563.3221 688.0358H73.6784C69.0713 657.3928 65.857 623.4643 65.857 584.3928C65.857 549.2499 69.2856 510.4282 76.1428 477.4995H100.2501L176.1434 638.4642C199.2862 641.4642 231.1432 642.857 258.7859 642.857H457.4282L439.7853 665.2141L57.4284 42.143L65.4642 0ZM320.3931 688.0358ZM321.1787 0ZM399.2507 856.2503C399.2507 894.429 369.8576 919.5362 330.286 919.5362C282.2143 919.5362 242.7498 883.3575 242.7498 841.3216C242.7498 804.75 272.5357 776.2141 315.143 776.2141C364.7861 776.2141 399.2507 811.5714 399.2507 856.2503ZM320.3931 688.0358Z" glyph-name="Zdotaccent" horiz-adv-x="634.679" unicode="&#379;" /><glyph d="M563.3577 0C567.9648 31.2501 571.1792 68.8214 571.1792 106.0715C571.1792 145.4646 567.7505 178.8219 560.8934 210.5362H536.7861L460.8927 49.5716C437.75 46.5716 405.8929 45.1788 378.2502 45.1788H171.9652L189.6081 22.8217L571.3579 645.8927L563.3221 688.0358H73.6784C69.0713 657.3928 65.857 623.4643 65.857 584.3928C65.857 549.2499 69.2856 510.4282 76.1428 477.4995H100.2501L176.1434 638.4642C199.2862 641.4642 231.1432 642.857 258.7859 642.857H457.4282L439.7853 665.2141L57.4284 42.143L65.4642 0ZM320.3931 688.0358ZM321.1787 0ZM395.4292 -157.107C395.4292 -116.9283 367.6433 -89.821 330.4646 -89.821C284.3929 -89.821 246.9283 -127.9998 246.9283 -172.0358C246.9283 -210.6073 275.1071 -241.1432 315.3216 -241.1432C362.5718 -241.1432 395.4292 -203.7859 395.4292 -157.107ZM321.1788 0Z" glyph-name="Zdotbelow" horiz-adv-x="634.679" unicode="&#7826;" /><glyph d="M355.6071 269.3929C173.6427 272.4286 49.4284 208.9287 49.4284 104.2501C49.4284 32.6071 103.1071 -10 180.107 -10C248.8928 -10 309.75 25.7499 341.0713 72.1786L329.857 98.3571C308.25 74.6073 276.1074 58.3933 243.1791 58.3933C201.3221 58.3933 175.6079 79.9647 175.6079 126.286C175.6079 197.3573 245.8576 238.1786 355.6071 238.1786ZM288.4647 508.0358C174.7501 508.0358 67.3213 433.2143 67.3213 369.5714C67.3213 340.0713 92.4643 323.6427 127.6431 323.6427C145.3575 323.6427 164.5005 327.4642 185.0721 338.1428C181.2864 353.3929 179.8936 369.0715 179.8936 381.0715C179.8936 430.9287 212.5005 464.7142 260.036 464.7142C304.2143 464.7142 328.6427 437.8215 328.6427 385.3573C328.6427 370.8218 327.0713 125.6779 327.0713 78.5358C327.0713 26.2858 366.0358 -10 424.2502 -10C469.429 -10 513.4292 11.2858 539.5364 50.7503L535.5364 62.7861C520.1436 59.0004 507.7507 57.6076 497.0008 57.6076C459.3936 57.6076 449.8222 81.5005 449.8222 124.429C449.8222 176.2143 454.4294 306.4999 454.4294 349.1069C454.4294 453.1428 393.2864 508.0358 288.4647 508.0358ZM271.2862 498.0358ZM475.7504 0ZM273.6433 0Z" glyph-name="a" horiz-adv-x="543.9648" unicode="a" /><glyph d="M294.6787 140.3929C145.1428 142.8214 43.9285 93.5001 43.9285 11.6429C43.9285 -44.3929 87.3928 -78 150.3929 -78C207.1786 -78 257.4286 -50.0358 282.9642 -13.8215L273.75 6.5714C255.7144 -10.4284 229.9289 -22.2854 203.3577 -22.2854C169.6792 -22.2854 148.7508 -5.1068 148.7508 30.4288C148.7508 84.9287 205.8576 115.7857 294.6787 115.7857ZM240.8576 326.4286C147.0002 326.4286 58.6071 268.2143 58.6071 218.1786C58.6071 194.4999 79.3216 181.6784 108.0717 181.6784C122.9647 181.6784 138.8933 184.8928 156.0363 193.3571C152.6435 205.3929 152.2507 217.8572 152.2507 227.8572C152.2507 267.1073 178.2862 291.9285 217.0717 291.9285C252.6787 291.9285 272.5356 271.8215 272.5356 231.3216C272.5356 221.536 270.9642 23.8209 270.9642 -7.8928C270.9642 -48.9285 303.5001 -78 351.6789 -78C389.0362 -78 425.3934 -60.9285 447.2864 -28.3211L443.2864 -18.8925C430.8936 -21.6782 420.8936 -22.6782 412.1436 -22.6782C385.1793 -22.6782 373.3579 -10.0711 373.3579 29.536C373.3579 67.6072 376.9651 168.3213 376.9651 200.5712C376.9651 283.3571 326.6435 326.4286 240.8576 326.4286Z" glyph-name="a.inferior" horiz-adv-x="463.2149" unicode="&#8336;" /><glyph d="M264.1784 538.0358 83.4284 73.9644C77.4284 57.9644 68.8213 47.7501 55.6784 39.7144C47.1784 33.0358 24.0715 26.7144 11.9285 20.0358L13.9285 0H181.0713L183.0713 20.0358L93.8213 52.7501L110.1071 18.7857L269.1069 432.7138H250.2139L399.7493 41.8929L333.428 20.0358L335.428 0H589.6789L591.6789 20.0358L559.679 32.2501C537.2147 43.5359 530.0004 49.1073 520.1789 74.5716L339.429 538.0358ZM149.4997 188.9283V148.8211L364.3567 151.2139V187.3211ZM303.2858 538.0358ZM589.6789 0ZM267.4997 0Z" glyph-name="a.sc" horiz-adv-x="603.6073" /><glyph d="M294.6787 580C145.1428 582.4286 43.9285 533.1073 43.9285 451.25C43.9285 395.2143 87.3928 361.6071 150.3929 361.6071C207.1786 361.6071 257.4286 389.5714 282.9642 425.7857L273.75 446.1785C255.7144 429.1787 229.9289 417.3218 203.3577 417.3218C169.6792 417.3218 148.7508 434.5003 148.7508 470.036C148.7508 524.5358 205.8576 555.3928 294.6787 555.3928ZM240.8576 766.0358C147.0002 766.0358 58.6071 707.8214 58.6071 657.7857C58.6071 634.107 79.3216 621.2856 108.0717 621.2856C122.9647 621.2856 138.8933 624.4999 156.0363 632.9642C152.6435 645 152.2507 657.4643 152.2507 667.4643C152.2507 706.7144 178.2862 731.5357 217.0717 731.5357C252.6787 731.5357 272.5356 711.4286 272.5356 670.9287C272.5356 661.1432 270.9642 463.428 270.9642 431.7144C270.9642 390.6787 303.5001 361.6071 351.6789 361.6071C389.0362 361.6071 425.3934 378.6787 447.2864 411.286L443.2864 420.7146C430.8936 417.9289 420.8936 416.9289 412.1436 416.9289C385.1793 416.9289 373.3579 429.536 373.3579 469.1432C373.3579 507.2143 376.9651 607.9285 376.9651 640.1784C376.9651 722.9642 326.6435 766.0358 240.8576 766.0358Z" glyph-name="a.superior" horiz-adv-x="464.2149" /><glyph d="M355.6071 269.3929C173.6427 272.4286 49.4284 208.9287 49.4284 104.2501C49.4284 32.6071 103.1071 -10 180.107 -10C248.8928 -10 309.75 25.7499 341.0713 72.1786L329.857 98.3571C308.25 74.6073 276.1074 58.3933 243.1791 58.3933C201.3221 58.3933 175.6079 79.9647 175.6079 126.286C175.6079 197.3573 245.8576 238.1786 355.6071 238.1786ZM288.4647 508.0358C174.7501 508.0358 67.3213 433.2143 67.3213 369.5714C67.3213 340.0713 92.4643 323.6427 127.6431 323.6427C145.3575 323.6427 164.5005 327.4642 185.0721 338.1428C181.2864 353.3929 179.8936 369.0715 179.8936 381.0715C179.8936 430.9287 212.5005 464.7142 260.036 464.7142C304.2143 464.7142 328.6427 437.8215 328.6427 385.3573C328.6427 370.8218 327.0713 125.6779 327.0713 78.5358C327.0713 26.2858 366.0358 -10 424.2502 -10C469.429 -10 513.4292 11.2858 539.5364 50.7503L535.5364 62.7861C520.1436 59.0004 507.7507 57.6076 497.0008 57.6076C459.3936 57.6076 449.8222 81.5005 449.8222 124.429C449.8222 176.2143 454.4294 306.4999 454.4294 349.1069C454.4294 453.1428 393.2864 508.0358 288.4647 508.0358ZM271.2862 498.0358ZM475.7504 0ZM273.6433 0ZM398.1793 719.2499C398.1793 750.4643 366.322 762.893 327.9289 762.893C320.8574 762.893 312.7859 762.893 305.7144 762.2858L297.0715 756.6429C275.0715 713.2143 228.3216 643.3214 181.3931 583.8927L192.7859 569.4642C303.1078 610.3569 398.1793 673.1069 398.1793 719.2499ZM271.2862 498.0358ZM278.1432 748.0358Z" glyph-name="aacute" horiz-adv-x="543.9648" unicode="&#225;" /><glyph d="M430.1789 759.2499C430.1789 790.4643 398.3216 802.893 359.9285 802.893C352.857 802.893 344.7855 802.893 337.714 802.2858L329.0711 796.6429C307.0711 753.2143 260.3211 683.3214 213.3927 623.8927L224.7855 609.4642C335.1074 650.3569 430.1789 713.1069 430.1789 759.2499ZM303.2858 538.0358ZM310.1428 788.0358ZM264.1784 538.0358 83.4284 73.9644C77.4284 57.9644 68.8213 47.7501 55.6784 39.7144C47.1784 33.0358 24.0715 26.7144 11.9285 20.0358L13.9285 0H181.0713L183.0713 20.0358L93.8213 52.7501L110.1071 18.7857L269.1069 432.7138H250.2139L399.7493 41.8929L333.428 20.0358L335.428 0H589.6789L591.6789 20.0358L559.679 32.2501C537.2147 43.5359 530.0004 49.1073 520.1789 74.5716L339.429 538.0358ZM149.4997 188.9283V148.8211L364.3567 151.2139V187.3211ZM303.2858 538.0358ZM589.6789 0ZM267.4997 0Z" glyph-name="aacute.sc" horiz-adv-x="603.6073" /><glyph d="M355.6071 269.3929C173.6427 272.4286 49.4284 208.9287 49.4284 104.2501C49.4284 32.6071 103.1071 -10 180.107 -10C248.8928 -10 309.75 25.7499 341.0713 72.1786L329.857 98.3571C308.25 74.6073 276.1074 58.3933 243.1791 58.3933C201.3221 58.3933 175.6079 79.9647 175.6079 126.286C175.6079 197.3573 245.8576 238.1786 355.6071 238.1786ZM288.4647 508.0358C174.7501 508.0358 67.3213 433.2143 67.3213 369.5714C67.3213 340.0713 92.4643 323.6427 127.6431 323.6427C145.3575 323.6427 164.5005 327.4642 185.0721 338.1428C181.2864 353.3929 179.8936 369.0715 179.8936 381.0715C179.8936 430.9287 212.5005 464.7142 260.036 464.7142C304.2143 464.7142 328.6427 437.8215 328.6427 385.3573C328.6427 370.8218 327.0713 125.6779 327.0713 78.5358C327.0713 26.2858 366.0358 -10 424.2502 -10C469.429 -10 513.4292 11.2858 539.5364 50.7503L535.5364 62.7861C520.1436 59.0004 507.7507 57.6076 497.0008 57.6076C459.3936 57.6076 449.8222 81.5005 449.8222 124.429C449.8222 176.2143 454.4294 306.4999 454.4294 349.1069C454.4294 453.1428 393.2864 508.0358 288.4647 508.0358ZM271.2862 498.0358ZM475.7504 0ZM273.6433 0ZM388.0721 743.7859C373.2864 698.0359 330.2149 670.4646 274.5005 670.4646C212.5718 670.4646 169.1075 699.6431 157.1432 746.3931L136.5003 742.7859C141.4288 648.1785 193.7146 587.9998 268.8933 587.9998C344.4649 587.9998 399.5722 647.5714 409.715 742.1788L392.6792 745.7859ZM271.2862 498.0358ZM272.5005 748.0358Z" glyph-name="abreve" horiz-adv-x="543.9648" unicode="&#259;" /><glyph d="M264.1784 538.0358 83.4284 73.9644C77.4284 57.9644 68.8213 47.7501 55.6784 39.7144C47.1784 33.0358 24.0715 26.7144 11.9285 20.0358L13.9285 0H181.0713L183.0713 20.0358L93.8213 52.7501L110.1071 18.7857L269.1069 432.7138H250.2139L399.7493 41.8929L333.428 20.0358L335.428 0H589.6789L591.6789 20.0358L559.679 32.2501C537.2147 43.5359 530.0004 49.1073 520.1789 74.5716L339.429 538.0358ZM149.4997 188.9283V148.8211L364.3567 151.2139V187.3211ZM303.2858 538.0358ZM589.6789 0ZM267.4997 0ZM420.0717 783.7859C405.286 738.0359 362.2145 710.4646 306.5001 710.4646C244.5714 710.4646 201.1071 739.6431 189.1428 786.3931L168.4999 782.7859C173.4284 688.1785 225.7142 627.9998 300.893 627.9998C376.4646 627.9998 431.5718 687.5714 441.7146 782.1788L424.6789 785.7859ZM303.2858 538.0358ZM304.5001 788.0358Z" glyph-name="abreve.sc" horiz-adv-x="603.6073" /><glyph d="M355.6071 269.3929C173.6427 272.4286 49.4284 208.9287 49.4284 104.2501C49.4284 32.6071 103.1071 -10 180.107 -10C248.8928 -10 309.75 25.7499 341.0713 72.1786L329.857 98.3571C308.25 74.6073 276.1074 58.3933 243.1791 58.3933C201.3221 58.3933 175.6079 79.9647 175.6079 126.286C175.6079 197.3573 245.8576 238.1786 355.6071 238.1786ZM288.4647 508.0358C174.7501 508.0358 67.3213 433.2143 67.3213 369.5714C67.3213 340.0713 92.4643 323.6427 127.6431 323.6427C145.3575 323.6427 164.5005 327.4642 185.0721 338.1428C181.2864 353.3929 179.8936 369.0715 179.8936 381.0715C179.8936 430.9287 212.5005 464.7142 260.036 464.7142C304.2143 464.7142 328.6427 437.8215 328.6427 385.3573C328.6427 370.8218 327.0713 125.6779 327.0713 78.5358C327.0713 26.2858 366.0358 -10 424.2502 -10C469.429 -10 513.4292 11.2858 539.5364 50.7503L535.5364 62.7861C520.1436 59.0004 507.7507 57.6076 497.0008 57.6076C459.3936 57.6076 449.8222 81.5005 449.8222 124.429C449.8222 176.2143 454.4294 306.4999 454.4294 349.1069C454.4294 453.1428 393.2864 508.0358 288.4647 508.0358ZM271.2862 498.0358ZM475.7504 0ZM273.6433 0ZM242.6789 638.8574 306.3222 639.6431C250.2149 673.3573 188.0362 719.2858 137.4646 759.2858L122.2503 748.6787C152.7502 693.5359 193.143 628.8572 230.4646 575.2499H304.2507L313.2864 581.6785C336.1793 622.2143 381.715 690.3571 422.3579 746.0715L409.1436 759.2858C350.5362 721.2858 282.2862 669.0717 242.6789 638.8574ZM271.2862 498.0358ZM270.8933 754.1073Z" glyph-name="acaron" horiz-adv-x="543.9648" unicode="&#462;" /><glyph d="M264.1784 538.0358 83.4284 73.9644C77.4284 57.9644 68.8213 47.7501 55.6784 39.7144C47.1784 33.0358 24.0715 26.7144 11.9285 20.0358L13.9285 0H181.0713L183.0713 20.0358L93.8213 52.7501L110.1071 18.7857L269.1069 432.7138H250.2139L399.7493 41.8929L333.428 20.0358L335.428 0H589.6789L591.6789 20.0358L559.679 32.2501C537.2147 43.5359 530.0004 49.1073 520.1789 74.5716L339.429 538.0358ZM149.4997 188.9283V148.8211L364.3567 151.2139V187.3211ZM303.2858 538.0358ZM589.6789 0ZM267.4997 0ZM274.6785 678.8574 338.3218 679.6431C282.2145 713.3573 220.0358 759.2858 169.4642 799.2858L154.2499 788.6787C184.7498 733.5359 225.1426 668.8572 262.4642 615.2499H336.2503L345.286 621.6785C368.179 662.2143 413.7146 730.3571 454.3575 786.0715L441.1432 799.2858C382.5359 761.2858 314.2858 709.0717 274.6785 678.8574ZM303.2858 538.0358ZM302.8929 794.1073Z" glyph-name="acaron.sc" horiz-adv-x="603.6073" /><glyph d="M355.6071 269.3929C173.6427 272.4286 49.4284 208.9287 49.4284 104.2501C49.4284 32.6071 103.1071 -10 180.107 -10C248.8928 -10 309.75 25.7499 341.0713 72.1786L329.857 98.3571C308.25 74.6073 276.1074 58.3933 243.1791 58.3933C201.3221 58.3933 175.6079 79.9647 175.6079 126.286C175.6079 197.3573 245.8576 238.1786 355.6071 238.1786ZM288.4647 508.0358C174.7501 508.0358 67.3213 433.2143 67.3213 369.5714C67.3213 340.0713 92.4643 323.6427 127.6431 323.6427C145.3575 323.6427 164.5005 327.4642 185.0721 338.1428C181.2864 353.3929 179.8936 369.0715 179.8936 381.0715C179.8936 430.9287 212.5005 464.7142 260.036 464.7142C304.2143 464.7142 328.6427 437.8215 328.6427 385.3573C328.6427 370.8218 327.0713 125.6779 327.0713 78.5358C327.0713 26.2858 366.0358 -10 424.2502 -10C469.429 -10 513.4292 11.2858 539.5364 50.7503L535.5364 62.7861C520.1436 59.0004 507.7507 57.6076 497.0008 57.6076C459.3936 57.6076 449.8222 81.5005 449.8222 124.429C449.8222 176.2143 454.4294 306.4999 454.4294 349.1069C454.4294 453.1428 393.2864 508.0358 288.4647 508.0358ZM271.2862 498.0358ZM475.7504 0ZM273.6433 0ZM301.3222 694.2854 237.6789 693.4997C293.7861 659.7855 355.9649 613.857 406.5365 573.857L421.7507 584.4642C391.2509 639.6069 350.858 704.2856 313.5365 757.893H239.7503L230.7146 751.4643C207.8217 710.9285 162.286 642.7857 121.6431 587.0713L134.8574 573.857C193.4648 611.857 261.7148 664.0711 301.3222 694.2854ZM271.2862 498.0358ZM272.1076 748.0358Z" glyph-name="acircumflex" horiz-adv-x="543.9648" unicode="&#226;" /><glyph d="M264.1784 538.0358 83.4284 73.9644C77.4284 57.9644 68.8213 47.7501 55.6784 39.7144C47.1784 33.0358 24.0715 26.7144 11.9285 20.0358L13.9285 0H181.0713L183.0713 20.0358L93.8213 52.7501L110.1071 18.7857L269.1069 432.7138H250.2139L399.7493 41.8929L333.428 20.0358L335.428 0H589.6789L591.6789 20.0358L559.679 32.2501C537.2147 43.5359 530.0004 49.1073 520.1789 74.5716L339.429 538.0358ZM149.4997 188.9283V148.8211L364.3567 151.2139V187.3211ZM303.2858 538.0358ZM589.6789 0ZM267.4997 0ZM333.3218 734.2854 269.6784 733.4997C325.7857 699.7855 387.9644 653.857 438.536 613.857L453.7503 624.4642C423.2505 679.6069 382.8576 744.2856 345.536 797.893H271.75L262.7142 791.4643C239.8212 750.9285 194.2856 682.7857 153.6427 627.0713L166.857 613.857C225.4643 651.857 293.7144 704.0711 333.3218 734.2854ZM303.2858 538.0358ZM304.1073 788.0358Z" glyph-name="acircumflex.sc" horiz-adv-x="603.6073" /><glyph d="M296.1432 719.2499C296.1432 750.4643 264.2858 762.893 225.8928 762.893C218.8212 762.893 210.7498 762.893 203.6782 762.2858L195.0353 756.6429C173.0353 713.2143 126.2854 643.3214 79.3569 583.8927L90.7498 569.4642C201.0717 610.3569 296.1432 673.1069 296.1432 719.2499Z" glyph-name="acute" horiz-adv-x="375.5001" unicode="&#180;" /><glyph d="M294.0356 922.7146C249.8212 885.6431 169.2497 829.893 79.3569 790.9642L85.1426 773.1428C204.5718 775.8927 360.286 801.6783 360.286 867.9642C360.286 891.893 333.25 914.4646 304.6784 924.3217Z" glyph-name="acute.case" horiz-adv-x="439.6429" /><glyph d="M296.1432 719.2499C296.1432 750.4643 264.2858 762.893 225.8928 762.893C218.8212 762.893 210.7498 762.893 203.6782 762.2858L195.0353 756.6429C173.0353 713.2143 126.2854 643.3214 79.3569 583.8927L90.7498 569.4642C201.0717 610.3569 296.1432 673.1069 296.1432 719.2499ZM169.25 498.0358ZM176.107 748.0358Z" glyph-name="acutecomb" horiz-adv-x="375.5001" unicode="&#769;" /><glyph d="M294.0356 922.7146C249.8212 885.6431 169.2497 829.893 79.3569 790.9642L85.1426 773.1428C204.5718 775.8927 360.286 801.6783 360.286 867.9642C360.286 891.893 333.25 914.4646 304.6784 924.3217ZM211.9285 688.0358ZM191.8925 880.8574Z" glyph-name="acutecomb.case" horiz-adv-x="439.6429" /><glyph d="M355.6071 269.3929C173.6427 272.4286 49.4284 208.9287 49.4284 104.2501C49.4284 32.6071 103.1071 -10 180.107 -10C248.8928 -10 309.75 25.7499 341.0713 72.1786L329.857 98.3571C308.25 74.6073 276.1074 58.3933 243.1791 58.3933C201.3221 58.3933 175.6079 79.9647 175.6079 126.286C175.6079 197.3573 245.8576 238.1786 355.6071 238.1786ZM288.4647 508.0358C174.7501 508.0358 67.3213 433.2143 67.3213 369.5714C67.3213 340.0713 92.4643 323.6427 127.6431 323.6427C145.3575 323.6427 164.5005 327.4642 185.0721 338.1428C181.2864 353.3929 179.8936 369.0715 179.8936 381.0715C179.8936 430.9287 212.5005 464.7142 260.036 464.7142C304.2143 464.7142 328.6427 437.8215 328.6427 385.3573C328.6427 370.8218 327.0713 125.6779 327.0713 78.5358C327.0713 26.2858 366.0358 -10 424.2502 -10C469.429 -10 513.4292 11.2858 539.5364 50.7503L535.5364 62.7861C520.1436 59.0004 507.7507 57.6076 497.0008 57.6076C459.3936 57.6076 449.8222 81.5005 449.8222 124.429C449.8222 176.2143 454.4294 306.4999 454.4294 349.1069C454.4294 453.1428 393.2864 508.0358 288.4647 508.0358ZM271.2862 498.0358ZM475.7504 0ZM273.6433 0ZM450.6796 674.25C450.6796 711.6073 425.3223 737.1074 391.5722 737.1074C350.1434 737.1074 316.9289 701.3573 316.9289 659.3571C316.9289 624.8212 341.4647 596.1069 377.6435 596.1069C420.858 596.1069 450.6796 631.4284 450.6796 674.25ZM229.715 674.25C229.715 711.6073 204.3577 737.1074 170.6076 737.1074C129.1788 737.1074 95.9642 701.3573 95.9642 659.3571C95.9642 624.8212 120.5001 596.1069 156.6788 596.1069C199.8933 596.1069 229.715 631.4284 229.715 674.25ZM271.2862 498.0358ZM273.1076 748.0358Z" glyph-name="adieresis" horiz-adv-x="543.9648" unicode="&#228;" /><glyph d="M264.1784 538.0358 83.4284 73.9644C77.4284 57.9644 68.8213 47.7501 55.6784 39.7144C47.1784 33.0358 24.0715 26.7144 11.9285 20.0358L13.9285 0H181.0713L183.0713 20.0358L93.8213 52.7501L110.1071 18.7857L269.1069 432.7138H250.2139L399.7493 41.8929L333.428 20.0358L335.428 0H589.6789L591.6789 20.0358L559.679 32.2501C537.2147 43.5359 530.0004 49.1073 520.1789 74.5716L339.429 538.0358ZM149.4997 188.9283V148.8211L364.3567 151.2139V187.3211ZM303.2858 538.0358ZM589.6789 0ZM267.4997 0ZM482.6792 714.25C482.6792 751.6073 457.3219 777.1074 423.5718 777.1074C382.143 777.1074 348.9285 741.3573 348.9285 699.3571C348.9285 664.8212 373.4643 636.1069 409.6431 636.1069C452.8576 636.1069 482.6792 671.4284 482.6792 714.25ZM261.7146 714.25C261.7146 751.6073 236.3573 777.1074 202.6071 777.1074C161.1783 777.1074 127.9638 741.3573 127.9638 699.3571C127.9638 664.8212 152.4997 636.1069 188.6784 636.1069C231.8929 636.1069 261.7146 671.4284 261.7146 714.25ZM303.2858 538.0358ZM305.1072 788.0358Z" glyph-name="adieresis.sc" horiz-adv-x="603.6073" /><glyph d="M355.6071 269.3929C173.6427 272.4286 49.4284 208.9287 49.4284 104.2501C49.4284 32.6071 103.1071 -10 180.107 -10C248.8928 -10 309.75 25.7499 341.0713 72.1786L329.857 98.3571C308.25 74.6073 276.1074 58.3933 243.1791 58.3933C201.3221 58.3933 175.6079 79.9647 175.6079 126.286C175.6079 197.3573 245.8576 238.1786 355.6071 238.1786ZM288.4647 508.0358C174.7501 508.0358 67.3213 433.2143 67.3213 369.5714C67.3213 340.0713 92.4643 323.6427 127.6431 323.6427C145.3575 323.6427 164.5005 327.4642 185.0721 338.1428C181.2864 353.3929 179.8936 369.0715 179.8936 381.0715C179.8936 430.9287 212.5005 464.7142 260.036 464.7142C304.2143 464.7142 328.6427 437.8215 328.6427 385.3573C328.6427 370.8218 327.0713 125.6779 327.0713 78.5358C327.0713 26.2858 366.0358 -10 424.2502 -10C469.429 -10 513.4292 11.2858 539.5364 50.7503L535.5364 62.7861C520.1436 59.0004 507.7507 57.6076 497.0008 57.6076C459.3936 57.6076 449.8222 81.5005 449.8222 124.429C449.8222 176.2143 454.4294 306.4999 454.4294 349.1069C454.4294 453.1428 393.2864 508.0358 288.4647 508.0358ZM271.2862 498.0358ZM475.7504 0ZM273.6433 0ZM347.8938 -157.107C347.8938 -116.9283 320.1078 -89.821 282.9291 -89.821C236.8574 -89.821 199.3929 -127.9998 199.3929 -172.0358C199.3929 -210.6073 227.5716 -241.1432 267.7861 -241.1432C315.0364 -241.1432 347.8938 -203.7859 347.8938 -157.107ZM273.6433 0Z" glyph-name="adotbelow" horiz-adv-x="543.9648" unicode="&#7841;" /><glyph d="M264.1784 538.0358 83.4284 73.9644C77.4284 57.9644 68.8213 47.7501 55.6784 39.7144C47.1784 33.0358 24.0715 26.7144 11.9285 20.0358L13.9285 0H181.0713L183.0713 20.0358L93.8213 52.7501L110.1071 18.7857L269.1069 432.7138H250.2139L399.7493 41.8929L333.428 20.0358L335.428 0H589.6789L591.6789 20.0358L559.679 32.2501C537.2147 43.5359 530.0004 49.1073 520.1789 74.5716L339.429 538.0358ZM149.4997 188.9283V148.8211L364.3567 151.2139V187.3211ZM303.2858 538.0358ZM589.6789 0ZM267.4997 0ZM341.7501 -157.107C341.7501 -116.9283 313.9642 -89.821 276.7855 -89.821C230.7138 -89.821 193.2492 -127.9998 193.2492 -172.0358C193.2492 -210.6073 221.428 -241.1432 261.6425 -241.1432C308.8927 -241.1432 341.7501 -203.7859 341.7501 -157.107ZM267.4997 0Z" glyph-name="adotbelow.sc" horiz-adv-x="603.6073" /><glyph d="M375.2143 92.7499 355.3571 126.0357C327.5358 85.4288 286.9647 58.3933 245.6078 58.3933C202.5365 58.3933 175.6079 79.9647 175.6079 126.286C175.6079 197.3573 245.8576 238.1786 355.6071 238.1786V269.3929C173.6427 272.4286 49.4284 208.9287 49.4284 104.2501C49.4284 31.3928 103.1071 -10 183.75 -10C265.1785 -10 334.6429 34.9285 375.2143 92.7499ZM328.6427 385.3573C328.6427 349.5356 328.2498 300.9285 327.857 249.7857L434.2149 248.5714C435.2149 286.857 436.2149 329.9998 436.2149 349.1069C436.2149 453.1428 378.7148 508.0358 279.3575 508.0358C170.5001 508.0358 67.3213 433.2143 67.3213 369.5714C67.3213 340.0713 92.4643 323.6427 127.6431 323.6427C145.3575 323.6427 164.5005 327.4642 185.0721 338.1428C181.2864 353.3929 179.8936 369.0715 179.8936 381.0715C179.8936 430.9287 212.5005 464.7142 260.036 464.7142C304.2143 464.7142 328.6427 437.8215 328.6427 385.3573ZM406.9647 287.8215 403.9647 253.75H728.3577L741.0006 266.7857L639.9641 296.4644ZM546.3216 464.7142C592.2141 464.7142 616.2139 426.0715 616.2139 333.8929C616.2139 315.3571 615.6068 298.3213 614.6068 284.75L741.0006 266.7857C742.0006 280.9285 742.3935 296.0713 742.3935 316.1071C742.3935 434.5714 663.5718 508.0358 558.2145 508.0358C426.8572 508.0358 326.857 399.0715 326.857 238.0358C326.857 86.8214 416 -10 553.3931 -10C647.7505 -10 708.3577 39.4288 740.7505 103.3932L726.9291 114.6076C693.1791 89.1434 649.3935 73.572 600.822 73.572C500.6435 73.572 447.5722 144.7861 447.5722 283.1432C447.5722 386.8572 483.0719 464.7142 546.3216 464.7142ZM418.6076 498.0358Z" glyph-name="ae" horiz-adv-x="776.6075" unicode="&#230;" /><glyph d="M186.0356 282.4644V242.3571L400.8926 244.75V280.8572ZM509.0364 0H758.1077C762.1077 27.0715 764.9291 50.2501 764.9291 86.7502C764.9291 123.2502 760.2862 161.0004 754.6433 187.4648H732.5361L703.5716 117.1075C692.893 93.1787 680.8215 67.3573 669.1428 44.9287C649.7857 43.143 623.9287 42.143 602.0717 42.143H509.0364ZM509.0364 538.0358V495.8927H593.6789C615.9287 495.8927 641.3928 494.4999 660.75 493.4999C672.0358 474.4284 682.2858 450.9998 694.9645 420.9283L724.5361 351.1782H746.6433C752.8934 382.0711 756.322 421.4642 756.322 455.5356C756.322 484.75 754.322 513.3928 749.5005 538.0358ZM509.0364 283.8572V242.5357L673.7861 236.107L675.3932 291.2858ZM13.9285 0H181.0713L183.0713 20.0358L119.1428 42.6786L299.4642 511.9285L271.6784 495.8927H384.0353V106.0356H509.0364V538.0358H178.3927L176.3927 517.6072L245.9283 490.1071L83.4284 73.9644C77.4284 57.9644 68.8213 47.7501 55.6784 39.7144C47.1784 33.0358 24.0715 26.7144 11.9285 20.0358ZM509.0363 0V106.0356H384.0353V82.0717C384.0353 56.5716 375.9996 44.3216 353.3567 34.8572L315.1069 20.4286L317.1069 0ZM474.036 538.0358Z" glyph-name="ae.sc" horiz-adv-x="808.8576" /><glyph d="M545.5007 719.2499C545.5007 750.4643 513.6433 762.893 475.2502 762.893C468.1787 762.893 460.1073 762.893 453.0358 762.2858L444.3928 756.6429C422.3928 713.2143 375.6429 643.3214 328.7144 583.8927L340.1073 569.4642C450.4292 610.3569 545.5007 673.1069 545.5007 719.2499ZM418.6075 498.0358ZM425.4645 748.0358ZM375.2143 92.7499 355.3571 126.0357C327.5358 85.4288 286.9647 58.3933 245.6078 58.3933C202.5365 58.3933 175.6079 79.9647 175.6079 126.286C175.6079 197.3573 245.8576 238.1786 355.6071 238.1786V269.3929C173.6427 272.4286 49.4284 208.9287 49.4284 104.2501C49.4284 31.3928 103.1071 -10 183.75 -10C265.1785 -10 334.6429 34.9285 375.2143 92.7499ZM328.6427 385.3573C328.6427 349.5356 328.2498 300.9285 327.857 249.7857L434.2149 248.5714C435.2149 286.857 436.2149 329.9998 436.2149 349.1069C436.2149 453.1428 378.7148 508.0358 279.3575 508.0358C170.5001 508.0358 67.3213 433.2143 67.3213 369.5714C67.3213 340.0713 92.4643 323.6427 127.6431 323.6427C145.3575 323.6427 164.5005 327.4642 185.0721 338.1428C181.2864 353.3929 179.8936 369.0715 179.8936 381.0715C179.8936 430.9287 212.5005 464.7142 260.036 464.7142C304.2143 464.7142 328.6427 437.8215 328.6427 385.3573ZM406.9647 287.8215 403.9647 253.75H728.3577L741.0006 266.7857L639.9641 296.4644ZM546.3216 464.7142C592.2141 464.7142 616.2139 426.0715 616.2139 333.8929C616.2139 315.3571 615.6068 298.3213 614.6068 284.75L741.0006 266.7857C742.0006 280.9285 742.3935 296.0713 742.3935 316.1071C742.3935 434.5714 663.5718 508.0358 558.2145 508.0358C426.8572 508.0358 326.857 399.0715 326.857 238.0358C326.857 86.8214 416 -10 553.3931 -10C647.7505 -10 708.3577 39.4288 740.7505 103.3932L726.9291 114.6076C693.1791 89.1434 649.3935 73.572 600.822 73.572C500.6435 73.572 447.5722 144.7861 447.5722 283.1432C447.5722 386.8572 483.0719 464.7142 546.3216 464.7142ZM418.6076 498.0358Z" glyph-name="aeacute" horiz-adv-x="776.6075" unicode="&#509;" /><glyph d="M600.9291 759.2499C600.9291 790.4643 569.0717 802.893 530.6787 802.893C523.6072 802.893 515.5357 802.893 508.4642 802.2858L499.8213 796.6429C477.8213 753.2143 431.0713 683.3214 384.1428 623.8927L395.5357 609.4642C505.8576 650.3569 600.9291 713.1069 600.9291 759.2499ZM474.036 538.0358ZM480.893 788.0358ZM186.0356 282.4644V242.3571L400.8926 244.75V280.8572ZM509.0364 0H758.1077C762.1077 27.0715 764.9291 50.2501 764.9291 86.7502C764.9291 123.2502 760.2862 161.0004 754.6433 187.4648H732.5361L703.5716 117.1075C692.893 93.1787 680.8215 67.3573 669.1428 44.9287C649.7857 43.143 623.9287 42.143 602.0717 42.143H509.0364ZM509.0364 538.0358V495.8927H593.6789C615.9287 495.8927 641.3928 494.4999 660.75 493.4999C672.0358 474.4284 682.2858 450.9998 694.9645 420.9283L724.5361 351.1782H746.6433C752.8934 382.0711 756.322 421.4642 756.322 455.5356C756.322 484.75 754.322 513.3928 749.5005 538.0358ZM509.0364 283.8572V242.5357L673.7861 236.107L675.3932 291.2858ZM13.9285 0H181.0713L183.0713 20.0358L119.1428 42.6786L299.4642 511.9285L271.6784 495.8927H384.0353V106.0356H509.0364V538.0358H178.3927L176.3927 517.6072L245.9283 490.1071L83.4284 73.9644C77.4284 57.9644 68.8213 47.7501 55.6784 39.7144C47.1784 33.0358 24.0715 26.7144 11.9285 20.0358ZM509.0363 0V106.0356H384.0353V82.0717C384.0353 56.5716 375.9996 44.3216 353.3567 34.8572L315.1069 20.4286L317.1069 0ZM474.036 538.0358Z" glyph-name="aeacute.sc" horiz-adv-x="808.8576" /><glyph d="M355.6071 269.3929C173.6427 272.4286 49.4284 208.9287 49.4284 104.2501C49.4284 32.6071 103.1071 -10 180.107 -10C248.8928 -10 309.75 25.7499 341.0713 72.1786L329.857 98.3571C308.25 74.6073 276.1074 58.3933 243.1791 58.3933C201.3221 58.3933 175.6079 79.9647 175.6079 126.286C175.6079 197.3573 245.8576 238.1786 355.6071 238.1786ZM288.4647 508.0358C174.7501 508.0358 67.3213 433.2143 67.3213 369.5714C67.3213 340.0713 92.4643 323.6427 127.6431 323.6427C145.3575 323.6427 164.5005 327.4642 185.0721 338.1428C181.2864 353.3929 179.8936 369.0715 179.8936 381.0715C179.8936 430.9287 212.5005 464.7142 260.036 464.7142C304.2143 464.7142 328.6427 437.8215 328.6427 385.3573C328.6427 370.8218 327.0713 125.6779 327.0713 78.5358C327.0713 26.2858 366.0358 -10 424.2502 -10C469.429 -10 513.4292 11.2858 539.5364 50.7503L535.5364 62.7861C520.1436 59.0004 507.7507 57.6076 497.0008 57.6076C459.3936 57.6076 449.8222 81.5005 449.8222 124.429C449.8222 176.2143 454.4294 306.4999 454.4294 349.1069C454.4294 453.1428 393.2864 508.0358 288.4647 508.0358ZM271.2862 498.0358ZM475.7504 0ZM273.6433 0ZM367.0723 583.8927C320.1438 643.3214 273.3939 713.2143 251.3939 756.6429L242.751 762.2858C235.6795 762.893 227.608 762.893 220.5365 762.893C182.1434 762.893 150.286 750.4643 150.286 719.2499C150.286 673.1069 245.3575 610.3569 355.6795 569.4642ZM271.2862 498.0358ZM263.4292 748.0358Z" glyph-name="agrave" horiz-adv-x="543.9648" unicode="&#224;" /><glyph d="M399.0719 623.8927C352.1434 683.3214 305.3935 753.2143 283.3935 796.6429L274.7506 802.2858C267.6791 802.893 259.6076 802.893 252.536 802.893C214.143 802.893 182.2856 790.4643 182.2856 759.2499C182.2856 713.1069 277.3571 650.3569 387.6791 609.4642ZM303.2858 538.0358ZM295.4288 788.0358ZM264.1784 538.0358 83.4284 73.9644C77.4284 57.9644 68.8213 47.7501 55.6784 39.7144C47.1784 33.0358 24.0715 26.7144 11.9285 20.0358L13.9285 0H181.0713L183.0713 20.0358L93.8213 52.7501L110.1071 18.7857L269.1069 432.7138H250.2139L399.7493 41.8929L333.428 20.0358L335.428 0H589.6789L591.6789 20.0358L559.679 32.2501C537.2147 43.5359 530.0004 49.1073 520.1789 74.5716L339.429 538.0358ZM149.4997 188.9283V148.8211L364.3567 151.2139V187.3211ZM303.2858 538.0358ZM589.6789 0ZM267.4997 0Z" glyph-name="agrave.sc" horiz-adv-x="603.6073" /><glyph d="M355.6071 269.3929C173.6427 272.4286 49.4284 208.9287 49.4284 104.2501C49.4284 32.6071 103.1071 -10 180.107 -10C248.8928 -10 309.75 25.7499 341.0713 72.1786L329.857 98.3571C308.25 74.6073 276.1074 58.3933 243.1791 58.3933C201.3221 58.3933 175.6079 79.9647 175.6079 126.286C175.6079 197.3573 245.8576 238.1786 355.6071 238.1786ZM288.4647 508.0358C174.7501 508.0358 67.3213 433.2143 67.3213 369.5714C67.3213 340.0713 92.4643 323.6427 127.6431 323.6427C145.3575 323.6427 164.5005 327.4642 185.0721 338.1428C181.2864 353.3929 179.8936 369.0715 179.8936 381.0715C179.8936 430.9287 212.5005 464.7142 260.036 464.7142C304.2143 464.7142 328.6427 437.8215 328.6427 385.3573C328.6427 370.8218 327.0713 125.6779 327.0713 78.5358C327.0713 26.2858 366.0358 -10 424.2502 -10C469.429 -10 513.4292 11.2858 539.5364 50.7503L535.5364 62.7861C520.1436 59.0004 507.7507 57.6076 497.0008 57.6076C459.3936 57.6076 449.8222 81.5005 449.8222 124.429C449.8222 176.2143 454.4294 306.4999 454.4294 349.1069C454.4294 453.1428 393.2864 508.0358 288.4647 508.0358ZM271.2862 498.0358ZM475.7504 0ZM273.6433 0ZM114.5358 628.1069H428.0365V691.25H114.5358ZM271.2862 498.0358Z" glyph-name="amacron" horiz-adv-x="543.9648" unicode="&#257;" /><glyph d="M264.1784 538.0358 83.4284 73.9644C77.4284 57.9644 68.8213 47.7501 55.6784 39.7144C47.1784 33.0358 24.0715 26.7144 11.9285 20.0358L13.9285 0H181.0713L183.0713 20.0358L93.8213 52.7501L110.1071 18.7857L269.1069 432.7138H250.2139L399.7493 41.8929L333.428 20.0358L335.428 0H589.6789L591.6789 20.0358L559.679 32.2501C537.2147 43.5359 530.0004 49.1073 520.1789 74.5716L339.429 538.0358ZM149.4997 188.9283V148.8211L364.3567 151.2139V187.3211ZM303.2858 538.0358ZM589.6789 0ZM267.4997 0ZM146.5354 668.1069H460.0362V731.25H146.5354ZM303.2858 538.0358Z" glyph-name="amacron.sc" horiz-adv-x="603.6073" /><glyph d="M330.036 -10C532.6793 -10 654.8937 148.6433 654.8937 306.322C654.8937 371.8578 627.5722 414.0006 579.822 414.0006C558.5005 414.0006 537.3575 404.5362 524.4646 391.2505C544.0359 365.8576 558.286 324.1789 558.286 255.3929C558.286 128.6787 485.0362 34.1073 355.5005 34.1073C257.7863 34.1073 196.3937 99.6787 196.3937 196.25C196.3937 247.5354 221.0361 299.4995 257.8215 326.6067L235.3571 357.3211C140.0713 337.5355 69.4284 268.7142 69.4284 177.9285C69.4284 64.1071 174.3571 -10 330.036 -10ZM761.7148 50.7503 757.7148 62.7861C684.5362 54.5363 628.1434 69.8576 560.0006 148.0719L338.2151 401.8933C289.108 458.2505 260.5009 506.2505 260.5009 560.9647C260.5009 615.5358 298.6435 654.3214 349.2147 654.3214C399.1787 654.3214 430.0715 617.0715 431.4644 555.0715C431.4644 542.4286 429.8572 527.9642 427.25 511.7142C437.5001 507.4999 449.5716 505.8927 463.036 505.8927C503.8933 505.8927 529.2506 529.5714 529.2506 567.5001C529.2506 640.6429 460.5362 698.0358 352.3933 698.0358C229.6787 698.0358 136.5714 620.3571 136.5714 521.3214C136.5714 456.1428 167.8214 406.6071 210.0711 359.7504L408.4284 132.1786C487.6067 42.143 548.1784 -10.6072 634.1428 -10.6072C694.1788 -10.6072 735.7861 17.5358 761.7148 50.7503Z" glyph-name="ampersand" horiz-adv-x="791.1432" unicode="&amp;" /><glyph d="M330.036 -10C532.7679 -10 654.8937 148.6433 654.8937 306.322C654.8937 371.8578 627.5722 414.0006 579.822 414.0006C558.5005 414.0006 537.3575 404.5362 524.4646 391.2505C544.0359 365.8576 558.286 324.1789 558.286 255.3929C558.286 128.6787 485.0362 34.1073 355.5005 34.1073C257.7863 34.1073 196.3937 99.555 196.3937 196.25C196.3937 247.5119 221.1646 299.5722 257.8215 326.6067L235.3571 357.3211C140.0713 337.5355 69.4284 268.7142 69.4284 177.9285C69.4284 64.1071 174.3697 -10 330.036 -10ZM761.7148 50.7503 757.7148 62.7861C684.5362 54.5363 628.1434 69.8576 560.0006 148.0719L338.2151 401.8933C289.108 458.2505 260.5009 506.2505 260.5009 560.9647C260.5009 615.5358 298.6009 654.3214 349.2147 654.3214C399.1787 654.3214 430.0715 617.0715 431.4644 555.0715C431.4644 542.4286 429.8572 527.9642 427.25 511.7142C437.5001 507.4999 449.5716 505.8927 463.036 505.8927C503.8933 505.8927 529.2506 529.5714 529.2506 567.5001C529.2506 640.6429 460.5362 698.0358 352.3933 698.0358C229.6787 698.0358 136.5714 620.3571 136.5714 521.3214C136.5714 456.1428 167.5641 406.6456 210.0711 359.7504L408.4284 132.1786C487.6067 42.143 548.1784 -10.6072 634.1428 -10.6072C694.1788 -10.6072 735.7861 17.5358 761.7148 50.7503Z" glyph-name="ampersand.caps" horiz-adv-x="791.1432" /><glyph d="M323.9647 -10C521.6437 -10 643.1082 120.2502 643.1082 232.8217C643.1082 278.4288 615.8225 311.5001 577.1438 311.5001C555.0008 311.5001 535.8578 301.4286 522.9648 288.75C536.679 269.8215 547.679 243.3929 547.679 205C547.679 91.8928 459.0004 34.1073 356.1078 34.1073C259.0008 34.1073 189.7152 87.3216 189.7152 168.0715C189.7152 207.6427 216.572 243.464 252.3573 262.0711L229.893 292.7855C135.7857 276.6427 63.9285 219.4999 63.9285 146.2856C63.9285 47.8927 170.893 -10 323.9647 -10ZM216.75 274.5716 383.3213 116.1071C465.0711 40.3929 520.2854 -10.6072 603.5358 -10.6072C659.679 -10.6072 701.3221 20.5716 723.2509 50.7503L719.2509 62.7861C713.3581 61.6076 708.251 60.8218 703.144 60.8218C643.7152 60.8218 597.3221 75.2502 537.2506 132.0004L339.9653 316.6076C302.5726 350.0717 267.4654 387.1789 267.4654 429.2145C267.4654 473.0715 302.2866 504.3213 353.9293 504.3213C402.1434 504.3213 434.0719 469.5714 434.0719 420.9642C434.0719 410.1785 433.0719 399.1428 431.0719 386.7142C440.9291 382.4999 452.6078 380.8927 465.6793 380.8927C502.3223 380.8927 531.1082 403.5714 531.1082 439.1073C531.1082 499.25 458.2153 548.0358 355.8936 548.0358C235.286 548.0358 144.7144 484.7857 144.7144 404.3929C144.7144 352.9642 176.0002 311.2143 216.75 274.5716Z" glyph-name="ampersand.sc" horiz-adv-x="747.1793" /><glyph d="M355.6071 269.3929C173.6427 272.4286 49.4284 208.9287 49.4284 104.2501C49.4284 32.6071 103.1071 -10 180.107 -10C248.8928 -10 309.75 25.7499 341.0713 72.1786L329.857 98.3571C308.25 74.6073 276.1074 58.3933 243.1791 58.3933C201.3221 58.3933 175.6079 79.9647 175.6079 126.286C175.6079 197.3573 245.8576 238.1786 355.6071 238.1786ZM288.4647 508.0358C174.7501 508.0358 67.3213 433.2143 67.3213 369.5714C67.3213 340.0713 92.4643 323.6427 127.6431 323.6427C145.3575 323.6427 164.5005 327.4642 185.0721 338.1428C181.2864 353.3929 179.8936 369.0715 179.8936 381.0715C179.8936 430.9287 212.5005 464.7142 260.036 464.7142C304.2143 464.7142 328.6427 437.8215 328.6427 385.3573C328.6427 370.8218 327.0713 125.6779 327.0713 78.5358C327.0713 26.2858 366.0358 -10 424.2502 -10C469.429 -10 513.4292 11.2858 539.5364 50.7503L535.5364 62.7861C520.1436 59.0004 507.7507 57.6076 497.0008 57.6076C459.3936 57.6076 449.8222 81.5005 449.8222 124.429C449.8222 176.2143 454.4294 306.4999 454.4294 349.1069C454.4294 453.1428 393.2864 508.0358 288.4647 508.0358ZM271.2862 498.0358ZM475.7504 0ZM273.6433 0ZM462.7502 -181.6071 458.7502 -169.5714C440.7859 -173.3571 428.3931 -174.75 411.6073 -174.75C378.8574 -174.75 359.8931 -156.3571 359.8931 -125.7857C359.8931 -79.5357 400.7504 -31.4642 475.7504 0L469.3933 13.3571C333.9285 -16.6427 258.3924 -73.8928 258.3924 -150.7501C258.3924 -205.6431 296.1069 -241.1432 352.2141 -241.1432C397.6071 -241.1432 438.7144 -219.4288 462.7502 -181.6071ZM475.7504 0Z" glyph-name="aogonek" horiz-adv-x="543.9648" unicode="&#261;" /><glyph d="M264.1784 538.0358 83.4284 73.9644C77.4284 57.9644 68.8213 47.7501 55.6784 39.7144C47.1784 33.0358 24.0715 26.7144 11.9285 20.0358L13.9285 0H181.0713L183.0713 20.0358L93.8213 52.7501L110.1071 18.7857L269.1069 432.7138H250.2139L399.7493 41.8929L333.428 20.0358L335.428 0H589.6789L591.6789 20.0358L559.679 32.2501C537.2147 43.5359 530.0004 49.1073 520.1789 74.5716L339.429 538.0358ZM149.4997 188.9283V148.8211L364.3567 151.2139V187.3211ZM303.2858 538.0358ZM589.6789 0ZM267.4997 0ZM576.6787 -181.6071 572.6787 -169.5714C554.7144 -173.3571 542.3216 -174.75 525.5358 -174.75C492.7859 -174.75 473.8216 -156.3571 473.8216 -125.7857C473.8216 -79.5357 514.6789 -31.4642 589.6789 0L583.3218 13.3571C447.857 -16.6427 372.3209 -73.8928 372.3209 -150.7501C372.3209 -205.6431 410.0353 -241.1432 466.1426 -241.1432C511.5356 -241.1432 552.6429 -219.4288 576.6787 -181.6071ZM589.6789 0Z" glyph-name="aogonek.sc" horiz-adv-x="604.3931" /><glyph d="M426.4645 313.1785C383.7859 313.1785 198.7069 365.1428 165.9287 365.1428C154.5358 365.1428 131.9644 336.9642 106.5716 306.1785L65.7857 332.7144C90.7471 376.749 127.2858 439.5361 169.9644 439.5361C212.4288 439.5361 395.1797 387.5718 430.5003 387.5718C441.8931 387.5718 464.0717 415.3575 489.8574 446.5361L530.6433 420.0002C506.0748 375.9656 469.536 313.1785 426.4645 313.1785ZM426.4645 100.9641C383.7859 100.9641 198.7069 152.9283 165.9287 152.9283C154.5358 152.9283 131.9644 124.7497 106.5716 93.9641L65.7857 120.4999C90.7471 164.5345 127.2858 227.3216 169.9644 227.3216C212.4288 227.3216 395.1797 175.3573 430.5003 175.3573C441.8931 175.3573 464.0717 203.143 489.8574 234.3216L530.6433 207.7857C506.0748 163.7511 469.536 100.9641 426.4645 100.9641Z" glyph-name="approxequal" horiz-adv-x="596.429" unicode="&#8776;" /><glyph d="M426.4645 388.5714C383.7859 388.5714 198.7069 440.5357 165.9287 440.5357C154.5358 440.5357 131.9644 412.3571 106.5716 381.5714L65.7857 408.1073C90.7471 452.1418 127.2858 514.9289 169.9644 514.9289C212.4288 514.9289 395.1797 462.9647 430.5003 462.9647C441.8931 462.9647 464.0717 490.7504 489.8574 521.9289L530.6433 495.3931C506.0748 451.3585 469.536 388.5714 426.4645 388.5714ZM426.4645 176.3569C383.7859 176.3569 198.7069 228.3211 165.9287 228.3211C154.5358 228.3211 131.9644 200.1426 106.5716 169.3569L65.7857 195.8928C90.7471 239.9273 127.2858 302.7144 169.9644 302.7144C212.4288 302.7144 395.1797 250.7502 430.5003 250.7502C441.8931 250.7502 464.0717 278.5358 489.8574 309.7144L530.6433 283.1785C506.0748 239.144 469.536 176.3569 426.4645 176.3569Z" glyph-name="approxequal.lf" horiz-adv-x="596.429" /><glyph d="M426.4645 313.1785C383.7859 313.1785 198.7069 365.1428 165.9287 365.1428C154.5358 365.1428 131.9644 336.9642 106.5716 306.1785L65.7857 332.7144C90.7471 376.749 127.2858 439.5361 169.9644 439.5361C212.4288 439.5361 395.1797 387.5718 430.5003 387.5718C441.8931 387.5718 464.0717 415.3575 489.8574 446.5361L530.6433 420.0002C506.0748 375.9656 469.536 313.1785 426.4645 313.1785ZM426.4645 100.9641C383.7859 100.9641 198.7069 152.9283 165.9287 152.9283C154.5358 152.9283 131.9644 124.7497 106.5716 93.9641L65.7857 120.4999C90.7471 164.5345 127.2858 227.3216 169.9644 227.3216C212.4288 227.3216 395.1797 175.3573 430.5003 175.3573C441.8931 175.3573 464.0717 203.143 489.8574 234.3216L530.6433 207.7857C506.0748 163.7511 469.536 100.9641 426.4645 100.9641Z" glyph-name="approxequal.osf" horiz-adv-x="596.429" /><glyph d="M426.4645 313.1785C383.7859 313.1785 198.7069 365.1428 165.9287 365.1428C154.5358 365.1428 131.9644 336.9642 106.5716 306.1785L65.7857 332.7144C90.7471 376.749 127.2858 439.5361 169.9644 439.5361C212.4288 439.5361 395.1797 387.5718 430.5003 387.5718C441.8931 387.5718 464.0717 415.3575 489.8574 446.5361L530.6433 420.0002C506.0748 375.9656 469.536 313.1785 426.4645 313.1785ZM426.4645 100.9641C383.7859 100.9641 198.7069 152.9283 165.9287 152.9283C154.5358 152.9283 131.9644 124.7497 106.5716 93.9641L65.7857 120.4999C90.7471 164.5345 127.2858 227.3216 169.9644 227.3216C212.4288 227.3216 395.1797 175.3573 430.5003 175.3573C441.8931 175.3573 464.0717 203.143 489.8574 234.3216L530.6433 207.7857C506.0748 163.7511 469.536 100.9641 426.4645 100.9641Z" glyph-name="approxequal.sc" horiz-adv-x="596.429" /><glyph d="M355.6071 269.3929C173.6427 272.4286 49.4284 208.9287 49.4284 104.2501C49.4284 32.6071 103.1071 -10 180.107 -10C248.8928 -10 309.75 25.7499 341.0713 72.1786L329.857 98.3571C308.25 74.6073 276.1074 58.3933 243.1791 58.3933C201.3221 58.3933 175.6079 79.9647 175.6079 126.286C175.6079 197.3573 245.8576 238.1786 355.6071 238.1786ZM288.4647 508.0358C174.7501 508.0358 67.3213 433.2143 67.3213 369.5714C67.3213 340.0713 92.4643 323.6427 127.6431 323.6427C145.3575 323.6427 164.5005 327.4642 185.0721 338.1428C181.2864 353.3929 179.8936 369.0715 179.8936 381.0715C179.8936 430.9287 212.5005 464.7142 260.036 464.7142C304.2143 464.7142 328.6427 437.8215 328.6427 385.3573C328.6427 370.8218 327.0713 125.6779 327.0713 78.5358C327.0713 26.2858 366.0358 -10 424.2502 -10C469.429 -10 513.4292 11.2858 539.5364 50.7503L535.5364 62.7861C520.1436 59.0004 507.7507 57.6076 497.0008 57.6076C459.3936 57.6076 449.8222 81.5005 449.8222 124.429C449.8222 176.2143 454.4294 306.4999 454.4294 349.1069C454.4294 453.1428 393.2864 508.0358 288.4647 508.0358ZM271.2862 498.0358ZM475.7504 0ZM273.6433 0ZM267.2862 578.9998C328.0721 578.9998 371.7865 617.8927 372.5722 670.6072C373.3579 719.1073 332.2507 753.5716 274.8933 753.5716C213.1075 753.5716 169.3931 716.2858 169.3931 662.5714C169.3931 612.4642 209.1075 578.9998 267.2862 578.9998ZM271.2862 720.8572C299.322 720.8572 319.1434 698.8215 319.1434 669.7857C319.1434 636.75 299.322 611.7142 270.2862 611.7142C242.2505 611.7142 222.429 633.75 222.429 663.7857C222.429 695.8215 242.2505 720.8572 271.2862 720.8572ZM271.2862 498.0358ZM270.6791 748.0358Z" glyph-name="aring" horiz-adv-x="543.9648" unicode="&#229;" /><glyph d="M299.2858 618.9998C360.0717 618.9998 403.7861 657.8927 404.5718 710.6072C405.3575 759.1073 364.2502 793.5716 306.8929 793.5716C245.107 793.5716 201.3927 756.2858 201.3927 702.5714C201.3927 652.4642 241.107 618.9998 299.2858 618.9998ZM303.2858 760.8572C331.3216 760.8572 351.143 738.8215 351.143 709.7857C351.143 676.75 331.3216 651.7142 302.2858 651.7142C274.25 651.7142 254.4286 673.75 254.4286 703.7857C254.4286 735.8215 274.25 760.8572 303.2858 760.8572ZM303.2858 538.0358ZM302.6787 788.0358ZM264.1784 538.0358 83.4284 73.9644C77.4284 57.9644 68.8213 47.7501 55.6784 39.7144C47.1784 33.0358 24.0715 26.7144 11.9285 20.0358L13.9285 0H181.0713L183.0713 20.0358L93.8213 52.7501L110.1071 18.7857L269.1069 432.7138H250.2139L399.7493 41.8929L333.428 20.0358L335.428 0H589.6789L591.6789 20.0358L559.679 32.2501C537.2147 43.5359 530.0004 49.1073 520.1789 74.5716L339.429 538.0358ZM149.4997 188.9283V148.8211L364.3567 151.2139V187.3211ZM303.2858 538.0358ZM589.6789 0ZM267.4997 0Z" glyph-name="aring.sc" horiz-adv-x="603.6073" /><glyph d="M355.6071 269.3929C173.6427 272.4286 49.4284 208.9287 49.4284 104.2501C49.4284 32.6071 103.1071 -10 180.107 -10C248.8928 -10 309.75 25.7499 341.0713 72.1786L329.857 98.3571C308.25 74.6073 276.1074 58.3933 243.1791 58.3933C201.3221 58.3933 175.6079 79.9647 175.6079 126.286C175.6079 197.3573 245.8576 238.1786 355.6071 238.1786ZM288.4647 508.0358C174.7501 508.0358 67.3213 433.2143 67.3213 369.5714C67.3213 340.0713 92.4643 323.6427 127.6431 323.6427C145.3575 323.6427 164.5005 327.4642 185.0721 338.1428C181.2864 353.3929 179.8936 369.0715 179.8936 381.0715C179.8936 430.9287 212.5005 464.7142 260.036 464.7142C304.2143 464.7142 328.6427 437.8215 328.6427 385.3573C328.6427 370.8218 327.0713 125.6779 327.0713 78.5358C327.0713 26.2858 366.0358 -10 424.2502 -10C469.429 -10 513.4292 11.2858 539.5364 50.7503L535.5364 62.7861C520.1436 59.0004 507.7507 57.6076 497.0008 57.6076C459.3936 57.6076 449.8222 81.5005 449.8222 124.429C449.8222 176.2143 454.4294 306.4999 454.4294 349.1069C454.4294 453.1428 393.2864 508.0358 288.4647 508.0358ZM271.2862 498.0358ZM475.7504 0ZM273.6433 0ZM267.2862 578.9998C328.0721 578.9998 371.7865 617.8927 372.5722 670.6072C373.3579 719.1073 332.2507 753.5716 274.8933 753.5716C213.1075 753.5716 169.3931 716.2858 169.3931 662.5714C169.3931 612.4642 209.1075 578.9998 267.2862 578.9998ZM271.2862 720.8572C299.322 720.8572 319.1434 698.8215 319.1434 669.7857C319.1434 636.75 299.322 611.7142 270.2862 611.7142C242.2505 611.7142 222.429 633.75 222.429 663.7857C222.429 695.8215 242.2505 720.8572 271.2862 720.8572ZM271.2862 498.0358ZM270.6791 748.0358ZM397.5722 969.2499C397.5722 1000.4643 365.7148 1012.893 327.3218 1012.893C320.2502 1012.893 312.1788 1012.893 305.1073 1012.2858L296.4643 1006.6429C274.4643 963.2143 227.7144 893.3214 180.7859 833.8927L192.1788 819.4642C302.5007 860.3569 397.5722 923.1069 397.5722 969.2499ZM270.679 748.0358ZM277.536 998.0358Z" glyph-name="aringacute" horiz-adv-x="543.9648" unicode="&#507;" /><glyph d="M299.2858 618.9998C360.0717 618.9998 403.7861 657.8927 404.5718 710.6072C405.3575 759.1073 364.2502 793.5716 306.8929 793.5716C245.107 793.5716 201.3927 756.2858 201.3927 702.5714C201.3927 652.4642 241.107 618.9998 299.2858 618.9998ZM303.2858 760.8572C331.3216 760.8572 351.143 738.8215 351.143 709.7857C351.143 676.75 331.3216 651.7142 302.2858 651.7142C274.25 651.7142 254.4286 673.75 254.4286 703.7857C254.4286 735.8215 274.25 760.8572 303.2858 760.8572ZM303.2858 538.0358ZM302.6787 788.0358ZM429.5718 1009.2499C429.5718 1040.4643 397.7144 1052.8929 359.3213 1052.8929C352.2498 1052.8929 344.1784 1052.8929 337.1069 1052.2858L328.4639 1046.6429C306.4639 1003.2143 259.714 933.3214 212.7855 873.8927L224.1783 859.4642C334.5003 900.3569 429.5718 963.1069 429.5718 1009.2499ZM302.6786 788.0358ZM309.5356 1038.0358ZM264.1784 538.0358 83.4284 73.9644C77.4284 57.9644 68.8213 47.7501 55.6784 39.7144C47.1784 33.0358 24.0715 26.7144 11.9285 20.0358L13.9285 0H181.0713L183.0713 20.0358L93.8213 52.7501L110.1071 18.7857L269.1069 432.7138H250.2139L399.7493 41.8929L333.428 20.0358L335.428 0H589.6789L591.6789 20.0358L559.679 32.2501C537.2147 43.5359 530.0004 49.1073 520.1789 74.5716L339.429 538.0358ZM149.4997 188.9283V148.8211L364.3567 151.2139V187.3211ZM303.2858 538.0358ZM589.6789 0ZM267.4997 0Z" glyph-name="aringacute.sc" horiz-adv-x="603.6073" /><glyph d="M159.286 210 261 454.9279H259.8215L366.714 210H441.6787L292.8572 548.0358H230.7857L83.9285 210Z" glyph-name="asciicircum" horiz-adv-x="526" unicode="^" /></font>
</defs>
</svg>
