<?xml version="1.0" standalone="no"?><!DOCTYPE svg PUBLIC "-//W3C//DTD SVG 1.1//EN" "http://www.w3.org/Graphics/SVG/1.1/DTD/svg11.dtd" ><svg version="1.1" xmlns="http://www.w3.org/2000/svg"><defs><font horiz-adv-x="0" id="font"><font-face ascent="745" bbox="-143 -569 3477 1110" cap-height="685" descent="-245" font-family="Indivisa Text Serif" font-stretch="normal" font-style="italic" font-weight="300" units-per-em="1000" x-height="495" /><missing-glyph d="M88 0H568L728 750H248ZM137 40 279 710H679L537 40ZM656 729 115 23H160L701 729ZM265 729 506 23H551L310 729Z" horiz-adv-x="680.5826" /><glyph d="M232 285 224 251 492 255 499 285ZM444 687 104 69C92 48 81 38 58 33L3 20L5 0H205L209 20L98 46L111 11L452 634H433L506 39L417 20L421 0H626L628 20L571 33C552 37 546 46 543 69L467 687ZM626 0ZM305 0ZM449 685Z" glyph-name="A" horiz-adv-x="649" unicode="A" /><glyph d="M435 646 108 69C96 48 85 38 62 33C42 29 23 24 3 20L1 0H204L210 20L115 43L122 26L477 664L459 655H572L459 120H501L621 685H360L354 665ZM793 0C810 46 825 119 831 165H816C795 122 775 78 754 35C727 32 681 30 640 30H481L475 0ZM512 329 519 359H292L284 325ZM775 365 552 360 545 331 766 326ZM876 520C891 573 906 640 908 685H621L614 655H742C783 655 828 652 854 650C856 607 859 563 861 520ZM475 0 501 120H459L447 63C443 44 436 37 413 33L346 20L348 0ZM632 685Z" glyph-name="AE" horiz-adv-x="865.6394" unicode="&#198;" /><glyph d="M435 646 108 69C96 48 85 38 62 33C42 29 23 24 3 20L1 0H204L210 20L115 43L122 26L477 664L459 655H572L459 120H501L621 685H360L354 665ZM793 0C810 46 825 119 831 165H816C795 122 775 78 754 35C727 32 681 30 640 30H481L475 0ZM512 329 519 359H292L284 325ZM775 365 552 360 545 331 766 326ZM876 520C891 573 906 640 908 685H621L614 655H742C783 655 828 652 854 650C856 607 859 563 861 520ZM475 0 501 120H459L447 63C443 44 436 37 413 33L346 20L348 0ZM632 685ZM749 896C705 863 629 831 541 794L546 778C641 795 782 836 782 871C782 887 765 895 756 897ZM646 859ZM629 685Z" glyph-name="AEacute" horiz-adv-x="865.6394" unicode="&#508;" /><glyph d="M232 285 224 251 492 255 499 285ZM444 687 104 69C92 48 81 38 58 33L3 20L5 0H205L209 20L98 46L111 11L452 634H433L506 39L417 20L421 0H626L628 20L571 33C552 37 546 46 543 69L467 687ZM626 0ZM305 0ZM449 685ZM566 896C522 863 446 831 358 794L363 778C458 795 599 836 599 871C599 887 582 895 573 897ZM463 859ZM446 685Z" glyph-name="Aacute" horiz-adv-x="649" unicode="&#193;" /><glyph d="M232 285 224 251 492 255 499 285ZM444 687 104 69C92 48 81 38 58 33L3 20L5 0H205L209 20L98 46L111 11L452 634H433L506 39L417 20L421 0H626L628 20L571 33C552 37 546 46 543 69L467 687ZM626 0ZM305 0ZM449 685ZM586 890C556 851 513 828 468 828C419 828 388 852 384 892L368 889C365 823 398 785 456 785C519 785 570 822 603 884L590 892ZM446 685Z" glyph-name="Abreve" horiz-adv-x="649" unicode="&#258;" /><glyph d="M232 285 224 251 492 255 499 285ZM444 687 104 69C92 48 81 38 58 33L3 20L5 0H205L209 20L98 46L111 11L452 634H433L506 39L417 20L421 0H626L628 20L571 33C552 37 546 46 543 69L467 687ZM626 0ZM305 0ZM449 685ZM449 800 475 802C436 834 399 874 370 905L354 895C385 847 415 800 438 771H479L485 775C509 798 578 856 627 893L617 905C565 875 480 823 449 800ZM446 685Z" glyph-name="Acaron" horiz-adv-x="649" unicode="&#461;" /><glyph d="M232 285 224 251 492 255 499 285ZM444 687 104 69C92 48 81 38 58 33L3 20L5 0H205L209 20L98 46L111 11L452 634H433L506 39L417 20L421 0H626L628 20L571 33C552 37 546 46 543 69L467 687ZM626 0ZM305 0ZM449 685ZM499 876 472 874C516 842 557 802 588 771L604 781C571 829 534 876 510 905H473L466 901C444 878 376 820 328 783L337 771C388 801 469 853 499 876ZM446 685Z" glyph-name="Acircumflex" horiz-adv-x="649" unicode="&#194;" /><glyph d="M232 285 224 251 492 255 499 285ZM444 687 104 69C92 48 81 38 58 33L3 20L5 0H205L209 20L98 46L111 11L452 634H433L506 39L417 20L421 0H626L628 20L571 33C552 37 546 46 543 69L467 687ZM626 0ZM305 0ZM449 685ZM609 847C609 865 598 877 578 877C551 877 533 848 533 823C533 803 546 792 565 792C589 792 609 818 609 847ZM419 847C419 865 408 877 388 877C361 877 343 848 343 823C343 803 356 792 375 792C399 792 419 818 419 847ZM483 869ZM446 685Z" glyph-name="Adieresis" horiz-adv-x="649" unicode="&#196;" /><glyph d="M232 285 224 251 492 255 499 285ZM444 687 104 69C92 48 81 38 58 33L3 20L5 0H205L209 20L98 46L111 11L452 634H433L506 39L417 20L421 0H626L628 20L571 33C552 37 546 46 543 69L467 687ZM626 0ZM305 0ZM449 685ZM269 -212C294 -212 313 -186 313 -152C313 -134 301 -122 284 -122C259 -122 240 -148 240 -181C240 -200 252 -212 269 -212ZM302 0ZM260 -245Z" glyph-name="Adotbelow" horiz-adv-x="649" unicode="&#7840;" /><glyph d="M232 285 224 251 492 255 499 285ZM444 687 104 69C92 48 81 38 58 33L3 20L5 0H205L209 20L98 46L111 11L452 634H433L506 39L417 20L421 0H626L628 20L571 33C552 37 546 46 543 69L467 687ZM626 0ZM305 0ZM449 685ZM569 795C496 823 451 866 422 897L416 898C405 894 389 885 389 869C387 828 507 786 558 779ZM446 685Z" glyph-name="Agrave" horiz-adv-x="649" unicode="&#192;" /><glyph d="M232 285 224 251 492 255 499 285ZM444 687 104 69C92 48 81 38 58 33L3 20L5 0H205L209 20L98 46L111 11L452 634H433L506 39L417 20L421 0H626L628 20L571 33C552 37 546 46 543 69L467 687ZM626 0ZM305 0ZM449 685ZM349 819H601L609 853H357ZM446 685Z" glyph-name="Amacron" horiz-adv-x="649" unicode="&#256;" /><glyph d="M232 285 224 251 492 255 499 285ZM444 687 104 69C92 48 81 38 58 33L3 20L5 0H205L209 20L98 46L111 11L452 634H433L506 39L417 20L421 0H626L628 20L571 33C552 37 546 46 543 69L467 687ZM626 0ZM305 0ZM449 685ZM623 0 602 17C503 -22 445 -91 445 -146C445 -184 463 -212 507 -212C561 -212 599 -152 619 -109L611 -104C583 -137 551 -172 519 -172C503 -172 488 -158 488 -135C488 -89 540 -31 623 0ZM623 0Z" glyph-name="Aogonek" horiz-adv-x="665.1687" unicode="&#260;" /><glyph d="M232 285 224 251 492 255 499 285ZM444 687 104 69C92 48 81 38 58 33L3 20L5 0H205L209 20L98 46L111 11L452 634H433L506 39L417 20L421 0H626L628 20L571 33C552 37 546 46 543 69L467 687ZM626 0ZM305 0ZM449 685ZM559 853C559 887 535 909 496 909C442 909 399 871 399 824C399 788 423 766 461 766C516 766 559 805 559 853ZM433 824C433 859 458 886 489 886C510 886 524 872 524 851C524 816 499 789 468 789C447 789 433 803 433 824ZM497 898ZM446 685Z" glyph-name="Aring" horiz-adv-x="649" unicode="&#197;" /><glyph d="M232 285 224 251 492 255 499 285ZM444 687 104 69C92 48 81 38 58 33L3 20L5 0H205L209 20L98 46L111 11L452 634H433L506 39L417 20L421 0H626L628 20L571 33C552 37 546 46 543 69L467 687ZM626 0ZM305 0ZM449 685ZM559 853C559 887 535 909 496 909C442 909 399 871 399 824C399 788 423 766 461 766C516 766 559 805 559 853ZM433 824C433 859 458 886 489 886C510 886 524 872 524 851C524 816 499 789 468 789C447 789 433 803 433 824ZM497 898ZM446 685ZM617 1109C573 1076 497 1044 409 1007L414 991C509 1008 650 1049 650 1084C650 1100 633 1108 624 1110ZM514 1072ZM497 898Z" glyph-name="Aringacute" horiz-adv-x="649" unicode="&#506;" /><glyph d="M232 285 224 251 492 255 499 285ZM444 687 104 69C92 48 81 38 58 33L3 20L5 0H205L209 20L98 46L111 11L452 634H433L506 39L417 20L421 0H626L628 20L571 33C552 37 546 46 543 69L467 687ZM626 0ZM305 0ZM449 685ZM363 849C413 848 498 789 571 789C618 789 654 826 685 891L677 896C635 854 611 832 598 828C543 829 463 888 390 888C343 888 308 851 276 786L284 781C327 823 351 845 363 849ZM515 905ZM446 685Z" glyph-name="Atilde" horiz-adv-x="649" unicode="&#195;" /><glyph d="M172 0H276C458 0 547 101 547 210C547 282 500 330 426 350C496 378 571 453 571 549C571 631 504 685 400 685H317L311 655H385C481 655 529 613 529 543C529 451 444 363 355 363H249L243 333H327C436 333 502 290 502 209C502 106 419 30 291 30H178ZM261 565 167 120H209L303 565ZM303 565 328 685H198L194 665L278 646L261 565ZM183 0 209 120H167L155 63C151 44 144 37 121 33L54 20L56 0Z" glyph-name="B" horiz-adv-x="562.7535" unicode="B" /><glyph d="M367 -10C420 -10 474 3 505 20C516 56 530 119 536 165H521C501 123 481 80 461 38C438 32 412 25 369 25C248 25 154 109 154 270C154 478 312 660 492 660C529 660 549 654 569 647C571 605 573 562 575 520H590C604 561 620 635 623 670C596 686 551 695 499 695C285 695 109 499 109 260C109 94 209 -10 367 -10ZM469 685ZM367 0Z" glyph-name="C" horiz-adv-x="581.5187" unicode="C" /><glyph d="M367 -10C420 -10 474 3 505 20C516 56 530 119 536 165H521C501 123 481 80 461 38C438 32 412 25 369 25C248 25 154 109 154 270C154 478 312 660 492 660C529 660 549 654 569 647C571 605 573 562 575 520H590C604 561 620 635 623 670C596 686 551 695 499 695C285 695 109 499 109 260C109 94 209 -10 367 -10ZM469 685ZM367 0ZM609 896C565 863 489 831 401 794L406 778C501 795 642 836 642 871C642 887 625 895 616 897ZM506 859ZM489 685Z" glyph-name="Cacute" horiz-adv-x="581.5187" unicode="&#262;" /><glyph d="M367 -10C420 -10 474 3 505 20C516 56 530 119 536 165H521C501 123 481 80 461 38C438 32 412 25 369 25C248 25 154 109 154 270C154 478 312 660 492 660C529 660 549 654 569 647C571 605 573 562 575 520H590C604 561 620 635 623 670C596 686 551 695 499 695C285 695 109 499 109 260C109 94 209 -10 367 -10ZM469 685ZM367 0ZM492 800 518 802C479 834 442 874 413 905L397 895C428 847 458 800 481 771H522L528 775C552 798 621 856 670 893L660 905C608 875 523 823 492 800ZM489 685Z" glyph-name="Ccaron" horiz-adv-x="581.5187" unicode="&#268;" /><glyph d="M367 -10C420 -10 474 3 505 20C516 56 530 119 536 165H521C501 123 481 80 461 38C438 32 412 25 369 25C248 25 154 109 154 270C154 478 312 660 492 660C529 660 549 654 569 647C571 605 573 562 575 520H590C604 561 620 635 623 670C596 686 551 695 499 695C285 695 109 499 109 260C109 94 209 -10 367 -10ZM469 685ZM367 0ZM434 -117C434 -90 411 -70 374 -64L368 -84L401 0H370L336 -86L338 -91C370 -93 390 -108 390 -129C390 -157 350 -188 294 -203L296 -212C377 -203 434 -163 434 -117ZM387 0Z" glyph-name="Ccedilla" horiz-adv-x="581.5187" unicode="&#199;" /><glyph d="M367 -10C420 -10 474 3 505 20C516 56 530 119 536 165H521C501 123 481 80 461 38C438 32 412 25 369 25C248 25 154 109 154 270C154 478 312 660 492 660C529 660 549 654 569 647C571 605 573 562 575 520H590C604 561 620 635 623 670C596 686 551 695 499 695C285 695 109 499 109 260C109 94 209 -10 367 -10ZM469 685ZM367 0ZM542 876 515 874C559 842 600 802 631 771L647 781C614 829 577 876 553 905H516L509 901C487 878 419 820 371 783L380 771C431 801 512 853 542 876ZM489 685Z" glyph-name="Ccircumflex" horiz-adv-x="581.5187" unicode="&#264;" /><glyph d="M367 -10C420 -10 474 3 505 20C516 56 530 119 536 165H521C501 123 481 80 461 38C438 32 412 25 369 25C248 25 154 109 154 270C154 478 312 660 492 660C529 660 549 654 569 647C571 605 573 562 575 520H590C604 561 620 635 623 670C596 686 551 695 499 695C285 695 109 499 109 260C109 94 209 -10 367 -10ZM469 685ZM367 0ZM560 844C560 863 549 874 528 874C503 874 481 850 481 824C481 803 492 792 513 792C538 792 560 817 560 844ZM489 685Z" glyph-name="Cdotaccent" horiz-adv-x="581.5187" unicode="&#266;" /><glyph d="M254 0C510 0 658 215 658 430C658 585 557 685 390 685H318L311 653H379C536 653 613 564 613 427C613 224 481 32 257 32H179L172 0ZM209 120 303 565H261L167 120ZM183 0 209 120H167L155 63C151 44 144 37 121 33L54 20L56 0ZM303 565 328 685H198L194 665L278 646L261 565ZM283 338ZM329 0ZM460 685Z" glyph-name="D" horiz-adv-x="644.1632" unicode="D" /><glyph d="M254 0C510 0 658 215 658 430C658 585 557 685 390 685H318L311 653H379C536 653 613 564 613 427C613 224 481 32 257 32H179L172 0ZM209 120 303 565H261L167 120ZM183 0 209 120H167L155 63C151 44 144 37 121 33L54 20L56 0ZM303 565 328 685H198L194 665L278 646L261 565ZM283 338ZM329 0ZM460 685ZM457 800 483 802C444 834 407 874 378 905L362 895C393 847 423 800 446 771H487L493 775C517 798 586 856 635 893L625 905C573 875 488 823 457 800ZM454 685Z" glyph-name="Dcaron" horiz-adv-x="644.1632" unicode="&#270;" /><glyph d="M254 0C510 0 658 215 658 430C658 585 557 685 390 685H318L311 653H379C536 653 613 564 613 427C613 224 481 32 257 32H179L172 0ZM209 120 303 565H261L167 120ZM183 0 209 120H167L155 63C151 44 144 37 121 33L54 20L56 0ZM303 565 328 685H198L194 665L278 646L261 565ZM283 338ZM329 0ZM460 685ZM452 338 458 368H109L103 338ZM277 338Z" glyph-name="Dcroat" horiz-adv-x="644" unicode="&#272;" /><glyph d="M254 0C510 0 658 215 658 430C658 585 557 685 390 685H318L311 653H379C536 653 613 564 613 427C613 224 481 32 257 32H179L172 0ZM209 120 303 565H261L167 120ZM183 0 209 120H167L155 63C151 44 144 37 121 33L54 20L56 0ZM303 565 328 685H198L194 665L278 646L261 565ZM283 338ZM329 0ZM460 685ZM290 -212C315 -212 334 -186 334 -152C334 -134 322 -122 305 -122C280 -122 261 -148 261 -181C261 -200 273 -212 290 -212ZM323 0ZM281 -245Z" glyph-name="Ddotbelow" horiz-adv-x="644.1632" unicode="&#7692;" /><glyph d="M561 0 563 7 448 685H425L21 7L23 0ZM528 35H66L70 26L439 649L412 631L516 25Z" glyph-name="Delta" horiz-adv-x="605.5121" unicode="&#916;" /><glyph d="M261 565 167 120H209L303 565ZM173 0H491C508 46 523 119 529 165H514C493 122 473 78 452 35C425 32 379 30 338 30H179ZM319 685 312 655H440C481 655 526 652 552 650C554 607 557 563 559 520H574C589 573 604 640 606 685ZM250 360 243 331 464 326 473 365ZM303 565 328 685H198L194 665L278 646L261 565ZM183 0 209 120H167L155 63C151 44 144 37 121 33L54 20L56 0ZM491 0ZM312 0ZM427 684Z" glyph-name="E" horiz-adv-x="563.6394" unicode="E" /><glyph d="M261 565 167 120H209L303 565ZM173 0H491C508 46 523 119 529 165H514C493 122 473 78 452 35C425 32 379 30 338 30H179ZM319 685 312 655H440C481 655 526 652 552 650C554 607 557 563 559 520H574C589 573 604 640 606 685ZM250 360 243 331 464 326 473 365ZM303 565 328 685H198L194 665L278 646L261 565ZM183 0 209 120H167L155 63C151 44 144 37 121 33L54 20L56 0ZM491 0ZM312 0ZM427 684ZM541 895C497 862 421 830 333 793L338 777C433 794 574 835 574 870C574 886 557 894 548 896ZM438 858ZM421 684Z" glyph-name="Eacute" horiz-adv-x="563.6394" unicode="&#201;" /><glyph d="M261 565 167 120H209L303 565ZM173 0H491C508 46 523 119 529 165H514C493 122 473 78 452 35C425 32 379 30 338 30H179ZM319 685 312 655H440C481 655 526 652 552 650C554 607 557 563 559 520H574C589 573 604 640 606 685ZM250 360 243 331 464 326 473 365ZM303 565 328 685H198L194 665L278 646L261 565ZM183 0 209 120H167L155 63C151 44 144 37 121 33L54 20L56 0ZM491 0ZM312 0ZM427 684ZM561 889C531 850 488 827 443 827C394 827 363 851 359 891L343 888C340 822 373 784 431 784C494 784 545 821 578 883L565 891ZM421 684Z" glyph-name="Ebreve" horiz-adv-x="563.6394" unicode="&#276;" /><glyph d="M261 565 167 120H209L303 565ZM173 0H491C508 46 523 119 529 165H514C493 122 473 78 452 35C425 32 379 30 338 30H179ZM319 685 312 655H440C481 655 526 652 552 650C554 607 557 563 559 520H574C589 573 604 640 606 685ZM250 360 243 331 464 326 473 365ZM303 565 328 685H198L194 665L278 646L261 565ZM183 0 209 120H167L155 63C151 44 144 37 121 33L54 20L56 0ZM491 0ZM312 0ZM427 684ZM424 799 450 801C411 833 374 873 345 904L329 894C360 846 390 799 413 770H454L460 774C484 797 553 855 602 892L592 904C540 874 455 822 424 799ZM421 684Z" glyph-name="Ecaron" horiz-adv-x="563.6394" unicode="&#282;" /><glyph d="M261 565 167 120H209L303 565ZM173 0H491C508 46 523 119 529 165H514C493 122 473 78 452 35C425 32 379 30 338 30H179ZM319 685 312 655H440C481 655 526 652 552 650C554 607 557 563 559 520H574C589 573 604 640 606 685ZM250 360 243 331 464 326 473 365ZM303 565 328 685H198L194 665L278 646L261 565ZM183 0 209 120H167L155 63C151 44 144 37 121 33L54 20L56 0ZM491 0ZM312 0ZM427 684ZM474 875 447 873C491 841 532 801 563 770L579 780C546 828 509 875 485 904H448L441 900C419 877 351 819 303 782L312 770C363 800 444 852 474 875ZM421 684Z" glyph-name="Ecircumflex" horiz-adv-x="563.6394" unicode="&#202;" /><glyph d="M261 565 167 120H209L303 565ZM173 0H491C508 46 523 119 529 165H514C493 122 473 78 452 35C425 32 379 30 338 30H179ZM319 685 312 655H440C481 655 526 652 552 650C554 607 557 563 559 520H574C589 573 604 640 606 685ZM250 360 243 331 464 326 473 365ZM303 565 328 685H198L194 665L278 646L261 565ZM183 0 209 120H167L155 63C151 44 144 37 121 33L54 20L56 0ZM491 0ZM312 0ZM427 684ZM584 846C584 864 573 876 553 876C526 876 508 847 508 822C508 802 521 791 540 791C564 791 584 817 584 846ZM394 846C394 864 383 876 363 876C336 876 318 847 318 822C318 802 331 791 350 791C374 791 394 817 394 846ZM458 868ZM421 684Z" glyph-name="Edieresis" horiz-adv-x="563.6394" unicode="&#203;" /><glyph d="M261 565 167 120H209L303 565ZM173 0H491C508 46 523 119 529 165H514C493 122 473 78 452 35C425 32 379 30 338 30H179ZM319 685 312 655H440C481 655 526 652 552 650C554 607 557 563 559 520H574C589 573 604 640 606 685ZM250 360 243 331 464 326 473 365ZM303 565 328 685H198L194 665L278 646L261 565ZM183 0 209 120H167L155 63C151 44 144 37 121 33L54 20L56 0ZM491 0ZM312 0ZM427 684ZM492 843C492 862 481 873 460 873C435 873 413 849 413 823C413 802 424 791 445 791C470 791 492 816 492 843ZM421 684Z" glyph-name="Edotaccent" horiz-adv-x="563.6394" unicode="&#278;" /><glyph d="M261 565 167 120H209L303 565ZM173 0H491C508 46 523 119 529 165H514C493 122 473 78 452 35C425 32 379 30 338 30H179ZM319 685 312 655H440C481 655 526 652 552 650C554 607 557 563 559 520H574C589 573 604 640 606 685ZM250 360 243 331 464 326 473 365ZM303 565 328 685H198L194 665L278 646L261 565ZM183 0 209 120H167L155 63C151 44 144 37 121 33L54 20L56 0ZM491 0ZM312 0ZM427 684ZM273 -212C298 -212 317 -186 317 -152C317 -134 305 -122 288 -122C263 -122 244 -148 244 -181C244 -200 256 -212 273 -212ZM306 0ZM264 -245Z" glyph-name="Edotbelow" horiz-adv-x="563.6394" unicode="&#7864;" /><glyph d="M261 565 167 120H209L303 565ZM173 0H491C508 46 523 119 529 165H514C493 122 473 78 452 35C425 32 379 30 338 30H179ZM319 685 312 655H440C481 655 526 652 552 650C554 607 557 563 559 520H574C589 573 604 640 606 685ZM250 360 243 331 464 326 473 365ZM303 565 328 685H198L194 665L278 646L261 565ZM183 0 209 120H167L155 63C151 44 144 37 121 33L54 20L56 0ZM491 0ZM312 0ZM427 684ZM544 794C471 822 426 865 397 896L391 897C380 893 364 884 364 868C362 827 482 785 533 778ZM421 684Z" glyph-name="Egrave" horiz-adv-x="563.6394" unicode="&#200;" /><glyph d="M261 565 167 120H209L303 565ZM173 0H491C508 46 523 119 529 165H514C493 122 473 78 452 35C425 32 379 30 338 30H179ZM319 685 312 655H440C481 655 526 652 552 650C554 607 557 563 559 520H574C589 573 604 640 606 685ZM250 360 243 331 464 326 473 365ZM303 565 328 685H198L194 665L278 646L261 565ZM183 0 209 120H167L155 63C151 44 144 37 121 33L54 20L56 0ZM491 0ZM312 0ZM427 684ZM324 818H576L584 852H332ZM421 684Z" glyph-name="Emacron" horiz-adv-x="563.6394" unicode="&#274;" /><glyph d="M569 50 317 685H198L194 665L253 652C274 647 277 641 273 622L167 120H202L311 636L294 631L546 0H559ZM661 565 563 104C533 -37 489 -81 418 -157L429 -170C520 -98 565 -52 592 75L696 565ZM184 39 202 120H167L154 63C150 44 144 37 121 33L54 20L56 0H285L289 20ZM679 646 661 565H696L709 622C713 641 719 648 742 652L809 665L807 685H598L594 665Z" glyph-name="Eng" horiz-adv-x="720" unicode="&#330;" /><glyph d="M261 565 167 120H209L303 565ZM173 0H491C508 46 523 119 529 165H514C493 122 473 78 452 35C425 32 379 30 338 30H179ZM319 685 312 655H440C481 655 526 652 552 650C554 607 557 563 559 520H574C589 573 604 640 606 685ZM250 360 243 331 464 326 473 365ZM303 565 328 685H198L194 665L278 646L261 565ZM183 0 209 120H167L155 63C151 44 144 37 121 33L54 20L56 0ZM491 0ZM312 0ZM427 684ZM485 0 464 17C365 -22 307 -91 307 -146C307 -184 325 -212 369 -212C423 -212 461 -152 481 -109L473 -104C445 -137 413 -172 381 -172C365 -172 350 -158 350 -135C350 -89 402 -31 485 0ZM485 0Z" glyph-name="Eogonek" horiz-adv-x="563.6394" unicode="&#280;" /><glyph d="M254 0C510 0 658 215 658 430C658 585 557 685 390 685H318L311 653H379C536 653 613 564 613 427C613 224 481 32 257 32H179L172 0ZM209 120 303 565H261L167 120ZM183 0 209 120H167L155 63C151 44 144 37 121 33L54 20L56 0ZM303 565 328 685H198L194 665L278 646L261 565ZM283 338ZM329 0ZM460 685ZM452 338 458 368H109L103 338ZM277 338Z" glyph-name="Eth" horiz-adv-x="644.1632" unicode="&#208;" /><glyph d="M261 565 167 120H209L303 565ZM173 0H491C508 46 523 119 529 165H514C493 122 473 78 452 35C425 32 379 30 338 30H179ZM319 685 312 655H440C481 655 526 652 552 650C554 607 557 563 559 520H574C589 573 604 640 606 685ZM250 360 243 331 464 326 473 365ZM303 565 328 685H198L194 665L278 646L261 565ZM183 0 209 120H167L155 63C151 44 144 37 121 33L54 20L56 0ZM491 0ZM312 0ZM427 684ZM338 848C388 847 473 788 546 788C593 788 629 825 660 890L652 895C610 853 586 831 573 827C518 828 438 887 365 887C318 887 283 850 251 785L259 780C302 822 326 844 338 848ZM490 904ZM421 684Z" glyph-name="Etilde" horiz-adv-x="563.6394" unicode="&#7868;" /><glyph d="M261 565 167 120H209L303 565ZM250 350 244 320 463 316 473 355ZM319 685 312 655H440C481 655 526 652 552 650C553 628 554 607 555 585L559 520H574C589 573 604 640 606 685ZM303 565 328 685H198L194 665L278 646L261 565ZM191 39 209 120H167L154 63C150 44 142 37 121 33L54 20L56 0H292L296 20Z" glyph-name="F" horiz-adv-x="500.2171" unicode="F" /><glyph d="M369 25C236 25 154 125 154 260C154 485 319 660 487 660C527 660 556 657 587 647C589 605 591 562 593 520H608C624 570 637 633 641 670C598 688 555 695 497 695C296 695 109 510 109 258C109 90 214 -10 364 -10C429 -10 468 3 505 20L544 200H502L465 26L484 47C454 32 414 25 369 25ZM520 281 502 200H544L557 257C561 276 569 283 590 287L657 300L655 320H439L435 300ZM457 685ZM359 0Z" glyph-name="G" horiz-adv-x="612.233" unicode="G" /><glyph d="M369 25C236 25 154 125 154 260C154 485 319 660 487 660C527 660 556 657 587 647C589 605 591 562 593 520H608C624 570 637 633 641 670C598 688 555 695 497 695C296 695 109 510 109 258C109 90 214 -10 364 -10C429 -10 468 3 505 20L544 200H502L465 26L484 47C454 32 414 25 369 25ZM520 281 502 200H544L557 257C561 276 569 283 590 287L657 300L655 320H439L435 300ZM457 685ZM359 0ZM595 896C551 863 475 831 387 794L392 778C487 795 628 836 628 871C628 887 611 895 602 897ZM492 859ZM475 685Z" glyph-name="Gacute" horiz-adv-x="612.233" unicode="&#500;" /><glyph d="M369 25C236 25 154 125 154 260C154 485 319 660 487 660C527 660 556 657 587 647C589 605 591 562 593 520H608C624 570 637 633 641 670C598 688 555 695 497 695C296 695 109 510 109 258C109 90 214 -10 364 -10C429 -10 468 3 505 20L544 200H502L465 26L484 47C454 32 414 25 369 25ZM520 281 502 200H544L557 257C561 276 569 283 590 287L657 300L655 320H439L435 300ZM457 685ZM359 0ZM615 890C585 851 542 828 497 828C448 828 417 852 413 892L397 889C394 823 427 785 485 785C548 785 599 822 632 884L619 892ZM475 685Z" glyph-name="Gbreve" horiz-adv-x="612.233" unicode="&#286;" /><glyph d="M369 25C236 25 154 125 154 260C154 485 319 660 487 660C527 660 556 657 587 647C589 605 591 562 593 520H608C624 570 637 633 641 670C598 688 555 695 497 695C296 695 109 510 109 258C109 90 214 -10 364 -10C429 -10 468 3 505 20L544 200H502L465 26L484 47C454 32 414 25 369 25ZM520 281 502 200H544L557 257C561 276 569 283 590 287L657 300L655 320H439L435 300ZM457 685ZM359 0ZM478 800 504 802C465 834 428 874 399 905L383 895C414 847 444 800 467 771H508L514 775C538 798 607 856 656 893L646 905C594 875 509 823 478 800ZM475 685Z" glyph-name="Gcaron" horiz-adv-x="612.233" unicode="&#486;" /><glyph d="M369 25C236 25 154 125 154 260C154 485 319 660 487 660C527 660 556 657 587 647C589 605 591 562 593 520H608C624 570 637 633 641 670C598 688 555 695 497 695C296 695 109 510 109 258C109 90 214 -10 364 -10C429 -10 468 3 505 20L544 200H502L465 26L484 47C454 32 414 25 369 25ZM520 281 502 200H544L557 257C561 276 569 283 590 287L657 300L655 320H439L435 300ZM457 685ZM359 0ZM528 876 501 874C545 842 586 802 617 771L633 781C600 829 563 876 539 905H502L495 901C473 878 405 820 357 783L366 771C417 801 498 853 528 876ZM475 685Z" glyph-name="Gcircumflex" horiz-adv-x="612.233" unicode="&#284;" /><glyph d="M369 25C236 25 154 125 154 260C154 485 319 660 487 660C527 660 556 657 587 647C589 605 591 562 593 520H608C624 570 637 633 641 670C598 688 555 695 497 695C296 695 109 510 109 258C109 90 214 -10 364 -10C429 -10 468 3 505 20L544 200H502L465 26L484 47C454 32 414 25 369 25ZM520 281 502 200H544L557 257C561 276 569 283 590 287L657 300L655 320H439L435 300ZM457 685ZM359 0ZM386 -161C386 -137 373 -122 353 -122C326 -122 304 -144 304 -172C304 -194 318 -207 339 -207L345 -175C334 -230 314 -267 273 -314L280 -321C339 -281 386 -210 386 -161ZM377 0Z" glyph-name="Gcommaaccent" horiz-adv-x="612.233" unicode="&#290;" /><glyph d="M369 25C236 25 154 125 154 260C154 485 319 660 487 660C527 660 556 657 587 647C589 605 591 562 593 520H608C624 570 637 633 641 670C598 688 555 695 497 695C296 695 109 510 109 258C109 90 214 -10 364 -10C429 -10 468 3 505 20L544 200H502L465 26L484 47C454 32 414 25 369 25ZM520 281 502 200H544L557 257C561 276 569 283 590 287L657 300L655 320H439L435 300ZM457 685ZM359 0ZM546 844C546 863 535 874 514 874C489 874 467 850 467 824C467 803 478 792 499 792C524 792 546 817 546 844ZM475 685Z" glyph-name="Gdotaccent" horiz-adv-x="612.233" unicode="&#288;" /><glyph d="M621 162C621 270 521 330 438 400L433 380L652 595L653 617C620 669 569 695 498 695C374 695 268 606 245 489L155 63C151 44 144 38 121 33L60 20L58 0H169L187 17L288 495C311 597 389 662 480 662C538 662 582 636 613 583L620 606L403 393L401 373C492 299 576 250 576 158C576 76 523 23 438 23C394 23 367 36 353 61C342 80 341 118 343 163H327C311 127 298 74 298 47C298 41 298 34 303 29C326 6 378 -10 428 -10C547 -10 621 57 621 162Z" glyph-name="Germandbls" horiz-adv-x="622" unicode="&#7838;" /><glyph d="M261 565 167 120H209L303 565ZM649 565 555 120H597L691 565ZM250 365 243 330H610L617 365ZM191 39 209 120H167L154 63C150 44 142 37 121 33L54 20L56 0H272L276 20ZM279 646 261 565H303L316 622C320 641 328 648 349 652L416 665L414 685H198L194 665ZM579 39 597 120H555L542 63C538 44 530 37 509 33L442 20L444 0H660L664 20ZM667 646 649 565H691L704 622C708 641 716 648 737 652L804 665L802 685H586L582 665ZM462 495ZM358 0ZM503 685Z" glyph-name="H" horiz-adv-x="737.6499" unicode="H" /><glyph d="M261 565 167 120H209L303 565ZM649 565 555 120H597L691 565ZM250 365 243 330H610L617 365ZM191 39 209 120H167L154 63C150 44 142 37 121 33L54 20L56 0H272L276 20ZM279 646 261 565H303L316 622C320 641 328 648 349 652L416 665L414 685H198L194 665ZM579 39 597 120H555L542 63C538 44 530 37 509 33L442 20L444 0H660L664 20ZM667 646 649 565H691L704 622C708 641 716 648 737 652L804 665L802 685H586L582 665ZM462 495ZM358 0ZM503 685ZM757 496 762 526H162L157 496ZM456 495Z" glyph-name="Hbar" horiz-adv-x="737.6499" unicode="&#294;" /><glyph d="M261 565 167 120H209L303 565ZM649 565 555 120H597L691 565ZM250 365 243 330H610L617 365ZM191 39 209 120H167L154 63C150 44 142 37 121 33L54 20L56 0H272L276 20ZM279 646 261 565H303L316 622C320 641 328 648 349 652L416 665L414 685H198L194 665ZM579 39 597 120H555L542 63C538 44 530 37 509 33L442 20L444 0H660L664 20ZM667 646 649 565H691L704 622C708 641 716 648 737 652L804 665L802 685H586L582 665ZM462 495ZM358 0ZM503 685ZM550 876 523 874C567 842 608 802 639 771L655 781C622 829 585 876 561 905H524L517 901C495 878 427 820 379 783L388 771C439 801 520 853 550 876ZM497 685Z" glyph-name="Hcircumflex" horiz-adv-x="737.6499" unicode="&#292;" /><glyph d="M261 565 167 120H209L303 565ZM649 565 555 120H597L691 565ZM250 365 243 330H610L617 365ZM191 39 209 120H167L154 63C150 44 142 37 121 33L54 20L56 0H272L276 20ZM279 646 261 565H303L316 622C320 641 328 648 349 652L416 665L414 685H198L194 665ZM579 39 597 120H555L542 63C538 44 530 37 509 33L442 20L444 0H660L664 20ZM667 646 649 565H691L704 622C708 641 716 648 737 652L804 665L802 685H586L582 665ZM462 495ZM358 0ZM503 685ZM319 -212C344 -212 363 -186 363 -152C363 -134 351 -122 334 -122C309 -122 290 -148 290 -181C290 -200 302 -212 319 -212ZM352 0ZM310 -245Z" glyph-name="Hdotbelow" horiz-adv-x="737.6499" unicode="&#7716;" /><glyph d="M261 565 167 120H209L303 565ZM191 39 209 120H167L154 63C150 44 142 37 121 33L54 20L56 0H272L276 20ZM279 646 261 565H303L316 622C320 641 328 648 349 652L416 665L414 685H198L194 665ZM272 0ZM168 0ZM308 685Z" glyph-name="I" horiz-adv-x="349.6499" unicode="I" /><glyph d="M261 565 167 120H209L303 565ZM191 39 209 120H167L154 63C150 44 142 37 121 33L54 20L56 0H272L276 20ZM279 646 261 565H303L316 622C320 641 328 648 349 652L416 665L414 685H198L194 665ZM272 0ZM168 0ZM308 685ZM612.6499 565 514.6499 104C485.6499 -35 442.6499 -78 373.6499 -153L387.6499 -170C478.6499 -98 523.6499 -52 550.6499 75L654.6499 565ZM630.6499 646 612.6499 565H654.6499L667.6499 622C671.6499 641 679.6499 648 700.6499 652L767.6499 665L765.6499 685H549.6499L545.6499 665ZM650.6499 685Z" glyph-name="IJ" horiz-adv-x="689.2998" unicode="&#306;" /><glyph d="M261 565 167 120H209L303 565ZM191 39 209 120H167L154 63C150 44 142 37 121 33L54 20L56 0H272L276 20ZM279 646 261 565H303L316 622C320 641 328 648 349 652L416 665L414 685H198L194 665ZM272 0ZM168 0ZM308 685ZM422 896C378 863 302 831 214 794L219 778C314 795 455 836 455 871C455 887 438 895 429 897ZM319 859ZM302 685Z" glyph-name="Iacute" horiz-adv-x="349.6499" unicode="&#205;" /><glyph d="M261 565 167 120H209L303 565ZM191 39 209 120H167L154 63C150 44 142 37 121 33L54 20L56 0H272L276 20ZM279 646 261 565H303L316 622C320 641 328 648 349 652L416 665L414 685H198L194 665ZM272 0ZM168 0ZM308 685ZM442 890C412 851 369 828 324 828C275 828 244 852 240 892L224 889C221 823 254 785 312 785C375 785 426 822 459 884L446 892ZM302 685Z" glyph-name="Ibreve" horiz-adv-x="349.6499" unicode="&#300;" /><glyph d="M261 565 167 120H209L303 565ZM191 39 209 120H167L154 63C150 44 142 37 121 33L54 20L56 0H272L276 20ZM279 646 261 565H303L316 622C320 641 328 648 349 652L416 665L414 685H198L194 665ZM272 0ZM168 0ZM308 685ZM305 800 331 802C292 834 255 874 226 905L210 895C241 847 271 800 294 771H335L341 775C365 798 434 856 483 893L473 905C421 875 336 823 305 800ZM302 685Z" glyph-name="Icaron" horiz-adv-x="349.6499" unicode="&#463;" /><glyph d="M261 565 167 120H209L303 565ZM191 39 209 120H167L154 63C150 44 142 37 121 33L54 20L56 0H272L276 20ZM279 646 261 565H303L316 622C320 641 328 648 349 652L416 665L414 685H198L194 665ZM272 0ZM168 0ZM308 685ZM355 876 328 874C372 842 413 802 444 771L460 781C427 829 390 876 366 905H329L322 901C300 878 232 820 184 783L193 771C244 801 325 853 355 876ZM302 685Z" glyph-name="Icircumflex" horiz-adv-x="349.6499" unicode="&#206;" /><glyph d="M261 565 167 120H209L303 565ZM191 39 209 120H167L154 63C150 44 142 37 121 33L54 20L56 0H272L276 20ZM279 646 261 565H303L316 622C320 641 328 648 349 652L416 665L414 685H198L194 665ZM272 0ZM168 0ZM308 685ZM465 847C465 865 454 877 434 877C407 877 389 848 389 823C389 803 402 792 421 792C445 792 465 818 465 847ZM275 847C275 865 264 877 244 877C217 877 199 848 199 823C199 803 212 792 231 792C255 792 275 818 275 847ZM339 869ZM302 685Z" glyph-name="Idieresis" horiz-adv-x="349.6499" unicode="&#207;" /><glyph d="M261 565 167 120H209L303 565ZM191 39 209 120H167L154 63C150 44 142 37 121 33L54 20L56 0H272L276 20ZM279 646 261 565H303L316 622C320 641 328 648 349 652L416 665L414 685H198L194 665ZM272 0ZM168 0ZM308 685ZM373 844C373 863 362 874 341 874C316 874 294 850 294 824C294 803 305 792 326 792C351 792 373 817 373 844ZM302 685Z" glyph-name="Idotaccent" horiz-adv-x="349.6499" unicode="&#304;" /><glyph d="M261 565 167 120H209L303 565ZM191 39 209 120H167L154 63C150 44 142 37 121 33L54 20L56 0H272L276 20ZM279 646 261 565H303L316 622C320 641 328 648 349 652L416 665L414 685H198L194 665ZM272 0ZM168 0ZM308 685ZM129 -212C154 -212 173 -186 173 -152C173 -134 161 -122 144 -122C119 -122 100 -148 100 -181C100 -200 112 -212 129 -212ZM162 0ZM120 -245Z" glyph-name="Idotbelow" horiz-adv-x="349.6499" unicode="&#7882;" /><glyph d="M261 565 167 120H209L303 565ZM191 39 209 120H167L154 63C150 44 142 37 121 33L54 20L56 0H272L276 20ZM279 646 261 565H303L316 622C320 641 328 648 349 652L416 665L414 685H198L194 665ZM272 0ZM168 0ZM308 685ZM425 795C352 823 307 866 278 897L272 898C261 894 245 885 245 869C243 828 363 786 414 779ZM302 685Z" glyph-name="Igrave" horiz-adv-x="349.6499" unicode="&#204;" /><glyph d="M261 565 167 120H209L303 565ZM191 39 209 120H167L154 63C150 44 142 37 121 33L54 20L56 0H272L276 20ZM279 646 261 565H303L316 622C320 641 328 648 349 652L416 665L414 685H198L194 665ZM272 0ZM168 0ZM308 685ZM205 819H457L465 853H213ZM302 685Z" glyph-name="Imacron" horiz-adv-x="349.6499" unicode="&#298;" /><glyph d="M261 565 167 120H209L303 565ZM191 39 209 120H167L154 63C150 44 142 37 121 33L54 20L56 0H272L276 20ZM279 646 261 565H303L316 622C320 641 328 648 349 652L416 665L414 685H198L194 665ZM272 0ZM168 0ZM308 685ZM266 0 245 17C146 -22 88 -91 88 -146C88 -184 106 -212 150 -212C204 -212 242 -152 262 -109L254 -104C226 -137 194 -172 162 -172C146 -172 131 -158 131 -135C131 -89 183 -31 266 0ZM266 0Z" glyph-name="Iogonek" horiz-adv-x="349.6499" unicode="&#302;" /><glyph d="M261 565 167 120H209L303 565ZM191 39 209 120H167L154 63C150 44 142 37 121 33L54 20L56 0H272L276 20ZM279 646 261 565H303L316 622C320 641 328 648 349 652L416 665L414 685H198L194 665ZM272 0ZM168 0ZM308 685ZM219 849C269 848 354 789 427 789C474 789 510 826 541 891L533 896C491 854 467 832 454 828C399 829 319 888 246 888C199 888 164 851 132 786L140 781C183 823 207 845 219 849ZM371 905ZM302 685Z" glyph-name="Itilde" horiz-adv-x="349.6499" unicode="&#296;" /><glyph d="M263 565 165 104C136 -35 93 -78 24 -153L38 -170C129 -98 174 -52 201 75L305 565ZM281 646 263 565H305L318 622C322 641 330 648 351 652L418 665L416 685H200L196 665ZM301 685Z" glyph-name="J" horiz-adv-x="339.6499" unicode="J" /><glyph d="M263 565 165 104C136 -35 93 -78 24 -153L38 -170C129 -98 174 -52 201 75L305 565ZM281 646 263 565H305L318 622C322 641 330 648 351 652L418 665L416 685H200L196 665ZM301 685ZM360 876 333 874C377 842 418 802 449 771L465 781C432 829 395 876 371 905H334L327 901C305 878 237 820 189 783L198 771C249 801 330 853 360 876ZM307 685Z" glyph-name="Jcircumflex" horiz-adv-x="339.6499" unicode="&#308;" /><glyph d="M413 360H390L259 358L252 325H382L472 70C488 25 507 0 564 0H609L613 20L582 27C542 36 524 50 506 100ZM382 351 410 337 642 616C661 639 674 647 695 652L752 665L750 685H545L541 665L626 646ZM261 565 167 120H209L303 565ZM191 39 209 120H167L154 63C150 44 142 37 121 33L54 20L56 0H272L276 20ZM279 646 261 565H303L316 622C320 641 328 648 349 652L416 665L414 685H198L194 665ZM473 685ZM344 0Z" glyph-name="K" horiz-adv-x="622.6499" unicode="K" /><glyph d="M413 360H390L259 358L252 325H382L472 70C488 25 507 0 564 0H609L613 20L582 27C542 36 524 50 506 100ZM382 351 410 337 642 616C661 639 674 647 695 652L752 665L750 685H545L541 665L626 646ZM261 565 167 120H209L303 565ZM191 39 209 120H167L154 63C150 44 142 37 121 33L54 20L56 0H272L276 20ZM279 646 261 565H303L316 622C320 641 328 648 349 652L416 665L414 685H198L194 665ZM473 685ZM344 0ZM347 -161C347 -137 334 -122 314 -122C287 -122 265 -144 265 -172C265 -194 279 -207 300 -207L306 -175C295 -230 275 -267 234 -314L241 -321C300 -281 347 -210 347 -161ZM338 0Z" glyph-name="Kcommaaccent" horiz-adv-x="622.6499" unicode="&#310;" /><glyph d="M261 565 167 120H209L303 565ZM153 0H471C488 49 504 126 510 175H495C474 129 453 81 432 35C405 32 359 30 318 30H159ZM279 646 261 565H303L316 622C320 641 328 648 349 652L416 665L414 685H198L194 665ZM183 0 209 120H167L155 63C151 44 144 37 121 33L54 20L56 0ZM236 345ZM499 450ZM308 685ZM302 0Z" glyph-name="L" horiz-adv-x="532.044" unicode="L" /><glyph d="M261 565 167 120H209L303 565ZM153 0H471C488 49 504 126 510 175H495C474 129 453 81 432 35C405 32 359 30 318 30H159ZM279 646 261 565H303L316 622C320 641 328 648 349 652L416 665L414 685H198L194 665ZM183 0 209 120H167L155 63C151 44 144 37 121 33L54 20L56 0ZM236 345ZM499 450ZM308 685ZM302 0ZM422 896C378 863 302 831 214 794L219 778C314 795 455 836 455 871C455 887 438 895 429 897ZM319 859ZM302 685Z" glyph-name="Lacute" horiz-adv-x="532.044" unicode="&#313;" /><glyph d="M261 565 167 120H209L303 565ZM153 0H471C488 49 504 126 510 175H495C474 129 453 81 432 35C405 32 359 30 318 30H159ZM279 646 261 565H303L316 622C320 641 328 648 349 652L416 665L414 685H198L194 665ZM183 0 209 120H167L155 63C151 44 144 37 121 33L54 20L56 0ZM236 345ZM499 450ZM308 685ZM302 0ZM586 661C586 685 573 700 553 700C526 700 504 678 504 650C504 628 518 615 539 615L545 647C534 592 514 555 473 508L480 501C539 541 586 612 586 661ZM493 450Z" glyph-name="Lcaron" horiz-adv-x="532.044" unicode="&#317;" /><glyph d="M261 565 167 120H209L303 565ZM153 0H471C488 49 504 126 510 175H495C474 129 453 81 432 35C405 32 359 30 318 30H159ZM279 646 261 565H303L316 622C320 641 328 648 349 652L416 665L414 685H198L194 665ZM183 0 209 120H167L155 63C151 44 144 37 121 33L54 20L56 0ZM236 345ZM499 450ZM308 685ZM302 0ZM305 -161C305 -137 292 -122 272 -122C245 -122 223 -144 223 -172C223 -194 237 -207 258 -207L264 -175C253 -230 233 -267 192 -314L199 -321C258 -281 305 -210 305 -161ZM296 0Z" glyph-name="Lcommaaccent" horiz-adv-x="532.044" unicode="&#315;" /><glyph d="M261 565 167 120H209L303 565ZM153 0H471C488 49 504 126 510 175H495C474 129 453 81 432 35C405 32 359 30 318 30H159ZM279 646 261 565H303L316 622C320 641 328 648 349 652L416 665L414 685H198L194 665ZM183 0 209 120H167L155 63C151 44 144 37 121 33L54 20L56 0ZM236 345ZM499 450ZM308 685ZM302 0ZM501 324C526 324 545 350 545 384C545 402 533 414 516 414C491 414 472 388 472 355C472 336 484 324 501 324Z" glyph-name="Ldot" horiz-adv-x="532.044" unicode="&#319;" /><glyph d="M261 565 167 120H209L303 565ZM153 0H471C488 49 504 126 510 175H495C474 129 453 81 432 35C405 32 359 30 318 30H159ZM279 646 261 565H303L316 622C320 641 328 648 349 652L416 665L414 685H198L194 665ZM183 0 209 120H167L155 63C151 44 144 37 121 33L54 20L56 0ZM236 345ZM499 450ZM308 685ZM302 0ZM403 417 393 448 71 273 80 242ZM237 345Z" glyph-name="Lslash" horiz-adv-x="532.044" unicode="&#321;" /><glyph d="M269 685 262 665 344 645 144 63C137 44 134 38 111 33L50 20L48 0H248L254 20L173 39L379 644L363 642L442 142L464 0H498L579 140L861 628L847 630L802 63C801 48 789 37 772 33L711 20L709 0H914L920 20L831 41L841 26L891 645L982 665L985 685H855L477 32H501L397 685Z" glyph-name="M" horiz-adv-x="985" unicode="M" /><glyph d="M696 565H661L551 45L569 50L317 685H198L194 665L289 644L281 660L167 120H202L311 636L294 631L546 0H576ZM184 39 202 120H167L154 63C150 44 144 37 121 33L54 20L56 0H285L289 20ZM679 646 661 565H696L709 622C713 641 719 648 742 652L809 665L807 685H598L594 665ZM493 685ZM357 0Z" glyph-name="N" horiz-adv-x="719.6499" unicode="N" /><glyph d="M696 565H661L551 45L569 50L317 685H198L194 665L289 644L281 660L167 120H202L311 636L294 631L546 0H576ZM184 39 202 120H167L154 63C150 44 144 37 121 33L54 20L56 0H285L289 20ZM679 646 661 565H696L709 622C713 641 719 648 742 652L809 665L807 685H598L594 665ZM493 685ZM357 0ZM622 896C578 863 502 831 414 794L419 778C514 795 655 836 655 871C655 887 638 895 629 897ZM519 859ZM502 685Z" glyph-name="Nacute" horiz-adv-x="719.6499" unicode="&#323;" /><glyph d="M696 565H661L551 45L569 50L317 685H198L194 665L289 644L281 660L167 120H202L311 636L294 631L546 0H576ZM184 39 202 120H167L154 63C150 44 144 37 121 33L54 20L56 0H285L289 20ZM679 646 661 565H696L709 622C713 641 719 648 742 652L809 665L807 685H598L594 665ZM493 685ZM357 0ZM505 800 531 802C492 834 455 874 426 905L410 895C441 847 471 800 494 771H535L541 775C565 798 634 856 683 893L673 905C621 875 536 823 505 800ZM502 685Z" glyph-name="Ncaron" horiz-adv-x="719.6499" unicode="&#327;" /><glyph d="M696 565H661L551 45L569 50L317 685H198L194 665L289 644L281 660L167 120H202L311 636L294 631L546 0H576ZM184 39 202 120H167L154 63C150 44 144 37 121 33L54 20L56 0H285L289 20ZM679 646 661 565H696L709 622C713 641 719 648 742 652L809 665L807 685H598L594 665ZM493 685ZM357 0ZM375 -161C375 -137 362 -122 342 -122C315 -122 293 -144 293 -172C293 -194 307 -207 328 -207L334 -175C323 -230 303 -267 262 -314L269 -321C328 -281 375 -210 375 -161ZM366 0Z" glyph-name="Ncommaaccent" horiz-adv-x="719.6499" unicode="&#325;" /><glyph d="M696 565H661L551 45L569 50L317 685H198L194 665L289 644L281 660L167 120H202L311 636L294 631L546 0H576ZM184 39 202 120H167L154 63C150 44 144 37 121 33L54 20L56 0H285L289 20ZM679 646 661 565H696L709 622C713 641 719 648 742 652L809 665L807 685H598L594 665ZM493 685ZM357 0ZM573 844C573 863 562 874 541 874C516 874 494 850 494 824C494 803 505 792 526 792C551 792 573 817 573 844ZM502 685Z" glyph-name="Ndotaccent" horiz-adv-x="719.6499" unicode="&#7748;" /><glyph d="M29 -170C120 -98 165 -52 192 75L311 636L294 631L546 0H576L696 565H661L549 34L575 36L317 685H198L194 665L253 652C274 647 277 641 273 622L163 104C133 -37 89 -81 18 -157ZM679 646 661 565H696L709 622C713 641 719 648 742 652L809 665L807 685H598L594 665Z" glyph-name="Nhookleft" horiz-adv-x="720" unicode="&#413;" /><glyph d="M696 565H661L551 45L569 50L317 685H198L194 665L289 644L281 660L167 120H202L311 636L294 631L546 0H576ZM184 39 202 120H167L154 63C150 44 144 37 121 33L54 20L56 0H285L289 20ZM679 646 661 565H696L709 622C713 641 719 648 742 652L809 665L807 685H598L594 665ZM493 685ZM357 0ZM419 849C469 848 554 789 627 789C674 789 710 826 741 891L733 896C691 854 667 832 654 828C599 829 519 888 446 888C399 888 364 851 332 786L340 781C383 823 407 845 419 849ZM571 905ZM502 685Z" glyph-name="Ntilde" horiz-adv-x="719.6499" unicode="&#209;" /><glyph d="M593 454C593 604 525 695 417 695C223 695 104 430 104 229C104 84 175 -10 286 -10C480 -10 593 271 593 454ZM149 235C149 420 250 660 409 660C508 660 548 578 548 455C548 270 453 25 294 25C198 25 149 113 149 235ZM276 0ZM347 0ZM419 685ZM349 343Z" glyph-name="O" horiz-adv-x="575.3893" unicode="O" /><glyph d="M435 3 433 50C424 39 393 25 343 25C216 25 148 120 148 246C148 481 287 660 482 660C520 660 559 651 588 635L607 674C572 688 533 695 489 695C270 695 103 495 103 244C103 91 193 -10 336 -10C370 -10 403 -6 435 3ZM771 0C788 46 803 119 809 165H794C773 122 753 78 732 35C705 32 659 30 618 30H459L453 0ZM463 0 608 685H566L422 0ZM753 365 530 360 523 331 744 326ZM854 520C869 573 884 640 886 685H599L592 655H720C761 655 806 652 832 650C834 607 837 563 839 520Z" glyph-name="OE" horiz-adv-x="843" unicode="&#338;" /><glyph d="M593 454C593 604 525 695 417 695C223 695 104 430 104 229C104 84 175 -10 286 -10C480 -10 593 271 593 454ZM149 235C149 420 250 660 409 660C508 660 548 578 548 455C548 270 453 25 294 25C198 25 149 113 149 235ZM276 0ZM347 0ZM419 685ZM349 343ZM528 896C484 863 408 831 320 794L325 778C420 795 561 836 561 871C561 887 544 895 535 897ZM425 859ZM408 685Z" glyph-name="Oacute" horiz-adv-x="575.3893" unicode="&#211;" /><glyph d="M593 454C593 604 525 695 417 695C223 695 104 430 104 229C104 84 175 -10 286 -10C480 -10 593 271 593 454ZM149 235C149 420 250 660 409 660C508 660 548 578 548 455C548 270 453 25 294 25C198 25 149 113 149 235ZM276 0ZM347 0ZM419 685ZM349 343ZM548 890C518 851 475 828 430 828C381 828 350 852 346 892L330 889C327 823 360 785 418 785C481 785 532 822 565 884L552 892ZM408 685Z" glyph-name="Obreve" horiz-adv-x="575.3893" unicode="&#334;" /><glyph d="M593 454C593 604 525 695 417 695C223 695 104 430 104 229C104 84 175 -10 286 -10C480 -10 593 271 593 454ZM149 235C149 420 250 660 409 660C508 660 548 578 548 455C548 270 453 25 294 25C198 25 149 113 149 235ZM276 0ZM347 0ZM419 685ZM349 343ZM411 800 437 802C398 834 361 874 332 905L316 895C347 847 377 800 400 771H441L447 775C471 798 540 856 589 893L579 905C527 875 442 823 411 800ZM408 685Z" glyph-name="Ocaron" horiz-adv-x="575.3893" unicode="&#465;" /><glyph d="M593 454C593 604 525 695 417 695C223 695 104 430 104 229C104 84 175 -10 286 -10C480 -10 593 271 593 454ZM149 235C149 420 250 660 409 660C508 660 548 578 548 455C548 270 453 25 294 25C198 25 149 113 149 235ZM276 0ZM347 0ZM419 685ZM349 343ZM461 876 434 874C478 842 519 802 550 771L566 781C533 829 496 876 472 905H435L428 901C406 878 338 820 290 783L299 771C350 801 431 853 461 876ZM408 685Z" glyph-name="Ocircumflex" horiz-adv-x="575.3893" unicode="&#212;" /><glyph d="M593 454C593 604 525 695 417 695C223 695 104 430 104 229C104 84 175 -10 286 -10C480 -10 593 271 593 454ZM149 235C149 420 250 660 409 660C508 660 548 578 548 455C548 270 453 25 294 25C198 25 149 113 149 235ZM276 0ZM347 0ZM419 685ZM349 343ZM571 847C571 865 560 877 540 877C513 877 495 848 495 823C495 803 508 792 527 792C551 792 571 818 571 847ZM381 847C381 865 370 877 350 877C323 877 305 848 305 823C305 803 318 792 337 792C361 792 381 818 381 847ZM445 869ZM408 685Z" glyph-name="Odieresis" horiz-adv-x="575.3893" unicode="&#214;" /><glyph d="M593 454C593 604 525 695 417 695C223 695 104 430 104 229C104 84 175 -10 286 -10C480 -10 593 271 593 454ZM149 235C149 420 250 660 409 660C508 660 548 578 548 455C548 270 453 25 294 25C198 25 149 113 149 235ZM276 0ZM347 0ZM419 685ZM349 343ZM232 -212C257 -212 276 -186 276 -152C276 -134 264 -122 247 -122C222 -122 203 -148 203 -181C203 -200 215 -212 232 -212ZM265 0ZM223 -245Z" glyph-name="Odotbelow" horiz-adv-x="575.3893" unicode="&#7884;" /><glyph d="M593 454C593 604 525 695 417 695C223 695 104 430 104 229C104 84 175 -10 286 -10C480 -10 593 271 593 454ZM149 235C149 420 250 660 409 660C508 660 548 578 548 455C548 270 453 25 294 25C198 25 149 113 149 235ZM276 0ZM347 0ZM419 685ZM349 343ZM531 795C458 823 413 866 384 897L378 898C367 894 351 885 351 869C349 828 469 786 520 779ZM408 685Z" glyph-name="Ograve" horiz-adv-x="575.3893" unicode="&#210;" /><glyph d="M593 454C593 604 525 695 417 695C223 695 104 430 104 229C104 84 175 -10 286 -10C480 -10 593 271 593 454ZM149 235C149 420 250 660 409 660C508 660 548 578 548 455C548 270 453 25 294 25C198 25 149 113 149 235ZM276 0ZM347 0ZM419 685ZM349 343ZM485 897C443 865 380 826 294 792L301 776C434 809 513 838 513 877C513 887 504 896 493 898ZM681 897C639 865 576 826 490 792L497 776C630 809 709 838 709 877C709 887 700 896 689 898ZM408 685Z" glyph-name="Ohungarumlaut" horiz-adv-x="575.3893" unicode="&#336;" /><glyph d="M593 454C593 604 525 695 417 695C223 695 104 430 104 229C104 84 175 -10 286 -10C480 -10 593 271 593 454ZM149 235C149 420 250 660 409 660C508 660 548 578 548 455C548 270 453 25 294 25C198 25 149 113 149 235ZM276 0ZM347 0ZM419 685ZM349 343ZM311 819H563L571 853H319ZM408 685Z" glyph-name="Omacron" horiz-adv-x="575.3893" unicode="&#332;" /><glyph d="M302 0 319 30C263 86 220 171 220 285C220 459 342 660 515 660C614 660 669 579 669 458C669 286 576 126 431 30L434 0H702C715 32 731 109 738 155H723L709 120C692 81 683 62 672 41C644 34 600 30 560 30H437L463 13C617 113 715 281 715 462C715 603 643 695 521 695C323 695 175 485 175 284C175 181 213 81 279 14L313 30H190C149 30 107 34 82 41C79 62 78 81 79 120V155H64C52 116 36 43 34 0Z" glyph-name="Omega" horiz-adv-x="758.97" unicode="&#42934;" /><glyph d="M593 454C593 604 525 695 417 695C223 695 104 430 104 229C104 84 175 -10 286 -10C480 -10 593 271 593 454ZM149 235C149 420 250 660 409 660C508 660 548 578 548 455C548 270 453 25 294 25C198 25 149 113 149 235ZM276 0ZM347 0ZM419 685ZM349 343ZM336 0 315 17C216 -22 158 -91 158 -146C158 -184 176 -212 220 -212C274 -212 312 -152 332 -109L324 -104C296 -137 264 -172 232 -172C216 -172 201 -158 201 -135C201 -89 253 -31 336 0ZM336 0Z" glyph-name="Oogonek" horiz-adv-x="575.3893" unicode="&#490;" /><glyph d="M593 454C593 604 525 695 417 695C223 695 104 430 104 229C104 84 175 -10 286 -10C480 -10 593 271 593 454ZM149 235C149 420 250 660 409 660C508 660 548 578 548 455C548 270 453 25 294 25C198 25 149 113 149 235ZM276 0ZM347 0ZM419 685ZM349 343ZM655 646 633 668 21 40 42 18ZM338 343Z" glyph-name="Oslash" horiz-adv-x="575.3893" unicode="&#216;" /><glyph d="M593 454C593 604 525 695 417 695C223 695 104 430 104 229C104 84 175 -10 286 -10C480 -10 593 271 593 454ZM149 235C149 420 250 660 409 660C508 660 548 578 548 455C548 270 453 25 294 25C198 25 149 113 149 235ZM276 0ZM347 0ZM419 685ZM349 343ZM655 646 633 668 21 40 42 18ZM338 343ZM502 944C471 904 398 840 327 786L336 771C419 816 539 886 539 926C539 938 528 946 512 946C511 946 509 946 508 946ZM450 935ZM396 685Z" glyph-name="Oslashacute" horiz-adv-x="576" unicode="&#510;" /><glyph d="M593 454C593 604 525 695 417 695C223 695 104 430 104 229C104 84 175 -10 286 -10C480 -10 593 271 593 454ZM149 235C149 420 250 660 409 660C508 660 548 578 548 455C548 270 453 25 294 25C198 25 149 113 149 235ZM276 0ZM347 0ZM419 685ZM349 343ZM325 849C375 848 460 789 533 789C580 789 616 826 647 891L639 896C597 854 573 832 560 828C505 829 425 888 352 888C305 888 270 851 238 786L246 781C289 823 313 845 325 849ZM477 905ZM408 685Z" glyph-name="Otilde" horiz-adv-x="575.3893" unicode="&#213;" /><glyph d="M314 270C480 270 593 365 593 515C593 625 517 685 389 685H319L311 650H387C487 650 548 606 548 510C548 406 479 303 322 303H244L237 270ZM209 120 303 565H261L167 120ZM303 565 328 685H198L194 665L278 646L261 565ZM191 39 209 120H167L154 63C150 44 142 37 121 33L54 20L56 0H292L296 20Z" glyph-name="P" horiz-adv-x="523.76" unicode="P" /><glyph d="M580 -143C580 -136 578 -130 574 -126C551 -132 527 -136 498 -136C370 -136 248 -109 133 -53V-59C424 -44 586 206 586 448C586 602 520 695 406 695C258 695 121 518 121 292C121 191 162 109 215 67L232 80C188 141 166 212 166 300C166 504 280 660 398 660C506 660 541 573 541 444C541 201 372 -29 106 -29C98 -29 89 -28 81 -28L72 -46C193 -135 360 -181 494 -181C545 -181 580 -170 580 -143Z" glyph-name="Q" horiz-adv-x="568" unicode="Q" /><glyph d="M314 300C465 300 584 390 584 530C584 628 511 685 389 685H319L311 650H387C482 650 539 605 539 527C539 432 471 333 316 333H254L247 300ZM209 120 303 565H261L167 120ZM583 0 587 20 560 27C521 37 502 47 485 100L407 340L371 319L450 70C465 23 485 0 542 0ZM303 565 328 685H198L194 665L278 646L261 565ZM191 39 209 120H167L154 63C150 44 142 37 121 33L54 20L56 0H272L276 20ZM437 685ZM336 0Z" glyph-name="R" horiz-adv-x="595" unicode="R" /><glyph d="M314 300C465 300 584 390 584 530C584 628 511 685 389 685H319L311 650H387C482 650 539 605 539 527C539 432 471 333 316 333H254L247 300ZM209 120 303 565H261L167 120ZM583 0 587 20 560 27C521 37 502 47 485 100L407 340L371 319L450 70C465 23 485 0 542 0ZM303 565 328 685H198L194 665L278 646L261 565ZM191 39 209 120H167L154 63C150 44 142 37 121 33L54 20L56 0H272L276 20ZM437 685ZM336 0ZM551 896C507 863 431 831 343 794L348 778C443 795 584 836 584 871C584 887 567 895 558 897ZM448 859ZM431 685Z" glyph-name="Racute" horiz-adv-x="595" unicode="&#340;" /><glyph d="M314 300C465 300 584 390 584 530C584 628 511 685 389 685H319L311 650H387C482 650 539 605 539 527C539 432 471 333 316 333H254L247 300ZM209 120 303 565H261L167 120ZM583 0 587 20 560 27C521 37 502 47 485 100L407 340L371 319L450 70C465 23 485 0 542 0ZM303 565 328 685H198L194 665L278 646L261 565ZM191 39 209 120H167L154 63C150 44 142 37 121 33L54 20L56 0H272L276 20ZM437 685ZM336 0ZM434 800 460 802C421 834 384 874 355 905L339 895C370 847 400 800 423 771H464L470 775C494 798 563 856 612 893L602 905C550 875 465 823 434 800ZM431 685Z" glyph-name="Rcaron" horiz-adv-x="595" unicode="&#344;" /><glyph d="M314 300C465 300 584 390 584 530C584 628 511 685 389 685H319L311 650H387C482 650 539 605 539 527C539 432 471 333 316 333H254L247 300ZM209 120 303 565H261L167 120ZM583 0 587 20 560 27C521 37 502 47 485 100L407 340L371 319L450 70C465 23 485 0 542 0ZM303 565 328 685H198L194 665L278 646L261 565ZM191 39 209 120H167L154 63C150 44 142 37 121 33L54 20L56 0H272L276 20ZM437 685ZM336 0ZM339 -161C339 -137 326 -122 306 -122C279 -122 257 -144 257 -172C257 -194 271 -207 292 -207L298 -175C287 -230 267 -267 226 -314L233 -321C292 -281 339 -210 339 -161ZM330 0Z" glyph-name="Rcommaaccent" horiz-adv-x="595" unicode="&#342;" /><glyph d="M314 300C465 300 584 390 584 530C584 628 511 685 389 685H319L311 650H387C482 650 539 605 539 527C539 432 471 333 316 333H254L247 300ZM209 120 303 565H261L167 120ZM583 0 587 20 560 27C521 37 502 47 485 100L407 340L371 319L450 70C465 23 485 0 542 0ZM303 565 328 685H198L194 665L278 646L261 565ZM191 39 209 120H167L154 63C150 44 142 37 121 33L54 20L56 0H272L276 20ZM437 685ZM336 0ZM297 -212C322 -212 341 -186 341 -152C341 -134 329 -122 312 -122C287 -122 268 -148 268 -181C268 -200 280 -212 297 -212ZM330 0ZM288 -245Z" glyph-name="Rdotbelow" horiz-adv-x="595" unicode="&#7770;" /><glyph d="M197 -10C334 -10 413 85 413 183C413 347 191 386 191 521C191 597 255 660 341 660C382 660 410 652 426 633C435 622 439 603 439 569C439 555 438 539 437 520H453C469 559 484 623 484 649C484 653 483 656 482 658C471 674 425 695 349 695C240 695 146 619 146 518C146 358 368 327 368 179C368 100 305 23 205 23C166 23 127 29 107 55C96 69 92 86 92 126C92 138 92 152 93 168H77C60 127 48 79 48 48C48 41 49 35 51 30C58 12 124 -10 197 -10ZM345 685ZM200 0Z" glyph-name="S" horiz-adv-x="434.1918" unicode="S" /><glyph d="M197 -10C334 -10 413 85 413 183C413 347 191 386 191 521C191 597 255 660 341 660C382 660 410 652 426 633C435 622 439 603 439 569C439 555 438 539 437 520H453C469 559 484 623 484 649C484 653 483 656 482 658C471 674 425 695 349 695C240 695 146 619 146 518C146 358 368 327 368 179C368 100 305 23 205 23C166 23 127 29 107 55C96 69 92 86 92 126C92 138 92 152 93 168H77C60 127 48 79 48 48C48 41 49 35 51 30C58 12 124 -10 197 -10ZM345 685ZM200 0ZM483 896C439 863 363 831 275 794L280 778C375 795 516 836 516 871C516 887 499 895 490 897ZM380 859ZM363 685Z" glyph-name="Sacute" horiz-adv-x="434.1918" unicode="&#346;" /><glyph d="M197 -10C334 -10 413 85 413 183C413 347 191 386 191 521C191 597 255 660 341 660C382 660 410 652 426 633C435 622 439 603 439 569C439 555 438 539 437 520H453C469 559 484 623 484 649C484 653 483 656 482 658C471 674 425 695 349 695C240 695 146 619 146 518C146 358 368 327 368 179C368 100 305 23 205 23C166 23 127 29 107 55C96 69 92 86 92 126C92 138 92 152 93 168H77C60 127 48 79 48 48C48 41 49 35 51 30C58 12 124 -10 197 -10ZM345 685ZM200 0ZM366 800 392 802C353 834 316 874 287 905L271 895C302 847 332 800 355 771H396L402 775C426 798 495 856 544 893L534 905C482 875 397 823 366 800ZM363 685Z" glyph-name="Scaron" horiz-adv-x="434.1918" unicode="&#352;" /><glyph d="M197 -10C334 -10 413 85 413 183C413 347 191 386 191 521C191 597 255 660 341 660C382 660 410 652 426 633C435 622 439 603 439 569C439 555 438 539 437 520H453C469 559 484 623 484 649C484 653 483 656 482 658C471 674 425 695 349 695C240 695 146 619 146 518C146 358 368 327 368 179C368 100 305 23 205 23C166 23 127 29 107 55C96 69 92 86 92 126C92 138 92 152 93 168H77C60 127 48 79 48 48C48 41 49 35 51 30C58 12 124 -10 197 -10ZM345 685ZM200 0ZM265 -117C265 -90 242 -70 205 -64L199 -84L232 0H201L167 -86L169 -91C201 -93 221 -108 221 -129C221 -157 181 -188 125 -203L127 -212C208 -203 265 -163 265 -117ZM218 0Z" glyph-name="Scedilla" horiz-adv-x="434.1918" unicode="&#350;" /><glyph d="M584 461C584 604 512 695 397 695C268 695 157 602 157 494C157 476 168 465 185 465C193 465 201 467 207 471C206 476 205 483 205 489C205 581 291 660 390 660C489 660 539 592 539 457C539 235 429 25 280 25C190 25 141 89 141 211C141 245 143 271 149 299L112 322C101 277 97 241 97 205C97 69 159 -10 267 -10C444 -10 584 199 584 461ZM523 303 528 333H124L112 322L141 297Z" glyph-name="Schwa" horiz-adv-x="568.8545" unicode="&#399;" /><glyph d="M197 -10C334 -10 413 85 413 183C413 347 191 386 191 521C191 597 255 660 341 660C382 660 410 652 426 633C435 622 439 603 439 569C439 555 438 539 437 520H453C469 559 484 623 484 649C484 653 483 656 482 658C471 674 425 695 349 695C240 695 146 619 146 518C146 358 368 327 368 179C368 100 305 23 205 23C166 23 127 29 107 55C96 69 92 86 92 126C92 138 92 152 93 168H77C60 127 48 79 48 48C48 41 49 35 51 30C58 12 124 -10 197 -10ZM345 685ZM200 0ZM416 876 389 874C433 842 474 802 505 771L521 781C488 829 451 876 427 905H390L383 901C361 878 293 820 245 783L254 771C305 801 386 853 416 876ZM363 685Z" glyph-name="Scircumflex" horiz-adv-x="434.1918" unicode="&#348;" /><glyph d="M197 -10C334 -10 413 85 413 183C413 347 191 386 191 521C191 597 255 660 341 660C382 660 410 652 426 633C435 622 439 603 439 569C439 555 438 539 437 520H453C469 559 484 623 484 649C484 653 483 656 482 658C471 674 425 695 349 695C240 695 146 619 146 518C146 358 368 327 368 179C368 100 305 23 205 23C166 23 127 29 107 55C96 69 92 86 92 126C92 138 92 152 93 168H77C60 127 48 79 48 48C48 41 49 35 51 30C58 12 124 -10 197 -10ZM345 685ZM200 0ZM227 -161C227 -137 214 -122 194 -122C167 -122 145 -144 145 -172C145 -194 159 -207 180 -207L186 -175C175 -230 155 -267 114 -314L121 -321C180 -281 227 -210 227 -161ZM218 0Z" glyph-name="Scommaaccent" horiz-adv-x="434.1918" unicode="&#536;" /><glyph d="M197 -10C334 -10 413 85 413 183C413 347 191 386 191 521C191 597 255 660 341 660C382 660 410 652 426 633C435 622 439 603 439 569C439 555 438 539 437 520H453C469 559 484 623 484 649C484 653 483 656 482 658C471 674 425 695 349 695C240 695 146 619 146 518C146 358 368 327 368 179C368 100 305 23 205 23C166 23 127 29 107 55C96 69 92 86 92 126C92 138 92 152 93 168H77C60 127 48 79 48 48C48 41 49 35 51 30C58 12 124 -10 197 -10ZM345 685ZM200 0ZM185 -212C210 -212 229 -186 229 -152C229 -134 217 -122 200 -122C175 -122 156 -148 156 -181C156 -200 168 -212 185 -212ZM218 0ZM176 -245Z" glyph-name="Sdotbelow" horiz-adv-x="434.1918" unicode="&#7778;" /><glyph d="M152 39 170 120H128L115 63C111 44 103 37 82 33L15 20L17 0H253L257 20Z" glyph-name="Serif-long.base" horiz-adv-x="282" /><glyph d="M144 0 170 120H128L116 63C112 44 105 37 82 33L15 20L17 0Z" glyph-name="Serif-side.base" horiz-adv-x="173" /><glyph d="M171 375 196 495H66L62 475L146 456L129 375Z" glyph-name="Serif-side.up" horiz-adv-x="170" /><glyph d="M145 39 163 120H128L115 63C111 44 105 37 82 33L15 20L17 0H246L250 20Z" glyph-name="Serif-thin-long.base" horiz-adv-x="275" /><glyph d="M145 39 163 120H128L115 63C111 44 105 37 82 33L15 20L17 0H226L230 20Z" glyph-name="Serif-thin.base" horiz-adv-x="255" /><glyph d="M152 39 170 120H128L115 63C111 44 103 37 82 33L15 20L17 0H233L237 20Z" glyph-name="Serif.base" horiz-adv-x="262" /><glyph d="M377 653 264 120H306L419 653ZM611 643C612 621 612 597 612 559V520H627C642 569 657 640 659 685H151C133 640 120 575 113 520H128L144 559C161 600 170 621 181 643C211 649 259 653 303 653H493C537 653 583 649 611 643ZM288 39 306 120H264L251 63C247 44 239 37 218 33L151 20L153 0H369L373 20ZM331 333ZM259 0ZM404 686Z" glyph-name="T" horiz-adv-x="542.5688" unicode="T" /><glyph d="M377 653 264 120H306L419 653ZM611 643C612 621 612 597 612 559V520H627C642 569 657 640 659 685H151C133 640 120 575 113 520H128L144 559C161 600 170 621 181 643C211 649 259 653 303 653H493C537 653 583 649 611 643ZM288 39 306 120H264L251 63C247 44 239 37 218 33L151 20L153 0H369L373 20ZM331 333ZM259 0ZM404 686ZM508 333 514 363H165L159 333ZM333 333Z" glyph-name="Tbar" horiz-adv-x="542.5688" unicode="&#358;" /><glyph d="M377 653 264 120H306L419 653ZM611 643C612 621 612 597 612 559V520H627C642 569 657 640 659 685H151C133 640 120 575 113 520H128L144 559C161 600 170 621 181 643C211 649 259 653 303 653H493C537 653 583 649 611 643ZM288 39 306 120H264L251 63C247 44 239 37 218 33L151 20L153 0H369L373 20ZM331 333ZM259 0ZM404 686ZM409 801 435 803C396 835 359 875 330 906L314 896C345 848 375 801 398 772H439L445 776C469 799 538 857 587 894L577 906C525 876 440 824 409 801ZM406 686Z" glyph-name="Tcaron" horiz-adv-x="542.5688" unicode="&#356;" /><glyph d="M377 653 264 120H306L419 653ZM611 643C612 621 612 597 612 559V520H627C642 569 657 640 659 685H151C133 640 120 575 113 520H128L144 559C161 600 170 621 181 643C211 649 259 653 303 653H493C537 653 583 649 611 643ZM288 39 306 120H264L251 63C247 44 239 37 218 33L151 20L153 0H369L373 20ZM331 333ZM259 0ZM404 686ZM308 -117C308 -90 285 -70 248 -64L242 -84L275 0H244L210 -86L212 -91C244 -93 264 -108 264 -129C264 -157 224 -188 168 -203L170 -212C251 -203 308 -163 308 -117ZM261 0Z" glyph-name="Tcedilla" horiz-adv-x="542.5688" unicode="&#354;" /><glyph d="M377 653 264 120H306L419 653ZM611 643C612 621 612 597 612 559V520H627C642 569 657 640 659 685H151C133 640 120 575 113 520H128L144 559C161 600 170 621 181 643C211 649 259 653 303 653H493C537 653 583 649 611 643ZM288 39 306 120H264L251 63C247 44 239 37 218 33L151 20L153 0H369L373 20ZM331 333ZM259 0ZM404 686ZM270 -161C270 -137 257 -122 237 -122C210 -122 188 -144 188 -172C188 -194 202 -207 223 -207L229 -175C218 -230 198 -267 157 -314L164 -321C223 -281 270 -210 270 -161ZM261 0Z" glyph-name="Tcommaaccent" horiz-adv-x="542.5688" unicode="&#538;" /><glyph d="M377 653 264 120H306L419 653ZM611 643C612 621 612 597 612 559V520H627C642 569 657 640 659 685H151C133 640 120 575 113 520H128L144 559C161 600 170 621 181 643C211 649 259 653 303 653H493C537 653 583 649 611 643ZM288 39 306 120H264L251 63C247 44 239 37 218 33L151 20L153 0H369L373 20ZM331 333ZM259 0ZM404 686ZM228 -212C253 -212 272 -186 272 -152C272 -134 260 -122 243 -122C218 -122 199 -148 199 -181C199 -200 211 -212 228 -212ZM261 0ZM219 -245Z" glyph-name="Tdotbelow" horiz-adv-x="542.5688" unicode="&#7788;" /><glyph d="M262 570 167 120H209L304 570ZM209 139H286C452 139 565 234 565 384C565 494 489 554 361 554H291L283 519H359C459 519 520 475 520 379C520 275 451 172 294 172H216ZM191 39 209 120H167L154 63C150 44 142 37 121 33L54 20L56 0H292L296 20ZM280 651 262 570H304L317 627C321 646 329 653 350 657L417 670L415 690H199L195 670Z" glyph-name="Thorn" horiz-adv-x="523.6049" unicode="&#222;" /><glyph d="M584 235 654 565H619L549 237C517 90 436 25 344 25C258 25 194 78 194 174C194 195 196 218 201 242L270 565H228L160 245C154 216 152 190 152 167C152 55 229 -10 335 -10C454 -10 548 65 584 235ZM654 565 672 646 767 665 765 685H556L552 665L637 646L619 565ZM246 646 228 565H270L283 622C287 641 295 648 316 652L383 665L381 685H165L161 665ZM406 0ZM344 0ZM466 685Z" glyph-name="U" horiz-adv-x="659.6499" unicode="U" /><glyph d="M584 235 654 565H619L549 237C517 90 436 25 344 25C258 25 194 78 194 174C194 195 196 218 201 242L270 565H228L160 245C154 216 152 190 152 167C152 55 229 -10 335 -10C454 -10 548 65 584 235ZM654 565 672 646 767 665 765 685H556L552 665L637 646L619 565ZM246 646 228 565H270L283 622C287 641 295 648 316 652L383 665L381 685H165L161 665ZM406 0ZM344 0ZM466 685ZM596 896C552 863 476 831 388 794L393 778C488 795 629 836 629 871C629 887 612 895 603 897ZM493 859ZM476 685Z" glyph-name="Uacute" horiz-adv-x="659.6499" unicode="&#218;" /><glyph d="M584 235 654 565H619L549 237C517 90 436 25 344 25C258 25 194 78 194 174C194 195 196 218 201 242L270 565H228L160 245C154 216 152 190 152 167C152 55 229 -10 335 -10C454 -10 548 65 584 235ZM654 565 672 646 767 665 765 685H556L552 665L637 646L619 565ZM246 646 228 565H270L283 622C287 641 295 648 316 652L383 665L381 685H165L161 665ZM406 0ZM344 0ZM466 685ZM616 890C586 851 543 828 498 828C449 828 418 852 414 892L398 889C395 823 428 785 486 785C549 785 600 822 633 884L620 892ZM476 685Z" glyph-name="Ubreve" horiz-adv-x="659.6499" unicode="&#364;" /><glyph d="M584 235 654 565H619L549 237C517 90 436 25 344 25C258 25 194 78 194 174C194 195 196 218 201 242L270 565H228L160 245C154 216 152 190 152 167C152 55 229 -10 335 -10C454 -10 548 65 584 235ZM654 565 672 646 767 665 765 685H556L552 665L637 646L619 565ZM246 646 228 565H270L283 622C287 641 295 648 316 652L383 665L381 685H165L161 665ZM406 0ZM344 0ZM466 685ZM479 800 505 802C466 834 429 874 400 905L384 895C415 847 445 800 468 771H509L515 775C539 798 608 856 657 893L647 905C595 875 510 823 479 800ZM476 685Z" glyph-name="Ucaron" horiz-adv-x="659.6499" unicode="&#467;" /><glyph d="M584 235 654 565H619L549 237C517 90 436 25 344 25C258 25 194 78 194 174C194 195 196 218 201 242L270 565H228L160 245C154 216 152 190 152 167C152 55 229 -10 335 -10C454 -10 548 65 584 235ZM654 565 672 646 767 665 765 685H556L552 665L637 646L619 565ZM246 646 228 565H270L283 622C287 641 295 648 316 652L383 665L381 685H165L161 665ZM406 0ZM344 0ZM466 685ZM529 876 502 874C546 842 587 802 618 771L634 781C601 829 564 876 540 905H503L496 901C474 878 406 820 358 783L367 771C418 801 499 853 529 876ZM476 685Z" glyph-name="Ucircumflex" horiz-adv-x="659.6499" unicode="&#219;" /><glyph d="M584 235 654 565H619L549 237C517 90 436 25 344 25C258 25 194 78 194 174C194 195 196 218 201 242L270 565H228L160 245C154 216 152 190 152 167C152 55 229 -10 335 -10C454 -10 548 65 584 235ZM654 565 672 646 767 665 765 685H556L552 665L637 646L619 565ZM246 646 228 565H270L283 622C287 641 295 648 316 652L383 665L381 685H165L161 665ZM406 0ZM344 0ZM466 685ZM639 847C639 865 628 877 608 877C581 877 563 848 563 823C563 803 576 792 595 792C619 792 639 818 639 847ZM449 847C449 865 438 877 418 877C391 877 373 848 373 823C373 803 386 792 405 792C429 792 449 818 449 847ZM513 869ZM476 685Z" glyph-name="Udieresis" horiz-adv-x="659.6499" unicode="&#220;" /><glyph d="M584 235 654 565H619L549 237C517 90 436 25 344 25C258 25 194 78 194 174C194 195 196 218 201 242L270 565H228L160 245C154 216 152 190 152 167C152 55 229 -10 335 -10C454 -10 548 65 584 235ZM654 565 672 646 767 665 765 685H556L552 665L637 646L619 565ZM246 646 228 565H270L283 622C287 641 295 648 316 652L383 665L381 685H165L161 665ZM406 0ZM344 0ZM466 685ZM639 847C639 865 628 877 608 877C581 877 563 848 563 823C563 803 576 792 595 792C619 792 639 818 639 847ZM449 847C449 865 438 877 418 877C391 877 373 848 373 823C373 803 386 792 405 792C429 792 449 818 449 847ZM513 869ZM476 685ZM633 1080C589 1047 513 1015 425 978L430 962C525 979 666 1020 666 1055C666 1071 649 1079 640 1081ZM530 1043ZM513 869Z" glyph-name="Udieresisacute" horiz-adv-x="659.6499" unicode="&#471;" /><glyph d="M584 235 654 565H619L549 237C517 90 436 25 344 25C258 25 194 78 194 174C194 195 196 218 201 242L270 565H228L160 245C154 216 152 190 152 167C152 55 229 -10 335 -10C454 -10 548 65 584 235ZM654 565 672 646 767 665 765 685H556L552 665L637 646L619 565ZM246 646 228 565H270L283 622C287 641 295 648 316 652L383 665L381 685H165L161 665ZM406 0ZM344 0ZM466 685ZM639 847C639 865 628 877 608 877C581 877 563 848 563 823C563 803 576 792 595 792C619 792 639 818 639 847ZM449 847C449 865 438 877 418 877C391 877 373 848 373 823C373 803 386 792 405 792C429 792 449 818 449 847ZM513 869ZM476 685ZM516 984 542 986C503 1018 466 1058 437 1089L421 1079C452 1031 482 984 505 955H546L552 959C576 982 645 1040 694 1077L684 1089C632 1059 547 1007 516 984ZM513 869Z" glyph-name="Udieresiscaron" horiz-adv-x="659.6499" unicode="&#473;" /><glyph d="M584 235 654 565H619L549 237C517 90 436 25 344 25C258 25 194 78 194 174C194 195 196 218 201 242L270 565H228L160 245C154 216 152 190 152 167C152 55 229 -10 335 -10C454 -10 548 65 584 235ZM654 565 672 646 767 665 765 685H556L552 665L637 646L619 565ZM246 646 228 565H270L283 622C287 641 295 648 316 652L383 665L381 685H165L161 665ZM406 0ZM344 0ZM466 685ZM639 847C639 865 628 877 608 877C581 877 563 848 563 823C563 803 576 792 595 792C619 792 639 818 639 847ZM449 847C449 865 438 877 418 877C391 877 373 848 373 823C373 803 386 792 405 792C429 792 449 818 449 847ZM513 869ZM476 685ZM636 979C563 1007 518 1050 489 1081L483 1082C472 1078 456 1069 456 1053C454 1012 574 970 625 963ZM513 869Z" glyph-name="Udieresisgrave" horiz-adv-x="659.6499" unicode="&#475;" /><glyph d="M584 235 654 565H619L549 237C517 90 436 25 344 25C258 25 194 78 194 174C194 195 196 218 201 242L270 565H228L160 245C154 216 152 190 152 167C152 55 229 -10 335 -10C454 -10 548 65 584 235ZM654 565 672 646 767 665 765 685H556L552 665L637 646L619 565ZM246 646 228 565H270L283 622C287 641 295 648 316 652L383 665L381 685H165L161 665ZM406 0ZM344 0ZM466 685ZM639 847C639 865 628 877 608 877C581 877 563 848 563 823C563 803 576 792 595 792C619 792 639 818 639 847ZM449 847C449 865 438 877 418 877C391 877 373 848 373 823C373 803 386 792 405 792C429 792 449 818 449 847ZM513 869ZM476 685ZM416 1003H668L676 1037H424ZM513 869Z" glyph-name="Udieresismacron" horiz-adv-x="659.6499" unicode="&#469;" /><glyph d="M584 235 654 565H619L549 237C517 90 436 25 344 25C258 25 194 78 194 174C194 195 196 218 201 242L270 565H228L160 245C154 216 152 190 152 167C152 55 229 -10 335 -10C454 -10 548 65 584 235ZM654 565 672 646 767 665 765 685H556L552 665L637 646L619 565ZM246 646 228 565H270L283 622C287 641 295 648 316 652L383 665L381 685H165L161 665ZM406 0ZM344 0ZM466 685ZM321 -212C346 -212 365 -186 365 -152C365 -134 353 -122 336 -122C311 -122 292 -148 292 -181C292 -200 304 -212 321 -212ZM354 0ZM312 -245Z" glyph-name="Udotbelow" horiz-adv-x="659.6499" unicode="&#7908;" /><glyph d="M584 235 654 565H619L549 237C517 90 436 25 344 25C258 25 194 78 194 174C194 195 196 218 201 242L270 565H228L160 245C154 216 152 190 152 167C152 55 229 -10 335 -10C454 -10 548 65 584 235ZM654 565 672 646 767 665 765 685H556L552 665L637 646L619 565ZM246 646 228 565H270L283 622C287 641 295 648 316 652L383 665L381 685H165L161 665ZM406 0ZM344 0ZM466 685ZM599 795C526 823 481 866 452 897L446 898C435 894 419 885 419 869C417 828 537 786 588 779ZM476 685Z" glyph-name="Ugrave" horiz-adv-x="659.6499" unicode="&#217;" /><glyph d="M584 235 654 565H619L549 237C517 90 436 25 344 25C258 25 194 78 194 174C194 195 196 218 201 242L270 565H228L160 245C154 216 152 190 152 167C152 55 229 -10 335 -10C454 -10 548 65 584 235ZM654 565 672 646 767 665 765 685H556L552 665L637 646L619 565ZM246 646 228 565H270L283 622C287 641 295 648 316 652L383 665L381 685H165L161 665ZM406 0ZM344 0ZM466 685ZM553 897C511 865 448 826 362 792L369 776C502 809 581 838 581 877C581 887 572 896 561 898ZM749 897C707 865 644 826 558 792L565 776C698 809 777 838 777 877C777 887 768 896 757 898ZM476 685Z" glyph-name="Uhungarumlaut" horiz-adv-x="659.6499" unicode="&#368;" /><glyph d="M584 235 654 565H619L549 237C517 90 436 25 344 25C258 25 194 78 194 174C194 195 196 218 201 242L270 565H228L160 245C154 216 152 190 152 167C152 55 229 -10 335 -10C454 -10 548 65 584 235ZM654 565 672 646 767 665 765 685H556L552 665L637 646L619 565ZM246 646 228 565H270L283 622C287 641 295 648 316 652L383 665L381 685H165L161 665ZM406 0ZM344 0ZM466 685ZM379 819H631L639 853H387ZM476 685Z" glyph-name="Umacron" horiz-adv-x="659.6499" unicode="&#362;" /><glyph d="M584 235 654 565H619L549 237C517 90 436 25 344 25C258 25 194 78 194 174C194 195 196 218 201 242L270 565H228L160 245C154 216 152 190 152 167C152 55 229 -10 335 -10C454 -10 548 65 584 235ZM654 565 672 646 767 665 765 685H556L552 665L637 646L619 565ZM246 646 228 565H270L283 622C287 641 295 648 316 652L383 665L381 685H165L161 665ZM406 0ZM344 0ZM466 685ZM416 0 395 17C296 -22 238 -91 238 -146C238 -184 256 -212 300 -212C354 -212 392 -152 412 -109L404 -104C376 -137 344 -172 312 -172C296 -172 281 -158 281 -135C281 -89 333 -31 416 0ZM416 0Z" glyph-name="Uogonek" horiz-adv-x="659.6499" unicode="&#370;" /><glyph d="M584 235 654 565H619L549 237C517 90 436 25 344 25C258 25 194 78 194 174C194 195 196 218 201 242L270 565H228L160 245C154 216 152 190 152 167C152 55 229 -10 335 -10C454 -10 548 65 584 235ZM654 565 672 646 767 665 765 685H556L552 665L637 646L619 565ZM246 646 228 565H270L283 622C287 641 295 648 316 652L383 665L381 685H165L161 665ZM406 0ZM344 0ZM466 685ZM589 853C589 887 565 909 526 909C472 909 429 871 429 824C429 788 453 766 491 766C546 766 589 805 589 853ZM463 824C463 859 488 886 519 886C540 886 554 872 554 851C554 816 529 789 498 789C477 789 463 803 463 824ZM527 898ZM476 685Z" glyph-name="Uring" horiz-adv-x="659.6499" unicode="&#366;" /><glyph d="M584 235 654 565H619L549 237C517 90 436 25 344 25C258 25 194 78 194 174C194 195 196 218 201 242L270 565H228L160 245C154 216 152 190 152 167C152 55 229 -10 335 -10C454 -10 548 65 584 235ZM654 565 672 646 767 665 765 685H556L552 665L637 646L619 565ZM246 646 228 565H270L283 622C287 641 295 648 316 652L383 665L381 685H165L161 665ZM406 0ZM344 0ZM466 685ZM393 849C443 848 528 789 601 789C648 789 684 826 715 891L707 896C665 854 641 832 628 828C573 829 493 888 420 888C373 888 338 851 306 786L314 781C357 823 381 845 393 849ZM545 905ZM476 685Z" glyph-name="Utilde" horiz-adv-x="659.6499" unicode="&#360;" /><glyph d="M328 0 667 616C679 637 690 647 713 652L768 665L766 685H566L562 665L673 639L660 674L320 53H339L265 646L354 665L350 685H145L143 665L200 652C219 648 225 639 228 616L305 0Z" glyph-name="V" horiz-adv-x="649.6499" unicode="V" /><glyph d="M673 0 1002 616C1013 637 1025 647 1048 652L1103 665L1101 685H901L897 665L1008 639L995 674L665 53H684L610 646L699 665L695 685H490L488 665L545 652C564 648 570 639 573 616L650 0ZM318 0 606 523 597 576 310 53H329L265 646L354 665L350 685H145L143 665L200 652C219 648 225 639 228 616L295 0ZM595 685Z" glyph-name="W" horiz-adv-x="984.6499" unicode="W" /><glyph d="M673 0 1002 616C1013 637 1025 647 1048 652L1103 665L1101 685H901L897 665L1008 639L995 674L665 53H684L610 646L699 665L695 685H490L488 665L545 652C564 648 570 639 573 616L650 0ZM318 0 606 523 597 576 310 53H329L265 646L354 665L350 685H145L143 665L200 652C219 648 225 639 228 616L295 0ZM595 685ZM712 896C668 863 592 831 504 794L509 778C604 795 745 836 745 871C745 887 728 895 719 897ZM609 859ZM592 685Z" glyph-name="Wacute" horiz-adv-x="984.6499" unicode="&#7810;" /><glyph d="M673 0 1002 616C1013 637 1025 647 1048 652L1103 665L1101 685H901L897 665L1008 639L995 674L665 53H684L610 646L699 665L695 685H490L488 665L545 652C564 648 570 639 573 616L650 0ZM318 0 606 523 597 576 310 53H329L265 646L354 665L350 685H145L143 665L200 652C219 648 225 639 228 616L295 0ZM595 685ZM645 876 618 874C662 842 703 802 734 771L750 781C717 829 680 876 656 905H619L612 901C590 878 522 820 474 783L483 771C534 801 615 853 645 876ZM592 685Z" glyph-name="Wcircumflex" horiz-adv-x="984.6499" unicode="&#372;" /><glyph d="M673 0 1002 616C1013 637 1025 647 1048 652L1103 665L1101 685H901L897 665L1008 639L995 674L665 53H684L610 646L699 665L695 685H490L488 665L545 652C564 648 570 639 573 616L650 0ZM318 0 606 523 597 576 310 53H329L265 646L354 665L350 685H145L143 665L200 652C219 648 225 639 228 616L295 0ZM595 685ZM755 847C755 865 744 877 724 877C697 877 679 848 679 823C679 803 692 792 711 792C735 792 755 818 755 847ZM565 847C565 865 554 877 534 877C507 877 489 848 489 823C489 803 502 792 521 792C545 792 565 818 565 847ZM629 869ZM592 685Z" glyph-name="Wdieresis" horiz-adv-x="984.6499" unicode="&#7812;" /><glyph d="M673 0 1002 616C1013 637 1025 647 1048 652L1103 665L1101 685H901L897 665L1008 639L995 674L665 53H684L610 646L699 665L695 685H490L488 665L545 652C564 648 570 639 573 616L650 0ZM318 0 606 523 597 576 310 53H329L265 646L354 665L350 685H145L143 665L200 652C219 648 225 639 228 616L295 0ZM595 685ZM715 795C642 823 597 866 568 897L562 898C551 894 535 885 535 869C533 828 653 786 704 779ZM592 685Z" glyph-name="Wgrave" horiz-adv-x="984.6499" unicode="&#7808;" /><glyph d="M607 0 609 20C592 24 574 29 557 33C539 37 535 44 524 69L271 659L265 644L365 665L361 685H161L159 665C175 661 191 656 207 652C227 647 235 640 245 616L495 33L503 41L403 20L407 0ZM221 0 225 20 143 39 383 327 365 356 124 69C104 45 91 38 69 33C51 29 32 24 14 20L16 0ZM635 616C653 637 663 646 688 652C706 656 725 661 743 665L741 685H536L532 665L615 646L382 364L400 335Z" glyph-name="X" horiz-adv-x="641" unicode="X" /><glyph d="M342 120 355 180C387 327 589 655 649 655C678 655 695 614 709 558L722 563C719 626 699 695 654 695C577 695 453 489 354 280H362C364 480 297 695 224 695C172 695 133 623 107 558L120 553C149 604 184 655 210 655C278 655 347 336 313 180L300 120ZM324 39 342 120H300L287 63C283 44 275 37 254 33L187 20L189 0H405L409 20ZM430 685Z" glyph-name="Y" horiz-adv-x="614.3307" unicode="Y" /><glyph d="M342 120 355 180C387 327 589 655 649 655C678 655 695 614 709 558L722 563C719 626 699 695 654 695C577 695 453 489 354 280H362C364 480 297 695 224 695C172 695 133 623 107 558L120 553C149 604 184 655 210 655C278 655 347 336 313 180L300 120ZM324 39 342 120H300L287 63C283 44 275 37 254 33L187 20L189 0H405L409 20ZM430 685ZM532 896C488 863 412 831 324 794L329 778C424 795 565 836 565 871C565 887 548 895 539 897ZM429 859ZM412 685Z" glyph-name="Yacute" horiz-adv-x="614.3307" unicode="&#221;" /><glyph d="M342 120 355 180C387 327 589 655 649 655C678 655 695 614 709 558L722 563C719 626 699 695 654 695C577 695 453 489 354 280H362C364 480 297 695 224 695C172 695 133 623 107 558L120 553C149 604 184 655 210 655C278 655 347 336 313 180L300 120ZM324 39 342 120H300L287 63C283 44 275 37 254 33L187 20L189 0H405L409 20ZM430 685ZM465 876 438 874C482 842 523 802 554 771L570 781C537 829 500 876 476 905H439L432 901C410 878 342 820 294 783L303 771C354 801 435 853 465 876ZM412 685Z" glyph-name="Ycircumflex" horiz-adv-x="614.3307" unicode="&#374;" /><glyph d="M342 120 355 180C387 327 589 655 649 655C678 655 695 614 709 558L722 563C719 626 699 695 654 695C577 695 453 489 354 280H362C364 480 297 695 224 695C172 695 133 623 107 558L120 553C149 604 184 655 210 655C278 655 347 336 313 180L300 120ZM324 39 342 120H300L287 63C283 44 275 37 254 33L187 20L189 0H405L409 20ZM430 685ZM575 847C575 865 564 877 544 877C517 877 499 848 499 823C499 803 512 792 531 792C555 792 575 818 575 847ZM385 847C385 865 374 877 354 877C327 877 309 848 309 823C309 803 322 792 341 792C365 792 385 818 385 847ZM449 869ZM412 685Z" glyph-name="Ydieresis" horiz-adv-x="614.3307" unicode="&#376;" /><glyph d="M342 120 355 180C387 327 589 655 649 655C678 655 695 614 709 558L722 563C719 626 699 695 654 695C577 695 453 489 354 280H362C364 480 297 695 224 695C172 695 133 623 107 558L120 553C149 604 184 655 210 655C278 655 347 336 313 180L300 120ZM324 39 342 120H300L287 63C283 44 275 37 254 33L187 20L189 0H405L409 20ZM430 685ZM535 795C462 823 417 866 388 897L382 898C371 894 355 885 355 869C353 828 473 786 524 779ZM412 685Z" glyph-name="Ygrave" horiz-adv-x="614.3307" unicode="&#7922;" /><glyph d="M342 120 355 180C387 327 589 655 649 655C678 655 695 614 709 558L722 563C719 626 699 695 654 695C577 695 453 489 354 280H362C364 480 297 695 224 695C172 695 133 623 107 558L120 553C149 604 184 655 210 655C278 655 347 336 313 180L300 120ZM324 39 342 120H300L287 63C283 44 275 37 254 33L187 20L189 0H405L409 20ZM430 685ZM315 819H567L575 853H323ZM412 685Z" glyph-name="Ymacron" horiz-adv-x="614.3307" unicode="&#562;" /><glyph d="M342 120 355 180C387 327 589 655 649 655C678 655 695 614 709 558L722 563C719 626 699 695 654 695C577 695 453 489 354 280H362C364 480 297 695 224 695C172 695 133 623 107 558L120 553C149 604 184 655 210 655C278 655 347 336 313 180L300 120ZM324 39 342 120H300L287 63C283 44 275 37 254 33L187 20L189 0H405L409 20ZM430 685ZM329 849C379 848 464 789 537 789C584 789 620 826 651 891L643 896C601 854 577 832 564 828C509 829 429 888 356 888C309 888 274 851 242 786L250 781C293 823 317 845 329 849ZM481 905ZM412 685Z" glyph-name="Ytilde" horiz-adv-x="614.3307" unicode="&#7928;" /><glyph d="M479 0C495 48 510 111 516 165H501L439 35C411 32 366 30 325 30H78L91 4L618 655L620 685H209C192 640 178 576 174 520H189L249 650C278 653 323 655 364 655H600L588 681L60 30L59 0ZM411 685ZM278 0Z" glyph-name="Z" horiz-adv-x="562.295" unicode="Z" /><glyph d="M479 0C495 48 510 111 516 165H501L439 35C411 32 366 30 325 30H78L91 4L618 655L620 685H209C192 640 178 576 174 520H189L249 650C278 653 323 655 364 655H600L588 681L60 30L59 0ZM411 685ZM278 0ZM533 896C489 863 413 831 325 794L330 778C425 795 566 836 566 871C566 887 549 895 540 897ZM430 859ZM413 685Z" glyph-name="Zacute" horiz-adv-x="562.295" unicode="&#377;" /><glyph d="M479 0C495 48 510 111 516 165H501L439 35C411 32 366 30 325 30H78L91 4L618 655L620 685H209C192 640 178 576 174 520H189L249 650C278 653 323 655 364 655H600L588 681L60 30L59 0ZM411 685ZM278 0ZM416 800 442 802C403 834 366 874 337 905L321 895C352 847 382 800 405 771H446L452 775C476 798 545 856 594 893L584 905C532 875 447 823 416 800ZM413 685Z" glyph-name="Zcaron" horiz-adv-x="562.295" unicode="&#381;" /><glyph d="M479 0C495 48 510 111 516 165H501L439 35C411 32 366 30 325 30H78L91 4L618 655L620 685H209C192 640 178 576 174 520H189L249 650C278 653 323 655 364 655H600L588 681L60 30L59 0ZM411 685ZM278 0ZM484 844C484 863 473 874 452 874C427 874 405 850 405 824C405 803 416 792 437 792C462 792 484 817 484 844ZM413 685Z" glyph-name="Zdotaccent" horiz-adv-x="562.295" unicode="&#379;" /><glyph d="M479 0C495 48 510 111 516 165H501L439 35C411 32 366 30 325 30H78L91 4L618 655L620 685H209C192 640 178 576 174 520H189L249 650C278 653 323 655 364 655H600L588 681L60 30L59 0ZM411 685ZM278 0ZM247 -212C272 -212 291 -186 291 -152C291 -134 279 -122 262 -122C237 -122 218 -148 218 -181C218 -200 230 -212 247 -212ZM280 0ZM238 -245Z" glyph-name="Zdotbelow" horiz-adv-x="562.295" unicode="&#7826;" /><glyph d="M385 342 376 381C358 309 214 30 142 30C119 30 106 60 106 101C106 302 218 475 320 475C352 475 371 470 397 457L438 485C417 496 385 505 350 505C204 505 64 314 64 100C64 28 92 -10 130 -10C237 -10 361 288 385 342ZM357 120 438 485H398L349 264L317 120ZM357 120H317C310 86 306 63 306 46C306 13 318 -10 349 -10C398 -10 445 70 471 127L463 132C430 83 390 30 365 30C351 30 347 41 347 57C347 70 351 90 357 120ZM380 0ZM236 0ZM330 495Z" glyph-name="a" horiz-adv-x="465" unicode="a" /><glyph d="M293 196 286 227C272 171 162 -45 107 -45C89 -45 78 -21 78 13C78 167 166 300 242 300C267 300 282 296 302 286L336 308C319 317 293 324 265 324C151 324 43 176 43 11C43 -47 66 -78 96 -78C180 -78 274 152 293 196ZM364 29 357 33C332 -5 301 -46 282 -46C270 -46 268 -35 268 -21C268 -11 271 4 275 25H242C236 -2 233 -20 233 -33C233 -60 244 -78 268 -78C307 -78 344 -15 364 29ZM264 135H265L242 25H275L336 307V308H303Z" glyph-name="a.inferior" horiz-adv-x="378.8359" /><glyph d="M194 210 187 176 413 180 418 210ZM368 537 88 61C77 42 66 34 49 29L2 16L4 0H175L178 16L83 42L98 12L371 479L357 498L428 34L353 16L356 0H535L537 16L489 27C473 31 468 40 465 61L392 537ZM535 0ZM268 0ZM376 536Z" glyph-name="a.sc" horiz-adv-x="558" /><glyph d="M384 625 377 656C363 600 253 384 198 384C180 384 169 408 169 442C169 596 257 729 333 729C358 729 373 725 393 715L427 737C410 746 384 753 356 753C242 753 134 605 134 440C134 382 157 351 187 351C271 351 365 581 384 625ZM455 458 448 462C423 424 392 383 373 383C361 383 359 394 359 408C359 418 362 433 366 454H333C327 427 324 409 324 396C324 369 335 351 359 351C398 351 435 414 455 458ZM355 564H356L333 454H366L427 736V737H394Z" glyph-name="a.superior" horiz-adv-x="378.6491" /><glyph d="M385 342 376 381C358 309 214 30 142 30C119 30 106 60 106 101C106 302 218 475 320 475C352 475 371 470 397 457L438 485C417 496 385 505 350 505C204 505 64 314 64 100C64 28 92 -10 130 -10C237 -10 361 288 385 342ZM357 120 438 485H398L349 264L317 120ZM357 120H317C310 86 306 63 306 46C306 13 318 -10 349 -10C398 -10 445 70 471 127L463 132C430 83 390 30 365 30C351 30 347 41 347 57C347 70 351 90 357 120ZM380 0ZM236 0ZM330 495ZM436 754C405 714 332 650 261 596L270 581C353 626 473 696 473 736C473 748 462 756 446 756C445 756 443 756 442 756ZM384 745ZM330 495Z" glyph-name="aacute" horiz-adv-x="465" unicode="&#225;" /><glyph d="M194 210 187 176 413 180 418 210ZM368 537 88 61C77 42 66 34 49 29L2 16L4 0H175L178 16L83 42L98 12L371 479L357 498L428 34L353 16L356 0H535L537 16L489 27C473 31 468 40 465 61L392 537ZM535 0ZM268 0ZM376 536ZM480 795C449 755 376 691 305 637L314 622C397 667 517 737 517 777C517 789 506 797 490 797C489 797 487 797 486 797ZM428 786ZM374 536Z" glyph-name="aacute.sc" horiz-adv-x="558" /><glyph d="M385 342 376 381C358 309 214 30 142 30C119 30 106 60 106 101C106 302 218 475 320 475C352 475 371 470 397 457L438 485C417 496 385 505 350 505C204 505 64 314 64 100C64 28 92 -10 130 -10C237 -10 361 288 385 342ZM357 120 438 485H398L349 264L317 120ZM357 120H317C310 86 306 63 306 46C306 13 318 -10 349 -10C398 -10 445 70 471 127L463 132C430 83 390 30 365 30C351 30 347 41 347 57C347 70 351 90 357 120ZM380 0ZM236 0ZM330 495ZM468 728C438 678 395 648 350 648C301 648 270 679 266 730L249 727C246 650 279 605 338 605C401 605 453 650 486 727L472 730ZM369 745ZM330 495Z" glyph-name="abreve" horiz-adv-x="465" unicode="&#259;" /><glyph d="M194 210 187 176 413 180 418 210ZM368 537 88 61C77 42 66 34 49 29L2 16L4 0H175L178 16L83 42L98 12L371 479L357 498L428 34L353 16L356 0H535L537 16L489 27C473 31 468 40 465 61L392 537ZM535 0ZM268 0ZM376 536ZM512 769C482 719 439 689 394 689C345 689 314 720 310 771L293 768C290 691 323 646 382 646C445 646 497 691 530 768L516 771ZM413 786ZM374 536Z" glyph-name="abreve.sc" horiz-adv-x="558" /><glyph d="M385 342 376 381C358 309 214 30 142 30C119 30 106 60 106 101C106 302 218 475 320 475C352 475 371 470 397 457L438 485C417 496 385 505 350 505C204 505 64 314 64 100C64 28 92 -10 130 -10C237 -10 361 288 385 342ZM357 120 438 485H398L349 264L317 120ZM357 120H317C310 86 306 63 306 46C306 13 318 -10 349 -10C398 -10 445 70 471 127L463 132C430 83 390 30 365 30C351 30 347 41 347 57C347 70 351 90 357 120ZM380 0ZM236 0ZM330 495ZM340 615 366 617C330 658 296 710 269 750L253 740C280 680 308 622 328 586H369L375 590C397 619 463 692 510 738L500 750C450 712 369 644 340 615ZM384 745ZM330 495Z" glyph-name="acaron" horiz-adv-x="465" unicode="&#462;" /><glyph d="M194 210 187 176 413 180 418 210ZM368 537 88 61C77 42 66 34 49 29L2 16L4 0H175L178 16L83 42L98 12L371 479L357 498L428 34L353 16L356 0H535L537 16L489 27C473 31 468 40 465 61L392 537ZM535 0ZM268 0ZM376 536ZM384 656 410 658C374 699 340 751 313 791L297 781C324 721 352 663 372 627H413L419 631C441 660 507 733 554 779L544 791C494 753 413 685 384 656ZM428 786ZM374 536Z" glyph-name="acaron.sc" horiz-adv-x="558" /><glyph d="M385 342 376 381C358 309 214 30 142 30C119 30 106 60 106 101C106 302 218 475 320 475C352 475 371 470 397 457L438 485C417 496 385 505 350 505C204 505 64 314 64 100C64 28 92 -10 130 -10C237 -10 361 288 385 342ZM357 120 438 485H398L349 264L317 120ZM357 120H317C310 86 306 63 306 46C306 13 318 -10 349 -10C398 -10 445 70 471 127L463 132C430 83 390 30 365 30C351 30 347 41 347 57C347 70 351 90 357 120ZM380 0ZM236 0ZM330 495ZM384 721 357 719C397 678 435 626 463 586L479 596C450 656 418 714 397 750H356L349 746C329 717 267 644 223 598L232 586C280 624 356 692 384 721ZM372 745ZM330 495Z" glyph-name="acircumflex" horiz-adv-x="465" unicode="&#226;" /><glyph d="M194 210 187 176 413 180 418 210ZM368 537 88 61C77 42 66 34 49 29L2 16L4 0H175L178 16L83 42L98 12L371 479L357 498L428 34L353 16L356 0H535L537 16L489 27C473 31 468 40 465 61L392 537ZM535 0ZM268 0ZM376 536ZM428 762 401 760C441 719 479 667 507 627L523 637C494 697 462 755 441 791H400L393 787C373 758 311 685 267 639L276 627C324 665 400 733 428 762ZM416 786ZM374 536Z" glyph-name="acircumflex.sc" horiz-adv-x="558" /><glyph d="M348 754C317 714 244 650 173 596L182 581C265 626 385 696 385 736C385 748 374 756 358 756C357 756 355 756 354 756Z" glyph-name="acute" horiz-adv-x="403" unicode="&#180;" /><glyph d="M424 896C380 863 304 831 216 794L221 778C316 795 457 836 457 871C457 887 440 895 431 897Z" glyph-name="acute.case" horiz-adv-x="425" /><glyph d="M349 754C318 714 245 650 174 596L183 581C266 626 386 696 386 736C386 748 375 756 359 756C358 756 356 756 355 756ZM297 745ZM243 495Z" glyph-name="acutecomb" horiz-adv-x="403" unicode="&#769;" /><glyph d="M424 896C380 863 304 831 216 794L221 778C316 795 457 836 457 871C457 887 440 895 431 897ZM321 859ZM304 685Z" glyph-name="acutecomb.case" horiz-adv-x="425" /><glyph d="M385 342 376 381C358 309 214 30 142 30C119 30 106 60 106 101C106 302 218 475 320 475C352 475 371 470 397 457L438 485C417 496 385 505 350 505C204 505 64 314 64 100C64 28 92 -10 130 -10C237 -10 361 288 385 342ZM357 120 438 485H398L349 264L317 120ZM357 120H317C310 86 306 63 306 46C306 13 318 -10 349 -10C398 -10 445 70 471 127L463 132C430 83 390 30 365 30C351 30 347 41 347 57C347 70 351 90 357 120ZM380 0ZM236 0ZM330 495ZM496 678C496 697 486 710 468 710C443 710 426 680 426 654C426 633 438 621 455 621C477 621 496 648 496 678ZM306 678C306 697 296 710 278 710C253 710 236 680 236 654C236 633 248 621 265 621C287 621 306 648 306 678ZM383 745ZM330 495Z" glyph-name="adieresis" horiz-adv-x="465" unicode="&#228;" /><glyph d="M194 210 187 176 413 180 418 210ZM368 537 88 61C77 42 66 34 49 29L2 16L4 0H175L178 16L83 42L98 12L371 479L357 498L428 34L353 16L356 0H535L537 16L489 27C473 31 468 40 465 61L392 537ZM535 0ZM268 0ZM376 536ZM540 719C540 738 530 751 512 751C487 751 470 721 470 695C470 674 482 662 499 662C521 662 540 689 540 719ZM350 719C350 738 340 751 322 751C297 751 280 721 280 695C280 674 292 662 309 662C331 662 350 689 350 719ZM427 786ZM374 536Z" glyph-name="adieresis.sc" horiz-adv-x="558" /><glyph d="M385 342 376 381C358 309 214 30 142 30C119 30 106 60 106 101C106 302 218 475 320 475C352 475 371 470 397 457L438 485C417 496 385 505 350 505C204 505 64 314 64 100C64 28 92 -10 130 -10C237 -10 361 288 385 342ZM357 120 438 485H398L349 264L317 120ZM357 120H317C310 86 306 63 306 46C306 13 318 -10 349 -10C398 -10 445 70 471 127L463 132C430 83 390 30 365 30C351 30 347 41 347 57C347 70 351 90 357 120ZM380 0ZM236 0ZM330 495ZM226 -212C251 -212 270 -186 270 -152C270 -134 258 -122 241 -122C216 -122 197 -148 197 -181C197 -200 209 -212 226 -212ZM259 0ZM217 -245Z" glyph-name="adotbelow" horiz-adv-x="465.0053" unicode="&#7841;" /><glyph d="M194 210 187 176 413 180 418 210ZM368 537 88 61C77 42 66 34 49 29L2 16L4 0H175L178 16L83 42L98 12L371 479L357 498L428 34L353 16L356 0H535L537 16L489 27C473 31 468 40 465 61L392 537ZM535 0ZM268 0ZM376 536ZM233 -212C258 -212 277 -186 277 -152C277 -134 265 -122 248 -122C223 -122 204 -148 204 -181C204 -200 216 -212 233 -212ZM266 0ZM224 -245Z" glyph-name="adotbelow.sc" horiz-adv-x="558" /><glyph d="M385 342 376 381C358 309 214 30 142 30C119 30 106 60 106 101C106 302 218 475 320 475C352 475 371 470 397 457L438 485C417 496 385 505 350 505C204 505 64 314 64 100C64 28 92 -10 130 -10C237 -10 361 288 385 342ZM366 264 438 485H398L326 264ZM579 127 571 132C517 67 469 25 426 25C377 25 353 74 353 148C353 304 444 473 535 473C562 473 577 453 577 426C577 344 487 271 366 259L361 234C474 242 619 315 619 428C619 474 595 505 546 505C431 505 311 322 311 150C311 50 343 -10 413 -10C478 -10 536 51 579 127ZM458 0ZM419 0ZM526 495ZM438 495Z" glyph-name="ae" horiz-adv-x="586.0053" unicode="&#230;" /><glyph d="M175 0 178 16 83 42 101 17 396 520 365 505H496L480 520L388 88H430L525 535H282L278 519L356 501L353 510L88 61C77 43 68 35 48 29L2 16L4 -1ZM432 253 438 281 241 282 235 251ZM670 0C684 42 696 106 700 150C700 150 700 150 700 150H686C669 110 652 72 633 34C610 31 577 30 538 30H405L401 0ZM646 287 470 281 464 253 639 248ZM730 384C743 432 755 490 756 535H525L517 505H612C658 505 687 503 707 501C710 473 712 442 716 384ZM411 0 430 88H388L382 60C378 42 371 33 353 29L296 16L298 0ZM524 535Z" glyph-name="ae.sc" horiz-adv-x="740" /><glyph d="M385 342 376 381C358 309 214 30 142 30C119 30 106 60 106 101C106 302 218 475 320 475C352 475 371 470 397 457L438 485C417 496 385 505 350 505C204 505 64 314 64 100C64 28 92 -10 130 -10C237 -10 361 288 385 342ZM366 264 438 485H398L326 264ZM579 127 571 132C517 67 469 25 426 25C377 25 353 74 353 148C353 304 444 473 535 473C562 473 577 453 577 426C577 344 487 271 366 259L361 234C474 242 619 315 619 428C619 474 595 505 546 505C431 505 311 322 311 150C311 50 343 -10 413 -10C478 -10 536 51 579 127ZM458 0ZM419 0ZM526 495ZM438 495ZM558 754C527 714 454 650 383 596L392 581C475 626 595 696 595 736C595 748 584 756 568 756C567 756 565 756 564 756ZM506 745ZM452 495Z" glyph-name="aeacute" horiz-adv-x="586.0053" unicode="&#509;" /><glyph d="M175 0 178 16 83 42 101 17 396 520 365 505H496L480 520L388 88H430L525 535H282L278 519L356 501L353 510L88 61C77 43 68 35 48 29L2 16L4 -1ZM432 253 438 281 241 282 235 251ZM670 0C684 42 696 106 700 150C700 150 700 150 700 150H686C669 110 652 72 633 34C610 31 577 30 538 30H405L401 0ZM646 287 470 281 464 253 639 248ZM730 384C743 432 755 490 756 535H525L517 505H612C658 505 687 503 707 501C710 473 712 442 716 384ZM411 0 430 88H388L382 60C378 42 371 33 353 29L296 16L298 0ZM524 535ZM632 794C601 754 528 690 457 636L466 621C549 666 669 736 669 776C669 788 658 796 642 796C641 796 639 796 638 796ZM580 785ZM526 535Z" glyph-name="aeacute.sc" horiz-adv-x="740" /><glyph d="M385 342 376 381C358 309 214 30 142 30C119 30 106 60 106 101C106 302 218 475 320 475C352 475 371 470 397 457L438 485C417 496 385 505 350 505C204 505 64 314 64 100C64 28 92 -10 130 -10C237 -10 361 288 385 342ZM357 120 438 485H398L349 264L317 120ZM357 120H317C310 86 306 63 306 46C306 13 318 -10 349 -10C398 -10 445 70 471 127L463 132C430 83 390 30 365 30C351 30 347 41 347 57C347 70 351 90 357 120ZM380 0ZM236 0ZM330 495ZM431 592C385 649 342 712 327 753L322 755C321 755 319 755 318 755C296 755 284 745 281 732C274 698 357 631 418 581ZM380 745ZM330 495Z" glyph-name="agrave" horiz-adv-x="465" unicode="&#224;" /><glyph d="M194 210 187 176 413 180 418 210ZM368 537 88 61C77 42 66 34 49 29L2 16L4 0H175L178 16L83 42L98 12L371 479L357 498L428 34L353 16L356 0H535L537 16L489 27C473 31 468 40 465 61L392 537ZM535 0ZM268 0ZM376 536ZM475 633C429 690 386 753 371 794L366 796C365 796 363 796 362 796C340 796 328 786 325 773C318 739 401 672 462 622ZM424 786ZM374 536Z" glyph-name="agrave.sc" horiz-adv-x="558" /><glyph d="M385 342 376 381C358 309 214 30 142 30C119 30 106 60 106 101C106 302 218 475 320 475C352 475 371 470 397 457L438 485C417 496 385 505 350 505C204 505 64 314 64 100C64 28 92 -10 130 -10C237 -10 361 288 385 342ZM357 120 438 485H398L349 264L317 120ZM357 120H317C310 86 306 63 306 46C306 13 318 -10 349 -10C398 -10 445 70 471 127L463 132C430 83 390 30 365 30C351 30 347 41 347 57C347 70 351 90 357 120ZM380 0ZM236 0ZM330 495ZM218 653H452L460 687H226ZM330 745ZM330 495Z" glyph-name="amacron" horiz-adv-x="465" unicode="&#257;" /><glyph d="M194 210 187 176 413 180 418 210ZM368 537 88 61C77 42 66 34 49 29L2 16L4 0H175L178 16L83 42L98 12L371 479L357 498L428 34L353 16L356 0H535L537 16L489 27C473 31 468 40 465 61L392 537ZM535 0ZM268 0ZM376 536ZM262 694H496L504 728H270ZM374 786ZM374 536Z" glyph-name="amacron.sc" horiz-adv-x="558" /><glyph d="M698 79C698 119 685 154 664 164C519 233 301 313 301 499C301 599 359 660 441 660C495 660 524 630 524 579C524 549 510 517 479 487L489 470C605 459 673 457 737 457C765 457 785 467 785 490C785 500 782 509 776 515H773C753 498 691 494 624 494C580 494 535 497 497 499L501 487C538 496 569 539 569 586C569 648 529 695 449 695C341 695 256 607 256 495C256 337 405 217 661 134L652 137C656 126 657 114 657 103C657 70 645 35 626 7L627 2C633 -5 644 -10 653 -10C682 -10 698 34 698 79ZM659 476 614 477C614 282 505 25 295 25C203 25 155 83 155 163C155 266 243 351 318 372L301 397C214 374 110 278 110 157C110 55 179 -10 287 -10C532 -10 659 285 659 476Z" glyph-name="ampersand" horiz-adv-x="741.2947" unicode="&amp;" /><glyph d="M698 79C698 119 685 154 664 164C519 233 301 313 301 499C301 599 359 660 441 660C495 660 524 630 524 579C524 549 510 517 479 487L489 470C605 459 673 457 737 457C765 457 785 467 785 490C785 500 782 509 776 515H773C753 498 691 494 624 494C580 494 535 497 497 499L501 487C538 496 569 539 569 586C569 648 529 695 449 695C341 695 256 607 256 495C256 337 405 217 661 134L652 137C656 126 657 114 657 103C657 70 645 35 626 7L627 2C633 -5 644 -10 653 -10C682 -10 698 34 698 79ZM659 476 614 477C614 282 505 25 295 25C203 25 155 83 155 163C155 266 243 351 318 372L301 397C214 374 110 278 110 157C110 55 179 -10 287 -10C532 -10 659 285 659 476Z" glyph-name="ampersand.caps" horiz-adv-x="741.2947" /><glyph d="M595 62C594 96 582 124 562 133C436 190 256 251 252 392C250 465 299 511 366 511C412 511 435 489 437 452C438 428 425 401 400 379L408 364C507 353 566 351 622 351C647 351 663 360 663 379C663 388 660 397 655 402H652C634 389 582 386 525 386C488 386 450 388 417 390L420 381C453 388 479 422 479 460C479 509 442 545 373 545C279 545 207 475 208 385C209 260 340 168 560 104L552 112C556 103 557 93 557 84C557 58 546 29 530 6L532 0C537 -6 548 -10 556 -10C581 -10 596 24 595 62ZM554 368 515 369C516 216 427 24 252 24C175 24 133 68 132 131C131 207 202 270 264 287L249 307C173 289 87 215 88 123C89 41 150 -10 243 -10C451 -10 555 215 554 368Z" glyph-name="ampersand.sc" horiz-adv-x="627.4815" /><glyph d="M831 517C813 500 761 495 704 495C664 495 621 497 584 500L581 481C608 460 625 418 625 351C625 178 494 25 338 25C225 25 165 87 165 206C165 334 247 473 311 473C332 473 343 454 343 429C343 303 268 210 163 182V160C318 187 471 384 471 603C471 661 456 695 432 695C425 695 419 693 415 690L412 684C423 657 430 624 430 591C430 466 394 374 298 250L302 247C342 292 381 378 381 436C381 477 362 505 322 505C225 505 123 350 123 205C123 72 201 -10 327 -10C507 -10 658 158 658 348C658 430 620 508 556 508C542 508 533 500 533 486C533 472 541 463 564 463C583 463 601 466 608 478C692 458 739 455 784 455C818 455 842 466 842 491C842 501 838 509 834 516Z" glyph-name="ampersand.ss01" horiz-adv-x="794.4344" /><glyph d="M385 342 376 381C358 309 214 30 142 30C119 30 106 60 106 101C106 302 218 475 320 475C352 475 371 470 397 457L438 485C417 496 385 505 350 505C204 505 64 314 64 100C64 28 92 -10 130 -10C237 -10 361 288 385 342ZM357 120 438 485H398L349 264L317 120ZM357 120H317C310 86 306 63 306 46C306 13 318 -10 349 -10C398 -10 445 70 471 127L463 132C430 83 390 30 365 30C351 30 347 41 347 57C347 70 351 90 357 120ZM380 0ZM236 0ZM330 495ZM380 0 359 17C260 -22 202 -91 202 -146C202 -184 220 -212 264 -212C318 -212 356 -152 376 -109L368 -104C340 -137 308 -172 276 -172C260 -172 245 -158 245 -135C245 -89 297 -31 380 0ZM380 0Z" glyph-name="aogonek" horiz-adv-x="465" unicode="&#261;" /><glyph d="M194 210 187 176 413 180 418 210ZM368 537 88 61C77 42 66 34 49 29L2 16L4 0H175L178 16L83 42L98 12L371 479L357 498L428 34L353 16L356 0H535L537 16L489 27C473 31 468 40 465 61L392 537ZM535 0ZM268 0ZM376 536ZM533 0 512 17C413 -22 355 -91 355 -146C355 -184 373 -212 417 -212C471 -212 509 -152 529 -109L521 -104C493 -137 461 -172 429 -172C413 -172 398 -158 398 -135C398 -89 450 -31 533 0ZM533 0Z" glyph-name="aogonek.sc" horiz-adv-x="558" /><glyph d="M229 382C261 382 421 327 455 327C492 327 534 378 563 415L541 430C507 397 477 368 465 368C426 368 274 423 239 423C203 423 161 372 131 335L153 320C186 352 217 382 229 382ZM188 188C220 188 380 133 414 133C451 133 493 184 522 221L500 236C466 203 436 174 424 174C385 174 233 229 198 229C162 229 120 178 90 141L112 126C145 158 176 188 188 188Z" glyph-name="approxequal" horiz-adv-x="560" unicode="&#8776;" /><glyph d="M247 465C279 465 439 410 473 410C510 410 552 461 581 498L559 513C525 480 495 451 483 451C444 451 292 506 257 506C221 506 179 455 149 418L171 403C204 435 235 465 247 465ZM206 271C238 271 398 216 432 216C469 216 511 267 540 304L518 319C484 286 454 257 442 257C403 257 251 312 216 312C180 312 138 261 108 224L130 209C163 241 194 271 206 271Z" glyph-name="approxequal.lf" horiz-adv-x="560" /><glyph d="M229 382C261 382 421 327 455 327C492 327 534 378 563 415L541 430C507 397 477 368 465 368C426 368 274 423 239 423C203 423 161 372 131 335L153 320C186 352 217 382 229 382ZM188 188C220 188 380 133 414 133C451 133 493 184 522 221L500 236C466 203 436 174 424 174C385 174 233 229 198 229C162 229 120 178 90 141L112 126C145 158 176 188 188 188Z" glyph-name="approxequal.osf" horiz-adv-x="560" /><glyph d="M229 382C261 382 421 327 455 327C492 327 534 378 563 415L541 430C507 397 477 368 465 368C426 368 274 423 239 423C203 423 161 372 131 335L153 320C186 352 217 382 229 382ZM188 188C220 188 380 133 414 133C451 133 493 184 522 221L500 236C466 203 436 174 424 174C385 174 233 229 198 229C162 229 120 178 90 141L112 126C145 158 176 188 188 188Z" glyph-name="approxequal.sc" horiz-adv-x="560" /><glyph d="M385 342 376 381C358 309 214 30 142 30C119 30 106 60 106 101C106 302 218 475 320 475C352 475 371 470 397 457L438 485C417 496 385 505 350 505C204 505 64 314 64 100C64 28 92 -10 130 -10C237 -10 361 288 385 342ZM357 120 438 485H398L349 264L317 120ZM357 120H317C310 86 306 63 306 46C306 13 318 -10 349 -10C398 -10 445 70 471 127L463 132C430 83 390 30 365 30C351 30 347 41 347 57C347 70 351 90 357 120ZM380 0ZM236 0ZM330 495ZM446 683C446 717 422 739 383 739C329 739 286 701 286 654C286 618 310 596 348 596C403 596 446 635 446 683ZM320 654C320 689 345 716 376 716C397 716 411 702 411 681C411 646 386 619 355 619C334 619 320 633 320 654ZM383 745ZM330 495Z" glyph-name="aring" horiz-adv-x="465" unicode="&#229;" /><glyph d="M194 210 187 176 413 180 418 210ZM368 537 88 61C77 42 66 34 49 29L2 16L4 0H175L178 16L83 42L98 12L371 479L357 498L428 34L353 16L356 0H535L537 16L489 27C473 31 468 40 465 61L392 537ZM535 0ZM268 0ZM376 536ZM490 724C490 758 466 780 427 780C373 780 330 742 330 695C330 659 354 637 392 637C447 637 490 676 490 724ZM364 695C364 730 389 757 420 757C441 757 455 743 455 722C455 687 430 660 399 660C378 660 364 674 364 695ZM427 786ZM374 536Z" glyph-name="aring.sc" horiz-adv-x="558" /><glyph d="M385 342 376 381C358 309 214 30 142 30C119 30 106 60 106 101C106 302 218 475 320 475C352 475 371 470 397 457L438 485C417 496 385 505 350 505C204 505 64 314 64 100C64 28 92 -10 130 -10C237 -10 361 288 385 342ZM357 120 438 485H398L349 264L317 120ZM357 120H317C310 86 306 63 306 46C306 13 318 -10 349 -10C398 -10 445 70 471 127L463 132C430 83 390 30 365 30C351 30 347 41 347 57C347 70 351 90 357 120ZM380 0ZM236 0ZM330 495ZM446 683C446 717 422 739 383 739C329 739 286 701 286 654C286 618 310 596 348 596C403 596 446 635 446 683ZM320 654C320 689 345 716 376 716C397 716 411 702 411 681C411 646 386 619 355 619C334 619 320 633 320 654ZM383 745ZM330 495ZM489 1004C458 964 385 900 314 846L323 831C406 876 526 946 526 986C526 998 515 1006 499 1006C498 1006 496 1006 495 1006ZM437 995ZM383 745Z" glyph-name="aringacute" horiz-adv-x="465" unicode="&#507;" /><glyph d="M194 210 187 176 413 180 418 210ZM368 537 88 61C77 42 66 34 49 29L2 16L4 0H175L178 16L83 42L98 12L371 479L357 498L428 34L353 16L356 0H535L537 16L489 27C473 31 468 40 465 61L392 537ZM535 0ZM268 0ZM376 536ZM490 724C490 758 466 780 427 780C373 780 330 742 330 695C330 659 354 637 392 637C447 637 490 676 490 724ZM364 695C364 730 389 757 420 757C441 757 455 743 455 722C455 687 430 660 399 660C378 660 364 674 364 695ZM427 786ZM374 536ZM533 1045C502 1005 429 941 358 887L367 872C450 917 570 987 570 1027C570 1039 559 1047 543 1047C542 1047 540 1047 539 1047ZM481 1036ZM427 786Z" glyph-name="aringacute.sc" horiz-adv-x="558" /><glyph d="M100 210 291 512H288L356 210H399L324 545H268L54 210Z" glyph-name="asciicircum" horiz-adv-x="526" unicode="^" /><glyph d="M140 292C172 292 332 237 366 237C403 237 445 288 474 325L452 340C418 307 388 278 376 278C337 278 185 333 150 333C114 333 72 282 42 245L64 230C97 262 128 292 140 292Z" glyph-name="asciitilde" horiz-adv-x="520" unicode="~" /><glyph d="M346 615C391 637 435 648 462 660C473 665 476 672 476 682C476 691 472 698 462 698C441 698 384 646 342 625C297 603 255 596 228 581C217 575 212 568 212 560C212 549 218 542 227 542C246 542 302 591 346 615ZM340 507C346 534 349 570 349 615C349 617 350 618 350 620H338C328 574 299 521 299 500C299 490 306 485 317 485C328 485 337 493 340 507ZM452 566C452 592 397 594 348 625C313 647 284 698 260 698C248 698 236 687 236 674C236 648 291 646 340 615C376 586 410 542 428 542C439 542 452 554 452 566ZM350 620C360 666 389 719 389 740C389 750 382 755 371 755C360 755 351 747 348 733C342 706 339 670 339 625C339 623 338 621 338 620Z" glyph-name="asterisk" horiz-adv-x="448.081" unicode="*" /><glyph d="M346 615C391 637 435 648 462 660C473 665 476 672 476 682C476 691 472 698 462 698C441 698 384 646 342 625C297 603 255 596 228 581C217 575 212 568 212 560C212 549 218 542 227 542C246 542 302 591 346 615ZM340 507C346 534 349 570 349 615C349 617 350 618 350 620H338C328 574 299 521 299 500C299 490 306 485 317 485C328 485 337 493 340 507ZM452 566C452 592 397 594 348 625C313 647 284 698 260 698C248 698 236 687 236 674C236 648 291 646 340 615C376 586 410 542 428 542C439 542 452 554 452 566ZM350 620C360 666 389 719 389 740C389 750 382 755 371 755C360 755 351 747 348 733C342 706 339 670 339 625C339 623 338 621 338 620Z" glyph-name="asterisk.caps" horiz-adv-x="448.081" /><glyph d="M432 455C477 477 521 488 548 500C559 505 562 512 562 522C562 531 558 538 548 538C527 538 470 486 428 465C383 443 341 436 314 421C303 415 298 408 298 400C298 389 304 382 313 382C332 382 388 431 432 455ZM426 347C432 374 435 410 435 455C435 457 436 458 436 460H424C414 414 385 361 385 340C385 330 392 325 403 325C414 325 423 333 426 347ZM538 406C538 432 483 434 434 465C399 487 370 538 346 538C334 538 322 527 322 514C322 488 377 486 426 455C462 426 496 382 514 382C525 382 538 394 538 406ZM436 460C446 506 475 559 475 580C475 590 468 595 457 595C446 595 437 587 434 573C428 546 425 510 425 465C425 463 424 461 424 460Z" glyph-name="asterisk.sc" horiz-adv-x="420.09" /><glyph d="M820 -160 805 -135C735 -175 655 -215 519 -215C303 -215 147 -45 147 179C147 501 424 715 663 715C872 715 1020 564 1020 355C1020 163 903 30 796 30C718 30 693 120 725 260L764 430L777 485C756 495 722 505 684 505C523 505 385 316 385 116C385 34 417 -10 461 -10C545 -10 633 145 681 256C677 227 672 199 668 170C653 70 693 -10 790 -10C940 -10 1065 157 1065 352C1065 582 905 755 668 755C397 755 102 522 102 171C102 -68 274 -255 527 -255C651 -255 750 -216 820 -160ZM430 117C430 303 556 470 670 470C695 470 711 465 726 459L715 415C689 312 545 30 475 30C446 30 430 68 430 117Z" glyph-name="at" horiz-adv-x="1076.3183" unicode="@" /><glyph d="M385 342 376 381C358 309 214 30 142 30C119 30 106 60 106 101C106 302 218 475 320 475C352 475 371 470 397 457L438 485C417 496 385 505 350 505C204 505 64 314 64 100C64 28 92 -10 130 -10C237 -10 361 288 385 342ZM357 120 438 485H398L349 264L317 120ZM357 120H317C310 86 306 63 306 46C306 13 318 -10 349 -10C398 -10 445 70 471 127L463 132C430 83 390 30 365 30C351 30 347 41 347 57C347 70 351 90 357 120ZM380 0ZM236 0ZM330 495ZM273 689C308 688 370 629 422 629C465 629 496 665 525 729L517 734C480 691 459 668 448 664C408 665 351 724 299 724C256 724 225 688 196 624L204 619C241 662 262 685 273 689ZM399 745ZM330 495Z" glyph-name="atilde" horiz-adv-x="465" unicode="&#227;" /><glyph d="M194 210 187 176 413 180 418 210ZM368 537 88 61C77 42 66 34 49 29L2 16L4 0H175L178 16L83 42L98 12L371 479L357 498L428 34L353 16L356 0H535L537 16L489 27C473 31 468 40 465 61L392 537ZM535 0ZM268 0ZM376 536ZM317 730C352 729 414 670 466 670C509 670 540 706 569 770L561 775C524 732 503 709 492 705C452 706 395 765 343 765C300 765 269 729 240 665L248 660C285 703 306 726 317 730ZM443 786ZM374 536Z" glyph-name="atilde.sc" horiz-adv-x="558" /><glyph d="M368 505C276 503 206 326 170 255L150 158C185 241 287 465 355 465C381 465 396 438 396 383C396 203 312 22 203 22C168 22 145 28 123 38L78 11C122 -3 153 -10 188 -10C319 -10 438 177 438 385C438 461 413 506 368 505ZM215 634 78 11H118L172 255C200 381 227 508 255 634ZM255 634 279 746 271 754C232 747 193 738 156 727V717L260 702L237 735L215 634Z" glyph-name="b" horiz-adv-x="424.4873" unicode="b" /><glyph d="M277 324C206 324 151 186 123 130L108 54C135 118 213 292 265 292C285 292 297 270 297 225C297 87 233 -53 150 -53C122 -53 104 -48 87 -40L50 -61C85 -72 110 -78 138 -78C241 -78 332 65 332 225C332 287 313 324 277 324ZM154 425 51 -60 50 -61H84L125 130H124C145 228 166 327 187 425ZM187 425 205 513 199 519C168 514 137 506 107 498V490L188 478L170 504L154 425Z" glyph-name="b.inferior" horiz-adv-x="349.6715" /><glyph d="M274 0C421 0 493 72 493 159C493 233 435 275 350 281L360 270C426 281 509 338 509 425C509 494 452 535 359 535H289L284 505H346C428 505 467 473 467 422C467 350 397 287 322 287H235L231 257H301C392 257 448 225 448 164C448 83 382 30 282 30H179L174 0ZM202 88 279 448H237L160 88ZM183 0 202 88H160L154 60C150 42 143 33 125 29L68 16L70 0ZM298 535H182L178 519L258 501L253 522L237 448H279Z" glyph-name="b.sc" horiz-adv-x="518.587" /><glyph d="M368 753C297 753 242 615 214 559L199 483C226 547 304 721 356 721C376 721 388 699 388 654C388 516 324 376 241 376C213 376 195 381 178 389L141 368C176 357 201 351 229 351C332 351 423 494 423 654C423 716 404 753 368 753ZM245 854 142 369 141 368H175L216 559H215C236 657 257 756 278 854ZM278 854 296 942 290 948C259 943 228 935 198 927V919L279 907L261 933L245 854Z" glyph-name="b.superior" horiz-adv-x="349.4847" /><glyph d="M338 -10 370 -7 378 1 269 755 239 752 230 744Z" glyph-name="backslash" horiz-adv-x="473.7874" unicode="\" /><glyph d="M332 -40 364 -37 372 -29 263 725 233 722 224 714Z" glyph-name="backslash.caps" horiz-adv-x="474.1641" /><glyph d="M250 -40 282 -37 290 -29 208 535 178 532 169 524Z" glyph-name="backslash.sc" horiz-adv-x="378.1641" /><glyph d="M85 -252 109 -247 320 745 315 752 291 747 80 -245Z" glyph-name="bar" horiz-adv-x="317.6454" unicode="|" /><glyph d="M289 -175C216 -170 185 -145 185 -95C185 -25 279 125 279 204C279 254 250 294 161 294L155 270C284 270 330 344 330 478C330 501 329 523 329 545C329 674 366 731 484 739V757C344 757 286 683 286 543C286 518 287 493 287 467C287 374 262 295 170 295H155L149 269H164C210 269 237 245 237 202C237 120 143 -2 143 -95C143 -158 193 -193 284 -193Z" glyph-name="braceleft" horiz-adv-x="402.9207" unicode="{" /><glyph d="M328 8C252 13 220 30 220 78C221 128 284 208 283 272C283 318 255 354 173 354L168 330C267 330 326 384 326 482C326 504 323 526 323 548C323 650 372 670 471 677V695C365 695 281 663 281 547C281 523 285 501 285 477C285 407 249 355 183 355H168L162 329H177C218 329 242 308 242 270C242 204 178 149 178 80C178 18 230 -10 323 -10Z" glyph-name="braceleft.caps" horiz-adv-x="403.0992" /><glyph d="M393 -69C317 -64 285 -47 285 1C286 51 349 131 348 195C348 241 320 277 238 277L233 253C332 253 391 307 391 405C391 427 388 449 388 471C388 573 437 593 536 600V618C430 618 346 586 346 470C346 446 350 424 350 400C350 330 314 278 248 278H233L227 252H242C283 252 307 231 307 193C307 127 243 72 243 3C243 -59 295 -87 388 -87Z" glyph-name="braceleft.sc" horiz-adv-x="375.4661" /><glyph d="M210 739C283 734 314 709 314 659C314 589 220 439 220 360C220 310 249 270 338 270L344 294C215 294 169 220 169 86C169 63 170 41 170 19C170 -110 133 -167 15 -175V-193C155 -193 213 -119 213 21C213 46 212 71 212 97C212 190 237 269 329 269H344L350 295H335C289 295 262 319 262 362C262 444 356 566 356 659C356 722 306 757 215 757Z" glyph-name="braceright" horiz-adv-x="403.2958" unicode="}" /><glyph d="M197 677C273 672 305 655 305 607C304 557 241 477 242 413C242 367 270 331 352 331L357 355C258 355 199 301 199 203C199 181 202 159 202 137C202 35 153 15 54 8V-10C160 -10 244 22 244 138C244 162 240 184 240 208C240 278 276 330 342 330H357L363 356H348C307 356 283 377 283 415C283 481 347 536 347 605C347 667 295 695 202 695Z" glyph-name="braceright.caps" horiz-adv-x="403.3299" /><glyph d="M71 600C147 595 179 578 179 530C178 480 115 400 116 336C116 290 144 254 226 254L231 278C132 278 73 224 73 126C73 104 76 82 76 60C76 -42 27 -62 -72 -69V-87C34 -87 118 -55 118 61C118 85 114 107 114 131C114 201 150 253 216 253H231L237 279H222C181 279 157 300 157 338C157 404 221 459 221 528C221 590 169 618 76 618Z" glyph-name="braceright.sc" horiz-adv-x="374.6967" /><glyph d="M261 -193 266 -169H139L331 736H458L463 760H294L92 -193Z" glyph-name="bracketleft" horiz-adv-x="378.0234" unicode="[" /><glyph d="M300 -10 305 14H178L317 671H444L449 695H280L131 -10Z" glyph-name="bracketleft.caps" horiz-adv-x="378.1256" /><glyph d="M382 -87 387 -63H260L399 594H526L531 618H362L213 -87Z" glyph-name="bracketleft.sc" horiz-adv-x="349.4924" /><glyph d="M214 760 209 736H336L144 -169H17L12 -193H181L383 760Z" glyph-name="bracketright" horiz-adv-x="378.0234" unicode="]" /><glyph d="M200 695 195 671H322L183 14H56L51 -10H220L369 695Z" glyph-name="bracketright.caps" horiz-adv-x="378.1256" /><glyph d="M58 627 53 603H180L41 -54H-86L-91 -78H78L227 627Z" glyph-name="bracketright.sc" horiz-adv-x="349.5794" /><glyph d="M418 728C388 678 345 648 300 648C251 648 220 679 216 730L199 727C196 650 229 605 288 605C351 605 403 650 436 727L422 730Z" glyph-name="breve" horiz-adv-x="430" unicode="&#728;" /><glyph d="M454 890C424 851 381 828 336 828C287 828 256 852 252 892L236 889C233 823 266 785 324 785C387 785 438 822 471 884L458 892Z" glyph-name="breve.case" horiz-adv-x="436" /><glyph d="M418 728C388 678 345 648 300 648C251 648 220 679 216 730L199 727C196 650 229 605 288 605C351 605 403 650 436 727L422 730ZM319 745ZM280 495Z" glyph-name="brevecomb" horiz-adv-x="430" unicode="&#774;" /><glyph d="M454 890C424 851 381 828 336 828C287 828 256 852 252 892L236 889C233 823 266 785 324 785C387 785 438 822 471 884L458 892ZM314 685Z" glyph-name="brevecomb.case" horiz-adv-x="436" /><glyph d="M390 728C367 678 326 648 288 648C248 648 220 679 219 730L202 727C197 650 227 605 276 605C332 605 382 650 408 727L394 730ZM318 745ZM264 495Z" glyph-name="brevecomb.i" horiz-adv-x="406" /><glyph d="M242 379 320 745 315 752 291 747 213 381 218 374ZM109 -247 187 119 182 126 158 121 80 -245 85 -252Z" glyph-name="brokenbar" horiz-adv-x="317.7058" unicode="&#166;" /><glyph d="M345 283C345 329 318 373 257 373C189 373 148 307 148 249C148 202 175 159 235 159C303 159 345 224 345 283Z" glyph-name="bullet" horiz-adv-x="403.7462" unicode="&#8226;" /><glyph d="M360 354C360 400 333 444 272 444C204 444 163 378 163 320C163 273 190 230 250 230C318 230 360 295 360 354Z" glyph-name="bullet.caps" horiz-adv-x="403.6547" /><glyph d="M387 280C387 326 360 370 299 370C231 370 190 304 190 246C190 199 217 156 277 156C345 156 387 221 387 280Z" glyph-name="bullet.sc" horiz-adv-x="375.3839" /><glyph d="M311 505C194 505 72 325 72 140C72 45 104 -10 180 -10C245 -10 304 53 346 127L338 132C284 67 235 25 192 25C138 25 114 70 114 141C114 300 209 473 297 473C333 473 346 450 346 417C346 389 336 361 327 344C330 342 334 340 339 340C366 340 386 383 386 422C386 470 359 505 311 505ZM300 495ZM182 0Z" glyph-name="c" horiz-adv-x="342.0053" unicode="c" /><glyph d="M235 324C144 324 49 187 49 44C49 -32 75 -78 136 -78C187 -78 233 -29 266 30L259 34C217 -17 180 -49 146 -49C103 -49 84 -12 84 47C84 169 157 299 224 299C253 299 263 279 263 253C263 232 255 210 248 198C251 196 254 195 258 195C279 195 295 226 295 256C295 296 274 324 235 324Z" glyph-name="c.inferior" horiz-adv-x="282.6233" /><glyph d="M320 -10C370 -10 413 -2 440 11C449 50 461 105 465 148H451C433 102 415 65 398 33C379 29 358 26 322 26C220 26 140 96 140 215C140 373 269 509 418 509C449 509 465 506 482 501C485 469 488 435 492 384H505C517 421 530 485 532 523C508 536 469 545 423 545C243 545 96 396 96 214C96 74 183 -10 320 -10ZM390 535ZM320 0Z" glyph-name="c.sc" horiz-adv-x="516.0567" /><glyph d="M326 753C235 753 140 616 140 473C140 397 166 351 227 351C278 351 324 400 357 459L350 463C308 412 271 380 237 380C194 380 175 417 175 476C175 598 248 728 315 728C344 728 354 708 354 682C354 661 346 639 339 627C342 625 345 624 349 624C370 624 386 655 386 685C386 725 365 753 326 753Z" glyph-name="c.superior" horiz-adv-x="282.4365" /><glyph d="M346 127 338 132C284 67 235 25 192 25C138 25 114 70 114 141C114 300 209 473 303 473C321 473 340 464 342 445L349 429C349 594 471 697 589 718L619 755C441 736 321 586 321 434C321 402 334 380 352 380C372 380 386 402 386 434C386 475 359 505 311 505C194 505 72 325 72 140C72 45 104 -10 180 -10C245 -10 304 53 346 127ZM619 755 584 731 450 120H490L500 164C536 250 643 465 713 465C735 465 744 449 744 426C744 370 694 218 672 120H712C736 217 784 371 784 434C784 472 767 505 728 505C666 505 599 423 504 228L509 226C542 362 573 499 603 635L627 747ZM426 11C424 1 421 -10 431 -10C436 -10 444 -8 448 -7L464 -3L490 120H450ZM712 120H672C665 86 661 63 661 46C661 13 673 -10 704 -10C753 -10 800 70 826 127L818 132C785 83 745 30 720 30C706 30 702 41 702 57C702 70 706 90 712 120Z" glyph-name="c_h" horiz-adv-x="822" /><glyph d="M346 127 338 132C284 67 235 25 192 25C138 25 114 70 114 141C114 300 209 473 303 473C318 473 331 465 342 445L345 476C345 590 409 698 508 698C554 698 583 668 583 622C583 560 529 497 437 480L434 460H716L722 490H503L527 472C572 507 621 559 621 628C621 687 582 730 519 730C403 730 318 619 318 479C318 415 334 380 357 380C374 380 386 398 386 424C386 470 359 505 311 505C194 505 72 325 72 140C72 45 104 -10 180 -10C245 -10 304 53 346 127ZM686 127 678 132C624 67 574 25 531 25C501 25 487 47 487 86C487 108 489 125 494 148L565 480L525 482L454 148C449 124 447 100 447 81C447 24 473 -10 516 -10C583 -10 643 51 686 127Z" glyph-name="c_t" horiz-adv-x="660" /><glyph d="M311 505C194 505 72 325 72 140C72 45 104 -10 180 -10C245 -10 304 53 346 127L338 132C284 67 235 25 192 25C138 25 114 70 114 141C114 300 209 473 297 473C333 473 346 450 346 417C346 389 336 361 327 344C330 342 334 340 339 340C366 340 386 383 386 422C386 470 359 505 311 505ZM300 495ZM182 0ZM429 754C398 714 325 650 254 596L263 581C346 626 466 696 466 736C466 748 455 756 439 756C438 756 436 756 435 756ZM377 745ZM323 495Z" glyph-name="cacute" horiz-adv-x="342.0053" unicode="&#263;" /><glyph d="M320 -10C370 -10 413 -2 440 11C449 50 461 105 465 148H451C433 102 415 65 398 33C379 29 358 26 322 26C220 26 140 96 140 215C140 373 269 509 418 509C449 509 465 506 482 501C485 469 488 435 492 384H505C517 421 530 485 532 523C508 536 469 545 423 545C243 545 96 396 96 214C96 74 183 -10 320 -10ZM390 535ZM320 0ZM509 794C478 754 405 690 334 636L343 621C426 666 546 736 546 776C546 788 535 796 519 796C518 796 516 796 515 796ZM457 785ZM403 535Z" glyph-name="cacute.sc" horiz-adv-x="516.0567" /><glyph d="M292 615 318 617C282 658 248 710 221 750L205 740C232 680 260 622 280 586H321L327 590C349 619 415 692 462 738L452 750C402 712 321 644 292 615Z" glyph-name="caron" horiz-adv-x="458" unicode="&#711;" /><glyph d="M333 800 359 802C320 834 283 874 254 905L238 895C269 847 299 800 322 771H363L369 775C393 798 462 856 511 893L501 905C449 875 364 823 333 800Z" glyph-name="caron.case" horiz-adv-x="474" /><glyph d="M292 615 318 617C282 658 248 710 221 750L205 740C232 680 260 622 280 586H321L327 590C349 619 415 692 462 738L452 750C402 712 321 644 292 615ZM336 745ZM282 495Z" glyph-name="caroncomb" horiz-adv-x="458" unicode="&#780;" /><glyph d="M278 706C278 730 265 745 245 745C218 745 196 723 196 695C196 673 210 660 231 660L237 692C226 637 206 600 165 553L172 546C231 586 278 657 278 706ZM185 495Z" glyph-name="caroncomb.alt" horiz-adv-x="283" /><glyph d="M333 800 359 802C320 834 283 874 254 905L238 895C269 847 299 800 322 771H363L369 775C393 798 462 856 511 893L501 905C449 875 364 823 333 800ZM330 685Z" glyph-name="caroncomb.case" horiz-adv-x="474" /><glyph d="M263 615 289 617C264 658 240 710 221 750L205 740C222 680 239 622 251 586H292L298 590C315 619 366 692 403 738L393 750C352 712 287 644 263 615ZM298 745ZM255 495Z" glyph-name="caroncomb.i" horiz-adv-x="399" /><glyph d="M311 505C194 505 72 325 72 140C72 45 104 -10 180 -10C245 -10 304 53 346 127L338 132C284 67 235 25 192 25C138 25 114 70 114 141C114 300 209 473 297 473C333 473 346 450 346 417C346 389 336 361 327 344C330 342 334 340 339 340C366 340 386 383 386 422C386 470 359 505 311 505ZM300 495ZM182 0ZM333 615 359 617C323 658 289 710 262 750L246 740C273 680 301 622 321 586H362L368 590C390 619 456 692 503 738L493 750C443 712 362 644 333 615ZM377 745ZM323 495Z" glyph-name="ccaron" horiz-adv-x="342.0053" unicode="&#269;" /><glyph d="M320 -10C370 -10 413 -2 440 11C449 50 461 105 465 148H451C433 102 415 65 398 33C379 29 358 26 322 26C220 26 140 96 140 215C140 373 269 509 418 509C449 509 465 506 482 501C485 469 488 435 492 384H505C517 421 530 485 532 523C508 536 469 545 423 545C243 545 96 396 96 214C96 74 183 -10 320 -10ZM390 535ZM320 0ZM413 655 439 657C403 698 369 750 342 790L326 780C353 720 381 662 401 626H442L448 630C470 659 536 732 583 778L573 790C523 752 442 684 413 655ZM457 785ZM403 535Z" glyph-name="ccaron.sc" horiz-adv-x="516.0567" /><glyph d="M311 505C194 505 72 325 72 140C72 45 104 -10 180 -10C245 -10 304 53 346 127L338 132C284 67 235 25 192 25C138 25 114 70 114 141C114 300 209 473 297 473C333 473 346 450 346 417C346 389 336 361 327 344C330 342 334 340 339 340C366 340 386 383 386 422C386 470 359 505 311 505ZM300 495ZM182 0ZM252 -117C252 -90 229 -70 192 -64L186 -84L219 0H188L154 -86L156 -91C188 -93 208 -108 208 -129C208 -157 168 -188 112 -203L114 -212C195 -203 252 -163 252 -117ZM205 0Z" glyph-name="ccedilla" horiz-adv-x="342.0053" unicode="&#231;" /><glyph d="M320 -10C370 -10 413 -2 440 11C449 50 461 105 465 148H451C433 102 415 65 398 33C379 29 358 26 322 26C220 26 140 96 140 215C140 373 269 509 418 509C449 509 465 506 482 501C485 469 488 435 492 384H505C517 421 530 485 532 523C508 536 469 545 423 545C243 545 96 396 96 214C96 74 183 -10 320 -10ZM390 535ZM320 0ZM380 -117C380 -90 357 -70 320 -64L314 -84L347 0H316L282 -86L284 -91C316 -93 336 -108 336 -129C336 -157 296 -188 240 -203L242 -212C323 -203 380 -163 380 -117ZM333 0Z" glyph-name="ccedilla.sc" horiz-adv-x="516.0567" /><glyph d="M311 505C194 505 72 325 72 140C72 45 104 -10 180 -10C245 -10 304 53 346 127L338 132C284 67 235 25 192 25C138 25 114 70 114 141C114 300 209 473 297 473C333 473 346 450 346 417C346 389 336 361 327 344C330 342 334 340 339 340C366 340 386 383 386 422C386 470 359 505 311 505ZM300 495ZM182 0ZM377 721 350 719C390 678 428 626 456 586L472 596C443 656 411 714 390 750H349L342 746C322 717 260 644 216 598L225 586C273 624 349 692 377 721ZM365 745ZM323 495Z" glyph-name="ccircumflex" horiz-adv-x="342.0053" unicode="&#265;" /><glyph d="M320 -10C370 -10 413 -2 440 11C449 50 461 105 465 148H451C433 102 415 65 398 33C379 29 358 26 322 26C220 26 140 96 140 215C140 373 269 509 418 509C449 509 465 506 482 501C485 469 488 435 492 384H505C517 421 530 485 532 523C508 536 469 545 423 545C243 545 96 396 96 214C96 74 183 -10 320 -10ZM390 535ZM320 0ZM457 761 430 759C470 718 508 666 536 626L552 636C523 696 491 754 470 790H429L422 786C402 757 340 684 296 638L305 626C353 664 429 732 457 761ZM445 785ZM403 535Z" glyph-name="ccircumflex.sc" horiz-adv-x="516.0567" /><glyph d="M311 505C194 505 72 325 72 140C72 45 104 -10 180 -10C245 -10 304 53 346 127L338 132C284 67 235 25 192 25C138 25 114 70 114 141C114 300 209 473 297 473C333 473 346 450 346 417C346 389 336 361 327 344C330 342 334 340 339 340C366 340 386 383 386 422C386 470 359 505 311 505ZM300 495ZM182 0ZM351 618C376 618 395 644 395 678C395 696 383 708 366 708C341 708 322 682 322 649C322 630 334 618 351 618ZM376 745ZM323 495Z" glyph-name="cdotaccent" horiz-adv-x="342.0053" unicode="&#267;" /><glyph d="M320 -10C370 -10 413 -2 440 11C449 50 461 105 465 148H451C433 102 415 65 398 33C379 29 358 26 322 26C220 26 140 96 140 215C140 373 269 509 418 509C449 509 465 506 482 501C485 469 488 435 492 384H505C517 421 530 485 532 523C508 536 469 545 423 545C243 545 96 396 96 214C96 74 183 -10 320 -10ZM390 535ZM320 0ZM431 658C456 658 475 684 475 718C475 736 463 748 446 748C421 748 402 722 402 689C402 670 414 658 431 658ZM456 785ZM403 535Z" glyph-name="cdotaccent.sc" horiz-adv-x="516.0567" /><glyph d="M146 -117C146 -90 123 -70 86 -64L80 -84L113 0H82L48 -86L50 -91C82 -93 102 -108 102 -129C102 -157 62 -188 6 -203L8 -212C89 -203 146 -163 146 -117Z" glyph-name="cedilla" horiz-adv-x="325" unicode="&#184;" /><glyph d="M144 -117C144 -90 121 -70 84 -64L78 -84L111 0H80L46 -86L48 -91C80 -93 100 -108 100 -129C100 -157 60 -188 4 -203L6 -212C87 -203 144 -163 144 -117ZM97 0Z" glyph-name="cedillacomb" horiz-adv-x="323" unicode="&#807;" /><glyph d="M402 137 394 143C338 73 281 27 229 27C161 27 130 81 130 154C130 314 243 511 342 511C382 511 403 482 403 440C403 406 393 372 384 351C387 349 391 347 400 347C427 347 447 396 447 445C447 506 411 545 353 545C217 545 85 330 85 150C85 54 125 -10 220 -10C294 -10 361 58 402 137ZM210 -137 242 12H207L176 -133L182 -140ZM355 525 387 673 381 680 353 677 320 525Z" glyph-name="cent" horiz-adv-x="432.8798" unicode="&#162;" /><glyph d="M402 137 394 143C338 73 281 27 229 27C161 27 130 81 130 154C130 314 243 511 342 511C382 511 403 482 403 440C403 406 393 372 384 351C387 349 391 347 400 347C427 347 447 396 447 445C447 506 411 545 353 545C217 545 85 330 85 150C85 54 125 -10 220 -10C294 -10 361 58 402 137ZM210 -137 242 12H207L176 -133L182 -140ZM355 525 387 673 381 680 353 677 320 525Z" glyph-name="cent.lf" horiz-adv-x="432.8798" /><glyph d="M416 137 408 143C352 73 295 27 243 27C175 27 144 81 144 154C144 314 257 511 356 511C396 511 417 482 417 440C417 406 407 372 398 351C401 349 405 347 414 347C441 347 461 396 461 445C461 506 425 545 367 545C231 545 99 330 99 150C99 54 139 -10 234 -10C308 -10 375 58 416 137ZM224 -137 256 12H221L190 -133L196 -140ZM369 525 401 673 395 680 367 677 334 525Z" glyph-name="cent.osf" horiz-adv-x="460.8798" /><glyph d="M456 137 448 143C392 73 335 27 283 27C215 27 184 81 184 154C184 314 297 511 396 511C436 511 457 482 457 440C457 406 447 372 438 351C441 349 445 347 454 347C481 347 501 396 501 445C501 506 465 545 407 545C271 545 139 330 139 150C139 54 179 -10 274 -10C348 -10 415 58 456 137ZM264 -137 296 12H261L230 -133L236 -140ZM409 525 441 673 435 680 407 677 374 525Z" glyph-name="cent.sc" horiz-adv-x="535.8798" /><glyph d="M476 137 468 143C412 73 355 27 303 27C235 27 204 81 204 154C204 314 317 511 416 511C456 511 477 482 477 440C477 406 467 372 458 351C461 349 465 347 474 347C501 347 521 396 521 445C521 506 485 545 427 545C291 545 159 330 159 150C159 54 199 -10 294 -10C368 -10 435 58 476 137ZM284 -137 316 12H281L250 -133L256 -140ZM429 525 461 673 455 680 427 677 394 525Z" glyph-name="cent.tf" horiz-adv-x="560" /><glyph d="M481 137 473 143C417 73 360 27 308 27C240 27 209 81 209 154C209 314 322 511 421 511C461 511 482 482 482 440C482 406 472 372 463 351C466 349 470 347 479 347C506 347 526 396 526 445C526 506 490 545 432 545C296 545 164 330 164 150C164 54 204 -10 299 -10C373 -10 440 58 481 137ZM289 -137 321 12H286L255 -133L261 -140ZM434 525 466 673 460 680 432 677 399 525Z" glyph-name="cent.tf.sc" horiz-adv-x="560" /><glyph d="M476 137 468 143C412 73 355 27 303 27C235 27 204 81 204 154C204 314 317 511 416 511C456 511 477 482 477 440C477 406 467 372 458 351C461 349 465 347 474 347C501 347 521 396 521 445C521 506 485 545 427 545C291 545 159 330 159 150C159 54 199 -10 294 -10C368 -10 435 58 476 137ZM284 -137 316 12H281L250 -133L256 -140ZM429 525 461 673 455 680 427 677 394 525Z" glyph-name="cent.tosf" horiz-adv-x="560" /><glyph d="M336 721 309 719C349 678 387 626 415 586L431 596C402 656 370 714 349 750H308L301 746C281 717 219 644 175 598L184 586C232 624 308 692 336 721Z" glyph-name="circumflex" horiz-adv-x="457" unicode="&#710;" /><glyph d="M385 876 358 874C402 842 443 802 474 771L490 781C457 829 420 876 396 905H359L352 901C330 878 262 820 214 783L223 771C274 801 355 853 385 876Z" glyph-name="circumflex.case" horiz-adv-x="477" /><glyph d="M336 721 309 719C349 678 387 626 415 586L431 596C402 656 370 714 349 750H308L301 746C281 717 219 644 175 598L184 586C232 624 308 692 336 721ZM324 745ZM282 495Z" glyph-name="circumflexcomb" horiz-adv-x="457" unicode="&#770;" /><glyph d="M385 876 358 874C402 842 443 802 474 771L490 781C457 829 420 876 396 905H359L352 901C330 878 262 820 214 783L223 771C274 801 355 853 385 876ZM332 685Z" glyph-name="circumflexcomb.case" horiz-adv-x="477" /><glyph d="M306 721 279 719C308 678 336 626 356 586L372 596C354 656 332 714 319 750H278L271 746C256 717 209 644 175 598L184 586C223 624 284 692 306 721ZM293 745ZM256 495Z" glyph-name="circumflexcomb.i" horiz-adv-x="398" /><glyph d="M141.305 41C143.3 60 134.19 78 109.19 78C81.19 78 61.355 51 58.835 27C56.84 8 65.95 -10 90.95 -10C118.95 -10 138.785 17 141.305 41ZM210.305 368C212.3 387 203.19 405 178.19 405C150.19 405 130.355 378 127.835 354C125.84 335 134.95 317 159.95 317C187.95 317 207.785 344 210.305 368Z" glyph-name="colon" horiz-adv-x="208.8911" unicode=":" /><glyph d="M23 -189C98 -137 165 -33 165 31C165 55 154 78 129 78C101 78 84 51 84 27C84 4 99 -16 135 -8L120 16C110 -45 60 -134 13 -182Z" glyph-name="comma" horiz-adv-x="236.8494" unicode="," /><glyph d="M94 -161C94 -137 81 -122 61 -122C34 -122 12 -144 12 -172C12 -194 26 -207 47 -207L53 -175C42 -230 22 -267 -19 -314L-12 -321C47 -281 94 -210 94 -161ZM85 0Z" glyph-name="commaaccent" horiz-adv-x="283" unicode="&#806;" /><glyph d="M484 177 476 182C440 135 408 111 373 111C332 111 318 143 318 184C318 285 383 389 443 389C473 389 483 371 483 344C483 328 479 313 475 304C478 302 481 300 486 300C505 300 518 323 518 350C518 383 500 420 453 420C372 420 276 300 276 184C276 123 301 80 366 80C409 80 452 120 484 177ZM341 -45C537 -45 696 110 696 301C696 444 601 545 457 545C261 545 102 390 102 199C102 56 197 -45 341 -45ZM447 505C573 505 655 418 655 296C655 132 517 -5 351 -5C225 -5 143 82 143 204C143 368 281 505 447 505Z" glyph-name="copyright" horiz-adv-x="715.6229" unicode="&#169;" /><glyph d="M496 302C495 384 445 450 346 450C232 450 124 348 124 238C124 156 175 90 274 90C388 90 497 193 496 302ZM197 146 176 174 71 88 93 60ZM481 76 483 87C466 109 441 138 415 172L388 148L457 60ZM166 238C166 326 246 415 340 415C417 415 454 361 454 302C454 214 374 125 280 125C203 125 166 179 166 238ZM243 404C221 431 200 458 178 485L150 463L213 380ZM562 457 540 485 436 399 457 371Z" glyph-name="currency" horiz-adv-x="540.8617" unicode="&#164;" /><glyph d="M512 375C511 457 461 523 362 523C248 523 140 421 140 311C140 229 191 163 290 163C404 163 513 266 512 375ZM213 219 192 247 87 161 109 133ZM497 149 499 160C482 182 457 211 431 245L404 221L473 133ZM182 311C182 399 262 488 356 488C433 488 470 434 470 375C470 287 390 198 296 198C219 198 182 252 182 311ZM259 477C237 504 216 531 194 558L166 536L229 453ZM578 530 556 558 452 472 473 444Z" glyph-name="currency.lf" horiz-adv-x="541.345" /><glyph d="M510 302C509 384 459 450 360 450C246 450 138 348 138 238C138 156 189 90 288 90C402 90 511 193 510 302ZM211 146 190 174 85 88 107 60ZM495 76 497 87C480 109 455 138 429 172L402 148L471 60ZM180 238C180 326 260 415 354 415C431 415 468 361 468 302C468 214 388 125 294 125C217 125 180 179 180 238ZM257 404C235 431 214 458 192 485L164 463L227 380ZM576 457 554 485 450 399 471 371Z" glyph-name="currency.osf" horiz-adv-x="568.8617" /><glyph d="M526 302C525 384 475 450 376 450C262 450 154 348 154 238C154 156 205 90 304 90C418 90 527 193 526 302ZM227 146 206 174 101 88 123 60ZM511 76 513 87C496 109 471 138 445 172L418 148L487 60ZM196 238C196 326 276 415 370 415C447 415 484 361 484 302C484 214 404 125 310 125C233 125 196 179 196 238ZM273 404C251 431 230 458 208 485L180 463L243 380ZM592 457 570 485 466 399 487 371Z" glyph-name="currency.sc" horiz-adv-x="600.8617" /><glyph d="M510 302C509 384 459 450 360 450C246 450 138 348 138 238C138 156 189 90 288 90C402 90 511 193 510 302ZM211 146 190 174 85 88 107 60ZM495 76 497 87C480 109 455 138 429 172L402 148L471 60ZM180 238C180 326 260 415 354 415C431 415 468 361 468 302C468 214 388 125 294 125C217 125 180 179 180 238ZM257 404C235 431 214 458 192 485L164 463L227 380ZM576 457 554 485 450 399 471 371Z" glyph-name="currency.tf" horiz-adv-x="560" /><glyph d="M523 302C522 384 472 450 373 450C259 450 151 348 151 238C151 156 202 90 301 90C415 90 524 193 523 302ZM224 146 203 174 98 88 120 60ZM508 76 510 87C493 109 468 138 442 172L415 148L484 60ZM193 238C193 326 273 415 367 415C444 415 481 361 481 302C481 214 401 125 307 125C230 125 193 179 193 238ZM270 404C248 431 227 458 205 485L177 463L240 380ZM589 457 567 485 463 399 484 371Z" glyph-name="currency.tf.sc" horiz-adv-x="560" /><glyph d="M516 302C515 384 465 450 366 450C252 450 144 348 144 238C144 156 195 90 294 90C408 90 517 193 516 302ZM217 146 196 174 91 88 113 60ZM501 76 503 87C486 109 461 138 435 172L408 148L477 60ZM186 238C186 326 266 415 360 415C437 415 474 361 474 302C474 214 394 125 300 125C223 125 186 179 186 238ZM263 404C241 431 220 458 198 485L170 463L233 380ZM582 457 560 485 456 399 477 371Z" glyph-name="currency.tosf" horiz-adv-x="560" /><glyph d="M397 457 438 485C417 496 385 505 350 505C204 505 64 314 64 100C64 28 92 -10 130 -10C237 -10 361 288 385 342L376 381C358 309 214 30 142 30C119 30 106 60 106 101C106 302 218 475 320 475C352 475 371 470 397 457ZM432 634 376 381 317 120H357L472 634ZM357 120H317C310 86 306 63 306 46C306 13 318 -10 349 -10C398 -10 445 70 471 127L463 132C430 83 390 30 365 30C351 30 347 41 347 57C347 70 351 90 357 120ZM472 634 496 746 488 754C449 747 390 738 353 727V717L477 702L454 735L432 634ZM397 592ZM244 0ZM611 495Z" glyph-name="d" horiz-adv-x="465.0053" unicode="d" /><glyph d="M302 286 336 309C319 317 293 324 265 324C150 324 43 175 43 9C43 -48 66 -78 96 -78C180 -78 274 152 293 196L286 227C272 171 163 -45 107 -45C89 -45 78 -22 78 10C78 166 163 301 242 301C267 301 282 297 302 286ZM329 425 285 225H286L242 25H275L362 425ZM362 425 380 513 374 519C343 514 296 506 266 498V490L363 478L345 504L329 425ZM275 25H242C237 1 234 -15 234 -28C234 -58 243 -78 268 -78C307 -78 344 -15 364 29L357 33C332 -5 301 -46 282 -46C271 -46 268 -37 268 -25C268 -14 271 1 275 25Z" glyph-name="d.inferior" horiz-adv-x="378.8359" /><glyph d="M242 0C462 0 585 170 582 343C580 464 493 535 350 535H290L284 505H341C470 505 535 442 537 340C539 182 431 30 244 30H179L173 0ZM202 88 278 448H236L160 88ZM297 535H181L177 519L257 501L252 522L236 448H278ZM183 0 202 88H160L154 60C150 42 143 33 125 29L68 16L70 0ZM258 259ZM301 0ZM407 536Z" glyph-name="d.sc" horiz-adv-x="585.4364" /><glyph d="M393 715 427 738C410 746 384 753 356 753C241 753 134 604 134 438C134 381 157 351 187 351C271 351 365 581 384 625L377 656C363 600 254 384 198 384C180 384 169 407 169 439C169 595 254 730 333 730C358 730 373 726 393 715ZM420 854 376 654H377L333 454H366L453 854ZM453 854 471 942 465 948C434 943 387 935 357 927V919L454 907L436 933L420 854ZM366 454H333C328 430 325 414 325 401C325 371 334 351 359 351C398 351 435 414 455 458L448 462C423 424 392 383 373 383C362 383 359 392 359 404C359 415 362 430 366 454Z" glyph-name="d.superior" horiz-adv-x="378.6491" /><glyph d="M271 -2 273 2C281 108 317 294 357 480H335C250 130 225 19 225 10C225 -1 235 -6 248 -6C255 -6 263 -4 271 -2ZM344 470 349 491C252 491 208 495 167 506L163 504C157 495 155 487 155 480C155 469 162 464 172 464C213 464 296 467 344 470ZM530 456C536 465 538 473 538 480C538 491 531 496 521 496C480 496 397 493 349 490L344 469C441 469 485 465 526 454ZM357 480C397 625 409 666 409 675C409 686 399 691 386 691C379 691 371 689 363 687L361 683C364 636 359 594 335 480Z" glyph-name="dagger" horiz-adv-x="512.7925" unicode="&#8224;" /><glyph d="M299 205C309 251 318 296 328 342C338 388 347 434 357 480H335C325 434 316 389 306 343C296 297 287 251 277 205ZM271 -2 273 2C270 49 275 91 299 205H277C237 60 225 19 225 10C225 -1 235 -6 248 -6C255 -6 263 -4 271 -2ZM285 195 290 216C193 216 149 220 108 231L104 229C98 220 96 212 96 205C96 194 103 189 113 189C154 189 237 192 285 195ZM471 181C477 190 479 198 479 205C479 216 472 221 462 221C421 221 338 218 290 215L285 194C382 194 426 190 467 179ZM344 470 349 491C252 491 208 495 167 506L163 504C157 495 155 487 155 480C155 469 162 464 172 464C213 464 296 467 344 470ZM530 456C536 465 538 473 538 480C538 491 531 496 521 496C480 496 397 493 349 490L344 469C441 469 485 465 526 454ZM357 480C397 625 409 666 409 675C409 686 399 691 386 691C379 691 371 689 363 687L361 683C364 636 359 594 335 480Z" glyph-name="daggerdbl" horiz-adv-x="512.7925" unicode="&#8225;" /><glyph d="M397 457 438 485C417 496 385 505 350 505C204 505 64 314 64 100C64 28 92 -10 130 -10C237 -10 361 288 385 342L376 381C358 309 214 30 142 30C119 30 106 60 106 101C106 302 218 475 320 475C352 475 371 470 397 457ZM432 634 376 381 317 120H357L472 634ZM357 120H317C310 86 306 63 306 46C306 13 318 -10 349 -10C398 -10 445 70 471 127L463 132C430 83 390 30 365 30C351 30 347 41 347 57C347 70 351 90 357 120ZM472 634 496 746 488 754C449 747 390 738 353 727V717L477 702L454 735L432 634ZM397 592ZM244 0ZM611 495ZM637 706C637 730 624 745 604 745C577 745 555 723 555 695C555 673 569 660 590 660L596 692C585 637 565 600 524 553L531 546C590 586 637 657 637 706ZM544 495Z" glyph-name="dcaron" horiz-adv-x="465.0053" unicode="&#271;" /><glyph d="M242 0C462 0 585 170 582 343C580 464 493 535 350 535H290L284 505H341C470 505 535 442 537 340C539 182 431 30 244 30H179L173 0ZM202 88 278 448H236L160 88ZM297 535H181L177 519L257 501L252 522L236 448H278ZM183 0 202 88H160L154 60C150 42 143 33 125 29L68 16L70 0ZM258 259ZM301 0ZM407 536ZM393 656 419 658C383 699 349 751 322 791L306 781C333 721 361 663 381 627H422L428 631C450 660 516 733 563 779L553 791C503 753 422 685 393 656ZM437 786ZM383 536Z" glyph-name="dcaron.sc" horiz-adv-x="585.4364" /><glyph d="M397 457 438 485C417 496 385 505 350 505C204 505 64 314 64 100C64 28 92 -10 130 -10C237 -10 361 288 385 342L376 381C358 309 214 30 142 30C119 30 106 60 106 101C106 302 218 475 320 475C352 475 371 470 397 457ZM432 634 376 381 317 120H357L472 634ZM357 120H317C310 86 306 63 306 46C306 13 318 -10 349 -10C398 -10 445 70 471 127L463 132C430 83 390 30 365 30C351 30 347 41 347 57C347 70 351 90 357 120ZM472 634 496 746 488 754C449 747 390 738 353 727V717L477 702L454 735L432 634ZM397 592ZM244 0ZM611 495ZM595 592 601 622H252L246 592ZM420 592Z" glyph-name="dcroat" horiz-adv-x="465.0053" unicode="&#273;" /><glyph d="M242 0C462 0 585 170 582 343C580 464 493 535 350 535H290L284 505H341C470 505 535 442 537 340C539 182 431 30 244 30H179L173 0ZM202 88 278 448H236L160 88ZM297 535H181L177 519L257 501L252 522L236 448H278ZM183 0 202 88H160L154 60C150 42 143 33 125 29L68 16L70 0ZM258 259ZM301 0ZM407 536ZM384.72 259 389.88 289H89.74L84.58 259ZM234.22 259Z" glyph-name="dcroat.sc" horiz-adv-x="586" /><glyph d="M397 457 438 485C417 496 385 505 350 505C204 505 64 314 64 100C64 28 92 -10 130 -10C237 -10 361 288 385 342L376 381C358 309 214 30 142 30C119 30 106 60 106 101C106 302 218 475 320 475C352 475 371 470 397 457ZM432 634 376 381 317 120H357L472 634ZM357 120H317C310 86 306 63 306 46C306 13 318 -10 349 -10C398 -10 445 70 471 127L463 132C430 83 390 30 365 30C351 30 347 41 347 57C347 70 351 90 357 120ZM472 634 496 746 488 754C449 747 390 738 353 727V717L477 702L454 735L432 634ZM397 592ZM244 0ZM611 495ZM234 -212C259 -212 278 -186 278 -152C278 -134 266 -122 249 -122C224 -122 205 -148 205 -181C205 -200 217 -212 234 -212ZM267 0ZM225 -245Z" glyph-name="ddotbelow" horiz-adv-x="465.0053" unicode="&#7693;" /><glyph d="M242 0C462 0 585 170 582 343C580 464 493 535 350 535H290L284 505H341C470 505 535 442 537 340C539 182 431 30 244 30H179L173 0ZM202 88 278 448H236L160 88ZM297 535H181L177 519L257 501L252 522L236 448H278ZM183 0 202 88H160L154 60C150 42 143 33 125 29L68 16L70 0ZM258 259ZM301 0ZM407 536ZM244 -212C269 -212 288 -186 288 -152C288 -134 276 -122 259 -122C234 -122 215 -148 215 -181C215 -200 227 -212 244 -212ZM277 0ZM235 -245Z" glyph-name="ddotbelow.sc" horiz-adv-x="585.4364" /><glyph d="M387 450C387 508 349 545 289 545C214 545 149 480 149 405C149 347 187 310 247 310C322 310 387 375 387 450ZM188 410C188 466 229 510 283 510C323 510 348 484 348 445C348 389 307 345 253 345C213 345 188 371 188 410Z" glyph-name="degree" horiz-adv-x="378.2661" unicode="&#176;" /><glyph d="M419 600C419 658 381 695 321 695C246 695 181 630 181 555C181 497 219 460 279 460C354 460 419 525 419 600ZM220 560C220 616 261 660 315 660C355 660 380 634 380 595C380 539 339 495 285 495C245 495 220 521 220 560Z" glyph-name="degree.lf" horiz-adv-x="378.3826" /><glyph d="M387 450C387 508 349 545 289 545C214 545 149 480 149 405C149 347 187 310 247 310C322 310 387 375 387 450ZM188 410C188 466 229 510 283 510C323 510 348 484 348 445C348 389 307 345 253 345C213 345 188 371 188 410Z" glyph-name="degree.osf" horiz-adv-x="378.2661" /><glyph d="M387 450C387 508 349 545 289 545C214 545 149 480 149 405C149 347 187 310 247 310C322 310 387 375 387 450ZM188 410C188 466 229 510 283 510C323 510 348 484 348 445C348 389 307 345 253 345C213 345 188 371 188 410Z" glyph-name="degree.sc" horiz-adv-x="378.2661" /><glyph d="M448 678C448 697 438 710 420 710C395 710 378 680 378 654C378 633 390 621 407 621C429 621 448 648 448 678ZM258 678C258 697 248 710 230 710C205 710 188 680 188 654C188 633 200 621 217 621C239 621 258 648 258 678Z" glyph-name="dieresis" horiz-adv-x="458" unicode="&#168;" /><glyph d="M484 847C484 865 473 877 453 877C426 877 408 848 408 823C408 803 421 792 440 792C464 792 484 818 484 847ZM294 847C294 865 283 877 263 877C236 877 218 848 218 823C218 803 231 792 250 792C274 792 294 818 294 847Z" glyph-name="dieresis.case" horiz-adv-x="458" /><glyph d="M448 678C448 697 438 710 420 710C395 710 378 680 378 654C378 633 390 621 407 621C429 621 448 648 448 678ZM258 678C258 697 248 710 230 710C205 710 188 680 188 654C188 633 200 621 217 621C239 621 258 648 258 678ZM335 745ZM282 495Z" glyph-name="dieresiscomb" horiz-adv-x="458" unicode="&#776;" /><glyph d="M490 847C490 865 479 877 459 877C432 877 414 848 414 823C414 803 427 792 446 792C470 792 490 818 490 847ZM300 847C300 865 289 877 269 877C242 877 224 848 224 823C224 803 237 792 256 792C280 792 300 818 300 847ZM364 869ZM327 685Z" glyph-name="dieresiscomb.case" horiz-adv-x="464" /><glyph d="M399 670C401 694 390 711 369 711C347 711 330 688 329 663C328 640 339 621 360 621C385 621 397 646 399 670ZM259 670C261 694 250 711 229 711C207 711 190 688 189 663C188 640 199 621 220 621C245 621 257 646 259 670ZM318 745ZM261 495Z" glyph-name="dieresiscomb.i" horiz-adv-x="410" /><glyph d="M522 253 534 285 527 293C433 293 215 291 124 288L117 253ZM357 412C382 412 401 438 401 472C401 490 389 502 372 502C347 502 328 476 328 443C328 424 340 412 357 412ZM382 539ZM329 289ZM278 42C303 42 322 68 322 102C322 120 310 132 293 132C268 132 249 106 249 73C249 54 261 42 278 42ZM303 169ZM250 -81Z" glyph-name="divide" horiz-adv-x="560" unicode="&#247;" /><glyph d="M536 322 548 354 541 362C447 362 229 360 138 357L131 322ZM371 481C396 481 415 507 415 541C415 559 403 571 386 571C361 571 342 545 342 512C342 493 354 481 371 481ZM396 608ZM343 358ZM292 111C317 111 336 137 336 171C336 189 324 201 307 201C282 201 263 175 263 142C263 123 275 111 292 111ZM317 238ZM264 -12Z" glyph-name="divide.lf" horiz-adv-x="560" /><glyph d="M522 253 534 285 527 293C433 293 215 291 124 288L117 253ZM357 412C382 412 401 438 401 472C401 490 389 502 372 502C347 502 328 476 328 443C328 424 340 412 357 412ZM382 539ZM329 289ZM278 42C303 42 322 68 322 102C322 120 310 132 293 132C268 132 249 106 249 73C249 54 261 42 278 42ZM303 169ZM250 -81Z" glyph-name="divide.osf" horiz-adv-x="560" /><glyph d="M522 253 534 285 527 293C433 293 215 291 124 288L117 253ZM357 412C382 412 401 438 401 472C401 490 389 502 372 502C347 502 328 476 328 443C328 424 340 412 357 412ZM382 539ZM329 289ZM278 42C303 42 322 68 322 102C322 120 310 132 293 132C268 132 249 106 249 73C249 54 261 42 278 42ZM303 169ZM250 -81Z" glyph-name="divide.sc" horiz-adv-x="560" /><glyph d="M354 525 386 673 380 680 351 677 319 525ZM213 -137 244 12H209L178 -133L184 -140ZM397 143C397 276 199 291 197 403C196 468 243 510 319 510C355 510 383 504 394 485C402 473 405 455 405 432C405 419 404 403 403 385L417 384C431 416 442 469 442 493C442 499 441 503 440 506C435 527 390 545 325 545C229 545 152 480 152 401C152 267 352 255 352 138C352 69 300 23 221 23C175 23 145 32 133 55C126 66 122 82 122 102C122 117 123 134 124 155L108 156C96 125 86 84 86 56C86 48 87 39 89 34C97 12 153 -10 214 -10C318 -10 397 58 397 143ZM320 536ZM227 0Z" glyph-name="dollar" horiz-adv-x="457.6269" unicode="$" /><glyph d="M387 675 419 823 413 830 384 827 352 675ZM213 -137 244 12H209L178 -133L184 -140ZM215 -8C348 -8 425 87 425 184C425 348 213 386 213 521C213 597 275 660 358 660C397 660 423 652 438 633C447 622 451 603 451 569C451 555 450 539 449 520H465C481 559 496 623 496 649C496 653 495 656 494 658C483 674 439 695 366 695C260 695 168 619 168 518C168 358 380 328 380 180C380 102 319 25 223 25C186 25 149 31 130 57C119 71 115 88 115 128C115 140 115 154 116 170H100C83 129 71 81 71 50C71 43 72 37 74 32C81 14 145 -8 215 -8Z" glyph-name="dollar.lf" horiz-adv-x="468.0104" /><glyph d="M354 525 386 673 380 680 351 677 319 525ZM213 -137 244 12H209L178 -133L184 -140ZM397 143C397 276 199 291 197 403C196 468 243 510 319 510C355 510 383 504 394 485C402 473 405 455 405 432C405 419 404 403 403 385L417 384C431 416 442 469 442 493C442 499 441 503 440 506C435 527 390 545 325 545C229 545 152 480 152 401C152 267 352 255 352 138C352 69 300 23 221 23C175 23 145 32 133 55C126 66 122 82 122 102C122 117 123 134 124 155L108 156C96 125 86 84 86 56C86 48 87 39 89 34C97 12 153 -10 214 -10C318 -10 397 58 397 143ZM320 536ZM227 0Z" glyph-name="dollar.osf" horiz-adv-x="457.6269" /><glyph d="M350 525 382 673 376 680 347 677 315 525ZM209 -137 240 12H205L174 -133L180 -140ZM393 143C393 276 195 291 193 403C192 468 239 510 315 510C351 510 379 504 390 485C398 473 401 455 401 432C401 419 400 403 399 385L413 384C427 416 438 469 438 493C438 499 437 503 436 506C431 527 386 545 321 545C225 545 148 480 148 401C148 267 348 255 348 138C348 69 296 23 217 23C171 23 141 32 129 55C122 66 118 82 118 102C118 117 119 134 120 155L104 156C92 125 82 84 82 56C82 48 83 39 85 34C93 12 149 -10 210 -10C314 -10 393 58 393 143ZM316 536ZM223 0Z" glyph-name="dollar.sc" horiz-adv-x="449.6269" /><glyph d="M433 675 465 823 459 830 430 827 398 675ZM259 -137 290 12H255L224 -133L230 -140ZM261 -8C394 -8 471 87 471 184C471 348 259 386 259 521C259 597 321 660 404 660C443 660 469 652 484 633C493 622 497 603 497 569C497 555 496 539 495 520H511C527 559 542 623 542 649C542 653 541 656 540 658C529 674 485 695 412 695C306 695 214 619 214 518C214 358 426 328 426 180C426 102 365 25 269 25C232 25 195 31 176 57C165 71 161 88 161 128C161 140 161 154 162 170H146C129 129 117 81 117 50C117 43 118 37 120 32C127 14 191 -8 261 -8Z" glyph-name="dollar.tf" horiz-adv-x="560" /><glyph d="M405 525 437 673 431 680 402 677 370 525ZM264 -137 295 12H260L229 -133L235 -140ZM448 143C448 276 250 291 248 403C247 468 294 510 370 510C406 510 434 504 445 485C453 473 456 455 456 432C456 419 455 403 454 385L468 384C482 416 493 469 493 493C493 499 492 503 491 506C486 527 441 545 376 545C280 545 203 480 203 401C203 267 403 255 403 138C403 69 351 23 272 23C226 23 196 32 184 55C177 66 173 82 173 102C173 117 174 134 175 155L159 156C147 125 137 84 137 56C137 48 138 39 140 34C148 12 204 -10 265 -10C369 -10 448 58 448 143ZM371 536ZM278 0Z" glyph-name="dollar.tf.sc" horiz-adv-x="560" /><glyph d="M405 525 437 673 431 680 402 677 370 525ZM264 -137 295 12H260L229 -133L235 -140ZM448 143C448 276 250 291 248 403C247 468 294 510 370 510C406 510 434 504 445 485C453 473 456 455 456 432C456 419 455 403 454 385L468 384C482 416 493 469 493 493C493 499 492 503 491 506C486 527 441 545 376 545C280 545 203 480 203 401C203 267 403 255 403 138C403 69 351 23 272 23C226 23 196 32 184 55C177 66 173 82 173 102C173 117 174 134 175 155L159 156C147 125 137 84 137 56C137 48 138 39 140 34C148 12 204 -10 265 -10C369 -10 448 58 448 143ZM371 536ZM278 0Z" glyph-name="dollar.tosf" horiz-adv-x="560" /><glyph d="M216 618C241 618 260 644 260 678C260 696 248 708 231 708C206 708 187 682 187 649C187 630 199 618 216 618Z" glyph-name="dotaccent" horiz-adv-x="270" unicode="&#729;" /><glyph d="M304 844C304 863 293 874 272 874C247 874 225 850 225 824C225 803 236 792 257 792C282 792 304 817 304 844Z" glyph-name="dotaccent.case" horiz-adv-x="279" /><glyph d="M216 618C241 618 260 644 260 678C260 696 248 708 231 708C206 708 187 682 187 649C187 630 199 618 216 618ZM241 745ZM188 495Z" glyph-name="dotaccentcomb" horiz-adv-x="270" unicode="&#775;" /><glyph d="M303 844C303 863 292 874 271 874C246 874 224 850 224 824C224 803 235 792 256 792C281 792 303 817 303 844ZM232 685Z" glyph-name="dotaccentcomb.case" horiz-adv-x="277" /><glyph d="M40 -212C65 -212 84 -186 84 -152C84 -134 72 -122 55 -122C30 -122 11 -148 11 -181C11 -200 23 -212 40 -212ZM73 0ZM31 -245Z" glyph-name="dotbelowcomb" horiz-adv-x="271" unicode="&#803;" /><glyph d="M174 120C190 193 218 297 235 375H195C177 300 150 196 134 120ZM174 120H134C127 86 123 63 123 46C123 13 135 -10 166 -10C215 -10 262 70 288 127L280 132C247 83 207 30 182 30C168 30 164 41 164 57C164 70 168 90 174 120ZM195 375H235C242 409 246 432 246 449C246 482 234 505 203 505C154 505 107 425 81 368L89 363C122 412 162 465 187 465C201 465 205 454 205 438C205 425 201 405 195 375ZM197 0ZM150 0ZM235 495Z" glyph-name="dotlessi" horiz-adv-x="249.0053" unicode="&#305;" /><glyph d="M237 448 160 87H202L279 448ZM191 35 202 87H160L154 59C150 42 145 32 126 28L70 16L72 0H259L263 16ZM248 500 237 448H279L285 476C289 493 294 503 313 507L369 519L367 535H180L176 519ZM231 0ZM141 0ZM248 535Z" glyph-name="dotlessi.sc" horiz-adv-x="349.5991" /><glyph d="M217 375H177L93 -20C66 -148 36 -222 -32 -222C-71 -222 -102 -193 -122 -165C-131 -170 -139 -181 -139 -195C-139 -227 -104 -255 -54 -255C41 -255 106 -158 137 -8ZM177 375H217C224 409 228 432 228 449C228 482 216 505 185 505C136 505 89 425 63 368L71 363C104 412 144 465 169 465C183 465 187 454 187 438C187 425 183 405 177 375ZM184 495Z" glyph-name="dotlessj" horiz-adv-x="236" unicode="&#567;" /><glyph d="M237 448 160 86C138 -15 102 -63 44 -118L56 -133C134 -94 176 -41 197 60L279 448ZM248 500 237 448H279L285 476C289 493 294 503 313 507L369 519L367 535H180L176 519ZM256 535Z" glyph-name="dotlessj.sc" horiz-adv-x="338.6831" /><glyph d="M341 127 333 132C279 67 231 25 188 25C139 25 115 74 115 148C115 304 206 473 297 473C324 473 339 453 339 426C339 344 249 271 128 259L123 234C236 242 381 315 381 428C381 474 357 505 308 505C193 505 73 322 73 150C73 50 105 -10 175 -10C240 -10 298 51 341 127ZM220 0ZM181 0ZM288 495Z" glyph-name="e" horiz-adv-x="348.0053" unicode="e" /><glyph d="M262 30 256 34C214 -17 177 -49 143 -49C105 -49 85 -10 85 50C85 170 154 299 224 299C245 299 257 284 257 263C257 198 188 141 94 132L80 113C84 113 87 113 91 113C180 119 292 175 292 263C292 299 272 324 233 324C142 324 50 184 50 50C50 -30 76 -78 132 -78C183 -78 229 -30 262 30Z" glyph-name="e.inferior" horiz-adv-x="289.6233" /><glyph d="M202 88 279 448H237L160 88ZM442 0C456 42 468 106 472 150C472 150 472 150 472 150H458C441 110 424 72 405 34C382 31 349 30 310 30H177L173 0ZM422 288 234 283 228 254 414 249ZM507 384C520 432 532 490 533 535H289L284 505H390C429 505 462 504 484 502C487 463 490 423 493 384ZM298 535H182L178 519L258 501L253 522L237 448H279ZM183 0 202 88H160L154 60C150 42 143 33 125 29L68 16L70 0ZM442 0ZM283 0ZM385 535Z" glyph-name="e.sc" horiz-adv-x="512.0754" /><glyph d="M353 459 347 463C305 412 268 380 234 380C196 380 176 419 176 479C176 599 245 728 315 728C336 728 348 713 348 692C348 627 279 570 185 561L171 542C175 542 178 542 182 542C271 548 383 604 383 692C383 728 363 753 324 753C233 753 141 613 141 479C141 399 167 351 223 351C274 351 320 399 353 459Z" glyph-name="e.superior" horiz-adv-x="289.4365" /><glyph d="M341 127 333 132C279 67 231 25 188 25C139 25 115 74 115 148C115 304 206 473 297 473C324 473 339 453 339 426C339 344 249 271 128 259L123 234C236 242 381 315 381 428C381 474 357 505 308 505C193 505 73 322 73 150C73 50 105 -10 175 -10C240 -10 298 51 341 127ZM220 0ZM181 0ZM288 495ZM394 754C363 714 290 650 219 596L228 581C311 626 431 696 431 736C431 748 420 756 404 756C403 756 401 756 400 756ZM342 745ZM288 495Z" glyph-name="eacute" horiz-adv-x="348.0053" unicode="&#233;" /><glyph d="M202 88 279 448H237L160 88ZM442 0C456 42 468 106 472 150C472 150 472 150 472 150H458C441 110 424 72 405 34C382 31 349 30 310 30H177L173 0ZM422 288 234 283 228 254 414 249ZM507 384C520 432 532 490 533 535H289L284 505H390C429 505 462 504 484 502C487 463 490 423 493 384ZM298 535H182L178 519L258 501L253 522L237 448H279ZM183 0 202 88H160L154 60C150 42 143 33 125 29L68 16L70 0ZM442 0ZM283 0ZM385 535ZM467 794C436 754 363 690 292 636L301 621C384 666 504 736 504 776C504 788 493 796 477 796C476 796 474 796 473 796ZM415 785ZM361 535Z" glyph-name="eacute.sc" horiz-adv-x="512.0754" /><glyph d="M341 127 333 132C279 67 231 25 188 25C139 25 115 74 115 148C115 304 206 473 297 473C324 473 339 453 339 426C339 344 249 271 128 259L123 234C236 242 381 315 381 428C381 474 357 505 308 505C193 505 73 322 73 150C73 50 105 -10 175 -10C240 -10 298 51 341 127ZM220 0ZM181 0ZM288 495ZM426 728C396 678 353 648 308 648C259 648 228 679 224 730L207 727C204 650 237 605 296 605C359 605 411 650 444 727L430 730ZM327 745ZM288 495Z" glyph-name="ebreve" horiz-adv-x="348.0053" unicode="&#277;" /><glyph d="M202 88 279 448H237L160 88ZM442 0C456 42 468 106 472 150C472 150 472 150 472 150H458C441 110 424 72 405 34C382 31 349 30 310 30H177L173 0ZM422 288 234 283 228 254 414 249ZM507 384C520 432 532 490 533 535H289L284 505H390C429 505 462 504 484 502C487 463 490 423 493 384ZM298 535H182L178 519L258 501L253 522L237 448H279ZM183 0 202 88H160L154 60C150 42 143 33 125 29L68 16L70 0ZM442 0ZM283 0ZM385 535ZM499 768C469 718 426 688 381 688C332 688 301 719 297 770L280 767C277 690 310 645 369 645C432 645 484 690 517 767L503 770ZM400 785ZM361 535Z" glyph-name="ebreve.sc" horiz-adv-x="512.0754" /><glyph d="M341 127 333 132C279 67 231 25 188 25C139 25 115 74 115 148C115 304 206 473 297 473C324 473 339 453 339 426C339 344 249 271 128 259L123 234C236 242 381 315 381 428C381 474 357 505 308 505C193 505 73 322 73 150C73 50 105 -10 175 -10C240 -10 298 51 341 127ZM220 0ZM181 0ZM288 495ZM298 615 324 617C288 658 254 710 227 750L211 740C238 680 266 622 286 586H327L333 590C355 619 421 692 468 738L458 750C408 712 327 644 298 615ZM342 745ZM288 495Z" glyph-name="ecaron" horiz-adv-x="348.0053" unicode="&#283;" /><glyph d="M202 88 279 448H237L160 88ZM442 0C456 42 468 106 472 150C472 150 472 150 472 150H458C441 110 424 72 405 34C382 31 349 30 310 30H177L173 0ZM422 288 234 283 228 254 414 249ZM507 384C520 432 532 490 533 535H289L284 505H390C429 505 462 504 484 502C487 463 490 423 493 384ZM298 535H182L178 519L258 501L253 522L237 448H279ZM183 0 202 88H160L154 60C150 42 143 33 125 29L68 16L70 0ZM442 0ZM283 0ZM385 535ZM371 655 397 657C361 698 327 750 300 790L284 780C311 720 339 662 359 626H400L406 630C428 659 494 732 541 778L531 790C481 752 400 684 371 655ZM415 785ZM361 535Z" glyph-name="ecaron.sc" horiz-adv-x="512.0754" /><glyph d="M341 127 333 132C279 67 231 25 188 25C139 25 115 74 115 148C115 304 206 473 297 473C324 473 339 453 339 426C339 344 249 271 128 259L123 234C236 242 381 315 381 428C381 474 357 505 308 505C193 505 73 322 73 150C73 50 105 -10 175 -10C240 -10 298 51 341 127ZM220 0ZM181 0ZM288 495ZM342 721 315 719C355 678 393 626 421 586L437 596C408 656 376 714 355 750H314L307 746C287 717 225 644 181 598L190 586C238 624 314 692 342 721ZM330 745ZM288 495Z" glyph-name="ecircumflex" horiz-adv-x="348.0053" unicode="&#234;" /><glyph d="M202 88 279 448H237L160 88ZM442 0C456 42 468 106 472 150C472 150 472 150 472 150H458C441 110 424 72 405 34C382 31 349 30 310 30H177L173 0ZM422 288 234 283 228 254 414 249ZM507 384C520 432 532 490 533 535H289L284 505H390C429 505 462 504 484 502C487 463 490 423 493 384ZM298 535H182L178 519L258 501L253 522L237 448H279ZM183 0 202 88H160L154 60C150 42 143 33 125 29L68 16L70 0ZM442 0ZM283 0ZM385 535ZM415 761 388 759C428 718 466 666 494 626L510 636C481 696 449 754 428 790H387L380 786C360 757 298 684 254 638L263 626C311 664 387 732 415 761ZM403 785ZM361 535Z" glyph-name="ecircumflex.sc" horiz-adv-x="512.0754" /><glyph d="M341 127 333 132C279 67 231 25 188 25C139 25 115 74 115 148C115 304 206 473 297 473C324 473 339 453 339 426C339 344 249 271 128 259L123 234C236 242 381 315 381 428C381 474 357 505 308 505C193 505 73 322 73 150C73 50 105 -10 175 -10C240 -10 298 51 341 127ZM220 0ZM181 0ZM288 495ZM454 678C454 697 444 710 426 710C401 710 384 680 384 654C384 633 396 621 413 621C435 621 454 648 454 678ZM264 678C264 697 254 710 236 710C211 710 194 680 194 654C194 633 206 621 223 621C245 621 264 648 264 678ZM341 745ZM288 495Z" glyph-name="edieresis" horiz-adv-x="348.0053" unicode="&#235;" /><glyph d="M202 88 279 448H237L160 88ZM442 0C456 42 468 106 472 150C472 150 472 150 472 150H458C441 110 424 72 405 34C382 31 349 30 310 30H177L173 0ZM422 288 234 283 228 254 414 249ZM507 384C520 432 532 490 533 535H289L284 505H390C429 505 462 504 484 502C487 463 490 423 493 384ZM298 535H182L178 519L258 501L253 522L237 448H279ZM183 0 202 88H160L154 60C150 42 143 33 125 29L68 16L70 0ZM442 0ZM283 0ZM385 535ZM527 718C527 737 517 750 499 750C474 750 457 720 457 694C457 673 469 661 486 661C508 661 527 688 527 718ZM337 718C337 737 327 750 309 750C284 750 267 720 267 694C267 673 279 661 296 661C318 661 337 688 337 718ZM414 785ZM361 535Z" glyph-name="edieresis.sc" horiz-adv-x="512.0754" /><glyph d="M341 127 333 132C279 67 231 25 188 25C139 25 115 74 115 148C115 304 206 473 297 473C324 473 339 453 339 426C339 344 249 271 128 259L123 234C236 242 381 315 381 428C381 474 357 505 308 505C193 505 73 322 73 150C73 50 105 -10 175 -10C240 -10 298 51 341 127ZM220 0ZM181 0ZM288 495ZM316 618C341 618 360 644 360 678C360 696 348 708 331 708C306 708 287 682 287 649C287 630 299 618 316 618ZM341 745ZM288 495Z" glyph-name="edotaccent" horiz-adv-x="348.0053" unicode="&#279;" /><glyph d="M202 88 279 448H237L160 88ZM442 0C456 42 468 106 472 150C472 150 472 150 472 150H458C441 110 424 72 405 34C382 31 349 30 310 30H177L173 0ZM422 288 234 283 228 254 414 249ZM507 384C520 432 532 490 533 535H289L284 505H390C429 505 462 504 484 502C487 463 490 423 493 384ZM298 535H182L178 519L258 501L253 522L237 448H279ZM183 0 202 88H160L154 60C150 42 143 33 125 29L68 16L70 0ZM442 0ZM283 0ZM385 535ZM389 658C414 658 433 684 433 718C433 736 421 748 404 748C379 748 360 722 360 689C360 670 372 658 389 658ZM414 785ZM361 535Z" glyph-name="edotaccent.sc" horiz-adv-x="512.0754" /><glyph d="M341 127 333 132C279 67 231 25 188 25C139 25 115 74 115 148C115 304 206 473 297 473C324 473 339 453 339 426C339 344 249 271 128 259L123 234C236 242 381 315 381 428C381 474 357 505 308 505C193 505 73 322 73 150C73 50 105 -10 175 -10C240 -10 298 51 341 127ZM220 0ZM181 0ZM288 495ZM171 -212C196 -212 215 -186 215 -152C215 -134 203 -122 186 -122C161 -122 142 -148 142 -181C142 -200 154 -212 171 -212ZM204 0ZM162 -245Z" glyph-name="edotbelow" horiz-adv-x="348.0053" unicode="&#7865;" /><glyph d="M202 88 279 448H237L160 88ZM442 0C456 42 468 106 472 150C472 150 472 150 472 150H458C441 110 424 72 405 34C382 31 349 30 310 30H177L173 0ZM422 288 234 283 228 254 414 249ZM507 384C520 432 532 490 533 535H289L284 505H390C429 505 462 504 484 502C487 463 490 423 493 384ZM298 535H182L178 519L258 501L253 522L237 448H279ZM183 0 202 88H160L154 60C150 42 143 33 125 29L68 16L70 0ZM442 0ZM283 0ZM385 535ZM226 -212C251 -212 270 -186 270 -152C270 -134 258 -122 241 -122C216 -122 197 -148 197 -181C197 -200 209 -212 226 -212ZM259 0ZM217 -245Z" glyph-name="edotbelow.sc" horiz-adv-x="512.0754" /><glyph d="M341 127 333 132C279 67 231 25 188 25C139 25 115 74 115 148C115 304 206 473 297 473C324 473 339 453 339 426C339 344 249 271 128 259L123 234C236 242 381 315 381 428C381 474 357 505 308 505C193 505 73 322 73 150C73 50 105 -10 175 -10C240 -10 298 51 341 127ZM220 0ZM181 0ZM288 495ZM389 592C343 649 300 712 285 753L280 755C279 755 277 755 276 755C254 755 242 745 239 732C232 698 315 631 376 581ZM338 745ZM288 495Z" glyph-name="egrave" horiz-adv-x="348.0053" unicode="&#232;" /><glyph d="M202 88 279 448H237L160 88ZM442 0C456 42 468 106 472 150C472 150 472 150 472 150H458C441 110 424 72 405 34C382 31 349 30 310 30H177L173 0ZM422 288 234 283 228 254 414 249ZM507 384C520 432 532 490 533 535H289L284 505H390C429 505 462 504 484 502C487 463 490 423 493 384ZM298 535H182L178 519L258 501L253 522L237 448H279ZM183 0 202 88H160L154 60C150 42 143 33 125 29L68 16L70 0ZM442 0ZM283 0ZM385 535ZM462 632C416 689 373 752 358 793L353 795C352 795 350 795 349 795C327 795 315 785 312 772C305 738 388 671 449 621ZM411 785ZM361 535Z" glyph-name="egrave.sc" horiz-adv-x="512.0754" /><glyph d="M459 180C459 348 223 387 223 525C223 603 289 663 369 663C439 663 478 624 478 559C478 488 408 409 311 369L339 354C454 405 519 482 519 569C519 643 465 695 374 695C272 695 181 619 181 522C181 358 417 328 417 176C417 89 332 22 241 22C162 22 109 69 109 139C109 223 192 299 307 342L282 360C145 310 68 227 68 129C68 47 133 -10 235 -10C352 -10 459 68 459 180Z" glyph-name="eight" horiz-adv-x="484.5666" unicode="8" /><glyph d="M329 101C329 192 168 222 168 300C168 343 211 376 265 376C312 376 338 355 338 320C338 281 292 235 229 213L248 202C325 230 369 274 369 324C369 368 331 399 270 399C199 399 135 354 135 297C135 208 296 181 296 96C296 49 241 13 181 13C128 13 93 38 93 76C93 123 149 166 226 191L209 204C115 176 61 129 61 71C61 23 106 -10 175 -10C257 -10 329 35 329 101Z" glyph-name="eight.denominator" horiz-adv-x="377.5085" /><glyph d="M459 180C459 348 223 387 223 525C223 603 289 663 369 663C439 663 478 624 478 559C478 488 408 409 311 369L339 354C454 405 519 482 519 569C519 643 465 695 374 695C272 695 181 619 181 522C181 358 417 328 417 176C417 89 332 22 241 22C162 22 109 69 109 139C109 223 192 299 307 342L282 360C145 310 68 227 68 129C68 47 133 -10 235 -10C352 -10 459 68 459 180Z" glyph-name="eight.lf" horiz-adv-x="484.5666" /><glyph d="M392 397C392 488 231 518 231 596C231 639 274 672 328 672C375 672 401 651 401 616C401 577 355 531 292 509L311 498C388 526 432 570 432 620C432 664 394 695 333 695C262 695 198 650 198 593C198 504 359 477 359 392C359 345 304 309 244 309C191 309 156 334 156 372C156 419 212 462 289 487L272 500C178 472 124 425 124 367C124 319 169 286 238 286C320 286 392 331 392 397Z" glyph-name="eight.numerator" horiz-adv-x="377.5918" /><glyph d="M459 180C459 348 223 387 223 525C223 603 289 663 369 663C439 663 478 624 478 559C478 488 408 409 311 369L339 354C454 405 519 482 519 569C519 643 465 695 374 695C272 695 181 619 181 522C181 358 417 328 417 176C417 89 332 22 241 22C162 22 109 69 109 139C109 223 192 299 307 342L282 360C145 310 68 227 68 129C68 47 133 -10 235 -10C352 -10 459 68 459 180Z" glyph-name="eight.osf" horiz-adv-x="484.5666" /><glyph d="M398 143C395 272 195 301 193 410C192 471 246 515 313 515C370 515 401 487 402 440C403 385 348 324 271 293L294 279C390 317 445 377 444 446C443 504 395 545 317 545C229 545 150 486 151 407C153 280 354 258 356 139C357 71 287 22 212 22C147 22 104 57 103 109C102 173 168 233 262 266L240 282C125 245 59 180 61 102C63 37 119 -8 207 -8C309 -8 400 53 398 143Z" glyph-name="eight.sc" horiz-adv-x="431.0782" /><glyph d="M506 182C506 348 250 387 250 523C250 602 321 663 406 663C482 663 525 625 525 561C525 489 451 409 348 369L376 354C497 405 566 483 566 571C566 644 508 695 411 695C304 695 208 618 208 520C208 358 464 328 464 178C464 90 374 22 278 22C193 22 136 68 136 137C136 222 223 299 344 342L319 360C176 310 95 226 95 127C95 46 164 -10 272 -10C394 -10 506 69 506 182Z" glyph-name="eight.tf" horiz-adv-x="560" /><glyph d="M483 145C483 277 240 295 240 404C240 469 302 515 379 515C447 515 485 484 485 432C485 379 423 321 336 292L360 278C466 314 527 371 527 437C527 501 472 545 383 545C286 545 198 484 198 401C198 274 441 263 441 144C441 73 362 22 278 22C199 22 148 60 148 116C148 178 223 235 329 267L306 283C180 247 106 185 106 111C106 41 170 -8 273 -8C383 -8 483 54 483 145Z" glyph-name="eight.tf.sc" horiz-adv-x="560" /><glyph d="M506 180C506 348 250 387 250 525C250 603 321 663 406 663C482 663 525 624 525 559C525 488 451 409 348 369L376 354C497 405 566 482 566 569C566 643 508 695 411 695C304 695 208 619 208 522C208 358 464 328 464 176C464 89 374 22 278 22C193 22 136 69 136 139C136 223 223 299 344 342L319 360C176 310 95 227 95 129C95 47 164 -10 272 -10C394 -10 506 68 506 180Z" glyph-name="eight.tosf" horiz-adv-x="560" /><glyph d="M313 25C313 116 152 146 152 224C152 267 195 300 249 300C296 300 322 279 322 244C322 205 276 159 213 137L232 126C309 154 353 198 353 248C353 292 315 323 254 323C183 323 119 278 119 221C119 132 280 105 280 20C280 -27 225 -63 165 -63C112 -63 77 -38 77 0C77 47 133 90 210 115L193 128C99 100 45 53 45 -5C45 -53 90 -86 159 -86C241 -86 313 -41 313 25Z" glyph-name="eightinferior" horiz-adv-x="377.6628" /><glyph d="M405 457C405 548 244 578 244 656C244 699 287 732 341 732C388 732 414 711 414 676C414 637 368 591 305 569L324 558C401 586 445 630 445 680C445 724 407 755 346 755C275 755 211 710 211 653C211 564 372 537 372 452C372 405 317 369 257 369C204 369 169 394 169 432C169 479 225 522 302 547L285 560C191 532 137 485 137 427C137 379 182 346 251 346C333 346 405 391 405 457Z" glyph-name="eightsuperior" horiz-adv-x="377.8384" unicode="&#8312;" /><glyph d="M140 41C140 60 129 78 104 78C76 78 59 51 59 27C59 8 70 -10 95 -10C123 -10 140 17 140 41ZM326 41C326 60 315 78 290 78C262 78 245 51 245 27C245 8 256 -10 281 -10C309 -10 326 17 326 41ZM512 41C512 60 501 78 476 78C448 78 431 51 431 27C431 8 442 -10 467 -10C495 -10 512 17 512 41Z" glyph-name="ellipsis" horiz-adv-x="580.4766" unicode="&#8230;" /><glyph d="M341 127 333 132C279 67 231 25 188 25C139 25 115 74 115 148C115 304 206 473 297 473C324 473 339 453 339 426C339 344 249 271 128 259L123 234C236 242 381 315 381 428C381 474 357 505 308 505C193 505 73 322 73 150C73 50 105 -10 175 -10C240 -10 298 51 341 127ZM220 0ZM181 0ZM288 495ZM176 653H410L418 687H184ZM288 745ZM288 495Z" glyph-name="emacron" horiz-adv-x="348.0053" unicode="&#275;" /><glyph d="M202 88 279 448H237L160 88ZM442 0C456 42 468 106 472 150C472 150 472 150 472 150H458C441 110 424 72 405 34C382 31 349 30 310 30H177L173 0ZM422 288 234 283 228 254 414 249ZM507 384C520 432 532 490 533 535H289L284 505H390C429 505 462 504 484 502C487 463 490 423 493 384ZM298 535H182L178 519L258 501L253 522L237 448H279ZM183 0 202 88H160L154 60C150 42 143 33 125 29L68 16L70 0ZM442 0ZM283 0ZM385 535ZM249 693H483L491 727H257ZM361 785ZM361 535Z" glyph-name="emacron.sc" horiz-adv-x="512.0754" /><glyph d="M89 250H783L791 285H97Z" glyph-name="emdash" horiz-adv-x="790.4214" unicode="&#8212;" /><glyph d="M104 322H798L806 357H112Z" glyph-name="emdash.caps" horiz-adv-x="790.1173" /><glyph d="M138 248H832L840 283H146Z" glyph-name="emdash.sc" horiz-adv-x="762.8465" /><glyph d="M89 250H520L527 285H97Z" glyph-name="endash" horiz-adv-x="526.8609" unicode="&#8211;" /><glyph d="M104 322H535L542 357H112Z" glyph-name="endash.caps" horiz-adv-x="526.5568" /><glyph d="M141 247H572L579 282H149Z" glyph-name="endash.sc" horiz-adv-x="499.4985" /><glyph d="M84 363C117 412 157 465 182 465C196 465 200 454 200 438C200 425 197 405 190 375C171 290 153 205 134 120H174L185 166C222 253 328 465 397 465C419 465 428 449 428 426C428 382 389 220 339 -20C312 -148 282 -222 214 -222C175 -222 144 -193 124 -165C115 -170 107 -181 107 -195C107 -227 142 -255 192 -255C287 -255 352 -159 383 -8C430 220 467 381 467 434C467 472 450 505 412 505C321 505 236 317 193 235L197 220C217 315 241 414 241 449C241 482 229 505 198 505C149 505 102 425 76 368ZM110 11C108 1 105 -10 115 -10C120 -10 128 -8 132 -7L148 -3L174 120H134ZM351 495ZM256 0Z" glyph-name="eng" horiz-adv-x="482" unicode="&#331;" /><glyph d="M496 0 506 49 287 536H182L178 520L259 500L251 511L162 91H197L283 495L264 491L485 0ZM566 444 490 86C468 -15 425 -63 374 -118L379 -133C457 -94 499 -41 520 60L601 444ZM164 42 181 15 197 91H162L155 59C151 42 146 33 127 29L69 17L71 0H265L268 16ZM599 493 582 520 566 444H601L608 476C612 493 617 502 636 506L694 518L692 535H498L495 519ZM418 535ZM348 0Z" glyph-name="eng.sc" horiz-adv-x="651" /><glyph d="M341 127 333 132C279 67 231 25 188 25C139 25 115 74 115 148C115 304 206 473 297 473C324 473 339 453 339 426C339 344 249 271 128 259L123 234C236 242 381 315 381 428C381 474 357 505 308 505C193 505 73 322 73 150C73 50 105 -10 175 -10C240 -10 298 51 341 127ZM220 0ZM181 0ZM288 495ZM220 0 199 17C100 -22 42 -91 42 -146C42 -184 60 -212 104 -212C158 -212 196 -152 216 -109L208 -104C180 -137 148 -172 116 -172C100 -172 85 -158 85 -135C85 -89 137 -31 220 0ZM220 0Z" glyph-name="eogonek" horiz-adv-x="348.0053" unicode="&#281;" /><glyph d="M202 88 279 448H237L160 88ZM442 0C456 42 468 106 472 150C472 150 472 150 472 150H458C441 110 424 72 405 34C382 31 349 30 310 30H177L173 0ZM422 288 234 283 228 254 414 249ZM507 384C520 432 532 490 533 535H289L284 505H390C429 505 462 504 484 502C487 463 490 423 493 384ZM298 535H182L178 519L258 501L253 522L237 448H279ZM183 0 202 88H160L154 60C150 42 143 33 125 29L68 16L70 0ZM442 0ZM283 0ZM385 535ZM442 0 421 17C322 -22 264 -91 264 -146C264 -184 282 -212 326 -212C380 -212 418 -152 438 -109L430 -104C402 -137 370 -172 338 -172C322 -172 307 -158 307 -135C307 -89 359 -31 442 0ZM442 0Z" glyph-name="eogonek.sc" horiz-adv-x="512.0754" /><glyph d="M539 336 551 368 545 376C451 376 232 374 142 371L134 336ZM498 143 510 175 504 183C410 183 191 181 101 178L93 143Z" glyph-name="equal" horiz-adv-x="560" unicode="=" /><glyph d="M557 419 569 451 563 459C469 459 250 457 160 454L152 419ZM516 226 528 258 522 266C428 266 209 264 119 261L111 226Z" glyph-name="equal.lf" horiz-adv-x="560" /><glyph d="M539 336 551 368 545 376C451 376 232 374 142 371L134 336ZM498 143 510 175 504 183C410 183 191 181 101 178L93 143Z" glyph-name="equal.osf" horiz-adv-x="560" /><glyph d="M539 336 551 368 545 376C451 376 232 374 142 371L134 336ZM498 143 510 175 504 183C410 183 191 181 101 178L93 143Z" glyph-name="equal.sc" horiz-adv-x="560" /><glyph d="M208 -10C334 -10 416 178 415 329C414 559 351 686 207 752L196 734C323 665 378 542 378 324L390 333C390 448 360 505 300 505C196 505 95 342 95 163C95 62 139 -10 208 -10ZM300 473C353 473 373 411 373 329C373 171 303 22 214 22C167 22 137 78 137 169C137 311 211 473 300 473ZM469 673 462 698 153 570 160 545Z" glyph-name="eth" horiz-adv-x="411.9101" unicode="&#240;" /><glyph d="M242 0C462 0 585 170 582 343C580 464 493 535 350 535H290L284 505H341C470 505 535 442 537 340C539 182 431 30 244 30H179L173 0ZM202 88 278 448H236L160 88ZM297 535H181L177 519L257 501L252 522L236 448H278ZM183 0 202 88H160L154 60C150 42 143 33 125 29L68 16L70 0ZM258 259ZM301 0ZM407 536ZM384.72 259 389.88 289H89.74L84.58 259ZM234.22 259Z" glyph-name="eth.sc" horiz-adv-x="585.4364" /><glyph d="M341 127 333 132C279 67 231 25 188 25C139 25 115 74 115 148C115 304 206 473 297 473C324 473 339 453 339 426C339 344 249 271 128 259L123 234C236 242 381 315 381 428C381 474 357 505 308 505C193 505 73 322 73 150C73 50 105 -10 175 -10C240 -10 298 51 341 127ZM220 0ZM181 0ZM288 495ZM231 689C266 688 328 629 380 629C423 629 454 665 483 729L475 734C438 691 417 668 406 664C366 665 309 724 257 724C214 724 183 688 154 624L162 619C199 662 220 685 231 689ZM357 745ZM288 495Z" glyph-name="etilde" horiz-adv-x="348.0053" unicode="&#7869;" /><glyph d="M202 88 279 448H237L160 88ZM442 0C456 42 468 106 472 150C472 150 472 150 472 150H458C441 110 424 72 405 34C382 31 349 30 310 30H177L173 0ZM422 288 234 283 228 254 414 249ZM507 384C520 432 532 490 533 535H289L284 505H390C429 505 462 504 484 502C487 463 490 423 493 384ZM298 535H182L178 519L258 501L253 522L237 448H279ZM183 0 202 88H160L154 60C150 42 143 33 125 29L68 16L70 0ZM442 0ZM283 0ZM385 535ZM304 729C339 728 401 669 453 669C496 669 527 705 556 769L548 774C511 731 490 708 479 704C439 705 382 764 330 764C287 764 256 728 227 664L235 659C272 702 293 725 304 729ZM430 785ZM361 535Z" glyph-name="etilde.sc" horiz-adv-x="512.0754" /><glyph d="M495 127 487 132C430 67 371 25 317 25C238 25 203 86 203 182C203 351 313 513 428 513C476 513 512 484 512 422C512 408 509 394 506 384C509 383 512 382 515 382C534 382 550 406 550 441C547 507 502 545 442 545C297 545 161 377 161 182C161 61 205 -10 310 -10C395 -10 451 53 495 127ZM411 189 423 224H97L84 189ZM435 299 447 334H120L108 299Z" glyph-name="euro" horiz-adv-x="536.0053" unicode="&#8364;" /><glyph d="M539 141 531 146C467 73 405 27 346 27C269 27 229 89 229 194C229 407 356 661 505 661C557 661 575 628 575 581C575 547 565 513 556 493C559 491 563 489 569 489C600 489 619 545 619 585C619 649 583 695 518 695C343 695 184 439 184 191C184 62 238 -10 335 -10C423 -10 493 60 539 141ZM491 232 506 267H109L94 232ZM519 365 534 400H137L122 365Z" glyph-name="euro.lf" horiz-adv-x="577.0295" /><glyph d="M495 127 487 132C430 67 371 25 317 25C238 25 203 86 203 182C203 351 313 513 428 513C476 513 512 484 512 422C512 408 509 394 506 384C509 383 512 382 515 382C534 382 550 406 550 441C547 507 502 545 442 545C297 545 161 377 161 182C161 61 205 -10 310 -10C395 -10 451 53 495 127ZM411 189 423 224H97L84 189ZM435 299 447 334H120L108 299Z" glyph-name="euro.osf" horiz-adv-x="536.0053" /><glyph d="M484 127 476 132C419 67 360 25 306 25C227 25 192 86 192 182C192 351 302 513 417 513C465 513 501 484 501 422C501 408 498 394 495 384C498 383 501 382 504 382C523 382 539 406 539 441C536 507 491 545 431 545C286 545 150 377 150 182C150 61 194 -10 299 -10C384 -10 440 53 484 127ZM400 189 412 224H86L73 189ZM424 299 436 334H109L97 299Z" glyph-name="euro.sc" horiz-adv-x="499.0053" /><glyph d="M533 141 525 146C463 73 402 27 345 27C271 27 233 89 233 194C233 407 358 661 504 661C552 661 569 628 569 581C569 547 559 513 550 493C553 491 557 489 563 489C594 489 613 545 613 585C613 649 579 695 517 695C345 695 188 439 188 191C188 62 240 -10 334 -10C420 -10 488 60 533 141ZM485 232 500 267H123L108 232ZM513 365 528 400H151L136 365Z" glyph-name="euro.tf" horiz-adv-x="560" /><glyph d="M591 127 583 132C526 67 467 25 413 25C334 25 299 86 299 182C299 351 409 513 524 513C572 513 608 484 608 422C608 408 605 394 602 384C605 383 608 382 611 382C630 382 646 406 646 441C646 507 598 545 538 545C393 545 257 377 257 182C257 61 301 -10 406 -10C491 -10 547 53 591 127ZM507 189 519 224H197L184 189ZM531 299 543 334H220L208 299Z" glyph-name="euro.tf.sc" horiz-adv-x="560" /><glyph d="M520 127 512 132C455 67 396 25 342 25C263 25 228 86 228 182C228 351 338 513 453 513C501 513 537 484 537 422C537 408 534 394 531 384C534 383 537 382 540 382C559 382 575 406 575 441C575 507 527 545 467 545C322 545 186 377 186 182C186 61 230 -10 335 -10C420 -10 476 53 520 127ZM436 189 448 224H126L113 189ZM460 299 472 334H149L137 299Z" glyph-name="euro.tosf" horiz-adv-x="560" /><glyph d="M238 686 147 190H175L281 616C293 659 298 680 298 684C298 690 294 693 286 693C273 693 256 692 242 689ZM127 -10C152 -10 171 16 171 50C171 68 159 80 142 80C117 80 98 54 98 21C98 2 110 -10 127 -10ZM160 202ZM118 -43Z" glyph-name="exclam" horiz-adv-x="278.3163" unicode="!" /><glyph d="M238 686 147 190H175L281 616C293 659 298 680 298 684C298 690 294 693 286 693C273 693 256 692 242 689ZM127 -10C152 -10 171 16 171 50C171 68 159 80 142 80C117 80 98 54 98 21C98 2 110 -10 127 -10ZM160 202ZM118 -43Z" glyph-name="exclam.caps" horiz-adv-x="278.3163" /><glyph d="M161 190 239 468C251 511 257 532 257 536C257 542 253 545 245 545C232 545 215 544 201 541L197 538L133 190ZM113 -10C138 -10 157 16 157 50C157 68 145 80 128 80C103 80 84 54 84 21C84 2 96 -10 113 -10ZM146 202ZM104 -43Z" glyph-name="exclam.sc" horiz-adv-x="250.3163" /><glyph d="M122 -191 213 305H185L79 -121C67 -164 62 -185 62 -189C62 -195 66 -198 74 -198C87 -198 104 -197 118 -194ZM233 505C208 505 189 479 189 445C189 427 201 415 218 415C243 415 262 441 262 474C262 493 250 505 233 505ZM200 293ZM242 538Z" glyph-name="exclamdown" horiz-adv-x="279.097" unicode="&#161;" /><glyph d="M162 -1 253 495H225L119 69C107 26 102 5 102 1C102 -5 106 -8 114 -8C127 -8 144 -7 158 -4ZM273 695C248 695 229 669 229 635C229 617 241 605 258 605C283 605 302 631 302 664C302 683 290 695 273 695ZM240 483ZM282 728Z" glyph-name="exclamdown.caps" horiz-adv-x="278.7112" /><glyph d="M245 345 167 67C155 24 149 3 149 -1C149 -7 153 -10 161 -10C174 -10 191 -9 205 -6L209 -3L273 345ZM293 545C268 545 249 519 249 485C249 467 261 455 278 455C303 455 322 481 322 514C322 533 310 545 293 545ZM260 333ZM302 578Z" glyph-name="exclamdown.sc" horiz-adv-x="316.5947" /><glyph d="M138 -8 249 520C276 648 306 722 374 722C413 722 444 693 464 665C473 670 481 681 481 695C481 727 446 755 396 755C305 755 239 665 206 508L94 -20C67 -148 37 -222 -31 -222C-70 -222 -101 -193 -121 -165C-130 -170 -138 -181 -138 -195C-138 -227 -103 -255 -53 -255C42 -255 106 -158 138 -8ZM367 460 373 490H207H202L126 472L124 460Z" glyph-name="f" horiz-adv-x="292.0356" unicode="f" /><glyph d="M73 -76 157 336C177 435 199 493 252 493C283 493 307 470 323 448C331 452 337 461 337 472C337 498 309 520 270 520C198 520 146 449 121 327L37 -85C16 -185 -7 -243 -60 -243C-90 -243 -114 -220 -130 -198C-139 -203 -143 -211 -143 -222C-143 -247 -116 -269 -76 -269C-2 -269 49 -194 73 -76ZM249 289 254 313H122H118L59 298L57 289Z" glyph-name="f.inferior" horiz-adv-x="195.3333" /><glyph d="M203 91 278 448H236L161 91ZM423 276 234 272 229 242 414 237ZM509 384C521 432 534 490 535 535H291L285 505H392C426 505 464 504 485 502C488 463 492 423 495 384ZM191 35 203 91H161L153 59C149 42 143 34 125 28L70 16L72 0H276L280 16ZM297 535H181L177 519L257 501L252 522L236 448H278Z" glyph-name="f.sc" horiz-adv-x="462.5041" /><glyph d="M164 353 248 765C268 864 290 922 343 922C374 922 398 899 414 877C422 881 428 890 428 901C428 927 400 949 361 949C289 949 237 878 212 756L128 344C107 244 84 186 31 186C1 186 -23 209 -39 231C-48 226 -52 218 -52 207C-52 182 -25 160 15 160C89 160 140 235 164 353ZM340 718 345 742H213H209L150 727L148 718Z" glyph-name="f.superior" horiz-adv-x="195" /><glyph d="M138 -8 249 520C274 637 318 702 400 702C455 702 490 667 503 633C513 635 529 639 529 653C529 686 482 735 417 735C317 735 237 653 206 508L94 -20C67 -148 37 -222 -31 -222C-70 -222 -101 -193 -121 -165C-130 -170 -138 -181 -138 -195C-138 -227 -103 -255 -53 -255C42 -255 106 -158 138 -8ZM390 -8 501 520C528 648 558 722 626 722C665 722 696 693 716 665C725 670 733 681 733 695C733 727 698 755 648 755C557 755 491 665 458 508L346 -20C319 -148 295 -222 234 -222C202 -222 177 -193 161 -165C152 -170 144 -181 144 -195C144 -227 173 -255 214 -255C302 -255 358 -158 390 -8ZM619 460 625 490H207H202L126 472L124 460Z" glyph-name="f_f" horiz-adv-x="544" unicode="&#64256;" /><glyph d="M138 -8 249 520C273 635 318 702 400 702C455 702 490 667 503 633C513 635 529 639 529 653C529 686 482 735 417 735C317 735 236 651 206 508L94 -20C67 -148 37 -222 -31 -222C-70 -222 -101 -193 -121 -165C-130 -170 -138 -181 -138 -195C-138 -227 -103 -255 -53 -255C42 -255 106 -158 138 -8ZM390 -8 501 520C528 649 566 722 644 722C695 722 718 681 726 625C748 622 760 638 760 658C760 711 715 755 659 755C563 755 491 665 458 508L346 -20C319 -148 295 -222 234 -222C202 -222 177 -193 161 -165C152 -170 144 -181 144 -195C144 -227 173 -255 214 -255C302 -255 358 -158 390 -8ZM645 460 659 490H207H202L126 472L124 460ZM662 120C681 206 731 384 731 434C731 467 711 490 659 490L645 460C675 460 690 450 690 423C690 385 642 214 622 120ZM662 120H622C615 86 611 63 611 46C611 13 623 -10 654 -10C703 -10 750 70 776 127L768 132C735 83 695 30 670 30C656 30 652 41 652 57C652 70 656 90 662 120Z" glyph-name="f_f_i" horiz-adv-x="738" unicode="&#64259;" /><glyph d="M138 -8 249 520C273 635 318 702 400 702C455 702 490 667 503 633C513 635 529 639 529 653C529 686 482 735 417 735C317 735 236 651 206 508L94 -20C67 -148 37 -222 -31 -222C-70 -222 -101 -193 -121 -165C-130 -170 -138 -181 -138 -195C-138 -227 -103 -255 -53 -255C42 -255 106 -158 138 -8ZM645 460 659 490H207H202L126 472L124 460ZM390 -8 501 520C527 648 577 722 668 722C702 722 729 707 746 686C755 691 763 702 763 716C763 737 733 755 690 755C579 755 491 665 458 508L346 -20C319 -148 289 -222 221 -222C182 -222 151 -193 131 -165C122 -170 114 -181 114 -195C114 -227 149 -255 199 -255C294 -255 358 -158 390 -8ZM661 120 798 746 790 754C769 749 749 743 728 737L750 706L621 120ZM661 120H621C614 86 610 63 610 46C610 13 622 -10 653 -10C702 -10 749 70 775 127L767 132C734 83 694 30 669 30C655 30 651 41 651 57C651 70 655 90 661 120Z" glyph-name="f_f_l" horiz-adv-x="769" unicode="&#64260;" /><glyph d="M138 -8 249 520C280 648 314 722 392 722C443 722 466 681 474 625C496 622 508 638 508 658C508 711 463 755 407 755C311 755 241 665 206 508L94 -20C67 -148 37 -222 -31 -222C-70 -222 -101 -193 -121 -165C-130 -170 -138 -181 -138 -195C-138 -227 -103 -255 -53 -255C42 -255 106 -158 138 -8ZM393 460 407 490H207H202L126 472L124 460ZM410 120C429 206 479 384 479 434C479 467 459 490 407 490L393 460C423 460 438 450 438 423C438 385 390 214 370 120ZM410 120H370C363 86 359 63 359 46C359 13 371 -10 402 -10C451 -10 498 70 524 127L516 132C483 83 443 30 418 30C404 30 400 41 400 57C400 70 404 90 410 120Z" glyph-name="f_i" horiz-adv-x="486" /><glyph d="M138 -8 249 520C275 648 325 722 416 722C450 722 477 707 494 686C503 691 511 702 511 716C511 737 481 755 438 755C327 755 239 665 206 508L94 -20C67 -148 37 -222 -31 -222C-70 -222 -101 -193 -121 -165C-130 -170 -138 -181 -138 -195C-138 -227 -103 -255 -53 -255C42 -255 106 -158 138 -8ZM367 460 373 490H207H202L126 472L124 460ZM409 120 546 746 538 754C517 749 497 743 476 737L498 706L369 120ZM409 120H369C362 86 358 63 358 46C358 13 370 -10 401 -10C450 -10 497 70 523 127L515 132C482 83 442 30 417 30C403 30 399 41 399 57C399 70 403 90 409 120Z" glyph-name="f_l" horiz-adv-x="518" /><glyph d="M138 -8 249 520C280 648 314 722 392 722C443 722 466 681 474 625C496 622 508 638 508 658C508 711 463 755 407 755C311 755 241 665 206 508L94 -20C67 -148 37 -222 -31 -222C-70 -222 -101 -193 -121 -165C-130 -170 -138 -181 -138 -195C-138 -227 -103 -255 -53 -255C42 -255 106 -158 138 -8ZM393 460 407 490H207H202L126 472L124 460ZM410 120C429 206 479 384 479 434C479 467 459 490 407 490L393 460C423 460 438 450 438 423C438 385 390 214 370 120ZM410 120H370C363 86 359 63 359 46C359 13 371 -10 402 -10C451 -10 498 70 524 127L516 132C483 83 443 30 418 30C404 30 400 41 400 57C400 70 404 90 410 120Z" glyph-name="fi" horiz-adv-x="486" unicode="&#64257;" /><glyph glyph-name="figurespace" horiz-adv-x="520" unicode="&#8199;" /><glyph d="M391 99C391 189 322 245 211 245C164 245 125 239 95 229L117 225L182 516L168 504C251 496 327 492 384 492C433 492 439 523 453 583L444 586C426 551 409 531 373 531C295 531 228 536 150 539L77 212L87 202C120 210 163 215 203 215C299 215 349 173 349 94C349 -28 189 -119 -1 -136L5 -160C226 -146 391 -36 391 99Z" glyph-name="five" horiz-adv-x="433.6411" unicode="5" /><glyph d="M309 138C309 195 263 230 189 230C159 230 133 227 113 220L128 211L164 376L153 368C209 364 262 361 302 361C336 361 340 381 350 419L343 420C331 400 320 389 296 389C242 389 195 392 140 393L99 202L105 196C127 202 155 205 181 205C243 205 275 180 275 135C275 69 170 20 46 8L49 -10C202 -1 309 60 309 138Z" glyph-name="five.denominator" horiz-adv-x="349.5541" /><glyph d="M423 249C423 339 354 395 243 395C196 395 157 389 127 379L149 375L214 666L200 654C283 646 359 642 416 642C465 642 471 673 485 733L476 736C458 701 441 681 405 681C327 681 260 686 182 689L109 362L119 352C152 360 195 365 235 365C331 365 381 323 381 244C381 122 221 31 31 14L37 -10C258 4 423 114 423 249Z" glyph-name="five.lf" horiz-adv-x="433.7576" /><glyph d="M372 434C372 491 326 526 252 526C222 526 196 523 176 516L191 507L227 672L216 664C272 660 325 657 365 657C399 657 403 677 413 715L406 716C394 696 383 685 359 685C305 685 258 688 203 689L162 498L168 492C190 498 218 501 244 501C306 501 338 476 338 431C338 365 233 316 109 304L112 286C265 295 372 356 372 434Z" glyph-name="five.numerator" horiz-adv-x="349.6374" /><glyph d="M391 99C391 189 322 245 211 245C164 245 125 239 95 229L117 225L182 516L168 504C251 496 327 492 384 492C433 492 439 523 453 583L444 586C426 551 409 531 373 531C295 531 228 536 150 539L77 212L87 202C120 210 163 215 203 215C299 215 349 173 349 94C349 -28 189 -119 -1 -136L5 -160C226 -146 391 -36 391 99Z" glyph-name="five.osf" horiz-adv-x="433.6411" /><glyph d="M365 194C364 266 304 311 209 311C170 311 137 306 111 298L133 290L182 517L167 506C237 499 304 496 354 496C397 496 403 523 414 576L406 579C391 550 377 535 346 535C279 535 219 539 150 542L94 280L102 272C130 278 166 282 200 282C279 282 322 250 323 190C325 98 190 30 31 14L37 -10C228 2 366 86 365 194Z" glyph-name="five.sc" horiz-adv-x="386.796" /><glyph d="M495 249C495 339 424 395 311 395C262 395 221 389 189 379L211 375L276 666L262 654C349 646 428 642 488 642C537 642 543 673 557 733L548 736C530 701 513 681 477 681C396 681 325 686 244 689L171 362L181 352C216 360 261 365 303 365C402 365 453 323 453 244C453 122 288 31 93 14L99 -10C326 4 495 114 495 249Z" glyph-name="five.tf" horiz-adv-x="560" /><glyph d="M475 194C474 266 406 311 299 311C260 311 227 306 191 293L213 285L262 517L247 506C334 499 409 496 464 496C507 496 513 523 524 576L516 579C501 550 487 535 456 535C382 535 316 539 230 542L174 275L182 267C220 278 256 282 290 282C382 282 432 250 433 190C435 98 291 30 111 14L117 -10C330 2 476 86 475 194Z" glyph-name="five.tf.sc" horiz-adv-x="560" /><glyph d="M506 99C506 189 429 245 306 245C251 245 205 239 170 229L192 225L257 516L243 504C341 496 431 492 499 492C548 492 554 523 568 583L559 586C541 551 524 531 488 531C396 531 317 536 225 539L152 208L162 198C201 209 251 215 298 215C407 215 464 173 464 94C464 -28 286 -119 74 -136L80 -160C324 -146 506 -36 506 99Z" glyph-name="five.tosf" horiz-adv-x="560" /><glyph d="M293 62C293 119 247 154 173 154C143 154 117 151 97 144L112 135L148 300L137 292C193 288 246 285 286 285C320 285 324 305 334 343L327 344C315 324 304 313 280 313C226 313 179 316 124 317L83 126L89 120C111 126 139 129 165 129C227 129 259 104 259 59C259 -7 154 -56 30 -68L33 -86C186 -77 293 -16 293 62Z" glyph-name="fiveinferior" horiz-adv-x="349.7084" /><glyph d="M384 494C384 551 338 586 264 586C234 586 208 583 188 576L203 567L239 732L228 724C284 720 337 717 377 717C411 717 415 737 425 775L418 776C406 756 395 745 371 745C317 745 270 748 215 749L174 558L180 552C202 558 230 561 256 561C318 561 350 536 350 491C350 425 245 376 121 364L124 346C277 355 384 416 384 494Z" glyph-name="fivesuperior" horiz-adv-x="348.884" unicode="&#8309;" /><glyph d="M138 -8 249 520C275 648 325 722 416 722C450 722 477 707 494 686C503 691 511 702 511 716C511 737 481 755 438 755C327 755 239 665 206 508L94 -20C67 -148 37 -222 -31 -222C-70 -222 -101 -193 -121 -165C-130 -170 -138 -181 -138 -195C-138 -227 -103 -255 -53 -255C42 -255 106 -158 138 -8ZM367 460 373 490H207H202L126 472L124 460ZM409 120 546 746 538 754C517 749 497 743 476 737L498 706L369 120ZM409 120H369C362 86 358 63 358 46C358 13 370 -10 401 -10C450 -10 497 70 523 127L515 132C482 83 442 30 417 30C403 30 399 41 399 57C399 70 403 90 409 120Z" glyph-name="fl" horiz-adv-x="518" unicode="&#64258;" /><glyph d="M209 112 266 380C293 508 328 582 401 582C452 582 485 544 501 481C515 485 528 495 528 517C528 563 481 615 413 615C318 615 254 518 222 368L165 100C138 -26 108 -102 40 -102C1 -102 -30 -73 -50 -45C-59 -50 -67 -61 -67 -75C-67 -107 -32 -135 18 -135C113 -135 177 -37 209 112ZM406 288 414 323H67L59 288Z" glyph-name="florin" horiz-adv-x="420.213" unicode="&#402;" /><glyph d="M183 -8 283 460C312 588 345 662 418 662C469 662 502 624 518 561C532 565 545 575 545 597C545 643 498 695 430 695C335 695 270 598 239 448L139 -20C112 -148 82 -222 14 -222C-25 -222 -56 -193 -76 -165C-85 -170 -93 -181 -93 -195C-93 -227 -58 -255 -8 -255C87 -255 151 -158 183 -8ZM435 298 443 333H96L88 298Z" glyph-name="florin.lf" horiz-adv-x="455.2085" /><glyph d="M209 112 266 380C293 508 328 582 401 582C452 582 485 544 501 481C515 485 528 495 528 517C528 563 481 615 413 615C318 615 254 518 222 368L165 100C138 -26 108 -102 40 -102C1 -102 -30 -73 -50 -45C-59 -50 -67 -61 -67 -75C-67 -107 -32 -135 18 -135C113 -135 177 -37 209 112ZM406 288 414 323H67L59 288Z" glyph-name="florin.osf" horiz-adv-x="455.213" /><glyph d="M234 112 291 380C318 508 353 582 426 582C477 582 510 544 526 481C540 485 553 495 553 517C553 563 506 615 438 615C343 615 279 518 247 368L190 100C163 -26 133 -102 65 -102C26 -102 -5 -73 -25 -45C-34 -50 -42 -61 -42 -75C-42 -107 -7 -135 43 -135C138 -135 202 -37 234 112ZM431 288 439 323H92L84 288Z" glyph-name="florin.sc" horiz-adv-x="461.213" /><glyph d="M243 -8 343 460C372 588 405 662 478 662C529 662 562 624 578 561C592 565 605 575 605 597C605 643 558 695 490 695C395 695 330 598 299 448L199 -20C172 -148 142 -222 74 -222C35 -222 4 -193 -16 -165C-25 -170 -33 -181 -33 -195C-33 -227 2 -255 52 -255C147 -255 211 -158 243 -8ZM495 298 503 333H156L148 298Z" glyph-name="florin.tf" horiz-adv-x="560" /><glyph d="M374 112 431 380C458 508 492 582 564 582C614 582 646 544 662 481C676 485 689 495 689 517C689 563 643 615 576 615C482 615 419 518 387 368L330 100C303 -26 273 -102 205 -102C166 -102 135 -73 115 -45C106 -50 98 -61 98 -75C98 -107 133 -135 183 -135C278 -135 342 -37 374 112ZM569 288 577 323H232L224 288Z" glyph-name="florin.tf.sc" horiz-adv-x="560" /><glyph d="M303 112 360 380C387 508 421 582 493 582C543 582 575 544 591 481C605 485 618 495 618 517C618 563 572 615 505 615C411 615 348 518 316 368L259 100C232 -26 202 -102 134 -102C95 -102 64 -73 44 -45C35 -50 27 -61 27 -75C27 -107 62 -135 112 -135C207 -135 271 -37 303 112ZM498 288 506 323H161L153 288Z" glyph-name="florin.tosf" horiz-adv-x="560" /><glyph d="M467 540 23 54 30 30 502 26 512 66 62 61 63 52 477 514 451 511 310 -150H350L495 535Z" glyph-name="four" horiz-adv-x="549.9713" unicode="4" /><glyph d="M346 399 69 117 74 102 371 100 378 126 97 123 101 117 354 380 333 378 252 0H285L369 396Z" glyph-name="four.denominator" horiz-adv-x="419.2179" /><glyph d="M499 690 55 204 62 180 534 176 544 216 94 211 95 202 509 664 483 661 342 0H382L527 685Z" glyph-name="four.lf" horiz-adv-x="550.0878" /><glyph d="M409 695 132 413 137 398 434 396 441 422 160 419 164 413 417 676 396 674 315 296H348L432 692Z" glyph-name="four.numerator" horiz-adv-x="419.3011" /><glyph d="M467 540 23 54 30 30 502 26 512 66 62 61 63 52 477 514 451 511 310 -150H350L495 535Z" glyph-name="four.osf" horiz-adv-x="549.9713" /><glyph d="M416 545 46 161 51 140 455 136 463 172 80 167 89 160 412 497 398 517 288 0H329L444 540Z" glyph-name="four.sc" horiz-adv-x="478.4403" /><glyph d="M527 690 86 204 93 180 528 176 538 216 125 211 126 202 537 664 511 661 370 0H410L555 685Z" glyph-name="four.tf" horiz-adv-x="560" /><glyph d="M385 0 500 540 472 545 83 161 88 140 495 136 503 172 117 167 126 159 467 498 455 517 345 0Z" glyph-name="four.tf.sc" horiz-adv-x="560" /><glyph d="M485 540 44 54 51 30 486 26 496 66 83 61 84 52 495 514 469 511 328 -150H368L513 535Z" glyph-name="four.tosf" horiz-adv-x="560" /><glyph d="M330 323 53 41 58 26 355 24 362 50 81 47 85 41 338 304 317 302 236 -76H269L353 320Z" glyph-name="fourinferior" horiz-adv-x="419.3722" /><glyph d="M422 755 145 473 150 458 447 456 454 482 173 479 177 473 430 736 409 734 328 356H361L445 752Z" glyph-name="foursuperior" horiz-adv-x="419.5477" unicode="&#8308;" /><glyph d="M501 695H461L-110 -10H-71Z" glyph-name="fraction" horiz-adv-x="269.2732" unicode="&#8260;" /><glyph d="M265 505C168 505 85 401 85 280C85 203 129 153 193 153C205 153 221 155 241 160L232 175C164 113 119 85 119 52C119 20 154 3 200 -25C258 -60 285 -83 285 -118C285 -177 224 -223 135 -223C70 -223 10 -195 10 -138C10 -99 32 -67 59 -36L51 -28C0 -65 -32 -103 -32 -149C-32 -206 26 -255 119 -255C258 -255 327 -173 327 -111C327 -59 284 -32 209 15C179 34 162 44 162 62C162 113 360 192 360 382C360 431 344 472 294 497L290 487C349 475 389 468 412 468C440 468 450 484 450 500C450 506 448 513 445 518C405 508 341 505 265 505ZM127 289C127 381 184 475 252 475C294 475 318 438 318 381C318 272 261 181 201 181C159 181 127 223 127 289ZM270 492ZM118 -248Z" glyph-name="g" horiz-adv-x="364.5822" unicode="g" /><glyph d="M188 324C113 324 48 245 48 153C48 90 82 49 134 49C143 49 156 51 171 54L165 66C111 19 76 -3 76 -28C76 -55 103 -68 140 -90C187 -118 207 -136 207 -165C207 -209 159 -244 91 -244C40 -244 -7 -221 -7 -176C-7 -146 9 -122 30 -98L23 -92C-15 -119 -41 -149 -41 -184C-41 -230 4 -269 78 -269C187 -269 241 -205 241 -156C241 -115 207 -94 148 -58C125 -44 111 -35 111 -21C111 19 264 79 264 228C264 266 251 298 212 317L209 310C255 300 286 295 304 295C326 295 334 307 334 320C334 325 332 330 330 334C298 327 248 324 188 324ZM82 157C82 229 126 301 178 301C211 301 229 272 230 228C230 143 187 71 140 71C106 71 82 105 82 157Z" glyph-name="g.inferior" horiz-adv-x="287.7413" /><glyph d="M442 14 473 163H433L403 21L419 39C396 30 366 25 333 25C205 25 140 105 140 213C140 383 268 510 425 510C458 510 477 508 498 502C501 463 504 423 507 384H521C534 422 545 485 548 524C512 539 477 545 433 545C244 545 96 401 96 213C96 72 188 -10 328 -10C380 -10 413 -1 442 14ZM473 163 479 191C483 209 489 220 507 223L565 234L563 250H376L373 234L444 215L433 163ZM385 535ZM314 0Z" glyph-name="g.sc" horiz-adv-x="549.2618" /><glyph d="M280 753C205 753 140 674 140 582C140 519 174 478 226 478C235 478 248 480 263 483L257 495C203 448 168 426 168 401C168 374 195 361 232 339C279 311 299 293 299 264C299 220 251 185 183 185C132 185 85 208 85 253C85 283 101 307 122 331L115 337C77 310 51 280 51 245C51 199 96 160 170 160C279 160 333 224 333 273C333 314 299 335 240 371C217 385 203 394 203 408C203 448 356 508 356 657C356 695 343 727 304 746L301 739C347 729 378 724 396 724C418 724 426 736 426 749C426 754 424 759 422 763C390 756 340 753 280 753ZM174 586C174 658 218 730 270 730C303 730 321 701 322 657C322 572 279 500 232 500C198 500 174 534 174 586Z" glyph-name="g.superior" horiz-adv-x="288.5546" /><glyph d="M265 505C168 505 85 401 85 280C85 203 129 153 193 153C205 153 221 155 241 160L232 175C164 113 119 85 119 52C119 20 154 3 200 -25C258 -60 285 -83 285 -118C285 -177 224 -223 135 -223C70 -223 10 -195 10 -138C10 -99 32 -67 59 -36L51 -28C0 -65 -32 -103 -32 -149C-32 -206 26 -255 119 -255C258 -255 327 -173 327 -111C327 -59 284 -32 209 15C179 34 162 44 162 62C162 113 360 192 360 382C360 431 344 472 294 497L290 487C349 475 389 468 412 468C440 468 450 484 450 500C450 506 448 513 445 518C405 508 341 505 265 505ZM127 289C127 381 184 475 252 475C294 475 318 438 318 381C318 272 261 181 201 181C159 181 127 223 127 289ZM270 492ZM118 -248ZM398 751C367 711 294 647 223 593L232 578C315 623 435 693 435 733C435 745 424 753 408 753C407 753 405 753 404 753ZM346 742ZM292 492Z" glyph-name="gacute" horiz-adv-x="364.5822" unicode="&#501;" /><glyph d="M442 14 473 163H433L403 21L419 39C396 30 366 25 333 25C205 25 140 105 140 213C140 383 268 510 425 510C458 510 477 508 498 502C501 463 504 423 507 384H521C534 422 545 485 548 524C512 539 477 545 433 545C244 545 96 401 96 213C96 72 188 -10 328 -10C380 -10 413 -1 442 14ZM473 163 479 191C483 209 489 220 507 223L565 234L563 250H376L373 234L444 215L433 163ZM385 535ZM314 0ZM504 794C473 754 400 690 329 636L338 621C421 666 541 736 541 776C541 788 530 796 514 796C513 796 511 796 510 796ZM452 785ZM398 535Z" glyph-name="gacute.sc" horiz-adv-x="549.2618" /><glyph d="M265 505C168 505 85 401 85 280C85 203 129 153 193 153C205 153 221 155 241 160L232 175C164 113 119 85 119 52C119 20 154 3 200 -25C258 -60 285 -83 285 -118C285 -177 224 -223 135 -223C70 -223 10 -195 10 -138C10 -99 32 -67 59 -36L51 -28C0 -65 -32 -103 -32 -149C-32 -206 26 -255 119 -255C258 -255 327 -173 327 -111C327 -59 284 -32 209 15C179 34 162 44 162 62C162 113 360 192 360 382C360 431 344 472 294 497L290 487C349 475 389 468 412 468C440 468 450 484 450 500C450 506 448 513 445 518C405 508 341 505 265 505ZM127 289C127 381 184 475 252 475C294 475 318 438 318 381C318 272 261 181 201 181C159 181 127 223 127 289ZM270 492ZM118 -248ZM430 725C400 675 357 645 312 645C263 645 232 676 228 727L211 724C208 647 241 602 300 602C363 602 415 647 448 724L434 727ZM331 742ZM292 492Z" glyph-name="gbreve" horiz-adv-x="364.5822" unicode="&#287;" /><glyph d="M442 14 473 163H433L403 21L419 39C396 30 366 25 333 25C205 25 140 105 140 213C140 383 268 510 425 510C458 510 477 508 498 502C501 463 504 423 507 384H521C534 422 545 485 548 524C512 539 477 545 433 545C244 545 96 401 96 213C96 72 188 -10 328 -10C380 -10 413 -1 442 14ZM473 163 479 191C483 209 489 220 507 223L565 234L563 250H376L373 234L444 215L433 163ZM385 535ZM314 0ZM536 768C506 718 463 688 418 688C369 688 338 719 334 770L317 767C314 690 347 645 406 645C469 645 521 690 554 767L540 770ZM437 785ZM398 535Z" glyph-name="gbreve.sc" horiz-adv-x="549.2618" /><glyph d="M265 505C168 505 85 401 85 280C85 203 129 153 193 153C205 153 221 155 241 160L232 175C164 113 119 85 119 52C119 20 154 3 200 -25C258 -60 285 -83 285 -118C285 -177 224 -223 135 -223C70 -223 10 -195 10 -138C10 -99 32 -67 59 -36L51 -28C0 -65 -32 -103 -32 -149C-32 -206 26 -255 119 -255C258 -255 327 -173 327 -111C327 -59 284 -32 209 15C179 34 162 44 162 62C162 113 360 192 360 382C360 431 344 472 294 497L290 487C349 475 389 468 412 468C440 468 450 484 450 500C450 506 448 513 445 518C405 508 341 505 265 505ZM127 289C127 381 184 475 252 475C294 475 318 438 318 381C318 272 261 181 201 181C159 181 127 223 127 289ZM270 492ZM118 -248ZM302 612 328 614C292 655 258 707 231 747L215 737C242 677 270 619 290 583H331L337 587C359 616 425 689 472 735L462 747C412 709 331 641 302 612ZM346 742ZM292 492Z" glyph-name="gcaron" horiz-adv-x="364.5822" unicode="&#487;" /><glyph d="M442 14 473 163H433L403 21L419 39C396 30 366 25 333 25C205 25 140 105 140 213C140 383 268 510 425 510C458 510 477 508 498 502C501 463 504 423 507 384H521C534 422 545 485 548 524C512 539 477 545 433 545C244 545 96 401 96 213C96 72 188 -10 328 -10C380 -10 413 -1 442 14ZM473 163 479 191C483 209 489 220 507 223L565 234L563 250H376L373 234L444 215L433 163ZM385 535ZM314 0ZM408 655 434 657C398 698 364 750 337 790L321 780C348 720 376 662 396 626H437L443 630C465 659 531 732 578 778L568 790C518 752 437 684 408 655ZM452 785ZM398 535Z" glyph-name="gcaron.sc" horiz-adv-x="549.2618" /><glyph d="M265 505C168 505 85 401 85 280C85 203 129 153 193 153C205 153 221 155 241 160L232 175C164 113 119 85 119 52C119 20 154 3 200 -25C258 -60 285 -83 285 -118C285 -177 224 -223 135 -223C70 -223 10 -195 10 -138C10 -99 32 -67 59 -36L51 -28C0 -65 -32 -103 -32 -149C-32 -206 26 -255 119 -255C258 -255 327 -173 327 -111C327 -59 284 -32 209 15C179 34 162 44 162 62C162 113 360 192 360 382C360 431 344 472 294 497L290 487C349 475 389 468 412 468C440 468 450 484 450 500C450 506 448 513 445 518C405 508 341 505 265 505ZM127 289C127 381 184 475 252 475C294 475 318 438 318 381C318 272 261 181 201 181C159 181 127 223 127 289ZM270 492ZM118 -248ZM346 718 319 716C359 675 397 623 425 583L441 593C412 653 380 711 359 747H318L311 743C291 714 229 641 185 595L194 583C242 621 318 689 346 718ZM334 742ZM292 492Z" glyph-name="gcircumflex" horiz-adv-x="364.5822" unicode="&#285;" /><glyph d="M442 14 473 163H433L403 21L419 39C396 30 366 25 333 25C205 25 140 105 140 213C140 383 268 510 425 510C458 510 477 508 498 502C501 463 504 423 507 384H521C534 422 545 485 548 524C512 539 477 545 433 545C244 545 96 401 96 213C96 72 188 -10 328 -10C380 -10 413 -1 442 14ZM473 163 479 191C483 209 489 220 507 223L565 234L563 250H376L373 234L444 215L433 163ZM385 535ZM314 0ZM452 761 425 759C465 718 503 666 531 626L547 636C518 696 486 754 465 790H424L417 786C397 757 335 684 291 638L300 626C348 664 424 732 452 761ZM440 785ZM398 535Z" glyph-name="gcircumflex.sc" horiz-adv-x="549.2618" /><glyph d="M265 505C168 505 85 401 85 280C85 203 129 153 193 153C205 153 221 155 241 160L232 175C164 113 119 85 119 52C119 20 154 3 200 -25C258 -60 285 -83 285 -118C285 -177 224 -223 135 -223C70 -223 10 -195 10 -138C10 -99 32 -67 59 -36L51 -28C0 -65 -32 -103 -32 -149C-32 -206 26 -255 119 -255C258 -255 327 -173 327 -111C327 -59 284 -32 209 15C179 34 162 44 162 62C162 113 360 192 360 382C360 431 344 472 294 497L290 487C349 475 389 468 412 468C440 468 450 484 450 500C450 506 448 513 445 518C405 508 341 505 265 505ZM127 289C127 381 184 475 252 475C294 475 318 438 318 381C318 272 261 181 201 181C159 181 127 223 127 289ZM270 492ZM118 -248ZM149 -409C149 -385 136 -370 116 -370C89 -370 67 -392 67 -420C67 -442 81 -455 102 -455L108 -423C97 -478 77 -515 36 -562L43 -569C102 -529 149 -458 149 -409ZM140 -248Z" glyph-name="gcommaaccent" horiz-adv-x="364.5822" unicode="&#291;" /><glyph d="M442 14 473 163H433L403 21L419 39C396 30 366 25 333 25C205 25 140 105 140 213C140 383 268 510 425 510C458 510 477 508 498 502C501 463 504 423 507 384H521C534 422 545 485 548 524C512 539 477 545 433 545C244 545 96 401 96 213C96 72 188 -10 328 -10C380 -10 413 -1 442 14ZM473 163 479 191C483 209 489 220 507 223L565 234L563 250H376L373 234L444 215L433 163ZM385 535ZM314 0ZM336 -161C336 -137 323 -122 303 -122C276 -122 254 -144 254 -172C254 -194 268 -207 289 -207L295 -175C284 -230 264 -267 223 -314L230 -321C289 -281 336 -210 336 -161ZM327 0Z" glyph-name="gcommaaccent.sc" horiz-adv-x="549.2618" /><glyph d="M265 505C168 505 85 401 85 280C85 203 129 153 193 153C205 153 221 155 241 160L232 175C164 113 119 85 119 52C119 20 154 3 200 -25C258 -60 285 -83 285 -118C285 -177 224 -223 135 -223C70 -223 10 -195 10 -138C10 -99 32 -67 59 -36L51 -28C0 -65 -32 -103 -32 -149C-32 -206 26 -255 119 -255C258 -255 327 -173 327 -111C327 -59 284 -32 209 15C179 34 162 44 162 62C162 113 360 192 360 382C360 431 344 472 294 497L290 487C349 475 389 468 412 468C440 468 450 484 450 500C450 506 448 513 445 518C405 508 341 505 265 505ZM127 289C127 381 184 475 252 475C294 475 318 438 318 381C318 272 261 181 201 181C159 181 127 223 127 289ZM270 492ZM118 -248ZM320 615C345 615 364 641 364 675C364 693 352 705 335 705C310 705 291 679 291 646C291 627 303 615 320 615ZM345 742ZM292 492Z" glyph-name="gdotaccent" horiz-adv-x="364.5822" unicode="&#289;" /><glyph d="M442 14 473 163H433L403 21L419 39C396 30 366 25 333 25C205 25 140 105 140 213C140 383 268 510 425 510C458 510 477 508 498 502C501 463 504 423 507 384H521C534 422 545 485 548 524C512 539 477 545 433 545C244 545 96 401 96 213C96 72 188 -10 328 -10C380 -10 413 -1 442 14ZM473 163 479 191C483 209 489 220 507 223L565 234L563 250H376L373 234L444 215L433 163ZM385 535ZM314 0ZM426 658C451 658 470 684 470 718C470 736 458 748 441 748C416 748 397 722 397 689C397 670 409 658 426 658ZM451 785ZM398 535Z" glyph-name="gdotaccent.sc" horiz-adv-x="549.2618" /><glyph d="M133 -8 261 554C285 659 334 727 400 727C449 727 479 689 479 628C479 536 416 459 320 446L317 433C397 376 442 293 442 199C442 101 393 23 331 23C299 23 267 47 250 80C241 75 233 64 233 50C233 18 268 -10 317 -10C411 -10 486 84 486 203C486 297 437 390 348 450L345 437C445 443 524 541 524 644C524 712 480 755 410 755C317 755 248 672 218 542L89 -20C60 -148 32 -222 -36 -222C-75 -222 -106 -193 -126 -165C-135 -170 -143 -181 -143 -195C-143 -227 -108 -255 -58 -255C37 -255 99 -158 133 -8Z" glyph-name="germandbls" horiz-adv-x="504.9978" unicode="&#223;" /><glyph d="M505 124C505 212 433 243 350 306L346 298L513 457L514 478C485 521 436 545 379 545C271 545 183 470 162 375L95 59C91 41 86 32 66 28L15 17L14 0H113L129 19L206 382C223 462 287 514 364 514C414 514 450 490 474 440L494 480L309 304V285C392 223 460 191 460 120C460 62 415 23 350 23C309 23 284 30 271 52C263 65 261 85 261 111C261 123 262 136 263 148L247 149C235 119 225 79 225 52C225 44 226 35 228 30C237 8 288 -10 343 -10C434 -10 505 51 505 124Z" glyph-name="germandbls.sc" horiz-adv-x="490.1479" /><glyph d="M370 592C324 649 281 712 266 753L261 755C260 755 258 755 257 755C235 755 223 745 220 732C213 698 296 631 357 581Z" glyph-name="grave" horiz-adv-x="408" unicode="`" /><glyph d="M430 795C357 823 312 866 283 897L277 898C266 894 250 885 250 869C248 828 368 786 419 779Z" glyph-name="grave.case" horiz-adv-x="453" /><glyph d="M370 592C324 649 281 712 266 753L261 755C260 755 258 755 257 755C235 755 223 745 220 732C213 698 296 631 357 581ZM319 745ZM269 495Z" glyph-name="gravecomb" horiz-adv-x="408" unicode="&#768;" /></font>
</defs>
</svg>
